<?xml version="1.0" encoding="utf-8"?>
<svg xmlns="http://www.w3.org/2000/svg" xmlns:xlink="http://www.w3.org/1999/xlink" width="600" height="400" viewBox="0 0 2400 1600">
<defs>
  <clipPath id="clip270">
    <rect x="0" y="0" width="2400" height="1600"/>
  </clipPath>
</defs>
<path clip-path="url(#clip270)" d="M0 1600 L2400 1600 L2400 0 L0 0  Z" fill="#ffffff" fill-rule="evenodd" fill-opacity="1"/>
<defs>
  <clipPath id="clip271">
    <rect x="307" y="47" width="2047" height="1440"/>
  </clipPath>
</defs>
<path clip-path="url(#clip270)" d="M307.034 1486.45 L2352.76 1486.45 L2352.76 47.2441 L307.034 47.2441  Z" fill="#ffffff" fill-rule="evenodd" fill-opacity="1"/>
<polyline clip-path="url(#clip271)" style="stroke:#000000; stroke-linecap:round; stroke-linejoin:round; stroke-width:2; stroke-opacity:0.1; fill:none" points="364.932,1486.45 364.932,47.2441 "/>
<polyline clip-path="url(#clip271)" style="stroke:#000000; stroke-linecap:round; stroke-linejoin:round; stroke-width:2; stroke-opacity:0.1; fill:none" points="889.662,1486.45 889.662,47.2441 "/>
<polyline clip-path="url(#clip271)" style="stroke:#000000; stroke-linecap:round; stroke-linejoin:round; stroke-width:2; stroke-opacity:0.1; fill:none" points="1414.39,1486.45 1414.39,47.2441 "/>
<polyline clip-path="url(#clip271)" style="stroke:#000000; stroke-linecap:round; stroke-linejoin:round; stroke-width:2; stroke-opacity:0.1; fill:none" points="1939.12,1486.45 1939.12,47.2441 "/>
<polyline clip-path="url(#clip271)" style="stroke:#000000; stroke-linecap:round; stroke-linejoin:round; stroke-width:2; stroke-opacity:0.1; fill:none" points="307.034,1445.72 2352.76,1445.72 "/>
<polyline clip-path="url(#clip271)" style="stroke:#000000; stroke-linecap:round; stroke-linejoin:round; stroke-width:2; stroke-opacity:0.1; fill:none" points="307.034,1145.03 2352.76,1145.03 "/>
<polyline clip-path="url(#clip271)" style="stroke:#000000; stroke-linecap:round; stroke-linejoin:round; stroke-width:2; stroke-opacity:0.1; fill:none" points="307.034,844.353 2352.76,844.353 "/>
<polyline clip-path="url(#clip271)" style="stroke:#000000; stroke-linecap:round; stroke-linejoin:round; stroke-width:2; stroke-opacity:0.1; fill:none" points="307.034,543.672 2352.76,543.672 "/>
<polyline clip-path="url(#clip271)" style="stroke:#000000; stroke-linecap:round; stroke-linejoin:round; stroke-width:2; stroke-opacity:0.1; fill:none" points="307.034,242.99 2352.76,242.99 "/>
<polyline clip-path="url(#clip270)" style="stroke:#000000; stroke-linecap:round; stroke-linejoin:round; stroke-width:4; stroke-opacity:1; fill:none" points="307.034,1486.45 2352.76,1486.45 "/>
<polyline clip-path="url(#clip270)" style="stroke:#000000; stroke-linecap:round; stroke-linejoin:round; stroke-width:4; stroke-opacity:1; fill:none" points="364.932,1486.45 364.932,1467.55 "/>
<polyline clip-path="url(#clip270)" style="stroke:#000000; stroke-linecap:round; stroke-linejoin:round; stroke-width:4; stroke-opacity:1; fill:none" points="889.662,1486.45 889.662,1467.55 "/>
<polyline clip-path="url(#clip270)" style="stroke:#000000; stroke-linecap:round; stroke-linejoin:round; stroke-width:4; stroke-opacity:1; fill:none" points="1414.39,1486.45 1414.39,1467.55 "/>
<polyline clip-path="url(#clip270)" style="stroke:#000000; stroke-linecap:round; stroke-linejoin:round; stroke-width:4; stroke-opacity:1; fill:none" points="1939.12,1486.45 1939.12,1467.55 "/>
<path clip-path="url(#clip270)" d="M342.317 1517.37 Q338.705 1517.37 336.877 1520.93 Q335.071 1524.47 335.071 1531.6 Q335.071 1538.71 336.877 1542.27 Q338.705 1545.82 342.317 1545.82 Q345.951 1545.82 347.756 1542.27 Q349.585 1538.71 349.585 1531.6 Q349.585 1524.47 347.756 1520.93 Q345.951 1517.37 342.317 1517.37 M342.317 1513.66 Q348.127 1513.66 351.182 1518.27 Q354.261 1522.85 354.261 1531.6 Q354.261 1540.33 351.182 1544.94 Q348.127 1549.52 342.317 1549.52 Q336.506 1549.52 333.428 1544.94 Q330.372 1540.33 330.372 1531.6 Q330.372 1522.85 333.428 1518.27 Q336.506 1513.66 342.317 1513.66 Z" fill="#000000" fill-rule="nonzero" fill-opacity="1" /><path clip-path="url(#clip270)" d="M362.478 1542.97 L367.363 1542.97 L367.363 1548.85 L362.478 1548.85 L362.478 1542.97 Z" fill="#000000" fill-rule="nonzero" fill-opacity="1" /><path clip-path="url(#clip270)" d="M387.548 1517.37 Q383.937 1517.37 382.108 1520.93 Q380.302 1524.47 380.302 1531.6 Q380.302 1538.71 382.108 1542.27 Q383.937 1545.82 387.548 1545.82 Q391.182 1545.82 392.988 1542.27 Q394.816 1538.71 394.816 1531.6 Q394.816 1524.47 392.988 1520.93 Q391.182 1517.37 387.548 1517.37 M387.548 1513.66 Q393.358 1513.66 396.413 1518.27 Q399.492 1522.85 399.492 1531.6 Q399.492 1540.33 396.413 1544.94 Q393.358 1549.52 387.548 1549.52 Q381.738 1549.52 378.659 1544.94 Q375.603 1540.33 375.603 1531.6 Q375.603 1522.85 378.659 1518.27 Q381.738 1513.66 387.548 1513.66 Z" fill="#000000" fill-rule="nonzero" fill-opacity="1" /><path clip-path="url(#clip270)" d="M867.66 1517.37 Q864.049 1517.37 862.22 1520.93 Q860.415 1524.47 860.415 1531.6 Q860.415 1538.71 862.22 1542.27 Q864.049 1545.82 867.66 1545.82 Q871.295 1545.82 873.1 1542.27 Q874.929 1538.71 874.929 1531.6 Q874.929 1524.47 873.1 1520.93 Q871.295 1517.37 867.66 1517.37 M867.66 1513.66 Q873.47 1513.66 876.526 1518.27 Q879.605 1522.85 879.605 1531.6 Q879.605 1540.33 876.526 1544.94 Q873.47 1549.52 867.66 1549.52 Q861.85 1549.52 858.771 1544.94 Q855.716 1540.33 855.716 1531.6 Q855.716 1522.85 858.771 1518.27 Q861.85 1513.66 867.66 1513.66 Z" fill="#000000" fill-rule="nonzero" fill-opacity="1" /><path clip-path="url(#clip270)" d="M887.822 1542.97 L892.706 1542.97 L892.706 1548.85 L887.822 1548.85 L887.822 1542.97 Z" fill="#000000" fill-rule="nonzero" fill-opacity="1" /><path clip-path="url(#clip270)" d="M903.702 1544.91 L911.341 1544.91 L911.341 1518.55 L903.03 1520.21 L903.03 1515.95 L911.294 1514.29 L915.97 1514.29 L915.97 1544.91 L923.609 1544.91 L923.609 1548.85 L903.702 1548.85 L903.702 1544.91 Z" fill="#000000" fill-rule="nonzero" fill-opacity="1" /><path clip-path="url(#clip270)" d="M1392.58 1517.37 Q1388.96 1517.37 1387.14 1520.93 Q1385.33 1524.47 1385.33 1531.6 Q1385.33 1538.71 1387.14 1542.27 Q1388.96 1545.82 1392.58 1545.82 Q1396.21 1545.82 1398.02 1542.27 Q1399.84 1538.71 1399.84 1531.6 Q1399.84 1524.47 1398.02 1520.93 Q1396.21 1517.37 1392.58 1517.37 M1392.58 1513.66 Q1398.39 1513.66 1401.44 1518.27 Q1404.52 1522.85 1404.52 1531.6 Q1404.52 1540.33 1401.44 1544.94 Q1398.39 1549.52 1392.58 1549.52 Q1386.77 1549.52 1383.69 1544.94 Q1380.63 1540.33 1380.63 1531.6 Q1380.63 1522.85 1383.69 1518.27 Q1386.77 1513.66 1392.58 1513.66 Z" fill="#000000" fill-rule="nonzero" fill-opacity="1" /><path clip-path="url(#clip270)" d="M1412.74 1542.97 L1417.62 1542.97 L1417.62 1548.85 L1412.74 1548.85 L1412.74 1542.97 Z" fill="#000000" fill-rule="nonzero" fill-opacity="1" /><path clip-path="url(#clip270)" d="M1431.83 1544.91 L1448.15 1544.91 L1448.15 1548.85 L1426.21 1548.85 L1426.21 1544.91 Q1428.87 1542.16 1433.46 1537.53 Q1438.06 1532.88 1439.24 1531.53 Q1441.49 1529.01 1442.37 1527.27 Q1443.27 1525.51 1443.27 1523.82 Q1443.27 1521.07 1441.33 1519.33 Q1439.4 1517.6 1436.3 1517.6 Q1434.1 1517.6 1431.65 1518.36 Q1429.22 1519.13 1426.44 1520.68 L1426.44 1515.95 Q1429.27 1514.82 1431.72 1514.24 Q1434.17 1513.66 1436.21 1513.66 Q1441.58 1513.66 1444.77 1516.35 Q1447.97 1519.03 1447.97 1523.52 Q1447.97 1525.65 1447.16 1527.57 Q1446.37 1529.47 1444.27 1532.07 Q1443.69 1532.74 1440.58 1535.95 Q1437.48 1539.15 1431.83 1544.91 Z" fill="#000000" fill-rule="nonzero" fill-opacity="1" /><path clip-path="url(#clip270)" d="M1916.83 1517.37 Q1913.22 1517.37 1911.39 1520.93 Q1909.59 1524.47 1909.59 1531.6 Q1909.59 1538.71 1911.39 1542.27 Q1913.22 1545.82 1916.83 1545.82 Q1920.47 1545.82 1922.27 1542.27 Q1924.1 1538.71 1924.1 1531.6 Q1924.1 1524.47 1922.27 1520.93 Q1920.47 1517.37 1916.83 1517.37 M1916.83 1513.66 Q1922.64 1513.66 1925.7 1518.27 Q1928.78 1522.85 1928.78 1531.6 Q1928.78 1540.33 1925.7 1544.94 Q1922.64 1549.52 1916.83 1549.52 Q1911.02 1549.52 1907.94 1544.94 Q1904.89 1540.33 1904.89 1531.6 Q1904.89 1522.85 1907.94 1518.27 Q1911.02 1513.66 1916.83 1513.66 Z" fill="#000000" fill-rule="nonzero" fill-opacity="1" /><path clip-path="url(#clip270)" d="M1936.99 1542.97 L1941.88 1542.97 L1941.88 1548.85 L1936.99 1548.85 L1936.99 1542.97 Z" fill="#000000" fill-rule="nonzero" fill-opacity="1" /><path clip-path="url(#clip270)" d="M1966.23 1530.21 Q1969.59 1530.93 1971.46 1533.2 Q1973.36 1535.47 1973.36 1538.8 Q1973.36 1543.92 1969.84 1546.72 Q1966.32 1549.52 1959.84 1549.52 Q1957.66 1549.52 1955.35 1549.08 Q1953.06 1548.66 1950.6 1547.81 L1950.6 1543.29 Q1952.55 1544.43 1954.86 1545.01 Q1957.18 1545.58 1959.7 1545.58 Q1964.1 1545.58 1966.39 1543.85 Q1968.71 1542.11 1968.71 1538.8 Q1968.71 1535.75 1966.55 1534.03 Q1964.42 1532.3 1960.6 1532.3 L1956.58 1532.3 L1956.58 1528.45 L1960.79 1528.45 Q1964.24 1528.45 1966.07 1527.09 Q1967.9 1525.7 1967.9 1523.11 Q1967.9 1520.45 1966 1519.03 Q1964.12 1517.6 1960.6 1517.6 Q1958.68 1517.6 1956.48 1518.01 Q1954.29 1518.43 1951.65 1519.31 L1951.65 1515.14 Q1954.31 1514.4 1956.62 1514.03 Q1958.96 1513.66 1961.02 1513.66 Q1966.35 1513.66 1969.45 1516.09 Q1972.55 1518.5 1972.55 1522.62 Q1972.55 1525.49 1970.91 1527.48 Q1969.26 1529.45 1966.23 1530.21 Z" fill="#000000" fill-rule="nonzero" fill-opacity="1" /><polyline clip-path="url(#clip270)" style="stroke:#000000; stroke-linecap:round; stroke-linejoin:round; stroke-width:4; stroke-opacity:1; fill:none" points="307.034,1486.45 307.034,47.2441 "/>
<polyline clip-path="url(#clip270)" style="stroke:#000000; stroke-linecap:round; stroke-linejoin:round; stroke-width:4; stroke-opacity:1; fill:none" points="307.034,1445.72 325.932,1445.72 "/>
<polyline clip-path="url(#clip270)" style="stroke:#000000; stroke-linecap:round; stroke-linejoin:round; stroke-width:4; stroke-opacity:1; fill:none" points="307.034,1145.03 325.932,1145.03 "/>
<polyline clip-path="url(#clip270)" style="stroke:#000000; stroke-linecap:round; stroke-linejoin:round; stroke-width:4; stroke-opacity:1; fill:none" points="307.034,844.353 325.932,844.353 "/>
<polyline clip-path="url(#clip270)" style="stroke:#000000; stroke-linecap:round; stroke-linejoin:round; stroke-width:4; stroke-opacity:1; fill:none" points="307.034,543.672 325.932,543.672 "/>
<polyline clip-path="url(#clip270)" style="stroke:#000000; stroke-linecap:round; stroke-linejoin:round; stroke-width:4; stroke-opacity:1; fill:none" points="307.034,242.99 325.932,242.99 "/>
<path clip-path="url(#clip270)" d="M259.09 1431.51 Q255.479 1431.51 253.65 1435.08 Q251.845 1438.62 251.845 1445.75 Q251.845 1452.86 253.65 1456.42 Q255.479 1459.96 259.09 1459.96 Q262.724 1459.96 264.53 1456.42 Q266.358 1452.86 266.358 1445.75 Q266.358 1438.62 264.53 1435.08 Q262.724 1431.51 259.09 1431.51 M259.09 1427.81 Q264.9 1427.81 267.956 1432.42 Q271.034 1437 271.034 1445.75 Q271.034 1454.48 267.956 1459.08 Q264.9 1463.67 259.09 1463.67 Q253.28 1463.67 250.201 1459.08 Q247.146 1454.48 247.146 1445.75 Q247.146 1437 250.201 1432.42 Q253.28 1427.81 259.09 1427.81 Z" fill="#000000" fill-rule="nonzero" fill-opacity="1" /><path clip-path="url(#clip270)" d="M54.5569 1164.83 L62.1958 1164.83 L62.1958 1138.46 L53.8856 1140.13 L53.8856 1135.87 L62.1495 1134.2 L66.8254 1134.2 L66.8254 1164.83 L74.4642 1164.83 L74.4642 1168.76 L54.5569 1168.76 L54.5569 1164.83 Z" fill="#000000" fill-rule="nonzero" fill-opacity="1" /><path clip-path="url(#clip270)" d="M83.9086 1162.88 L88.7928 1162.88 L88.7928 1168.76 L83.9086 1168.76 L83.9086 1162.88 Z" fill="#000000" fill-rule="nonzero" fill-opacity="1" /><path clip-path="url(#clip270)" d="M108.978 1137.28 Q105.367 1137.28 103.538 1140.85 Q101.733 1144.39 101.733 1151.52 Q101.733 1158.62 103.538 1162.19 Q105.367 1165.73 108.978 1165.73 Q112.612 1165.73 114.418 1162.19 Q116.246 1158.62 116.246 1151.52 Q116.246 1144.39 114.418 1140.85 Q112.612 1137.28 108.978 1137.28 M108.978 1133.58 Q114.788 1133.58 117.844 1138.18 Q120.922 1142.77 120.922 1151.52 Q120.922 1160.24 117.844 1164.85 Q114.788 1169.43 108.978 1169.43 Q103.168 1169.43 100.089 1164.85 Q97.0335 1160.24 97.0335 1151.52 Q97.0335 1142.77 100.089 1138.18 Q103.168 1133.58 108.978 1133.58 Z" fill="#000000" fill-rule="nonzero" fill-opacity="1" /><path clip-path="url(#clip270)" d="M157.311 1143.3 L146.732 1153.92 L157.311 1164.5 L154.556 1167.3 L143.931 1156.68 L133.306 1167.3 L130.575 1164.5 L141.131 1153.92 L130.575 1143.3 L133.306 1140.5 L143.931 1151.12 L154.556 1140.5 L157.311 1143.3 Z" fill="#000000" fill-rule="nonzero" fill-opacity="1" /><path clip-path="url(#clip270)" d="M169.672 1164.83 L177.311 1164.83 L177.311 1138.46 L169.001 1140.13 L169.001 1135.87 L177.265 1134.2 L181.94 1134.2 L181.94 1164.83 L189.579 1164.83 L189.579 1168.76 L169.672 1168.76 L169.672 1164.83 Z" fill="#000000" fill-rule="nonzero" fill-opacity="1" /><path clip-path="url(#clip270)" d="M209.024 1137.28 Q205.413 1137.28 203.584 1140.85 Q201.778 1144.39 201.778 1151.52 Q201.778 1158.62 203.584 1162.19 Q205.413 1165.73 209.024 1165.73 Q212.658 1165.73 214.463 1162.19 Q216.292 1158.62 216.292 1151.52 Q216.292 1144.39 214.463 1140.85 Q212.658 1137.28 209.024 1137.28 M209.024 1133.58 Q214.834 1133.58 217.889 1138.18 Q220.968 1142.77 220.968 1151.52 Q220.968 1160.24 217.889 1164.85 Q214.834 1169.43 209.024 1169.43 Q203.214 1169.43 200.135 1164.85 Q197.079 1160.24 197.079 1151.52 Q197.079 1142.77 200.135 1138.18 Q203.214 1133.58 209.024 1133.58 Z" fill="#000000" fill-rule="nonzero" fill-opacity="1" /><path clip-path="url(#clip270)" d="M220.968 1127.68 L245.08 1127.68 L245.08 1130.88 L220.968 1130.88 L220.968 1127.68 Z" fill="#000000" fill-rule="nonzero" fill-opacity="1" /><path clip-path="url(#clip270)" d="M261.405 1128.02 Q258.696 1128.02 257.135 1129.47 Q255.593 1130.91 255.593 1133.45 Q255.593 1135.99 257.135 1137.44 Q258.696 1138.89 261.405 1138.89 Q264.113 1138.89 265.674 1137.44 Q267.235 1135.97 267.235 1133.45 Q267.235 1130.91 265.674 1129.47 Q264.132 1128.02 261.405 1128.02 M257.606 1126.4 Q255.161 1125.8 253.788 1124.12 Q252.433 1122.45 252.433 1120.04 Q252.433 1116.68 254.822 1114.72 Q257.229 1112.76 261.405 1112.76 Q265.599 1112.76 267.987 1114.72 Q270.376 1116.68 270.376 1120.04 Q270.376 1122.45 269.003 1124.12 Q267.649 1125.8 265.223 1126.4 Q267.969 1127.04 269.492 1128.9 Q271.034 1130.76 271.034 1133.45 Q271.034 1137.53 268.533 1139.72 Q266.05 1141.9 261.405 1141.9 Q256.759 1141.9 254.258 1139.72 Q251.775 1137.53 251.775 1133.45 Q251.775 1130.76 253.317 1128.9 Q254.86 1127.04 257.606 1126.4 M256.214 1120.4 Q256.214 1122.58 257.568 1123.8 Q258.941 1125.03 261.405 1125.03 Q263.85 1125.03 265.223 1123.8 Q266.615 1122.58 266.615 1120.4 Q266.615 1118.22 265.223 1117 Q263.85 1115.77 261.405 1115.77 Q258.941 1115.77 257.568 1117 Q256.214 1118.22 256.214 1120.4 Z" fill="#000000" fill-rule="nonzero" fill-opacity="1" /><path clip-path="url(#clip270)" d="M57.7745 864.146 L74.0939 864.146 L74.0939 868.081 L52.1495 868.081 L52.1495 864.146 Q54.8115 861.391 59.3949 856.761 Q64.0013 852.109 65.1819 850.766 Q67.4272 848.243 68.3068 846.507 Q69.2096 844.747 69.2096 843.058 Q69.2096 840.303 67.2652 838.567 Q65.3439 836.831 62.2421 836.831 Q60.043 836.831 57.5893 837.595 Q55.1588 838.359 52.381 839.91 L52.381 835.187 Q55.2051 834.053 57.6588 833.474 Q60.1124 832.896 62.1495 832.896 Q67.5198 832.896 70.7142 835.581 Q73.9087 838.266 73.9087 842.757 Q73.9087 844.886 73.0985 846.808 Q72.3115 848.706 70.205 851.298 Q69.6263 851.97 66.5245 855.187 Q63.4226 858.382 57.7745 864.146 Z" fill="#000000" fill-rule="nonzero" fill-opacity="1" /><path clip-path="url(#clip270)" d="M83.9086 862.201 L88.7928 862.201 L88.7928 868.081 L83.9086 868.081 L83.9086 862.201 Z" fill="#000000" fill-rule="nonzero" fill-opacity="1" /><path clip-path="url(#clip270)" d="M108.978 836.599 Q105.367 836.599 103.538 840.164 Q101.733 843.706 101.733 850.835 Q101.733 857.942 103.538 861.507 Q105.367 865.048 108.978 865.048 Q112.612 865.048 114.418 861.507 Q116.246 857.942 116.246 850.835 Q116.246 843.706 114.418 840.164 Q112.612 836.599 108.978 836.599 M108.978 832.896 Q114.788 832.896 117.844 837.502 Q120.922 842.085 120.922 850.835 Q120.922 859.562 117.844 864.169 Q114.788 868.752 108.978 868.752 Q103.168 868.752 100.089 864.169 Q97.0335 859.562 97.0335 850.835 Q97.0335 842.085 100.089 837.502 Q103.168 832.896 108.978 832.896 Z" fill="#000000" fill-rule="nonzero" fill-opacity="1" /><path clip-path="url(#clip270)" d="M157.311 842.618 L146.732 853.243 L157.311 863.821 L154.556 866.622 L143.931 855.997 L133.306 866.622 L130.575 863.821 L141.131 853.243 L130.575 842.618 L133.306 839.817 L143.931 850.442 L154.556 839.817 L157.311 842.618 Z" fill="#000000" fill-rule="nonzero" fill-opacity="1" /><path clip-path="url(#clip270)" d="M169.672 864.146 L177.311 864.146 L177.311 837.78 L169.001 839.447 L169.001 835.187 L177.265 833.521 L181.94 833.521 L181.94 864.146 L189.579 864.146 L189.579 868.081 L169.672 868.081 L169.672 864.146 Z" fill="#000000" fill-rule="nonzero" fill-opacity="1" /><path clip-path="url(#clip270)" d="M209.024 836.599 Q205.413 836.599 203.584 840.164 Q201.778 843.706 201.778 850.835 Q201.778 857.942 203.584 861.507 Q205.413 865.048 209.024 865.048 Q212.658 865.048 214.463 861.507 Q216.292 857.942 216.292 850.835 Q216.292 843.706 214.463 840.164 Q212.658 836.599 209.024 836.599 M209.024 832.896 Q214.834 832.896 217.889 837.502 Q220.968 842.085 220.968 850.835 Q220.968 859.562 217.889 864.169 Q214.834 868.752 209.024 868.752 Q203.214 868.752 200.135 864.169 Q197.079 859.562 197.079 850.835 Q197.079 842.085 200.135 837.502 Q203.214 832.896 209.024 832.896 Z" fill="#000000" fill-rule="nonzero" fill-opacity="1" /><path clip-path="url(#clip270)" d="M220.968 826.997 L245.08 826.997 L245.08 830.194 L220.968 830.194 L220.968 826.997 Z" fill="#000000" fill-rule="nonzero" fill-opacity="1" /><path clip-path="url(#clip270)" d="M261.405 827.336 Q258.696 827.336 257.135 828.784 Q255.593 830.232 255.593 832.771 Q255.593 835.31 257.135 836.758 Q258.696 838.206 261.405 838.206 Q264.113 838.206 265.674 836.758 Q267.235 835.291 267.235 832.771 Q267.235 830.232 265.674 828.784 Q264.132 827.336 261.405 827.336 M257.606 825.718 Q255.161 825.116 253.788 823.442 Q252.433 821.768 252.433 819.361 Q252.433 815.994 254.822 814.038 Q257.229 812.082 261.405 812.082 Q265.599 812.082 267.987 814.038 Q270.376 815.994 270.376 819.361 Q270.376 821.768 269.003 823.442 Q267.649 825.116 265.223 825.718 Q267.969 826.358 269.492 828.22 Q271.034 830.082 271.034 832.771 Q271.034 836.852 268.533 839.034 Q266.05 841.216 261.405 841.216 Q256.759 841.216 254.258 839.034 Q251.775 836.852 251.775 832.771 Q251.775 830.082 253.317 828.22 Q254.86 826.358 257.606 825.718 M256.214 819.718 Q256.214 821.9 257.568 823.123 Q258.941 824.345 261.405 824.345 Q263.85 824.345 265.223 823.123 Q266.615 821.9 266.615 819.718 Q266.615 817.537 265.223 816.314 Q263.85 815.092 261.405 815.092 Q258.941 815.092 257.568 816.314 Q256.214 817.537 256.214 819.718 Z" fill="#000000" fill-rule="nonzero" fill-opacity="1" /><path clip-path="url(#clip270)" d="M67.9133 548.765 Q71.2698 549.483 73.1448 551.751 Q75.0429 554.02 75.0429 557.353 Q75.0429 562.469 71.5244 565.27 Q68.0059 568.071 61.5245 568.071 Q59.3486 568.071 57.0338 567.631 Q54.7421 567.214 52.2884 566.358 L52.2884 561.844 Q54.2328 562.978 56.5477 563.557 Q58.8625 564.135 61.3856 564.135 Q65.7837 564.135 68.0754 562.399 Q70.3902 560.663 70.3902 557.353 Q70.3902 554.298 68.2374 552.585 Q66.1078 550.849 62.2884 550.849 L58.2606 550.849 L58.2606 547.006 L62.4735 547.006 Q65.9226 547.006 67.7513 545.64 Q69.58 544.251 69.58 541.659 Q69.58 538.997 67.6819 537.585 Q65.8069 536.15 62.2884 536.15 Q60.3671 536.15 58.168 536.566 Q55.969 536.983 53.3301 537.862 L53.3301 533.696 Q55.9921 532.955 58.3069 532.585 Q60.6449 532.214 62.705 532.214 Q68.0291 532.214 71.1309 534.645 Q74.2327 537.052 74.2327 541.173 Q74.2327 544.043 72.5892 546.034 Q70.9457 548.001 67.9133 548.765 Z" fill="#000000" fill-rule="nonzero" fill-opacity="1" /><path clip-path="url(#clip270)" d="M83.9086 561.52 L88.7928 561.52 L88.7928 567.399 L83.9086 567.399 L83.9086 561.52 Z" fill="#000000" fill-rule="nonzero" fill-opacity="1" /><path clip-path="url(#clip270)" d="M108.978 535.918 Q105.367 535.918 103.538 539.483 Q101.733 543.025 101.733 550.154 Q101.733 557.261 103.538 560.825 Q105.367 564.367 108.978 564.367 Q112.612 564.367 114.418 560.825 Q116.246 557.261 116.246 550.154 Q116.246 543.025 114.418 539.483 Q112.612 535.918 108.978 535.918 M108.978 532.214 Q114.788 532.214 117.844 536.821 Q120.922 541.404 120.922 550.154 Q120.922 558.881 117.844 563.487 Q114.788 568.071 108.978 568.071 Q103.168 568.071 100.089 563.487 Q97.0335 558.881 97.0335 550.154 Q97.0335 541.404 100.089 536.821 Q103.168 532.214 108.978 532.214 Z" fill="#000000" fill-rule="nonzero" fill-opacity="1" /><path clip-path="url(#clip270)" d="M157.311 541.937 L146.732 552.561 L157.311 563.14 L154.556 565.941 L143.931 555.316 L133.306 565.941 L130.575 563.14 L141.131 552.561 L130.575 541.937 L133.306 539.136 L143.931 549.761 L154.556 539.136 L157.311 541.937 Z" fill="#000000" fill-rule="nonzero" fill-opacity="1" /><path clip-path="url(#clip270)" d="M169.672 563.464 L177.311 563.464 L177.311 537.099 L169.001 538.765 L169.001 534.506 L177.265 532.839 L181.94 532.839 L181.94 563.464 L189.579 563.464 L189.579 567.399 L169.672 567.399 L169.672 563.464 Z" fill="#000000" fill-rule="nonzero" fill-opacity="1" /><path clip-path="url(#clip270)" d="M209.024 535.918 Q205.413 535.918 203.584 539.483 Q201.778 543.025 201.778 550.154 Q201.778 557.261 203.584 560.825 Q205.413 564.367 209.024 564.367 Q212.658 564.367 214.463 560.825 Q216.292 557.261 216.292 550.154 Q216.292 543.025 214.463 539.483 Q212.658 535.918 209.024 535.918 M209.024 532.214 Q214.834 532.214 217.889 536.821 Q220.968 541.404 220.968 550.154 Q220.968 558.881 217.889 563.487 Q214.834 568.071 209.024 568.071 Q203.214 568.071 200.135 563.487 Q197.079 558.881 197.079 550.154 Q197.079 541.404 200.135 536.821 Q203.214 532.214 209.024 532.214 Z" fill="#000000" fill-rule="nonzero" fill-opacity="1" /><path clip-path="url(#clip270)" d="M220.968 526.316 L245.08 526.316 L245.08 529.513 L220.968 529.513 L220.968 526.316 Z" fill="#000000" fill-rule="nonzero" fill-opacity="1" /><path clip-path="url(#clip270)" d="M261.405 526.654 Q258.696 526.654 257.135 528.102 Q255.593 529.551 255.593 532.09 Q255.593 534.629 257.135 536.077 Q258.696 537.525 261.405 537.525 Q264.113 537.525 265.674 536.077 Q267.235 534.61 267.235 532.09 Q267.235 529.551 265.674 528.102 Q264.132 526.654 261.405 526.654 M257.606 525.037 Q255.161 524.435 253.788 522.761 Q252.433 521.087 252.433 518.68 Q252.433 515.313 254.822 513.357 Q257.229 511.401 261.405 511.401 Q265.599 511.401 267.987 513.357 Q270.376 515.313 270.376 518.68 Q270.376 521.087 269.003 522.761 Q267.649 524.435 265.223 525.037 Q267.969 525.676 269.492 527.538 Q271.034 529.4 271.034 532.09 Q271.034 536.171 268.533 538.353 Q266.05 540.534 261.405 540.534 Q256.759 540.534 254.258 538.353 Q251.775 536.171 251.775 532.09 Q251.775 529.4 253.317 527.538 Q254.86 525.676 257.606 525.037 M256.214 519.037 Q256.214 521.219 257.568 522.441 Q258.941 523.664 261.405 523.664 Q263.85 523.664 265.223 522.441 Q266.615 521.219 266.615 519.037 Q266.615 516.855 265.223 515.633 Q263.85 514.41 261.405 514.41 Q258.941 514.41 257.568 515.633 Q256.214 516.855 256.214 519.037 Z" fill="#000000" fill-rule="nonzero" fill-opacity="1" /><path clip-path="url(#clip270)" d="M66.5939 236.232 L54.7884 254.681 L66.5939 254.681 L66.5939 236.232 M65.367 232.158 L71.2466 232.158 L71.2466 254.681 L76.1772 254.681 L76.1772 258.57 L71.2466 258.57 L71.2466 266.718 L66.5939 266.718 L66.5939 258.57 L50.9921 258.57 L50.9921 254.056 L65.367 232.158 Z" fill="#000000" fill-rule="nonzero" fill-opacity="1" /><path clip-path="url(#clip270)" d="M83.9086 260.838 L88.7928 260.838 L88.7928 266.718 L83.9086 266.718 L83.9086 260.838 Z" fill="#000000" fill-rule="nonzero" fill-opacity="1" /><path clip-path="url(#clip270)" d="M108.978 235.237 Q105.367 235.237 103.538 238.802 Q101.733 242.343 101.733 249.473 Q101.733 256.579 103.538 260.144 Q105.367 263.686 108.978 263.686 Q112.612 263.686 114.418 260.144 Q116.246 256.579 116.246 249.473 Q116.246 242.343 114.418 238.802 Q112.612 235.237 108.978 235.237 M108.978 231.533 Q114.788 231.533 117.844 236.14 Q120.922 240.723 120.922 249.473 Q120.922 258.2 117.844 262.806 Q114.788 267.389 108.978 267.389 Q103.168 267.389 100.089 262.806 Q97.0335 258.2 97.0335 249.473 Q97.0335 240.723 100.089 236.14 Q103.168 231.533 108.978 231.533 Z" fill="#000000" fill-rule="nonzero" fill-opacity="1" /><path clip-path="url(#clip270)" d="M157.311 241.255 L146.732 251.88 L157.311 262.459 L154.556 265.26 L143.931 254.635 L133.306 265.26 L130.575 262.459 L141.131 251.88 L130.575 241.255 L133.306 238.454 L143.931 249.079 L154.556 238.454 L157.311 241.255 Z" fill="#000000" fill-rule="nonzero" fill-opacity="1" /><path clip-path="url(#clip270)" d="M169.672 262.783 L177.311 262.783 L177.311 236.417 L169.001 238.084 L169.001 233.825 L177.265 232.158 L181.94 232.158 L181.94 262.783 L189.579 262.783 L189.579 266.718 L169.672 266.718 L169.672 262.783 Z" fill="#000000" fill-rule="nonzero" fill-opacity="1" /><path clip-path="url(#clip270)" d="M209.024 235.237 Q205.413 235.237 203.584 238.802 Q201.778 242.343 201.778 249.473 Q201.778 256.579 203.584 260.144 Q205.413 263.686 209.024 263.686 Q212.658 263.686 214.463 260.144 Q216.292 256.579 216.292 249.473 Q216.292 242.343 214.463 238.802 Q212.658 235.237 209.024 235.237 M209.024 231.533 Q214.834 231.533 217.889 236.14 Q220.968 240.723 220.968 249.473 Q220.968 258.2 217.889 262.806 Q214.834 267.389 209.024 267.389 Q203.214 267.389 200.135 262.806 Q197.079 258.2 197.079 249.473 Q197.079 240.723 200.135 236.14 Q203.214 231.533 209.024 231.533 Z" fill="#000000" fill-rule="nonzero" fill-opacity="1" /><path clip-path="url(#clip270)" d="M220.968 225.634 L245.08 225.634 L245.08 228.832 L220.968 228.832 L220.968 225.634 Z" fill="#000000" fill-rule="nonzero" fill-opacity="1" /><path clip-path="url(#clip270)" d="M261.405 225.973 Q258.696 225.973 257.135 227.421 Q255.593 228.869 255.593 231.408 Q255.593 233.947 257.135 235.396 Q258.696 236.844 261.405 236.844 Q264.113 236.844 265.674 235.396 Q267.235 233.929 267.235 231.408 Q267.235 228.869 265.674 227.421 Q264.132 225.973 261.405 225.973 M257.606 224.355 Q255.161 223.754 253.788 222.08 Q252.433 220.406 252.433 217.998 Q252.433 214.632 254.822 212.676 Q257.229 210.72 261.405 210.72 Q265.599 210.72 267.987 212.676 Q270.376 214.632 270.376 217.998 Q270.376 220.406 269.003 222.08 Q267.649 223.754 265.223 224.355 Q267.969 224.995 269.492 226.857 Q271.034 228.719 271.034 231.408 Q271.034 235.49 268.533 237.671 Q266.05 239.853 261.405 239.853 Q256.759 239.853 254.258 237.671 Q251.775 235.49 251.775 231.408 Q251.775 228.719 253.317 226.857 Q254.86 224.995 257.606 224.355 M256.214 218.356 Q256.214 220.538 257.568 221.76 Q258.941 222.983 261.405 222.983 Q263.85 222.983 265.223 221.76 Q266.615 220.538 266.615 218.356 Q266.615 216.174 265.223 214.952 Q263.85 213.729 261.405 213.729 Q258.941 213.729 257.568 214.952 Q256.214 216.174 256.214 218.356 Z" fill="#000000" fill-rule="nonzero" fill-opacity="1" /><polyline clip-path="url(#clip271)" style="stroke:#009af9; stroke-linecap:round; stroke-linejoin:round; stroke-width:20; stroke-opacity:1; fill:none" points="364.932,1445.72 520.386,1445.72 669.35,1445.72 811.742,1445.72 947.489,1445.72 1076.53,1445.72 1198.81,1445.72 1314.29,1445.72 1422.97,1445.72 1524.82,1445.72 1619.86,1445.72 1708.13,1445.72 1789.67,1445.72 1864.54,1445.71 1932.84,1445.7 1994.66,1445.61 2050.14,1445.14 2099.41,1443.06 2142.64,1434.82 2180,1404.89 "/>
<polyline clip-path="url(#clip271)" style="stroke:#e26f46; stroke-linecap:round; stroke-linejoin:round; stroke-width:20; stroke-opacity:1; fill:none" points="2180,1445.72 2221.73,1445.67 2253.16,1445.63 2275.23,1445.61 2288.85,1445.6 2294.86,1445.59 2294.03,1445.59 2287.08,1445.6 2274.7,1445.61 2257.49,1445.63 2236.05,1445.65 2210.88,1445.68 2182.49,1445.69 2151.3,1445.64 2117.74,1445.28 2082.17,1443.62 2044.92,1437.14 2006.31,1414.15 1966.61,1338.48 1926.08,1105.13 "/>
<polyline clip-path="url(#clip271)" style="stroke:#3da44d; stroke-linecap:round; stroke-linejoin:round; stroke-width:20; stroke-opacity:1; fill:none" points="1926.08,1445.72 1883.42,1444.24 1840.34,1442.76 1797.04,1441.26 1753.69,1439.77 1710.45,1438.27 1667.46,1436.79 1624.84,1435.32 1582.69,1433.86 1541.11,1432.43 1500.17,1431.02 1459.95,1429.63 1420.51,1428.28 1381.89,1427 1344.13,1425.97 1307.26,1425.89 1271.32,1429.33 1236.32,1445.14 1202.27,1389.89 1169.19,1208.39 "/>
<polyline clip-path="url(#clip271)" style="stroke:#c271d2; stroke-linecap:round; stroke-linejoin:round; stroke-width:20; stroke-opacity:1; fill:none" points="1169.19,1445.72 1166.69,1445.57 1164.2,1445.43 1161.71,1445.28 1159.23,1445.14 1156.75,1445 1154.28,1444.86 1151.81,1444.71 1149.35,1444.57 1146.9,1444.43 1144.45,1444.29 1142.01,1444.14 1139.57,1443.96 1137.14,1443.63 1134.71,1442.6 1132.29,1438.77 1129.88,1424.75 1127.47,1376.52 1125.07,1221.34 1122.67,752.595 "/>
<polyline clip-path="url(#clip271)" style="stroke:#ac8d18; stroke-linecap:round; stroke-linejoin:round; stroke-width:20; stroke-opacity:1; fill:none" points="1122.67,1445.71 1119.37,1445.54 1116.08,1445.37 1112.8,1445.2 1109.53,1445.03 1106.27,1444.87 1103.02,1444.7 1099.79,1444.54 1096.56,1444.37 1093.35,1444.21 1090.14,1444.04 1086.95,1443.87 1083.77,1443.67 1080.6,1443.3 1077.44,1442.19 1074.29,1438.09 1071.15,1423.14 1068.02,1371.71 1064.91,1206.28 1061.8,706.567 "/>
<polyline clip-path="url(#clip271)" style="stroke:#00a9ad; stroke-linecap:round; stroke-linejoin:round; stroke-width:20; stroke-opacity:1; fill:none" points="1061.8,1445.71 1056.56,1445.01 1051.36,1444.3 1046.18,1443.6 1041.03,1442.91 1035.92,1442.21 1030.83,1441.53 1025.78,1440.84 1020.76,1440.16 1015.76,1439.49 1010.8,1438.82 1005.87,1438.15 1000.97,1437.51 996.098,1436.95 991.258,1436.77 986.448,1438.05 981.668,1438.76 976.918,1413.72 972.198,1332.62 967.508,1087.16 "/>
<polyline clip-path="url(#clip271)" style="stroke:#ed5d92; stroke-linecap:round; stroke-linejoin:round; stroke-width:20; stroke-opacity:1; fill:none" points="967.508,1445.72 947.737,1444.57 928.506,1443.45 909.808,1442.37 891.633,1441.31 873.975,1440.29 856.823,1439.3 840.169,1438.33 824.003,1437.39 808.316,1436.48 793.098,1435.6 778.339,1434.74 764.029,1433.87 750.159,1432.86 736.717,1431.17 723.695,1426.65 711.082,1411.76 698.867,1361.97 687.042,1203.07 675.597,724.161 "/>
<polyline clip-path="url(#clip271)" style="stroke:#c68125; stroke-linecap:round; stroke-linejoin:round; stroke-width:20; stroke-opacity:1; fill:none" points="675.597,1445.72 650.919,1441.76 628.042,1438.09 606.855,1434.7 587.252,1431.55 569.129,1428.65 552.389,1425.96 536.939,1423.49 522.689,1421.2 509.556,1419.1 497.46,1417.16 486.326,1415.38 476.084,1413.75 466.668,1412.33 458.016,1411.39 450.07,1412.17 442.776,1419.5 436.084,1440.48 429.947,1325.79 424.321,940.789 "/>
<polyline clip-path="url(#clip271)" style="stroke:#00a98d; stroke-linecap:round; stroke-linejoin:round; stroke-width:20; stroke-opacity:1; fill:none" points="424.321,1445.72 417.843,1444.08 412.05,1442.62 406.873,1441.32 402.25,1440.15 398.123,1439.11 394.441,1438.18 391.158,1437.35 388.232,1436.61 385.626,1435.96 383.305,1435.37 381.239,1434.85 379.401,1434.36 377.766,1433.82 376.313,1432.76 375.022,1429.2 373.874,1415.06 372.855,1360.19 371.951,1159.61 371.148,470.137 "/>
<polyline clip-path="url(#clip271)" style="stroke:#8e971d; stroke-linecap:round; stroke-linejoin:round; stroke-width:20; stroke-opacity:1; fill:none" points="371.148,1445.72 370.351,1445.56 369.654,1445.42 369.046,1445.3 368.515,1445.2 368.052,1445.1 367.648,1445.02 367.296,1444.95 366.989,1444.89 366.722,1444.84 366.488,1444.79 366.285,1444.76 366.109,1444.74 365.955,1444.8 365.821,1445.25 365.704,1443.88 365.603,1433.72 365.515,1392.63 365.438,1238.21 365.371,694.214 "/>
<polyline clip-path="url(#clip271)" style="stroke:#00a8cb; stroke-linecap:round; stroke-linejoin:round; stroke-width:20; stroke-opacity:1; fill:none" points="365.371,1445.72 365.313,1445.71 365.262,1445.7 365.217,1445.7 365.179,1445.7 365.146,1445.69 365.117,1445.69 365.092,1445.69 365.071,1445.69 365.052,1445.68 365.036,1445.68 365.022,1445.68 365.01,1445.66 364.999,1445.56 364.99,1445.04 364.982,1442.54 364.975,1431.57 364.97,1387.16 364.965,1219.95 364.96,629.656 "/>
<polyline clip-path="url(#clip271)" style="stroke:#9b7fe8; stroke-linecap:round; stroke-linejoin:round; stroke-width:20; stroke-opacity:1; fill:none" points="364.96,1445.72 364.956,1445.71 364.953,1445.71 364.95,1445.71 364.948,1445.71 364.945,1445.71 364.944,1445.71 364.942,1445.71 364.941,1445.71 364.939,1445.71 364.938,1445.71 364.937,1445.7 364.937,1445.69 364.936,1445.58 364.936,1444.99 364.935,1442.14 364.935,1429.58 364.934,1378.62 364.934,1186.1 364.934,504.23 "/>
<polyline clip-path="url(#clip271)" style="stroke:#608cf6; stroke-linecap:round; stroke-linejoin:round; stroke-width:20; stroke-opacity:1; fill:none" points="364.934,1445.72 364.933,1445.72 364.933,1445.72 364.933,1445.71 364.933,1445.71 364.933,1445.71 364.933,1445.71 364.933,1445.71 364.933,1445.71 364.933,1445.72 364.932,1445.72 364.932,1445.71 364.932,1445.69 364.932,1445.54 364.932,1444.71 364.932,1440.69 364.932,1422.88 364.932,1350.12 364.932,1073.56 364.932,87.9763 "/>
<polyline clip-path="url(#clip271)" style="stroke:#f05f73; stroke-linecap:round; stroke-linejoin:round; stroke-width:20; stroke-opacity:1; fill:none" points="364.932,1445.72 364.932,1445.71 364.932,1445.71 364.932,1445.72 364.932,1445.72 364.932,1445.71 364.932,1445.72 364.932,1445.72 364.932,1445.71 364.932,1445.72 364.932,1445.72 364.932,1445.71 364.932,1445.71 364.932,1445.7 364.932,1445.59 364.932,1445.06 364.932,1442.62 364.932,1432.22 364.932,1391.03 364.932,1238.36 "/>
<polyline clip-path="url(#clip271)" style="stroke:#dd64b5; stroke-linecap:round; stroke-linejoin:round; stroke-width:20; stroke-opacity:1; fill:none" points="364.932,1445.71 364.932,1445.71 364.932,1445.71 364.932,1445.71 364.932,1445.71 364.932,1445.71 364.932,1445.71 364.932,1445.71 364.932,1445.71 364.932,1445.71 364.932,1445.71 364.932,1445.71 364.932,1445.7 364.932,1445.62 364.932,1445.21 364.932,1443.23 364.932,1434.47 364.932,1398.71 364.932,1263.14 364.932,781.005 "/>
</svg>
