<?xml version="1.0" encoding="utf-8"?>
<svg xmlns="http://www.w3.org/2000/svg" xmlns:xlink="http://www.w3.org/1999/xlink" width="600" height="400" viewBox="0 0 2400 1600">
<defs>
  <clipPath id="clip560">
    <rect x="0" y="0" width="2400" height="1600"/>
  </clipPath>
</defs>
<path clip-path="url(#clip560)" d="M0 1600 L2400 1600 L2400 0 L0 0  Z" fill="#ffffff" fill-rule="evenodd" fill-opacity="1"/>
<defs>
  <clipPath id="clip561">
    <rect x="307" y="47" width="2047" height="1440"/>
  </clipPath>
</defs>
<path clip-path="url(#clip560)" d="M307.034 1486.45 L2352.76 1486.45 L2352.76 47.2441 L307.034 47.2441  Z" fill="#ffffff" fill-rule="evenodd" fill-opacity="1"/>
<polyline clip-path="url(#clip561)" style="stroke:#000000; stroke-linecap:round; stroke-linejoin:round; stroke-width:2; stroke-opacity:0.1; fill:none" points="364.932,1486.45 364.932,47.2441 "/>
<polyline clip-path="url(#clip561)" style="stroke:#000000; stroke-linecap:round; stroke-linejoin:round; stroke-width:2; stroke-opacity:0.1; fill:none" points="889.662,1486.45 889.662,47.2441 "/>
<polyline clip-path="url(#clip561)" style="stroke:#000000; stroke-linecap:round; stroke-linejoin:round; stroke-width:2; stroke-opacity:0.1; fill:none" points="1414.39,1486.45 1414.39,47.2441 "/>
<polyline clip-path="url(#clip561)" style="stroke:#000000; stroke-linecap:round; stroke-linejoin:round; stroke-width:2; stroke-opacity:0.1; fill:none" points="1939.12,1486.45 1939.12,47.2441 "/>
<polyline clip-path="url(#clip561)" style="stroke:#000000; stroke-linecap:round; stroke-linejoin:round; stroke-width:2; stroke-opacity:0.1; fill:none" points="307.034,1445.72 2352.76,1445.72 "/>
<polyline clip-path="url(#clip561)" style="stroke:#000000; stroke-linecap:round; stroke-linejoin:round; stroke-width:2; stroke-opacity:0.1; fill:none" points="307.034,1242.19 2352.76,1242.19 "/>
<polyline clip-path="url(#clip561)" style="stroke:#000000; stroke-linecap:round; stroke-linejoin:round; stroke-width:2; stroke-opacity:0.1; fill:none" points="307.034,1038.67 2352.76,1038.67 "/>
<polyline clip-path="url(#clip561)" style="stroke:#000000; stroke-linecap:round; stroke-linejoin:round; stroke-width:2; stroke-opacity:0.1; fill:none" points="307.034,835.143 2352.76,835.143 "/>
<polyline clip-path="url(#clip561)" style="stroke:#000000; stroke-linecap:round; stroke-linejoin:round; stroke-width:2; stroke-opacity:0.1; fill:none" points="307.034,631.619 2352.76,631.619 "/>
<polyline clip-path="url(#clip561)" style="stroke:#000000; stroke-linecap:round; stroke-linejoin:round; stroke-width:2; stroke-opacity:0.1; fill:none" points="307.034,428.095 2352.76,428.095 "/>
<polyline clip-path="url(#clip561)" style="stroke:#000000; stroke-linecap:round; stroke-linejoin:round; stroke-width:2; stroke-opacity:0.1; fill:none" points="307.034,224.571 2352.76,224.571 "/>
<polyline clip-path="url(#clip560)" style="stroke:#000000; stroke-linecap:round; stroke-linejoin:round; stroke-width:4; stroke-opacity:1; fill:none" points="307.034,1486.45 2352.76,1486.45 "/>
<polyline clip-path="url(#clip560)" style="stroke:#000000; stroke-linecap:round; stroke-linejoin:round; stroke-width:4; stroke-opacity:1; fill:none" points="364.932,1486.45 364.932,1467.55 "/>
<polyline clip-path="url(#clip560)" style="stroke:#000000; stroke-linecap:round; stroke-linejoin:round; stroke-width:4; stroke-opacity:1; fill:none" points="889.662,1486.45 889.662,1467.55 "/>
<polyline clip-path="url(#clip560)" style="stroke:#000000; stroke-linecap:round; stroke-linejoin:round; stroke-width:4; stroke-opacity:1; fill:none" points="1414.39,1486.45 1414.39,1467.55 "/>
<polyline clip-path="url(#clip560)" style="stroke:#000000; stroke-linecap:round; stroke-linejoin:round; stroke-width:4; stroke-opacity:1; fill:none" points="1939.12,1486.45 1939.12,1467.55 "/>
<path clip-path="url(#clip560)" d="M342.317 1517.37 Q338.705 1517.37 336.877 1520.93 Q335.071 1524.47 335.071 1531.6 Q335.071 1538.71 336.877 1542.27 Q338.705 1545.82 342.317 1545.82 Q345.951 1545.82 347.756 1542.27 Q349.585 1538.71 349.585 1531.6 Q349.585 1524.47 347.756 1520.93 Q345.951 1517.37 342.317 1517.37 M342.317 1513.66 Q348.127 1513.66 351.182 1518.27 Q354.261 1522.85 354.261 1531.6 Q354.261 1540.33 351.182 1544.94 Q348.127 1549.52 342.317 1549.52 Q336.506 1549.52 333.428 1544.94 Q330.372 1540.33 330.372 1531.6 Q330.372 1522.85 333.428 1518.27 Q336.506 1513.66 342.317 1513.66 Z" fill="#000000" fill-rule="nonzero" fill-opacity="1" /><path clip-path="url(#clip560)" d="M362.478 1542.97 L367.363 1542.97 L367.363 1548.85 L362.478 1548.85 L362.478 1542.97 Z" fill="#000000" fill-rule="nonzero" fill-opacity="1" /><path clip-path="url(#clip560)" d="M387.548 1517.37 Q383.937 1517.37 382.108 1520.93 Q380.302 1524.47 380.302 1531.6 Q380.302 1538.71 382.108 1542.27 Q383.937 1545.82 387.548 1545.82 Q391.182 1545.82 392.988 1542.27 Q394.816 1538.71 394.816 1531.6 Q394.816 1524.47 392.988 1520.93 Q391.182 1517.37 387.548 1517.37 M387.548 1513.66 Q393.358 1513.66 396.413 1518.27 Q399.492 1522.85 399.492 1531.6 Q399.492 1540.33 396.413 1544.94 Q393.358 1549.52 387.548 1549.52 Q381.738 1549.52 378.659 1544.94 Q375.603 1540.33 375.603 1531.6 Q375.603 1522.85 378.659 1518.27 Q381.738 1513.66 387.548 1513.66 Z" fill="#000000" fill-rule="nonzero" fill-opacity="1" /><path clip-path="url(#clip560)" d="M867.66 1517.37 Q864.049 1517.37 862.22 1520.93 Q860.415 1524.47 860.415 1531.6 Q860.415 1538.71 862.22 1542.27 Q864.049 1545.82 867.66 1545.82 Q871.295 1545.82 873.1 1542.27 Q874.929 1538.71 874.929 1531.6 Q874.929 1524.47 873.1 1520.93 Q871.295 1517.37 867.66 1517.37 M867.66 1513.66 Q873.47 1513.66 876.526 1518.27 Q879.605 1522.85 879.605 1531.6 Q879.605 1540.33 876.526 1544.94 Q873.47 1549.52 867.66 1549.52 Q861.85 1549.52 858.771 1544.94 Q855.716 1540.33 855.716 1531.6 Q855.716 1522.85 858.771 1518.27 Q861.85 1513.66 867.66 1513.66 Z" fill="#000000" fill-rule="nonzero" fill-opacity="1" /><path clip-path="url(#clip560)" d="M887.822 1542.97 L892.706 1542.97 L892.706 1548.85 L887.822 1548.85 L887.822 1542.97 Z" fill="#000000" fill-rule="nonzero" fill-opacity="1" /><path clip-path="url(#clip560)" d="M903.702 1544.91 L911.341 1544.91 L911.341 1518.55 L903.03 1520.21 L903.03 1515.95 L911.294 1514.29 L915.97 1514.29 L915.97 1544.91 L923.609 1544.91 L923.609 1548.85 L903.702 1548.85 L903.702 1544.91 Z" fill="#000000" fill-rule="nonzero" fill-opacity="1" /><path clip-path="url(#clip560)" d="M1392.58 1517.37 Q1388.96 1517.37 1387.14 1520.93 Q1385.33 1524.47 1385.33 1531.6 Q1385.33 1538.71 1387.14 1542.27 Q1388.96 1545.82 1392.58 1545.82 Q1396.21 1545.82 1398.02 1542.27 Q1399.84 1538.71 1399.84 1531.6 Q1399.84 1524.47 1398.02 1520.93 Q1396.21 1517.37 1392.58 1517.37 M1392.58 1513.66 Q1398.39 1513.66 1401.44 1518.27 Q1404.52 1522.85 1404.52 1531.6 Q1404.52 1540.33 1401.44 1544.94 Q1398.39 1549.52 1392.58 1549.52 Q1386.77 1549.52 1383.69 1544.94 Q1380.63 1540.33 1380.63 1531.6 Q1380.63 1522.85 1383.69 1518.27 Q1386.77 1513.66 1392.58 1513.66 Z" fill="#000000" fill-rule="nonzero" fill-opacity="1" /><path clip-path="url(#clip560)" d="M1412.74 1542.97 L1417.62 1542.97 L1417.62 1548.85 L1412.74 1548.85 L1412.74 1542.97 Z" fill="#000000" fill-rule="nonzero" fill-opacity="1" /><path clip-path="url(#clip560)" d="M1431.83 1544.91 L1448.15 1544.91 L1448.15 1548.85 L1426.21 1548.85 L1426.21 1544.91 Q1428.87 1542.16 1433.46 1537.53 Q1438.06 1532.88 1439.24 1531.53 Q1441.49 1529.01 1442.37 1527.27 Q1443.27 1525.51 1443.27 1523.82 Q1443.27 1521.07 1441.33 1519.33 Q1439.4 1517.6 1436.3 1517.6 Q1434.1 1517.6 1431.65 1518.36 Q1429.22 1519.13 1426.44 1520.68 L1426.44 1515.95 Q1429.27 1514.82 1431.72 1514.24 Q1434.17 1513.66 1436.21 1513.66 Q1441.58 1513.66 1444.77 1516.35 Q1447.97 1519.03 1447.97 1523.52 Q1447.97 1525.65 1447.16 1527.57 Q1446.37 1529.47 1444.27 1532.07 Q1443.69 1532.74 1440.58 1535.95 Q1437.48 1539.15 1431.83 1544.91 Z" fill="#000000" fill-rule="nonzero" fill-opacity="1" /><path clip-path="url(#clip560)" d="M1916.83 1517.37 Q1913.22 1517.37 1911.39 1520.93 Q1909.59 1524.47 1909.59 1531.6 Q1909.59 1538.71 1911.39 1542.27 Q1913.22 1545.82 1916.83 1545.82 Q1920.47 1545.82 1922.27 1542.27 Q1924.1 1538.71 1924.1 1531.6 Q1924.1 1524.47 1922.27 1520.93 Q1920.47 1517.37 1916.83 1517.37 M1916.83 1513.66 Q1922.64 1513.66 1925.7 1518.27 Q1928.78 1522.85 1928.78 1531.6 Q1928.78 1540.33 1925.7 1544.94 Q1922.64 1549.52 1916.83 1549.52 Q1911.02 1549.52 1907.94 1544.94 Q1904.89 1540.33 1904.89 1531.6 Q1904.89 1522.85 1907.94 1518.27 Q1911.02 1513.66 1916.83 1513.66 Z" fill="#000000" fill-rule="nonzero" fill-opacity="1" /><path clip-path="url(#clip560)" d="M1936.99 1542.97 L1941.88 1542.97 L1941.88 1548.85 L1936.99 1548.85 L1936.99 1542.97 Z" fill="#000000" fill-rule="nonzero" fill-opacity="1" /><path clip-path="url(#clip560)" d="M1966.23 1530.21 Q1969.59 1530.93 1971.46 1533.2 Q1973.36 1535.47 1973.36 1538.8 Q1973.36 1543.92 1969.84 1546.72 Q1966.32 1549.52 1959.84 1549.52 Q1957.66 1549.52 1955.35 1549.08 Q1953.06 1548.66 1950.6 1547.81 L1950.6 1543.29 Q1952.55 1544.43 1954.86 1545.01 Q1957.18 1545.58 1959.7 1545.58 Q1964.1 1545.58 1966.39 1543.85 Q1968.71 1542.11 1968.71 1538.8 Q1968.71 1535.75 1966.55 1534.03 Q1964.42 1532.3 1960.6 1532.3 L1956.58 1532.3 L1956.58 1528.45 L1960.79 1528.45 Q1964.24 1528.45 1966.07 1527.09 Q1967.9 1525.7 1967.9 1523.11 Q1967.9 1520.45 1966 1519.03 Q1964.12 1517.6 1960.6 1517.6 Q1958.68 1517.6 1956.48 1518.01 Q1954.29 1518.43 1951.65 1519.31 L1951.65 1515.14 Q1954.31 1514.4 1956.62 1514.03 Q1958.96 1513.66 1961.02 1513.66 Q1966.35 1513.66 1969.45 1516.09 Q1972.55 1518.5 1972.55 1522.62 Q1972.55 1525.49 1970.91 1527.48 Q1969.26 1529.45 1966.23 1530.21 Z" fill="#000000" fill-rule="nonzero" fill-opacity="1" /><polyline clip-path="url(#clip560)" style="stroke:#000000; stroke-linecap:round; stroke-linejoin:round; stroke-width:4; stroke-opacity:1; fill:none" points="307.034,1486.45 307.034,47.2441 "/>
<polyline clip-path="url(#clip560)" style="stroke:#000000; stroke-linecap:round; stroke-linejoin:round; stroke-width:4; stroke-opacity:1; fill:none" points="307.034,1445.72 325.932,1445.72 "/>
<polyline clip-path="url(#clip560)" style="stroke:#000000; stroke-linecap:round; stroke-linejoin:round; stroke-width:4; stroke-opacity:1; fill:none" points="307.034,1242.19 325.932,1242.19 "/>
<polyline clip-path="url(#clip560)" style="stroke:#000000; stroke-linecap:round; stroke-linejoin:round; stroke-width:4; stroke-opacity:1; fill:none" points="307.034,1038.67 325.932,1038.67 "/>
<polyline clip-path="url(#clip560)" style="stroke:#000000; stroke-linecap:round; stroke-linejoin:round; stroke-width:4; stroke-opacity:1; fill:none" points="307.034,835.143 325.932,835.143 "/>
<polyline clip-path="url(#clip560)" style="stroke:#000000; stroke-linecap:round; stroke-linejoin:round; stroke-width:4; stroke-opacity:1; fill:none" points="307.034,631.619 325.932,631.619 "/>
<polyline clip-path="url(#clip560)" style="stroke:#000000; stroke-linecap:round; stroke-linejoin:round; stroke-width:4; stroke-opacity:1; fill:none" points="307.034,428.095 325.932,428.095 "/>
<polyline clip-path="url(#clip560)" style="stroke:#000000; stroke-linecap:round; stroke-linejoin:round; stroke-width:4; stroke-opacity:1; fill:none" points="307.034,224.571 325.932,224.571 "/>
<path clip-path="url(#clip560)" d="M259.09 1431.51 Q255.479 1431.51 253.65 1435.08 Q251.845 1438.62 251.845 1445.75 Q251.845 1452.86 253.65 1456.42 Q255.479 1459.96 259.09 1459.96 Q262.724 1459.96 264.53 1456.42 Q266.358 1452.86 266.358 1445.75 Q266.358 1438.62 264.53 1435.08 Q262.724 1431.51 259.09 1431.51 M259.09 1427.81 Q264.9 1427.81 267.956 1432.42 Q271.034 1437 271.034 1445.75 Q271.034 1454.48 267.956 1459.08 Q264.9 1463.67 259.09 1463.67 Q253.28 1463.67 250.201 1459.08 Q247.146 1454.48 247.146 1445.75 Q247.146 1437 250.201 1432.42 Q253.28 1427.81 259.09 1427.81 Z" fill="#000000" fill-rule="nonzero" fill-opacity="1" /><path clip-path="url(#clip560)" d="M54.5569 1261.98 L62.1958 1261.98 L62.1958 1235.62 L53.8856 1237.29 L53.8856 1233.03 L62.1495 1231.36 L66.8254 1231.36 L66.8254 1261.98 L74.4642 1261.98 L74.4642 1265.92 L54.5569 1265.92 L54.5569 1261.98 Z" fill="#000000" fill-rule="nonzero" fill-opacity="1" /><path clip-path="url(#clip560)" d="M83.9086 1260.04 L88.7928 1260.04 L88.7928 1265.92 L83.9086 1265.92 L83.9086 1260.04 Z" fill="#000000" fill-rule="nonzero" fill-opacity="1" /><path clip-path="url(#clip560)" d="M108.978 1234.44 Q105.367 1234.44 103.538 1238 Q101.733 1241.54 101.733 1248.67 Q101.733 1255.78 103.538 1259.35 Q105.367 1262.89 108.978 1262.89 Q112.612 1262.89 114.418 1259.35 Q116.246 1255.78 116.246 1248.67 Q116.246 1241.54 114.418 1238 Q112.612 1234.44 108.978 1234.44 M108.978 1230.73 Q114.788 1230.73 117.844 1235.34 Q120.922 1239.92 120.922 1248.67 Q120.922 1257.4 117.844 1262.01 Q114.788 1266.59 108.978 1266.59 Q103.168 1266.59 100.089 1262.01 Q97.0335 1257.4 97.0335 1248.67 Q97.0335 1239.92 100.089 1235.34 Q103.168 1230.73 108.978 1230.73 Z" fill="#000000" fill-rule="nonzero" fill-opacity="1" /><path clip-path="url(#clip560)" d="M157.311 1240.46 L146.732 1251.08 L157.311 1261.66 L154.556 1264.46 L143.931 1253.84 L133.306 1264.46 L130.575 1261.66 L141.131 1251.08 L130.575 1240.46 L133.306 1237.66 L143.931 1248.28 L154.556 1237.66 L157.311 1240.46 Z" fill="#000000" fill-rule="nonzero" fill-opacity="1" /><path clip-path="url(#clip560)" d="M169.672 1261.98 L177.311 1261.98 L177.311 1235.62 L169.001 1237.29 L169.001 1233.03 L177.265 1231.36 L181.94 1231.36 L181.94 1261.98 L189.579 1261.98 L189.579 1265.92 L169.672 1265.92 L169.672 1261.98 Z" fill="#000000" fill-rule="nonzero" fill-opacity="1" /><path clip-path="url(#clip560)" d="M209.024 1234.44 Q205.413 1234.44 203.584 1238 Q201.778 1241.54 201.778 1248.67 Q201.778 1255.78 203.584 1259.35 Q205.413 1262.89 209.024 1262.89 Q212.658 1262.89 214.463 1259.35 Q216.292 1255.78 216.292 1248.67 Q216.292 1241.54 214.463 1238 Q212.658 1234.44 209.024 1234.44 M209.024 1230.73 Q214.834 1230.73 217.889 1235.34 Q220.968 1239.92 220.968 1248.67 Q220.968 1257.4 217.889 1262.01 Q214.834 1266.59 209.024 1266.59 Q203.214 1266.59 200.135 1262.01 Q197.079 1257.4 197.079 1248.67 Q197.079 1239.92 200.135 1235.34 Q203.214 1230.73 209.024 1230.73 Z" fill="#000000" fill-rule="nonzero" fill-opacity="1" /><path clip-path="url(#clip560)" d="M220.968 1224.84 L245.08 1224.84 L245.08 1228.03 L220.968 1228.03 L220.968 1224.84 Z" fill="#000000" fill-rule="nonzero" fill-opacity="1" /><path clip-path="url(#clip560)" d="M261.405 1225.17 Q258.696 1225.17 257.135 1226.62 Q255.593 1228.07 255.593 1230.61 Q255.593 1233.15 257.135 1234.6 Q258.696 1236.04 261.405 1236.04 Q264.113 1236.04 265.674 1234.6 Q267.235 1233.13 267.235 1230.61 Q267.235 1228.07 265.674 1226.62 Q264.132 1225.17 261.405 1225.17 M257.606 1223.56 Q255.161 1222.95 253.788 1221.28 Q252.433 1219.61 252.433 1217.2 Q252.433 1213.83 254.822 1211.88 Q257.229 1209.92 261.405 1209.92 Q265.599 1209.92 267.987 1211.88 Q270.376 1213.83 270.376 1217.2 Q270.376 1219.61 269.003 1221.28 Q267.649 1222.95 265.223 1223.56 Q267.969 1224.2 269.492 1226.06 Q271.034 1227.92 271.034 1230.61 Q271.034 1234.69 268.533 1236.87 Q266.05 1239.05 261.405 1239.05 Q256.759 1239.05 254.258 1236.87 Q251.775 1234.69 251.775 1230.61 Q251.775 1227.92 253.317 1226.06 Q254.86 1224.2 257.606 1223.56 M256.214 1217.56 Q256.214 1219.74 257.568 1220.96 Q258.941 1222.18 261.405 1222.18 Q263.85 1222.18 265.223 1220.96 Q266.615 1219.74 266.615 1217.56 Q266.615 1215.38 265.223 1214.15 Q263.85 1212.93 261.405 1212.93 Q258.941 1212.93 257.568 1214.15 Q256.214 1215.38 256.214 1217.56 Z" fill="#000000" fill-rule="nonzero" fill-opacity="1" /><path clip-path="url(#clip560)" d="M57.7745 1058.46 L74.0939 1058.46 L74.0939 1062.39 L52.1495 1062.39 L52.1495 1058.46 Q54.8115 1055.71 59.3949 1051.08 Q64.0013 1046.42 65.1819 1045.08 Q67.4272 1042.56 68.3068 1040.82 Q69.2096 1039.06 69.2096 1037.37 Q69.2096 1034.62 67.2652 1032.88 Q65.3439 1031.15 62.2421 1031.15 Q60.043 1031.15 57.5893 1031.91 Q55.1588 1032.67 52.381 1034.22 L52.381 1029.5 Q55.2051 1028.37 57.6588 1027.79 Q60.1124 1027.21 62.1495 1027.21 Q67.5198 1027.21 70.7142 1029.9 Q73.9087 1032.58 73.9087 1037.07 Q73.9087 1039.2 73.0985 1041.12 Q72.3115 1043.02 70.205 1045.61 Q69.6263 1046.28 66.5245 1049.5 Q63.4226 1052.7 57.7745 1058.46 Z" fill="#000000" fill-rule="nonzero" fill-opacity="1" /><path clip-path="url(#clip560)" d="M83.9086 1056.52 L88.7928 1056.52 L88.7928 1062.39 L83.9086 1062.39 L83.9086 1056.52 Z" fill="#000000" fill-rule="nonzero" fill-opacity="1" /><path clip-path="url(#clip560)" d="M108.978 1030.91 Q105.367 1030.91 103.538 1034.48 Q101.733 1038.02 101.733 1045.15 Q101.733 1052.26 103.538 1055.82 Q105.367 1059.36 108.978 1059.36 Q112.612 1059.36 114.418 1055.82 Q116.246 1052.26 116.246 1045.15 Q116.246 1038.02 114.418 1034.48 Q112.612 1030.91 108.978 1030.91 M108.978 1027.21 Q114.788 1027.21 117.844 1031.82 Q120.922 1036.4 120.922 1045.15 Q120.922 1053.88 117.844 1058.48 Q114.788 1063.07 108.978 1063.07 Q103.168 1063.07 100.089 1058.48 Q97.0335 1053.88 97.0335 1045.15 Q97.0335 1036.4 100.089 1031.82 Q103.168 1027.21 108.978 1027.21 Z" fill="#000000" fill-rule="nonzero" fill-opacity="1" /><path clip-path="url(#clip560)" d="M157.311 1036.93 L146.732 1047.56 L157.311 1058.14 L154.556 1060.94 L143.931 1050.31 L133.306 1060.94 L130.575 1058.14 L141.131 1047.56 L130.575 1036.93 L133.306 1034.13 L143.931 1044.76 L154.556 1034.13 L157.311 1036.93 Z" fill="#000000" fill-rule="nonzero" fill-opacity="1" /><path clip-path="url(#clip560)" d="M169.672 1058.46 L177.311 1058.46 L177.311 1032.09 L169.001 1033.76 L169.001 1029.5 L177.265 1027.83 L181.94 1027.83 L181.94 1058.46 L189.579 1058.46 L189.579 1062.39 L169.672 1062.39 L169.672 1058.46 Z" fill="#000000" fill-rule="nonzero" fill-opacity="1" /><path clip-path="url(#clip560)" d="M209.024 1030.91 Q205.413 1030.91 203.584 1034.48 Q201.778 1038.02 201.778 1045.15 Q201.778 1052.26 203.584 1055.82 Q205.413 1059.36 209.024 1059.36 Q212.658 1059.36 214.463 1055.82 Q216.292 1052.26 216.292 1045.15 Q216.292 1038.02 214.463 1034.48 Q212.658 1030.91 209.024 1030.91 M209.024 1027.21 Q214.834 1027.21 217.889 1031.82 Q220.968 1036.4 220.968 1045.15 Q220.968 1053.88 217.889 1058.48 Q214.834 1063.07 209.024 1063.07 Q203.214 1063.07 200.135 1058.48 Q197.079 1053.88 197.079 1045.15 Q197.079 1036.4 200.135 1031.82 Q203.214 1027.21 209.024 1027.21 Z" fill="#000000" fill-rule="nonzero" fill-opacity="1" /><path clip-path="url(#clip560)" d="M220.968 1021.31 L245.08 1021.31 L245.08 1024.51 L220.968 1024.51 L220.968 1021.31 Z" fill="#000000" fill-rule="nonzero" fill-opacity="1" /><path clip-path="url(#clip560)" d="M261.405 1021.65 Q258.696 1021.65 257.135 1023.1 Q255.593 1024.55 255.593 1027.09 Q255.593 1029.62 257.135 1031.07 Q258.696 1032.52 261.405 1032.52 Q264.113 1032.52 265.674 1031.07 Q267.235 1029.61 267.235 1027.09 Q267.235 1024.55 265.674 1023.1 Q264.132 1021.65 261.405 1021.65 M257.606 1020.03 Q255.161 1019.43 253.788 1017.76 Q252.433 1016.08 252.433 1013.68 Q252.433 1010.31 254.822 1008.35 Q257.229 1006.4 261.405 1006.4 Q265.599 1006.4 267.987 1008.35 Q270.376 1010.31 270.376 1013.68 Q270.376 1016.08 269.003 1017.76 Q267.649 1019.43 265.223 1020.03 Q267.969 1020.67 269.492 1022.53 Q271.034 1024.4 271.034 1027.09 Q271.034 1031.17 268.533 1033.35 Q266.05 1035.53 261.405 1035.53 Q256.759 1035.53 254.258 1033.35 Q251.775 1031.17 251.775 1027.09 Q251.775 1024.4 253.317 1022.53 Q254.86 1020.67 257.606 1020.03 M256.214 1014.03 Q256.214 1016.21 257.568 1017.44 Q258.941 1018.66 261.405 1018.66 Q263.85 1018.66 265.223 1017.44 Q266.615 1016.21 266.615 1014.03 Q266.615 1011.85 265.223 1010.63 Q263.85 1009.41 261.405 1009.41 Q258.941 1009.41 257.568 1010.63 Q256.214 1011.85 256.214 1014.03 Z" fill="#000000" fill-rule="nonzero" fill-opacity="1" /><path clip-path="url(#clip560)" d="M67.9133 840.237 Q71.2698 840.954 73.1448 843.223 Q75.0429 845.491 75.0429 848.825 Q75.0429 853.94 71.5244 856.741 Q68.0059 859.542 61.5245 859.542 Q59.3486 859.542 57.0338 859.102 Q54.7421 858.686 52.2884 857.829 L52.2884 853.315 Q54.2328 854.45 56.5477 855.028 Q58.8625 855.607 61.3856 855.607 Q65.7837 855.607 68.0754 853.871 Q70.3902 852.135 70.3902 848.825 Q70.3902 845.769 68.2374 844.056 Q66.1078 842.32 62.2884 842.32 L58.2606 842.32 L58.2606 838.477 L62.4735 838.477 Q65.9226 838.477 67.7513 837.112 Q69.58 835.723 69.58 833.13 Q69.58 830.468 67.6819 829.056 Q65.8069 827.621 62.2884 827.621 Q60.3671 827.621 58.168 828.038 Q55.969 828.454 53.3301 829.334 L53.3301 825.167 Q55.9921 824.427 58.3069 824.056 Q60.6449 823.686 62.705 823.686 Q68.0291 823.686 71.1309 826.116 Q74.2327 828.524 74.2327 832.644 Q74.2327 835.514 72.5892 837.505 Q70.9457 839.473 67.9133 840.237 Z" fill="#000000" fill-rule="nonzero" fill-opacity="1" /><path clip-path="url(#clip560)" d="M83.9086 852.991 L88.7928 852.991 L88.7928 858.871 L83.9086 858.871 L83.9086 852.991 Z" fill="#000000" fill-rule="nonzero" fill-opacity="1" /><path clip-path="url(#clip560)" d="M108.978 827.389 Q105.367 827.389 103.538 830.954 Q101.733 834.496 101.733 841.626 Q101.733 848.732 103.538 852.297 Q105.367 855.838 108.978 855.838 Q112.612 855.838 114.418 852.297 Q116.246 848.732 116.246 841.626 Q116.246 834.496 114.418 830.954 Q112.612 827.389 108.978 827.389 M108.978 823.686 Q114.788 823.686 117.844 828.292 Q120.922 832.876 120.922 841.626 Q120.922 850.352 117.844 854.959 Q114.788 859.542 108.978 859.542 Q103.168 859.542 100.089 854.959 Q97.0335 850.352 97.0335 841.626 Q97.0335 832.876 100.089 828.292 Q103.168 823.686 108.978 823.686 Z" fill="#000000" fill-rule="nonzero" fill-opacity="1" /><path clip-path="url(#clip560)" d="M157.311 833.408 L146.732 844.033 L157.311 854.612 L154.556 857.412 L143.931 846.788 L133.306 857.412 L130.575 854.612 L141.131 844.033 L130.575 833.408 L133.306 830.607 L143.931 841.232 L154.556 830.607 L157.311 833.408 Z" fill="#000000" fill-rule="nonzero" fill-opacity="1" /><path clip-path="url(#clip560)" d="M169.672 854.936 L177.311 854.936 L177.311 828.57 L169.001 830.237 L169.001 825.977 L177.265 824.311 L181.94 824.311 L181.94 854.936 L189.579 854.936 L189.579 858.871 L169.672 858.871 L169.672 854.936 Z" fill="#000000" fill-rule="nonzero" fill-opacity="1" /><path clip-path="url(#clip560)" d="M209.024 827.389 Q205.413 827.389 203.584 830.954 Q201.778 834.496 201.778 841.626 Q201.778 848.732 203.584 852.297 Q205.413 855.838 209.024 855.838 Q212.658 855.838 214.463 852.297 Q216.292 848.732 216.292 841.626 Q216.292 834.496 214.463 830.954 Q212.658 827.389 209.024 827.389 M209.024 823.686 Q214.834 823.686 217.889 828.292 Q220.968 832.876 220.968 841.626 Q220.968 850.352 217.889 854.959 Q214.834 859.542 209.024 859.542 Q203.214 859.542 200.135 854.959 Q197.079 850.352 197.079 841.626 Q197.079 832.876 200.135 828.292 Q203.214 823.686 209.024 823.686 Z" fill="#000000" fill-rule="nonzero" fill-opacity="1" /><path clip-path="url(#clip560)" d="M220.968 817.787 L245.08 817.787 L245.08 820.984 L220.968 820.984 L220.968 817.787 Z" fill="#000000" fill-rule="nonzero" fill-opacity="1" /><path clip-path="url(#clip560)" d="M261.405 818.126 Q258.696 818.126 257.135 819.574 Q255.593 821.022 255.593 823.561 Q255.593 826.1 257.135 827.548 Q258.696 828.997 261.405 828.997 Q264.113 828.997 265.674 827.548 Q267.235 826.081 267.235 823.561 Q267.235 821.022 265.674 819.574 Q264.132 818.126 261.405 818.126 M257.606 816.508 Q255.161 815.906 253.788 814.232 Q252.433 812.559 252.433 810.151 Q252.433 806.785 254.822 804.829 Q257.229 802.873 261.405 802.873 Q265.599 802.873 267.987 804.829 Q270.376 806.785 270.376 810.151 Q270.376 812.559 269.003 814.232 Q267.649 815.906 265.223 816.508 Q267.969 817.148 269.492 819.01 Q271.034 820.872 271.034 823.561 Q271.034 827.642 268.533 829.824 Q266.05 832.006 261.405 832.006 Q256.759 832.006 254.258 829.824 Q251.775 827.642 251.775 823.561 Q251.775 820.872 253.317 819.01 Q254.86 817.148 257.606 816.508 M256.214 810.509 Q256.214 812.69 257.568 813.913 Q258.941 815.135 261.405 815.135 Q263.85 815.135 265.223 813.913 Q266.615 812.69 266.615 810.509 Q266.615 808.327 265.223 807.104 Q263.85 805.882 261.405 805.882 Q258.941 805.882 257.568 807.104 Q256.214 808.327 256.214 810.509 Z" fill="#000000" fill-rule="nonzero" fill-opacity="1" /><path clip-path="url(#clip560)" d="M66.5939 624.861 L54.7884 643.31 L66.5939 643.31 L66.5939 624.861 M65.367 620.787 L71.2466 620.787 L71.2466 643.31 L76.1772 643.31 L76.1772 647.199 L71.2466 647.199 L71.2466 655.347 L66.5939 655.347 L66.5939 647.199 L50.9921 647.199 L50.9921 642.685 L65.367 620.787 Z" fill="#000000" fill-rule="nonzero" fill-opacity="1" /><path clip-path="url(#clip560)" d="M83.9086 649.467 L88.7928 649.467 L88.7928 655.347 L83.9086 655.347 L83.9086 649.467 Z" fill="#000000" fill-rule="nonzero" fill-opacity="1" /><path clip-path="url(#clip560)" d="M108.978 623.865 Q105.367 623.865 103.538 627.43 Q101.733 630.972 101.733 638.101 Q101.733 645.208 103.538 648.773 Q105.367 652.314 108.978 652.314 Q112.612 652.314 114.418 648.773 Q116.246 645.208 116.246 638.101 Q116.246 630.972 114.418 627.43 Q112.612 623.865 108.978 623.865 M108.978 620.162 Q114.788 620.162 117.844 624.768 Q120.922 629.351 120.922 638.101 Q120.922 646.828 117.844 651.435 Q114.788 656.018 108.978 656.018 Q103.168 656.018 100.089 651.435 Q97.0335 646.828 97.0335 638.101 Q97.0335 629.351 100.089 624.768 Q103.168 620.162 108.978 620.162 Z" fill="#000000" fill-rule="nonzero" fill-opacity="1" /><path clip-path="url(#clip560)" d="M157.311 629.884 L146.732 640.509 L157.311 651.087 L154.556 653.888 L143.931 643.263 L133.306 653.888 L130.575 651.087 L141.131 640.509 L130.575 629.884 L133.306 627.083 L143.931 637.708 L154.556 627.083 L157.311 629.884 Z" fill="#000000" fill-rule="nonzero" fill-opacity="1" /><path clip-path="url(#clip560)" d="M169.672 651.411 L177.311 651.411 L177.311 625.046 L169.001 626.713 L169.001 622.453 L177.265 620.787 L181.94 620.787 L181.94 651.411 L189.579 651.411 L189.579 655.347 L169.672 655.347 L169.672 651.411 Z" fill="#000000" fill-rule="nonzero" fill-opacity="1" /><path clip-path="url(#clip560)" d="M209.024 623.865 Q205.413 623.865 203.584 627.43 Q201.778 630.972 201.778 638.101 Q201.778 645.208 203.584 648.773 Q205.413 652.314 209.024 652.314 Q212.658 652.314 214.463 648.773 Q216.292 645.208 216.292 638.101 Q216.292 630.972 214.463 627.43 Q212.658 623.865 209.024 623.865 M209.024 620.162 Q214.834 620.162 217.889 624.768 Q220.968 629.351 220.968 638.101 Q220.968 646.828 217.889 651.435 Q214.834 656.018 209.024 656.018 Q203.214 656.018 200.135 651.435 Q197.079 646.828 197.079 638.101 Q197.079 629.351 200.135 624.768 Q203.214 620.162 209.024 620.162 Z" fill="#000000" fill-rule="nonzero" fill-opacity="1" /><path clip-path="url(#clip560)" d="M220.968 614.263 L245.08 614.263 L245.08 617.46 L220.968 617.46 L220.968 614.263 Z" fill="#000000" fill-rule="nonzero" fill-opacity="1" /><path clip-path="url(#clip560)" d="M261.405 614.602 Q258.696 614.602 257.135 616.05 Q255.593 617.498 255.593 620.037 Q255.593 622.576 257.135 624.024 Q258.696 625.472 261.405 625.472 Q264.113 625.472 265.674 624.024 Q267.235 622.557 267.235 620.037 Q267.235 617.498 265.674 616.05 Q264.132 614.602 261.405 614.602 M257.606 612.984 Q255.161 612.382 253.788 610.708 Q252.433 609.034 252.433 606.627 Q252.433 603.26 254.822 601.304 Q257.229 599.348 261.405 599.348 Q265.599 599.348 267.987 601.304 Q270.376 603.26 270.376 606.627 Q270.376 609.034 269.003 610.708 Q267.649 612.382 265.223 612.984 Q267.969 613.624 269.492 615.486 Q271.034 617.347 271.034 620.037 Q271.034 624.118 268.533 626.3 Q266.05 628.482 261.405 628.482 Q256.759 628.482 254.258 626.3 Q251.775 624.118 251.775 620.037 Q251.775 617.347 253.317 615.486 Q254.86 613.624 257.606 612.984 M256.214 606.984 Q256.214 609.166 257.568 610.389 Q258.941 611.611 261.405 611.611 Q263.85 611.611 265.223 610.389 Q266.615 609.166 266.615 606.984 Q266.615 604.803 265.223 603.58 Q263.85 602.358 261.405 602.358 Q258.941 602.358 257.568 603.58 Q256.214 604.803 256.214 606.984 Z" fill="#000000" fill-rule="nonzero" fill-opacity="1" /><path clip-path="url(#clip560)" d="M53.793 417.262 L72.1494 417.262 L72.1494 421.198 L58.0754 421.198 L58.0754 429.67 Q59.0939 429.323 60.1124 429.161 Q61.131 428.975 62.1495 428.975 Q67.9365 428.975 71.3161 432.147 Q74.6957 435.318 74.6957 440.735 Q74.6957 446.313 71.2235 449.415 Q67.7513 452.494 61.4319 452.494 Q59.256 452.494 56.9875 452.123 Q54.7421 451.753 52.3347 451.012 L52.3347 446.313 Q54.418 447.448 56.6402 448.003 Q58.8625 448.559 61.3393 448.559 Q65.3439 448.559 67.6819 446.452 Q70.0198 444.346 70.0198 440.735 Q70.0198 437.123 67.6819 435.017 Q65.3439 432.911 61.3393 432.911 Q59.4643 432.911 57.5893 433.327 Q55.7375 433.744 53.793 434.624 L53.793 417.262 Z" fill="#000000" fill-rule="nonzero" fill-opacity="1" /><path clip-path="url(#clip560)" d="M83.9086 445.943 L88.7928 445.943 L88.7928 451.822 L83.9086 451.822 L83.9086 445.943 Z" fill="#000000" fill-rule="nonzero" fill-opacity="1" /><path clip-path="url(#clip560)" d="M108.978 420.341 Q105.367 420.341 103.538 423.906 Q101.733 427.448 101.733 434.577 Q101.733 441.684 103.538 445.248 Q105.367 448.79 108.978 448.79 Q112.612 448.79 114.418 445.248 Q116.246 441.684 116.246 434.577 Q116.246 427.448 114.418 423.906 Q112.612 420.341 108.978 420.341 M108.978 416.637 Q114.788 416.637 117.844 421.244 Q120.922 425.827 120.922 434.577 Q120.922 443.304 117.844 447.91 Q114.788 452.494 108.978 452.494 Q103.168 452.494 100.089 447.91 Q97.0335 443.304 97.0335 434.577 Q97.0335 425.827 100.089 421.244 Q103.168 416.637 108.978 416.637 Z" fill="#000000" fill-rule="nonzero" fill-opacity="1" /><path clip-path="url(#clip560)" d="M157.311 426.36 L146.732 436.985 L157.311 447.563 L154.556 450.364 L143.931 439.739 L133.306 450.364 L130.575 447.563 L141.131 436.985 L130.575 426.36 L133.306 423.559 L143.931 434.184 L154.556 423.559 L157.311 426.36 Z" fill="#000000" fill-rule="nonzero" fill-opacity="1" /><path clip-path="url(#clip560)" d="M169.672 447.887 L177.311 447.887 L177.311 421.522 L169.001 423.188 L169.001 418.929 L177.265 417.262 L181.94 417.262 L181.94 447.887 L189.579 447.887 L189.579 451.822 L169.672 451.822 L169.672 447.887 Z" fill="#000000" fill-rule="nonzero" fill-opacity="1" /><path clip-path="url(#clip560)" d="M209.024 420.341 Q205.413 420.341 203.584 423.906 Q201.778 427.448 201.778 434.577 Q201.778 441.684 203.584 445.248 Q205.413 448.79 209.024 448.79 Q212.658 448.79 214.463 445.248 Q216.292 441.684 216.292 434.577 Q216.292 427.448 214.463 423.906 Q212.658 420.341 209.024 420.341 M209.024 416.637 Q214.834 416.637 217.889 421.244 Q220.968 425.827 220.968 434.577 Q220.968 443.304 217.889 447.91 Q214.834 452.494 209.024 452.494 Q203.214 452.494 200.135 447.91 Q197.079 443.304 197.079 434.577 Q197.079 425.827 200.135 421.244 Q203.214 416.637 209.024 416.637 Z" fill="#000000" fill-rule="nonzero" fill-opacity="1" /><path clip-path="url(#clip560)" d="M220.968 410.739 L245.08 410.739 L245.08 413.936 L220.968 413.936 L220.968 410.739 Z" fill="#000000" fill-rule="nonzero" fill-opacity="1" /><path clip-path="url(#clip560)" d="M261.405 411.077 Q258.696 411.077 257.135 412.526 Q255.593 413.974 255.593 416.513 Q255.593 419.052 257.135 420.5 Q258.696 421.948 261.405 421.948 Q264.113 421.948 265.674 420.5 Q267.235 419.033 267.235 416.513 Q267.235 413.974 265.674 412.526 Q264.132 411.077 261.405 411.077 M257.606 409.46 Q255.161 408.858 253.788 407.184 Q252.433 405.51 252.433 403.103 Q252.433 399.736 254.822 397.78 Q257.229 395.824 261.405 395.824 Q265.599 395.824 267.987 397.78 Q270.376 399.736 270.376 403.103 Q270.376 405.51 269.003 407.184 Q267.649 408.858 265.223 409.46 Q267.969 410.099 269.492 411.961 Q271.034 413.823 271.034 416.513 Q271.034 420.594 268.533 422.776 Q266.05 424.958 261.405 424.958 Q256.759 424.958 254.258 422.776 Q251.775 420.594 251.775 416.513 Q251.775 413.823 253.317 411.961 Q254.86 410.099 257.606 409.46 M256.214 403.46 Q256.214 405.642 257.568 406.864 Q258.941 408.087 261.405 408.087 Q263.85 408.087 265.223 406.864 Q266.615 405.642 266.615 403.46 Q266.615 401.279 265.223 400.056 Q263.85 398.834 261.405 398.834 Q258.941 398.834 257.568 400.056 Q256.214 401.279 256.214 403.46 Z" fill="#000000" fill-rule="nonzero" fill-opacity="1" /><path clip-path="url(#clip560)" d="M64.3254 229.155 Q61.1773 229.155 59.3254 231.308 Q57.4967 233.46 57.4967 237.21 Q57.4967 240.937 59.3254 243.113 Q61.1773 245.266 64.3254 245.266 Q67.4735 245.266 69.3022 243.113 Q71.1541 240.937 71.1541 237.21 Q71.1541 233.46 69.3022 231.308 Q67.4735 229.155 64.3254 229.155 M73.6077 214.502 L73.6077 218.761 Q71.8485 217.928 70.0429 217.488 Q68.2606 217.048 66.5013 217.048 Q61.8717 217.048 59.418 220.173 Q56.9875 223.298 56.6402 229.618 Q58.006 227.604 60.0662 226.539 Q62.1263 225.451 64.6032 225.451 Q69.8115 225.451 72.8207 228.623 Q75.8531 231.771 75.8531 237.21 Q75.8531 242.534 72.705 245.752 Q69.5568 248.97 64.3254 248.97 Q58.33 248.97 55.1588 244.386 Q51.9875 239.78 51.9875 231.053 Q51.9875 222.859 55.8764 217.998 Q59.7652 213.113 66.3161 213.113 Q68.0754 213.113 69.8578 213.461 Q71.6633 213.808 73.6077 214.502 Z" fill="#000000" fill-rule="nonzero" fill-opacity="1" /><path clip-path="url(#clip560)" d="M83.9086 242.419 L88.7928 242.419 L88.7928 248.298 L83.9086 248.298 L83.9086 242.419 Z" fill="#000000" fill-rule="nonzero" fill-opacity="1" /><path clip-path="url(#clip560)" d="M108.978 216.817 Q105.367 216.817 103.538 220.382 Q101.733 223.923 101.733 231.053 Q101.733 238.159 103.538 241.724 Q105.367 245.266 108.978 245.266 Q112.612 245.266 114.418 241.724 Q116.246 238.159 116.246 231.053 Q116.246 223.923 114.418 220.382 Q112.612 216.817 108.978 216.817 M108.978 213.113 Q114.788 213.113 117.844 217.72 Q120.922 222.303 120.922 231.053 Q120.922 239.78 117.844 244.386 Q114.788 248.97 108.978 248.97 Q103.168 248.97 100.089 244.386 Q97.0335 239.78 97.0335 231.053 Q97.0335 222.303 100.089 217.72 Q103.168 213.113 108.978 213.113 Z" fill="#000000" fill-rule="nonzero" fill-opacity="1" /><path clip-path="url(#clip560)" d="M157.311 222.836 L146.732 233.46 L157.311 244.039 L154.556 246.84 L143.931 236.215 L133.306 246.84 L130.575 244.039 L141.131 233.46 L130.575 222.836 L133.306 220.035 L143.931 230.66 L154.556 220.035 L157.311 222.836 Z" fill="#000000" fill-rule="nonzero" fill-opacity="1" /><path clip-path="url(#clip560)" d="M169.672 244.363 L177.311 244.363 L177.311 217.998 L169.001 219.664 L169.001 215.405 L177.265 213.738 L181.94 213.738 L181.94 244.363 L189.579 244.363 L189.579 248.298 L169.672 248.298 L169.672 244.363 Z" fill="#000000" fill-rule="nonzero" fill-opacity="1" /><path clip-path="url(#clip560)" d="M209.024 216.817 Q205.413 216.817 203.584 220.382 Q201.778 223.923 201.778 231.053 Q201.778 238.159 203.584 241.724 Q205.413 245.266 209.024 245.266 Q212.658 245.266 214.463 241.724 Q216.292 238.159 216.292 231.053 Q216.292 223.923 214.463 220.382 Q212.658 216.817 209.024 216.817 M209.024 213.113 Q214.834 213.113 217.889 217.72 Q220.968 222.303 220.968 231.053 Q220.968 239.78 217.889 244.386 Q214.834 248.97 209.024 248.97 Q203.214 248.97 200.135 244.386 Q197.079 239.78 197.079 231.053 Q197.079 222.303 200.135 217.72 Q203.214 213.113 209.024 213.113 Z" fill="#000000" fill-rule="nonzero" fill-opacity="1" /><path clip-path="url(#clip560)" d="M220.968 207.215 L245.08 207.215 L245.08 210.412 L220.968 210.412 L220.968 207.215 Z" fill="#000000" fill-rule="nonzero" fill-opacity="1" /><path clip-path="url(#clip560)" d="M261.405 207.553 Q258.696 207.553 257.135 209.001 Q255.593 210.45 255.593 212.989 Q255.593 215.528 257.135 216.976 Q258.696 218.424 261.405 218.424 Q264.113 218.424 265.674 216.976 Q267.235 215.509 267.235 212.989 Q267.235 210.45 265.674 209.001 Q264.132 207.553 261.405 207.553 M257.606 205.936 Q255.161 205.334 253.788 203.66 Q252.433 201.986 252.433 199.579 Q252.433 196.212 254.822 194.256 Q257.229 192.3 261.405 192.3 Q265.599 192.3 267.987 194.256 Q270.376 196.212 270.376 199.579 Q270.376 201.986 269.003 203.66 Q267.649 205.334 265.223 205.936 Q267.969 206.575 269.492 208.437 Q271.034 210.299 271.034 212.989 Q271.034 217.07 268.533 219.252 Q266.05 221.433 261.405 221.433 Q256.759 221.433 254.258 219.252 Q251.775 217.07 251.775 212.989 Q251.775 210.299 253.317 208.437 Q254.86 206.575 257.606 205.936 M256.214 199.936 Q256.214 202.118 257.568 203.34 Q258.941 204.563 261.405 204.563 Q263.85 204.563 265.223 203.34 Q266.615 202.118 266.615 199.936 Q266.615 197.754 265.223 196.532 Q263.85 195.309 261.405 195.309 Q258.941 195.309 257.568 196.532 Q256.214 197.754 256.214 199.936 Z" fill="#000000" fill-rule="nonzero" fill-opacity="1" /><polyline clip-path="url(#clip561)" style="stroke:#009af9; stroke-linecap:round; stroke-linejoin:round; stroke-width:20; stroke-opacity:1; fill:none" points="364.932,1445.72 520.386,1445.72 669.35,1445.72 811.742,1445.72 947.489,1445.72 1076.53,1445.72 1198.81,1445.72 1314.29,1445.72 1422.97,1445.72 1524.82,1445.72 1619.86,1445.72 1708.13,1445.72 1789.67,1445.72 1864.54,1445.71 1932.84,1445.7 1994.66,1445.64 2050.14,1445.33 2099.41,1443.92 2142.64,1438.34 2180,1418.08 "/>
<polyline clip-path="url(#clip561)" style="stroke:#e26f46; stroke-linecap:round; stroke-linejoin:round; stroke-width:20; stroke-opacity:1; fill:none" points="2180,1445.72 2221.73,1445.51 2253.16,1445.35 2275.23,1445.24 2288.85,1445.18 2294.86,1445.15 2294.03,1445.15 2287.08,1445.19 2274.7,1445.25 2257.49,1445.33 2236.05,1445.44 2210.88,1445.56 2182.49,1445.69 2151.3,1445.64 2117.74,1445.68 2082.17,1444.71 2044.92,1440.48 2006.31,1425.08 1966.61,1374.02 1926.08,1216.25 "/>
<polyline clip-path="url(#clip561)" style="stroke:#3da44d; stroke-linecap:round; stroke-linejoin:round; stroke-width:20; stroke-opacity:1; fill:none" points="1926.08,1445.72 1883.42,1445.22 1840.34,1444.73 1797.04,1444.23 1753.69,1443.73 1710.45,1443.23 1667.46,1442.74 1624.84,1442.24 1582.69,1441.76 1541.11,1441.28 1500.17,1440.81 1459.95,1440.34 1420.51,1439.88 1381.89,1439.4 1344.13,1438.78 1307.26,1437.55 1271.32,1433.96 1236.32,1422.04 1202.27,1382.68 1169.19,1258.67 "/>
<polyline clip-path="url(#clip561)" style="stroke:#c271d2; stroke-linecap:round; stroke-linejoin:round; stroke-width:20; stroke-opacity:1; fill:none" points="1169.19,1445.72 1167.81,1445.58 1166.43,1445.43 1165.05,1445.29 1163.68,1445.15 1162.3,1445.01 1160.93,1444.88 1159.56,1444.74 1158.19,1444.6 1156.82,1444.46 1155.46,1444.32 1154.09,1444.18 1152.73,1444.06 1151.37,1443.99 1150.01,1444.19 1148.66,1445.36 1147.3,1440.27 1145.95,1422.39 1144.6,1364.55 1143.25,1189.53 "/>
<polyline clip-path="url(#clip561)" style="stroke:#ac8d18; stroke-linecap:round; stroke-linejoin:round; stroke-width:20; stroke-opacity:1; fill:none" points="1143.25,1445.67 1142.57,1445.69 1141.9,1445.61 1141.23,1445.54 1140.56,1445.46 1139.89,1445.39 1139.22,1445.31 1138.55,1445.24 1137.88,1445.17 1137.22,1445.09 1136.55,1445.02 1135.88,1444.94 1135.21,1444.84 1134.55,1444.63 1133.88,1443.94 1133.22,1441.3 1132.55,1431.58 1131.89,1398.08 1131.22,1290.25 1130.56,964.48 "/>
<polyline clip-path="url(#clip561)" style="stroke:#00a9ad; stroke-linecap:round; stroke-linejoin:round; stroke-width:20; stroke-opacity:1; fill:none" points="1130.56,1445.7 1129.35,1445.52 1128.15,1445.32 1126.95,1445.11 1125.75,1444.91 1124.55,1444.7 1123.35,1444.5 1122.15,1444.3 1120.96,1444.09 1119.76,1443.89 1118.57,1443.69 1117.38,1443.49 1116.19,1443.3 1115,1443.17 1113.82,1443.3 1112.63,1443.95 1111.45,1438.73 1110.27,1420.65 1109.08,1362.34 1107.91,1186.11 "/>
<polyline clip-path="url(#clip561)" style="stroke:#ed5d92; stroke-linecap:round; stroke-linejoin:round; stroke-width:20; stroke-opacity:1; fill:none" points="1107.91,1445.71 1102.68,1445.55 1097.48,1445.39 1092.31,1445.23 1087.16,1445.06 1082.05,1444.9 1076.96,1444.74 1071.9,1444.58 1066.87,1444.43 1061.87,1444.27 1056.9,1444.11 1051.95,1443.95 1047.03,1443.77 1042.14,1443.47 1037.28,1442.66 1032.44,1439.8 1027.64,1429.45 1022.86,1393.94 1018.1,1279.82 1013.38,935.185 "/>
<polyline clip-path="url(#clip561)" style="stroke:#c68125; stroke-linecap:round; stroke-linejoin:round; stroke-width:20; stroke-opacity:1; fill:none" points="1013.38,1445.72 998.166,1443.93 983.243,1442.18 968.608,1440.46 954.259,1438.78 940.192,1437.13 926.405,1435.52 912.895,1433.93 899.66,1432.38 886.695,1430.86 873.997,1429.37 861.564,1427.91 849.391,1426.45 837.475,1424.92 825.813,1422.94 814.402,1419.07 803.236,1408.23 792.313,1373.94 781.63,1266.26 771.181,943.346 "/>
<polyline clip-path="url(#clip561)" style="stroke:#00a98d; stroke-linecap:round; stroke-linejoin:round; stroke-width:20; stroke-opacity:1; fill:none" points="771.181,1445.72 741.807,1443.38 714.338,1441.2 688.677,1439.16 664.729,1437.26 642.402,1435.48 621.604,1433.83 602.247,1432.29 584.246,1430.86 567.518,1429.53 551.983,1428.3 537.568,1427.15 524.199,1426.07 511.809,1425.02 500.332,1423.77 489.707,1421.44 479.877,1414.7 470.785,1391.95 462.382,1315.37 454.617,1069.06 "/>
<polyline clip-path="url(#clip561)" style="stroke:#8e971d; stroke-linecap:round; stroke-linejoin:round; stroke-width:20; stroke-opacity:1; fill:none" points="454.617,1445.72 445.465,1440.83 437.213,1436.42 429.777,1432.45 423.081,1428.88 417.054,1425.66 411.633,1422.77 406.76,1420.17 402.382,1417.83 398.45,1415.73 394.92,1413.84 391.753,1412.16 388.913,1410.65 386.367,1409.37 384.086,1408.56 382.043,1409.34 380.213,1416.36 378.575,1444.67 377.11,1331.49 375.799,942.813 "/>
<polyline clip-path="url(#clip561)" style="stroke:#00a8cb; stroke-linecap:round; stroke-linejoin:round; stroke-width:20; stroke-opacity:1; fill:none" points="375.799,1445.72 374.422,1445.08 373.216,1444.53 372.161,1444.04 371.239,1443.62 370.433,1443.25 369.728,1442.93 369.112,1442.64 368.575,1442.4 368.106,1442.18 367.696,1441.99 367.339,1441.83 367.027,1441.67 366.756,1441.49 366.519,1441.04 366.313,1439.31 366.133,1432.08 365.976,1403.2 365.84,1295.04 365.721,914.692 "/>
<polyline clip-path="url(#clip561)" style="stroke:#9b7fe8; stroke-linecap:round; stroke-linejoin:round; stroke-width:20; stroke-opacity:1; fill:none" points="365.721,1445.72 365.617,1445.69 365.526,1445.67 365.447,1445.64 365.378,1445.63 365.319,1445.61 365.267,1445.6 365.223,1445.59 365.184,1445.58 365.15,1445.57 365.121,1445.56 365.096,1445.56 365.074,1445.56 365.055,1445.62 365.038,1445.47 365.024,1443.82 365.012,1436.54 365.001,1407.11 364.992,1296.36 364.984,905.557 "/>
<polyline clip-path="url(#clip561)" style="stroke:#608cf6; stroke-linecap:round; stroke-linejoin:round; stroke-width:20; stroke-opacity:1; fill:none" points="364.984,1445.72 364.976,1445.71 364.97,1445.71 364.965,1445.71 364.961,1445.71 364.957,1445.71 364.953,1445.71 364.95,1445.71 364.948,1445.71 364.946,1445.71 364.944,1445.71 364.942,1445.71 364.941,1445.71 364.94,1445.63 364.939,1445.25 364.938,1443.39 364.937,1435.21 364.936,1402 364.936,1276.69 364.935,833.24 "/>
<polyline clip-path="url(#clip561)" style="stroke:#f05f73; stroke-linecap:round; stroke-linejoin:round; stroke-width:20; stroke-opacity:1; fill:none" points="364.935,1445.72 364.935,1445.72 364.934,1445.72 364.934,1445.71 364.934,1445.71 364.934,1445.71 364.933,1445.71 364.933,1445.71 364.933,1445.71 364.933,1445.71 364.933,1445.71 364.933,1445.71 364.933,1445.7 364.933,1445.6 364.932,1445.11 364.932,1442.7 364.932,1432.04 364.932,1388.57 364.932,1223.68 364.932,637.157 "/>
<polyline clip-path="url(#clip561)" style="stroke:#dd64b5; stroke-linecap:round; stroke-linejoin:round; stroke-width:20; stroke-opacity:1; fill:none" points="364.932,1445.72 364.932,1445.72 364.932,1445.72 364.932,1445.72 364.932,1445.71 364.932,1445.71 364.932,1445.72 364.932,1445.72 364.932,1445.72 364.932,1445.72 364.932,1445.71 364.932,1445.71 364.932,1445.69 364.932,1445.54 364.932,1444.73 364.932,1440.78 364.932,1423.19 364.932,1351 364.932,1075.29 364.932,87.9763 "/>
</svg>
