<?xml version="1.0" encoding="utf-8"?>
<svg xmlns="http://www.w3.org/2000/svg" xmlns:xlink="http://www.w3.org/1999/xlink" width="600" height="400" viewBox="0 0 2400 1600">
<defs>
  <clipPath id="clip490">
    <rect x="0" y="0" width="2400" height="1600"/>
  </clipPath>
</defs>
<path clip-path="url(#clip490)" d="M0 1600 L2400 1600 L2400 0 L0 0  Z" fill="#ffffff" fill-rule="evenodd" fill-opacity="1"/>
<defs>
  <clipPath id="clip491">
    <rect x="480" y="0" width="1681" height="1600"/>
  </clipPath>
</defs>
<path clip-path="url(#clip490)" d="M279.704 1423.18 L2352.76 1423.18 L2352.76 47.2441 L279.704 47.2441  Z" fill="#ffffff" fill-rule="evenodd" fill-opacity="1"/>
<defs>
  <clipPath id="clip492">
    <rect x="279" y="47" width="2074" height="1377"/>
  </clipPath>
</defs>
<polyline clip-path="url(#clip492)" style="stroke:#000000; stroke-linecap:round; stroke-linejoin:round; stroke-width:2; stroke-opacity:0.1; fill:none" points="400.138,1423.18 400.138,47.2441 "/>
<polyline clip-path="url(#clip492)" style="stroke:#000000; stroke-linecap:round; stroke-linejoin:round; stroke-width:2; stroke-opacity:0.1; fill:none" points="812.68,1423.18 812.68,47.2441 "/>
<polyline clip-path="url(#clip492)" style="stroke:#000000; stroke-linecap:round; stroke-linejoin:round; stroke-width:2; stroke-opacity:0.1; fill:none" points="1225.22,1423.18 1225.22,47.2441 "/>
<polyline clip-path="url(#clip492)" style="stroke:#000000; stroke-linecap:round; stroke-linejoin:round; stroke-width:2; stroke-opacity:0.1; fill:none" points="1637.77,1423.18 1637.77,47.2441 "/>
<polyline clip-path="url(#clip492)" style="stroke:#000000; stroke-linecap:round; stroke-linejoin:round; stroke-width:2; stroke-opacity:0.1; fill:none" points="2050.31,1423.18 2050.31,47.2441 "/>
<polyline clip-path="url(#clip492)" style="stroke:#000000; stroke-linecap:round; stroke-linejoin:round; stroke-width:2; stroke-opacity:0.1; fill:none" points="279.704,1174.01 2352.76,1174.01 "/>
<polyline clip-path="url(#clip492)" style="stroke:#000000; stroke-linecap:round; stroke-linejoin:round; stroke-width:2; stroke-opacity:0.1; fill:none" points="279.704,896.074 2352.76,896.074 "/>
<polyline clip-path="url(#clip492)" style="stroke:#000000; stroke-linecap:round; stroke-linejoin:round; stroke-width:2; stroke-opacity:0.1; fill:none" points="279.704,618.136 2352.76,618.136 "/>
<polyline clip-path="url(#clip492)" style="stroke:#000000; stroke-linecap:round; stroke-linejoin:round; stroke-width:2; stroke-opacity:0.1; fill:none" points="279.704,340.197 2352.76,340.197 "/>
<polyline clip-path="url(#clip492)" style="stroke:#000000; stroke-linecap:round; stroke-linejoin:round; stroke-width:2; stroke-opacity:0.1; fill:none" points="279.704,62.2587 2352.76,62.2587 "/>
<polyline clip-path="url(#clip490)" style="stroke:#000000; stroke-linecap:round; stroke-linejoin:round; stroke-width:4; stroke-opacity:1; fill:none" points="279.704,1423.18 2352.76,1423.18 "/>
<polyline clip-path="url(#clip490)" style="stroke:#000000; stroke-linecap:round; stroke-linejoin:round; stroke-width:4; stroke-opacity:1; fill:none" points="400.138,1423.18 400.138,1404.28 "/>
<polyline clip-path="url(#clip490)" style="stroke:#000000; stroke-linecap:round; stroke-linejoin:round; stroke-width:4; stroke-opacity:1; fill:none" points="812.68,1423.18 812.68,1404.28 "/>
<polyline clip-path="url(#clip490)" style="stroke:#000000; stroke-linecap:round; stroke-linejoin:round; stroke-width:4; stroke-opacity:1; fill:none" points="1225.22,1423.18 1225.22,1404.28 "/>
<polyline clip-path="url(#clip490)" style="stroke:#000000; stroke-linecap:round; stroke-linejoin:round; stroke-width:4; stroke-opacity:1; fill:none" points="1637.77,1423.18 1637.77,1404.28 "/>
<polyline clip-path="url(#clip490)" style="stroke:#000000; stroke-linecap:round; stroke-linejoin:round; stroke-width:4; stroke-opacity:1; fill:none" points="2050.31,1423.18 2050.31,1404.28 "/>
<path clip-path="url(#clip490)" d="M347.858 1454.1 Q344.247 1454.1 342.418 1457.66 Q340.613 1461.2 340.613 1468.33 Q340.613 1475.44 342.418 1479.01 Q344.247 1482.55 347.858 1482.55 Q351.492 1482.55 353.298 1479.01 Q355.127 1475.44 355.127 1468.33 Q355.127 1461.2 353.298 1457.66 Q351.492 1454.1 347.858 1454.1 M347.858 1450.39 Q353.668 1450.39 356.724 1455 Q359.803 1459.58 359.803 1468.33 Q359.803 1477.06 356.724 1481.67 Q353.668 1486.25 347.858 1486.25 Q342.048 1486.25 338.969 1481.67 Q335.914 1477.06 335.914 1468.33 Q335.914 1459.58 338.969 1455 Q342.048 1450.39 347.858 1450.39 Z" fill="#000000" fill-rule="nonzero" fill-opacity="1" /><path clip-path="url(#clip490)" d="M368.02 1479.7 L372.904 1479.7 L372.904 1485.58 L368.02 1485.58 L368.02 1479.7 Z" fill="#000000" fill-rule="nonzero" fill-opacity="1" /><path clip-path="url(#clip490)" d="M387.117 1481.64 L403.437 1481.64 L403.437 1485.58 L381.492 1485.58 L381.492 1481.64 Q384.154 1478.89 388.738 1474.26 Q393.344 1469.61 394.525 1468.27 Q396.77 1465.74 397.65 1464.01 Q398.552 1462.25 398.552 1460.56 Q398.552 1457.8 396.608 1456.07 Q394.687 1454.33 391.585 1454.33 Q389.386 1454.33 386.932 1455.09 Q384.501 1455.86 381.724 1457.41 L381.724 1452.69 Q384.548 1451.55 387.001 1450.97 Q389.455 1450.39 391.492 1450.39 Q396.863 1450.39 400.057 1453.08 Q403.251 1455.77 403.251 1460.26 Q403.251 1462.39 402.441 1464.31 Q401.654 1466.2 399.548 1468.8 Q398.969 1469.47 395.867 1472.69 Q392.765 1475.88 387.117 1481.64 Z" fill="#000000" fill-rule="nonzero" fill-opacity="1" /><path clip-path="url(#clip490)" d="M417.279 1481.64 L433.598 1481.64 L433.598 1485.58 L411.654 1485.58 L411.654 1481.64 Q414.316 1478.89 418.899 1474.26 Q423.506 1469.61 424.686 1468.27 Q426.932 1465.74 427.811 1464.01 Q428.714 1462.25 428.714 1460.56 Q428.714 1457.8 426.77 1456.07 Q424.848 1454.33 421.747 1454.33 Q419.548 1454.33 417.094 1455.09 Q414.663 1455.86 411.886 1457.41 L411.886 1452.69 Q414.71 1451.55 417.163 1450.97 Q419.617 1450.39 421.654 1450.39 Q427.024 1450.39 430.219 1453.08 Q433.413 1455.77 433.413 1460.26 Q433.413 1462.39 432.603 1464.31 Q431.816 1466.2 429.71 1468.8 Q429.131 1469.47 426.029 1472.69 Q422.927 1475.88 417.279 1481.64 Z" fill="#000000" fill-rule="nonzero" fill-opacity="1" /><path clip-path="url(#clip490)" d="M443.46 1451.02 L461.816 1451.02 L461.816 1454.96 L447.742 1454.96 L447.742 1463.43 Q448.76 1463.08 449.779 1462.92 Q450.797 1462.73 451.816 1462.73 Q457.603 1462.73 460.983 1465.9 Q464.362 1469.08 464.362 1474.49 Q464.362 1480.07 460.89 1483.17 Q457.418 1486.25 451.098 1486.25 Q448.922 1486.25 446.654 1485.88 Q444.409 1485.51 442.001 1484.77 L442.001 1480.07 Q444.085 1481.2 446.307 1481.76 Q448.529 1482.32 451.006 1482.32 Q455.01 1482.32 457.348 1480.21 Q459.686 1478.1 459.686 1474.49 Q459.686 1470.88 457.348 1468.77 Q455.01 1466.67 451.006 1466.67 Q449.131 1466.67 447.256 1467.08 Q445.404 1467.5 443.46 1468.38 L443.46 1451.02 Z" fill="#000000" fill-rule="nonzero" fill-opacity="1" /><path clip-path="url(#clip490)" d="M759.903 1454.1 Q756.292 1454.1 754.463 1457.66 Q752.658 1461.2 752.658 1468.33 Q752.658 1475.44 754.463 1479.01 Q756.292 1482.55 759.903 1482.55 Q763.537 1482.55 765.343 1479.01 Q767.171 1475.44 767.171 1468.33 Q767.171 1461.2 765.343 1457.66 Q763.537 1454.1 759.903 1454.1 M759.903 1450.39 Q765.713 1450.39 768.769 1455 Q771.847 1459.58 771.847 1468.33 Q771.847 1477.06 768.769 1481.67 Q765.713 1486.25 759.903 1486.25 Q754.093 1486.25 751.014 1481.67 Q747.959 1477.06 747.959 1468.33 Q747.959 1459.58 751.014 1455 Q754.093 1450.39 759.903 1450.39 Z" fill="#000000" fill-rule="nonzero" fill-opacity="1" /><path clip-path="url(#clip490)" d="M780.065 1479.7 L784.949 1479.7 L784.949 1485.58 L780.065 1485.58 L780.065 1479.7 Z" fill="#000000" fill-rule="nonzero" fill-opacity="1" /><path clip-path="url(#clip490)" d="M799.162 1481.64 L815.481 1481.64 L815.481 1485.58 L793.537 1485.58 L793.537 1481.64 Q796.199 1478.89 800.782 1474.26 Q805.389 1469.61 806.569 1468.27 Q808.815 1465.74 809.694 1464.01 Q810.597 1462.25 810.597 1460.56 Q810.597 1457.8 808.653 1456.07 Q806.731 1454.33 803.63 1454.33 Q801.43 1454.33 798.977 1455.09 Q796.546 1455.86 793.768 1457.41 L793.768 1452.69 Q796.593 1451.55 799.046 1450.97 Q801.5 1450.39 803.537 1450.39 Q808.907 1450.39 812.102 1453.08 Q815.296 1455.77 815.296 1460.26 Q815.296 1462.39 814.486 1464.31 Q813.699 1466.2 811.592 1468.8 Q811.014 1469.47 807.912 1472.69 Q804.81 1475.88 799.162 1481.64 Z" fill="#000000" fill-rule="nonzero" fill-opacity="1" /><path clip-path="url(#clip490)" d="M825.342 1451.02 L843.699 1451.02 L843.699 1454.96 L829.625 1454.96 L829.625 1463.43 Q830.643 1463.08 831.662 1462.92 Q832.68 1462.73 833.699 1462.73 Q839.486 1462.73 842.865 1465.9 Q846.245 1469.08 846.245 1474.49 Q846.245 1480.07 842.773 1483.17 Q839.301 1486.25 832.981 1486.25 Q830.805 1486.25 828.537 1485.88 Q826.291 1485.51 823.884 1484.77 L823.884 1480.07 Q825.967 1481.2 828.19 1481.76 Q830.412 1482.32 832.889 1482.32 Q836.893 1482.32 839.231 1480.21 Q841.569 1478.1 841.569 1474.49 Q841.569 1470.88 839.231 1468.77 Q836.893 1466.67 832.889 1466.67 Q831.014 1466.67 829.139 1467.08 Q827.287 1467.5 825.342 1468.38 L825.342 1451.02 Z" fill="#000000" fill-rule="nonzero" fill-opacity="1" /><path clip-path="url(#clip490)" d="M865.458 1454.1 Q861.847 1454.1 860.018 1457.66 Q858.213 1461.2 858.213 1468.33 Q858.213 1475.44 860.018 1479.01 Q861.847 1482.55 865.458 1482.55 Q869.092 1482.55 870.898 1479.01 Q872.726 1475.44 872.726 1468.33 Q872.726 1461.2 870.898 1457.66 Q869.092 1454.1 865.458 1454.1 M865.458 1450.39 Q871.268 1450.39 874.324 1455 Q877.402 1459.58 877.402 1468.33 Q877.402 1477.06 874.324 1481.67 Q871.268 1486.25 865.458 1486.25 Q859.648 1486.25 856.569 1481.67 Q853.514 1477.06 853.514 1468.33 Q853.514 1459.58 856.569 1455 Q859.648 1450.39 865.458 1450.39 Z" fill="#000000" fill-rule="nonzero" fill-opacity="1" /><path clip-path="url(#clip490)" d="M1172.94 1454.1 Q1169.33 1454.1 1167.5 1457.66 Q1165.7 1461.2 1165.7 1468.33 Q1165.7 1475.44 1167.5 1479.01 Q1169.33 1482.55 1172.94 1482.55 Q1176.58 1482.55 1178.38 1479.01 Q1180.21 1475.44 1180.21 1468.33 Q1180.21 1461.2 1178.38 1457.66 Q1176.58 1454.1 1172.94 1454.1 M1172.94 1450.39 Q1178.75 1450.39 1181.81 1455 Q1184.89 1459.58 1184.89 1468.33 Q1184.89 1477.06 1181.81 1481.67 Q1178.75 1486.25 1172.94 1486.25 Q1167.13 1486.25 1164.05 1481.67 Q1161 1477.06 1161 1468.33 Q1161 1459.58 1164.05 1455 Q1167.13 1450.39 1172.94 1450.39 Z" fill="#000000" fill-rule="nonzero" fill-opacity="1" /><path clip-path="url(#clip490)" d="M1193.1 1479.7 L1197.99 1479.7 L1197.99 1485.58 L1193.1 1485.58 L1193.1 1479.7 Z" fill="#000000" fill-rule="nonzero" fill-opacity="1" /><path clip-path="url(#clip490)" d="M1212.2 1481.64 L1228.52 1481.64 L1228.52 1485.58 L1206.58 1485.58 L1206.58 1481.64 Q1209.24 1478.89 1213.82 1474.26 Q1218.43 1469.61 1219.61 1468.27 Q1221.85 1465.74 1222.73 1464.01 Q1223.64 1462.25 1223.64 1460.56 Q1223.64 1457.8 1221.69 1456.07 Q1219.77 1454.33 1216.67 1454.33 Q1214.47 1454.33 1212.02 1455.09 Q1209.59 1455.86 1206.81 1457.41 L1206.81 1452.69 Q1209.63 1451.55 1212.09 1450.97 Q1214.54 1450.39 1216.58 1450.39 Q1221.95 1450.39 1225.14 1453.08 Q1228.34 1455.77 1228.34 1460.26 Q1228.34 1462.39 1227.53 1464.31 Q1226.74 1466.2 1224.63 1468.8 Q1224.05 1469.47 1220.95 1472.69 Q1217.85 1475.88 1212.2 1481.64 Z" fill="#000000" fill-rule="nonzero" fill-opacity="1" /><path clip-path="url(#clip490)" d="M1237.16 1451.02 L1259.38 1451.02 L1259.38 1453.01 L1246.83 1485.58 L1241.95 1485.58 L1253.75 1454.96 L1237.16 1454.96 L1237.16 1451.02 Z" fill="#000000" fill-rule="nonzero" fill-opacity="1" /><path clip-path="url(#clip490)" d="M1268.54 1451.02 L1286.9 1451.02 L1286.9 1454.96 L1272.83 1454.96 L1272.83 1463.43 Q1273.85 1463.08 1274.86 1462.92 Q1275.88 1462.73 1276.9 1462.73 Q1282.69 1462.73 1286.07 1465.9 Q1289.45 1469.08 1289.45 1474.49 Q1289.45 1480.07 1285.97 1483.17 Q1282.5 1486.25 1276.18 1486.25 Q1274.01 1486.25 1271.74 1485.88 Q1269.49 1485.51 1267.09 1484.77 L1267.09 1480.07 Q1269.17 1481.2 1271.39 1481.76 Q1273.61 1482.32 1276.09 1482.32 Q1280.1 1482.32 1282.43 1480.21 Q1284.77 1478.1 1284.77 1474.49 Q1284.77 1470.88 1282.43 1468.77 Q1280.1 1466.67 1276.09 1466.67 Q1274.22 1466.67 1272.34 1467.08 Q1270.49 1467.5 1268.54 1468.38 L1268.54 1451.02 Z" fill="#000000" fill-rule="nonzero" fill-opacity="1" /><path clip-path="url(#clip490)" d="M1584.99 1454.1 Q1581.38 1454.1 1579.55 1457.66 Q1577.74 1461.2 1577.74 1468.33 Q1577.74 1475.44 1579.55 1479.01 Q1581.38 1482.55 1584.99 1482.55 Q1588.62 1482.55 1590.43 1479.01 Q1592.26 1475.44 1592.26 1468.33 Q1592.26 1461.2 1590.43 1457.66 Q1588.62 1454.1 1584.99 1454.1 M1584.99 1450.39 Q1590.8 1450.39 1593.85 1455 Q1596.93 1459.58 1596.93 1468.33 Q1596.93 1477.06 1593.85 1481.67 Q1590.8 1486.25 1584.99 1486.25 Q1579.18 1486.25 1576.1 1481.67 Q1573.04 1477.06 1573.04 1468.33 Q1573.04 1459.58 1576.1 1455 Q1579.18 1450.39 1584.99 1450.39 Z" fill="#000000" fill-rule="nonzero" fill-opacity="1" /><path clip-path="url(#clip490)" d="M1605.15 1479.7 L1610.03 1479.7 L1610.03 1485.58 L1605.15 1485.58 L1605.15 1479.7 Z" fill="#000000" fill-rule="nonzero" fill-opacity="1" /><path clip-path="url(#clip490)" d="M1634.39 1466.95 Q1637.74 1467.66 1639.62 1469.93 Q1641.52 1472.2 1641.52 1475.53 Q1641.52 1480.65 1638 1483.45 Q1634.48 1486.25 1628 1486.25 Q1625.82 1486.25 1623.51 1485.81 Q1621.21 1485.39 1618.76 1484.54 L1618.76 1480.02 Q1620.71 1481.16 1623.02 1481.74 Q1625.33 1482.32 1627.86 1482.32 Q1632.26 1482.32 1634.55 1480.58 Q1636.86 1478.84 1636.86 1475.53 Q1636.86 1472.48 1634.71 1470.77 Q1632.58 1469.03 1628.76 1469.03 L1624.73 1469.03 L1624.73 1465.19 L1628.95 1465.19 Q1632.39 1465.19 1634.22 1463.82 Q1636.05 1462.43 1636.05 1459.84 Q1636.05 1457.18 1634.15 1455.77 Q1632.28 1454.33 1628.76 1454.33 Q1626.84 1454.33 1624.64 1454.75 Q1622.44 1455.16 1619.8 1456.04 L1619.8 1451.88 Q1622.46 1451.14 1624.78 1450.77 Q1627.12 1450.39 1629.18 1450.39 Q1634.5 1450.39 1637.6 1452.83 Q1640.71 1455.23 1640.71 1459.35 Q1640.71 1462.22 1639.06 1464.21 Q1637.42 1466.18 1634.39 1466.95 Z" fill="#000000" fill-rule="nonzero" fill-opacity="1" /><path clip-path="url(#clip490)" d="M1660.38 1454.1 Q1656.77 1454.1 1654.94 1457.66 Q1653.14 1461.2 1653.14 1468.33 Q1653.14 1475.44 1654.94 1479.01 Q1656.77 1482.55 1660.38 1482.55 Q1664.02 1482.55 1665.82 1479.01 Q1667.65 1475.44 1667.65 1468.33 Q1667.65 1461.2 1665.82 1457.66 Q1664.02 1454.1 1660.38 1454.1 M1660.38 1450.39 Q1666.19 1450.39 1669.25 1455 Q1672.33 1459.58 1672.33 1468.33 Q1672.33 1477.06 1669.25 1481.67 Q1666.19 1486.25 1660.38 1486.25 Q1654.57 1486.25 1651.49 1481.67 Q1648.44 1477.06 1648.44 1468.33 Q1648.44 1459.58 1651.49 1455 Q1654.57 1450.39 1660.38 1450.39 Z" fill="#000000" fill-rule="nonzero" fill-opacity="1" /><path clip-path="url(#clip490)" d="M1690.54 1454.1 Q1686.93 1454.1 1685.1 1457.66 Q1683.3 1461.2 1683.3 1468.33 Q1683.3 1475.44 1685.1 1479.01 Q1686.93 1482.55 1690.54 1482.55 Q1694.18 1482.55 1695.98 1479.01 Q1697.81 1475.44 1697.81 1468.33 Q1697.81 1461.2 1695.98 1457.66 Q1694.18 1454.1 1690.54 1454.1 M1690.54 1450.39 Q1696.35 1450.39 1699.41 1455 Q1702.49 1459.58 1702.49 1468.33 Q1702.49 1477.06 1699.41 1481.67 Q1696.35 1486.25 1690.54 1486.25 Q1684.73 1486.25 1681.65 1481.67 Q1678.6 1477.06 1678.6 1468.33 Q1678.6 1459.58 1681.65 1455 Q1684.73 1450.39 1690.54 1450.39 Z" fill="#000000" fill-rule="nonzero" fill-opacity="1" /><path clip-path="url(#clip490)" d="M1998.03 1454.1 Q1994.42 1454.1 1992.59 1457.66 Q1990.78 1461.2 1990.78 1468.33 Q1990.78 1475.44 1992.59 1479.01 Q1994.42 1482.55 1998.03 1482.55 Q2001.66 1482.55 2003.47 1479.01 Q2005.3 1475.44 2005.3 1468.33 Q2005.3 1461.2 2003.47 1457.66 Q2001.66 1454.1 1998.03 1454.1 M1998.03 1450.39 Q2003.84 1450.39 2006.89 1455 Q2009.97 1459.58 2009.97 1468.33 Q2009.97 1477.06 2006.89 1481.67 Q2003.84 1486.25 1998.03 1486.25 Q1992.22 1486.25 1989.14 1481.67 Q1986.08 1477.06 1986.08 1468.33 Q1986.08 1459.58 1989.14 1455 Q1992.22 1450.39 1998.03 1450.39 Z" fill="#000000" fill-rule="nonzero" fill-opacity="1" /><path clip-path="url(#clip490)" d="M2018.19 1479.7 L2023.07 1479.7 L2023.07 1485.58 L2018.19 1485.58 L2018.19 1479.7 Z" fill="#000000" fill-rule="nonzero" fill-opacity="1" /><path clip-path="url(#clip490)" d="M2047.43 1466.95 Q2050.78 1467.66 2052.66 1469.93 Q2054.56 1472.2 2054.56 1475.53 Q2054.56 1480.65 2051.04 1483.45 Q2047.52 1486.25 2041.04 1486.25 Q2038.86 1486.25 2036.55 1485.81 Q2034.25 1485.39 2031.8 1484.54 L2031.8 1480.02 Q2033.75 1481.16 2036.06 1481.74 Q2038.37 1482.32 2040.9 1482.32 Q2045.3 1482.32 2047.59 1480.58 Q2049.9 1478.84 2049.9 1475.53 Q2049.9 1472.48 2047.75 1470.77 Q2045.62 1469.03 2041.8 1469.03 L2037.77 1469.03 L2037.77 1465.19 L2041.99 1465.19 Q2045.44 1465.19 2047.26 1463.82 Q2049.09 1462.43 2049.09 1459.84 Q2049.09 1457.18 2047.19 1455.77 Q2045.32 1454.33 2041.8 1454.33 Q2039.88 1454.33 2037.68 1454.75 Q2035.48 1455.16 2032.84 1456.04 L2032.84 1451.88 Q2035.5 1451.14 2037.82 1450.77 Q2040.16 1450.39 2042.22 1450.39 Q2047.54 1450.39 2050.64 1452.83 Q2053.75 1455.23 2053.75 1459.35 Q2053.75 1462.22 2052.1 1464.21 Q2050.46 1466.18 2047.43 1466.95 Z" fill="#000000" fill-rule="nonzero" fill-opacity="1" /><path clip-path="url(#clip490)" d="M2067.45 1481.64 L2083.77 1481.64 L2083.77 1485.58 L2061.82 1485.58 L2061.82 1481.64 Q2064.49 1478.89 2069.07 1474.26 Q2073.68 1469.61 2074.86 1468.27 Q2077.1 1465.74 2077.98 1464.01 Q2078.88 1462.25 2078.88 1460.56 Q2078.88 1457.8 2076.94 1456.07 Q2075.02 1454.33 2071.92 1454.33 Q2069.72 1454.33 2067.26 1455.09 Q2064.83 1455.86 2062.06 1457.41 L2062.06 1452.69 Q2064.88 1451.55 2067.33 1450.97 Q2069.79 1450.39 2071.82 1450.39 Q2077.19 1450.39 2080.39 1453.08 Q2083.58 1455.77 2083.58 1460.26 Q2083.58 1462.39 2082.77 1464.31 Q2081.99 1466.2 2079.88 1468.8 Q2079.3 1469.47 2076.2 1472.69 Q2073.1 1475.88 2067.45 1481.64 Z" fill="#000000" fill-rule="nonzero" fill-opacity="1" /><path clip-path="url(#clip490)" d="M2093.63 1451.02 L2111.99 1451.02 L2111.99 1454.96 L2097.91 1454.96 L2097.91 1463.43 Q2098.93 1463.08 2099.95 1462.92 Q2100.97 1462.73 2101.99 1462.73 Q2107.77 1462.73 2111.15 1465.9 Q2114.53 1469.08 2114.53 1474.49 Q2114.53 1480.07 2111.06 1483.17 Q2107.59 1486.25 2101.27 1486.25 Q2099.09 1486.25 2096.82 1485.88 Q2094.58 1485.51 2092.17 1484.77 L2092.17 1480.07 Q2094.25 1481.2 2096.48 1481.76 Q2098.7 1482.32 2101.18 1482.32 Q2105.18 1482.32 2107.52 1480.21 Q2109.86 1478.1 2109.86 1474.49 Q2109.86 1470.88 2107.52 1468.77 Q2105.18 1466.67 2101.18 1466.67 Q2099.3 1466.67 2097.43 1467.08 Q2095.57 1467.5 2093.63 1468.38 L2093.63 1451.02 Z" fill="#000000" fill-rule="nonzero" fill-opacity="1" /><path clip-path="url(#clip490)" d="M1305.74 1550.25 Q1305.74 1543.79 1303.07 1540.13 Q1300.43 1536.44 1295.78 1536.44 Q1291.13 1536.44 1288.46 1540.13 Q1285.82 1543.79 1285.82 1550.25 Q1285.82 1556.71 1288.46 1560.4 Q1291.13 1564.07 1295.78 1564.07 Q1300.43 1564.07 1303.07 1560.4 Q1305.74 1556.71 1305.74 1550.25 M1285.82 1537.81 Q1287.66 1534.62 1290.46 1533.1 Q1293.3 1531.54 1297.21 1531.54 Q1303.71 1531.54 1307.75 1536.69 Q1311.82 1541.85 1311.82 1550.25 Q1311.82 1558.65 1307.75 1563.81 Q1303.71 1568.97 1297.21 1568.97 Q1293.3 1568.97 1290.46 1567.44 Q1287.66 1565.88 1285.82 1562.7 L1285.82 1568.04 L1279.93 1568.04 L1279.93 1518.52 L1285.82 1518.52 L1285.82 1537.81 Z" fill="#000000" fill-rule="nonzero" fill-opacity="1" /><path clip-path="url(#clip490)" d="M1336.11 1524.76 Q1331.14 1524.76 1328.63 1529.66 Q1326.14 1534.53 1326.14 1544.33 Q1326.14 1554.1 1328.63 1559 Q1331.14 1563.87 1336.11 1563.87 Q1341.1 1563.87 1343.59 1559 Q1346.1 1554.1 1346.1 1544.33 Q1346.1 1534.53 1343.59 1529.66 Q1341.1 1524.76 1336.11 1524.76 M1336.11 1519.66 Q1344.1 1519.66 1348.3 1526 Q1352.53 1532.3 1352.53 1544.33 Q1352.53 1556.33 1348.3 1562.66 Q1344.1 1568.97 1336.11 1568.97 Q1328.12 1568.97 1323.88 1562.66 Q1319.68 1556.33 1319.68 1544.33 Q1319.68 1532.3 1323.88 1526 Q1328.12 1519.66 1336.11 1519.66 Z" fill="#000000" fill-rule="nonzero" fill-opacity="1" /><polyline clip-path="url(#clip490)" style="stroke:#000000; stroke-linecap:round; stroke-linejoin:round; stroke-width:4; stroke-opacity:1; fill:none" points="279.704,1423.18 279.704,47.2441 "/>
<polyline clip-path="url(#clip490)" style="stroke:#000000; stroke-linecap:round; stroke-linejoin:round; stroke-width:4; stroke-opacity:1; fill:none" points="279.704,1174.01 298.602,1174.01 "/>
<polyline clip-path="url(#clip490)" style="stroke:#000000; stroke-linecap:round; stroke-linejoin:round; stroke-width:4; stroke-opacity:1; fill:none" points="279.704,896.074 298.602,896.074 "/>
<polyline clip-path="url(#clip490)" style="stroke:#000000; stroke-linecap:round; stroke-linejoin:round; stroke-width:4; stroke-opacity:1; fill:none" points="279.704,618.136 298.602,618.136 "/>
<polyline clip-path="url(#clip490)" style="stroke:#000000; stroke-linecap:round; stroke-linejoin:round; stroke-width:4; stroke-opacity:1; fill:none" points="279.704,340.197 298.602,340.197 "/>
<polyline clip-path="url(#clip490)" style="stroke:#000000; stroke-linecap:round; stroke-linejoin:round; stroke-width:4; stroke-opacity:1; fill:none" points="279.704,62.2587 298.602,62.2587 "/>
<path clip-path="url(#clip490)" d="M127.2 1159.81 Q123.589 1159.81 121.76 1163.38 Q119.955 1166.92 119.955 1174.05 Q119.955 1181.15 121.76 1184.72 Q123.589 1188.26 127.2 1188.26 Q130.834 1188.26 132.64 1184.72 Q134.468 1181.15 134.468 1174.05 Q134.468 1166.92 132.64 1163.38 Q130.834 1159.81 127.2 1159.81 M127.2 1156.11 Q133.01 1156.11 136.066 1160.71 Q139.144 1165.3 139.144 1174.05 Q139.144 1182.77 136.066 1187.38 Q133.01 1191.96 127.2 1191.96 Q121.39 1191.96 118.311 1187.38 Q115.256 1182.77 115.256 1174.05 Q115.256 1165.3 118.311 1160.71 Q121.39 1156.11 127.2 1156.11 Z" fill="#000000" fill-rule="nonzero" fill-opacity="1" /><path clip-path="url(#clip490)" d="M147.362 1185.41 L152.246 1185.41 L152.246 1191.29 L147.362 1191.29 L147.362 1185.41 Z" fill="#000000" fill-rule="nonzero" fill-opacity="1" /><path clip-path="url(#clip490)" d="M173.01 1172.15 Q169.862 1172.15 168.01 1174.3 Q166.181 1176.45 166.181 1180.2 Q166.181 1183.93 168.01 1186.11 Q169.862 1188.26 173.01 1188.26 Q176.158 1188.26 177.987 1186.11 Q179.839 1183.93 179.839 1180.2 Q179.839 1176.45 177.987 1174.3 Q176.158 1172.15 173.01 1172.15 M182.292 1157.5 L182.292 1161.76 Q180.533 1160.92 178.727 1160.48 Q176.945 1160.04 175.186 1160.04 Q170.556 1160.04 168.102 1163.17 Q165.672 1166.29 165.325 1172.61 Q166.69 1170.6 168.751 1169.53 Q170.811 1168.45 173.288 1168.45 Q178.496 1168.45 181.505 1171.62 Q184.538 1174.76 184.538 1180.2 Q184.538 1185.53 181.389 1188.75 Q178.241 1191.96 173.01 1191.96 Q167.015 1191.96 163.843 1187.38 Q160.672 1182.77 160.672 1174.05 Q160.672 1165.85 164.561 1160.99 Q168.45 1156.11 175.001 1156.11 Q176.76 1156.11 178.542 1156.45 Q180.348 1156.8 182.292 1157.5 Z" fill="#000000" fill-rule="nonzero" fill-opacity="1" /><path clip-path="url(#clip490)" d="M191.413 1156.73 L213.635 1156.73 L213.635 1158.72 L201.088 1191.29 L196.204 1191.29 L208.01 1160.67 L191.413 1160.67 L191.413 1156.73 Z" fill="#000000" fill-rule="nonzero" fill-opacity="1" /><path clip-path="url(#clip490)" d="M222.801 1156.73 L241.158 1156.73 L241.158 1160.67 L227.084 1160.67 L227.084 1169.14 Q228.102 1168.79 229.121 1168.63 Q230.139 1168.45 231.158 1168.45 Q236.945 1168.45 240.324 1171.62 Q243.704 1174.79 243.704 1180.2 Q243.704 1185.78 240.232 1188.89 Q236.76 1191.96 230.44 1191.96 Q228.264 1191.96 225.996 1191.59 Q223.75 1191.22 221.343 1190.48 L221.343 1185.78 Q223.426 1186.92 225.648 1187.47 Q227.871 1188.03 230.347 1188.03 Q234.352 1188.03 236.69 1185.92 Q239.028 1183.82 239.028 1180.2 Q239.028 1176.59 236.69 1174.49 Q234.352 1172.38 230.347 1172.38 Q228.473 1172.38 226.598 1172.8 Q224.746 1173.21 222.801 1174.09 L222.801 1156.73 Z" fill="#000000" fill-rule="nonzero" fill-opacity="1" /><path clip-path="url(#clip490)" d="M126.205 881.873 Q122.593 881.873 120.765 885.438 Q118.959 888.979 118.959 896.109 Q118.959 903.215 120.765 906.78 Q122.593 910.322 126.205 910.322 Q129.839 910.322 131.644 906.78 Q133.473 903.215 133.473 896.109 Q133.473 888.979 131.644 885.438 Q129.839 881.873 126.205 881.873 M126.205 878.169 Q132.015 878.169 135.07 882.776 Q138.149 887.359 138.149 896.109 Q138.149 904.836 135.07 909.442 Q132.015 914.025 126.205 914.025 Q120.394 914.025 117.316 909.442 Q114.26 904.836 114.26 896.109 Q114.26 887.359 117.316 882.776 Q120.394 878.169 126.205 878.169 Z" fill="#000000" fill-rule="nonzero" fill-opacity="1" /><path clip-path="url(#clip490)" d="M146.366 907.475 L151.251 907.475 L151.251 913.354 L146.366 913.354 L146.366 907.475 Z" fill="#000000" fill-rule="nonzero" fill-opacity="1" /><path clip-path="url(#clip490)" d="M160.255 878.794 L182.477 878.794 L182.477 880.785 L169.931 913.354 L165.047 913.354 L176.852 882.729 L160.255 882.729 L160.255 878.794 Z" fill="#000000" fill-rule="nonzero" fill-opacity="1" /><path clip-path="url(#clip490)" d="M201.598 881.873 Q197.987 881.873 196.158 885.438 Q194.352 888.979 194.352 896.109 Q194.352 903.215 196.158 906.78 Q197.987 910.322 201.598 910.322 Q205.232 910.322 207.037 906.78 Q208.866 903.215 208.866 896.109 Q208.866 888.979 207.037 885.438 Q205.232 881.873 201.598 881.873 M201.598 878.169 Q207.408 878.169 210.463 882.776 Q213.542 887.359 213.542 896.109 Q213.542 904.836 210.463 909.442 Q207.408 914.025 201.598 914.025 Q195.787 914.025 192.709 909.442 Q189.653 904.836 189.653 896.109 Q189.653 887.359 192.709 882.776 Q195.787 878.169 201.598 878.169 Z" fill="#000000" fill-rule="nonzero" fill-opacity="1" /><path clip-path="url(#clip490)" d="M231.76 881.873 Q228.148 881.873 226.32 885.438 Q224.514 888.979 224.514 896.109 Q224.514 903.215 226.32 906.78 Q228.148 910.322 231.76 910.322 Q235.394 910.322 237.199 906.78 Q239.028 903.215 239.028 896.109 Q239.028 888.979 237.199 885.438 Q235.394 881.873 231.76 881.873 M231.76 878.169 Q237.57 878.169 240.625 882.776 Q243.704 887.359 243.704 896.109 Q243.704 904.836 240.625 909.442 Q237.57 914.025 231.76 914.025 Q225.949 914.025 222.871 909.442 Q219.815 904.836 219.815 896.109 Q219.815 887.359 222.871 882.776 Q225.949 878.169 231.76 878.169 Z" fill="#000000" fill-rule="nonzero" fill-opacity="1" /><path clip-path="url(#clip490)" d="M127.2 603.934 Q123.589 603.934 121.76 607.499 Q119.955 611.041 119.955 618.17 Q119.955 625.277 121.76 628.842 Q123.589 632.383 127.2 632.383 Q130.834 632.383 132.64 628.842 Q134.468 625.277 134.468 618.17 Q134.468 611.041 132.64 607.499 Q130.834 603.934 127.2 603.934 M127.2 600.231 Q133.01 600.231 136.066 604.837 Q139.144 609.42 139.144 618.17 Q139.144 626.897 136.066 631.504 Q133.01 636.087 127.2 636.087 Q121.39 636.087 118.311 631.504 Q115.256 626.897 115.256 618.17 Q115.256 609.42 118.311 604.837 Q121.39 600.231 127.2 600.231 Z" fill="#000000" fill-rule="nonzero" fill-opacity="1" /><path clip-path="url(#clip490)" d="M147.362 629.536 L152.246 629.536 L152.246 635.416 L147.362 635.416 L147.362 629.536 Z" fill="#000000" fill-rule="nonzero" fill-opacity="1" /><path clip-path="url(#clip490)" d="M161.251 600.856 L183.473 600.856 L183.473 602.846 L170.927 635.416 L166.042 635.416 L177.848 604.791 L161.251 604.791 L161.251 600.856 Z" fill="#000000" fill-rule="nonzero" fill-opacity="1" /><path clip-path="url(#clip490)" d="M196.621 631.48 L212.94 631.48 L212.94 635.416 L190.996 635.416 L190.996 631.48 Q193.658 628.726 198.241 624.096 Q202.848 619.444 204.028 618.101 Q206.274 615.578 207.153 613.842 Q208.056 612.082 208.056 610.393 Q208.056 607.638 206.112 605.902 Q204.19 604.166 201.088 604.166 Q198.889 604.166 196.436 604.93 Q194.005 605.694 191.227 607.244 L191.227 602.522 Q194.051 601.388 196.505 600.809 Q198.959 600.231 200.996 600.231 Q206.366 600.231 209.561 602.916 Q212.755 605.601 212.755 610.092 Q212.755 612.221 211.945 614.143 Q211.158 616.041 209.051 618.633 Q208.473 619.305 205.371 622.522 Q202.269 625.717 196.621 631.48 Z" fill="#000000" fill-rule="nonzero" fill-opacity="1" /><path clip-path="url(#clip490)" d="M222.801 600.856 L241.158 600.856 L241.158 604.791 L227.084 604.791 L227.084 613.263 Q228.102 612.916 229.121 612.754 Q230.139 612.569 231.158 612.569 Q236.945 612.569 240.324 615.74 Q243.704 618.911 243.704 624.328 Q243.704 629.906 240.232 633.008 Q236.76 636.087 230.44 636.087 Q228.264 636.087 225.996 635.717 Q223.75 635.346 221.343 634.605 L221.343 629.906 Q223.426 631.041 225.648 631.596 Q227.871 632.152 230.347 632.152 Q234.352 632.152 236.69 630.045 Q239.028 627.939 239.028 624.328 Q239.028 620.717 236.69 618.61 Q234.352 616.504 230.347 616.504 Q228.473 616.504 226.598 616.92 Q224.746 617.337 222.801 618.217 L222.801 600.856 Z" fill="#000000" fill-rule="nonzero" fill-opacity="1" /><path clip-path="url(#clip490)" d="M126.205 325.996 Q122.593 325.996 120.765 329.561 Q118.959 333.102 118.959 340.232 Q118.959 347.338 120.765 350.903 Q122.593 354.445 126.205 354.445 Q129.839 354.445 131.644 350.903 Q133.473 347.338 133.473 340.232 Q133.473 333.102 131.644 329.561 Q129.839 325.996 126.205 325.996 M126.205 322.292 Q132.015 322.292 135.07 326.899 Q138.149 331.482 138.149 340.232 Q138.149 348.959 135.07 353.565 Q132.015 358.148 126.205 358.148 Q120.394 358.148 117.316 353.565 Q114.26 348.959 114.26 340.232 Q114.26 331.482 117.316 326.899 Q120.394 322.292 126.205 322.292 Z" fill="#000000" fill-rule="nonzero" fill-opacity="1" /><path clip-path="url(#clip490)" d="M146.366 351.598 L151.251 351.598 L151.251 357.477 L146.366 357.477 L146.366 351.598 Z" fill="#000000" fill-rule="nonzero" fill-opacity="1" /><path clip-path="url(#clip490)" d="M160.255 322.917 L182.477 322.917 L182.477 324.908 L169.931 357.477 L165.047 357.477 L176.852 326.852 L160.255 326.852 L160.255 322.917 Z" fill="#000000" fill-rule="nonzero" fill-opacity="1" /><path clip-path="url(#clip490)" d="M191.644 322.917 L210 322.917 L210 326.852 L195.926 326.852 L195.926 335.325 Q196.945 334.977 197.963 334.815 Q198.982 334.63 200 334.63 Q205.787 334.63 209.167 337.801 Q212.547 340.973 212.547 346.389 Q212.547 351.968 209.074 355.07 Q205.602 358.148 199.283 358.148 Q197.107 358.148 194.838 357.778 Q192.593 357.408 190.186 356.667 L190.186 351.968 Q192.269 353.102 194.491 353.658 Q196.713 354.213 199.19 354.213 Q203.195 354.213 205.533 352.107 Q207.871 350 207.871 346.389 Q207.871 342.778 205.533 340.672 Q203.195 338.565 199.19 338.565 Q197.315 338.565 195.44 338.982 Q193.588 339.399 191.644 340.278 L191.644 322.917 Z" fill="#000000" fill-rule="nonzero" fill-opacity="1" /><path clip-path="url(#clip490)" d="M231.76 325.996 Q228.148 325.996 226.32 329.561 Q224.514 333.102 224.514 340.232 Q224.514 347.338 226.32 350.903 Q228.148 354.445 231.76 354.445 Q235.394 354.445 237.199 350.903 Q239.028 347.338 239.028 340.232 Q239.028 333.102 237.199 329.561 Q235.394 325.996 231.76 325.996 M231.76 322.292 Q237.57 322.292 240.625 326.899 Q243.704 331.482 243.704 340.232 Q243.704 348.959 240.625 353.565 Q237.57 358.148 231.76 358.148 Q225.949 358.148 222.871 353.565 Q219.815 348.959 219.815 340.232 Q219.815 331.482 222.871 326.899 Q225.949 322.292 231.76 322.292 Z" fill="#000000" fill-rule="nonzero" fill-opacity="1" /><path clip-path="url(#clip490)" d="M127.2 48.0574 Q123.589 48.0574 121.76 51.6222 Q119.955 55.1639 119.955 62.2935 Q119.955 69.3999 121.76 72.9647 Q123.589 76.5063 127.2 76.5063 Q130.834 76.5063 132.64 72.9647 Q134.468 69.3999 134.468 62.2935 Q134.468 55.1639 132.64 51.6222 Q130.834 48.0574 127.2 48.0574 M127.2 44.3537 Q133.01 44.3537 136.066 48.9602 Q139.144 53.5435 139.144 62.2935 Q139.144 71.0203 136.066 75.6267 Q133.01 80.21 127.2 80.21 Q121.39 80.21 118.311 75.6267 Q115.256 71.0203 115.256 62.2935 Q115.256 53.5435 118.311 48.9602 Q121.39 44.3537 127.2 44.3537 Z" fill="#000000" fill-rule="nonzero" fill-opacity="1" /><path clip-path="url(#clip490)" d="M147.362 73.6591 L152.246 73.6591 L152.246 79.5387 L147.362 79.5387 L147.362 73.6591 Z" fill="#000000" fill-rule="nonzero" fill-opacity="1" /><path clip-path="url(#clip490)" d="M161.251 44.9787 L183.473 44.9787 L183.473 46.9695 L170.927 79.5387 L166.042 79.5387 L177.848 48.9139 L161.251 48.9139 L161.251 44.9787 Z" fill="#000000" fill-rule="nonzero" fill-opacity="1" /><path clip-path="url(#clip490)" d="M191.413 44.9787 L213.635 44.9787 L213.635 46.9695 L201.088 79.5387 L196.204 79.5387 L208.01 48.9139 L191.413 48.9139 L191.413 44.9787 Z" fill="#000000" fill-rule="nonzero" fill-opacity="1" /><path clip-path="url(#clip490)" d="M222.801 44.9787 L241.158 44.9787 L241.158 48.9139 L227.084 48.9139 L227.084 57.3861 Q228.102 57.0389 229.121 56.8768 Q230.139 56.6916 231.158 56.6916 Q236.945 56.6916 240.324 59.8629 Q243.704 63.0342 243.704 68.4508 Q243.704 74.0295 240.232 77.1313 Q236.76 80.21 230.44 80.21 Q228.264 80.21 225.996 79.8397 Q223.75 79.4693 221.343 78.7286 L221.343 74.0295 Q223.426 75.1638 225.648 75.7193 Q227.871 76.2749 230.347 76.2749 Q234.352 76.2749 236.69 74.1684 Q239.028 72.0619 239.028 68.4508 Q239.028 64.8397 236.69 62.7333 Q234.352 60.6268 230.347 60.6268 Q228.473 60.6268 226.598 61.0435 Q224.746 61.4601 222.801 62.3398 L222.801 44.9787 Z" fill="#000000" fill-rule="nonzero" fill-opacity="1" /><path clip-path="url(#clip490)" d="M35.1993 774.218 Q31.2526 772.022 29.3747 768.966 Q27.4968 765.911 27.4968 761.773 Q27.4968 756.203 31.4117 753.179 Q35.2948 750.155 42.4881 750.155 L64.0042 750.155 L64.0042 756.044 L42.679 756.044 Q37.5546 756.044 35.072 757.858 Q32.5894 759.672 32.5894 763.396 Q32.5894 767.948 35.6131 770.589 Q38.6368 773.231 43.8567 773.231 L64.0042 773.231 L64.0042 779.119 L42.679 779.119 Q37.5228 779.119 35.072 780.934 Q32.5894 782.748 32.5894 786.535 Q32.5894 791.023 35.6449 793.665 Q38.6686 796.307 43.8567 796.307 L64.0042 796.307 L64.0042 802.195 L28.3562 802.195 L28.3562 796.307 L33.8944 796.307 Q30.616 794.302 29.0564 791.501 Q27.4968 788.7 27.4968 784.849 Q27.4968 780.965 29.4702 778.26 Q31.4436 775.523 35.1993 774.218 Z" fill="#000000" fill-rule="nonzero" fill-opacity="1" /><path clip-path="url(#clip490)" d="M46.0847 722.274 Q46.0847 729.371 47.7079 732.109 Q49.3312 734.846 53.2461 734.846 Q56.3653 734.846 58.2114 732.809 Q60.0256 730.74 60.0256 727.207 Q60.0256 722.337 56.5881 719.409 Q53.1188 716.449 47.3897 716.449 L46.0847 716.449 L46.0847 722.274 M43.6657 710.593 L64.0042 710.593 L64.0042 716.449 L58.5933 716.449 Q61.8398 718.454 63.3994 721.446 Q64.9272 724.438 64.9272 728.767 Q64.9272 734.241 61.8716 737.488 Q58.7843 740.702 53.6281 740.702 Q47.6125 740.702 44.5569 736.692 Q41.5014 732.65 41.5014 724.661 L41.5014 716.449 L40.9285 716.449 Q36.8862 716.449 34.6901 719.123 Q32.4621 721.764 32.4621 726.571 Q32.4621 729.626 33.1941 732.522 Q33.9262 735.419 35.3903 738.092 L29.9795 738.092 Q28.7381 734.878 28.1334 731.854 Q27.4968 728.83 27.4968 725.966 Q27.4968 718.231 31.5072 714.412 Q35.5176 710.593 43.6657 710.593 Z" fill="#000000" fill-rule="nonzero" fill-opacity="1" /><path clip-path="url(#clip490)" d="M28.3562 668.897 L45.7028 681.788 L64.0042 668.229 L64.0042 675.136 L49.9996 685.512 L64.0042 695.888 L64.0042 702.795 L45.3526 688.949 L28.3562 701.617 L28.3562 694.71 L41.0558 685.257 L28.3562 675.804 L28.3562 668.897 Z" fill="#000000" fill-rule="nonzero" fill-opacity="1" /><polyline clip-path="url(#clip492)" style="stroke:#009af9; stroke-linecap:round; stroke-linejoin:round; stroke-width:8; stroke-opacity:1; fill:none" points="812.68,96.6371 833.86,98.8842 "/>
<polyline clip-path="url(#clip492)" style="stroke:#009af9; stroke-linecap:round; stroke-linejoin:round; stroke-width:8; stroke-opacity:1; fill:none" points="833.86,98.8842 864.462,104.053 "/>
<polyline clip-path="url(#clip492)" style="stroke:#009af9; stroke-linecap:round; stroke-linejoin:round; stroke-width:8; stroke-opacity:1; fill:none" points="864.462,104.053 908.892,111.593 "/>
<polyline clip-path="url(#clip492)" style="stroke:#009af9; stroke-linecap:round; stroke-linejoin:round; stroke-width:8; stroke-opacity:1; fill:none" points="908.892,111.593 972.11,124.996 "/>
<polyline clip-path="url(#clip492)" style="stroke:#009af9; stroke-linecap:round; stroke-linejoin:round; stroke-width:8; stroke-opacity:1; fill:none" points="972.11,124.996 1062.54,147.278 "/>
<polyline clip-path="url(#clip492)" style="stroke:#009af9; stroke-linecap:round; stroke-linejoin:round; stroke-width:8; stroke-opacity:1; fill:none" points="1062.54,147.278 1182.49,185.518 "/>
<polyline clip-path="url(#clip492)" style="stroke:#009af9; stroke-linecap:round; stroke-linejoin:round; stroke-width:8; stroke-opacity:1; fill:none" points="1182.49,185.518 1305.75,234.055 "/>
<polyline clip-path="url(#clip492)" style="stroke:#009af9; stroke-linecap:round; stroke-linejoin:round; stroke-width:8; stroke-opacity:1; fill:none" points="1305.75,234.055 1431.11,292.563 "/>
<polyline clip-path="url(#clip492)" style="stroke:#009af9; stroke-linecap:round; stroke-linejoin:round; stroke-width:8; stroke-opacity:1; fill:none" points="1431.11,292.563 1557.4,361.872 "/>
<polyline clip-path="url(#clip492)" style="stroke:#009af9; stroke-linecap:round; stroke-linejoin:round; stroke-width:8; stroke-opacity:1; fill:none" points="1557.4,361.872 1683.33,442.929 "/>
<polyline clip-path="url(#clip492)" style="stroke:#009af9; stroke-linecap:round; stroke-linejoin:round; stroke-width:8; stroke-opacity:1; fill:none" points="1683.33,442.929 1807.31,534.749 "/>
<polyline clip-path="url(#clip492)" style="stroke:#009af9; stroke-linecap:round; stroke-linejoin:round; stroke-width:8; stroke-opacity:1; fill:none" points="1807.31,534.749 1927.26,637.602 "/>
<polyline clip-path="url(#clip492)" style="stroke:#009af9; stroke-linecap:round; stroke-linejoin:round; stroke-width:8; stroke-opacity:1; fill:none" points="1927.26,637.602 2040.34,751.228 "/>
<polyline clip-path="url(#clip492)" style="stroke:#009af9; stroke-linecap:round; stroke-linejoin:round; stroke-width:8; stroke-opacity:1; fill:none" points="2040.34,751.228 2142.33,874.844 "/>
<polyline clip-path="url(#clip492)" style="stroke:#009af9; stroke-linecap:round; stroke-linejoin:round; stroke-width:8; stroke-opacity:1; fill:none" points="2142.33,874.844 2226.61,1005.62 "/>
<polyline clip-path="url(#clip492)" style="stroke:#009af9; stroke-linecap:round; stroke-linejoin:round; stroke-width:8; stroke-opacity:1; fill:none" points="2226.61,1005.62 2282.04,1141.24 "/>
<polyline clip-path="url(#clip492)" style="stroke:#009af9; stroke-linecap:round; stroke-linejoin:round; stroke-width:8; stroke-opacity:1; fill:none" points="2282.04,1141.24 2294.08,1226.91 "/>
<polyline clip-path="url(#clip492)" style="stroke:#009af9; stroke-linecap:round; stroke-linejoin:round; stroke-width:4; stroke-opacity:1; fill:none" points="2294.08,1226.91 2260.16,1333.9 "/>
<polyline clip-path="url(#clip492)" style="stroke:#009af9; stroke-linecap:round; stroke-linejoin:round; stroke-width:4; stroke-opacity:1; fill:none" points="2260.16,1333.9 2153.23,1384.24 "/>
<polyline clip-path="url(#clip492)" style="stroke:#009af9; stroke-linecap:round; stroke-linejoin:round; stroke-width:4; stroke-opacity:1; fill:none" points="2153.23,1384.24 2003.82,1364.54 "/>
<polyline clip-path="url(#clip492)" style="stroke:#009af9; stroke-linecap:round; stroke-linejoin:round; stroke-width:4; stroke-opacity:1; fill:none" points="2003.82,1364.54 1840.48,1301.23 "/>
<polyline clip-path="url(#clip492)" style="stroke:#009af9; stroke-linecap:round; stroke-linejoin:round; stroke-width:4; stroke-opacity:1; fill:none" points="1840.48,1301.23 1672.15,1213.75 "/>
<polyline clip-path="url(#clip492)" style="stroke:#009af9; stroke-linecap:round; stroke-linejoin:round; stroke-width:4; stroke-opacity:1; fill:none" points="1672.15,1213.75 1502.28,1113.57 "/>
<polyline clip-path="url(#clip492)" style="stroke:#009af9; stroke-linecap:round; stroke-linejoin:round; stroke-width:4; stroke-opacity:1; fill:none" points="1502.28,1113.57 1333.03,1007.08 "/>
<polyline clip-path="url(#clip492)" style="stroke:#009af9; stroke-linecap:round; stroke-linejoin:round; stroke-width:4; stroke-opacity:1; fill:none" points="1333.03,1007.08 1166.33,898.23 "/>
<polyline clip-path="url(#clip492)" style="stroke:#009af9; stroke-linecap:round; stroke-linejoin:round; stroke-width:4; stroke-opacity:1; fill:none" points="1166.33,898.23 1004.52,791.239 "/>
<polyline clip-path="url(#clip492)" style="stroke:#009af9; stroke-linecap:round; stroke-linejoin:round; stroke-width:4; stroke-opacity:1; fill:none" points="1004.52,791.239 850.67,688.301 "/>
<polyline clip-path="url(#clip492)" style="stroke:#009af9; stroke-linecap:round; stroke-linejoin:round; stroke-width:4; stroke-opacity:1; fill:none" points="850.67,688.301 708.807,591.345 "/>
<polyline clip-path="url(#clip492)" style="stroke:#009af9; stroke-linecap:round; stroke-linejoin:round; stroke-width:4; stroke-opacity:1; fill:none" points="708.807,591.345 583.905,501.816 "/>
<polyline clip-path="url(#clip492)" style="stroke:#009af9; stroke-linecap:round; stroke-linejoin:round; stroke-width:4; stroke-opacity:1; fill:none" points="583.905,501.816 481.266,419.457 "/>
<polyline clip-path="url(#clip492)" style="stroke:#009af9; stroke-linecap:round; stroke-linejoin:round; stroke-width:4; stroke-opacity:1; fill:none" points="481.266,419.457 405.275,347.985 "/>
<polyline clip-path="url(#clip492)" style="stroke:#009af9; stroke-linecap:round; stroke-linejoin:round; stroke-width:4; stroke-opacity:1; fill:none" points="405.275,347.985 358.049,285.142 "/>
<polyline clip-path="url(#clip492)" style="stroke:#009af9; stroke-linecap:round; stroke-linejoin:round; stroke-width:4; stroke-opacity:1; fill:none" points="358.049,285.142 338.999,231.577 "/>
<polyline clip-path="url(#clip492)" style="stroke:#009af9; stroke-linecap:round; stroke-linejoin:round; stroke-width:4; stroke-opacity:1; fill:none" points="338.999,231.577 338.375,219.889 "/>
<polyline clip-path="url(#clip492)" style="stroke:#009af9; stroke-linecap:round; stroke-linejoin:round; stroke-width:8; stroke-opacity:1; fill:none" points="338.375,219.889 350.771,178.265 "/>
<polyline clip-path="url(#clip492)" style="stroke:#009af9; stroke-linecap:round; stroke-linejoin:round; stroke-width:8; stroke-opacity:1; fill:none" points="350.771,178.265 384.544,143.952 "/>
<polyline clip-path="url(#clip492)" style="stroke:#009af9; stroke-linecap:round; stroke-linejoin:round; stroke-width:8; stroke-opacity:1; fill:none" points="384.544,143.952 436.386,117.697 "/>
<polyline clip-path="url(#clip492)" style="stroke:#009af9; stroke-linecap:round; stroke-linejoin:round; stroke-width:8; stroke-opacity:1; fill:none" points="436.386,117.697 503.384,99.3039 "/>
<polyline clip-path="url(#clip492)" style="stroke:#009af9; stroke-linecap:round; stroke-linejoin:round; stroke-width:8; stroke-opacity:1; fill:none" points="503.384,99.3039 583.079,88.7589 "/>
<polyline clip-path="url(#clip492)" style="stroke:#009af9; stroke-linecap:round; stroke-linejoin:round; stroke-width:8; stroke-opacity:1; fill:none" points="583.079,88.7589 673.406,86.1857 "/>
<polyline clip-path="url(#clip492)" style="stroke:#009af9; stroke-linecap:round; stroke-linejoin:round; stroke-width:8; stroke-opacity:1; fill:none" points="673.406,86.1857 772.625,91.8067 "/>
<polyline clip-path="url(#clip492)" style="stroke:#009af9; stroke-linecap:round; stroke-linejoin:round; stroke-width:8; stroke-opacity:1; fill:none" points="772.625,91.8067 879.245,105.922 "/>
<polyline clip-path="url(#clip492)" style="stroke:#009af9; stroke-linecap:round; stroke-linejoin:round; stroke-width:8; stroke-opacity:1; fill:none" points="879.245,105.922 991.959,128.9 "/>
<polyline clip-path="url(#clip492)" style="stroke:#009af9; stroke-linecap:round; stroke-linejoin:round; stroke-width:8; stroke-opacity:1; fill:none" points="991.959,128.9 1109.59,161.18 "/>
<polyline clip-path="url(#clip492)" style="stroke:#009af9; stroke-linecap:round; stroke-linejoin:round; stroke-width:8; stroke-opacity:1; fill:none" points="1109.59,161.18 1231.04,203.281 "/>
<polyline clip-path="url(#clip492)" style="stroke:#009af9; stroke-linecap:round; stroke-linejoin:round; stroke-width:8; stroke-opacity:1; fill:none" points="1231.04,203.281 1355.23,255.816 "/>
<polyline clip-path="url(#clip492)" style="stroke:#009af9; stroke-linecap:round; stroke-linejoin:round; stroke-width:8; stroke-opacity:1; fill:none" points="1355.23,255.816 1481.05,318.892 "/>
<polyline clip-path="url(#clip492)" style="stroke:#009af9; stroke-linecap:round; stroke-linejoin:round; stroke-width:8; stroke-opacity:1; fill:none" points="1481.05,318.892 1607.29,392.418 "/>
<polyline clip-path="url(#clip492)" style="stroke:#009af9; stroke-linecap:round; stroke-linejoin:round; stroke-width:8; stroke-opacity:1; fill:none" points="1607.29,392.418 1732.54,477.743 "/>
<polyline clip-path="url(#clip492)" style="stroke:#009af9; stroke-linecap:round; stroke-linejoin:round; stroke-width:8; stroke-opacity:1; fill:none" points="1732.54,477.743 1855.04,574.108 "/>
<circle clip-path="url(#clip492)" cx="2294.08" cy="1226.91" r="10.8" fill="#0000ff" fill-rule="evenodd" fill-opacity="1" stroke="none"/>
<circle clip-path="url(#clip492)" cx="338.375" cy="219.889" r="10.8" fill="#0000ff" fill-rule="evenodd" fill-opacity="1" stroke="none"/>
<circle clip-path="url(#clip492)" cx="2294.08" cy="1226.91" r="10.8" fill="#0000ff" fill-rule="evenodd" fill-opacity="1" stroke="none"/>
<path clip-path="url(#clip490)" d="M2023.06 196.789 L2283.65 196.789 L2283.65 93.1086 L2023.06 93.1086  Z" fill="#ffffff" fill-rule="evenodd" fill-opacity="1"/>
<polyline clip-path="url(#clip490)" style="stroke:#000000; stroke-linecap:round; stroke-linejoin:round; stroke-width:4; stroke-opacity:1; fill:none" points="2023.06,196.789 2283.65,196.789 2283.65,93.1086 2023.06,93.1086 2023.06,196.789 "/>
<circle clip-path="url(#clip490)" cx="2115.2" cy="144.949" r="23.04" fill="#0000ff" fill-rule="evenodd" fill-opacity="1" stroke="none"/>
<path clip-path="url(#clip490)" d="M2226.11 149.289 Q2226.11 144.59 2224.16 141.928 Q2222.24 139.243 2218.86 139.243 Q2215.48 139.243 2213.54 141.928 Q2211.62 144.59 2211.62 149.289 Q2211.62 153.988 2213.54 156.673 Q2215.48 159.335 2218.86 159.335 Q2222.24 159.335 2224.16 156.673 Q2226.11 153.988 2226.11 149.289 M2211.62 140.238 Q2212.96 137.923 2215 136.812 Q2217.06 135.678 2219.9 135.678 Q2224.63 135.678 2227.56 139.428 Q2230.53 143.178 2230.53 149.289 Q2230.53 155.4 2227.56 159.15 Q2224.63 162.9 2219.9 162.9 Q2217.06 162.9 2215 161.789 Q2212.96 160.655 2211.62 158.34 L2211.62 162.229 L2207.33 162.229 L2207.33 126.21 L2211.62 126.21 L2211.62 140.238 Z" fill="#000000" fill-rule="nonzero" fill-opacity="1" /><path clip-path="url(#clip490)" d="M2241.71 158.34 L2241.71 172.09 L2237.43 172.09 L2237.43 136.303 L2241.71 136.303 L2241.71 140.238 Q2243.05 137.923 2245.09 136.812 Q2247.15 135.678 2250 135.678 Q2254.72 135.678 2257.66 139.428 Q2260.62 143.178 2260.62 149.289 Q2260.62 155.4 2257.66 159.15 Q2254.72 162.9 2250 162.9 Q2247.15 162.9 2245.09 161.789 Q2243.05 160.655 2241.71 158.34 M2256.2 149.289 Q2256.2 144.59 2254.25 141.928 Q2252.33 139.243 2248.95 139.243 Q2245.57 139.243 2243.63 141.928 Q2241.71 144.59 2241.71 149.289 Q2241.71 153.988 2243.63 156.673 Q2245.57 159.335 2248.95 159.335 Q2252.33 159.335 2254.25 156.673 Q2256.2 153.988 2256.2 149.289 Z" fill="#000000" fill-rule="nonzero" fill-opacity="1" /></svg>
