<?xml version="1.0" encoding="utf-8"?>
<svg xmlns="http://www.w3.org/2000/svg" xmlns:xlink="http://www.w3.org/1999/xlink" width="600" height="400" viewBox="0 0 2400 1600">
<defs>
  <clipPath id="clip190">
    <rect x="0" y="0" width="2400" height="1600"/>
  </clipPath>
</defs>
<path clip-path="url(#clip190)" d="M0 1600 L2400 1600 L2400 0 L0 0  Z" fill="#ffffff" fill-rule="evenodd" fill-opacity="1"/>
<defs>
  <clipPath id="clip191">
    <rect x="250" y="47" width="2104" height="1377"/>
  </clipPath>
</defs>
<path clip-path="url(#clip190)" d="M250.028 1423.18 L2352.76 1423.18 L2352.76 47.2441 L250.028 47.2441  Z" fill="#ffffff" fill-rule="evenodd" fill-opacity="1"/>
<polyline clip-path="url(#clip191)" style="stroke:#000000; stroke-linecap:round; stroke-linejoin:round; stroke-width:2; stroke-opacity:0.1; fill:none" points="309.539,1423.18 309.539,47.2441 "/>
<polyline clip-path="url(#clip191)" style="stroke:#000000; stroke-linecap:round; stroke-linejoin:round; stroke-width:2; stroke-opacity:0.1; fill:none" points="867.935,1423.18 867.935,47.2441 "/>
<polyline clip-path="url(#clip191)" style="stroke:#000000; stroke-linecap:round; stroke-linejoin:round; stroke-width:2; stroke-opacity:0.1; fill:none" points="1426.33,1423.18 1426.33,47.2441 "/>
<polyline clip-path="url(#clip191)" style="stroke:#000000; stroke-linecap:round; stroke-linejoin:round; stroke-width:2; stroke-opacity:0.1; fill:none" points="1984.73,1423.18 1984.73,47.2441 "/>
<polyline clip-path="url(#clip191)" style="stroke:#000000; stroke-linecap:round; stroke-linejoin:round; stroke-width:2; stroke-opacity:0.1; fill:none" points="250.028,1201.18 2352.76,1201.18 "/>
<polyline clip-path="url(#clip191)" style="stroke:#000000; stroke-linecap:round; stroke-linejoin:round; stroke-width:2; stroke-opacity:0.1; fill:none" points="250.028,953.758 2352.76,953.758 "/>
<polyline clip-path="url(#clip191)" style="stroke:#000000; stroke-linecap:round; stroke-linejoin:round; stroke-width:2; stroke-opacity:0.1; fill:none" points="250.028,706.34 2352.76,706.34 "/>
<polyline clip-path="url(#clip191)" style="stroke:#000000; stroke-linecap:round; stroke-linejoin:round; stroke-width:2; stroke-opacity:0.1; fill:none" points="250.028,458.921 2352.76,458.921 "/>
<polyline clip-path="url(#clip191)" style="stroke:#000000; stroke-linecap:round; stroke-linejoin:round; stroke-width:2; stroke-opacity:0.1; fill:none" points="250.028,211.503 2352.76,211.503 "/>
<polyline clip-path="url(#clip190)" style="stroke:#000000; stroke-linecap:round; stroke-linejoin:round; stroke-width:4; stroke-opacity:1; fill:none" points="250.028,1423.18 2352.76,1423.18 "/>
<polyline clip-path="url(#clip190)" style="stroke:#000000; stroke-linecap:round; stroke-linejoin:round; stroke-width:4; stroke-opacity:1; fill:none" points="309.539,1423.18 309.539,1404.28 "/>
<polyline clip-path="url(#clip190)" style="stroke:#000000; stroke-linecap:round; stroke-linejoin:round; stroke-width:4; stroke-opacity:1; fill:none" points="867.935,1423.18 867.935,1404.28 "/>
<polyline clip-path="url(#clip190)" style="stroke:#000000; stroke-linecap:round; stroke-linejoin:round; stroke-width:4; stroke-opacity:1; fill:none" points="1426.33,1423.18 1426.33,1404.28 "/>
<polyline clip-path="url(#clip190)" style="stroke:#000000; stroke-linecap:round; stroke-linejoin:round; stroke-width:4; stroke-opacity:1; fill:none" points="1984.73,1423.18 1984.73,1404.28 "/>
<path clip-path="url(#clip190)" d="M277.19 1481.64 L284.829 1481.64 L284.829 1455.28 L276.519 1456.95 L276.519 1452.69 L284.782 1451.02 L289.458 1451.02 L289.458 1481.64 L297.097 1481.64 L297.097 1485.58 L277.19 1485.58 L277.19 1481.64 Z" fill="#000000" fill-rule="nonzero" fill-opacity="1" /><path clip-path="url(#clip190)" d="M306.542 1479.7 L311.426 1479.7 L311.426 1485.58 L306.542 1485.58 L306.542 1479.7 Z" fill="#000000" fill-rule="nonzero" fill-opacity="1" /><path clip-path="url(#clip190)" d="M321.657 1451.02 L340.014 1451.02 L340.014 1454.96 L325.94 1454.96 L325.94 1463.43 Q326.958 1463.08 327.977 1462.92 Q328.995 1462.73 330.014 1462.73 Q335.801 1462.73 339.18 1465.9 Q342.56 1469.08 342.56 1474.49 Q342.56 1480.07 339.088 1483.17 Q335.616 1486.25 329.296 1486.25 Q327.12 1486.25 324.852 1485.88 Q322.606 1485.51 320.199 1484.77 L320.199 1480.07 Q322.282 1481.2 324.505 1481.76 Q326.727 1482.32 329.204 1482.32 Q333.208 1482.32 335.546 1480.21 Q337.884 1478.1 337.884 1474.49 Q337.884 1470.88 335.546 1468.77 Q333.208 1466.67 329.204 1466.67 Q327.329 1466.67 325.454 1467.08 Q323.602 1467.5 321.657 1468.38 L321.657 1451.02 Z" fill="#000000" fill-rule="nonzero" fill-opacity="1" /><path clip-path="url(#clip190)" d="M835.007 1481.64 L842.646 1481.64 L842.646 1455.28 L834.336 1456.95 L834.336 1452.69 L842.6 1451.02 L847.275 1451.02 L847.275 1481.64 L854.914 1481.64 L854.914 1485.58 L835.007 1485.58 L835.007 1481.64 Z" fill="#000000" fill-rule="nonzero" fill-opacity="1" /><path clip-path="url(#clip190)" d="M864.359 1479.7 L869.243 1479.7 L869.243 1485.58 L864.359 1485.58 L864.359 1479.7 Z" fill="#000000" fill-rule="nonzero" fill-opacity="1" /><path clip-path="url(#clip190)" d="M890.007 1466.44 Q886.859 1466.44 885.007 1468.59 Q883.178 1470.74 883.178 1474.49 Q883.178 1478.22 885.007 1480.39 Q886.859 1482.55 890.007 1482.55 Q893.155 1482.55 894.984 1480.39 Q896.835 1478.22 896.835 1474.49 Q896.835 1470.74 894.984 1468.59 Q893.155 1466.44 890.007 1466.44 M899.289 1451.78 L899.289 1456.04 Q897.53 1455.21 895.724 1454.77 Q893.942 1454.33 892.183 1454.33 Q887.553 1454.33 885.099 1457.45 Q882.669 1460.58 882.322 1466.9 Q883.687 1464.89 885.747 1463.82 Q887.808 1462.73 890.284 1462.73 Q895.493 1462.73 898.502 1465.9 Q901.534 1469.05 901.534 1474.49 Q901.534 1479.82 898.386 1483.03 Q895.238 1486.25 890.007 1486.25 Q884.011 1486.25 880.84 1481.67 Q877.669 1477.06 877.669 1468.33 Q877.669 1460.14 881.558 1455.28 Q885.447 1450.39 891.997 1450.39 Q893.757 1450.39 895.539 1450.74 Q897.345 1451.09 899.289 1451.78 Z" fill="#000000" fill-rule="nonzero" fill-opacity="1" /><path clip-path="url(#clip190)" d="M1393.94 1481.64 L1401.57 1481.64 L1401.57 1455.28 L1393.26 1456.95 L1393.26 1452.69 L1401.53 1451.02 L1406.2 1451.02 L1406.2 1481.64 L1413.84 1481.64 L1413.84 1485.58 L1393.94 1485.58 L1393.94 1481.64 Z" fill="#000000" fill-rule="nonzero" fill-opacity="1" /><path clip-path="url(#clip190)" d="M1423.29 1479.7 L1428.17 1479.7 L1428.17 1485.58 L1423.29 1485.58 L1423.29 1479.7 Z" fill="#000000" fill-rule="nonzero" fill-opacity="1" /><path clip-path="url(#clip190)" d="M1437.18 1451.02 L1459.4 1451.02 L1459.4 1453.01 L1446.85 1485.58 L1441.97 1485.58 L1453.77 1454.96 L1437.18 1454.96 L1437.18 1451.02 Z" fill="#000000" fill-rule="nonzero" fill-opacity="1" /><path clip-path="url(#clip190)" d="M1951.93 1481.64 L1959.56 1481.64 L1959.56 1455.28 L1951.25 1456.95 L1951.25 1452.69 L1959.52 1451.02 L1964.19 1451.02 L1964.19 1481.64 L1971.83 1481.64 L1971.83 1485.58 L1951.93 1485.58 L1951.93 1481.64 Z" fill="#000000" fill-rule="nonzero" fill-opacity="1" /><path clip-path="url(#clip190)" d="M1981.28 1479.7 L1986.16 1479.7 L1986.16 1485.58 L1981.28 1485.58 L1981.28 1479.7 Z" fill="#000000" fill-rule="nonzero" fill-opacity="1" /><path clip-path="url(#clip190)" d="M2006.35 1469.17 Q2003.01 1469.17 2001.09 1470.95 Q1999.19 1472.73 1999.19 1475.86 Q1999.19 1478.98 2001.09 1480.77 Q2003.01 1482.55 2006.35 1482.55 Q2009.68 1482.55 2011.6 1480.77 Q2013.52 1478.96 2013.52 1475.86 Q2013.52 1472.73 2011.6 1470.95 Q2009.7 1469.17 2006.35 1469.17 M2001.67 1467.18 Q1998.66 1466.44 1996.97 1464.38 Q1995.31 1462.32 1995.31 1459.35 Q1995.31 1455.21 1998.24 1452.8 Q2001.21 1450.39 2006.35 1450.39 Q2011.51 1450.39 2014.45 1452.8 Q2017.39 1455.21 2017.39 1459.35 Q2017.39 1462.32 2015.7 1464.38 Q2014.03 1466.44 2011.05 1467.18 Q2014.43 1467.96 2016.3 1470.26 Q2018.2 1472.55 2018.2 1475.86 Q2018.2 1480.88 2015.12 1483.57 Q2012.06 1486.25 2006.35 1486.25 Q2000.63 1486.25 1997.55 1483.57 Q1994.5 1480.88 1994.5 1475.86 Q1994.5 1472.55 1996.39 1470.26 Q1998.29 1467.96 2001.67 1467.18 M1999.96 1459.79 Q1999.96 1462.48 2001.62 1463.98 Q2003.31 1465.49 2006.35 1465.49 Q2009.36 1465.49 2011.05 1463.98 Q2012.76 1462.48 2012.76 1459.79 Q2012.76 1457.11 2011.05 1455.6 Q2009.36 1454.1 2006.35 1454.1 Q2003.31 1454.1 2001.62 1455.6 Q1999.96 1457.11 1999.96 1459.79 Z" fill="#000000" fill-rule="nonzero" fill-opacity="1" /><path clip-path="url(#clip190)" d="M1267.53 1518.52 L1273.41 1518.52 L1273.41 1547.77 L1290.89 1532.4 L1298.37 1532.4 L1279.46 1549.07 L1299.16 1568.04 L1291.53 1568.04 L1273.41 1550.63 L1273.41 1568.04 L1267.53 1568.04 L1267.53 1518.52 Z" fill="#000000" fill-rule="nonzero" fill-opacity="1" /><path clip-path="url(#clip190)" d="M1304.7 1520.52 L1335.26 1520.52 L1335.26 1523.26 L1318.01 1568.04 L1311.29 1568.04 L1327.52 1525.93 L1304.7 1525.93 L1304.7 1520.52 Z" fill="#000000" fill-rule="nonzero" fill-opacity="1" /><polyline clip-path="url(#clip190)" style="stroke:#000000; stroke-linecap:round; stroke-linejoin:round; stroke-width:4; stroke-opacity:1; fill:none" points="250.028,1423.18 250.028,47.2441 "/>
<polyline clip-path="url(#clip190)" style="stroke:#000000; stroke-linecap:round; stroke-linejoin:round; stroke-width:4; stroke-opacity:1; fill:none" points="250.028,1201.18 268.926,1201.18 "/>
<polyline clip-path="url(#clip190)" style="stroke:#000000; stroke-linecap:round; stroke-linejoin:round; stroke-width:4; stroke-opacity:1; fill:none" points="250.028,953.758 268.926,953.758 "/>
<polyline clip-path="url(#clip190)" style="stroke:#000000; stroke-linecap:round; stroke-linejoin:round; stroke-width:4; stroke-opacity:1; fill:none" points="250.028,706.34 268.926,706.34 "/>
<polyline clip-path="url(#clip190)" style="stroke:#000000; stroke-linecap:round; stroke-linejoin:round; stroke-width:4; stroke-opacity:1; fill:none" points="250.028,458.921 268.926,458.921 "/>
<polyline clip-path="url(#clip190)" style="stroke:#000000; stroke-linecap:round; stroke-linejoin:round; stroke-width:4; stroke-opacity:1; fill:none" points="250.028,211.503 268.926,211.503 "/>
<path clip-path="url(#clip190)" d="M126.205 1186.98 Q122.593 1186.98 120.765 1190.54 Q118.959 1194.08 118.959 1201.21 Q118.959 1208.32 120.765 1211.88 Q122.593 1215.42 126.205 1215.42 Q129.839 1215.42 131.644 1211.88 Q133.473 1208.32 133.473 1201.21 Q133.473 1194.08 131.644 1190.54 Q129.839 1186.98 126.205 1186.98 M126.205 1183.27 Q132.015 1183.27 135.07 1187.88 Q138.149 1192.46 138.149 1201.21 Q138.149 1209.94 135.07 1214.54 Q132.015 1219.13 126.205 1219.13 Q120.394 1219.13 117.316 1214.54 Q114.26 1209.94 114.26 1201.21 Q114.26 1192.46 117.316 1187.88 Q120.394 1183.27 126.205 1183.27 Z" fill="#000000" fill-rule="nonzero" fill-opacity="1" /><path clip-path="url(#clip190)" d="M146.366 1212.58 L151.251 1212.58 L151.251 1218.46 L146.366 1218.46 L146.366 1212.58 Z" fill="#000000" fill-rule="nonzero" fill-opacity="1" /><path clip-path="url(#clip190)" d="M171.436 1202.04 Q168.102 1202.04 166.181 1203.83 Q164.283 1205.61 164.283 1208.73 Q164.283 1211.86 166.181 1213.64 Q168.102 1215.42 171.436 1215.42 Q174.769 1215.42 176.69 1213.64 Q178.612 1211.84 178.612 1208.73 Q178.612 1205.61 176.69 1203.83 Q174.792 1202.04 171.436 1202.04 M166.76 1200.05 Q163.751 1199.31 162.061 1197.25 Q160.394 1195.19 160.394 1192.23 Q160.394 1188.09 163.334 1185.68 Q166.297 1183.27 171.436 1183.27 Q176.598 1183.27 179.538 1185.68 Q182.477 1188.09 182.477 1192.23 Q182.477 1195.19 180.788 1197.25 Q179.121 1199.31 176.135 1200.05 Q179.514 1200.84 181.389 1203.13 Q183.288 1205.42 183.288 1208.73 Q183.288 1213.76 180.209 1216.44 Q177.153 1219.13 171.436 1219.13 Q165.718 1219.13 162.64 1216.44 Q159.584 1213.76 159.584 1208.73 Q159.584 1205.42 161.482 1203.13 Q163.38 1200.84 166.76 1200.05 M165.047 1192.67 Q165.047 1195.35 166.714 1196.86 Q168.403 1198.36 171.436 1198.36 Q174.445 1198.36 176.135 1196.86 Q177.848 1195.35 177.848 1192.67 Q177.848 1189.98 176.135 1188.48 Q174.445 1186.98 171.436 1186.98 Q168.403 1186.98 166.714 1188.48 Q165.047 1189.98 165.047 1192.67 Z" fill="#000000" fill-rule="nonzero" fill-opacity="1" /><path clip-path="url(#clip190)" d="M204.445 1187.97 L192.639 1206.42 L204.445 1206.42 L204.445 1187.97 M203.218 1183.9 L209.098 1183.9 L209.098 1206.42 L214.028 1206.42 L214.028 1210.31 L209.098 1210.31 L209.098 1218.46 L204.445 1218.46 L204.445 1210.31 L188.843 1210.31 L188.843 1205.79 L203.218 1183.9 Z" fill="#000000" fill-rule="nonzero" fill-opacity="1" /><path clip-path="url(#clip190)" d="M126.529 939.557 Q122.918 939.557 121.089 943.122 Q119.283 946.663 119.283 953.793 Q119.283 960.899 121.089 964.464 Q122.918 968.006 126.529 968.006 Q130.163 968.006 131.968 964.464 Q133.797 960.899 133.797 953.793 Q133.797 946.663 131.968 943.122 Q130.163 939.557 126.529 939.557 M126.529 935.853 Q132.339 935.853 135.394 940.46 Q138.473 945.043 138.473 953.793 Q138.473 962.52 135.394 967.126 Q132.339 971.709 126.529 971.709 Q120.718 971.709 117.64 967.126 Q114.584 962.52 114.584 953.793 Q114.584 945.043 117.64 940.46 Q120.718 935.853 126.529 935.853 Z" fill="#000000" fill-rule="nonzero" fill-opacity="1" /><path clip-path="url(#clip190)" d="M146.691 965.158 L151.575 965.158 L151.575 971.038 L146.691 971.038 L146.691 965.158 Z" fill="#000000" fill-rule="nonzero" fill-opacity="1" /><path clip-path="url(#clip190)" d="M171.76 954.626 Q168.427 954.626 166.505 956.408 Q164.607 958.191 164.607 961.316 Q164.607 964.441 166.505 966.223 Q168.427 968.006 171.76 968.006 Q175.093 968.006 177.014 966.223 Q178.936 964.418 178.936 961.316 Q178.936 958.191 177.014 956.408 Q175.116 954.626 171.76 954.626 M167.084 952.635 Q164.075 951.895 162.385 949.834 Q160.718 947.774 160.718 944.811 Q160.718 940.668 163.658 938.26 Q166.621 935.853 171.76 935.853 Q176.922 935.853 179.862 938.26 Q182.801 940.668 182.801 944.811 Q182.801 947.774 181.112 949.834 Q179.445 951.895 176.459 952.635 Q179.839 953.422 181.713 955.714 Q183.612 958.006 183.612 961.316 Q183.612 966.339 180.533 969.024 Q177.477 971.709 171.76 971.709 Q166.042 971.709 162.964 969.024 Q159.908 966.339 159.908 961.316 Q159.908 958.006 161.806 955.714 Q163.704 953.422 167.084 952.635 M165.371 945.251 Q165.371 947.936 167.038 949.441 Q168.727 950.946 171.76 950.946 Q174.769 950.946 176.459 949.441 Q178.172 947.936 178.172 945.251 Q178.172 942.566 176.459 941.061 Q174.769 939.557 171.76 939.557 Q168.727 939.557 167.038 941.061 Q165.371 942.566 165.371 945.251 Z" fill="#000000" fill-rule="nonzero" fill-opacity="1" /><path clip-path="url(#clip190)" d="M202.5 951.895 Q199.352 951.895 197.5 954.047 Q195.672 956.2 195.672 959.95 Q195.672 963.677 197.5 965.853 Q199.352 968.006 202.5 968.006 Q205.649 968.006 207.477 965.853 Q209.329 963.677 209.329 959.95 Q209.329 956.2 207.477 954.047 Q205.649 951.895 202.5 951.895 M211.783 937.242 L211.783 941.501 Q210.024 940.668 208.218 940.228 Q206.436 939.788 204.676 939.788 Q200.047 939.788 197.593 942.913 Q195.163 946.038 194.815 952.358 Q196.181 950.344 198.241 949.279 Q200.301 948.191 202.778 948.191 Q207.987 948.191 210.996 951.362 Q214.028 954.51 214.028 959.95 Q214.028 965.274 210.88 968.492 Q207.732 971.709 202.5 971.709 Q196.505 971.709 193.334 967.126 Q190.163 962.52 190.163 953.793 Q190.163 945.598 194.051 940.737 Q197.94 935.853 204.491 935.853 Q206.25 935.853 208.033 936.2 Q209.838 936.547 211.783 937.242 Z" fill="#000000" fill-rule="nonzero" fill-opacity="1" /><path clip-path="url(#clip190)" d="M126.783 692.138 Q123.172 692.138 121.343 695.703 Q119.538 699.245 119.538 706.374 Q119.538 713.481 121.343 717.046 Q123.172 720.587 126.783 720.587 Q130.417 720.587 132.223 717.046 Q134.052 713.481 134.052 706.374 Q134.052 699.245 132.223 695.703 Q130.417 692.138 126.783 692.138 M126.783 688.435 Q132.593 688.435 135.649 693.041 Q138.728 697.624 138.728 706.374 Q138.728 715.101 135.649 719.708 Q132.593 724.291 126.783 724.291 Q120.973 724.291 117.894 719.708 Q114.839 715.101 114.839 706.374 Q114.839 697.624 117.894 693.041 Q120.973 688.435 126.783 688.435 Z" fill="#000000" fill-rule="nonzero" fill-opacity="1" /><path clip-path="url(#clip190)" d="M146.945 717.74 L151.829 717.74 L151.829 723.62 L146.945 723.62 L146.945 717.74 Z" fill="#000000" fill-rule="nonzero" fill-opacity="1" /><path clip-path="url(#clip190)" d="M172.014 707.208 Q168.681 707.208 166.76 708.99 Q164.862 710.773 164.862 713.898 Q164.862 717.023 166.76 718.805 Q168.681 720.587 172.014 720.587 Q175.348 720.587 177.269 718.805 Q179.19 716.999 179.19 713.898 Q179.19 710.773 177.269 708.99 Q175.371 707.208 172.014 707.208 M167.339 705.217 Q164.329 704.476 162.64 702.416 Q160.973 700.356 160.973 697.393 Q160.973 693.249 163.913 690.842 Q166.876 688.435 172.014 688.435 Q177.176 688.435 180.116 690.842 Q183.056 693.249 183.056 697.393 Q183.056 700.356 181.366 702.416 Q179.7 704.476 176.714 705.217 Q180.093 706.004 181.968 708.296 Q183.866 710.587 183.866 713.898 Q183.866 718.921 180.788 721.606 Q177.732 724.291 172.014 724.291 Q166.297 724.291 163.218 721.606 Q160.163 718.921 160.163 713.898 Q160.163 710.587 162.061 708.296 Q163.959 706.004 167.339 705.217 M165.626 697.833 Q165.626 700.518 167.292 702.023 Q168.982 703.527 172.014 703.527 Q175.024 703.527 176.714 702.023 Q178.426 700.518 178.426 697.833 Q178.426 695.148 176.714 693.643 Q175.024 692.138 172.014 692.138 Q168.982 692.138 167.292 693.643 Q165.626 695.148 165.626 697.833 Z" fill="#000000" fill-rule="nonzero" fill-opacity="1" /><path clip-path="url(#clip190)" d="M202.176 707.208 Q198.843 707.208 196.922 708.99 Q195.024 710.773 195.024 713.898 Q195.024 717.023 196.922 718.805 Q198.843 720.587 202.176 720.587 Q205.51 720.587 207.431 718.805 Q209.352 716.999 209.352 713.898 Q209.352 710.773 207.431 708.99 Q205.533 707.208 202.176 707.208 M197.5 705.217 Q194.491 704.476 192.801 702.416 Q191.135 700.356 191.135 697.393 Q191.135 693.249 194.075 690.842 Q197.037 688.435 202.176 688.435 Q207.338 688.435 210.278 690.842 Q213.218 693.249 213.218 697.393 Q213.218 700.356 211.528 702.416 Q209.861 704.476 206.875 705.217 Q210.255 706.004 212.13 708.296 Q214.028 710.587 214.028 713.898 Q214.028 718.921 210.949 721.606 Q207.894 724.291 202.176 724.291 Q196.459 724.291 193.38 721.606 Q190.325 718.921 190.325 713.898 Q190.325 710.587 192.223 708.296 Q194.121 706.004 197.5 705.217 M195.787 697.833 Q195.787 700.518 197.454 702.023 Q199.144 703.527 202.176 703.527 Q205.186 703.527 206.875 702.023 Q208.588 700.518 208.588 697.833 Q208.588 695.148 206.875 693.643 Q205.186 692.138 202.176 692.138 Q199.144 692.138 197.454 693.643 Q195.787 695.148 195.787 697.833 Z" fill="#000000" fill-rule="nonzero" fill-opacity="1" /><path clip-path="url(#clip190)" d="M126.691 444.72 Q123.08 444.72 121.251 448.285 Q119.445 451.826 119.445 458.956 Q119.445 466.063 121.251 469.627 Q123.08 473.169 126.691 473.169 Q130.325 473.169 132.13 469.627 Q133.959 466.063 133.959 458.956 Q133.959 451.826 132.13 448.285 Q130.325 444.72 126.691 444.72 M126.691 441.016 Q132.501 441.016 135.556 445.623 Q138.635 450.206 138.635 458.956 Q138.635 467.683 135.556 472.289 Q132.501 476.873 126.691 476.873 Q120.88 476.873 117.802 472.289 Q114.746 467.683 114.746 458.956 Q114.746 450.206 117.802 445.623 Q120.88 441.016 126.691 441.016 Z" fill="#000000" fill-rule="nonzero" fill-opacity="1" /><path clip-path="url(#clip190)" d="M146.853 470.322 L151.737 470.322 L151.737 476.201 L146.853 476.201 L146.853 470.322 Z" fill="#000000" fill-rule="nonzero" fill-opacity="1" /><path clip-path="url(#clip190)" d="M162.061 475.484 L162.061 471.225 Q163.82 472.058 165.626 472.498 Q167.431 472.937 169.167 472.937 Q173.797 472.937 176.227 469.836 Q178.681 466.711 179.028 460.368 Q177.686 462.359 175.626 463.424 Q173.565 464.488 171.065 464.488 Q165.88 464.488 162.848 461.363 Q159.839 458.215 159.839 452.776 Q159.839 447.452 162.987 444.234 Q166.135 441.016 171.366 441.016 Q177.362 441.016 180.51 445.623 Q183.681 450.206 183.681 458.956 Q183.681 467.127 179.792 472.012 Q175.926 476.873 169.376 476.873 Q167.616 476.873 165.811 476.525 Q164.005 476.178 162.061 475.484 M171.366 460.831 Q174.514 460.831 176.343 458.678 Q178.195 456.526 178.195 452.776 Q178.195 449.049 176.343 446.896 Q174.514 444.72 171.366 444.72 Q168.218 444.72 166.366 446.896 Q164.538 449.049 164.538 452.776 Q164.538 456.526 166.366 458.678 Q168.218 460.831 171.366 460.831 Z" fill="#000000" fill-rule="nonzero" fill-opacity="1" /><path clip-path="url(#clip190)" d="M202.084 444.72 Q198.473 444.72 196.644 448.285 Q194.838 451.826 194.838 458.956 Q194.838 466.063 196.644 469.627 Q198.473 473.169 202.084 473.169 Q205.718 473.169 207.524 469.627 Q209.352 466.063 209.352 458.956 Q209.352 451.826 207.524 448.285 Q205.718 444.72 202.084 444.72 M202.084 441.016 Q207.894 441.016 210.949 445.623 Q214.028 450.206 214.028 458.956 Q214.028 467.683 210.949 472.289 Q207.894 476.873 202.084 476.873 Q196.274 476.873 193.195 472.289 Q190.139 467.683 190.139 458.956 Q190.139 450.206 193.195 445.623 Q196.274 441.016 202.084 441.016 Z" fill="#000000" fill-rule="nonzero" fill-opacity="1" /><path clip-path="url(#clip190)" d="M128.288 197.302 Q124.677 197.302 122.848 200.867 Q121.043 204.408 121.043 211.538 Q121.043 218.644 122.848 222.209 Q124.677 225.751 128.288 225.751 Q131.922 225.751 133.728 222.209 Q135.556 218.644 135.556 211.538 Q135.556 204.408 133.728 200.867 Q131.922 197.302 128.288 197.302 M128.288 193.598 Q134.098 193.598 137.154 198.204 Q140.232 202.788 140.232 211.538 Q140.232 220.265 137.154 224.871 Q134.098 229.454 128.288 229.454 Q122.478 229.454 119.399 224.871 Q116.343 220.265 116.343 211.538 Q116.343 202.788 119.399 198.204 Q122.478 193.598 128.288 193.598 Z" fill="#000000" fill-rule="nonzero" fill-opacity="1" /><path clip-path="url(#clip190)" d="M148.45 222.903 L153.334 222.903 L153.334 228.783 L148.45 228.783 L148.45 222.903 Z" fill="#000000" fill-rule="nonzero" fill-opacity="1" /><path clip-path="url(#clip190)" d="M163.658 228.065 L163.658 223.806 Q165.417 224.64 167.223 225.079 Q169.028 225.519 170.764 225.519 Q175.394 225.519 177.825 222.417 Q180.278 219.292 180.626 212.95 Q179.283 214.941 177.223 216.005 Q175.163 217.07 172.663 217.07 Q167.477 217.07 164.445 213.945 Q161.436 210.797 161.436 205.357 Q161.436 200.033 164.584 196.816 Q167.732 193.598 172.964 193.598 Q178.959 193.598 182.107 198.204 Q185.278 202.788 185.278 211.538 Q185.278 219.709 181.389 224.593 Q177.524 229.454 170.973 229.454 Q169.214 229.454 167.408 229.107 Q165.602 228.76 163.658 228.065 M172.964 213.413 Q176.112 213.413 177.94 211.26 Q179.792 209.107 179.792 205.357 Q179.792 201.63 177.94 199.478 Q176.112 197.302 172.964 197.302 Q169.815 197.302 167.964 199.478 Q166.135 201.63 166.135 205.357 Q166.135 209.107 167.964 211.26 Q169.815 213.413 172.964 213.413 Z" fill="#000000" fill-rule="nonzero" fill-opacity="1" /><path clip-path="url(#clip190)" d="M197.709 224.848 L214.028 224.848 L214.028 228.783 L192.084 228.783 L192.084 224.848 Q194.746 222.093 199.329 217.464 Q203.936 212.811 205.116 211.468 Q207.362 208.945 208.241 207.209 Q209.144 205.45 209.144 203.76 Q209.144 201.005 207.199 199.269 Q205.278 197.533 202.176 197.533 Q199.977 197.533 197.524 198.297 Q195.093 199.061 192.315 200.612 L192.315 195.89 Q195.139 194.755 197.593 194.177 Q200.047 193.598 202.084 193.598 Q207.454 193.598 210.649 196.283 Q213.843 198.968 213.843 203.459 Q213.843 205.589 213.033 207.51 Q212.246 209.408 210.139 212.001 Q209.561 212.672 206.459 215.89 Q203.357 219.084 197.709 224.848 Z" fill="#000000" fill-rule="nonzero" fill-opacity="1" /><path clip-path="url(#clip190)" d="M14.479 769.635 L14.479 763.746 L43.7294 763.746 L28.3562 746.272 L28.3562 738.793 L45.0344 757.699 L64.0042 737.997 L64.0042 745.636 L46.5939 763.746 L64.0042 763.746 L64.0042 769.635 L14.479 769.635 Z" fill="#000000" fill-rule="nonzero" fill-opacity="1" /><path clip-path="url(#clip190)" d="M41.4377 717.086 Q41.4377 721.669 43.8885 724.311 Q46.3393 726.921 50.6362 726.921 Q54.933 726.921 57.3838 724.311 Q59.8346 721.669 59.8346 717.086 Q59.8346 712.502 57.3838 709.861 Q54.9012 707.219 50.6362 707.219 Q46.3393 707.219 43.8885 709.861 Q41.4377 712.47 41.4377 717.086 M38.7005 723.515 Q37.682 727.653 34.8492 729.976 Q32.0165 732.268 27.9424 732.268 Q22.2451 732.268 18.935 728.226 Q15.6248 724.152 15.6248 717.086 Q15.6248 709.988 18.935 705.946 Q22.2451 701.903 27.9424 701.903 Q32.0165 701.903 34.8492 704.227 Q37.682 706.519 38.7005 710.624 Q39.7826 705.977 42.9337 703.399 Q46.0847 700.789 50.6362 700.789 Q57.543 700.789 61.2351 705.023 Q64.9272 709.224 64.9272 717.086 Q64.9272 724.947 61.2351 729.18 Q57.543 733.382 50.6362 733.382 Q46.0847 733.382 42.9337 730.772 Q39.7826 728.162 38.7005 723.515 M28.5472 725.87 Q32.2393 725.87 34.3081 723.579 Q36.377 721.255 36.377 717.086 Q36.377 712.948 34.3081 710.624 Q32.2393 708.269 28.5472 708.269 Q24.8551 708.269 22.7862 710.624 Q20.7174 712.948 20.7174 717.086 Q20.7174 721.255 22.7862 723.579 Q24.8551 725.87 28.5472 725.87 Z" fill="#000000" fill-rule="nonzero" fill-opacity="1" /><polyline clip-path="url(#clip191)" style="stroke:#009af9; stroke-linecap:round; stroke-linejoin:round; stroke-width:4; stroke-opacity:1; fill:none" points="309.539,1384.24 312.217,1381.74 316.13,1378.1 321.851,1372.77 330.002,1365.19 341.621,1354.42 358.194,1339.08 381.857,1317.28 415.685,1286.3 464.133,1242.32 519.197,1192.91 574.699,1143.75 630.629,1094.88 686.976,1046.37 743.729,998.25 800.876,950.587 858.403,903.434 916.294,856.848 974.535,810.889 1033.11,765.618 1092,721.098 1151.18,677.39 1210.64,634.56 1270.36,592.673 1330.31,551.794 1390.47,511.987 1450.81,473.32 1511.32,435.855 1571.97,399.656 1632.73,364.786 1693.58,331.305 1754.48,299.271 1815.42,268.741 1876.36,239.765 1937.28,212.395 1998.16,186.676 2058.96,162.649 2119.65,140.353 2180.21,119.821 2240.59,101.086 2293.24,86.1857 "/>
<circle clip-path="url(#clip191)" cx="2293.24" cy="86.1857" r="10.8" fill="#cd0000" fill-rule="evenodd" fill-opacity="1" stroke="none"/>
<circle clip-path="url(#clip191)" cx="2293.24" cy="86.1857" r="10.8" fill="#cd0000" fill-rule="evenodd" fill-opacity="1" stroke="none"/>
<path clip-path="url(#clip190)" d="M320.119 196.789 L579.859 196.789 L579.859 93.1086 L320.119 93.1086  Z" fill="#ffffff" fill-rule="evenodd" fill-opacity="1"/>
<polyline clip-path="url(#clip190)" style="stroke:#000000; stroke-linecap:round; stroke-linejoin:round; stroke-width:4; stroke-opacity:1; fill:none" points="320.119,196.789 579.859,196.789 579.859,93.1086 320.119,93.1086 320.119,196.789 "/>
<circle clip-path="url(#clip190)" cx="413.574" cy="144.949" r="23.04" fill="#cd0000" fill-rule="evenodd" fill-opacity="1" stroke="none"/>
<path clip-path="url(#clip190)" d="M527.537 137.298 L527.537 141.28 Q525.732 140.284 523.903 139.798 Q522.098 139.289 520.246 139.289 Q516.102 139.289 513.811 141.928 Q511.519 144.544 511.519 149.289 Q511.519 154.034 513.811 156.673 Q516.102 159.289 520.246 159.289 Q522.098 159.289 523.903 158.803 Q525.732 158.293 527.537 157.298 L527.537 161.233 Q525.755 162.067 523.834 162.483 Q521.936 162.9 519.783 162.9 Q513.926 162.9 510.477 159.219 Q507.028 155.539 507.028 149.289 Q507.028 142.946 510.5 139.312 Q513.996 135.678 520.061 135.678 Q522.028 135.678 523.903 136.095 Q525.778 136.488 527.537 137.298 Z" fill="#000000" fill-rule="nonzero" fill-opacity="1" /><path clip-path="url(#clip190)" d="M556.496 146.581 L556.496 162.229 L552.236 162.229 L552.236 146.719 Q552.236 143.039 550.801 141.21 Q549.366 139.382 546.496 139.382 Q543.047 139.382 541.056 141.581 Q539.065 143.78 539.065 147.576 L539.065 162.229 L534.783 162.229 L534.783 126.21 L539.065 126.21 L539.065 140.331 Q540.593 137.993 542.653 136.835 Q544.736 135.678 547.445 135.678 Q551.912 135.678 554.204 138.456 Q556.496 141.21 556.496 146.581 Z" fill="#000000" fill-rule="nonzero" fill-opacity="1" /></svg>
