<?xml version="1.0" encoding="utf-8"?>
<svg xmlns="http://www.w3.org/2000/svg" xmlns:xlink="http://www.w3.org/1999/xlink" width="600" height="400" viewBox="0 0 2400 1600">
<defs>
  <clipPath id="clip070">
    <rect x="0" y="0" width="2400" height="1600"/>
  </clipPath>
</defs>
<path clip-path="url(#clip070)" d="M0 1600 L2400 1600 L2400 0 L0 0  Z" fill="#ffffff" fill-rule="evenodd" fill-opacity="1"/>
<defs>
  <clipPath id="clip071">
    <rect x="249" y="47" width="2104" height="1377"/>
  </clipPath>
</defs>
<path clip-path="url(#clip070)" d="M249.704 1423.18 L2352.76 1423.18 L2352.76 47.2441 L249.704 47.2441  Z" fill="#ffffff" fill-rule="evenodd" fill-opacity="1"/>
<polyline clip-path="url(#clip071)" style="stroke:#000000; stroke-linecap:round; stroke-linejoin:round; stroke-width:2; stroke-opacity:0.1; fill:none" points="309.224,1423.18 309.224,47.2441 "/>
<polyline clip-path="url(#clip071)" style="stroke:#000000; stroke-linecap:round; stroke-linejoin:round; stroke-width:2; stroke-opacity:0.1; fill:none" points="837.964,1423.18 837.964,47.2441 "/>
<polyline clip-path="url(#clip071)" style="stroke:#000000; stroke-linecap:round; stroke-linejoin:round; stroke-width:2; stroke-opacity:0.1; fill:none" points="1366.7,1423.18 1366.7,47.2441 "/>
<polyline clip-path="url(#clip071)" style="stroke:#000000; stroke-linecap:round; stroke-linejoin:round; stroke-width:2; stroke-opacity:0.1; fill:none" points="1895.44,1423.18 1895.44,47.2441 "/>
<polyline clip-path="url(#clip071)" style="stroke:#000000; stroke-linecap:round; stroke-linejoin:round; stroke-width:2; stroke-opacity:0.1; fill:none" points="249.704,1148.14 2352.76,1148.14 "/>
<polyline clip-path="url(#clip071)" style="stroke:#000000; stroke-linecap:round; stroke-linejoin:round; stroke-width:2; stroke-opacity:0.1; fill:none" points="249.704,854.601 2352.76,854.601 "/>
<polyline clip-path="url(#clip071)" style="stroke:#000000; stroke-linecap:round; stroke-linejoin:round; stroke-width:2; stroke-opacity:0.1; fill:none" points="249.704,561.063 2352.76,561.063 "/>
<polyline clip-path="url(#clip071)" style="stroke:#000000; stroke-linecap:round; stroke-linejoin:round; stroke-width:2; stroke-opacity:0.1; fill:none" points="249.704,267.524 2352.76,267.524 "/>
<polyline clip-path="url(#clip070)" style="stroke:#000000; stroke-linecap:round; stroke-linejoin:round; stroke-width:4; stroke-opacity:1; fill:none" points="249.704,1423.18 2352.76,1423.18 "/>
<polyline clip-path="url(#clip070)" style="stroke:#000000; stroke-linecap:round; stroke-linejoin:round; stroke-width:4; stroke-opacity:1; fill:none" points="309.224,1423.18 309.224,1404.28 "/>
<polyline clip-path="url(#clip070)" style="stroke:#000000; stroke-linecap:round; stroke-linejoin:round; stroke-width:4; stroke-opacity:1; fill:none" points="837.964,1423.18 837.964,1404.28 "/>
<polyline clip-path="url(#clip070)" style="stroke:#000000; stroke-linecap:round; stroke-linejoin:round; stroke-width:4; stroke-opacity:1; fill:none" points="1366.7,1423.18 1366.7,1404.28 "/>
<polyline clip-path="url(#clip070)" style="stroke:#000000; stroke-linecap:round; stroke-linejoin:round; stroke-width:4; stroke-opacity:1; fill:none" points="1895.44,1423.18 1895.44,1404.28 "/>
<path clip-path="url(#clip070)" d="M276.875 1481.64 L284.514 1481.64 L284.514 1455.28 L276.204 1456.95 L276.204 1452.69 L284.468 1451.02 L289.143 1451.02 L289.143 1481.64 L296.782 1481.64 L296.782 1485.58 L276.875 1485.58 L276.875 1481.64 Z" fill="#000000" fill-rule="nonzero" fill-opacity="1" /><path clip-path="url(#clip070)" d="M306.227 1479.7 L311.111 1479.7 L311.111 1485.58 L306.227 1485.58 L306.227 1479.7 Z" fill="#000000" fill-rule="nonzero" fill-opacity="1" /><path clip-path="url(#clip070)" d="M321.342 1451.02 L339.699 1451.02 L339.699 1454.96 L325.625 1454.96 L325.625 1463.43 Q326.643 1463.08 327.662 1462.92 Q328.68 1462.73 329.699 1462.73 Q335.486 1462.73 338.865 1465.9 Q342.245 1469.08 342.245 1474.49 Q342.245 1480.07 338.773 1483.17 Q335.301 1486.25 328.981 1486.25 Q326.805 1486.25 324.537 1485.88 Q322.291 1485.51 319.884 1484.77 L319.884 1480.07 Q321.967 1481.2 324.19 1481.76 Q326.412 1482.32 328.889 1482.32 Q332.893 1482.32 335.231 1480.21 Q337.569 1478.1 337.569 1474.49 Q337.569 1470.88 335.231 1468.77 Q332.893 1466.67 328.889 1466.67 Q327.014 1466.67 325.139 1467.08 Q323.287 1467.5 321.342 1468.38 L321.342 1451.02 Z" fill="#000000" fill-rule="nonzero" fill-opacity="1" /><path clip-path="url(#clip070)" d="M805.036 1481.64 L812.675 1481.64 L812.675 1455.28 L804.364 1456.95 L804.364 1452.69 L812.628 1451.02 L817.304 1451.02 L817.304 1481.64 L824.943 1481.64 L824.943 1485.58 L805.036 1485.58 L805.036 1481.64 Z" fill="#000000" fill-rule="nonzero" fill-opacity="1" /><path clip-path="url(#clip070)" d="M834.387 1479.7 L839.272 1479.7 L839.272 1485.58 L834.387 1485.58 L834.387 1479.7 Z" fill="#000000" fill-rule="nonzero" fill-opacity="1" /><path clip-path="url(#clip070)" d="M860.035 1466.44 Q856.887 1466.44 855.035 1468.59 Q853.207 1470.74 853.207 1474.49 Q853.207 1478.22 855.035 1480.39 Q856.887 1482.55 860.035 1482.55 Q863.184 1482.55 865.012 1480.39 Q866.864 1478.22 866.864 1474.49 Q866.864 1470.74 865.012 1468.59 Q863.184 1466.44 860.035 1466.44 M869.318 1451.78 L869.318 1456.04 Q867.558 1455.21 865.753 1454.77 Q863.971 1454.33 862.211 1454.33 Q857.582 1454.33 855.128 1457.45 Q852.697 1460.58 852.35 1466.9 Q853.716 1464.89 855.776 1463.82 Q857.836 1462.73 860.313 1462.73 Q865.521 1462.73 868.531 1465.9 Q871.563 1469.05 871.563 1474.49 Q871.563 1479.82 868.415 1483.03 Q865.267 1486.25 860.035 1486.25 Q854.04 1486.25 850.869 1481.67 Q847.697 1477.06 847.697 1468.33 Q847.697 1460.14 851.586 1455.28 Q855.475 1450.39 862.026 1450.39 Q863.785 1450.39 865.568 1450.74 Q867.373 1451.09 869.318 1451.78 Z" fill="#000000" fill-rule="nonzero" fill-opacity="1" /><path clip-path="url(#clip070)" d="M1334.31 1481.64 L1341.95 1481.64 L1341.95 1455.28 L1333.64 1456.95 L1333.64 1452.69 L1341.9 1451.02 L1346.58 1451.02 L1346.58 1481.64 L1354.21 1481.64 L1354.21 1485.58 L1334.31 1485.58 L1334.31 1481.64 Z" fill="#000000" fill-rule="nonzero" fill-opacity="1" /><path clip-path="url(#clip070)" d="M1363.66 1479.7 L1368.54 1479.7 L1368.54 1485.58 L1363.66 1485.58 L1363.66 1479.7 Z" fill="#000000" fill-rule="nonzero" fill-opacity="1" /><path clip-path="url(#clip070)" d="M1377.55 1451.02 L1399.77 1451.02 L1399.77 1453.01 L1387.22 1485.58 L1382.34 1485.58 L1394.15 1454.96 L1377.55 1454.96 L1377.55 1451.02 Z" fill="#000000" fill-rule="nonzero" fill-opacity="1" /><path clip-path="url(#clip070)" d="M1862.64 1481.64 L1870.28 1481.64 L1870.28 1455.28 L1861.97 1456.95 L1861.97 1452.69 L1870.23 1451.02 L1874.91 1451.02 L1874.91 1481.64 L1882.55 1481.64 L1882.55 1485.58 L1862.64 1485.58 L1862.64 1481.64 Z" fill="#000000" fill-rule="nonzero" fill-opacity="1" /><path clip-path="url(#clip070)" d="M1891.99 1479.7 L1896.88 1479.7 L1896.88 1485.58 L1891.99 1485.58 L1891.99 1479.7 Z" fill="#000000" fill-rule="nonzero" fill-opacity="1" /><path clip-path="url(#clip070)" d="M1917.06 1469.17 Q1913.73 1469.17 1911.81 1470.95 Q1909.91 1472.73 1909.91 1475.86 Q1909.91 1478.98 1911.81 1480.77 Q1913.73 1482.55 1917.06 1482.55 Q1920.4 1482.55 1922.32 1480.77 Q1924.24 1478.96 1924.24 1475.86 Q1924.24 1472.73 1922.32 1470.95 Q1920.42 1469.17 1917.06 1469.17 M1912.39 1467.18 Q1909.38 1466.44 1907.69 1464.38 Q1906.02 1462.32 1906.02 1459.35 Q1906.02 1455.21 1908.96 1452.8 Q1911.92 1450.39 1917.06 1450.39 Q1922.22 1450.39 1925.16 1452.8 Q1928.1 1455.21 1928.1 1459.35 Q1928.1 1462.32 1926.41 1464.38 Q1924.75 1466.44 1921.76 1467.18 Q1925.14 1467.96 1927.02 1470.26 Q1928.91 1472.55 1928.91 1475.86 Q1928.91 1480.88 1925.84 1483.57 Q1922.78 1486.25 1917.06 1486.25 Q1911.35 1486.25 1908.27 1483.57 Q1905.21 1480.88 1905.21 1475.86 Q1905.21 1472.55 1907.11 1470.26 Q1909.01 1467.96 1912.39 1467.18 M1910.67 1459.79 Q1910.67 1462.48 1912.34 1463.98 Q1914.03 1465.49 1917.06 1465.49 Q1920.07 1465.49 1921.76 1463.98 Q1923.47 1462.48 1923.47 1459.79 Q1923.47 1457.11 1921.76 1455.6 Q1920.07 1454.1 1917.06 1454.1 Q1914.03 1454.1 1912.34 1455.6 Q1910.67 1457.11 1910.67 1459.79 Z" fill="#000000" fill-rule="nonzero" fill-opacity="1" /><path clip-path="url(#clip070)" d="M1267.36 1518.52 L1273.25 1518.52 L1273.25 1547.77 L1290.73 1532.4 L1298.21 1532.4 L1279.3 1549.07 L1299 1568.04 L1291.36 1568.04 L1273.25 1550.63 L1273.25 1568.04 L1267.36 1568.04 L1267.36 1518.52 Z" fill="#000000" fill-rule="nonzero" fill-opacity="1" /><path clip-path="url(#clip070)" d="M1304.54 1520.52 L1335.1 1520.52 L1335.1 1523.26 L1317.84 1568.04 L1311.13 1568.04 L1327.36 1525.93 L1304.54 1525.93 L1304.54 1520.52 Z" fill="#000000" fill-rule="nonzero" fill-opacity="1" /><polyline clip-path="url(#clip070)" style="stroke:#000000; stroke-linecap:round; stroke-linejoin:round; stroke-width:4; stroke-opacity:1; fill:none" points="249.704,1423.18 249.704,47.2441 "/>
<polyline clip-path="url(#clip070)" style="stroke:#000000; stroke-linecap:round; stroke-linejoin:round; stroke-width:4; stroke-opacity:1; fill:none" points="249.704,1148.14 268.602,1148.14 "/>
<polyline clip-path="url(#clip070)" style="stroke:#000000; stroke-linecap:round; stroke-linejoin:round; stroke-width:4; stroke-opacity:1; fill:none" points="249.704,854.601 268.602,854.601 "/>
<polyline clip-path="url(#clip070)" style="stroke:#000000; stroke-linecap:round; stroke-linejoin:round; stroke-width:4; stroke-opacity:1; fill:none" points="249.704,561.063 268.602,561.063 "/>
<polyline clip-path="url(#clip070)" style="stroke:#000000; stroke-linecap:round; stroke-linejoin:round; stroke-width:4; stroke-opacity:1; fill:none" points="249.704,267.524 268.602,267.524 "/>
<path clip-path="url(#clip070)" d="M126.205 1133.94 Q122.593 1133.94 120.765 1137.5 Q118.959 1141.04 118.959 1148.17 Q118.959 1155.28 120.765 1158.85 Q122.593 1162.39 126.205 1162.39 Q129.839 1162.39 131.644 1158.85 Q133.473 1155.28 133.473 1148.17 Q133.473 1141.04 131.644 1137.5 Q129.839 1133.94 126.205 1133.94 M126.205 1130.23 Q132.015 1130.23 135.07 1134.84 Q138.149 1139.42 138.149 1148.17 Q138.149 1156.9 135.07 1161.51 Q132.015 1166.09 126.205 1166.09 Q120.394 1166.09 117.316 1161.51 Q114.26 1156.9 114.26 1148.17 Q114.26 1139.42 117.316 1134.84 Q120.394 1130.23 126.205 1130.23 Z" fill="#000000" fill-rule="nonzero" fill-opacity="1" /><path clip-path="url(#clip070)" d="M146.366 1159.54 L151.251 1159.54 L151.251 1165.42 L146.366 1165.42 L146.366 1159.54 Z" fill="#000000" fill-rule="nonzero" fill-opacity="1" /><path clip-path="url(#clip070)" d="M171.436 1149.01 Q168.102 1149.01 166.181 1150.79 Q164.283 1152.57 164.283 1155.7 Q164.283 1158.82 166.181 1160.6 Q168.102 1162.39 171.436 1162.39 Q174.769 1162.39 176.69 1160.6 Q178.612 1158.8 178.612 1155.7 Q178.612 1152.57 176.69 1150.79 Q174.792 1149.01 171.436 1149.01 M166.76 1147.02 Q163.751 1146.28 162.061 1144.22 Q160.394 1142.16 160.394 1139.19 Q160.394 1135.05 163.334 1132.64 Q166.297 1130.23 171.436 1130.23 Q176.598 1130.23 179.538 1132.64 Q182.477 1135.05 182.477 1139.19 Q182.477 1142.16 180.788 1144.22 Q179.121 1146.28 176.135 1147.02 Q179.514 1147.8 181.389 1150.1 Q183.288 1152.39 183.288 1155.7 Q183.288 1160.72 180.209 1163.41 Q177.153 1166.09 171.436 1166.09 Q165.718 1166.09 162.64 1163.41 Q159.584 1160.72 159.584 1155.7 Q159.584 1152.39 161.482 1150.1 Q163.38 1147.8 166.76 1147.02 M165.047 1139.63 Q165.047 1142.32 166.714 1143.82 Q168.403 1145.33 171.436 1145.33 Q174.445 1145.33 176.135 1143.82 Q177.848 1142.32 177.848 1139.63 Q177.848 1136.95 176.135 1135.44 Q174.445 1133.94 171.436 1133.94 Q168.403 1133.94 166.714 1135.44 Q165.047 1136.95 165.047 1139.63 Z" fill="#000000" fill-rule="nonzero" fill-opacity="1" /><path clip-path="url(#clip070)" d="M202.176 1146.28 Q199.028 1146.28 197.176 1148.43 Q195.348 1150.58 195.348 1154.33 Q195.348 1158.06 197.176 1160.23 Q199.028 1162.39 202.176 1162.39 Q205.324 1162.39 207.153 1160.23 Q209.005 1158.06 209.005 1154.33 Q209.005 1150.58 207.153 1148.43 Q205.324 1146.28 202.176 1146.28 M211.459 1131.62 L211.459 1135.88 Q209.699 1135.05 207.894 1134.61 Q206.112 1134.17 204.352 1134.17 Q199.723 1134.17 197.269 1137.29 Q194.838 1140.42 194.491 1146.74 Q195.857 1144.73 197.917 1143.66 Q199.977 1142.57 202.454 1142.57 Q207.662 1142.57 210.672 1145.74 Q213.704 1148.89 213.704 1154.33 Q213.704 1159.66 210.556 1162.87 Q207.408 1166.09 202.176 1166.09 Q196.181 1166.09 193.01 1161.51 Q189.838 1156.9 189.838 1148.17 Q189.838 1139.98 193.727 1135.12 Q197.616 1130.23 204.167 1130.23 Q205.926 1130.23 207.709 1130.58 Q209.514 1130.93 211.459 1131.62 Z" fill="#000000" fill-rule="nonzero" fill-opacity="1" /><path clip-path="url(#clip070)" d="M126.459 840.4 Q122.848 840.4 121.019 843.965 Q119.214 847.506 119.214 854.636 Q119.214 861.742 121.019 865.307 Q122.848 868.849 126.459 868.849 Q130.093 868.849 131.899 865.307 Q133.728 861.742 133.728 854.636 Q133.728 847.506 131.899 843.965 Q130.093 840.4 126.459 840.4 M126.459 836.696 Q132.269 836.696 135.325 841.302 Q138.404 845.886 138.404 854.636 Q138.404 863.363 135.325 867.969 Q132.269 872.552 126.459 872.552 Q120.649 872.552 117.57 867.969 Q114.515 863.363 114.515 854.636 Q114.515 845.886 117.57 841.302 Q120.649 836.696 126.459 836.696 Z" fill="#000000" fill-rule="nonzero" fill-opacity="1" /><path clip-path="url(#clip070)" d="M146.621 866.001 L151.505 866.001 L151.505 871.881 L146.621 871.881 L146.621 866.001 Z" fill="#000000" fill-rule="nonzero" fill-opacity="1" /><path clip-path="url(#clip070)" d="M171.69 855.469 Q168.357 855.469 166.436 857.251 Q164.538 859.034 164.538 862.159 Q164.538 865.284 166.436 867.066 Q168.357 868.849 171.69 868.849 Q175.024 868.849 176.945 867.066 Q178.866 865.261 178.866 862.159 Q178.866 859.034 176.945 857.251 Q175.047 855.469 171.69 855.469 M167.015 853.478 Q164.005 852.738 162.315 850.677 Q160.649 848.617 160.649 845.654 Q160.649 841.511 163.589 839.103 Q166.552 836.696 171.69 836.696 Q176.852 836.696 179.792 839.103 Q182.732 841.511 182.732 845.654 Q182.732 848.617 181.042 850.677 Q179.376 852.738 176.389 853.478 Q179.769 854.265 181.644 856.557 Q183.542 858.849 183.542 862.159 Q183.542 867.182 180.464 869.867 Q177.408 872.552 171.69 872.552 Q165.973 872.552 162.894 869.867 Q159.839 867.182 159.839 862.159 Q159.839 858.849 161.737 856.557 Q163.635 854.265 167.015 853.478 M165.302 846.094 Q165.302 848.779 166.968 850.284 Q168.658 851.789 171.69 851.789 Q174.7 851.789 176.389 850.284 Q178.102 848.779 178.102 846.094 Q178.102 843.409 176.389 841.904 Q174.7 840.4 171.69 840.4 Q168.658 840.4 166.968 841.904 Q165.302 843.409 165.302 846.094 Z" fill="#000000" fill-rule="nonzero" fill-opacity="1" /><path clip-path="url(#clip070)" d="M201.852 855.469 Q198.519 855.469 196.598 857.251 Q194.7 859.034 194.7 862.159 Q194.7 865.284 196.598 867.066 Q198.519 868.849 201.852 868.849 Q205.186 868.849 207.107 867.066 Q209.028 865.261 209.028 862.159 Q209.028 859.034 207.107 857.251 Q205.209 855.469 201.852 855.469 M197.176 853.478 Q194.167 852.738 192.477 850.677 Q190.811 848.617 190.811 845.654 Q190.811 841.511 193.75 839.103 Q196.713 836.696 201.852 836.696 Q207.014 836.696 209.954 839.103 Q212.894 841.511 212.894 845.654 Q212.894 848.617 211.204 850.677 Q209.537 852.738 206.551 853.478 Q209.931 854.265 211.806 856.557 Q213.704 858.849 213.704 862.159 Q213.704 867.182 210.625 869.867 Q207.57 872.552 201.852 872.552 Q196.135 872.552 193.056 869.867 Q190 867.182 190 862.159 Q190 858.849 191.899 856.557 Q193.797 854.265 197.176 853.478 M195.463 846.094 Q195.463 848.779 197.13 850.284 Q198.82 851.789 201.852 851.789 Q204.862 851.789 206.551 850.284 Q208.264 848.779 208.264 846.094 Q208.264 843.409 206.551 841.904 Q204.862 840.4 201.852 840.4 Q198.82 840.4 197.13 841.904 Q195.463 843.409 195.463 846.094 Z" fill="#000000" fill-rule="nonzero" fill-opacity="1" /><path clip-path="url(#clip070)" d="M126.367 546.861 Q122.755 546.861 120.927 550.426 Q119.121 553.968 119.121 561.097 Q119.121 568.204 120.927 571.768 Q122.755 575.31 126.367 575.31 Q130.001 575.31 131.806 571.768 Q133.635 568.204 133.635 561.097 Q133.635 553.968 131.806 550.426 Q130.001 546.861 126.367 546.861 M126.367 543.158 Q132.177 543.158 135.232 547.764 Q138.311 552.347 138.311 561.097 Q138.311 569.824 135.232 574.431 Q132.177 579.014 126.367 579.014 Q120.556 579.014 117.478 574.431 Q114.422 569.824 114.422 561.097 Q114.422 552.347 117.478 547.764 Q120.556 543.158 126.367 543.158 Z" fill="#000000" fill-rule="nonzero" fill-opacity="1" /><path clip-path="url(#clip070)" d="M146.529 572.463 L151.413 572.463 L151.413 578.343 L146.529 578.343 L146.529 572.463 Z" fill="#000000" fill-rule="nonzero" fill-opacity="1" /><path clip-path="url(#clip070)" d="M161.737 577.625 L161.737 573.366 Q163.496 574.199 165.302 574.639 Q167.107 575.079 168.843 575.079 Q173.473 575.079 175.903 571.977 Q178.357 568.852 178.704 562.509 Q177.362 564.5 175.301 565.565 Q173.241 566.63 170.741 566.63 Q165.556 566.63 162.524 563.505 Q159.515 560.357 159.515 554.917 Q159.515 549.593 162.663 546.375 Q165.811 543.158 171.042 543.158 Q177.038 543.158 180.186 547.764 Q183.357 552.347 183.357 561.097 Q183.357 569.268 179.468 574.153 Q175.602 579.014 169.052 579.014 Q167.292 579.014 165.487 578.667 Q163.681 578.319 161.737 577.625 M171.042 562.972 Q174.19 562.972 176.019 560.819 Q177.871 558.667 177.871 554.917 Q177.871 551.19 176.019 549.037 Q174.19 546.861 171.042 546.861 Q167.894 546.861 166.042 549.037 Q164.214 551.19 164.214 554.917 Q164.214 558.667 166.042 560.819 Q167.894 562.972 171.042 562.972 Z" fill="#000000" fill-rule="nonzero" fill-opacity="1" /><path clip-path="url(#clip070)" d="M201.76 546.861 Q198.149 546.861 196.32 550.426 Q194.514 553.968 194.514 561.097 Q194.514 568.204 196.32 571.768 Q198.149 575.31 201.76 575.31 Q205.394 575.31 207.199 571.768 Q209.028 568.204 209.028 561.097 Q209.028 553.968 207.199 550.426 Q205.394 546.861 201.76 546.861 M201.76 543.158 Q207.57 543.158 210.625 547.764 Q213.704 552.347 213.704 561.097 Q213.704 569.824 210.625 574.431 Q207.57 579.014 201.76 579.014 Q195.95 579.014 192.871 574.431 Q189.815 569.824 189.815 561.097 Q189.815 552.347 192.871 547.764 Q195.95 543.158 201.76 543.158 Z" fill="#000000" fill-rule="nonzero" fill-opacity="1" /><path clip-path="url(#clip070)" d="M127.964 253.323 Q124.353 253.323 122.524 256.887 Q120.718 260.429 120.718 267.559 Q120.718 274.665 122.524 278.23 Q124.353 281.772 127.964 281.772 Q131.598 281.772 133.404 278.23 Q135.232 274.665 135.232 267.559 Q135.232 260.429 133.404 256.887 Q131.598 253.323 127.964 253.323 M127.964 249.619 Q133.774 249.619 136.829 254.225 Q139.908 258.809 139.908 267.559 Q139.908 276.286 136.829 280.892 Q133.774 285.475 127.964 285.475 Q122.154 285.475 119.075 280.892 Q116.019 276.286 116.019 267.559 Q116.019 258.809 119.075 254.225 Q122.154 249.619 127.964 249.619 Z" fill="#000000" fill-rule="nonzero" fill-opacity="1" /><path clip-path="url(#clip070)" d="M148.126 278.924 L153.01 278.924 L153.01 284.804 L148.126 284.804 L148.126 278.924 Z" fill="#000000" fill-rule="nonzero" fill-opacity="1" /><path clip-path="url(#clip070)" d="M163.334 284.086 L163.334 279.827 Q165.093 280.661 166.899 281.1 Q168.704 281.54 170.44 281.54 Q175.07 281.54 177.501 278.438 Q179.954 275.313 180.301 268.971 Q178.959 270.961 176.899 272.026 Q174.839 273.091 172.339 273.091 Q167.153 273.091 164.121 269.966 Q161.112 266.818 161.112 261.378 Q161.112 256.054 164.26 252.837 Q167.408 249.619 172.639 249.619 Q178.635 249.619 181.783 254.225 Q184.954 258.809 184.954 267.559 Q184.954 275.73 181.065 280.614 Q177.2 285.475 170.649 285.475 Q168.889 285.475 167.084 285.128 Q165.278 284.781 163.334 284.086 M172.639 269.434 Q175.788 269.434 177.616 267.281 Q179.468 265.128 179.468 261.378 Q179.468 257.651 177.616 255.499 Q175.788 253.323 172.639 253.323 Q169.491 253.323 167.64 255.499 Q165.811 257.651 165.811 261.378 Q165.811 265.128 167.64 267.281 Q169.491 269.434 172.639 269.434 Z" fill="#000000" fill-rule="nonzero" fill-opacity="1" /><path clip-path="url(#clip070)" d="M197.385 280.869 L213.704 280.869 L213.704 284.804 L191.76 284.804 L191.76 280.869 Q194.422 278.114 199.005 273.485 Q203.612 268.832 204.792 267.489 Q207.037 264.966 207.917 263.23 Q208.82 261.471 208.82 259.781 Q208.82 257.026 206.875 255.29 Q204.954 253.554 201.852 253.554 Q199.653 253.554 197.2 254.318 Q194.769 255.082 191.991 256.633 L191.991 251.911 Q194.815 250.776 197.269 250.198 Q199.723 249.619 201.76 249.619 Q207.13 249.619 210.324 252.304 Q213.519 254.989 213.519 259.48 Q213.519 261.61 212.709 263.531 Q211.922 265.429 209.815 268.022 Q209.237 268.693 206.135 271.911 Q203.033 275.105 197.385 280.869 Z" fill="#000000" fill-rule="nonzero" fill-opacity="1" /><path clip-path="url(#clip070)" d="M14.479 769.635 L14.479 763.746 L43.7294 763.746 L28.3562 746.272 L28.3562 738.793 L45.0344 757.699 L64.0042 737.997 L64.0042 745.636 L46.5939 763.746 L64.0042 763.746 L64.0042 769.635 L14.479 769.635 Z" fill="#000000" fill-rule="nonzero" fill-opacity="1" /><path clip-path="url(#clip070)" d="M41.4377 717.086 Q41.4377 721.669 43.8885 724.311 Q46.3393 726.921 50.6362 726.921 Q54.933 726.921 57.3838 724.311 Q59.8346 721.669 59.8346 717.086 Q59.8346 712.502 57.3838 709.861 Q54.9012 707.219 50.6362 707.219 Q46.3393 707.219 43.8885 709.861 Q41.4377 712.47 41.4377 717.086 M38.7005 723.515 Q37.682 727.653 34.8492 729.976 Q32.0165 732.268 27.9424 732.268 Q22.2451 732.268 18.935 728.226 Q15.6248 724.152 15.6248 717.086 Q15.6248 709.988 18.935 705.946 Q22.2451 701.903 27.9424 701.903 Q32.0165 701.903 34.8492 704.227 Q37.682 706.519 38.7005 710.624 Q39.7826 705.977 42.9337 703.399 Q46.0847 700.789 50.6362 700.789 Q57.543 700.789 61.2351 705.023 Q64.9272 709.224 64.9272 717.086 Q64.9272 724.947 61.2351 729.18 Q57.543 733.382 50.6362 733.382 Q46.0847 733.382 42.9337 730.772 Q39.7826 728.162 38.7005 723.515 M28.5472 725.87 Q32.2393 725.87 34.3081 723.579 Q36.377 721.255 36.377 717.086 Q36.377 712.948 34.3081 710.624 Q32.2393 708.269 28.5472 708.269 Q24.8551 708.269 22.7862 710.624 Q20.7174 712.948 20.7174 717.086 Q20.7174 721.255 22.7862 723.579 Q24.8551 725.87 28.5472 725.87 Z" fill="#000000" fill-rule="nonzero" fill-opacity="1" /><polyline clip-path="url(#clip071)" style="stroke:#009af9; stroke-linecap:round; stroke-linejoin:round; stroke-width:4; stroke-opacity:1; fill:none" points="309.224,1384.24 324.441,1370.44 345.208,1351.67 371.182,1328.31 403.795,1299.16 444.825,1262.78 496.565,1217.36 561.988,1160.7 629.363,1103.24 697.783,1045.87 767.174,988.698 837.436,931.891 908.441,875.619 980.029,820.077 1052.01,765.479 1124.16,712.052 1196.22,660.033 1267.92,609.656 1338.99,561.142 1409.16,514.688 1478.17,470.454 1545.84,428.555 1611.99,389.064 1676.53,352.007 1739.39,317.38 1800.53,285.148 1859.96,255.258 1917.68,227.644 1973.72,202.23 2028.1,178.935 2080.85,157.67 2132.01,138.339 2181.64,120.844 2199.45,114.873 2247,99.7444 2293.24,86.1857 "/>
<circle clip-path="url(#clip071)" cx="2199.45" cy="114.873" r="10.8" fill="#458b00" fill-rule="evenodd" fill-opacity="1" stroke="none"/>
<circle clip-path="url(#clip071)" cx="2199.45" cy="114.873" r="10.8" fill="#458b00" fill-rule="evenodd" fill-opacity="1" stroke="none"/>
<path clip-path="url(#clip070)" d="M319.806 196.789 L584.185 196.789 L584.185 93.1086 L319.806 93.1086  Z" fill="#ffffff" fill-rule="evenodd" fill-opacity="1"/>
<polyline clip-path="url(#clip070)" style="stroke:#000000; stroke-linecap:round; stroke-linejoin:round; stroke-width:4; stroke-opacity:1; fill:none" points="319.806,196.789 584.185,196.789 584.185,93.1086 319.806,93.1086 319.806,196.789 "/>
<circle clip-path="url(#clip070)" cx="413.275" cy="144.949" r="23.04" fill="#458b00" fill-rule="evenodd" fill-opacity="1" stroke="none"/>
<path clip-path="url(#clip070)" d="M523.133 146.025 Q524.637 146.534 526.049 148.201 Q527.484 149.868 528.92 152.784 L533.665 162.229 L528.642 162.229 L524.22 153.363 Q522.508 149.891 520.887 148.756 Q519.29 147.622 516.512 147.622 L511.42 147.622 L511.42 162.229 L506.744 162.229 L506.744 127.669 L517.299 127.669 Q523.225 127.669 526.142 130.145 Q529.058 132.622 529.058 137.622 Q529.058 140.886 527.531 143.039 Q526.026 145.192 523.133 146.025 M511.42 131.511 L511.42 143.78 L517.299 143.78 Q520.679 143.78 522.392 142.229 Q524.128 140.655 524.128 137.622 Q524.128 134.59 522.392 133.062 Q520.679 131.511 517.299 131.511 L511.42 131.511 Z" fill="#000000" fill-rule="nonzero" fill-opacity="1" /><path clip-path="url(#clip070)" d="M540.91 158.293 L548.549 158.293 L548.549 131.928 L540.239 133.595 L540.239 129.335 L548.503 127.669 L553.179 127.669 L553.179 158.293 L560.818 158.293 L560.818 162.229 L540.91 162.229 L540.91 158.293 Z" fill="#000000" fill-rule="nonzero" fill-opacity="1" /></svg>
