<?xml version="1.0" encoding="utf-8"?>
<svg xmlns="http://www.w3.org/2000/svg" xmlns:xlink="http://www.w3.org/1999/xlink" width="600" height="400" viewBox="0 0 2400 1600">
<defs>
  <clipPath id="clip100">
    <rect x="0" y="0" width="2400" height="1600"/>
  </clipPath>
</defs>
<path clip-path="url(#clip100)" d="M0 1600 L2400 1600 L2400 0 L0 0  Z" fill="#ffffff" fill-rule="evenodd" fill-opacity="1"/>
<defs>
  <clipPath id="clip101">
    <rect x="250" y="47" width="2104" height="1377"/>
  </clipPath>
</defs>
<path clip-path="url(#clip100)" d="M250.028 1423.18 L2352.76 1423.18 L2352.76 47.2441 L250.028 47.2441  Z" fill="#ffffff" fill-rule="evenodd" fill-opacity="1"/>
<polyline clip-path="url(#clip101)" style="stroke:#000000; stroke-linecap:round; stroke-linejoin:round; stroke-width:2; stroke-opacity:0.1; fill:none" points="309.539,1423.18 309.539,47.2441 "/>
<polyline clip-path="url(#clip101)" style="stroke:#000000; stroke-linecap:round; stroke-linejoin:round; stroke-width:2; stroke-opacity:0.1; fill:none" points="838.197,1423.18 838.197,47.2441 "/>
<polyline clip-path="url(#clip101)" style="stroke:#000000; stroke-linecap:round; stroke-linejoin:round; stroke-width:2; stroke-opacity:0.1; fill:none" points="1366.86,1423.18 1366.86,47.2441 "/>
<polyline clip-path="url(#clip101)" style="stroke:#000000; stroke-linecap:round; stroke-linejoin:round; stroke-width:2; stroke-opacity:0.1; fill:none" points="1895.51,1423.18 1895.51,47.2441 "/>
<polyline clip-path="url(#clip101)" style="stroke:#000000; stroke-linecap:round; stroke-linejoin:round; stroke-width:2; stroke-opacity:0.1; fill:none" points="250.028,1204.98 2352.76,1204.98 "/>
<polyline clip-path="url(#clip101)" style="stroke:#000000; stroke-linecap:round; stroke-linejoin:round; stroke-width:2; stroke-opacity:0.1; fill:none" points="250.028,962.698 2352.76,962.698 "/>
<polyline clip-path="url(#clip101)" style="stroke:#000000; stroke-linecap:round; stroke-linejoin:round; stroke-width:2; stroke-opacity:0.1; fill:none" points="250.028,720.418 2352.76,720.418 "/>
<polyline clip-path="url(#clip101)" style="stroke:#000000; stroke-linecap:round; stroke-linejoin:round; stroke-width:2; stroke-opacity:0.1; fill:none" points="250.028,478.138 2352.76,478.138 "/>
<polyline clip-path="url(#clip101)" style="stroke:#000000; stroke-linecap:round; stroke-linejoin:round; stroke-width:2; stroke-opacity:0.1; fill:none" points="250.028,235.858 2352.76,235.858 "/>
<polyline clip-path="url(#clip100)" style="stroke:#000000; stroke-linecap:round; stroke-linejoin:round; stroke-width:4; stroke-opacity:1; fill:none" points="250.028,1423.18 2352.76,1423.18 "/>
<polyline clip-path="url(#clip100)" style="stroke:#000000; stroke-linecap:round; stroke-linejoin:round; stroke-width:4; stroke-opacity:1; fill:none" points="309.539,1423.18 309.539,1404.28 "/>
<polyline clip-path="url(#clip100)" style="stroke:#000000; stroke-linecap:round; stroke-linejoin:round; stroke-width:4; stroke-opacity:1; fill:none" points="838.197,1423.18 838.197,1404.28 "/>
<polyline clip-path="url(#clip100)" style="stroke:#000000; stroke-linecap:round; stroke-linejoin:round; stroke-width:4; stroke-opacity:1; fill:none" points="1366.86,1423.18 1366.86,1404.28 "/>
<polyline clip-path="url(#clip100)" style="stroke:#000000; stroke-linecap:round; stroke-linejoin:round; stroke-width:4; stroke-opacity:1; fill:none" points="1895.51,1423.18 1895.51,1404.28 "/>
<path clip-path="url(#clip100)" d="M277.19 1481.64 L284.829 1481.64 L284.829 1455.28 L276.519 1456.95 L276.519 1452.69 L284.782 1451.02 L289.458 1451.02 L289.458 1481.64 L297.097 1481.64 L297.097 1485.58 L277.19 1485.58 L277.19 1481.64 Z" fill="#000000" fill-rule="nonzero" fill-opacity="1" /><path clip-path="url(#clip100)" d="M306.542 1479.7 L311.426 1479.7 L311.426 1485.58 L306.542 1485.58 L306.542 1479.7 Z" fill="#000000" fill-rule="nonzero" fill-opacity="1" /><path clip-path="url(#clip100)" d="M321.657 1451.02 L340.014 1451.02 L340.014 1454.96 L325.94 1454.96 L325.94 1463.43 Q326.958 1463.08 327.977 1462.92 Q328.995 1462.73 330.014 1462.73 Q335.801 1462.73 339.18 1465.9 Q342.56 1469.08 342.56 1474.49 Q342.56 1480.07 339.088 1483.17 Q335.616 1486.25 329.296 1486.25 Q327.12 1486.25 324.852 1485.88 Q322.606 1485.51 320.199 1484.77 L320.199 1480.07 Q322.282 1481.2 324.505 1481.76 Q326.727 1482.32 329.204 1482.32 Q333.208 1482.32 335.546 1480.21 Q337.884 1478.1 337.884 1474.49 Q337.884 1470.88 335.546 1468.77 Q333.208 1466.67 329.204 1466.67 Q327.329 1466.67 325.454 1467.08 Q323.602 1467.5 321.657 1468.38 L321.657 1451.02 Z" fill="#000000" fill-rule="nonzero" fill-opacity="1" /><path clip-path="url(#clip100)" d="M805.269 1481.64 L812.908 1481.64 L812.908 1455.28 L804.598 1456.95 L804.598 1452.69 L812.862 1451.02 L817.538 1451.02 L817.538 1481.64 L825.176 1481.64 L825.176 1485.58 L805.269 1485.58 L805.269 1481.64 Z" fill="#000000" fill-rule="nonzero" fill-opacity="1" /><path clip-path="url(#clip100)" d="M834.621 1479.7 L839.505 1479.7 L839.505 1485.58 L834.621 1485.58 L834.621 1479.7 Z" fill="#000000" fill-rule="nonzero" fill-opacity="1" /><path clip-path="url(#clip100)" d="M860.269 1466.44 Q857.121 1466.44 855.269 1468.59 Q853.44 1470.74 853.44 1474.49 Q853.44 1478.22 855.269 1480.39 Q857.121 1482.55 860.269 1482.55 Q863.417 1482.55 865.246 1480.39 Q867.097 1478.22 867.097 1474.49 Q867.097 1470.74 865.246 1468.59 Q863.417 1466.44 860.269 1466.44 M869.551 1451.78 L869.551 1456.04 Q867.792 1455.21 865.986 1454.77 Q864.204 1454.33 862.445 1454.33 Q857.815 1454.33 855.361 1457.45 Q852.931 1460.58 852.584 1466.9 Q853.949 1464.89 856.01 1463.82 Q858.07 1462.73 860.547 1462.73 Q865.755 1462.73 868.764 1465.9 Q871.797 1469.05 871.797 1474.49 Q871.797 1479.82 868.648 1483.03 Q865.5 1486.25 860.269 1486.25 Q854.273 1486.25 851.102 1481.67 Q847.931 1477.06 847.931 1468.33 Q847.931 1460.14 851.82 1455.28 Q855.709 1450.39 862.26 1450.39 Q864.019 1450.39 865.801 1450.74 Q867.607 1451.09 869.551 1451.78 Z" fill="#000000" fill-rule="nonzero" fill-opacity="1" /><path clip-path="url(#clip100)" d="M1334.46 1481.64 L1342.1 1481.64 L1342.1 1455.28 L1333.79 1456.95 L1333.79 1452.69 L1342.05 1451.02 L1346.73 1451.02 L1346.73 1481.64 L1354.37 1481.64 L1354.37 1485.58 L1334.46 1485.58 L1334.46 1481.64 Z" fill="#000000" fill-rule="nonzero" fill-opacity="1" /><path clip-path="url(#clip100)" d="M1363.81 1479.7 L1368.7 1479.7 L1368.7 1485.58 L1363.81 1485.58 L1363.81 1479.7 Z" fill="#000000" fill-rule="nonzero" fill-opacity="1" /><path clip-path="url(#clip100)" d="M1377.7 1451.02 L1399.92 1451.02 L1399.92 1453.01 L1387.38 1485.58 L1382.49 1485.58 L1394.3 1454.96 L1377.7 1454.96 L1377.7 1451.02 Z" fill="#000000" fill-rule="nonzero" fill-opacity="1" /><path clip-path="url(#clip100)" d="M1862.71 1481.64 L1870.35 1481.64 L1870.35 1455.28 L1862.04 1456.95 L1862.04 1452.69 L1870.3 1451.02 L1874.98 1451.02 L1874.98 1481.64 L1882.62 1481.64 L1882.62 1485.58 L1862.71 1485.58 L1862.71 1481.64 Z" fill="#000000" fill-rule="nonzero" fill-opacity="1" /><path clip-path="url(#clip100)" d="M1892.06 1479.7 L1896.95 1479.7 L1896.95 1485.58 L1892.06 1485.58 L1892.06 1479.7 Z" fill="#000000" fill-rule="nonzero" fill-opacity="1" /><path clip-path="url(#clip100)" d="M1917.13 1469.17 Q1913.8 1469.17 1911.88 1470.95 Q1909.98 1472.73 1909.98 1475.86 Q1909.98 1478.98 1911.88 1480.77 Q1913.8 1482.55 1917.13 1482.55 Q1920.47 1482.55 1922.39 1480.77 Q1924.31 1478.96 1924.31 1475.86 Q1924.31 1472.73 1922.39 1470.95 Q1920.49 1469.17 1917.13 1469.17 M1912.46 1467.18 Q1909.45 1466.44 1907.76 1464.38 Q1906.09 1462.32 1906.09 1459.35 Q1906.09 1455.21 1909.03 1452.8 Q1911.99 1450.39 1917.13 1450.39 Q1922.3 1450.39 1925.23 1452.8 Q1928.17 1455.21 1928.17 1459.35 Q1928.17 1462.32 1926.48 1464.38 Q1924.82 1466.44 1921.83 1467.18 Q1925.21 1467.96 1927.09 1470.26 Q1928.98 1472.55 1928.98 1475.86 Q1928.98 1480.88 1925.91 1483.57 Q1922.85 1486.25 1917.13 1486.25 Q1911.42 1486.25 1908.34 1483.57 Q1905.28 1480.88 1905.28 1475.86 Q1905.28 1472.55 1907.18 1470.26 Q1909.08 1467.96 1912.46 1467.18 M1910.74 1459.79 Q1910.74 1462.48 1912.41 1463.98 Q1914.1 1465.49 1917.13 1465.49 Q1920.14 1465.49 1921.83 1463.98 Q1923.55 1462.48 1923.55 1459.79 Q1923.55 1457.11 1921.83 1455.6 Q1920.14 1454.1 1917.13 1454.1 Q1914.1 1454.1 1912.41 1455.6 Q1910.74 1457.11 1910.74 1459.79 Z" fill="#000000" fill-rule="nonzero" fill-opacity="1" /><path clip-path="url(#clip100)" d="M1267.53 1518.52 L1273.41 1518.52 L1273.41 1547.77 L1290.89 1532.4 L1298.37 1532.4 L1279.46 1549.07 L1299.16 1568.04 L1291.53 1568.04 L1273.41 1550.63 L1273.41 1568.04 L1267.53 1568.04 L1267.53 1518.52 Z" fill="#000000" fill-rule="nonzero" fill-opacity="1" /><path clip-path="url(#clip100)" d="M1304.7 1520.52 L1335.26 1520.52 L1335.26 1523.26 L1318.01 1568.04 L1311.29 1568.04 L1327.52 1525.93 L1304.7 1525.93 L1304.7 1520.52 Z" fill="#000000" fill-rule="nonzero" fill-opacity="1" /><polyline clip-path="url(#clip100)" style="stroke:#000000; stroke-linecap:round; stroke-linejoin:round; stroke-width:4; stroke-opacity:1; fill:none" points="250.028,1423.18 250.028,47.2441 "/>
<polyline clip-path="url(#clip100)" style="stroke:#000000; stroke-linecap:round; stroke-linejoin:round; stroke-width:4; stroke-opacity:1; fill:none" points="250.028,1204.98 268.926,1204.98 "/>
<polyline clip-path="url(#clip100)" style="stroke:#000000; stroke-linecap:round; stroke-linejoin:round; stroke-width:4; stroke-opacity:1; fill:none" points="250.028,962.698 268.926,962.698 "/>
<polyline clip-path="url(#clip100)" style="stroke:#000000; stroke-linecap:round; stroke-linejoin:round; stroke-width:4; stroke-opacity:1; fill:none" points="250.028,720.418 268.926,720.418 "/>
<polyline clip-path="url(#clip100)" style="stroke:#000000; stroke-linecap:round; stroke-linejoin:round; stroke-width:4; stroke-opacity:1; fill:none" points="250.028,478.138 268.926,478.138 "/>
<polyline clip-path="url(#clip100)" style="stroke:#000000; stroke-linecap:round; stroke-linejoin:round; stroke-width:4; stroke-opacity:1; fill:none" points="250.028,235.858 268.926,235.858 "/>
<path clip-path="url(#clip100)" d="M126.205 1190.78 Q122.593 1190.78 120.765 1194.34 Q118.959 1197.88 118.959 1205.01 Q118.959 1212.12 120.765 1215.68 Q122.593 1219.23 126.205 1219.23 Q129.839 1219.23 131.644 1215.68 Q133.473 1212.12 133.473 1205.01 Q133.473 1197.88 131.644 1194.34 Q129.839 1190.78 126.205 1190.78 M126.205 1187.07 Q132.015 1187.07 135.07 1191.68 Q138.149 1196.26 138.149 1205.01 Q138.149 1213.74 135.07 1218.35 Q132.015 1222.93 126.205 1222.93 Q120.394 1222.93 117.316 1218.35 Q114.26 1213.74 114.26 1205.01 Q114.26 1196.26 117.316 1191.68 Q120.394 1187.07 126.205 1187.07 Z" fill="#000000" fill-rule="nonzero" fill-opacity="1" /><path clip-path="url(#clip100)" d="M146.366 1216.38 L151.251 1216.38 L151.251 1222.26 L146.366 1222.26 L146.366 1216.38 Z" fill="#000000" fill-rule="nonzero" fill-opacity="1" /><path clip-path="url(#clip100)" d="M171.436 1205.85 Q168.102 1205.85 166.181 1207.63 Q164.283 1209.41 164.283 1212.54 Q164.283 1215.66 166.181 1217.44 Q168.102 1219.23 171.436 1219.23 Q174.769 1219.23 176.69 1217.44 Q178.612 1215.64 178.612 1212.54 Q178.612 1209.41 176.69 1207.63 Q174.792 1205.85 171.436 1205.85 M166.76 1203.86 Q163.751 1203.11 162.061 1201.05 Q160.394 1198.99 160.394 1196.03 Q160.394 1191.89 163.334 1189.48 Q166.297 1187.07 171.436 1187.07 Q176.598 1187.07 179.538 1189.48 Q182.477 1191.89 182.477 1196.03 Q182.477 1198.99 180.788 1201.05 Q179.121 1203.11 176.135 1203.86 Q179.514 1204.64 181.389 1206.93 Q183.288 1209.23 183.288 1212.54 Q183.288 1217.56 180.209 1220.24 Q177.153 1222.93 171.436 1222.93 Q165.718 1222.93 162.64 1220.24 Q159.584 1217.56 159.584 1212.54 Q159.584 1209.23 161.482 1206.93 Q163.38 1204.64 166.76 1203.86 M165.047 1196.47 Q165.047 1199.16 166.714 1200.66 Q168.403 1202.17 171.436 1202.17 Q174.445 1202.17 176.135 1200.66 Q177.848 1199.16 177.848 1196.47 Q177.848 1193.79 176.135 1192.28 Q174.445 1190.78 171.436 1190.78 Q168.403 1190.78 166.714 1192.28 Q165.047 1193.79 165.047 1196.47 Z" fill="#000000" fill-rule="nonzero" fill-opacity="1" /><path clip-path="url(#clip100)" d="M204.445 1191.77 L192.639 1210.22 L204.445 1210.22 L204.445 1191.77 M203.218 1187.7 L209.098 1187.7 L209.098 1210.22 L214.028 1210.22 L214.028 1214.11 L209.098 1214.11 L209.098 1222.26 L204.445 1222.26 L204.445 1214.11 L188.843 1214.11 L188.843 1209.6 L203.218 1187.7 Z" fill="#000000" fill-rule="nonzero" fill-opacity="1" /><path clip-path="url(#clip100)" d="M126.529 948.497 Q122.918 948.497 121.089 952.062 Q119.283 955.603 119.283 962.733 Q119.283 969.839 121.089 973.404 Q122.918 976.946 126.529 976.946 Q130.163 976.946 131.968 973.404 Q133.797 969.839 133.797 962.733 Q133.797 955.603 131.968 952.062 Q130.163 948.497 126.529 948.497 M126.529 944.793 Q132.339 944.793 135.394 949.4 Q138.473 953.983 138.473 962.733 Q138.473 971.46 135.394 976.066 Q132.339 980.649 126.529 980.649 Q120.718 980.649 117.64 976.066 Q114.584 971.46 114.584 962.733 Q114.584 953.983 117.64 949.4 Q120.718 944.793 126.529 944.793 Z" fill="#000000" fill-rule="nonzero" fill-opacity="1" /><path clip-path="url(#clip100)" d="M146.691 974.099 L151.575 974.099 L151.575 979.978 L146.691 979.978 L146.691 974.099 Z" fill="#000000" fill-rule="nonzero" fill-opacity="1" /><path clip-path="url(#clip100)" d="M171.76 963.566 Q168.427 963.566 166.505 965.349 Q164.607 967.131 164.607 970.256 Q164.607 973.381 166.505 975.163 Q168.427 976.946 171.76 976.946 Q175.093 976.946 177.014 975.163 Q178.936 973.358 178.936 970.256 Q178.936 967.131 177.014 965.349 Q175.116 963.566 171.76 963.566 M167.084 961.575 Q164.075 960.835 162.385 958.775 Q160.718 956.714 160.718 953.751 Q160.718 949.608 163.658 947.201 Q166.621 944.793 171.76 944.793 Q176.922 944.793 179.862 947.201 Q182.801 949.608 182.801 953.751 Q182.801 956.714 181.112 958.775 Q179.445 960.835 176.459 961.575 Q179.839 962.363 181.713 964.654 Q183.612 966.946 183.612 970.256 Q183.612 975.279 180.533 977.964 Q177.477 980.649 171.76 980.649 Q166.042 980.649 162.964 977.964 Q159.908 975.279 159.908 970.256 Q159.908 966.946 161.806 964.654 Q163.704 962.363 167.084 961.575 M165.371 954.191 Q165.371 956.876 167.038 958.381 Q168.727 959.886 171.76 959.886 Q174.769 959.886 176.459 958.381 Q178.172 956.876 178.172 954.191 Q178.172 951.506 176.459 950.001 Q174.769 948.497 171.76 948.497 Q168.727 948.497 167.038 950.001 Q165.371 951.506 165.371 954.191 Z" fill="#000000" fill-rule="nonzero" fill-opacity="1" /><path clip-path="url(#clip100)" d="M202.5 960.835 Q199.352 960.835 197.5 962.988 Q195.672 965.14 195.672 968.89 Q195.672 972.617 197.5 974.793 Q199.352 976.946 202.5 976.946 Q205.649 976.946 207.477 974.793 Q209.329 972.617 209.329 968.89 Q209.329 965.14 207.477 962.988 Q205.649 960.835 202.5 960.835 M211.783 946.182 L211.783 950.441 Q210.024 949.608 208.218 949.168 Q206.436 948.728 204.676 948.728 Q200.047 948.728 197.593 951.853 Q195.163 954.978 194.815 961.298 Q196.181 959.284 198.241 958.219 Q200.301 957.131 202.778 957.131 Q207.987 957.131 210.996 960.302 Q214.028 963.45 214.028 968.89 Q214.028 974.214 210.88 977.432 Q207.732 980.649 202.5 980.649 Q196.505 980.649 193.334 976.066 Q190.163 971.46 190.163 962.733 Q190.163 954.538 194.051 949.677 Q197.94 944.793 204.491 944.793 Q206.25 944.793 208.033 945.14 Q209.838 945.488 211.783 946.182 Z" fill="#000000" fill-rule="nonzero" fill-opacity="1" /><path clip-path="url(#clip100)" d="M126.783 706.217 Q123.172 706.217 121.343 709.782 Q119.538 713.323 119.538 720.453 Q119.538 727.559 121.343 731.124 Q123.172 734.666 126.783 734.666 Q130.417 734.666 132.223 731.124 Q134.052 727.559 134.052 720.453 Q134.052 713.323 132.223 709.782 Q130.417 706.217 126.783 706.217 M126.783 702.513 Q132.593 702.513 135.649 707.12 Q138.728 711.703 138.728 720.453 Q138.728 729.18 135.649 733.786 Q132.593 738.369 126.783 738.369 Q120.973 738.369 117.894 733.786 Q114.839 729.18 114.839 720.453 Q114.839 711.703 117.894 707.12 Q120.973 702.513 126.783 702.513 Z" fill="#000000" fill-rule="nonzero" fill-opacity="1" /><path clip-path="url(#clip100)" d="M146.945 731.819 L151.829 731.819 L151.829 737.698 L146.945 737.698 L146.945 731.819 Z" fill="#000000" fill-rule="nonzero" fill-opacity="1" /><path clip-path="url(#clip100)" d="M172.014 721.286 Q168.681 721.286 166.76 723.069 Q164.862 724.851 164.862 727.976 Q164.862 731.101 166.76 732.883 Q168.681 734.666 172.014 734.666 Q175.348 734.666 177.269 732.883 Q179.19 731.078 179.19 727.976 Q179.19 724.851 177.269 723.069 Q175.371 721.286 172.014 721.286 M167.339 719.296 Q164.329 718.555 162.64 716.495 Q160.973 714.434 160.973 711.471 Q160.973 707.328 163.913 704.921 Q166.876 702.513 172.014 702.513 Q177.176 702.513 180.116 704.921 Q183.056 707.328 183.056 711.471 Q183.056 714.434 181.366 716.495 Q179.7 718.555 176.714 719.296 Q180.093 720.083 181.968 722.374 Q183.866 724.666 183.866 727.976 Q183.866 732.999 180.788 735.684 Q177.732 738.369 172.014 738.369 Q166.297 738.369 163.218 735.684 Q160.163 732.999 160.163 727.976 Q160.163 724.666 162.061 722.374 Q163.959 720.083 167.339 719.296 M165.626 711.911 Q165.626 714.596 167.292 716.101 Q168.982 717.606 172.014 717.606 Q175.024 717.606 176.714 716.101 Q178.426 714.596 178.426 711.911 Q178.426 709.226 176.714 707.721 Q175.024 706.217 172.014 706.217 Q168.982 706.217 167.292 707.721 Q165.626 709.226 165.626 711.911 Z" fill="#000000" fill-rule="nonzero" fill-opacity="1" /><path clip-path="url(#clip100)" d="M202.176 721.286 Q198.843 721.286 196.922 723.069 Q195.024 724.851 195.024 727.976 Q195.024 731.101 196.922 732.883 Q198.843 734.666 202.176 734.666 Q205.51 734.666 207.431 732.883 Q209.352 731.078 209.352 727.976 Q209.352 724.851 207.431 723.069 Q205.533 721.286 202.176 721.286 M197.5 719.296 Q194.491 718.555 192.801 716.495 Q191.135 714.434 191.135 711.471 Q191.135 707.328 194.075 704.921 Q197.037 702.513 202.176 702.513 Q207.338 702.513 210.278 704.921 Q213.218 707.328 213.218 711.471 Q213.218 714.434 211.528 716.495 Q209.861 718.555 206.875 719.296 Q210.255 720.083 212.13 722.374 Q214.028 724.666 214.028 727.976 Q214.028 732.999 210.949 735.684 Q207.894 738.369 202.176 738.369 Q196.459 738.369 193.38 735.684 Q190.325 732.999 190.325 727.976 Q190.325 724.666 192.223 722.374 Q194.121 720.083 197.5 719.296 M195.787 711.911 Q195.787 714.596 197.454 716.101 Q199.144 717.606 202.176 717.606 Q205.186 717.606 206.875 716.101 Q208.588 714.596 208.588 711.911 Q208.588 709.226 206.875 707.721 Q205.186 706.217 202.176 706.217 Q199.144 706.217 197.454 707.721 Q195.787 709.226 195.787 711.911 Z" fill="#000000" fill-rule="nonzero" fill-opacity="1" /><path clip-path="url(#clip100)" d="M126.691 463.937 Q123.08 463.937 121.251 467.502 Q119.445 471.043 119.445 478.173 Q119.445 485.279 121.251 488.844 Q123.08 492.386 126.691 492.386 Q130.325 492.386 132.13 488.844 Q133.959 485.279 133.959 478.173 Q133.959 471.043 132.13 467.502 Q130.325 463.937 126.691 463.937 M126.691 460.233 Q132.501 460.233 135.556 464.84 Q138.635 469.423 138.635 478.173 Q138.635 486.9 135.556 491.506 Q132.501 496.089 126.691 496.089 Q120.88 496.089 117.802 491.506 Q114.746 486.9 114.746 478.173 Q114.746 469.423 117.802 464.84 Q120.88 460.233 126.691 460.233 Z" fill="#000000" fill-rule="nonzero" fill-opacity="1" /><path clip-path="url(#clip100)" d="M146.853 489.539 L151.737 489.539 L151.737 495.418 L146.853 495.418 L146.853 489.539 Z" fill="#000000" fill-rule="nonzero" fill-opacity="1" /><path clip-path="url(#clip100)" d="M162.061 494.701 L162.061 490.441 Q163.82 491.275 165.626 491.715 Q167.431 492.154 169.167 492.154 Q173.797 492.154 176.227 489.052 Q178.681 485.928 179.028 479.585 Q177.686 481.576 175.626 482.64 Q173.565 483.705 171.065 483.705 Q165.88 483.705 162.848 480.58 Q159.839 477.432 159.839 471.992 Q159.839 466.668 162.987 463.451 Q166.135 460.233 171.366 460.233 Q177.362 460.233 180.51 464.84 Q183.681 469.423 183.681 478.173 Q183.681 486.344 179.792 491.228 Q175.926 496.089 169.376 496.089 Q167.616 496.089 165.811 495.742 Q164.005 495.395 162.061 494.701 M171.366 480.048 Q174.514 480.048 176.343 477.895 Q178.195 475.742 178.195 471.992 Q178.195 468.266 176.343 466.113 Q174.514 463.937 171.366 463.937 Q168.218 463.937 166.366 466.113 Q164.538 468.266 164.538 471.992 Q164.538 475.742 166.366 477.895 Q168.218 480.048 171.366 480.048 Z" fill="#000000" fill-rule="nonzero" fill-opacity="1" /><path clip-path="url(#clip100)" d="M202.084 463.937 Q198.473 463.937 196.644 467.502 Q194.838 471.043 194.838 478.173 Q194.838 485.279 196.644 488.844 Q198.473 492.386 202.084 492.386 Q205.718 492.386 207.524 488.844 Q209.352 485.279 209.352 478.173 Q209.352 471.043 207.524 467.502 Q205.718 463.937 202.084 463.937 M202.084 460.233 Q207.894 460.233 210.949 464.84 Q214.028 469.423 214.028 478.173 Q214.028 486.9 210.949 491.506 Q207.894 496.089 202.084 496.089 Q196.274 496.089 193.195 491.506 Q190.139 486.9 190.139 478.173 Q190.139 469.423 193.195 464.84 Q196.274 460.233 202.084 460.233 Z" fill="#000000" fill-rule="nonzero" fill-opacity="1" /><path clip-path="url(#clip100)" d="M128.288 221.657 Q124.677 221.657 122.848 225.222 Q121.043 228.763 121.043 235.893 Q121.043 242.999 122.848 246.564 Q124.677 250.106 128.288 250.106 Q131.922 250.106 133.728 246.564 Q135.556 242.999 135.556 235.893 Q135.556 228.763 133.728 225.222 Q131.922 221.657 128.288 221.657 M128.288 217.953 Q134.098 217.953 137.154 222.56 Q140.232 227.143 140.232 235.893 Q140.232 244.62 137.154 249.226 Q134.098 253.809 128.288 253.809 Q122.478 253.809 119.399 249.226 Q116.343 244.62 116.343 235.893 Q116.343 227.143 119.399 222.56 Q122.478 217.953 128.288 217.953 Z" fill="#000000" fill-rule="nonzero" fill-opacity="1" /><path clip-path="url(#clip100)" d="M148.45 247.259 L153.334 247.259 L153.334 253.138 L148.45 253.138 L148.45 247.259 Z" fill="#000000" fill-rule="nonzero" fill-opacity="1" /><path clip-path="url(#clip100)" d="M163.658 252.421 L163.658 248.161 Q165.417 248.995 167.223 249.435 Q169.028 249.874 170.764 249.874 Q175.394 249.874 177.825 246.772 Q180.278 243.648 180.626 237.305 Q179.283 239.296 177.223 240.36 Q175.163 241.425 172.663 241.425 Q167.477 241.425 164.445 238.3 Q161.436 235.152 161.436 229.712 Q161.436 224.388 164.584 221.171 Q167.732 217.953 172.964 217.953 Q178.959 217.953 182.107 222.56 Q185.278 227.143 185.278 235.893 Q185.278 244.064 181.389 248.948 Q177.524 253.809 170.973 253.809 Q169.214 253.809 167.408 253.462 Q165.602 253.115 163.658 252.421 M172.964 237.768 Q176.112 237.768 177.94 235.615 Q179.792 233.462 179.792 229.712 Q179.792 225.986 177.94 223.833 Q176.112 221.657 172.964 221.657 Q169.815 221.657 167.964 223.833 Q166.135 225.986 166.135 229.712 Q166.135 233.462 167.964 235.615 Q169.815 237.768 172.964 237.768 Z" fill="#000000" fill-rule="nonzero" fill-opacity="1" /><path clip-path="url(#clip100)" d="M197.709 249.203 L214.028 249.203 L214.028 253.138 L192.084 253.138 L192.084 249.203 Q194.746 246.448 199.329 241.819 Q203.936 237.166 205.116 235.823 Q207.362 233.3 208.241 231.564 Q209.144 229.805 209.144 228.115 Q209.144 225.361 207.199 223.624 Q205.278 221.888 202.176 221.888 Q199.977 221.888 197.524 222.652 Q195.093 223.416 192.315 224.967 L192.315 220.245 Q195.139 219.111 197.593 218.532 Q200.047 217.953 202.084 217.953 Q207.454 217.953 210.649 220.638 Q213.843 223.324 213.843 227.814 Q213.843 229.944 213.033 231.865 Q212.246 233.763 210.139 236.356 Q209.561 237.027 206.459 240.245 Q203.357 243.439 197.709 249.203 Z" fill="#000000" fill-rule="nonzero" fill-opacity="1" /><path clip-path="url(#clip100)" d="M14.479 769.635 L14.479 763.746 L43.7294 763.746 L28.3562 746.272 L28.3562 738.793 L45.0344 757.699 L64.0042 737.997 L64.0042 745.636 L46.5939 763.746 L64.0042 763.746 L64.0042 769.635 L14.479 769.635 Z" fill="#000000" fill-rule="nonzero" fill-opacity="1" /><path clip-path="url(#clip100)" d="M41.4377 717.086 Q41.4377 721.669 43.8885 724.311 Q46.3393 726.921 50.6362 726.921 Q54.933 726.921 57.3838 724.311 Q59.8346 721.669 59.8346 717.086 Q59.8346 712.502 57.3838 709.861 Q54.9012 707.219 50.6362 707.219 Q46.3393 707.219 43.8885 709.861 Q41.4377 712.47 41.4377 717.086 M38.7005 723.515 Q37.682 727.653 34.8492 729.976 Q32.0165 732.268 27.9424 732.268 Q22.2451 732.268 18.935 728.226 Q15.6248 724.152 15.6248 717.086 Q15.6248 709.988 18.935 705.946 Q22.2451 701.903 27.9424 701.903 Q32.0165 701.903 34.8492 704.227 Q37.682 706.519 38.7005 710.624 Q39.7826 705.977 42.9337 703.399 Q46.0847 700.789 50.6362 700.789 Q57.543 700.789 61.2351 705.023 Q64.9272 709.224 64.9272 717.086 Q64.9272 724.947 61.2351 729.18 Q57.543 733.382 50.6362 733.382 Q46.0847 733.382 42.9337 730.772 Q39.7826 728.162 38.7005 723.515 M28.5472 725.87 Q32.2393 725.87 34.3081 723.579 Q36.377 721.255 36.377 717.086 Q36.377 712.948 34.3081 710.624 Q32.2393 708.269 28.5472 708.269 Q24.8551 708.269 22.7862 710.624 Q20.7174 712.948 20.7174 717.086 Q20.7174 721.255 22.7862 723.579 Q24.8551 725.87 28.5472 725.87 Z" fill="#000000" fill-rule="nonzero" fill-opacity="1" /><polyline clip-path="url(#clip101)" style="stroke:#009af9; stroke-linecap:round; stroke-linejoin:round; stroke-width:4; stroke-opacity:1; fill:none" points="309.539,1384.24 321.046,1373.15 337.069,1357.76 358.07,1337.67 385.531,1311.52 421.34,1277.68 467.883,1234.09 524.798,1181.45 580.866,1130.33 636.209,1080.61 691.093,1032.05 745.787,984.446 800.56,937.574 855.679,891.249 911.406,845.303 967.998,799.593 1025.71,754 1084.77,708.438 1145.42,662.854 1207.86,617.24 1272.27,571.64 1338.76,526.164 1407.38,480.994 1478.07,436.402 1550.64,392.746 1615.59,355.558 1690.62,314.89 1766.11,276.527 1841.33,240.931 1915.55,208.462 1988.08,179.352 2058.27,153.706 2125.35,131.566 2186.79,113.37 2211.99,106.487 "/>
<circle clip-path="url(#clip101)" cx="1615.59" cy="355.558" r="10.8" fill="#cd0000" fill-rule="evenodd" fill-opacity="1" stroke="none"/>
<circle clip-path="url(#clip101)" cx="1615.59" cy="355.558" r="10.8" fill="#cd0000" fill-rule="evenodd" fill-opacity="1" stroke="none"/>
<polyline clip-path="url(#clip101)" style="stroke:#c271d2; stroke-linecap:round; stroke-linejoin:round; stroke-width:4; stroke-opacity:1; fill:none" points="309.539,1157.57 324.754,1146.18 345.517,1130.69 371.487,1111.41 404.095,1087.35 445.119,1057.32 496.851,1019.83 562.264,973.062 629.628,925.643 698.038,878.285 767.418,831.099 837.67,784.211 908.663,737.766 980.241,691.923 1052.21,646.859 1124.35,602.761 1196.4,559.826 1268.09,518.246 1339.15,478.204 1409.3,439.862 1478.31,403.352 1545.96,368.77 1612.11,336.174 1676.63,305.589 1739.48,277.008 1800.61,250.404 1860.03,225.734 1917.75,202.942 1973.78,181.966 2028.15,162.739 2080.89,145.187 2132.05,129.232 2181.67,114.792 2199.47,109.864 2247.02,97.3767 2293.24,86.1857 "/>
<circle clip-path="url(#clip101)" cx="2199.47" cy="109.864" r="10.8" fill="#458b00" fill-rule="evenodd" fill-opacity="1" stroke="none"/>
<circle clip-path="url(#clip101)" cx="2199.47" cy="109.864" r="10.8" fill="#458b00" fill-rule="evenodd" fill-opacity="1" stroke="none"/>
<path clip-path="url(#clip100)" d="M320.119 248.629 L584.466 248.629 L584.466 93.1086 L320.119 93.1086  Z" fill="#ffffff" fill-rule="evenodd" fill-opacity="1"/>
<polyline clip-path="url(#clip100)" style="stroke:#000000; stroke-linecap:round; stroke-linejoin:round; stroke-width:4; stroke-opacity:1; fill:none" points="320.119,248.629 584.466,248.629 584.466,93.1086 320.119,93.1086 320.119,248.629 "/>
<circle clip-path="url(#clip100)" cx="413.574" cy="144.949" r="23.04" fill="#cd0000" fill-rule="evenodd" fill-opacity="1" stroke="none"/>
<path clip-path="url(#clip100)" d="M527.537 137.298 L527.537 141.28 Q525.732 140.284 523.903 139.798 Q522.098 139.289 520.246 139.289 Q516.102 139.289 513.811 141.928 Q511.519 144.544 511.519 149.289 Q511.519 154.034 513.811 156.673 Q516.102 159.289 520.246 159.289 Q522.098 159.289 523.903 158.803 Q525.732 158.293 527.537 157.298 L527.537 161.233 Q525.755 162.067 523.834 162.483 Q521.936 162.9 519.783 162.9 Q513.926 162.9 510.477 159.219 Q507.028 155.539 507.028 149.289 Q507.028 142.946 510.5 139.312 Q513.996 135.678 520.061 135.678 Q522.028 135.678 523.903 136.095 Q525.778 136.488 527.537 137.298 Z" fill="#000000" fill-rule="nonzero" fill-opacity="1" /><path clip-path="url(#clip100)" d="M556.496 146.581 L556.496 162.229 L552.236 162.229 L552.236 146.719 Q552.236 143.039 550.801 141.21 Q549.366 139.382 546.496 139.382 Q543.047 139.382 541.056 141.581 Q539.065 143.78 539.065 147.576 L539.065 162.229 L534.783 162.229 L534.783 126.21 L539.065 126.21 L539.065 140.331 Q540.593 137.993 542.653 136.835 Q544.736 135.678 547.445 135.678 Q551.912 135.678 554.204 138.456 Q556.496 141.21 556.496 146.581 Z" fill="#000000" fill-rule="nonzero" fill-opacity="1" /><circle clip-path="url(#clip100)" cx="413.574" cy="196.789" r="23.04" fill="#458b00" fill-rule="evenodd" fill-opacity="1" stroke="none"/>
<path clip-path="url(#clip100)" d="M523.417 197.865 Q524.922 198.374 526.334 200.041 Q527.769 201.708 529.204 204.624 L533.949 214.069 L528.926 214.069 L524.505 205.203 Q522.792 201.731 521.172 200.596 Q519.574 199.462 516.797 199.462 L511.704 199.462 L511.704 214.069 L507.028 214.069 L507.028 179.509 L517.584 179.509 Q523.51 179.509 526.426 181.985 Q529.343 184.462 529.343 189.462 Q529.343 192.726 527.815 194.879 Q526.311 197.032 523.417 197.865 M511.704 183.351 L511.704 195.62 L517.584 195.62 Q520.963 195.62 522.676 194.069 Q524.412 192.495 524.412 189.462 Q524.412 186.43 522.676 184.902 Q520.963 183.351 517.584 183.351 L511.704 183.351 Z" fill="#000000" fill-rule="nonzero" fill-opacity="1" /><path clip-path="url(#clip100)" d="M541.195 210.133 L548.834 210.133 L548.834 183.768 L540.523 185.435 L540.523 181.175 L548.787 179.509 L553.463 179.509 L553.463 210.133 L561.102 210.133 L561.102 214.069 L541.195 214.069 L541.195 210.133 Z" fill="#000000" fill-rule="nonzero" fill-opacity="1" /></svg>
