<?xml version="1.0" encoding="utf-8"?>
<svg xmlns="http://www.w3.org/2000/svg" xmlns:xlink="http://www.w3.org/1999/xlink" width="600" height="400" viewBox="0 0 2400 1600">
<defs>
  <clipPath id="clip130">
    <rect x="0" y="0" width="2400" height="1600"/>
  </clipPath>
</defs>
<path clip-path="url(#clip130)" d="M0 1600 L2400 1600 L2400 0 L0 0  Z" fill="#ffffff" fill-rule="evenodd" fill-opacity="1"/>
<defs>
  <clipPath id="clip131">
    <rect x="219" y="47" width="2134" height="1377"/>
  </clipPath>
</defs>
<path clip-path="url(#clip130)" d="M219.519 1423.18 L2352.76 1423.18 L2352.76 47.2441 L219.519 47.2441  Z" fill="#ffffff" fill-rule="evenodd" fill-opacity="1"/>
<polyline clip-path="url(#clip131)" style="stroke:#000000; stroke-linecap:round; stroke-linejoin:round; stroke-width:2; stroke-opacity:0.1; fill:none" points="494.185,1423.18 494.185,47.2441 "/>
<polyline clip-path="url(#clip131)" style="stroke:#000000; stroke-linecap:round; stroke-linejoin:round; stroke-width:2; stroke-opacity:0.1; fill:none" points="922.768,1423.18 922.768,47.2441 "/>
<polyline clip-path="url(#clip131)" style="stroke:#000000; stroke-linecap:round; stroke-linejoin:round; stroke-width:2; stroke-opacity:0.1; fill:none" points="1351.35,1423.18 1351.35,47.2441 "/>
<polyline clip-path="url(#clip131)" style="stroke:#000000; stroke-linecap:round; stroke-linejoin:round; stroke-width:2; stroke-opacity:0.1; fill:none" points="1779.93,1423.18 1779.93,47.2441 "/>
<polyline clip-path="url(#clip131)" style="stroke:#000000; stroke-linecap:round; stroke-linejoin:round; stroke-width:2; stroke-opacity:0.1; fill:none" points="2208.52,1423.18 2208.52,47.2441 "/>
<polyline clip-path="url(#clip131)" style="stroke:#000000; stroke-linecap:round; stroke-linejoin:round; stroke-width:2; stroke-opacity:0.1; fill:none" points="219.519,1303.6 2352.76,1303.6 "/>
<polyline clip-path="url(#clip131)" style="stroke:#000000; stroke-linecap:round; stroke-linejoin:round; stroke-width:2; stroke-opacity:0.1; fill:none" points="219.519,1124.11 2352.76,1124.11 "/>
<polyline clip-path="url(#clip131)" style="stroke:#000000; stroke-linecap:round; stroke-linejoin:round; stroke-width:2; stroke-opacity:0.1; fill:none" points="219.519,944.631 2352.76,944.631 "/>
<polyline clip-path="url(#clip131)" style="stroke:#000000; stroke-linecap:round; stroke-linejoin:round; stroke-width:2; stroke-opacity:0.1; fill:none" points="219.519,765.147 2352.76,765.147 "/>
<polyline clip-path="url(#clip131)" style="stroke:#000000; stroke-linecap:round; stroke-linejoin:round; stroke-width:2; stroke-opacity:0.1; fill:none" points="219.519,585.664 2352.76,585.664 "/>
<polyline clip-path="url(#clip131)" style="stroke:#000000; stroke-linecap:round; stroke-linejoin:round; stroke-width:2; stroke-opacity:0.1; fill:none" points="219.519,406.18 2352.76,406.18 "/>
<polyline clip-path="url(#clip131)" style="stroke:#000000; stroke-linecap:round; stroke-linejoin:round; stroke-width:2; stroke-opacity:0.1; fill:none" points="219.519,226.697 2352.76,226.697 "/>
<polyline clip-path="url(#clip130)" style="stroke:#000000; stroke-linecap:round; stroke-linejoin:round; stroke-width:4; stroke-opacity:1; fill:none" points="219.519,1423.18 2352.76,1423.18 "/>
<polyline clip-path="url(#clip130)" style="stroke:#000000; stroke-linecap:round; stroke-linejoin:round; stroke-width:4; stroke-opacity:1; fill:none" points="494.185,1423.18 494.185,1404.28 "/>
<polyline clip-path="url(#clip130)" style="stroke:#000000; stroke-linecap:round; stroke-linejoin:round; stroke-width:4; stroke-opacity:1; fill:none" points="922.768,1423.18 922.768,1404.28 "/>
<polyline clip-path="url(#clip130)" style="stroke:#000000; stroke-linecap:round; stroke-linejoin:round; stroke-width:4; stroke-opacity:1; fill:none" points="1351.35,1423.18 1351.35,1404.28 "/>
<polyline clip-path="url(#clip130)" style="stroke:#000000; stroke-linecap:round; stroke-linejoin:round; stroke-width:4; stroke-opacity:1; fill:none" points="1779.93,1423.18 1779.93,1404.28 "/>
<polyline clip-path="url(#clip130)" style="stroke:#000000; stroke-linecap:round; stroke-linejoin:round; stroke-width:4; stroke-opacity:1; fill:none" points="2208.52,1423.18 2208.52,1404.28 "/>
<path clip-path="url(#clip130)" d="M456.407 1454.1 Q452.796 1454.1 450.968 1457.66 Q449.162 1461.2 449.162 1468.33 Q449.162 1475.44 450.968 1479.01 Q452.796 1482.55 456.407 1482.55 Q460.042 1482.55 461.847 1479.01 Q463.676 1475.44 463.676 1468.33 Q463.676 1461.2 461.847 1457.66 Q460.042 1454.1 456.407 1454.1 M456.407 1450.39 Q462.218 1450.39 465.273 1455 Q468.352 1459.58 468.352 1468.33 Q468.352 1477.06 465.273 1481.67 Q462.218 1486.25 456.407 1486.25 Q450.597 1486.25 447.519 1481.67 Q444.463 1477.06 444.463 1468.33 Q444.463 1459.58 447.519 1455 Q450.597 1450.39 456.407 1450.39 Z" fill="#000000" fill-rule="nonzero" fill-opacity="1" /><path clip-path="url(#clip130)" d="M476.569 1479.7 L481.454 1479.7 L481.454 1485.58 L476.569 1485.58 L476.569 1479.7 Z" fill="#000000" fill-rule="nonzero" fill-opacity="1" /><path clip-path="url(#clip130)" d="M490.458 1451.02 L512.68 1451.02 L512.68 1453.01 L500.134 1485.58 L495.25 1485.58 L507.055 1454.96 L490.458 1454.96 L490.458 1451.02 Z" fill="#000000" fill-rule="nonzero" fill-opacity="1" /><path clip-path="url(#clip130)" d="M532.379 1466.44 Q529.231 1466.44 527.379 1468.59 Q525.551 1470.74 525.551 1474.49 Q525.551 1478.22 527.379 1480.39 Q529.231 1482.55 532.379 1482.55 Q535.527 1482.55 537.356 1480.39 Q539.208 1478.22 539.208 1474.49 Q539.208 1470.74 537.356 1468.59 Q535.527 1466.44 532.379 1466.44 M541.662 1451.78 L541.662 1456.04 Q539.902 1455.21 538.097 1454.77 Q536.314 1454.33 534.555 1454.33 Q529.926 1454.33 527.472 1457.45 Q525.041 1460.58 524.694 1466.9 Q526.06 1464.89 528.12 1463.82 Q530.18 1462.73 532.657 1462.73 Q537.865 1462.73 540.875 1465.9 Q543.907 1469.05 543.907 1474.49 Q543.907 1479.82 540.759 1483.03 Q537.611 1486.25 532.379 1486.25 Q526.384 1486.25 523.213 1481.67 Q520.041 1477.06 520.041 1468.33 Q520.041 1460.14 523.93 1455.28 Q527.819 1450.39 534.37 1450.39 Q536.129 1450.39 537.912 1450.74 Q539.717 1451.09 541.662 1451.78 Z" fill="#000000" fill-rule="nonzero" fill-opacity="1" /><path clip-path="url(#clip130)" d="M885.118 1454.1 Q881.506 1454.1 879.678 1457.66 Q877.872 1461.2 877.872 1468.33 Q877.872 1475.44 879.678 1479.01 Q881.506 1482.55 885.118 1482.55 Q888.752 1482.55 890.557 1479.01 Q892.386 1475.44 892.386 1468.33 Q892.386 1461.2 890.557 1457.66 Q888.752 1454.1 885.118 1454.1 M885.118 1450.39 Q890.928 1450.39 893.983 1455 Q897.062 1459.58 897.062 1468.33 Q897.062 1477.06 893.983 1481.67 Q890.928 1486.25 885.118 1486.25 Q879.307 1486.25 876.229 1481.67 Q873.173 1477.06 873.173 1468.33 Q873.173 1459.58 876.229 1455 Q879.307 1450.39 885.118 1450.39 Z" fill="#000000" fill-rule="nonzero" fill-opacity="1" /><path clip-path="url(#clip130)" d="M905.279 1479.7 L910.164 1479.7 L910.164 1485.58 L905.279 1485.58 L905.279 1479.7 Z" fill="#000000" fill-rule="nonzero" fill-opacity="1" /><path clip-path="url(#clip130)" d="M919.168 1451.02 L941.39 1451.02 L941.39 1453.01 L928.844 1485.58 L923.96 1485.58 L935.765 1454.96 L919.168 1454.96 L919.168 1451.02 Z" fill="#000000" fill-rule="nonzero" fill-opacity="1" /><path clip-path="url(#clip130)" d="M960.511 1469.17 Q957.177 1469.17 955.256 1470.95 Q953.358 1472.73 953.358 1475.86 Q953.358 1478.98 955.256 1480.77 Q957.177 1482.55 960.511 1482.55 Q963.844 1482.55 965.765 1480.77 Q967.687 1478.96 967.687 1475.86 Q967.687 1472.73 965.765 1470.95 Q963.867 1469.17 960.511 1469.17 M955.835 1467.18 Q952.825 1466.44 951.136 1464.38 Q949.469 1462.32 949.469 1459.35 Q949.469 1455.21 952.409 1452.8 Q955.372 1450.39 960.511 1450.39 Q965.673 1450.39 968.612 1452.8 Q971.552 1455.21 971.552 1459.35 Q971.552 1462.32 969.862 1464.38 Q968.196 1466.44 965.21 1467.18 Q968.589 1467.96 970.464 1470.26 Q972.362 1472.55 972.362 1475.86 Q972.362 1480.88 969.284 1483.57 Q966.228 1486.25 960.511 1486.25 Q954.793 1486.25 951.714 1483.57 Q948.659 1480.88 948.659 1475.86 Q948.659 1472.55 950.557 1470.26 Q952.455 1467.96 955.835 1467.18 M954.122 1459.79 Q954.122 1462.48 955.788 1463.98 Q957.478 1465.49 960.511 1465.49 Q963.52 1465.49 965.21 1463.98 Q966.923 1462.48 966.923 1459.79 Q966.923 1457.11 965.21 1455.6 Q963.52 1454.1 960.511 1454.1 Q957.478 1454.1 955.788 1455.6 Q954.122 1457.11 954.122 1459.79 Z" fill="#000000" fill-rule="nonzero" fill-opacity="1" /><path clip-path="url(#clip130)" d="M1313.65 1454.1 Q1310.04 1454.1 1308.21 1457.66 Q1306.41 1461.2 1306.41 1468.33 Q1306.41 1475.44 1308.21 1479.01 Q1310.04 1482.55 1313.65 1482.55 Q1317.29 1482.55 1319.09 1479.01 Q1320.92 1475.44 1320.92 1468.33 Q1320.92 1461.2 1319.09 1457.66 Q1317.29 1454.1 1313.65 1454.1 M1313.65 1450.39 Q1319.46 1450.39 1322.52 1455 Q1325.6 1459.58 1325.6 1468.33 Q1325.6 1477.06 1322.52 1481.67 Q1319.46 1486.25 1313.65 1486.25 Q1307.84 1486.25 1304.77 1481.67 Q1301.71 1477.06 1301.71 1468.33 Q1301.71 1459.58 1304.77 1455 Q1307.84 1450.39 1313.65 1450.39 Z" fill="#000000" fill-rule="nonzero" fill-opacity="1" /><path clip-path="url(#clip130)" d="M1333.82 1479.7 L1338.7 1479.7 L1338.7 1485.58 L1333.82 1485.58 L1333.82 1479.7 Z" fill="#000000" fill-rule="nonzero" fill-opacity="1" /><path clip-path="url(#clip130)" d="M1358.89 1469.17 Q1355.55 1469.17 1353.63 1470.95 Q1351.73 1472.73 1351.73 1475.86 Q1351.73 1478.98 1353.63 1480.77 Q1355.55 1482.55 1358.89 1482.55 Q1362.22 1482.55 1364.14 1480.77 Q1366.06 1478.96 1366.06 1475.86 Q1366.06 1472.73 1364.14 1470.95 Q1362.24 1469.17 1358.89 1469.17 M1354.21 1467.18 Q1351.2 1466.44 1349.51 1464.38 Q1347.84 1462.32 1347.84 1459.35 Q1347.84 1455.21 1350.78 1452.8 Q1353.75 1450.39 1358.89 1450.39 Q1364.05 1450.39 1366.99 1452.8 Q1369.93 1455.21 1369.93 1459.35 Q1369.93 1462.32 1368.24 1464.38 Q1366.57 1466.44 1363.58 1467.18 Q1366.96 1467.96 1368.84 1470.26 Q1370.74 1472.55 1370.74 1475.86 Q1370.74 1480.88 1367.66 1483.57 Q1364.6 1486.25 1358.89 1486.25 Q1353.17 1486.25 1350.09 1483.57 Q1347.03 1480.88 1347.03 1475.86 Q1347.03 1472.55 1348.93 1470.26 Q1350.83 1467.96 1354.21 1467.18 M1352.5 1459.79 Q1352.5 1462.48 1354.16 1463.98 Q1355.85 1465.49 1358.89 1465.49 Q1361.89 1465.49 1363.58 1463.98 Q1365.3 1462.48 1365.3 1459.79 Q1365.3 1457.11 1363.58 1455.6 Q1361.89 1454.1 1358.89 1454.1 Q1355.85 1454.1 1354.16 1455.6 Q1352.5 1457.11 1352.5 1459.79 Z" fill="#000000" fill-rule="nonzero" fill-opacity="1" /><path clip-path="url(#clip130)" d="M1389.05 1454.1 Q1385.44 1454.1 1383.61 1457.66 Q1381.8 1461.2 1381.8 1468.33 Q1381.8 1475.44 1383.61 1479.01 Q1385.44 1482.55 1389.05 1482.55 Q1392.68 1482.55 1394.49 1479.01 Q1396.32 1475.44 1396.32 1468.33 Q1396.32 1461.2 1394.49 1457.66 Q1392.68 1454.1 1389.05 1454.1 M1389.05 1450.39 Q1394.86 1450.39 1397.91 1455 Q1400.99 1459.58 1400.99 1468.33 Q1400.99 1477.06 1397.91 1481.67 Q1394.86 1486.25 1389.05 1486.25 Q1383.24 1486.25 1380.16 1481.67 Q1377.1 1477.06 1377.1 1468.33 Q1377.1 1459.58 1380.16 1455 Q1383.24 1450.39 1389.05 1450.39 Z" fill="#000000" fill-rule="nonzero" fill-opacity="1" /><path clip-path="url(#clip130)" d="M1743.04 1454.1 Q1739.42 1454.1 1737.6 1457.66 Q1735.79 1461.2 1735.79 1468.33 Q1735.79 1475.44 1737.6 1479.01 Q1739.42 1482.55 1743.04 1482.55 Q1746.67 1482.55 1748.48 1479.01 Q1750.3 1475.44 1750.3 1468.33 Q1750.3 1461.2 1748.48 1457.66 Q1746.67 1454.1 1743.04 1454.1 M1743.04 1450.39 Q1748.85 1450.39 1751.9 1455 Q1754.98 1459.58 1754.98 1468.33 Q1754.98 1477.06 1751.9 1481.67 Q1748.85 1486.25 1743.04 1486.25 Q1737.23 1486.25 1734.15 1481.67 Q1731.09 1477.06 1731.09 1468.33 Q1731.09 1459.58 1734.15 1455 Q1737.23 1450.39 1743.04 1450.39 Z" fill="#000000" fill-rule="nonzero" fill-opacity="1" /><path clip-path="url(#clip130)" d="M1763.2 1479.7 L1768.08 1479.7 L1768.08 1485.58 L1763.2 1485.58 L1763.2 1479.7 Z" fill="#000000" fill-rule="nonzero" fill-opacity="1" /><path clip-path="url(#clip130)" d="M1788.27 1469.17 Q1784.93 1469.17 1783.01 1470.95 Q1781.11 1472.73 1781.11 1475.86 Q1781.11 1478.98 1783.01 1480.77 Q1784.93 1482.55 1788.27 1482.55 Q1791.6 1482.55 1793.52 1480.77 Q1795.44 1478.96 1795.44 1475.86 Q1795.44 1472.73 1793.52 1470.95 Q1791.62 1469.17 1788.27 1469.17 M1783.59 1467.18 Q1780.58 1466.44 1778.89 1464.38 Q1777.22 1462.32 1777.22 1459.35 Q1777.22 1455.21 1780.16 1452.8 Q1783.13 1450.39 1788.27 1450.39 Q1793.43 1450.39 1796.37 1452.8 Q1799.31 1455.21 1799.31 1459.35 Q1799.31 1462.32 1797.62 1464.38 Q1795.95 1466.44 1792.97 1467.18 Q1796.35 1467.96 1798.22 1470.26 Q1800.12 1472.55 1800.12 1475.86 Q1800.12 1480.88 1797.04 1483.57 Q1793.98 1486.25 1788.27 1486.25 Q1782.55 1486.25 1779.47 1483.57 Q1776.41 1480.88 1776.41 1475.86 Q1776.41 1472.55 1778.31 1470.26 Q1780.21 1467.96 1783.59 1467.18 M1781.88 1459.79 Q1781.88 1462.48 1783.54 1463.98 Q1785.23 1465.49 1788.27 1465.49 Q1791.28 1465.49 1792.97 1463.98 Q1794.68 1462.48 1794.68 1459.79 Q1794.68 1457.11 1792.97 1455.6 Q1791.28 1454.1 1788.27 1454.1 Q1785.23 1454.1 1783.54 1455.6 Q1781.88 1457.11 1781.88 1459.79 Z" fill="#000000" fill-rule="nonzero" fill-opacity="1" /><path clip-path="url(#clip130)" d="M1812.46 1481.64 L1828.78 1481.64 L1828.78 1485.58 L1806.83 1485.58 L1806.83 1481.64 Q1809.49 1478.89 1814.08 1474.26 Q1818.68 1469.61 1819.86 1468.27 Q1822.11 1465.74 1822.99 1464.01 Q1823.89 1462.25 1823.89 1460.56 Q1823.89 1457.8 1821.95 1456.07 Q1820.03 1454.33 1816.92 1454.33 Q1814.72 1454.33 1812.27 1455.09 Q1809.84 1455.86 1807.06 1457.41 L1807.06 1452.69 Q1809.89 1451.55 1812.34 1450.97 Q1814.79 1450.39 1816.83 1450.39 Q1822.2 1450.39 1825.4 1453.08 Q1828.59 1455.77 1828.59 1460.26 Q1828.59 1462.39 1827.78 1464.31 Q1826.99 1466.2 1824.89 1468.8 Q1824.31 1469.47 1821.21 1472.69 Q1818.1 1475.88 1812.46 1481.64 Z" fill="#000000" fill-rule="nonzero" fill-opacity="1" /><path clip-path="url(#clip130)" d="M2170.58 1454.1 Q2166.97 1454.1 2165.14 1457.66 Q2163.33 1461.2 2163.33 1468.33 Q2163.33 1475.44 2165.14 1479.01 Q2166.97 1482.55 2170.58 1482.55 Q2174.21 1482.55 2176.02 1479.01 Q2177.84 1475.44 2177.84 1468.33 Q2177.84 1461.2 2176.02 1457.66 Q2174.21 1454.1 2170.58 1454.1 M2170.58 1450.39 Q2176.39 1450.39 2179.44 1455 Q2182.52 1459.58 2182.52 1468.33 Q2182.52 1477.06 2179.44 1481.67 Q2176.39 1486.25 2170.58 1486.25 Q2164.77 1486.25 2161.69 1481.67 Q2158.63 1477.06 2158.63 1468.33 Q2158.63 1459.58 2161.69 1455 Q2164.77 1450.39 2170.58 1450.39 Z" fill="#000000" fill-rule="nonzero" fill-opacity="1" /><path clip-path="url(#clip130)" d="M2190.74 1479.7 L2195.62 1479.7 L2195.62 1485.58 L2190.74 1485.58 L2190.74 1479.7 Z" fill="#000000" fill-rule="nonzero" fill-opacity="1" /><path clip-path="url(#clip130)" d="M2215.81 1469.17 Q2212.47 1469.17 2210.55 1470.95 Q2208.65 1472.73 2208.65 1475.86 Q2208.65 1478.98 2210.55 1480.77 Q2212.47 1482.55 2215.81 1482.55 Q2219.14 1482.55 2221.06 1480.77 Q2222.98 1478.96 2222.98 1475.86 Q2222.98 1472.73 2221.06 1470.95 Q2219.16 1469.17 2215.81 1469.17 M2211.13 1467.18 Q2208.12 1466.44 2206.43 1464.38 Q2204.77 1462.32 2204.77 1459.35 Q2204.77 1455.21 2207.71 1452.8 Q2210.67 1450.39 2215.81 1450.39 Q2220.97 1450.39 2223.91 1452.8 Q2226.85 1455.21 2226.85 1459.35 Q2226.85 1462.32 2225.16 1464.38 Q2223.49 1466.44 2220.51 1467.18 Q2223.89 1467.96 2225.76 1470.26 Q2227.66 1472.55 2227.66 1475.86 Q2227.66 1480.88 2224.58 1483.57 Q2221.53 1486.25 2215.81 1486.25 Q2210.09 1486.25 2207.01 1483.57 Q2203.96 1480.88 2203.96 1475.86 Q2203.96 1472.55 2205.85 1470.26 Q2207.75 1467.96 2211.13 1467.18 M2209.42 1459.79 Q2209.42 1462.48 2211.09 1463.98 Q2212.78 1465.49 2215.81 1465.49 Q2218.82 1465.49 2220.51 1463.98 Q2222.22 1462.48 2222.22 1459.79 Q2222.22 1457.11 2220.51 1455.6 Q2218.82 1454.1 2215.81 1454.1 Q2212.78 1454.1 2211.09 1455.6 Q2209.42 1457.11 2209.42 1459.79 Z" fill="#000000" fill-rule="nonzero" fill-opacity="1" /><path clip-path="url(#clip130)" d="M2248.82 1455.09 L2237.01 1473.54 L2248.82 1473.54 L2248.82 1455.09 M2247.59 1451.02 L2253.47 1451.02 L2253.47 1473.54 L2258.4 1473.54 L2258.4 1477.43 L2253.47 1477.43 L2253.47 1485.58 L2248.82 1485.58 L2248.82 1477.43 L2233.21 1477.43 L2233.21 1472.92 L2247.59 1451.02 Z" fill="#000000" fill-rule="nonzero" fill-opacity="1" /><path clip-path="url(#clip130)" d="M1251.71 1518.52 L1257.6 1518.52 L1257.6 1547.77 L1275.08 1532.4 L1282.56 1532.4 L1263.65 1549.07 L1283.35 1568.04 L1275.71 1568.04 L1257.6 1550.63 L1257.6 1568.04 L1251.71 1568.04 L1251.71 1518.52 Z" fill="#000000" fill-rule="nonzero" fill-opacity="1" /><path clip-path="url(#clip130)" d="M1304.26 1545.48 Q1299.68 1545.48 1297.04 1547.93 Q1294.43 1550.38 1294.43 1554.68 Q1294.43 1558.97 1297.04 1561.42 Q1299.68 1563.87 1304.26 1563.87 Q1308.85 1563.87 1311.49 1561.42 Q1314.13 1558.94 1314.13 1554.68 Q1314.13 1550.38 1311.49 1547.93 Q1308.88 1545.48 1304.26 1545.48 M1297.83 1542.74 Q1293.7 1541.72 1291.37 1538.89 Q1289.08 1536.06 1289.08 1531.98 Q1289.08 1526.28 1293.12 1522.97 Q1297.2 1519.66 1304.26 1519.66 Q1311.36 1519.66 1315.4 1522.97 Q1319.45 1526.28 1319.45 1531.98 Q1319.45 1536.06 1317.12 1538.89 Q1314.83 1541.72 1310.73 1542.74 Q1315.37 1543.82 1317.95 1546.97 Q1320.56 1550.12 1320.56 1554.68 Q1320.56 1561.58 1316.33 1565.27 Q1312.13 1568.97 1304.26 1568.97 Q1296.4 1568.97 1292.17 1565.27 Q1287.97 1561.58 1287.97 1554.68 Q1287.97 1550.12 1290.58 1546.97 Q1293.19 1543.82 1297.83 1542.74 M1295.48 1532.59 Q1295.48 1536.28 1297.77 1538.35 Q1300.09 1540.42 1304.26 1540.42 Q1308.4 1540.42 1310.73 1538.35 Q1313.08 1536.28 1313.08 1532.59 Q1313.08 1528.89 1310.73 1526.83 Q1308.4 1524.76 1304.26 1524.76 Q1300.09 1524.76 1297.77 1526.83 Q1295.48 1528.89 1295.48 1532.59 Z" fill="#000000" fill-rule="nonzero" fill-opacity="1" /><polyline clip-path="url(#clip130)" style="stroke:#000000; stroke-linecap:round; stroke-linejoin:round; stroke-width:4; stroke-opacity:1; fill:none" points="219.519,1423.18 219.519,47.2441 "/>
<polyline clip-path="url(#clip130)" style="stroke:#000000; stroke-linecap:round; stroke-linejoin:round; stroke-width:4; stroke-opacity:1; fill:none" points="219.519,1303.6 238.417,1303.6 "/>
<polyline clip-path="url(#clip130)" style="stroke:#000000; stroke-linecap:round; stroke-linejoin:round; stroke-width:4; stroke-opacity:1; fill:none" points="219.519,1124.11 238.417,1124.11 "/>
<polyline clip-path="url(#clip130)" style="stroke:#000000; stroke-linecap:round; stroke-linejoin:round; stroke-width:4; stroke-opacity:1; fill:none" points="219.519,944.631 238.417,944.631 "/>
<polyline clip-path="url(#clip130)" style="stroke:#000000; stroke-linecap:round; stroke-linejoin:round; stroke-width:4; stroke-opacity:1; fill:none" points="219.519,765.147 238.417,765.147 "/>
<polyline clip-path="url(#clip130)" style="stroke:#000000; stroke-linecap:round; stroke-linejoin:round; stroke-width:4; stroke-opacity:1; fill:none" points="219.519,585.664 238.417,585.664 "/>
<polyline clip-path="url(#clip130)" style="stroke:#000000; stroke-linecap:round; stroke-linejoin:round; stroke-width:4; stroke-opacity:1; fill:none" points="219.519,406.18 238.417,406.18 "/>
<polyline clip-path="url(#clip130)" style="stroke:#000000; stroke-linecap:round; stroke-linejoin:round; stroke-width:4; stroke-opacity:1; fill:none" points="219.519,226.697 238.417,226.697 "/>
<path clip-path="url(#clip130)" d="M127.917 1301.73 Q124.769 1301.73 122.918 1303.89 Q121.089 1306.04 121.089 1309.79 Q121.089 1313.52 122.918 1315.69 Q124.769 1317.85 127.917 1317.85 Q131.066 1317.85 132.894 1315.69 Q134.746 1313.52 134.746 1309.79 Q134.746 1306.04 132.894 1303.89 Q131.066 1301.73 127.917 1301.73 M137.2 1287.08 L137.2 1291.34 Q135.441 1290.51 133.635 1290.07 Q131.853 1289.63 130.093 1289.63 Q125.464 1289.63 123.01 1292.75 Q120.58 1295.88 120.232 1302.2 Q121.598 1300.18 123.658 1299.12 Q125.718 1298.03 128.195 1298.03 Q133.404 1298.03 136.413 1301.2 Q139.445 1304.35 139.445 1309.79 Q139.445 1315.11 136.297 1318.33 Q133.149 1321.55 127.917 1321.55 Q121.922 1321.55 118.751 1316.97 Q115.58 1312.36 115.58 1303.63 Q115.58 1295.44 119.468 1290.58 Q123.357 1285.69 129.908 1285.69 Q131.667 1285.69 133.45 1286.04 Q135.255 1286.39 137.2 1287.08 Z" fill="#000000" fill-rule="nonzero" fill-opacity="1" /><path clip-path="url(#clip130)" d="M147.501 1315 L152.385 1315 L152.385 1320.88 L147.501 1320.88 L147.501 1315 Z" fill="#000000" fill-rule="nonzero" fill-opacity="1" /><path clip-path="url(#clip130)" d="M162.616 1286.32 L180.973 1286.32 L180.973 1290.25 L166.899 1290.25 L166.899 1298.72 Q167.917 1298.38 168.936 1298.22 Q169.954 1298.03 170.973 1298.03 Q176.76 1298.03 180.139 1301.2 Q183.519 1304.37 183.519 1309.79 Q183.519 1315.37 180.047 1318.47 Q176.575 1321.55 170.255 1321.55 Q168.079 1321.55 165.811 1321.18 Q163.565 1320.81 161.158 1320.07 L161.158 1315.37 Q163.241 1316.5 165.464 1317.06 Q167.686 1317.61 170.163 1317.61 Q174.167 1317.61 176.505 1315.51 Q178.843 1313.4 178.843 1309.79 Q178.843 1306.18 176.505 1304.07 Q174.167 1301.97 170.163 1301.97 Q168.288 1301.97 166.413 1302.38 Q164.561 1302.8 162.616 1303.68 L162.616 1286.32 Z" fill="#000000" fill-rule="nonzero" fill-opacity="1" /><path clip-path="url(#clip130)" d="M115.163 1106.83 L137.385 1106.83 L137.385 1108.82 L124.839 1141.39 L119.955 1141.39 L131.76 1110.77 L115.163 1110.77 L115.163 1106.83 Z" fill="#000000" fill-rule="nonzero" fill-opacity="1" /><path clip-path="url(#clip130)" d="M146.505 1135.51 L151.39 1135.51 L151.39 1141.39 L146.505 1141.39 L146.505 1135.51 Z" fill="#000000" fill-rule="nonzero" fill-opacity="1" /><path clip-path="url(#clip130)" d="M171.575 1109.91 Q167.964 1109.91 166.135 1113.48 Q164.329 1117.02 164.329 1124.15 Q164.329 1131.26 166.135 1134.82 Q167.964 1138.36 171.575 1138.36 Q175.209 1138.36 177.014 1134.82 Q178.843 1131.26 178.843 1124.15 Q178.843 1117.02 177.014 1113.48 Q175.209 1109.91 171.575 1109.91 M171.575 1106.21 Q177.385 1106.21 180.44 1110.82 Q183.519 1115.4 183.519 1124.15 Q183.519 1132.88 180.44 1137.48 Q177.385 1142.07 171.575 1142.07 Q165.765 1142.07 162.686 1137.48 Q159.63 1132.88 159.63 1124.15 Q159.63 1115.4 162.686 1110.82 Q165.765 1106.21 171.575 1106.21 Z" fill="#000000" fill-rule="nonzero" fill-opacity="1" /><path clip-path="url(#clip130)" d="M116.158 927.351 L138.38 927.351 L138.38 929.341 L125.834 961.911 L120.95 961.911 L132.755 931.286 L116.158 931.286 L116.158 927.351 Z" fill="#000000" fill-rule="nonzero" fill-opacity="1" /><path clip-path="url(#clip130)" d="M147.501 956.031 L152.385 956.031 L152.385 961.911 L147.501 961.911 L147.501 956.031 Z" fill="#000000" fill-rule="nonzero" fill-opacity="1" /><path clip-path="url(#clip130)" d="M162.616 927.351 L180.973 927.351 L180.973 931.286 L166.899 931.286 L166.899 939.758 Q167.917 939.411 168.936 939.249 Q169.954 939.064 170.973 939.064 Q176.76 939.064 180.139 942.235 Q183.519 945.406 183.519 950.823 Q183.519 956.401 180.047 959.503 Q176.575 962.582 170.255 962.582 Q168.079 962.582 165.811 962.212 Q163.565 961.841 161.158 961.1 L161.158 956.401 Q163.241 957.536 165.464 958.091 Q167.686 958.647 170.163 958.647 Q174.167 958.647 176.505 956.54 Q178.843 954.434 178.843 950.823 Q178.843 947.212 176.505 945.105 Q174.167 942.999 170.163 942.999 Q168.288 942.999 166.413 943.415 Q164.561 943.832 162.616 944.712 L162.616 927.351 Z" fill="#000000" fill-rule="nonzero" fill-opacity="1" /><path clip-path="url(#clip130)" d="M126.343 766.015 Q123.01 766.015 121.089 767.798 Q119.191 769.58 119.191 772.705 Q119.191 775.83 121.089 777.612 Q123.01 779.395 126.343 779.395 Q129.677 779.395 131.598 777.612 Q133.519 775.807 133.519 772.705 Q133.519 769.58 131.598 767.798 Q129.7 766.015 126.343 766.015 M121.668 764.025 Q118.658 763.284 116.968 761.224 Q115.302 759.163 115.302 756.201 Q115.302 752.057 118.242 749.65 Q121.205 747.242 126.343 747.242 Q131.505 747.242 134.445 749.65 Q137.385 752.057 137.385 756.201 Q137.385 759.163 135.695 761.224 Q134.029 763.284 131.042 764.025 Q134.422 764.812 136.297 767.103 Q138.195 769.395 138.195 772.705 Q138.195 777.728 135.117 780.413 Q132.061 783.099 126.343 783.099 Q120.626 783.099 117.547 780.413 Q114.492 777.728 114.492 772.705 Q114.492 769.395 116.39 767.103 Q118.288 764.812 121.668 764.025 M119.955 756.64 Q119.955 759.325 121.621 760.83 Q123.311 762.335 126.343 762.335 Q129.353 762.335 131.042 760.83 Q132.755 759.325 132.755 756.64 Q132.755 753.955 131.042 752.451 Q129.353 750.946 126.343 750.946 Q123.311 750.946 121.621 752.451 Q119.955 753.955 119.955 756.64 Z" fill="#000000" fill-rule="nonzero" fill-opacity="1" /><path clip-path="url(#clip130)" d="M146.505 776.548 L151.39 776.548 L151.39 782.427 L146.505 782.427 L146.505 776.548 Z" fill="#000000" fill-rule="nonzero" fill-opacity="1" /><path clip-path="url(#clip130)" d="M171.575 750.946 Q167.964 750.946 166.135 754.511 Q164.329 758.052 164.329 765.182 Q164.329 772.288 166.135 775.853 Q167.964 779.395 171.575 779.395 Q175.209 779.395 177.014 775.853 Q178.843 772.288 178.843 765.182 Q178.843 758.052 177.014 754.511 Q175.209 750.946 171.575 750.946 M171.575 747.242 Q177.385 747.242 180.44 751.849 Q183.519 756.432 183.519 765.182 Q183.519 773.909 180.44 778.515 Q177.385 783.099 171.575 783.099 Q165.765 783.099 162.686 778.515 Q159.63 773.909 159.63 765.182 Q159.63 756.432 162.686 751.849 Q165.765 747.242 171.575 747.242 Z" fill="#000000" fill-rule="nonzero" fill-opacity="1" /><path clip-path="url(#clip130)" d="M127.339 586.532 Q124.005 586.532 122.084 588.314 Q120.186 590.097 120.186 593.222 Q120.186 596.347 122.084 598.129 Q124.005 599.911 127.339 599.911 Q130.672 599.911 132.593 598.129 Q134.515 596.323 134.515 593.222 Q134.515 590.097 132.593 588.314 Q130.695 586.532 127.339 586.532 M122.663 584.541 Q119.654 583.8 117.964 581.74 Q116.297 579.68 116.297 576.717 Q116.297 572.574 119.237 570.166 Q122.2 567.759 127.339 567.759 Q132.501 567.759 135.441 570.166 Q138.38 572.574 138.38 576.717 Q138.38 579.68 136.691 581.74 Q135.024 583.8 132.038 584.541 Q135.417 585.328 137.292 587.62 Q139.191 589.911 139.191 593.222 Q139.191 598.245 136.112 600.93 Q133.056 603.615 127.339 603.615 Q121.621 603.615 118.543 600.93 Q115.487 598.245 115.487 593.222 Q115.487 589.911 117.385 587.62 Q119.283 585.328 122.663 584.541 M120.95 577.157 Q120.95 579.842 122.617 581.347 Q124.306 582.851 127.339 582.851 Q130.348 582.851 132.038 581.347 Q133.751 579.842 133.751 577.157 Q133.751 574.472 132.038 572.967 Q130.348 571.463 127.339 571.463 Q124.306 571.463 122.617 572.967 Q120.95 574.472 120.95 577.157 Z" fill="#000000" fill-rule="nonzero" fill-opacity="1" /><path clip-path="url(#clip130)" d="M147.501 597.064 L152.385 597.064 L152.385 602.944 L147.501 602.944 L147.501 597.064 Z" fill="#000000" fill-rule="nonzero" fill-opacity="1" /><path clip-path="url(#clip130)" d="M162.616 568.384 L180.973 568.384 L180.973 572.319 L166.899 572.319 L166.899 580.791 Q167.917 580.444 168.936 580.282 Q169.954 580.097 170.973 580.097 Q176.76 580.097 180.139 583.268 Q183.519 586.439 183.519 591.856 Q183.519 597.435 180.047 600.536 Q176.575 603.615 170.255 603.615 Q168.079 603.615 165.811 603.245 Q163.565 602.874 161.158 602.134 L161.158 597.435 Q163.241 598.569 165.464 599.124 Q167.686 599.68 170.163 599.68 Q174.167 599.68 176.505 597.573 Q178.843 595.467 178.843 591.856 Q178.843 588.245 176.505 586.138 Q174.167 584.032 170.163 584.032 Q168.288 584.032 166.413 584.449 Q164.561 584.865 162.616 585.745 L162.616 568.384 Z" fill="#000000" fill-rule="nonzero" fill-opacity="1" /><path clip-path="url(#clip130)" d="M116.482 422.743 L116.482 418.484 Q118.242 419.317 120.047 419.757 Q121.853 420.197 123.589 420.197 Q128.218 420.197 130.649 417.095 Q133.103 413.97 133.45 407.627 Q132.107 409.618 130.047 410.683 Q127.987 411.748 125.487 411.748 Q120.302 411.748 117.269 408.623 Q114.26 405.474 114.26 400.035 Q114.26 394.711 117.408 391.493 Q120.556 388.275 125.788 388.275 Q131.783 388.275 134.931 392.882 Q138.103 397.465 138.103 406.215 Q138.103 414.386 134.214 419.271 Q130.348 424.132 123.797 424.132 Q122.038 424.132 120.232 423.785 Q118.427 423.437 116.482 422.743 M125.788 408.09 Q128.936 408.09 130.765 405.937 Q132.617 403.785 132.617 400.035 Q132.617 396.308 130.765 394.155 Q128.936 391.979 125.788 391.979 Q122.64 391.979 120.788 394.155 Q118.959 396.308 118.959 400.035 Q118.959 403.785 120.788 405.937 Q122.64 408.09 125.788 408.09 Z" fill="#000000" fill-rule="nonzero" fill-opacity="1" /><path clip-path="url(#clip130)" d="M146.505 417.581 L151.39 417.581 L151.39 423.46 L146.505 423.46 L146.505 417.581 Z" fill="#000000" fill-rule="nonzero" fill-opacity="1" /><path clip-path="url(#clip130)" d="M171.575 391.979 Q167.964 391.979 166.135 395.544 Q164.329 399.086 164.329 406.215 Q164.329 413.322 166.135 416.886 Q167.964 420.428 171.575 420.428 Q175.209 420.428 177.014 416.886 Q178.843 413.322 178.843 406.215 Q178.843 399.086 177.014 395.544 Q175.209 391.979 171.575 391.979 M171.575 388.275 Q177.385 388.275 180.44 392.882 Q183.519 397.465 183.519 406.215 Q183.519 414.942 180.44 419.548 Q177.385 424.132 171.575 424.132 Q165.765 424.132 162.686 419.548 Q159.63 414.942 159.63 406.215 Q159.63 397.465 162.686 392.882 Q165.765 388.275 171.575 388.275 Z" fill="#000000" fill-rule="nonzero" fill-opacity="1" /><path clip-path="url(#clip130)" d="M117.478 243.259 L117.478 239 Q119.237 239.834 121.043 240.273 Q122.848 240.713 124.584 240.713 Q129.214 240.713 131.644 237.611 Q134.098 234.486 134.445 228.144 Q133.103 230.135 131.042 231.199 Q128.982 232.264 126.482 232.264 Q121.297 232.264 118.265 229.139 Q115.256 225.991 115.256 220.551 Q115.256 215.227 118.404 212.01 Q121.552 208.792 126.783 208.792 Q132.779 208.792 135.927 213.399 Q139.098 217.982 139.098 226.732 Q139.098 234.903 135.209 239.787 Q131.343 244.648 124.793 244.648 Q123.033 244.648 121.228 244.301 Q119.422 243.954 117.478 243.259 M126.783 228.607 Q129.931 228.607 131.76 226.454 Q133.612 224.301 133.612 220.551 Q133.612 216.824 131.76 214.672 Q129.931 212.496 126.783 212.496 Q123.635 212.496 121.783 214.672 Q119.955 216.824 119.955 220.551 Q119.955 224.301 121.783 226.454 Q123.635 228.607 126.783 228.607 Z" fill="#000000" fill-rule="nonzero" fill-opacity="1" /><path clip-path="url(#clip130)" d="M147.501 238.097 L152.385 238.097 L152.385 243.977 L147.501 243.977 L147.501 238.097 Z" fill="#000000" fill-rule="nonzero" fill-opacity="1" /><path clip-path="url(#clip130)" d="M162.616 209.417 L180.973 209.417 L180.973 213.352 L166.899 213.352 L166.899 221.824 Q167.917 221.477 168.936 221.315 Q169.954 221.13 170.973 221.13 Q176.76 221.13 180.139 224.301 Q183.519 227.473 183.519 232.889 Q183.519 238.468 180.047 241.57 Q176.575 244.648 170.255 244.648 Q168.079 244.648 165.811 244.278 Q163.565 243.908 161.158 243.167 L161.158 238.468 Q163.241 239.602 165.464 240.158 Q167.686 240.713 170.163 240.713 Q174.167 240.713 176.505 238.607 Q178.843 236.5 178.843 232.889 Q178.843 229.278 176.505 227.172 Q174.167 225.065 170.163 225.065 Q168.288 225.065 166.413 225.482 Q164.561 225.898 162.616 226.778 L162.616 209.417 Z" fill="#000000" fill-rule="nonzero" fill-opacity="1" /><path clip-path="url(#clip130)" d="M35.1993 774.218 Q31.2526 772.022 29.3747 768.966 Q27.4968 765.911 27.4968 761.773 Q27.4968 756.203 31.4117 753.179 Q35.2948 750.155 42.4881 750.155 L64.0042 750.155 L64.0042 756.044 L42.679 756.044 Q37.5546 756.044 35.072 757.858 Q32.5894 759.672 32.5894 763.396 Q32.5894 767.948 35.6131 770.589 Q38.6368 773.231 43.8567 773.231 L64.0042 773.231 L64.0042 779.119 L42.679 779.119 Q37.5228 779.119 35.072 780.934 Q32.5894 782.748 32.5894 786.535 Q32.5894 791.023 35.6449 793.665 Q38.6686 796.307 43.8567 796.307 L64.0042 796.307 L64.0042 802.195 L28.3562 802.195 L28.3562 796.307 L33.8944 796.307 Q30.616 794.302 29.0564 791.501 Q27.4968 788.7 27.4968 784.849 Q27.4968 780.965 29.4702 778.26 Q31.4436 775.523 35.1993 774.218 Z" fill="#000000" fill-rule="nonzero" fill-opacity="1" /><path clip-path="url(#clip130)" d="M46.0847 722.274 Q46.0847 729.371 47.7079 732.109 Q49.3312 734.846 53.2461 734.846 Q56.3653 734.846 58.2114 732.809 Q60.0256 730.74 60.0256 727.207 Q60.0256 722.337 56.5881 719.409 Q53.1188 716.449 47.3897 716.449 L46.0847 716.449 L46.0847 722.274 M43.6657 710.593 L64.0042 710.593 L64.0042 716.449 L58.5933 716.449 Q61.8398 718.454 63.3994 721.446 Q64.9272 724.438 64.9272 728.767 Q64.9272 734.241 61.8716 737.488 Q58.7843 740.702 53.6281 740.702 Q47.6125 740.702 44.5569 736.692 Q41.5014 732.65 41.5014 724.661 L41.5014 716.449 L40.9285 716.449 Q36.8862 716.449 34.6901 719.123 Q32.4621 721.764 32.4621 726.571 Q32.4621 729.626 33.1941 732.522 Q33.9262 735.419 35.3903 738.092 L29.9795 738.092 Q28.7381 734.878 28.1334 731.854 Q27.4968 728.83 27.4968 725.966 Q27.4968 718.231 31.5072 714.412 Q35.5176 710.593 43.6657 710.593 Z" fill="#000000" fill-rule="nonzero" fill-opacity="1" /><path clip-path="url(#clip130)" d="M28.3562 668.897 L45.7028 681.788 L64.0042 668.229 L64.0042 675.136 L49.9996 685.512 L64.0042 695.888 L64.0042 702.795 L45.3526 688.949 L28.3562 701.617 L28.3562 694.71 L41.0558 685.257 L28.3562 675.804 L28.3562 668.897 Z" fill="#000000" fill-rule="nonzero" fill-opacity="1" /><polyline clip-path="url(#clip131)" style="stroke:#009af9; stroke-linecap:round; stroke-linejoin:round; stroke-width:8; stroke-opacity:1; fill:none" points="279.894,86.1857 287.767,87.1334 "/>
<polyline clip-path="url(#clip131)" style="stroke:#009af9; stroke-linecap:round; stroke-linejoin:round; stroke-width:8; stroke-opacity:1; fill:none" points="287.767,87.1334 298.963,88.4816 "/>
<polyline clip-path="url(#clip131)" style="stroke:#009af9; stroke-linecap:round; stroke-linejoin:round; stroke-width:8; stroke-opacity:1; fill:none" points="298.963,88.4816 314.876,90.3994 "/>
<polyline clip-path="url(#clip131)" style="stroke:#009af9; stroke-linecap:round; stroke-linejoin:round; stroke-width:8; stroke-opacity:1; fill:none" points="314.876,90.3994 337.48,93.1268 "/>
<polyline clip-path="url(#clip131)" style="stroke:#009af9; stroke-linecap:round; stroke-linejoin:round; stroke-width:8; stroke-opacity:1; fill:none" points="337.48,93.1268 369.565,96.9917 "/>
<polyline clip-path="url(#clip131)" style="stroke:#009af9; stroke-linecap:round; stroke-linejoin:round; stroke-width:8; stroke-opacity:1; fill:none" points="369.565,96.9917 415.055,102.483 "/>
<polyline clip-path="url(#clip131)" style="stroke:#009af9; stroke-linecap:round; stroke-linejoin:round; stroke-width:8; stroke-opacity:1; fill:none" points="415.055,102.483 479.442,110.282 "/>
<polyline clip-path="url(#clip131)" style="stroke:#009af9; stroke-linecap:round; stroke-linejoin:round; stroke-width:8; stroke-opacity:1; fill:none" points="479.442,110.282 570.363,121.347 "/>
<polyline clip-path="url(#clip131)" style="stroke:#009af9; stroke-linecap:round; stroke-linejoin:round; stroke-width:8; stroke-opacity:1; fill:none" points="570.363,121.347 698.305,137.029 "/>
<polyline clip-path="url(#clip131)" style="stroke:#009af9; stroke-linecap:round; stroke-linejoin:round; stroke-width:8; stroke-opacity:1; fill:none" points="698.305,137.029 872.922,158.654 "/>
<polyline clip-path="url(#clip131)" style="stroke:#009af9; stroke-linecap:round; stroke-linejoin:round; stroke-width:8; stroke-opacity:1; fill:none" points="872.922,158.654 1056.11,181.655 "/>
<polyline clip-path="url(#clip131)" style="stroke:#009af9; stroke-linecap:round; stroke-linejoin:round; stroke-width:8; stroke-opacity:1; fill:none" points="1056.11,181.655 1235.21,204.537 "/>
<polyline clip-path="url(#clip131)" style="stroke:#009af9; stroke-linecap:round; stroke-linejoin:round; stroke-width:8; stroke-opacity:1; fill:none" points="1235.21,204.537 1410.12,227.463 "/>
<polyline clip-path="url(#clip131)" style="stroke:#009af9; stroke-linecap:round; stroke-linejoin:round; stroke-width:8; stroke-opacity:1; fill:none" points="1410.12,227.463 1582.54,251.447 "/>
<polyline clip-path="url(#clip131)" style="stroke:#009af9; stroke-linecap:round; stroke-linejoin:round; stroke-width:8; stroke-opacity:1; fill:none" points="1582.54,251.447 1674.63,266.322 "/>
<polyline clip-path="url(#clip131)" style="stroke:#009af9; stroke-linecap:round; stroke-linejoin:round; stroke-width:8; stroke-opacity:1; fill:none" points="1674.63,266.322 1772.69,288.713 "/>
<polyline clip-path="url(#clip131)" style="stroke:#009af9; stroke-linecap:round; stroke-linejoin:round; stroke-width:8; stroke-opacity:1; fill:none" points="1772.69,288.713 1891.42,332.307 "/>
<polyline clip-path="url(#clip131)" style="stroke:#009af9; stroke-linecap:round; stroke-linejoin:round; stroke-width:4; stroke-opacity:1; fill:none" points="1891.42,332.307 1941.82,355.332 "/>
<polyline clip-path="url(#clip131)" style="stroke:#009af9; stroke-linecap:round; stroke-linejoin:round; stroke-width:4; stroke-opacity:1; fill:none" points="1941.82,355.332 2001.9,384.991 "/>
<polyline clip-path="url(#clip131)" style="stroke:#009af9; stroke-linecap:round; stroke-linejoin:round; stroke-width:4; stroke-opacity:1; fill:none" points="2001.9,384.991 2063.68,419.611 "/>
<polyline clip-path="url(#clip131)" style="stroke:#009af9; stroke-linecap:round; stroke-linejoin:round; stroke-width:4; stroke-opacity:1; fill:none" points="2063.68,419.611 2116.88,452.791 "/>
<polyline clip-path="url(#clip131)" style="stroke:#009af9; stroke-linecap:round; stroke-linejoin:round; stroke-width:4; stroke-opacity:1; fill:none" points="2116.88,452.791 2162.46,485.585 "/>
<polyline clip-path="url(#clip131)" style="stroke:#009af9; stroke-linecap:round; stroke-linejoin:round; stroke-width:4; stroke-opacity:1; fill:none" points="2162.46,485.585 2200.85,517.721 "/>
<polyline clip-path="url(#clip131)" style="stroke:#009af9; stroke-linecap:round; stroke-linejoin:round; stroke-width:4; stroke-opacity:1; fill:none" points="2200.85,517.721 2232.32,549.247 "/>
<polyline clip-path="url(#clip131)" style="stroke:#009af9; stroke-linecap:round; stroke-linejoin:round; stroke-width:4; stroke-opacity:1; fill:none" points="2232.32,549.247 2257.04,580.571 "/>
<polyline clip-path="url(#clip131)" style="stroke:#009af9; stroke-linecap:round; stroke-linejoin:round; stroke-width:4; stroke-opacity:1; fill:none" points="2257.04,580.571 2275.14,611.232 "/>
<polyline clip-path="url(#clip131)" style="stroke:#009af9; stroke-linecap:round; stroke-linejoin:round; stroke-width:4; stroke-opacity:1; fill:none" points="2275.14,611.232 2286.75,641.574 "/>
<polyline clip-path="url(#clip131)" style="stroke:#009af9; stroke-linecap:round; stroke-linejoin:round; stroke-width:4; stroke-opacity:1; fill:none" points="2286.75,641.574 2292.01,671.737 "/>
<polyline clip-path="url(#clip131)" style="stroke:#009af9; stroke-linecap:round; stroke-linejoin:round; stroke-width:4; stroke-opacity:1; fill:none" points="2292.01,671.737 2292.38,682.015 "/>
<polyline clip-path="url(#clip131)" style="stroke:#009af9; stroke-linecap:round; stroke-linejoin:round; stroke-width:4; stroke-opacity:1; fill:none" points="2292.38,682.015 2289.34,711.801 "/>
<polyline clip-path="url(#clip131)" style="stroke:#009af9; stroke-linecap:round; stroke-linejoin:round; stroke-width:4; stroke-opacity:1; fill:none" points="2289.34,711.801 2280.32,741.328 "/>
<polyline clip-path="url(#clip131)" style="stroke:#009af9; stroke-linecap:round; stroke-linejoin:round; stroke-width:4; stroke-opacity:1; fill:none" points="2280.32,741.328 2265.55,770.594 "/>
<polyline clip-path="url(#clip131)" style="stroke:#009af9; stroke-linecap:round; stroke-linejoin:round; stroke-width:4; stroke-opacity:1; fill:none" points="2265.55,770.594 2245.25,799.842 "/>
<polyline clip-path="url(#clip131)" style="stroke:#009af9; stroke-linecap:round; stroke-linejoin:round; stroke-width:4; stroke-opacity:1; fill:none" points="2245.25,799.842 2219.69,829.114 "/>
<polyline clip-path="url(#clip131)" style="stroke:#009af9; stroke-linecap:round; stroke-linejoin:round; stroke-width:4; stroke-opacity:1; fill:none" points="2219.69,829.114 2189.17,858.47 "/>
<polyline clip-path="url(#clip131)" style="stroke:#009af9; stroke-linecap:round; stroke-linejoin:round; stroke-width:4; stroke-opacity:1; fill:none" points="2189.17,858.47 2154.02,887.983 "/>
<polyline clip-path="url(#clip131)" style="stroke:#009af9; stroke-linecap:round; stroke-linejoin:round; stroke-width:4; stroke-opacity:1; fill:none" points="2154.02,887.983 2114.65,917.742 "/>
<polyline clip-path="url(#clip131)" style="stroke:#009af9; stroke-linecap:round; stroke-linejoin:round; stroke-width:4; stroke-opacity:1; fill:none" points="2114.65,917.742 2071.48,947.847 "/>
<polyline clip-path="url(#clip131)" style="stroke:#009af9; stroke-linecap:round; stroke-linejoin:round; stroke-width:4; stroke-opacity:1; fill:none" points="2071.48,947.847 2025.02,978.413 "/>
<polyline clip-path="url(#clip131)" style="stroke:#009af9; stroke-linecap:round; stroke-linejoin:round; stroke-width:4; stroke-opacity:1; fill:none" points="2025.02,978.413 1975.82,1009.57 "/>
<polyline clip-path="url(#clip131)" style="stroke:#009af9; stroke-linecap:round; stroke-linejoin:round; stroke-width:4; stroke-opacity:1; fill:none" points="1975.82,1009.57 1924.52,1041.45 "/>
<polyline clip-path="url(#clip131)" style="stroke:#009af9; stroke-linecap:round; stroke-linejoin:round; stroke-width:4; stroke-opacity:1; fill:none" points="1924.52,1041.45 1871.83,1074.2 "/>
<polyline clip-path="url(#clip131)" style="stroke:#009af9; stroke-linecap:round; stroke-linejoin:round; stroke-width:4; stroke-opacity:1; fill:none" points="1871.83,1074.2 1818.54,1107.98 "/>
<polyline clip-path="url(#clip131)" style="stroke:#009af9; stroke-linecap:round; stroke-linejoin:round; stroke-width:4; stroke-opacity:1; fill:none" points="1818.54,1107.98 1765.56,1142.95 "/>
<polyline clip-path="url(#clip131)" style="stroke:#009af9; stroke-linecap:round; stroke-linejoin:round; stroke-width:4; stroke-opacity:1; fill:none" points="1765.56,1142.95 1713.85,1179.25 "/>
<polyline clip-path="url(#clip131)" style="stroke:#009af9; stroke-linecap:round; stroke-linejoin:round; stroke-width:4; stroke-opacity:1; fill:none" points="1713.85,1179.25 1664.49,1216.92 "/>
<polyline clip-path="url(#clip131)" style="stroke:#009af9; stroke-linecap:round; stroke-linejoin:round; stroke-width:4; stroke-opacity:1; fill:none" points="1664.49,1216.92 1618.61,1256.21 "/>
<polyline clip-path="url(#clip131)" style="stroke:#009af9; stroke-linecap:round; stroke-linejoin:round; stroke-width:4; stroke-opacity:1; fill:none" points="1618.61,1256.21 1577.39,1297.18 "/>
<polyline clip-path="url(#clip131)" style="stroke:#009af9; stroke-linecap:round; stroke-linejoin:round; stroke-width:4; stroke-opacity:1; fill:none" points="1577.39,1297.18 1542.02,1339.83 "/>
<polyline clip-path="url(#clip131)" style="stroke:#009af9; stroke-linecap:round; stroke-linejoin:round; stroke-width:4; stroke-opacity:1; fill:none" points="1542.02,1339.83 1513.61,1384.24 "/>
<circle clip-path="url(#clip131)" cx="1891.42" cy="332.307" r="10.8" fill="#ffa500" fill-rule="evenodd" fill-opacity="1" stroke="none"/>
<circle clip-path="url(#clip131)" cx="2292.38" cy="682.015" r="10.8" fill="#0000ff" fill-rule="evenodd" fill-opacity="1" stroke="none"/>
<circle clip-path="url(#clip131)" cx="1891.42" cy="332.307" r="10.8" fill="#ffa500" fill-rule="evenodd" fill-opacity="1" stroke="none"/>
<circle clip-path="url(#clip131)" cx="2292.38" cy="682.015" r="10.8" fill="#0000ff" fill-rule="evenodd" fill-opacity="1" stroke="none"/>
<path clip-path="url(#clip130)" d="M2015.04 1377.32 L2281.65 1377.32 L2281.65 1221.8 L2015.04 1221.8  Z" fill="#ffffff" fill-rule="evenodd" fill-opacity="1"/>
<polyline clip-path="url(#clip130)" style="stroke:#000000; stroke-linecap:round; stroke-linejoin:round; stroke-width:4; stroke-opacity:1; fill:none" points="2015.04,1377.32 2281.65,1377.32 2281.65,1221.8 2015.04,1221.8 2015.04,1377.32 "/>
<circle clip-path="url(#clip130)" cx="2109.85" cy="1273.64" r="23.04" fill="#ffa500" fill-rule="evenodd" fill-opacity="1" stroke="none"/>
<path clip-path="url(#clip130)" d="M2226.37 1275.27 L2226.37 1290.92 L2222.11 1290.92 L2222.11 1275.41 Q2222.11 1271.73 2220.68 1269.9 Q2219.24 1268.07 2216.37 1268.07 Q2212.92 1268.07 2210.93 1270.27 Q2208.94 1272.47 2208.94 1276.26 L2208.94 1290.92 L2204.66 1290.92 L2204.66 1264.99 L2208.94 1264.99 L2208.94 1269.02 Q2210.47 1266.68 2212.53 1265.52 Q2214.61 1264.36 2217.32 1264.36 Q2221.79 1264.36 2224.08 1267.14 Q2226.37 1269.9 2226.37 1275.27 Z" fill="#000000" fill-rule="nonzero" fill-opacity="1" /><path clip-path="url(#clip130)" d="M2251.39 1265.75 L2251.39 1269.78 Q2249.59 1268.86 2247.64 1268.39 Q2245.7 1267.93 2243.62 1267.93 Q2240.45 1267.93 2238.85 1268.9 Q2237.27 1269.87 2237.27 1271.82 Q2237.27 1273.3 2238.41 1274.16 Q2239.54 1274.99 2242.97 1275.75 L2244.43 1276.08 Q2248.96 1277.05 2250.86 1278.83 Q2252.78 1280.59 2252.78 1283.76 Q2252.78 1287.37 2249.91 1289.48 Q2247.07 1291.59 2242.07 1291.59 Q2239.98 1291.59 2237.71 1291.17 Q2235.47 1290.78 2232.97 1289.97 L2232.97 1285.57 Q2235.33 1286.79 2237.62 1287.42 Q2239.91 1288.02 2242.16 1288.02 Q2245.17 1288.02 2246.79 1287 Q2248.41 1285.96 2248.41 1284.09 Q2248.41 1282.35 2247.23 1281.42 Q2246.07 1280.5 2242.11 1279.64 L2240.63 1279.3 Q2236.67 1278.46 2234.91 1276.75 Q2233.15 1275.01 2233.15 1272 Q2233.15 1268.35 2235.75 1266.36 Q2238.34 1264.36 2243.11 1264.36 Q2245.47 1264.36 2247.55 1264.71 Q2249.64 1265.06 2251.39 1265.75 Z" fill="#000000" fill-rule="nonzero" fill-opacity="1" /><circle clip-path="url(#clip130)" cx="2109.85" cy="1325.48" r="23.04" fill="#0000ff" fill-rule="evenodd" fill-opacity="1" stroke="none"/>
<path clip-path="url(#clip130)" d="M2223.43 1329.82 Q2223.43 1325.12 2221.49 1322.45 Q2219.57 1319.77 2216.19 1319.77 Q2212.81 1319.77 2210.86 1322.45 Q2208.94 1325.12 2208.94 1329.82 Q2208.94 1334.51 2210.86 1337.2 Q2212.81 1339.86 2216.19 1339.86 Q2219.57 1339.86 2221.49 1337.2 Q2223.43 1334.51 2223.43 1329.82 M2208.94 1320.76 Q2210.28 1318.45 2212.32 1317.34 Q2214.38 1316.2 2217.23 1316.2 Q2221.95 1316.2 2224.89 1319.95 Q2227.85 1323.7 2227.85 1329.82 Q2227.85 1335.93 2224.89 1339.68 Q2221.95 1343.43 2217.23 1343.43 Q2214.38 1343.43 2212.32 1342.32 Q2210.28 1341.18 2208.94 1338.87 L2208.94 1342.76 L2204.66 1342.76 L2204.66 1306.74 L2208.94 1306.74 L2208.94 1320.76 Z" fill="#000000" fill-rule="nonzero" fill-opacity="1" /><path clip-path="url(#clip130)" d="M2239.03 1338.87 L2239.03 1352.62 L2234.75 1352.62 L2234.75 1316.83 L2239.03 1316.83 L2239.03 1320.76 Q2240.38 1318.45 2242.41 1317.34 Q2244.47 1316.2 2247.32 1316.2 Q2252.04 1316.2 2254.98 1319.95 Q2257.95 1323.7 2257.95 1329.82 Q2257.95 1335.93 2254.98 1339.68 Q2252.04 1343.43 2247.32 1343.43 Q2244.47 1343.43 2242.41 1342.32 Q2240.38 1341.18 2239.03 1338.87 M2253.52 1329.82 Q2253.52 1325.12 2251.58 1322.45 Q2249.66 1319.77 2246.28 1319.77 Q2242.9 1319.77 2240.95 1322.45 Q2239.03 1325.12 2239.03 1329.82 Q2239.03 1334.51 2240.95 1337.2 Q2242.9 1339.86 2246.28 1339.86 Q2249.66 1339.86 2251.58 1337.2 Q2253.52 1334.51 2253.52 1329.82 Z" fill="#000000" fill-rule="nonzero" fill-opacity="1" /></svg>
