<?xml version="1.0" encoding="utf-8"?>
<svg xmlns="http://www.w3.org/2000/svg" xmlns:xlink="http://www.w3.org/1999/xlink" width="600" height="400" viewBox="0 0 2400 1600">
<defs>
  <clipPath id="clip040">
    <rect x="0" y="0" width="2400" height="1600"/>
  </clipPath>
</defs>
<path clip-path="url(#clip040)" d="M0 1600 L2400 1600 L2400 0 L0 0  Z" fill="#ffffff" fill-rule="evenodd" fill-opacity="1"/>
<defs>
  <clipPath id="clip041">
    <rect x="219" y="47" width="2134" height="1377"/>
  </clipPath>
</defs>
<path clip-path="url(#clip040)" d="M219.519 1423.18 L2352.76 1423.18 L2352.76 47.2441 L219.519 47.2441  Z" fill="#ffffff" fill-rule="evenodd" fill-opacity="1"/>
<polyline clip-path="url(#clip041)" style="stroke:#000000; stroke-linecap:round; stroke-linejoin:round; stroke-width:2; stroke-opacity:0.1; fill:none" points="494.185,1423.18 494.185,47.2441 "/>
<polyline clip-path="url(#clip041)" style="stroke:#000000; stroke-linecap:round; stroke-linejoin:round; stroke-width:2; stroke-opacity:0.1; fill:none" points="922.768,1423.18 922.768,47.2441 "/>
<polyline clip-path="url(#clip041)" style="stroke:#000000; stroke-linecap:round; stroke-linejoin:round; stroke-width:2; stroke-opacity:0.1; fill:none" points="1351.35,1423.18 1351.35,47.2441 "/>
<polyline clip-path="url(#clip041)" style="stroke:#000000; stroke-linecap:round; stroke-linejoin:round; stroke-width:2; stroke-opacity:0.1; fill:none" points="1779.93,1423.18 1779.93,47.2441 "/>
<polyline clip-path="url(#clip041)" style="stroke:#000000; stroke-linecap:round; stroke-linejoin:round; stroke-width:2; stroke-opacity:0.1; fill:none" points="2208.52,1423.18 2208.52,47.2441 "/>
<polyline clip-path="url(#clip041)" style="stroke:#000000; stroke-linecap:round; stroke-linejoin:round; stroke-width:2; stroke-opacity:0.1; fill:none" points="219.519,1241.1 2352.76,1241.1 "/>
<polyline clip-path="url(#clip041)" style="stroke:#000000; stroke-linecap:round; stroke-linejoin:round; stroke-width:2; stroke-opacity:0.1; fill:none" points="219.519,999.713 2352.76,999.713 "/>
<polyline clip-path="url(#clip041)" style="stroke:#000000; stroke-linecap:round; stroke-linejoin:round; stroke-width:2; stroke-opacity:0.1; fill:none" points="219.519,758.33 2352.76,758.33 "/>
<polyline clip-path="url(#clip041)" style="stroke:#000000; stroke-linecap:round; stroke-linejoin:round; stroke-width:2; stroke-opacity:0.1; fill:none" points="219.519,516.947 2352.76,516.947 "/>
<polyline clip-path="url(#clip041)" style="stroke:#000000; stroke-linecap:round; stroke-linejoin:round; stroke-width:2; stroke-opacity:0.1; fill:none" points="219.519,275.564 2352.76,275.564 "/>
<polyline clip-path="url(#clip040)" style="stroke:#000000; stroke-linecap:round; stroke-linejoin:round; stroke-width:4; stroke-opacity:1; fill:none" points="219.519,1423.18 2352.76,1423.18 "/>
<polyline clip-path="url(#clip040)" style="stroke:#000000; stroke-linecap:round; stroke-linejoin:round; stroke-width:4; stroke-opacity:1; fill:none" points="494.185,1423.18 494.185,1404.28 "/>
<polyline clip-path="url(#clip040)" style="stroke:#000000; stroke-linecap:round; stroke-linejoin:round; stroke-width:4; stroke-opacity:1; fill:none" points="922.768,1423.18 922.768,1404.28 "/>
<polyline clip-path="url(#clip040)" style="stroke:#000000; stroke-linecap:round; stroke-linejoin:round; stroke-width:4; stroke-opacity:1; fill:none" points="1351.35,1423.18 1351.35,1404.28 "/>
<polyline clip-path="url(#clip040)" style="stroke:#000000; stroke-linecap:round; stroke-linejoin:round; stroke-width:4; stroke-opacity:1; fill:none" points="1779.93,1423.18 1779.93,1404.28 "/>
<polyline clip-path="url(#clip040)" style="stroke:#000000; stroke-linecap:round; stroke-linejoin:round; stroke-width:4; stroke-opacity:1; fill:none" points="2208.52,1423.18 2208.52,1404.28 "/>
<path clip-path="url(#clip040)" d="M456.407 1454.1 Q452.796 1454.1 450.968 1457.66 Q449.162 1461.2 449.162 1468.33 Q449.162 1475.44 450.968 1479.01 Q452.796 1482.55 456.407 1482.55 Q460.042 1482.55 461.847 1479.01 Q463.676 1475.44 463.676 1468.33 Q463.676 1461.2 461.847 1457.66 Q460.042 1454.1 456.407 1454.1 M456.407 1450.39 Q462.218 1450.39 465.273 1455 Q468.352 1459.58 468.352 1468.33 Q468.352 1477.06 465.273 1481.67 Q462.218 1486.25 456.407 1486.25 Q450.597 1486.25 447.519 1481.67 Q444.463 1477.06 444.463 1468.33 Q444.463 1459.58 447.519 1455 Q450.597 1450.39 456.407 1450.39 Z" fill="#000000" fill-rule="nonzero" fill-opacity="1" /><path clip-path="url(#clip040)" d="M476.569 1479.7 L481.454 1479.7 L481.454 1485.58 L476.569 1485.58 L476.569 1479.7 Z" fill="#000000" fill-rule="nonzero" fill-opacity="1" /><path clip-path="url(#clip040)" d="M490.458 1451.02 L512.68 1451.02 L512.68 1453.01 L500.134 1485.58 L495.25 1485.58 L507.055 1454.96 L490.458 1454.96 L490.458 1451.02 Z" fill="#000000" fill-rule="nonzero" fill-opacity="1" /><path clip-path="url(#clip040)" d="M532.379 1466.44 Q529.231 1466.44 527.379 1468.59 Q525.551 1470.74 525.551 1474.49 Q525.551 1478.22 527.379 1480.39 Q529.231 1482.55 532.379 1482.55 Q535.527 1482.55 537.356 1480.39 Q539.208 1478.22 539.208 1474.49 Q539.208 1470.74 537.356 1468.59 Q535.527 1466.44 532.379 1466.44 M541.662 1451.78 L541.662 1456.04 Q539.902 1455.21 538.097 1454.77 Q536.314 1454.33 534.555 1454.33 Q529.926 1454.33 527.472 1457.45 Q525.041 1460.58 524.694 1466.9 Q526.06 1464.89 528.12 1463.82 Q530.18 1462.73 532.657 1462.73 Q537.865 1462.73 540.875 1465.9 Q543.907 1469.05 543.907 1474.49 Q543.907 1479.82 540.759 1483.03 Q537.611 1486.25 532.379 1486.25 Q526.384 1486.25 523.213 1481.67 Q520.041 1477.06 520.041 1468.33 Q520.041 1460.14 523.93 1455.28 Q527.819 1450.39 534.37 1450.39 Q536.129 1450.39 537.912 1450.74 Q539.717 1451.09 541.662 1451.78 Z" fill="#000000" fill-rule="nonzero" fill-opacity="1" /><path clip-path="url(#clip040)" d="M885.118 1454.1 Q881.506 1454.1 879.678 1457.66 Q877.872 1461.2 877.872 1468.33 Q877.872 1475.44 879.678 1479.01 Q881.506 1482.55 885.118 1482.55 Q888.752 1482.55 890.557 1479.01 Q892.386 1475.44 892.386 1468.33 Q892.386 1461.2 890.557 1457.66 Q888.752 1454.1 885.118 1454.1 M885.118 1450.39 Q890.928 1450.39 893.983 1455 Q897.062 1459.58 897.062 1468.33 Q897.062 1477.06 893.983 1481.67 Q890.928 1486.25 885.118 1486.25 Q879.307 1486.25 876.229 1481.67 Q873.173 1477.06 873.173 1468.33 Q873.173 1459.58 876.229 1455 Q879.307 1450.39 885.118 1450.39 Z" fill="#000000" fill-rule="nonzero" fill-opacity="1" /><path clip-path="url(#clip040)" d="M905.28 1479.7 L910.164 1479.7 L910.164 1485.58 L905.28 1485.58 L905.28 1479.7 Z" fill="#000000" fill-rule="nonzero" fill-opacity="1" /><path clip-path="url(#clip040)" d="M919.168 1451.02 L941.39 1451.02 L941.39 1453.01 L928.844 1485.58 L923.96 1485.58 L935.765 1454.96 L919.168 1454.96 L919.168 1451.02 Z" fill="#000000" fill-rule="nonzero" fill-opacity="1" /><path clip-path="url(#clip040)" d="M960.511 1469.17 Q957.177 1469.17 955.256 1470.95 Q953.358 1472.73 953.358 1475.86 Q953.358 1478.98 955.256 1480.77 Q957.177 1482.55 960.511 1482.55 Q963.844 1482.55 965.765 1480.77 Q967.687 1478.96 967.687 1475.86 Q967.687 1472.73 965.765 1470.95 Q963.867 1469.17 960.511 1469.17 M955.835 1467.18 Q952.826 1466.44 951.136 1464.38 Q949.469 1462.32 949.469 1459.35 Q949.469 1455.21 952.409 1452.8 Q955.372 1450.39 960.511 1450.39 Q965.673 1450.39 968.613 1452.8 Q971.552 1455.21 971.552 1459.35 Q971.552 1462.32 969.862 1464.38 Q968.196 1466.44 965.21 1467.18 Q968.589 1467.96 970.464 1470.26 Q972.362 1472.55 972.362 1475.86 Q972.362 1480.88 969.284 1483.57 Q966.228 1486.25 960.511 1486.25 Q954.793 1486.25 951.714 1483.57 Q948.659 1480.88 948.659 1475.86 Q948.659 1472.55 950.557 1470.26 Q952.455 1467.96 955.835 1467.18 M954.122 1459.79 Q954.122 1462.48 955.789 1463.98 Q957.478 1465.49 960.511 1465.49 Q963.52 1465.49 965.21 1463.98 Q966.923 1462.48 966.923 1459.79 Q966.923 1457.11 965.21 1455.6 Q963.52 1454.1 960.511 1454.1 Q957.478 1454.1 955.789 1455.6 Q954.122 1457.11 954.122 1459.79 Z" fill="#000000" fill-rule="nonzero" fill-opacity="1" /><path clip-path="url(#clip040)" d="M1313.65 1454.1 Q1310.04 1454.1 1308.21 1457.66 Q1306.41 1461.2 1306.41 1468.33 Q1306.41 1475.44 1308.21 1479.01 Q1310.04 1482.55 1313.65 1482.55 Q1317.29 1482.55 1319.09 1479.01 Q1320.92 1475.44 1320.92 1468.33 Q1320.92 1461.2 1319.09 1457.66 Q1317.29 1454.1 1313.65 1454.1 M1313.65 1450.39 Q1319.46 1450.39 1322.52 1455 Q1325.6 1459.58 1325.6 1468.33 Q1325.6 1477.06 1322.52 1481.67 Q1319.46 1486.25 1313.65 1486.25 Q1307.84 1486.25 1304.77 1481.67 Q1301.71 1477.06 1301.71 1468.33 Q1301.71 1459.58 1304.77 1455 Q1307.84 1450.39 1313.65 1450.39 Z" fill="#000000" fill-rule="nonzero" fill-opacity="1" /><path clip-path="url(#clip040)" d="M1333.82 1479.7 L1338.7 1479.7 L1338.7 1485.58 L1333.82 1485.58 L1333.82 1479.7 Z" fill="#000000" fill-rule="nonzero" fill-opacity="1" /><path clip-path="url(#clip040)" d="M1358.89 1469.17 Q1355.55 1469.17 1353.63 1470.95 Q1351.73 1472.73 1351.73 1475.86 Q1351.73 1478.98 1353.63 1480.77 Q1355.55 1482.55 1358.89 1482.55 Q1362.22 1482.55 1364.14 1480.77 Q1366.06 1478.96 1366.06 1475.86 Q1366.06 1472.73 1364.14 1470.95 Q1362.24 1469.17 1358.89 1469.17 M1354.21 1467.18 Q1351.2 1466.44 1349.51 1464.38 Q1347.84 1462.32 1347.84 1459.35 Q1347.84 1455.21 1350.78 1452.8 Q1353.75 1450.39 1358.89 1450.39 Q1364.05 1450.39 1366.99 1452.8 Q1369.93 1455.21 1369.93 1459.35 Q1369.93 1462.32 1368.24 1464.38 Q1366.57 1466.44 1363.58 1467.18 Q1366.96 1467.96 1368.84 1470.26 Q1370.74 1472.55 1370.74 1475.86 Q1370.74 1480.88 1367.66 1483.57 Q1364.6 1486.25 1358.89 1486.25 Q1353.17 1486.25 1350.09 1483.57 Q1347.03 1480.88 1347.03 1475.86 Q1347.03 1472.55 1348.93 1470.26 Q1350.83 1467.96 1354.21 1467.18 M1352.5 1459.79 Q1352.5 1462.48 1354.16 1463.98 Q1355.85 1465.49 1358.89 1465.49 Q1361.89 1465.49 1363.58 1463.98 Q1365.3 1462.48 1365.3 1459.79 Q1365.3 1457.11 1363.58 1455.6 Q1361.89 1454.1 1358.89 1454.1 Q1355.85 1454.1 1354.16 1455.6 Q1352.5 1457.11 1352.5 1459.79 Z" fill="#000000" fill-rule="nonzero" fill-opacity="1" /><path clip-path="url(#clip040)" d="M1389.05 1454.1 Q1385.44 1454.1 1383.61 1457.66 Q1381.8 1461.2 1381.8 1468.33 Q1381.8 1475.44 1383.61 1479.01 Q1385.44 1482.55 1389.05 1482.55 Q1392.68 1482.55 1394.49 1479.01 Q1396.32 1475.44 1396.32 1468.33 Q1396.32 1461.2 1394.49 1457.66 Q1392.68 1454.1 1389.05 1454.1 M1389.05 1450.39 Q1394.86 1450.39 1397.91 1455 Q1400.99 1459.58 1400.99 1468.33 Q1400.99 1477.06 1397.91 1481.67 Q1394.86 1486.25 1389.05 1486.25 Q1383.24 1486.25 1380.16 1481.67 Q1377.1 1477.06 1377.1 1468.33 Q1377.1 1459.58 1380.16 1455 Q1383.24 1450.39 1389.05 1450.39 Z" fill="#000000" fill-rule="nonzero" fill-opacity="1" /><path clip-path="url(#clip040)" d="M1743.04 1454.1 Q1739.42 1454.1 1737.6 1457.66 Q1735.79 1461.2 1735.79 1468.33 Q1735.79 1475.44 1737.6 1479.01 Q1739.42 1482.55 1743.04 1482.55 Q1746.67 1482.55 1748.48 1479.01 Q1750.3 1475.44 1750.3 1468.33 Q1750.3 1461.2 1748.48 1457.66 Q1746.67 1454.1 1743.04 1454.1 M1743.04 1450.39 Q1748.85 1450.39 1751.9 1455 Q1754.98 1459.58 1754.98 1468.33 Q1754.98 1477.06 1751.9 1481.67 Q1748.85 1486.25 1743.04 1486.25 Q1737.23 1486.25 1734.15 1481.67 Q1731.09 1477.06 1731.09 1468.33 Q1731.09 1459.58 1734.15 1455 Q1737.23 1450.39 1743.04 1450.39 Z" fill="#000000" fill-rule="nonzero" fill-opacity="1" /><path clip-path="url(#clip040)" d="M1763.2 1479.7 L1768.08 1479.7 L1768.08 1485.58 L1763.2 1485.58 L1763.2 1479.7 Z" fill="#000000" fill-rule="nonzero" fill-opacity="1" /><path clip-path="url(#clip040)" d="M1788.27 1469.17 Q1784.93 1469.17 1783.01 1470.95 Q1781.11 1472.73 1781.11 1475.86 Q1781.11 1478.98 1783.01 1480.77 Q1784.93 1482.55 1788.27 1482.55 Q1791.6 1482.55 1793.52 1480.77 Q1795.44 1478.96 1795.44 1475.86 Q1795.44 1472.73 1793.52 1470.95 Q1791.62 1469.17 1788.27 1469.17 M1783.59 1467.18 Q1780.58 1466.44 1778.89 1464.38 Q1777.23 1462.32 1777.23 1459.35 Q1777.23 1455.21 1780.16 1452.8 Q1783.13 1450.39 1788.27 1450.39 Q1793.43 1450.39 1796.37 1452.8 Q1799.31 1455.21 1799.31 1459.35 Q1799.31 1462.32 1797.62 1464.38 Q1795.95 1466.44 1792.97 1467.18 Q1796.35 1467.96 1798.22 1470.26 Q1800.12 1472.55 1800.12 1475.86 Q1800.12 1480.88 1797.04 1483.57 Q1793.98 1486.25 1788.27 1486.25 Q1782.55 1486.25 1779.47 1483.57 Q1776.41 1480.88 1776.41 1475.86 Q1776.41 1472.55 1778.31 1470.26 Q1780.21 1467.96 1783.59 1467.18 M1781.88 1459.79 Q1781.88 1462.48 1783.54 1463.98 Q1785.23 1465.49 1788.27 1465.49 Q1791.28 1465.49 1792.97 1463.98 Q1794.68 1462.48 1794.68 1459.79 Q1794.68 1457.11 1792.97 1455.6 Q1791.28 1454.1 1788.27 1454.1 Q1785.23 1454.1 1783.54 1455.6 Q1781.88 1457.11 1781.88 1459.79 Z" fill="#000000" fill-rule="nonzero" fill-opacity="1" /><path clip-path="url(#clip040)" d="M1812.46 1481.64 L1828.78 1481.64 L1828.78 1485.58 L1806.83 1485.58 L1806.83 1481.64 Q1809.49 1478.89 1814.08 1474.26 Q1818.68 1469.61 1819.86 1468.27 Q1822.11 1465.74 1822.99 1464.01 Q1823.89 1462.25 1823.89 1460.56 Q1823.89 1457.8 1821.95 1456.07 Q1820.03 1454.33 1816.92 1454.33 Q1814.72 1454.33 1812.27 1455.09 Q1809.84 1455.86 1807.06 1457.41 L1807.06 1452.69 Q1809.89 1451.55 1812.34 1450.97 Q1814.79 1450.39 1816.83 1450.39 Q1822.2 1450.39 1825.4 1453.08 Q1828.59 1455.77 1828.59 1460.26 Q1828.59 1462.39 1827.78 1464.31 Q1826.99 1466.2 1824.89 1468.8 Q1824.31 1469.47 1821.21 1472.69 Q1818.1 1475.88 1812.46 1481.64 Z" fill="#000000" fill-rule="nonzero" fill-opacity="1" /><path clip-path="url(#clip040)" d="M2170.58 1454.1 Q2166.97 1454.1 2165.14 1457.66 Q2163.33 1461.2 2163.33 1468.33 Q2163.33 1475.44 2165.14 1479.01 Q2166.97 1482.55 2170.58 1482.55 Q2174.21 1482.55 2176.02 1479.01 Q2177.85 1475.44 2177.85 1468.33 Q2177.85 1461.2 2176.02 1457.66 Q2174.21 1454.1 2170.58 1454.1 M2170.58 1450.39 Q2176.39 1450.39 2179.44 1455 Q2182.52 1459.58 2182.52 1468.33 Q2182.52 1477.06 2179.44 1481.67 Q2176.39 1486.25 2170.58 1486.25 Q2164.77 1486.25 2161.69 1481.67 Q2158.63 1477.06 2158.63 1468.33 Q2158.63 1459.58 2161.69 1455 Q2164.77 1450.39 2170.58 1450.39 Z" fill="#000000" fill-rule="nonzero" fill-opacity="1" /><path clip-path="url(#clip040)" d="M2190.74 1479.7 L2195.62 1479.7 L2195.62 1485.58 L2190.74 1485.58 L2190.74 1479.7 Z" fill="#000000" fill-rule="nonzero" fill-opacity="1" /><path clip-path="url(#clip040)" d="M2215.81 1469.17 Q2212.47 1469.17 2210.55 1470.95 Q2208.66 1472.73 2208.66 1475.86 Q2208.66 1478.98 2210.55 1480.77 Q2212.47 1482.55 2215.81 1482.55 Q2219.14 1482.55 2221.06 1480.77 Q2222.98 1478.96 2222.98 1475.86 Q2222.98 1472.73 2221.06 1470.95 Q2219.16 1469.17 2215.81 1469.17 M2211.13 1467.18 Q2208.12 1466.44 2206.43 1464.38 Q2204.77 1462.32 2204.77 1459.35 Q2204.77 1455.21 2207.71 1452.8 Q2210.67 1450.39 2215.81 1450.39 Q2220.97 1450.39 2223.91 1452.8 Q2226.85 1455.21 2226.85 1459.35 Q2226.85 1462.32 2225.16 1464.38 Q2223.49 1466.44 2220.51 1467.18 Q2223.89 1467.96 2225.76 1470.26 Q2227.66 1472.55 2227.66 1475.86 Q2227.66 1480.88 2224.58 1483.57 Q2221.53 1486.25 2215.81 1486.25 Q2210.09 1486.25 2207.01 1483.57 Q2203.96 1480.88 2203.96 1475.86 Q2203.96 1472.55 2205.85 1470.26 Q2207.75 1467.96 2211.13 1467.18 M2209.42 1459.79 Q2209.42 1462.48 2211.09 1463.98 Q2212.78 1465.49 2215.81 1465.49 Q2218.82 1465.49 2220.51 1463.98 Q2222.22 1462.48 2222.22 1459.79 Q2222.22 1457.11 2220.51 1455.6 Q2218.82 1454.1 2215.81 1454.1 Q2212.78 1454.1 2211.09 1455.6 Q2209.42 1457.11 2209.42 1459.79 Z" fill="#000000" fill-rule="nonzero" fill-opacity="1" /><path clip-path="url(#clip040)" d="M2248.82 1455.09 L2237.01 1473.54 L2248.82 1473.54 L2248.82 1455.09 M2247.59 1451.02 L2253.47 1451.02 L2253.47 1473.54 L2258.4 1473.54 L2258.4 1477.43 L2253.47 1477.43 L2253.47 1485.58 L2248.82 1485.58 L2248.82 1477.43 L2233.22 1477.43 L2233.22 1472.92 L2247.59 1451.02 Z" fill="#000000" fill-rule="nonzero" fill-opacity="1" /><path clip-path="url(#clip040)" d="M1251.71 1518.52 L1257.6 1518.52 L1257.6 1547.77 L1275.08 1532.4 L1282.56 1532.4 L1263.65 1549.07 L1283.35 1568.04 L1275.71 1568.04 L1257.6 1550.63 L1257.6 1568.04 L1251.71 1568.04 L1251.71 1518.52 Z" fill="#000000" fill-rule="nonzero" fill-opacity="1" /><path clip-path="url(#clip040)" d="M1304.26 1545.48 Q1299.68 1545.48 1297.04 1547.93 Q1294.43 1550.38 1294.43 1554.68 Q1294.43 1558.97 1297.04 1561.42 Q1299.68 1563.87 1304.26 1563.87 Q1308.85 1563.87 1311.49 1561.42 Q1314.13 1558.94 1314.13 1554.68 Q1314.13 1550.38 1311.49 1547.93 Q1308.88 1545.48 1304.26 1545.48 M1297.83 1542.74 Q1293.7 1541.72 1291.37 1538.89 Q1289.08 1536.06 1289.08 1531.98 Q1289.08 1526.28 1293.12 1522.97 Q1297.2 1519.66 1304.26 1519.66 Q1311.36 1519.66 1315.4 1522.97 Q1319.45 1526.28 1319.45 1531.98 Q1319.45 1536.06 1317.12 1538.89 Q1314.83 1541.72 1310.73 1542.74 Q1315.37 1543.82 1317.95 1546.97 Q1320.56 1550.12 1320.56 1554.68 Q1320.56 1561.58 1316.33 1565.27 Q1312.13 1568.97 1304.26 1568.97 Q1296.4 1568.97 1292.17 1565.27 Q1287.97 1561.58 1287.97 1554.68 Q1287.97 1550.12 1290.58 1546.97 Q1293.19 1543.82 1297.83 1542.74 M1295.48 1532.59 Q1295.48 1536.28 1297.77 1538.35 Q1300.09 1540.42 1304.26 1540.42 Q1308.4 1540.42 1310.73 1538.35 Q1313.08 1536.28 1313.08 1532.59 Q1313.08 1528.89 1310.73 1526.83 Q1308.4 1524.76 1304.26 1524.76 Q1300.09 1524.76 1297.77 1526.83 Q1295.48 1528.89 1295.48 1532.59 Z" fill="#000000" fill-rule="nonzero" fill-opacity="1" /><polyline clip-path="url(#clip040)" style="stroke:#000000; stroke-linecap:round; stroke-linejoin:round; stroke-width:4; stroke-opacity:1; fill:none" points="219.519,1423.18 219.519,47.2441 "/>
<polyline clip-path="url(#clip040)" style="stroke:#000000; stroke-linecap:round; stroke-linejoin:round; stroke-width:4; stroke-opacity:1; fill:none" points="219.519,1241.1 238.417,1241.1 "/>
<polyline clip-path="url(#clip040)" style="stroke:#000000; stroke-linecap:round; stroke-linejoin:round; stroke-width:4; stroke-opacity:1; fill:none" points="219.519,999.713 238.417,999.713 "/>
<polyline clip-path="url(#clip040)" style="stroke:#000000; stroke-linecap:round; stroke-linejoin:round; stroke-width:4; stroke-opacity:1; fill:none" points="219.519,758.33 238.417,758.33 "/>
<polyline clip-path="url(#clip040)" style="stroke:#000000; stroke-linecap:round; stroke-linejoin:round; stroke-width:4; stroke-opacity:1; fill:none" points="219.519,516.947 238.417,516.947 "/>
<polyline clip-path="url(#clip040)" style="stroke:#000000; stroke-linecap:round; stroke-linejoin:round; stroke-width:4; stroke-opacity:1; fill:none" points="219.519,275.564 238.417,275.564 "/>
<path clip-path="url(#clip040)" d="M116.158 1223.82 L138.38 1223.82 L138.38 1225.81 L125.834 1258.38 L120.95 1258.38 L132.755 1227.75 L116.158 1227.75 L116.158 1223.82 Z" fill="#000000" fill-rule="nonzero" fill-opacity="1" /><path clip-path="url(#clip040)" d="M147.501 1252.5 L152.385 1252.5 L152.385 1258.38 L147.501 1258.38 L147.501 1252.5 Z" fill="#000000" fill-rule="nonzero" fill-opacity="1" /><path clip-path="url(#clip040)" d="M162.616 1223.82 L180.973 1223.82 L180.973 1227.75 L166.899 1227.75 L166.899 1236.22 Q167.917 1235.88 168.936 1235.71 Q169.954 1235.53 170.973 1235.53 Q176.76 1235.53 180.139 1238.7 Q183.519 1241.87 183.519 1247.29 Q183.519 1252.87 180.047 1255.97 Q176.575 1259.05 170.255 1259.05 Q168.079 1259.05 165.811 1258.68 Q163.565 1258.31 161.158 1257.57 L161.158 1252.87 Q163.241 1254 165.464 1254.56 Q167.686 1255.11 170.163 1255.11 Q174.167 1255.11 176.505 1253.01 Q178.843 1250.9 178.843 1247.29 Q178.843 1243.68 176.505 1241.57 Q174.167 1239.46 170.163 1239.46 Q168.288 1239.46 166.413 1239.88 Q164.561 1240.3 162.616 1241.18 L162.616 1223.82 Z" fill="#000000" fill-rule="nonzero" fill-opacity="1" /><path clip-path="url(#clip040)" d="M126.343 1000.58 Q123.01 1000.58 121.089 1002.36 Q119.191 1004.15 119.191 1007.27 Q119.191 1010.4 121.089 1012.18 Q123.01 1013.96 126.343 1013.96 Q129.677 1013.96 131.598 1012.18 Q133.519 1010.37 133.519 1007.27 Q133.519 1004.15 131.598 1002.36 Q129.7 1000.58 126.343 1000.58 M121.668 998.59 Q118.658 997.849 116.968 995.789 Q115.302 993.729 115.302 990.766 Q115.302 986.622 118.242 984.215 Q121.205 981.808 126.343 981.808 Q131.505 981.808 134.445 984.215 Q137.385 986.622 137.385 990.766 Q137.385 993.729 135.695 995.789 Q134.029 997.849 131.042 998.59 Q134.422 999.377 136.297 1001.67 Q138.195 1003.96 138.195 1007.27 Q138.195 1012.29 135.117 1014.98 Q132.061 1017.66 126.343 1017.66 Q120.626 1017.66 117.547 1014.98 Q114.492 1012.29 114.492 1007.27 Q114.492 1003.96 116.39 1001.67 Q118.288 999.377 121.668 998.59 M119.955 991.206 Q119.955 993.891 121.621 995.395 Q123.311 996.9 126.343 996.9 Q129.353 996.9 131.042 995.395 Q132.755 993.891 132.755 991.206 Q132.755 988.521 131.042 987.016 Q129.353 985.511 126.343 985.511 Q123.311 985.511 121.621 987.016 Q119.955 988.521 119.955 991.206 Z" fill="#000000" fill-rule="nonzero" fill-opacity="1" /><path clip-path="url(#clip040)" d="M146.505 1011.11 L151.39 1011.11 L151.39 1016.99 L146.505 1016.99 L146.505 1011.11 Z" fill="#000000" fill-rule="nonzero" fill-opacity="1" /><path clip-path="url(#clip040)" d="M171.575 985.511 Q167.964 985.511 166.135 989.076 Q164.329 992.618 164.329 999.747 Q164.329 1006.85 166.135 1010.42 Q167.964 1013.96 171.575 1013.96 Q175.209 1013.96 177.014 1010.42 Q178.843 1006.85 178.843 999.747 Q178.843 992.618 177.014 989.076 Q175.209 985.511 171.575 985.511 M171.575 981.808 Q177.385 981.808 180.44 986.414 Q183.519 990.997 183.519 999.747 Q183.519 1008.47 180.44 1013.08 Q177.385 1017.66 171.575 1017.66 Q165.765 1017.66 162.686 1013.08 Q159.63 1008.47 159.63 999.747 Q159.63 990.997 162.686 986.414 Q165.765 981.808 171.575 981.808 Z" fill="#000000" fill-rule="nonzero" fill-opacity="1" /><path clip-path="url(#clip040)" d="M127.339 759.198 Q124.005 759.198 122.084 760.98 Q120.186 762.763 120.186 765.888 Q120.186 769.013 122.084 770.795 Q124.005 772.577 127.339 772.577 Q130.672 772.577 132.593 770.795 Q134.515 768.989 134.515 765.888 Q134.515 762.763 132.593 760.98 Q130.695 759.198 127.339 759.198 M122.663 757.207 Q119.654 756.466 117.964 754.406 Q116.297 752.346 116.297 749.383 Q116.297 745.24 119.237 742.832 Q122.2 740.425 127.339 740.425 Q132.501 740.425 135.441 742.832 Q138.38 745.24 138.38 749.383 Q138.38 752.346 136.691 754.406 Q135.024 756.466 132.038 757.207 Q135.417 757.994 137.292 760.286 Q139.191 762.577 139.191 765.888 Q139.191 770.911 136.112 773.596 Q133.056 776.281 127.339 776.281 Q121.621 776.281 118.543 773.596 Q115.487 770.911 115.487 765.888 Q115.487 762.577 117.385 760.286 Q119.283 757.994 122.663 757.207 M120.95 749.823 Q120.95 752.508 122.617 754.013 Q124.306 755.517 127.339 755.517 Q130.348 755.517 132.038 754.013 Q133.751 752.508 133.751 749.823 Q133.751 747.138 132.038 745.633 Q130.348 744.128 127.339 744.128 Q124.306 744.128 122.617 745.633 Q120.95 747.138 120.95 749.823 Z" fill="#000000" fill-rule="nonzero" fill-opacity="1" /><path clip-path="url(#clip040)" d="M147.501 769.73 L152.385 769.73 L152.385 775.61 L147.501 775.61 L147.501 769.73 Z" fill="#000000" fill-rule="nonzero" fill-opacity="1" /><path clip-path="url(#clip040)" d="M162.616 741.05 L180.973 741.05 L180.973 744.985 L166.899 744.985 L166.899 753.457 Q167.917 753.11 168.936 752.948 Q169.954 752.763 170.973 752.763 Q176.76 752.763 180.139 755.934 Q183.519 759.105 183.519 764.522 Q183.519 770.101 180.047 773.202 Q176.575 776.281 170.255 776.281 Q168.079 776.281 165.811 775.911 Q163.565 775.54 161.158 774.8 L161.158 770.101 Q163.241 771.235 165.464 771.79 Q167.686 772.346 170.163 772.346 Q174.167 772.346 176.505 770.239 Q178.843 768.133 178.843 764.522 Q178.843 760.911 176.505 758.804 Q174.167 756.698 170.163 756.698 Q168.288 756.698 166.413 757.115 Q164.561 757.531 162.616 758.411 L162.616 741.05 Z" fill="#000000" fill-rule="nonzero" fill-opacity="1" /><path clip-path="url(#clip040)" d="M116.482 533.509 L116.482 529.25 Q118.242 530.083 120.047 530.523 Q121.853 530.963 123.589 530.963 Q128.218 530.963 130.649 527.861 Q133.103 524.736 133.45 518.394 Q132.107 520.384 130.047 521.449 Q127.987 522.514 125.487 522.514 Q120.302 522.514 117.269 519.389 Q114.26 516.241 114.26 510.801 Q114.26 505.477 117.408 502.26 Q120.556 499.042 125.788 499.042 Q131.783 499.042 134.931 503.648 Q138.103 508.232 138.103 516.982 Q138.103 525.153 134.214 530.037 Q130.348 534.898 123.797 534.898 Q122.038 534.898 120.232 534.551 Q118.427 534.204 116.482 533.509 M125.788 518.857 Q128.936 518.857 130.765 516.704 Q132.617 514.551 132.617 510.801 Q132.617 507.074 130.765 504.922 Q128.936 502.746 125.788 502.746 Q122.64 502.746 120.788 504.922 Q118.959 507.074 118.959 510.801 Q118.959 514.551 120.788 516.704 Q122.64 518.857 125.788 518.857 Z" fill="#000000" fill-rule="nonzero" fill-opacity="1" /><path clip-path="url(#clip040)" d="M146.505 528.347 L151.39 528.347 L151.39 534.227 L146.505 534.227 L146.505 528.347 Z" fill="#000000" fill-rule="nonzero" fill-opacity="1" /><path clip-path="url(#clip040)" d="M171.575 502.746 Q167.964 502.746 166.135 506.31 Q164.329 509.852 164.329 516.982 Q164.329 524.088 166.135 527.653 Q167.964 531.195 171.575 531.195 Q175.209 531.195 177.014 527.653 Q178.843 524.088 178.843 516.982 Q178.843 509.852 177.014 506.31 Q175.209 502.746 171.575 502.746 M171.575 499.042 Q177.385 499.042 180.44 503.648 Q183.519 508.232 183.519 516.982 Q183.519 525.709 180.44 530.315 Q177.385 534.898 171.575 534.898 Q165.765 534.898 162.686 530.315 Q159.63 525.709 159.63 516.982 Q159.63 508.232 162.686 503.648 Q165.765 499.042 171.575 499.042 Z" fill="#000000" fill-rule="nonzero" fill-opacity="1" /><path clip-path="url(#clip040)" d="M117.478 292.127 L117.478 287.867 Q119.237 288.701 121.043 289.14 Q122.848 289.58 124.584 289.58 Q129.214 289.58 131.644 286.478 Q134.098 283.353 134.445 277.011 Q133.103 279.002 131.042 280.066 Q128.982 281.131 126.482 281.131 Q121.297 281.131 118.265 278.006 Q115.256 274.858 115.256 269.418 Q115.256 264.094 118.404 260.877 Q121.552 257.659 126.783 257.659 Q132.779 257.659 135.927 262.266 Q139.098 266.849 139.098 275.599 Q139.098 283.77 135.209 288.654 Q131.343 293.515 124.793 293.515 Q123.033 293.515 121.228 293.168 Q119.422 292.821 117.478 292.127 M126.783 277.474 Q129.931 277.474 131.76 275.321 Q133.612 273.168 133.612 269.418 Q133.612 265.692 131.76 263.539 Q129.931 261.363 126.783 261.363 Q123.635 261.363 121.783 263.539 Q119.955 265.692 119.955 269.418 Q119.955 273.168 121.783 275.321 Q123.635 277.474 126.783 277.474 Z" fill="#000000" fill-rule="nonzero" fill-opacity="1" /><path clip-path="url(#clip040)" d="M147.501 286.965 L152.385 286.965 L152.385 292.844 L147.501 292.844 L147.501 286.965 Z" fill="#000000" fill-rule="nonzero" fill-opacity="1" /><path clip-path="url(#clip040)" d="M162.616 258.284 L180.973 258.284 L180.973 262.219 L166.899 262.219 L166.899 270.692 Q167.917 270.344 168.936 270.182 Q169.954 269.997 170.973 269.997 Q176.76 269.997 180.139 273.168 Q183.519 276.34 183.519 281.756 Q183.519 287.335 180.047 290.437 Q176.575 293.515 170.255 293.515 Q168.079 293.515 165.811 293.145 Q163.565 292.775 161.158 292.034 L161.158 287.335 Q163.241 288.469 165.464 289.025 Q167.686 289.58 170.163 289.58 Q174.167 289.58 176.505 287.474 Q178.843 285.367 178.843 281.756 Q178.843 278.145 176.505 276.039 Q174.167 273.932 170.163 273.932 Q168.288 273.932 166.413 274.349 Q164.561 274.766 162.616 275.645 L162.616 258.284 Z" fill="#000000" fill-rule="nonzero" fill-opacity="1" /><path clip-path="url(#clip040)" d="M35.1993 774.218 Q31.2526 772.022 29.3747 768.966 Q27.4968 765.911 27.4968 761.773 Q27.4968 756.203 31.4117 753.179 Q35.2948 750.155 42.4881 750.155 L64.0042 750.155 L64.0042 756.044 L42.679 756.044 Q37.5546 756.044 35.072 757.858 Q32.5894 759.672 32.5894 763.396 Q32.5894 767.948 35.6131 770.589 Q38.6368 773.231 43.8567 773.231 L64.0042 773.231 L64.0042 779.119 L42.679 779.119 Q37.5228 779.119 35.072 780.934 Q32.5894 782.748 32.5894 786.535 Q32.5894 791.023 35.6449 793.665 Q38.6686 796.307 43.8567 796.307 L64.0042 796.307 L64.0042 802.195 L28.3562 802.195 L28.3562 796.307 L33.8944 796.307 Q30.616 794.302 29.0564 791.501 Q27.4968 788.7 27.4968 784.849 Q27.4968 780.965 29.4702 778.26 Q31.4436 775.523 35.1993 774.218 Z" fill="#000000" fill-rule="nonzero" fill-opacity="1" /><path clip-path="url(#clip040)" d="M46.0847 722.274 Q46.0847 729.371 47.7079 732.109 Q49.3312 734.846 53.2461 734.846 Q56.3653 734.846 58.2114 732.809 Q60.0256 730.74 60.0256 727.207 Q60.0256 722.337 56.5881 719.409 Q53.1188 716.449 47.3897 716.449 L46.0847 716.449 L46.0847 722.274 M43.6657 710.593 L64.0042 710.593 L64.0042 716.449 L58.5933 716.449 Q61.8398 718.454 63.3994 721.446 Q64.9272 724.438 64.9272 728.767 Q64.9272 734.241 61.8716 737.488 Q58.7843 740.702 53.6281 740.702 Q47.6125 740.702 44.5569 736.692 Q41.5014 732.65 41.5014 724.661 L41.5014 716.449 L40.9285 716.449 Q36.8862 716.449 34.6901 719.123 Q32.4621 721.764 32.4621 726.571 Q32.4621 729.626 33.1941 732.522 Q33.9262 735.419 35.3903 738.092 L29.9795 738.092 Q28.7381 734.878 28.1334 731.854 Q27.4968 728.83 27.4968 725.966 Q27.4968 718.231 31.5072 714.412 Q35.5176 710.593 43.6657 710.593 Z" fill="#000000" fill-rule="nonzero" fill-opacity="1" /><path clip-path="url(#clip040)" d="M28.3562 668.897 L45.7028 681.788 L64.0042 668.229 L64.0042 675.136 L49.9996 685.512 L64.0042 695.888 L64.0042 702.795 L45.3526 688.949 L28.3562 701.617 L28.3562 694.71 L41.0558 685.257 L28.3562 675.804 L28.3562 668.897 Z" fill="#000000" fill-rule="nonzero" fill-opacity="1" /><polyline clip-path="url(#clip041)" style="stroke:#009af9; stroke-linecap:round; stroke-linejoin:round; stroke-width:8; stroke-opacity:1; fill:none" points="279.894,86.1857 287.37,87.3932 "/>
<polyline clip-path="url(#clip041)" style="stroke:#009af9; stroke-linecap:round; stroke-linejoin:round; stroke-width:8; stroke-opacity:1; fill:none" points="287.37,87.3932 297.233,88.9871 "/>
<polyline clip-path="url(#clip041)" style="stroke:#009af9; stroke-linecap:round; stroke-linejoin:round; stroke-width:8; stroke-opacity:1; fill:none" points="297.233,88.9871 310.243,91.091 "/>
<polyline clip-path="url(#clip041)" style="stroke:#009af9; stroke-linecap:round; stroke-linejoin:round; stroke-width:8; stroke-opacity:1; fill:none" points="310.243,91.091 327.399,93.8679 "/>
<polyline clip-path="url(#clip041)" style="stroke:#009af9; stroke-linecap:round; stroke-linejoin:round; stroke-width:8; stroke-opacity:1; fill:none" points="327.399,93.8679 350.016,97.5329 "/>
<polyline clip-path="url(#clip041)" style="stroke:#009af9; stroke-linecap:round; stroke-linejoin:round; stroke-width:8; stroke-opacity:1; fill:none" points="350.016,97.5329 379.815,102.369 "/>
<polyline clip-path="url(#clip041)" style="stroke:#009af9; stroke-linecap:round; stroke-linejoin:round; stroke-width:8; stroke-opacity:1; fill:none" points="379.815,102.369 419.051,108.75 "/>
<polyline clip-path="url(#clip041)" style="stroke:#009af9; stroke-linecap:round; stroke-linejoin:round; stroke-width:8; stroke-opacity:1; fill:none" points="419.051,108.75 470.658,117.166 "/>
<polyline clip-path="url(#clip041)" style="stroke:#009af9; stroke-linecap:round; stroke-linejoin:round; stroke-width:8; stroke-opacity:1; fill:none" points="470.658,117.166 538.428,128.256 "/>
<polyline clip-path="url(#clip041)" style="stroke:#009af9; stroke-linecap:round; stroke-linejoin:round; stroke-width:8; stroke-opacity:1; fill:none" points="538.428,128.256 627.216,142.859 "/>
<polyline clip-path="url(#clip041)" style="stroke:#009af9; stroke-linecap:round; stroke-linejoin:round; stroke-width:8; stroke-opacity:1; fill:none" points="627.216,142.859 743.109,162.046 "/>
<polyline clip-path="url(#clip041)" style="stroke:#009af9; stroke-linecap:round; stroke-linejoin:round; stroke-width:8; stroke-opacity:1; fill:none" points="743.109,162.046 893.515,187.178 "/>
<polyline clip-path="url(#clip041)" style="stroke:#009af9; stroke-linecap:round; stroke-linejoin:round; stroke-width:8; stroke-opacity:1; fill:none" points="893.515,187.178 1076.14,218.081 "/>
<polyline clip-path="url(#clip041)" style="stroke:#009af9; stroke-linecap:round; stroke-linejoin:round; stroke-width:8; stroke-opacity:1; fill:none" points="1076.14,218.081 1295.67,255.987 "/>
<polyline clip-path="url(#clip041)" style="stroke:#009af9; stroke-linecap:round; stroke-linejoin:round; stroke-width:8; stroke-opacity:1; fill:none" points="1295.67,255.987 1558.51,303.764 "/>
<polyline clip-path="url(#clip041)" style="stroke:#009af9; stroke-linecap:round; stroke-linejoin:round; stroke-width:8; stroke-opacity:1; fill:none" points="1558.51,303.764 1641.78,320.878 "/>
<polyline clip-path="url(#clip041)" style="stroke:#009af9; stroke-linecap:round; stroke-linejoin:round; stroke-width:8; stroke-opacity:1; fill:none" points="1641.78,320.878 1703.58,336.001 "/>
<polyline clip-path="url(#clip041)" style="stroke:#009af9; stroke-linecap:round; stroke-linejoin:round; stroke-width:8; stroke-opacity:1; fill:none" points="1703.58,336.001 1805.23,372.577 "/>
<polyline clip-path="url(#clip041)" style="stroke:#009af9; stroke-linecap:round; stroke-linejoin:round; stroke-width:8; stroke-opacity:1; fill:none" points="1805.23,372.577 1839.48,389.139 "/>
<polyline clip-path="url(#clip041)" style="stroke:#009af9; stroke-linecap:round; stroke-linejoin:round; stroke-width:8; stroke-opacity:1; fill:none" points="1839.48,389.139 1870.93,405.911 "/>
<polyline clip-path="url(#clip041)" style="stroke:#009af9; stroke-linecap:round; stroke-linejoin:round; stroke-width:8; stroke-opacity:1; fill:none" points="1870.93,405.911 1891.69,417.686 "/>
<polyline clip-path="url(#clip041)" style="stroke:#009af9; stroke-linecap:round; stroke-linejoin:round; stroke-width:4; stroke-opacity:1; fill:none" points="1891.69,417.686 1927.86,439.396 "/>
<polyline clip-path="url(#clip041)" style="stroke:#009af9; stroke-linecap:round; stroke-linejoin:round; stroke-width:4; stroke-opacity:1; fill:none" points="1927.86,439.396 1966.19,464.004 "/>
<polyline clip-path="url(#clip041)" style="stroke:#009af9; stroke-linecap:round; stroke-linejoin:round; stroke-width:4; stroke-opacity:1; fill:none" points="1966.19,464.004 2007.19,492.203 "/>
<polyline clip-path="url(#clip041)" style="stroke:#009af9; stroke-linecap:round; stroke-linejoin:round; stroke-width:4; stroke-opacity:1; fill:none" points="2007.19,492.203 2051.28,524.946 "/>
<polyline clip-path="url(#clip041)" style="stroke:#009af9; stroke-linecap:round; stroke-linejoin:round; stroke-width:4; stroke-opacity:1; fill:none" points="2051.28,524.946 2098.65,563.565 "/>
<polyline clip-path="url(#clip041)" style="stroke:#009af9; stroke-linecap:round; stroke-linejoin:round; stroke-width:4; stroke-opacity:1; fill:none" points="2098.65,563.565 2140.34,601.477 "/>
<polyline clip-path="url(#clip041)" style="stroke:#009af9; stroke-linecap:round; stroke-linejoin:round; stroke-width:4; stroke-opacity:1; fill:none" points="2140.34,601.477 2177.73,639.955 "/>
<polyline clip-path="url(#clip041)" style="stroke:#009af9; stroke-linecap:round; stroke-linejoin:round; stroke-width:4; stroke-opacity:1; fill:none" points="2177.73,639.955 2211.41,680.165 "/>
<polyline clip-path="url(#clip041)" style="stroke:#009af9; stroke-linecap:round; stroke-linejoin:round; stroke-width:4; stroke-opacity:1; fill:none" points="2211.41,680.165 2241.29,723.362 "/>
<polyline clip-path="url(#clip041)" style="stroke:#009af9; stroke-linecap:round; stroke-linejoin:round; stroke-width:4; stroke-opacity:1; fill:none" points="2241.29,723.362 2266.45,770.979 "/>
<polyline clip-path="url(#clip041)" style="stroke:#009af9; stroke-linecap:round; stroke-linejoin:round; stroke-width:4; stroke-opacity:1; fill:none" points="2266.45,770.979 2284.77,824.693 "/>
<polyline clip-path="url(#clip041)" style="stroke:#009af9; stroke-linecap:round; stroke-linejoin:round; stroke-width:4; stroke-opacity:1; fill:none" points="2284.77,824.693 2292.38,886.262 "/>
<polyline clip-path="url(#clip041)" style="stroke:#009af9; stroke-linecap:round; stroke-linejoin:round; stroke-width:4; stroke-opacity:1; fill:none" points="2292.38,886.262 2292.38,887.521 "/>
<polyline clip-path="url(#clip041)" style="stroke:#009af9; stroke-linecap:round; stroke-linejoin:round; stroke-width:4; stroke-opacity:1; fill:none" points="2292.38,887.521 2283.01,958.051 "/>
<polyline clip-path="url(#clip041)" style="stroke:#009af9; stroke-linecap:round; stroke-linejoin:round; stroke-width:4; stroke-opacity:1; fill:none" points="2283.01,958.051 2250.4,1037.32 "/>
<polyline clip-path="url(#clip041)" style="stroke:#009af9; stroke-linecap:round; stroke-linejoin:round; stroke-width:4; stroke-opacity:1; fill:none" points="2250.4,1037.32 2191.68,1122.13 "/>
<polyline clip-path="url(#clip041)" style="stroke:#009af9; stroke-linecap:round; stroke-linejoin:round; stroke-width:4; stroke-opacity:1; fill:none" points="2191.68,1122.13 2110.37,1208.98 "/>
<polyline clip-path="url(#clip041)" style="stroke:#009af9; stroke-linecap:round; stroke-linejoin:round; stroke-width:4; stroke-opacity:1; fill:none" points="2110.37,1208.98 2013.75,1296.15 "/>
<polyline clip-path="url(#clip041)" style="stroke:#009af9; stroke-linecap:round; stroke-linejoin:round; stroke-width:4; stroke-opacity:1; fill:none" points="2013.75,1296.15 1908.97,1384.24 "/>
<circle clip-path="url(#clip041)" cx="1891.69" cy="417.686" r="10.8" fill="#ffa500" fill-rule="evenodd" fill-opacity="1" stroke="none"/>
<circle clip-path="url(#clip041)" cx="2292.38" cy="887.521" r="10.8" fill="#0000ff" fill-rule="evenodd" fill-opacity="1" stroke="none"/>
<circle clip-path="url(#clip041)" cx="1891.69" cy="417.686" r="10.8" fill="#ffa500" fill-rule="evenodd" fill-opacity="1" stroke="none"/>
<circle clip-path="url(#clip041)" cx="2292.38" cy="887.521" r="10.8" fill="#0000ff" fill-rule="evenodd" fill-opacity="1" stroke="none"/>
<path clip-path="url(#clip040)" d="M290.627 1377.32 L557.237 1377.32 L557.237 1221.8 L290.627 1221.8  Z" fill="#ffffff" fill-rule="evenodd" fill-opacity="1"/>
<polyline clip-path="url(#clip040)" style="stroke:#000000; stroke-linecap:round; stroke-linejoin:round; stroke-width:4; stroke-opacity:1; fill:none" points="290.627,1377.32 557.237,1377.32 557.237,1221.8 290.627,1221.8 290.627,1377.32 "/>
<circle clip-path="url(#clip040)" cx="385.437" cy="1273.64" r="23.04" fill="#ffa500" fill-rule="evenodd" fill-opacity="1" stroke="none"/>
<path clip-path="url(#clip040)" d="M501.961 1275.27 L501.961 1290.92 L497.702 1290.92 L497.702 1275.41 Q497.702 1271.73 496.266 1269.9 Q494.831 1268.07 491.961 1268.07 Q488.512 1268.07 486.521 1270.27 Q484.53 1272.47 484.53 1276.26 L484.53 1290.92 L480.248 1290.92 L480.248 1264.99 L484.53 1264.99 L484.53 1269.02 Q486.058 1266.68 488.118 1265.52 Q490.202 1264.36 492.91 1264.36 Q497.378 1264.36 499.669 1267.14 Q501.961 1269.9 501.961 1275.27 Z" fill="#000000" fill-rule="nonzero" fill-opacity="1" /><path clip-path="url(#clip040)" d="M526.984 1265.75 L526.984 1269.78 Q525.178 1268.86 523.234 1268.39 Q521.289 1267.93 519.206 1267.93 Q516.035 1267.93 514.438 1268.9 Q512.864 1269.87 512.864 1271.82 Q512.864 1273.3 513.998 1274.16 Q515.132 1274.99 518.558 1275.75 L520.016 1276.08 Q524.553 1277.05 526.451 1278.83 Q528.373 1280.59 528.373 1283.76 Q528.373 1287.37 525.502 1289.48 Q522.655 1291.59 517.655 1291.59 Q515.572 1291.59 513.303 1291.17 Q511.058 1290.78 508.558 1289.97 L508.558 1285.57 Q510.919 1286.79 513.211 1287.42 Q515.502 1288.02 517.748 1288.02 Q520.757 1288.02 522.377 1287 Q523.998 1285.96 523.998 1284.09 Q523.998 1282.35 522.817 1281.42 Q521.66 1280.5 517.701 1279.64 L516.22 1279.3 Q512.262 1278.46 510.502 1276.75 Q508.743 1275.01 508.743 1272 Q508.743 1268.35 511.336 1266.36 Q513.928 1264.36 518.697 1264.36 Q521.058 1264.36 523.141 1264.71 Q525.225 1265.06 526.984 1265.75 Z" fill="#000000" fill-rule="nonzero" fill-opacity="1" /><circle clip-path="url(#clip040)" cx="385.437" cy="1325.48" r="23.04" fill="#0000ff" fill-rule="evenodd" fill-opacity="1" stroke="none"/>
<path clip-path="url(#clip040)" d="M499.021 1329.82 Q499.021 1325.12 497.077 1322.45 Q495.155 1319.77 491.776 1319.77 Q488.396 1319.77 486.452 1322.45 Q484.53 1325.12 484.53 1329.82 Q484.53 1334.51 486.452 1337.2 Q488.396 1339.86 491.776 1339.86 Q495.155 1339.86 497.077 1337.2 Q499.021 1334.51 499.021 1329.82 M484.53 1320.76 Q485.873 1318.45 487.91 1317.34 Q489.97 1316.2 492.817 1316.2 Q497.54 1316.2 500.479 1319.95 Q503.442 1323.7 503.442 1329.82 Q503.442 1335.93 500.479 1339.68 Q497.54 1343.43 492.817 1343.43 Q489.97 1343.43 487.91 1342.32 Q485.873 1341.18 484.53 1338.87 L484.53 1342.76 L480.248 1342.76 L480.248 1306.74 L484.53 1306.74 L484.53 1320.76 Z" fill="#000000" fill-rule="nonzero" fill-opacity="1" /><path clip-path="url(#clip040)" d="M514.623 1338.87 L514.623 1352.62 L510.34 1352.62 L510.34 1316.83 L514.623 1316.83 L514.623 1320.76 Q515.965 1318.45 518.002 1317.34 Q520.063 1316.2 522.91 1316.2 Q527.632 1316.2 530.572 1319.95 Q533.535 1323.7 533.535 1329.82 Q533.535 1335.93 530.572 1339.68 Q527.632 1343.43 522.91 1343.43 Q520.063 1343.43 518.002 1342.32 Q515.965 1341.18 514.623 1338.87 M529.113 1329.82 Q529.113 1325.12 527.169 1322.45 Q525.248 1319.77 521.868 1319.77 Q518.489 1319.77 516.544 1322.45 Q514.623 1325.12 514.623 1329.82 Q514.623 1334.51 516.544 1337.2 Q518.489 1339.86 521.868 1339.86 Q525.248 1339.86 527.169 1337.2 Q529.113 1334.51 529.113 1329.82 Z" fill="#000000" fill-rule="nonzero" fill-opacity="1" /></svg>
