<?xml version="1.0" encoding="utf-8"?>
<svg xmlns="http://www.w3.org/2000/svg" xmlns:xlink="http://www.w3.org/1999/xlink" width="600" height="400" viewBox="0 0 2400 1600">
<defs>
  <clipPath id="clip410">
    <rect x="0" y="0" width="2400" height="1600"/>
  </clipPath>
</defs>
<path clip-path="url(#clip410)" d="M0 1600 L2400 1600 L2400 0 L0 0  Z" fill="#ffffff" fill-rule="evenodd" fill-opacity="1"/>
<defs>
  <clipPath id="clip411">
    <rect x="480" y="0" width="1681" height="1600"/>
  </clipPath>
</defs>
<path clip-path="url(#clip410)" d="M219.033 1423.18 L2352.76 1423.18 L2352.76 47.2441 L219.033 47.2441  Z" fill="#ffffff" fill-rule="evenodd" fill-opacity="1"/>
<defs>
  <clipPath id="clip412">
    <rect x="219" y="47" width="2135" height="1377"/>
  </clipPath>
</defs>
<polyline clip-path="url(#clip412)" style="stroke:#000000; stroke-linecap:round; stroke-linejoin:round; stroke-width:2; stroke-opacity:0.1; fill:none" points="279.421,1423.18 279.421,47.2441 "/>
<polyline clip-path="url(#clip412)" style="stroke:#000000; stroke-linecap:round; stroke-linejoin:round; stroke-width:2; stroke-opacity:0.1; fill:none" points="967.959,1423.18 967.959,47.2441 "/>
<polyline clip-path="url(#clip412)" style="stroke:#000000; stroke-linecap:round; stroke-linejoin:round; stroke-width:2; stroke-opacity:0.1; fill:none" points="1656.5,1423.18 1656.5,47.2441 "/>
<polyline clip-path="url(#clip412)" style="stroke:#000000; stroke-linecap:round; stroke-linejoin:round; stroke-width:2; stroke-opacity:0.1; fill:none" points="2345.03,1423.18 2345.03,47.2441 "/>
<polyline clip-path="url(#clip412)" style="stroke:#000000; stroke-linecap:round; stroke-linejoin:round; stroke-width:2; stroke-opacity:0.1; fill:none" points="219.033,1301.96 2352.76,1301.96 "/>
<polyline clip-path="url(#clip412)" style="stroke:#000000; stroke-linecap:round; stroke-linejoin:round; stroke-width:2; stroke-opacity:0.1; fill:none" points="219.033,993.021 2352.76,993.021 "/>
<polyline clip-path="url(#clip412)" style="stroke:#000000; stroke-linecap:round; stroke-linejoin:round; stroke-width:2; stroke-opacity:0.1; fill:none" points="219.033,684.081 2352.76,684.081 "/>
<polyline clip-path="url(#clip412)" style="stroke:#000000; stroke-linecap:round; stroke-linejoin:round; stroke-width:2; stroke-opacity:0.1; fill:none" points="219.033,375.14 2352.76,375.14 "/>
<polyline clip-path="url(#clip412)" style="stroke:#000000; stroke-linecap:round; stroke-linejoin:round; stroke-width:2; stroke-opacity:0.1; fill:none" points="219.033,66.1996 2352.76,66.1996 "/>
<polyline clip-path="url(#clip410)" style="stroke:#000000; stroke-linecap:round; stroke-linejoin:round; stroke-width:4; stroke-opacity:1; fill:none" points="219.033,1423.18 2352.76,1423.18 "/>
<polyline clip-path="url(#clip410)" style="stroke:#000000; stroke-linecap:round; stroke-linejoin:round; stroke-width:4; stroke-opacity:1; fill:none" points="279.421,1423.18 279.421,1404.28 "/>
<polyline clip-path="url(#clip410)" style="stroke:#000000; stroke-linecap:round; stroke-linejoin:round; stroke-width:4; stroke-opacity:1; fill:none" points="967.959,1423.18 967.959,1404.28 "/>
<polyline clip-path="url(#clip410)" style="stroke:#000000; stroke-linecap:round; stroke-linejoin:round; stroke-width:4; stroke-opacity:1; fill:none" points="1656.5,1423.18 1656.5,1404.28 "/>
<polyline clip-path="url(#clip410)" style="stroke:#000000; stroke-linecap:round; stroke-linejoin:round; stroke-width:4; stroke-opacity:1; fill:none" points="2345.03,1423.18 2345.03,1404.28 "/>
<path clip-path="url(#clip410)" d="M256.806 1454.1 Q253.195 1454.1 251.366 1457.66 Q249.56 1461.2 249.56 1468.33 Q249.56 1475.44 251.366 1479.01 Q253.195 1482.55 256.806 1482.55 Q260.44 1482.55 262.245 1479.01 Q264.074 1475.44 264.074 1468.33 Q264.074 1461.2 262.245 1457.66 Q260.44 1454.1 256.806 1454.1 M256.806 1450.39 Q262.616 1450.39 265.671 1455 Q268.75 1459.58 268.75 1468.33 Q268.75 1477.06 265.671 1481.67 Q262.616 1486.25 256.806 1486.25 Q250.996 1486.25 247.917 1481.67 Q244.861 1477.06 244.861 1468.33 Q244.861 1459.58 247.917 1455 Q250.996 1450.39 256.806 1450.39 Z" fill="#000000" fill-rule="nonzero" fill-opacity="1" /><path clip-path="url(#clip410)" d="M276.968 1479.7 L281.852 1479.7 L281.852 1485.58 L276.968 1485.58 L276.968 1479.7 Z" fill="#000000" fill-rule="nonzero" fill-opacity="1" /><path clip-path="url(#clip410)" d="M302.037 1454.1 Q298.426 1454.1 296.597 1457.66 Q294.792 1461.2 294.792 1468.33 Q294.792 1475.44 296.597 1479.01 Q298.426 1482.55 302.037 1482.55 Q305.671 1482.55 307.477 1479.01 Q309.305 1475.44 309.305 1468.33 Q309.305 1461.2 307.477 1457.66 Q305.671 1454.1 302.037 1454.1 M302.037 1450.39 Q307.847 1450.39 310.903 1455 Q313.981 1459.58 313.981 1468.33 Q313.981 1477.06 310.903 1481.67 Q307.847 1486.25 302.037 1486.25 Q296.227 1486.25 293.148 1481.67 Q290.093 1477.06 290.093 1468.33 Q290.093 1459.58 293.148 1455 Q296.227 1450.39 302.037 1450.39 Z" fill="#000000" fill-rule="nonzero" fill-opacity="1" /><path clip-path="url(#clip410)" d="M945.841 1454.1 Q942.23 1454.1 940.401 1457.66 Q938.595 1461.2 938.595 1468.33 Q938.595 1475.44 940.401 1479.01 Q942.23 1482.55 945.841 1482.55 Q949.475 1482.55 951.28 1479.01 Q953.109 1475.44 953.109 1468.33 Q953.109 1461.2 951.28 1457.66 Q949.475 1454.1 945.841 1454.1 M945.841 1450.39 Q951.651 1450.39 954.706 1455 Q957.785 1459.58 957.785 1468.33 Q957.785 1477.06 954.706 1481.67 Q951.651 1486.25 945.841 1486.25 Q940.031 1486.25 936.952 1481.67 Q933.896 1477.06 933.896 1468.33 Q933.896 1459.58 936.952 1455 Q940.031 1450.39 945.841 1450.39 Z" fill="#000000" fill-rule="nonzero" fill-opacity="1" /><path clip-path="url(#clip410)" d="M966.003 1479.7 L970.887 1479.7 L970.887 1485.58 L966.003 1485.58 L966.003 1479.7 Z" fill="#000000" fill-rule="nonzero" fill-opacity="1" /><path clip-path="url(#clip410)" d="M981.118 1451.02 L999.475 1451.02 L999.475 1454.96 L985.401 1454.96 L985.401 1463.43 Q986.419 1463.08 987.438 1462.92 Q988.456 1462.73 989.475 1462.73 Q995.262 1462.73 998.641 1465.9 Q1002.02 1469.08 1002.02 1474.49 Q1002.02 1480.07 998.549 1483.17 Q995.077 1486.25 988.757 1486.25 Q986.581 1486.25 984.313 1485.88 Q982.067 1485.51 979.66 1484.77 L979.66 1480.07 Q981.743 1481.2 983.965 1481.76 Q986.188 1482.32 988.665 1482.32 Q992.669 1482.32 995.007 1480.21 Q997.345 1478.1 997.345 1474.49 Q997.345 1470.88 995.007 1468.77 Q992.669 1466.67 988.665 1466.67 Q986.79 1466.67 984.915 1467.08 Q983.063 1467.5 981.118 1468.38 L981.118 1451.02 Z" fill="#000000" fill-rule="nonzero" fill-opacity="1" /><path clip-path="url(#clip410)" d="M1623.65 1481.64 L1631.29 1481.64 L1631.29 1455.28 L1622.98 1456.95 L1622.98 1452.69 L1631.24 1451.02 L1635.92 1451.02 L1635.92 1481.64 L1643.56 1481.64 L1643.56 1485.58 L1623.65 1485.58 L1623.65 1481.64 Z" fill="#000000" fill-rule="nonzero" fill-opacity="1" /><path clip-path="url(#clip410)" d="M1653 1479.7 L1657.88 1479.7 L1657.88 1485.58 L1653 1485.58 L1653 1479.7 Z" fill="#000000" fill-rule="nonzero" fill-opacity="1" /><path clip-path="url(#clip410)" d="M1678.07 1454.1 Q1674.46 1454.1 1672.63 1457.66 Q1670.82 1461.2 1670.82 1468.33 Q1670.82 1475.44 1672.63 1479.01 Q1674.46 1482.55 1678.07 1482.55 Q1681.7 1482.55 1683.51 1479.01 Q1685.34 1475.44 1685.34 1468.33 Q1685.34 1461.2 1683.51 1457.66 Q1681.7 1454.1 1678.07 1454.1 M1678.07 1450.39 Q1683.88 1450.39 1686.94 1455 Q1690.01 1459.58 1690.01 1468.33 Q1690.01 1477.06 1686.94 1481.67 Q1683.88 1486.25 1678.07 1486.25 Q1672.26 1486.25 1669.18 1481.67 Q1666.13 1477.06 1666.13 1468.33 Q1666.13 1459.58 1669.18 1455 Q1672.26 1450.39 1678.07 1450.39 Z" fill="#000000" fill-rule="nonzero" fill-opacity="1" /><path clip-path="url(#clip410)" d="M2312.68 1481.64 L2320.32 1481.64 L2320.32 1455.28 L2312.01 1456.95 L2312.01 1452.69 L2320.28 1451.02 L2324.95 1451.02 L2324.95 1481.64 L2332.59 1481.64 L2332.59 1485.58 L2312.68 1485.58 L2312.68 1481.64 Z" fill="#000000" fill-rule="nonzero" fill-opacity="1" /><path clip-path="url(#clip410)" d="M2342.04 1479.7 L2346.92 1479.7 L2346.92 1485.58 L2342.04 1485.58 L2342.04 1479.7 Z" fill="#000000" fill-rule="nonzero" fill-opacity="1" /><path clip-path="url(#clip410)" d="M2357.15 1451.02 L2375.51 1451.02 L2375.51 1454.96 L2361.43 1454.96 L2361.43 1463.43 Q2362.45 1463.08 2363.47 1462.92 Q2364.49 1462.73 2365.51 1462.73 Q2371.29 1462.73 2374.67 1465.9 Q2378.05 1469.08 2378.05 1474.49 Q2378.05 1480.07 2374.58 1483.17 Q2371.11 1486.25 2364.79 1486.25 Q2362.61 1486.25 2360.35 1485.88 Q2358.1 1485.51 2355.69 1484.77 L2355.69 1480.07 Q2357.78 1481.2 2360 1481.76 Q2362.22 1482.32 2364.7 1482.32 Q2368.7 1482.32 2371.04 1480.21 Q2373.38 1478.1 2373.38 1474.49 Q2373.38 1470.88 2371.04 1468.77 Q2368.7 1466.67 2364.7 1466.67 Q2362.82 1466.67 2360.95 1467.08 Q2359.1 1467.5 2357.15 1468.38 L2357.15 1451.02 Z" fill="#000000" fill-rule="nonzero" fill-opacity="1" /><path clip-path="url(#clip410)" d="M1278.56 1538 L1286.36 1560.02 L1297.5 1532.4 L1303.7 1532.4 L1289.28 1568.04 L1289.28 1581.6 L1283.43 1581.6 L1283.43 1568.04 L1274.07 1541.44 Q1272.67 1537.42 1269.65 1537.42 L1268.09 1537.42 L1268.09 1532.4 L1270.31 1532.4 Q1276.58 1532.4 1278.56 1538 Z" fill="#000000" fill-rule="nonzero" fill-opacity="1" /><polyline clip-path="url(#clip410)" style="stroke:#000000; stroke-linecap:round; stroke-linejoin:round; stroke-width:4; stroke-opacity:1; fill:none" points="219.033,1423.18 219.033,47.2441 "/>
<polyline clip-path="url(#clip410)" style="stroke:#000000; stroke-linecap:round; stroke-linejoin:round; stroke-width:4; stroke-opacity:1; fill:none" points="219.033,1301.96 237.931,1301.96 "/>
<polyline clip-path="url(#clip410)" style="stroke:#000000; stroke-linecap:round; stroke-linejoin:round; stroke-width:4; stroke-opacity:1; fill:none" points="219.033,993.021 237.931,993.021 "/>
<polyline clip-path="url(#clip410)" style="stroke:#000000; stroke-linecap:round; stroke-linejoin:round; stroke-width:4; stroke-opacity:1; fill:none" points="219.033,684.081 237.931,684.081 "/>
<polyline clip-path="url(#clip410)" style="stroke:#000000; stroke-linecap:round; stroke-linejoin:round; stroke-width:4; stroke-opacity:1; fill:none" points="219.033,375.14 237.931,375.14 "/>
<polyline clip-path="url(#clip410)" style="stroke:#000000; stroke-linecap:round; stroke-linejoin:round; stroke-width:4; stroke-opacity:1; fill:none" points="219.033,66.1996 237.931,66.1996 "/>
<path clip-path="url(#clip410)" d="M116.668 1315.31 L124.306 1315.31 L124.306 1288.94 L115.996 1290.61 L115.996 1286.35 L124.26 1284.68 L128.936 1284.68 L128.936 1315.31 L136.575 1315.31 L136.575 1319.24 L116.668 1319.24 L116.668 1315.31 Z" fill="#000000" fill-rule="nonzero" fill-opacity="1" /><path clip-path="url(#clip410)" d="M146.019 1313.36 L150.903 1313.36 L150.903 1319.24 L146.019 1319.24 L146.019 1313.36 Z" fill="#000000" fill-rule="nonzero" fill-opacity="1" /><path clip-path="url(#clip410)" d="M171.089 1287.76 Q167.477 1287.76 165.649 1291.33 Q163.843 1294.87 163.843 1302 Q163.843 1309.1 165.649 1312.67 Q167.477 1316.21 171.089 1316.21 Q174.723 1316.21 176.528 1312.67 Q178.357 1309.1 178.357 1302 Q178.357 1294.87 176.528 1291.33 Q174.723 1287.76 171.089 1287.76 M171.089 1284.06 Q176.899 1284.06 179.954 1288.66 Q183.033 1293.25 183.033 1302 Q183.033 1310.72 179.954 1315.33 Q176.899 1319.91 171.089 1319.91 Q165.278 1319.91 162.2 1315.33 Q159.144 1310.72 159.144 1302 Q159.144 1293.25 162.2 1288.66 Q165.278 1284.06 171.089 1284.06 Z" fill="#000000" fill-rule="nonzero" fill-opacity="1" /><path clip-path="url(#clip410)" d="M117.663 1006.37 L125.302 1006.37 L125.302 980.001 L116.992 981.667 L116.992 977.408 L125.255 975.741 L129.931 975.741 L129.931 1006.37 L137.57 1006.37 L137.57 1010.3 L117.663 1010.3 L117.663 1006.37 Z" fill="#000000" fill-rule="nonzero" fill-opacity="1" /><path clip-path="url(#clip410)" d="M147.015 1004.42 L151.899 1004.42 L151.899 1010.3 L147.015 1010.3 L147.015 1004.42 Z" fill="#000000" fill-rule="nonzero" fill-opacity="1" /><path clip-path="url(#clip410)" d="M162.13 975.741 L180.487 975.741 L180.487 979.676 L166.413 979.676 L166.413 988.149 Q167.431 987.801 168.45 987.639 Q169.468 987.454 170.487 987.454 Q176.274 987.454 179.653 990.625 Q183.033 993.797 183.033 999.213 Q183.033 1004.79 179.561 1007.89 Q176.089 1010.97 169.769 1010.97 Q167.593 1010.97 165.325 1010.6 Q163.079 1010.23 160.672 1009.49 L160.672 1004.79 Q162.755 1005.93 164.977 1006.48 Q167.2 1007.04 169.677 1007.04 Q173.681 1007.04 176.019 1004.93 Q178.357 1002.82 178.357 999.213 Q178.357 995.602 176.019 993.496 Q173.681 991.389 169.677 991.389 Q167.802 991.389 165.927 991.806 Q164.075 992.223 162.13 993.102 L162.13 975.741 Z" fill="#000000" fill-rule="nonzero" fill-opacity="1" /><path clip-path="url(#clip410)" d="M119.885 697.426 L136.204 697.426 L136.204 701.361 L114.26 701.361 L114.26 697.426 Q116.922 694.671 121.505 690.041 Q126.112 685.389 127.292 684.046 Q129.538 681.523 130.417 679.787 Q131.32 678.028 131.32 676.338 Q131.32 673.583 129.376 671.847 Q127.455 670.111 124.353 670.111 Q122.154 670.111 119.7 670.875 Q117.269 671.639 114.492 673.19 L114.492 668.467 Q117.316 667.333 119.769 666.754 Q122.223 666.176 124.26 666.176 Q129.63 666.176 132.825 668.861 Q136.019 671.546 136.019 676.037 Q136.019 678.166 135.209 680.088 Q134.422 681.986 132.316 684.578 Q131.737 685.25 128.635 688.467 Q125.533 691.662 119.885 697.426 Z" fill="#000000" fill-rule="nonzero" fill-opacity="1" /><path clip-path="url(#clip410)" d="M146.019 695.481 L150.903 695.481 L150.903 701.361 L146.019 701.361 L146.019 695.481 Z" fill="#000000" fill-rule="nonzero" fill-opacity="1" /><path clip-path="url(#clip410)" d="M171.089 669.879 Q167.477 669.879 165.649 673.444 Q163.843 676.986 163.843 684.115 Q163.843 691.222 165.649 694.787 Q167.477 698.328 171.089 698.328 Q174.723 698.328 176.528 694.787 Q178.357 691.222 178.357 684.115 Q178.357 676.986 176.528 673.444 Q174.723 669.879 171.089 669.879 M171.089 666.176 Q176.899 666.176 179.954 670.782 Q183.033 675.365 183.033 684.115 Q183.033 692.842 179.954 697.449 Q176.899 702.032 171.089 702.032 Q165.278 702.032 162.2 697.449 Q159.144 692.842 159.144 684.115 Q159.144 675.365 162.2 670.782 Q165.278 666.176 171.089 666.176 Z" fill="#000000" fill-rule="nonzero" fill-opacity="1" /><path clip-path="url(#clip410)" d="M120.88 388.485 L137.2 388.485 L137.2 392.42 L115.256 392.42 L115.256 388.485 Q117.918 385.73 122.501 381.101 Q127.107 376.448 128.288 375.105 Q130.533 372.582 131.413 370.846 Q132.316 369.087 132.316 367.397 Q132.316 364.643 130.371 362.906 Q128.45 361.17 125.348 361.17 Q123.149 361.17 120.695 361.934 Q118.265 362.698 115.487 364.249 L115.487 359.527 Q118.311 358.393 120.765 357.814 Q123.218 357.235 125.255 357.235 Q130.626 357.235 133.82 359.92 Q137.015 362.606 137.015 367.096 Q137.015 369.226 136.204 371.147 Q135.417 373.045 133.311 375.638 Q132.732 376.309 129.63 379.527 Q126.529 382.721 120.88 388.485 Z" fill="#000000" fill-rule="nonzero" fill-opacity="1" /><path clip-path="url(#clip410)" d="M147.015 386.541 L151.899 386.541 L151.899 392.42 L147.015 392.42 L147.015 386.541 Z" fill="#000000" fill-rule="nonzero" fill-opacity="1" /><path clip-path="url(#clip410)" d="M162.13 357.86 L180.487 357.86 L180.487 361.795 L166.413 361.795 L166.413 370.267 Q167.431 369.92 168.45 369.758 Q169.468 369.573 170.487 369.573 Q176.274 369.573 179.653 372.744 Q183.033 375.916 183.033 381.332 Q183.033 386.911 179.561 390.013 Q176.089 393.091 169.769 393.091 Q167.593 393.091 165.325 392.721 Q163.079 392.351 160.672 391.61 L160.672 386.911 Q162.755 388.045 164.977 388.601 Q167.2 389.156 169.677 389.156 Q173.681 389.156 176.019 387.05 Q178.357 384.943 178.357 381.332 Q178.357 377.721 176.019 375.615 Q173.681 373.508 169.677 373.508 Q167.802 373.508 165.927 373.925 Q164.075 374.342 162.13 375.221 L162.13 357.86 Z" fill="#000000" fill-rule="nonzero" fill-opacity="1" /><path clip-path="url(#clip410)" d="M130.024 64.8454 Q133.38 65.563 135.255 67.8315 Q137.154 70.1 137.154 73.4334 Q137.154 78.5491 133.635 81.35 Q130.117 84.1509 123.635 84.1509 Q121.459 84.1509 119.144 83.7111 Q116.853 83.2944 114.399 82.4379 L114.399 77.9241 Q116.343 79.0583 118.658 79.637 Q120.973 80.2157 123.496 80.2157 Q127.894 80.2157 130.186 78.4796 Q132.501 76.7435 132.501 73.4334 Q132.501 70.3778 130.348 68.6649 Q128.218 66.9288 124.399 66.9288 L120.371 66.9288 L120.371 63.0862 L124.584 63.0862 Q128.033 63.0862 129.862 61.7205 Q131.691 60.3316 131.691 57.739 Q131.691 55.077 129.792 53.6649 Q127.917 52.2298 124.399 52.2298 Q122.478 52.2298 120.279 52.6464 Q118.08 53.0631 115.441 53.9427 L115.441 49.7761 Q118.103 49.0353 120.418 48.665 Q122.755 48.2946 124.816 48.2946 Q130.14 48.2946 133.242 50.7252 Q136.343 53.1325 136.343 57.2529 Q136.343 60.1232 134.7 62.114 Q133.056 64.0816 130.024 64.8454 Z" fill="#000000" fill-rule="nonzero" fill-opacity="1" /><path clip-path="url(#clip410)" d="M146.019 77.6 L150.903 77.6 L150.903 83.4796 L146.019 83.4796 L146.019 77.6 Z" fill="#000000" fill-rule="nonzero" fill-opacity="1" /><path clip-path="url(#clip410)" d="M171.089 51.9983 Q167.477 51.9983 165.649 55.5631 Q163.843 59.1047 163.843 66.2343 Q163.843 73.3408 165.649 76.9056 Q167.477 80.4472 171.089 80.4472 Q174.723 80.4472 176.528 76.9056 Q178.357 73.3408 178.357 66.2343 Q178.357 59.1047 176.528 55.5631 Q174.723 51.9983 171.089 51.9983 M171.089 48.2946 Q176.899 48.2946 179.954 52.9011 Q183.033 57.4844 183.033 66.2343 Q183.033 74.9611 179.954 79.5676 Q176.899 84.1509 171.089 84.1509 Q165.278 84.1509 162.2 79.5676 Q159.144 74.9611 159.144 66.2343 Q159.144 57.4844 162.2 52.9011 Q165.278 48.2946 171.089 48.2946 Z" fill="#000000" fill-rule="nonzero" fill-opacity="1" /><path clip-path="url(#clip410)" d="M33.8307 724.772 Q33.2578 725.759 33.0032 726.937 Q32.7167 728.082 32.7167 729.483 Q32.7167 734.448 35.9632 737.122 Q39.1779 739.763 45.2253 739.763 L64.0042 739.763 L64.0042 745.652 L28.3562 745.652 L28.3562 739.763 L33.8944 739.763 Q30.6479 737.917 29.0883 734.957 Q27.4968 731.997 27.4968 727.764 Q27.4968 727.159 27.5923 726.427 Q27.656 725.695 27.8151 724.804 L33.8307 724.772 Z" fill="#000000" fill-rule="nonzero" fill-opacity="1" /><polyline clip-path="url(#clip412)" style="stroke:#009af9; stroke-linecap:round; stroke-linejoin:round; stroke-width:4; stroke-opacity:1; fill:none" points="279.421,1210.68 296.119,1210.94 319.882,1212.19 353.275,1215.69 386.664,1221.16 420.048,1228.53 453.426,1237.65 486.795,1248.38 520.154,1260.5 553.502,1273.76 586.836,1287.89 620.154,1302.55 653.453,1317.38 686.73,1331.96 711.668,1342.46 744.882,1355.47 778.036,1366.85 811.092,1375.95 843.988,1382.03 876.621,1384.24 908.83,1381.67 940.382,1373.47 971.005,1359.18 1000.49,1338.94 1028.82,1313.66 1056.23,1284.57 1083.09,1252.87 1109.81,1219.49 1136.68,1185.07 1163.93,1150.06 1191.69,1114.73 1220.06,1079.26 1249.04,1043.79 1278.65,1008.4 1308.86,973.136 1339.64,938.044 1370.96,903.155 1402.78,868.495 1435.06,834.087 1467.77,799.955 1500.86,766.124 1534.31,732.623 1568.06,699.485 1602.07,666.757 1636.25,634.534 1670.04,603.387 "/>
<circle clip-path="url(#clip412)" cx="711.668" cy="1342.46" r="10.8" fill="#a52a2a" fill-rule="evenodd" fill-opacity="1" stroke="none"/>
<circle clip-path="url(#clip412)" cx="1670.04" cy="603.387" r="10.8" fill="#ff0000" fill-rule="evenodd" fill-opacity="1" stroke="none"/>
<circle clip-path="url(#clip412)" cx="711.668" cy="1342.46" r="10.8" fill="#a52a2a" fill-rule="evenodd" fill-opacity="1" stroke="none"/>
<circle clip-path="url(#clip412)" cx="1670.04" cy="603.387" r="10.8" fill="#ff0000" fill-rule="evenodd" fill-opacity="1" stroke="none"/>
<polyline clip-path="url(#clip412)" style="stroke:#ac8d18; stroke-linecap:round; stroke-linejoin:round; stroke-width:4; stroke-opacity:1; fill:none" points="1563.89,510.869 1543.72,585.261 1524.01,650.73 1505.09,707.213 1487.46,754.503 1471.78,792.22 1458.97,819.818 1450.26,836.665 1447.01,842.37 1447.17,842.121 1452.05,834.796 1463.61,818.903 1480.95,796.889 1502.87,770.957 1528.22,742.712 1556.11,713.2 1585.88,683.071 1617.06,652.725 1649.28,622.429 1655.19,616.973 1671.67,601.903 1688.33,586.891 1712.29,565.639 1746.39,536.029 1780.85,506.75 1815.59,477.814 1850.53,449.214 1858.21,442.991 1893.29,414.774 1928.47,386.808 1963.68,359.042 1998.91,331.395 2034.11,303.764 2069.29,276.026 2104.44,248.038 2139.54,219.642 2174.58,190.664 2187.72,179.606 2222.67,149.541 2257.56,118.459 2292.37,86.1857 "/>
<circle clip-path="url(#clip412)" cx="1447.01" cy="842.37" r="10.8" fill="#ff8247" fill-rule="evenodd" fill-opacity="1" stroke="none"/>
<circle clip-path="url(#clip412)" cx="1649.28" cy="622.429" r="10.8" fill="#ff0000" fill-rule="evenodd" fill-opacity="1" stroke="none"/>
<circle clip-path="url(#clip412)" cx="1858.21" cy="442.991" r="10.8" fill="#eec591" fill-rule="evenodd" fill-opacity="1" stroke="none"/>
<circle clip-path="url(#clip412)" cx="2187.72" cy="179.606" r="10.8" fill="#eec591" fill-rule="evenodd" fill-opacity="1" stroke="none"/>
<circle clip-path="url(#clip412)" cx="1447.01" cy="842.37" r="10.8" fill="#ff8247" fill-rule="evenodd" fill-opacity="1" stroke="none"/>
<circle clip-path="url(#clip412)" cx="1649.28" cy="622.429" r="10.8" fill="#ff0000" fill-rule="evenodd" fill-opacity="1" stroke="none"/>
<circle clip-path="url(#clip412)" cx="1858.21" cy="442.991" r="10.8" fill="#eec591" fill-rule="evenodd" fill-opacity="1" stroke="none"/>
<path clip-path="url(#clip410)" d="M290.157 507.829 L611.214 507.829 L611.214 93.1086 L290.157 93.1086  Z" fill="#ffffff" fill-rule="evenodd" fill-opacity="1"/>
<polyline clip-path="url(#clip410)" style="stroke:#000000; stroke-linecap:round; stroke-linejoin:round; stroke-width:4; stroke-opacity:1; fill:none" points="290.157,507.829 611.214,507.829 611.214,93.1086 290.157,93.1086 290.157,507.829 "/>
<polyline clip-path="url(#clip410)" style="stroke:#009af9; stroke-linecap:round; stroke-linejoin:round; stroke-width:4; stroke-opacity:1; fill:none" points="313.865,144.949 456.113,144.949 "/>
<path clip-path="url(#clip410)" d="M479.821 127.669 L484.497 127.669 L484.497 141.835 L501.488 141.835 L501.488 127.669 L506.164 127.669 L506.164 162.229 L501.488 162.229 L501.488 145.77 L484.497 145.77 L484.497 162.229 L479.821 162.229 L479.821 127.669 Z" fill="#000000" fill-rule="nonzero" fill-opacity="1" /><path clip-path="url(#clip410)" d="M525.33 139.289 Q521.904 139.289 519.914 141.974 Q517.923 144.636 517.923 149.289 Q517.923 153.942 519.891 156.627 Q521.881 159.289 525.33 159.289 Q528.733 159.289 530.724 156.604 Q532.715 153.918 532.715 149.289 Q532.715 144.682 530.724 141.997 Q528.733 139.289 525.33 139.289 M525.33 135.678 Q530.886 135.678 534.057 139.289 Q537.228 142.9 537.228 149.289 Q537.228 155.655 534.057 159.289 Q530.886 162.9 525.33 162.9 Q519.752 162.9 516.58 159.289 Q513.432 155.655 513.432 149.289 Q513.432 142.9 516.58 139.289 Q519.752 135.678 525.33 135.678 Z" fill="#000000" fill-rule="nonzero" fill-opacity="1" /><path clip-path="url(#clip410)" d="M548.409 158.34 L548.409 172.09 L544.127 172.09 L544.127 136.303 L548.409 136.303 L548.409 140.238 Q549.751 137.923 551.789 136.812 Q553.849 135.678 556.696 135.678 Q561.418 135.678 564.358 139.428 Q567.321 143.178 567.321 149.289 Q567.321 155.4 564.358 159.15 Q561.418 162.9 556.696 162.9 Q553.849 162.9 551.789 161.789 Q549.751 160.655 548.409 158.34 M562.9 149.289 Q562.9 144.59 560.955 141.928 Q559.034 139.243 555.654 139.243 Q552.275 139.243 550.33 141.928 Q548.409 144.59 548.409 149.289 Q548.409 153.988 550.33 156.673 Q552.275 159.335 555.654 159.335 Q559.034 159.335 560.955 156.673 Q562.9 153.988 562.9 149.289 Z" fill="#000000" fill-rule="nonzero" fill-opacity="1" /><path clip-path="url(#clip410)" d="M587.506 126.21 L587.506 129.752 L583.432 129.752 Q581.14 129.752 580.237 130.678 Q579.358 131.604 579.358 134.011 L579.358 136.303 L586.372 136.303 L586.372 139.613 L579.358 139.613 L579.358 162.229 L575.075 162.229 L575.075 139.613 L571.001 139.613 L571.001 136.303 L575.075 136.303 L575.075 134.497 Q575.075 130.169 577.089 128.201 Q579.103 126.21 583.478 126.21 L587.506 126.21 Z" fill="#000000" fill-rule="nonzero" fill-opacity="1" /><circle clip-path="url(#clip410)" cx="384.989" cy="196.789" r="23.04" fill="#a52a2a" fill-rule="evenodd" fill-opacity="1" stroke="none"/>
<path clip-path="url(#clip410)" d="M498.733 200.805 Q498.733 196.175 496.812 193.629 Q494.914 191.083 491.465 191.083 Q488.039 191.083 486.118 193.629 Q484.219 196.175 484.219 200.805 Q484.219 205.411 486.118 207.958 Q488.039 210.504 491.465 210.504 Q494.914 210.504 496.812 207.958 Q498.733 205.411 498.733 200.805 M502.992 210.851 Q502.992 217.471 500.053 220.689 Q497.113 223.93 491.048 223.93 Q488.803 223.93 486.812 223.582 Q484.821 223.258 482.946 222.564 L482.946 218.42 Q484.821 219.439 486.65 219.925 Q488.479 220.411 490.377 220.411 Q494.567 220.411 496.65 218.212 Q498.733 216.036 498.733 211.615 L498.733 209.508 Q497.414 211.8 495.354 212.934 Q493.293 214.069 490.423 214.069 Q485.655 214.069 482.738 210.434 Q479.821 206.8 479.821 200.805 Q479.821 194.786 482.738 191.152 Q485.655 187.518 490.423 187.518 Q493.293 187.518 495.354 188.652 Q497.414 189.786 498.733 192.078 L498.733 188.143 L502.992 188.143 L502.992 210.851 Z" fill="#000000" fill-rule="nonzero" fill-opacity="1" /><path clip-path="url(#clip410)" d="M533.316 198.421 L533.316 214.069 L529.057 214.069 L529.057 198.559 Q529.057 194.879 527.622 193.05 Q526.187 191.222 523.316 191.222 Q519.867 191.222 517.877 193.421 Q515.886 195.62 515.886 199.416 L515.886 214.069 L511.604 214.069 L511.604 178.05 L515.886 178.05 L515.886 192.171 Q517.414 189.833 519.474 188.675 Q521.557 187.518 524.266 187.518 Q528.733 187.518 531.025 190.296 Q533.316 193.05 533.316 198.421 Z" fill="#000000" fill-rule="nonzero" fill-opacity="1" /><circle clip-path="url(#clip410)" cx="384.989" cy="248.629" r="23.04" fill="#ff0000" fill-rule="evenodd" fill-opacity="1" stroke="none"/>
<path clip-path="url(#clip410)" d="M498.594 252.969 Q498.594 248.27 496.65 245.608 Q494.729 242.923 491.349 242.923 Q487.969 242.923 486.025 245.608 Q484.104 248.27 484.104 252.969 Q484.104 257.668 486.025 260.353 Q487.969 263.015 491.349 263.015 Q494.729 263.015 496.65 260.353 Q498.594 257.668 498.594 252.969 M484.104 243.918 Q485.446 241.603 487.483 240.492 Q489.543 239.358 492.391 239.358 Q497.113 239.358 500.053 243.108 Q503.016 246.858 503.016 252.969 Q503.016 259.08 500.053 262.83 Q497.113 266.58 492.391 266.58 Q489.543 266.58 487.483 265.469 Q485.446 264.335 484.104 262.02 L484.104 265.909 L479.821 265.909 L479.821 229.89 L484.104 229.89 L484.104 243.918 Z" fill="#000000" fill-rule="nonzero" fill-opacity="1" /><path clip-path="url(#clip410)" d="M514.289 232.622 L514.289 239.983 L523.062 239.983 L523.062 243.293 L514.289 243.293 L514.289 257.367 Q514.289 260.538 515.145 261.441 Q516.025 262.344 518.687 262.344 L523.062 262.344 L523.062 265.909 L518.687 265.909 Q513.756 265.909 511.881 264.08 Q510.006 262.228 510.006 257.367 L510.006 243.293 L506.881 243.293 L506.881 239.983 L510.006 239.983 L510.006 232.622 L514.289 232.622 Z" fill="#000000" fill-rule="nonzero" fill-opacity="1" /><polyline clip-path="url(#clip410)" style="stroke:#ac8d18; stroke-linecap:round; stroke-linejoin:round; stroke-width:4; stroke-opacity:1; fill:none" points="313.865,300.469 456.113,300.469 "/>
<path clip-path="url(#clip410)" d="M479.821 283.189 L499.682 283.189 L499.682 287.124 L484.497 287.124 L484.497 297.309 L498.201 297.309 L498.201 301.244 L484.497 301.244 L484.497 317.749 L479.821 317.749 L479.821 283.189 Z" fill="#000000" fill-rule="nonzero" fill-opacity="1" /><path clip-path="url(#clip410)" d="M515.261 294.809 Q511.835 294.809 509.844 297.494 Q507.854 300.156 507.854 304.809 Q507.854 309.462 509.821 312.147 Q511.812 314.809 515.261 314.809 Q518.664 314.809 520.654 312.124 Q522.645 309.438 522.645 304.809 Q522.645 300.202 520.654 297.517 Q518.664 294.809 515.261 294.809 M515.261 291.198 Q520.816 291.198 523.988 294.809 Q527.159 298.42 527.159 304.809 Q527.159 311.175 523.988 314.809 Q520.816 318.42 515.261 318.42 Q509.682 318.42 506.511 314.809 Q503.363 311.175 503.363 304.809 Q503.363 298.42 506.511 294.809 Q509.682 291.198 515.261 291.198 Z" fill="#000000" fill-rule="nonzero" fill-opacity="1" /><path clip-path="url(#clip410)" d="M534.219 281.73 L538.478 281.73 L538.478 317.749 L534.219 317.749 L534.219 281.73 Z" fill="#000000" fill-rule="nonzero" fill-opacity="1" /><path clip-path="url(#clip410)" d="M564.45 295.758 L564.45 281.73 L568.71 281.73 L568.71 317.749 L564.45 317.749 L564.45 313.86 Q563.108 316.175 561.048 317.309 Q559.011 318.42 556.14 318.42 Q551.441 318.42 548.478 314.67 Q545.539 310.92 545.539 304.809 Q545.539 298.698 548.478 294.948 Q551.441 291.198 556.14 291.198 Q559.011 291.198 561.048 292.332 Q563.108 293.443 564.45 295.758 M549.937 304.809 Q549.937 309.508 551.858 312.193 Q553.802 314.855 557.182 314.855 Q560.562 314.855 562.506 312.193 Q564.45 309.508 564.45 304.809 Q564.45 300.11 562.506 297.448 Q560.562 294.763 557.182 294.763 Q553.802 294.763 551.858 297.448 Q549.937 300.11 549.937 304.809 Z" fill="#000000" fill-rule="nonzero" fill-opacity="1" /><circle clip-path="url(#clip410)" cx="384.989" cy="352.309" r="23.04" fill="#ff8247" fill-rule="evenodd" fill-opacity="1" stroke="none"/>
<path clip-path="url(#clip410)" d="M500.33 344.658 L500.33 348.64 Q498.525 347.644 496.696 347.158 Q494.891 346.649 493.039 346.649 Q488.895 346.649 486.604 349.288 Q484.312 351.904 484.312 356.649 Q484.312 361.394 486.604 364.033 Q488.895 366.649 493.039 366.649 Q494.891 366.649 496.696 366.163 Q498.525 365.653 500.33 364.658 L500.33 368.593 Q498.548 369.427 496.627 369.843 Q494.729 370.26 492.576 370.26 Q486.719 370.26 483.27 366.579 Q479.821 362.899 479.821 356.649 Q479.821 350.306 483.294 346.672 Q486.789 343.038 492.854 343.038 Q494.821 343.038 496.696 343.455 Q498.571 343.848 500.33 344.658 Z" fill="#000000" fill-rule="nonzero" fill-opacity="1" /><path clip-path="url(#clip410)" d="M507.298 359.357 L507.298 343.663 L511.557 343.663 L511.557 359.195 Q511.557 362.876 512.992 364.728 Q514.428 366.556 517.298 366.556 Q520.747 366.556 522.738 364.357 Q524.752 362.158 524.752 358.362 L524.752 343.663 L529.011 343.663 L529.011 369.589 L524.752 369.589 L524.752 365.607 Q523.201 367.968 521.141 369.126 Q519.103 370.26 516.395 370.26 Q511.928 370.26 509.613 367.482 Q507.298 364.704 507.298 359.357 M518.016 343.038 L518.016 343.038 Z" fill="#000000" fill-rule="nonzero" fill-opacity="1" /><path clip-path="url(#clip410)" d="M554.312 344.427 L554.312 348.454 Q552.506 347.529 550.562 347.066 Q548.617 346.603 546.534 346.603 Q543.363 346.603 541.765 347.575 Q540.191 348.547 540.191 350.491 Q540.191 351.973 541.326 352.829 Q542.46 353.663 545.886 354.427 L547.344 354.751 Q551.881 355.723 553.779 357.505 Q555.701 359.265 555.701 362.436 Q555.701 366.047 552.83 368.153 Q549.983 370.26 544.983 370.26 Q542.9 370.26 540.631 369.843 Q538.386 369.45 535.886 368.64 L535.886 364.241 Q538.247 365.468 540.539 366.093 Q542.83 366.695 545.076 366.695 Q548.085 366.695 549.705 365.677 Q551.326 364.635 551.326 362.76 Q551.326 361.024 550.145 360.098 Q548.988 359.172 545.029 358.316 L543.548 357.968 Q539.589 357.135 537.83 355.422 Q536.071 353.686 536.071 350.677 Q536.071 347.019 538.664 345.029 Q541.256 343.038 546.025 343.038 Q548.386 343.038 550.469 343.385 Q552.552 343.732 554.312 344.427 Z" fill="#000000" fill-rule="nonzero" fill-opacity="1" /><path clip-path="url(#clip410)" d="M566.603 365.7 L566.603 379.45 L562.321 379.45 L562.321 343.663 L566.603 343.663 L566.603 347.598 Q567.946 345.283 569.983 344.172 Q572.043 343.038 574.89 343.038 Q579.612 343.038 582.552 346.788 Q585.515 350.538 585.515 356.649 Q585.515 362.76 582.552 366.51 Q579.612 370.26 574.89 370.26 Q572.043 370.26 569.983 369.149 Q567.946 368.015 566.603 365.7 M581.094 356.649 Q581.094 351.95 579.149 349.288 Q577.228 346.603 573.849 346.603 Q570.469 346.603 568.525 349.288 Q566.603 351.95 566.603 356.649 Q566.603 361.348 568.525 364.033 Q570.469 366.695 573.849 366.695 Q577.228 366.695 579.149 364.033 Q581.094 361.348 581.094 356.649 Z" fill="#000000" fill-rule="nonzero" fill-opacity="1" /><circle clip-path="url(#clip410)" cx="384.989" cy="404.149" r="23.04" fill="#ff0000" fill-rule="evenodd" fill-opacity="1" stroke="none"/>
<path clip-path="url(#clip410)" d="M498.594 408.489 Q498.594 403.79 496.65 401.128 Q494.729 398.443 491.349 398.443 Q487.969 398.443 486.025 401.128 Q484.104 403.79 484.104 408.489 Q484.104 413.188 486.025 415.873 Q487.969 418.535 491.349 418.535 Q494.729 418.535 496.65 415.873 Q498.594 413.188 498.594 408.489 M484.104 399.438 Q485.446 397.123 487.483 396.012 Q489.543 394.878 492.391 394.878 Q497.113 394.878 500.053 398.628 Q503.016 402.378 503.016 408.489 Q503.016 414.6 500.053 418.35 Q497.113 422.1 492.391 422.1 Q489.543 422.1 487.483 420.989 Q485.446 419.855 484.104 417.54 L484.104 421.429 L479.821 421.429 L479.821 385.41 L484.104 385.41 L484.104 399.438 Z" fill="#000000" fill-rule="nonzero" fill-opacity="1" /><path clip-path="url(#clip410)" d="M514.289 388.142 L514.289 395.503 L523.062 395.503 L523.062 398.813 L514.289 398.813 L514.289 412.887 Q514.289 416.058 515.145 416.961 Q516.025 417.864 518.687 417.864 L523.062 417.864 L523.062 421.429 L518.687 421.429 Q513.756 421.429 511.881 419.6 Q510.006 417.748 510.006 412.887 L510.006 398.813 L506.881 398.813 L506.881 395.503 L510.006 395.503 L510.006 388.142 L514.289 388.142 Z" fill="#000000" fill-rule="nonzero" fill-opacity="1" /><circle clip-path="url(#clip410)" cx="384.989" cy="455.989" r="23.04" fill="#eec591" fill-rule="evenodd" fill-opacity="1" stroke="none"/>
<path clip-path="url(#clip410)" d="M480.4 447.343 L500.631 447.343 L500.631 451.232 L484.613 469.866 L500.631 469.866 L500.631 473.269 L479.821 473.269 L479.821 469.38 L495.84 450.746 L480.4 450.746 L480.4 447.343 Z" fill="#000000" fill-rule="nonzero" fill-opacity="1" /><path clip-path="url(#clip410)" d="M528.687 457.621 L528.687 473.269 L524.428 473.269 L524.428 457.759 Q524.428 454.079 522.992 452.25 Q521.557 450.422 518.687 450.422 Q515.238 450.422 513.247 452.621 Q511.256 454.82 511.256 458.616 L511.256 473.269 L506.974 473.269 L506.974 437.25 L511.256 437.25 L511.256 451.371 Q512.784 449.033 514.844 447.875 Q516.928 446.718 519.636 446.718 Q524.103 446.718 526.395 449.496 Q528.687 452.25 528.687 457.621 Z" fill="#000000" fill-rule="nonzero" fill-opacity="1" /></svg>
