<?xml version="1.0" encoding="utf-8"?>
<svg xmlns="http://www.w3.org/2000/svg" xmlns:xlink="http://www.w3.org/1999/xlink" width="600" height="400" viewBox="0 0 2400 1600">
<defs>
  <clipPath id="clip670">
    <rect x="0" y="0" width="2400" height="1600"/>
  </clipPath>
</defs>
<path clip-path="url(#clip670)" d="M0 1600 L2400 1600 L2400 0 L0 0  Z" fill="#ffffff" fill-rule="evenodd" fill-opacity="1"/>
<defs>
  <clipPath id="clip671">
    <rect x="279" y="47" width="2074" height="1377"/>
  </clipPath>
</defs>
<path clip-path="url(#clip670)" d="M279.866 1423.18 L2352.76 1423.18 L2352.76 47.2441 L279.866 47.2441  Z" fill="#ffffff" fill-rule="evenodd" fill-opacity="1"/>
<polyline clip-path="url(#clip671)" style="stroke:#000000; stroke-linecap:round; stroke-linejoin:round; stroke-width:2; stroke-opacity:0.1; fill:none" points="488.208,1423.18 488.208,47.2441 "/>
<polyline clip-path="url(#clip671)" style="stroke:#000000; stroke-linecap:round; stroke-linejoin:round; stroke-width:2; stroke-opacity:0.1; fill:none" points="910.037,1423.18 910.037,47.2441 "/>
<polyline clip-path="url(#clip671)" style="stroke:#000000; stroke-linecap:round; stroke-linejoin:round; stroke-width:2; stroke-opacity:0.1; fill:none" points="1331.87,1423.18 1331.87,47.2441 "/>
<polyline clip-path="url(#clip671)" style="stroke:#000000; stroke-linecap:round; stroke-linejoin:round; stroke-width:2; stroke-opacity:0.1; fill:none" points="1753.69,1423.18 1753.69,47.2441 "/>
<polyline clip-path="url(#clip671)" style="stroke:#000000; stroke-linecap:round; stroke-linejoin:round; stroke-width:2; stroke-opacity:0.1; fill:none" points="2175.52,1423.18 2175.52,47.2441 "/>
<polyline clip-path="url(#clip671)" style="stroke:#000000; stroke-linecap:round; stroke-linejoin:round; stroke-width:2; stroke-opacity:0.1; fill:none" points="279.866,1343.67 2352.76,1343.67 "/>
<polyline clip-path="url(#clip671)" style="stroke:#000000; stroke-linecap:round; stroke-linejoin:round; stroke-width:2; stroke-opacity:0.1; fill:none" points="279.866,1105.4 2352.76,1105.4 "/>
<polyline clip-path="url(#clip671)" style="stroke:#000000; stroke-linecap:round; stroke-linejoin:round; stroke-width:2; stroke-opacity:0.1; fill:none" points="279.866,867.124 2352.76,867.124 "/>
<polyline clip-path="url(#clip671)" style="stroke:#000000; stroke-linecap:round; stroke-linejoin:round; stroke-width:2; stroke-opacity:0.1; fill:none" points="279.866,628.85 2352.76,628.85 "/>
<polyline clip-path="url(#clip671)" style="stroke:#000000; stroke-linecap:round; stroke-linejoin:round; stroke-width:2; stroke-opacity:0.1; fill:none" points="279.866,390.577 2352.76,390.577 "/>
<polyline clip-path="url(#clip671)" style="stroke:#000000; stroke-linecap:round; stroke-linejoin:round; stroke-width:2; stroke-opacity:0.1; fill:none" points="279.866,152.303 2352.76,152.303 "/>
<polyline clip-path="url(#clip670)" style="stroke:#000000; stroke-linecap:round; stroke-linejoin:round; stroke-width:4; stroke-opacity:1; fill:none" points="279.866,1423.18 2352.76,1423.18 "/>
<polyline clip-path="url(#clip670)" style="stroke:#000000; stroke-linecap:round; stroke-linejoin:round; stroke-width:4; stroke-opacity:1; fill:none" points="488.208,1423.18 488.208,1404.28 "/>
<polyline clip-path="url(#clip670)" style="stroke:#000000; stroke-linecap:round; stroke-linejoin:round; stroke-width:4; stroke-opacity:1; fill:none" points="910.037,1423.18 910.037,1404.28 "/>
<polyline clip-path="url(#clip670)" style="stroke:#000000; stroke-linecap:round; stroke-linejoin:round; stroke-width:4; stroke-opacity:1; fill:none" points="1331.87,1423.18 1331.87,1404.28 "/>
<polyline clip-path="url(#clip670)" style="stroke:#000000; stroke-linecap:round; stroke-linejoin:round; stroke-width:4; stroke-opacity:1; fill:none" points="1753.69,1423.18 1753.69,1404.28 "/>
<polyline clip-path="url(#clip670)" style="stroke:#000000; stroke-linecap:round; stroke-linejoin:round; stroke-width:4; stroke-opacity:1; fill:none" points="2175.52,1423.18 2175.52,1404.28 "/>
<path clip-path="url(#clip670)" d="M451.009 1454.1 Q447.398 1454.1 445.569 1457.66 Q443.764 1461.2 443.764 1468.33 Q443.764 1475.44 445.569 1479.01 Q447.398 1482.55 451.009 1482.55 Q454.643 1482.55 456.449 1479.01 Q458.278 1475.44 458.278 1468.33 Q458.278 1461.2 456.449 1457.66 Q454.643 1454.1 451.009 1454.1 M451.009 1450.39 Q456.819 1450.39 459.875 1455 Q462.953 1459.58 462.953 1468.33 Q462.953 1477.06 459.875 1481.67 Q456.819 1486.25 451.009 1486.25 Q445.199 1486.25 442.12 1481.67 Q439.065 1477.06 439.065 1468.33 Q439.065 1459.58 442.12 1455 Q445.199 1450.39 451.009 1450.39 Z" fill="#000000" fill-rule="nonzero" fill-opacity="1" /><path clip-path="url(#clip670)" d="M471.171 1479.7 L476.055 1479.7 L476.055 1485.58 L471.171 1485.58 L471.171 1479.7 Z" fill="#000000" fill-rule="nonzero" fill-opacity="1" /><path clip-path="url(#clip670)" d="M486.287 1451.02 L504.643 1451.02 L504.643 1454.96 L490.569 1454.96 L490.569 1463.43 Q491.588 1463.08 492.606 1462.92 Q493.625 1462.73 494.643 1462.73 Q500.43 1462.73 503.81 1465.9 Q507.189 1469.08 507.189 1474.49 Q507.189 1480.07 503.717 1483.17 Q500.245 1486.25 493.926 1486.25 Q491.75 1486.25 489.481 1485.88 Q487.236 1485.51 484.828 1484.77 L484.828 1480.07 Q486.912 1481.2 489.134 1481.76 Q491.356 1482.32 493.833 1482.32 Q497.838 1482.32 500.175 1480.21 Q502.513 1478.1 502.513 1474.49 Q502.513 1470.88 500.175 1468.77 Q497.838 1466.67 493.833 1466.67 Q491.958 1466.67 490.083 1467.08 Q488.231 1467.5 486.287 1468.38 L486.287 1451.02 Z" fill="#000000" fill-rule="nonzero" fill-opacity="1" /><path clip-path="url(#clip670)" d="M516.449 1451.02 L534.805 1451.02 L534.805 1454.96 L520.731 1454.96 L520.731 1463.43 Q521.749 1463.08 522.768 1462.92 Q523.786 1462.73 524.805 1462.73 Q530.592 1462.73 533.972 1465.9 Q537.351 1469.08 537.351 1474.49 Q537.351 1480.07 533.879 1483.17 Q530.407 1486.25 524.087 1486.25 Q521.911 1486.25 519.643 1485.88 Q517.398 1485.51 514.99 1484.77 L514.99 1480.07 Q517.074 1481.2 519.296 1481.76 Q521.518 1482.32 523.995 1482.32 Q527.999 1482.32 530.337 1480.21 Q532.675 1478.1 532.675 1474.49 Q532.675 1470.88 530.337 1468.77 Q527.999 1466.67 523.995 1466.67 Q522.12 1466.67 520.245 1467.08 Q518.393 1467.5 516.449 1468.38 L516.449 1451.02 Z" fill="#000000" fill-rule="nonzero" fill-opacity="1" /><path clip-path="url(#clip670)" d="M872.34 1454.1 Q868.729 1454.1 866.9 1457.66 Q865.095 1461.2 865.095 1468.33 Q865.095 1475.44 866.9 1479.01 Q868.729 1482.55 872.34 1482.55 Q875.974 1482.55 877.78 1479.01 Q879.609 1475.44 879.609 1468.33 Q879.609 1461.2 877.78 1457.66 Q875.974 1454.1 872.34 1454.1 M872.34 1450.39 Q878.15 1450.39 881.206 1455 Q884.285 1459.58 884.285 1468.33 Q884.285 1477.06 881.206 1481.67 Q878.15 1486.25 872.34 1486.25 Q866.53 1486.25 863.451 1481.67 Q860.396 1477.06 860.396 1468.33 Q860.396 1459.58 863.451 1455 Q866.53 1450.39 872.34 1450.39 Z" fill="#000000" fill-rule="nonzero" fill-opacity="1" /><path clip-path="url(#clip670)" d="M892.502 1479.7 L897.386 1479.7 L897.386 1485.58 L892.502 1485.58 L892.502 1479.7 Z" fill="#000000" fill-rule="nonzero" fill-opacity="1" /><path clip-path="url(#clip670)" d="M918.15 1466.44 Q915.002 1466.44 913.15 1468.59 Q911.322 1470.74 911.322 1474.49 Q911.322 1478.22 913.15 1480.39 Q915.002 1482.55 918.15 1482.55 Q921.298 1482.55 923.127 1480.39 Q924.979 1478.22 924.979 1474.49 Q924.979 1470.74 923.127 1468.59 Q921.298 1466.44 918.15 1466.44 M927.433 1451.78 L927.433 1456.04 Q925.673 1455.21 923.868 1454.77 Q922.085 1454.33 920.326 1454.33 Q915.696 1454.33 913.243 1457.45 Q910.812 1460.58 910.465 1466.9 Q911.831 1464.89 913.891 1463.82 Q915.951 1462.73 918.428 1462.73 Q923.636 1462.73 926.645 1465.9 Q929.678 1469.05 929.678 1474.49 Q929.678 1479.82 926.53 1483.03 Q923.382 1486.25 918.15 1486.25 Q912.155 1486.25 908.984 1481.67 Q905.812 1477.06 905.812 1468.33 Q905.812 1460.14 909.701 1455.28 Q913.59 1450.39 920.141 1450.39 Q921.9 1450.39 923.683 1450.74 Q925.488 1451.09 927.433 1451.78 Z" fill="#000000" fill-rule="nonzero" fill-opacity="1" /><path clip-path="url(#clip670)" d="M947.733 1454.1 Q944.122 1454.1 942.294 1457.66 Q940.488 1461.2 940.488 1468.33 Q940.488 1475.44 942.294 1479.01 Q944.122 1482.55 947.733 1482.55 Q951.368 1482.55 953.173 1479.01 Q955.002 1475.44 955.002 1468.33 Q955.002 1461.2 953.173 1457.66 Q951.368 1454.1 947.733 1454.1 M947.733 1450.39 Q953.544 1450.39 956.599 1455 Q959.678 1459.58 959.678 1468.33 Q959.678 1477.06 956.599 1481.67 Q953.544 1486.25 947.733 1486.25 Q941.923 1486.25 938.845 1481.67 Q935.789 1477.06 935.789 1468.33 Q935.789 1459.58 938.845 1455 Q941.923 1450.39 947.733 1450.39 Z" fill="#000000" fill-rule="nonzero" fill-opacity="1" /><path clip-path="url(#clip670)" d="M1294.67 1454.1 Q1291.06 1454.1 1289.23 1457.66 Q1287.42 1461.2 1287.42 1468.33 Q1287.42 1475.44 1289.23 1479.01 Q1291.06 1482.55 1294.67 1482.55 Q1298.3 1482.55 1300.11 1479.01 Q1301.94 1475.44 1301.94 1468.33 Q1301.94 1461.2 1300.11 1457.66 Q1298.3 1454.1 1294.67 1454.1 M1294.67 1450.39 Q1300.48 1450.39 1303.53 1455 Q1306.61 1459.58 1306.61 1468.33 Q1306.61 1477.06 1303.53 1481.67 Q1300.48 1486.25 1294.67 1486.25 Q1288.86 1486.25 1285.78 1481.67 Q1282.72 1477.06 1282.72 1468.33 Q1282.72 1459.58 1285.78 1455 Q1288.86 1450.39 1294.67 1450.39 Z" fill="#000000" fill-rule="nonzero" fill-opacity="1" /><path clip-path="url(#clip670)" d="M1314.83 1479.7 L1319.71 1479.7 L1319.71 1485.58 L1314.83 1485.58 L1314.83 1479.7 Z" fill="#000000" fill-rule="nonzero" fill-opacity="1" /><path clip-path="url(#clip670)" d="M1340.48 1466.44 Q1337.33 1466.44 1335.48 1468.59 Q1333.65 1470.74 1333.65 1474.49 Q1333.65 1478.22 1335.48 1480.39 Q1337.33 1482.55 1340.48 1482.55 Q1343.62 1482.55 1345.45 1480.39 Q1347.31 1478.22 1347.31 1474.49 Q1347.31 1470.74 1345.45 1468.59 Q1343.62 1466.44 1340.48 1466.44 M1349.76 1451.78 L1349.76 1456.04 Q1348 1455.21 1346.19 1454.77 Q1344.41 1454.33 1342.65 1454.33 Q1338.02 1454.33 1335.57 1457.45 Q1333.14 1460.58 1332.79 1466.9 Q1334.16 1464.89 1336.22 1463.82 Q1338.28 1462.73 1340.75 1462.73 Q1345.96 1462.73 1348.97 1465.9 Q1352 1469.05 1352 1474.49 Q1352 1479.82 1348.86 1483.03 Q1345.71 1486.25 1340.48 1486.25 Q1334.48 1486.25 1331.31 1481.67 Q1328.14 1477.06 1328.14 1468.33 Q1328.14 1460.14 1332.03 1455.28 Q1335.92 1450.39 1342.47 1450.39 Q1344.23 1450.39 1346.01 1450.74 Q1347.81 1451.09 1349.76 1451.78 Z" fill="#000000" fill-rule="nonzero" fill-opacity="1" /><path clip-path="url(#clip670)" d="M1360.11 1451.02 L1378.46 1451.02 L1378.46 1454.96 L1364.39 1454.96 L1364.39 1463.43 Q1365.41 1463.08 1366.43 1462.92 Q1367.44 1462.73 1368.46 1462.73 Q1374.25 1462.73 1377.63 1465.9 Q1381.01 1469.08 1381.01 1474.49 Q1381.01 1480.07 1377.54 1483.17 Q1374.06 1486.25 1367.75 1486.25 Q1365.57 1486.25 1363.3 1485.88 Q1361.06 1485.51 1358.65 1484.77 L1358.65 1480.07 Q1360.73 1481.2 1362.95 1481.76 Q1365.18 1482.32 1367.65 1482.32 Q1371.66 1482.32 1374 1480.21 Q1376.33 1478.1 1376.33 1474.49 Q1376.33 1470.88 1374 1468.77 Q1371.66 1466.67 1367.65 1466.67 Q1365.78 1466.67 1363.9 1467.08 Q1362.05 1467.5 1360.11 1468.38 L1360.11 1451.02 Z" fill="#000000" fill-rule="nonzero" fill-opacity="1" /><path clip-path="url(#clip670)" d="M1716 1454.1 Q1712.39 1454.1 1710.56 1457.66 Q1708.75 1461.2 1708.75 1468.33 Q1708.75 1475.44 1710.56 1479.01 Q1712.39 1482.55 1716 1482.55 Q1719.63 1482.55 1721.44 1479.01 Q1723.27 1475.44 1723.27 1468.33 Q1723.27 1461.2 1721.44 1457.66 Q1719.63 1454.1 1716 1454.1 M1716 1450.39 Q1721.81 1450.39 1724.86 1455 Q1727.94 1459.58 1727.94 1468.33 Q1727.94 1477.06 1724.86 1481.67 Q1721.81 1486.25 1716 1486.25 Q1710.19 1486.25 1707.11 1481.67 Q1704.05 1477.06 1704.05 1468.33 Q1704.05 1459.58 1707.11 1455 Q1710.19 1450.39 1716 1450.39 Z" fill="#000000" fill-rule="nonzero" fill-opacity="1" /><path clip-path="url(#clip670)" d="M1736.16 1479.7 L1741.04 1479.7 L1741.04 1485.58 L1736.16 1485.58 L1736.16 1479.7 Z" fill="#000000" fill-rule="nonzero" fill-opacity="1" /><path clip-path="url(#clip670)" d="M1750.05 1451.02 L1772.27 1451.02 L1772.27 1453.01 L1759.72 1485.58 L1754.84 1485.58 L1766.65 1454.96 L1750.05 1454.96 L1750.05 1451.02 Z" fill="#000000" fill-rule="nonzero" fill-opacity="1" /><path clip-path="url(#clip670)" d="M1791.39 1454.1 Q1787.78 1454.1 1785.95 1457.66 Q1784.15 1461.2 1784.15 1468.33 Q1784.15 1475.44 1785.95 1479.01 Q1787.78 1482.55 1791.39 1482.55 Q1795.03 1482.55 1796.83 1479.01 Q1798.66 1475.44 1798.66 1468.33 Q1798.66 1461.2 1796.83 1457.66 Q1795.03 1454.1 1791.39 1454.1 M1791.39 1450.39 Q1797.2 1450.39 1800.26 1455 Q1803.34 1459.58 1803.34 1468.33 Q1803.34 1477.06 1800.26 1481.67 Q1797.2 1486.25 1791.39 1486.25 Q1785.58 1486.25 1782.5 1481.67 Q1779.45 1477.06 1779.45 1468.33 Q1779.45 1459.58 1782.5 1455 Q1785.58 1450.39 1791.39 1450.39 Z" fill="#000000" fill-rule="nonzero" fill-opacity="1" /><path clip-path="url(#clip670)" d="M2138.32 1454.1 Q2134.71 1454.1 2132.88 1457.66 Q2131.08 1461.2 2131.08 1468.33 Q2131.08 1475.44 2132.88 1479.01 Q2134.71 1482.55 2138.32 1482.55 Q2141.96 1482.55 2143.76 1479.01 Q2145.59 1475.44 2145.59 1468.33 Q2145.59 1461.2 2143.76 1457.66 Q2141.96 1454.1 2138.32 1454.1 M2138.32 1450.39 Q2144.13 1450.39 2147.19 1455 Q2150.27 1459.58 2150.27 1468.33 Q2150.27 1477.06 2147.19 1481.67 Q2144.13 1486.25 2138.32 1486.25 Q2132.51 1486.25 2129.44 1481.67 Q2126.38 1477.06 2126.38 1468.33 Q2126.38 1459.58 2129.44 1455 Q2132.51 1450.39 2138.32 1450.39 Z" fill="#000000" fill-rule="nonzero" fill-opacity="1" /><path clip-path="url(#clip670)" d="M2158.49 1479.7 L2163.37 1479.7 L2163.37 1485.58 L2158.49 1485.58 L2158.49 1479.7 Z" fill="#000000" fill-rule="nonzero" fill-opacity="1" /><path clip-path="url(#clip670)" d="M2172.38 1451.02 L2194.6 1451.02 L2194.6 1453.01 L2182.05 1485.58 L2177.17 1485.58 L2188.97 1454.96 L2172.38 1454.96 L2172.38 1451.02 Z" fill="#000000" fill-rule="nonzero" fill-opacity="1" /><path clip-path="url(#clip670)" d="M2203.76 1451.02 L2222.12 1451.02 L2222.12 1454.96 L2208.05 1454.96 L2208.05 1463.43 Q2209.06 1463.08 2210.08 1462.92 Q2211.1 1462.73 2212.12 1462.73 Q2217.91 1462.73 2221.29 1465.9 Q2224.67 1469.08 2224.67 1474.49 Q2224.67 1480.07 2221.19 1483.17 Q2217.72 1486.25 2211.4 1486.25 Q2209.23 1486.25 2206.96 1485.88 Q2204.71 1485.51 2202.31 1484.77 L2202.31 1480.07 Q2204.39 1481.2 2206.61 1481.76 Q2208.83 1482.32 2211.31 1482.32 Q2215.31 1482.32 2217.65 1480.21 Q2219.99 1478.1 2219.99 1474.49 Q2219.99 1470.88 2217.65 1468.77 Q2215.31 1466.67 2211.31 1466.67 Q2209.44 1466.67 2207.56 1467.08 Q2205.71 1467.5 2203.76 1468.38 L2203.76 1451.02 Z" fill="#000000" fill-rule="nonzero" fill-opacity="1" /><path clip-path="url(#clip670)" d="M1299.14 1581.6 L1299.14 1532.4 L1305 1532.4 L1305 1554.55 Q1305 1559.16 1307.19 1561.52 Q1309.39 1563.87 1313.69 1563.87 Q1318.4 1563.87 1320.75 1561.2 Q1323.14 1558.53 1323.14 1553.18 L1323.14 1532.4 L1328.99 1532.4 L1328.99 1559.83 Q1328.99 1561.74 1329.54 1562.66 Q1330.11 1563.56 1331.29 1563.56 Q1331.57 1563.56 1332.08 1563.4 Q1332.59 1563.21 1333.48 1562.82 L1333.48 1567.53 Q1332.18 1568.27 1331 1568.62 Q1329.85 1568.97 1328.74 1568.97 Q1326.54 1568.97 1325.24 1567.73 Q1323.93 1566.48 1323.46 1563.94 Q1321.87 1566.45 1319.54 1567.73 Q1317.25 1568.97 1314.13 1568.97 Q1310.88 1568.97 1308.59 1567.73 Q1306.33 1566.48 1305 1564 L1305 1581.6 L1299.14 1581.6 Z" fill="#000000" fill-rule="nonzero" fill-opacity="1" /><polyline clip-path="url(#clip670)" style="stroke:#000000; stroke-linecap:round; stroke-linejoin:round; stroke-width:4; stroke-opacity:1; fill:none" points="279.866,1423.18 279.866,47.2441 "/>
<polyline clip-path="url(#clip670)" style="stroke:#000000; stroke-linecap:round; stroke-linejoin:round; stroke-width:4; stroke-opacity:1; fill:none" points="279.866,1343.67 298.764,1343.67 "/>
<polyline clip-path="url(#clip670)" style="stroke:#000000; stroke-linecap:round; stroke-linejoin:round; stroke-width:4; stroke-opacity:1; fill:none" points="279.866,1105.4 298.764,1105.4 "/>
<polyline clip-path="url(#clip670)" style="stroke:#000000; stroke-linecap:round; stroke-linejoin:round; stroke-width:4; stroke-opacity:1; fill:none" points="279.866,867.124 298.764,867.124 "/>
<polyline clip-path="url(#clip670)" style="stroke:#000000; stroke-linecap:round; stroke-linejoin:round; stroke-width:4; stroke-opacity:1; fill:none" points="279.866,628.85 298.764,628.85 "/>
<polyline clip-path="url(#clip670)" style="stroke:#000000; stroke-linecap:round; stroke-linejoin:round; stroke-width:4; stroke-opacity:1; fill:none" points="279.866,390.577 298.764,390.577 "/>
<polyline clip-path="url(#clip670)" style="stroke:#000000; stroke-linecap:round; stroke-linejoin:round; stroke-width:4; stroke-opacity:1; fill:none" points="279.866,152.303 298.764,152.303 "/>
<path clip-path="url(#clip670)" d="M126.205 1329.47 Q122.593 1329.47 120.765 1333.03 Q118.959 1336.58 118.959 1343.71 Q118.959 1350.81 120.765 1354.38 Q122.593 1357.92 126.205 1357.92 Q129.839 1357.92 131.644 1354.38 Q133.473 1350.81 133.473 1343.71 Q133.473 1336.58 131.644 1333.03 Q129.839 1329.47 126.205 1329.47 M126.205 1325.77 Q132.015 1325.77 135.07 1330.37 Q138.149 1334.96 138.149 1343.71 Q138.149 1352.43 135.07 1357.04 Q132.015 1361.62 126.205 1361.62 Q120.394 1361.62 117.316 1357.04 Q114.26 1352.43 114.26 1343.71 Q114.26 1334.96 117.316 1330.37 Q120.394 1325.77 126.205 1325.77 Z" fill="#000000" fill-rule="nonzero" fill-opacity="1" /><path clip-path="url(#clip670)" d="M146.366 1355.07 L151.251 1355.07 L151.251 1360.95 L146.366 1360.95 L146.366 1355.07 Z" fill="#000000" fill-rule="nonzero" fill-opacity="1" /><path clip-path="url(#clip670)" d="M161.575 1360.23 L161.575 1355.97 Q163.334 1356.81 165.14 1357.25 Q166.945 1357.69 168.681 1357.69 Q173.311 1357.69 175.741 1354.59 Q178.195 1351.46 178.542 1345.12 Q177.2 1347.11 175.139 1348.17 Q173.079 1349.24 170.579 1349.24 Q165.394 1349.24 162.362 1346.11 Q159.353 1342.96 159.353 1337.53 Q159.353 1332.2 162.501 1328.98 Q165.649 1325.77 170.88 1325.77 Q176.876 1325.77 180.024 1330.37 Q183.195 1334.96 183.195 1343.71 Q183.195 1351.88 179.306 1356.76 Q175.44 1361.62 168.889 1361.62 Q167.13 1361.62 165.325 1361.27 Q163.519 1360.93 161.575 1360.23 M170.88 1345.58 Q174.028 1345.58 175.857 1343.43 Q177.709 1341.28 177.709 1337.53 Q177.709 1333.8 175.857 1331.65 Q174.028 1329.47 170.88 1329.47 Q167.732 1329.47 165.88 1331.65 Q164.052 1333.8 164.052 1337.53 Q164.052 1341.28 165.88 1343.43 Q167.732 1345.58 170.88 1345.58 Z" fill="#000000" fill-rule="nonzero" fill-opacity="1" /><path clip-path="url(#clip670)" d="M191.737 1360.23 L191.737 1355.97 Q193.496 1356.81 195.301 1357.25 Q197.107 1357.69 198.843 1357.69 Q203.473 1357.69 205.903 1354.59 Q208.357 1351.46 208.704 1345.12 Q207.362 1347.11 205.301 1348.17 Q203.241 1349.24 200.741 1349.24 Q195.556 1349.24 192.524 1346.11 Q189.514 1342.96 189.514 1337.53 Q189.514 1332.2 192.663 1328.98 Q195.811 1325.77 201.042 1325.77 Q207.037 1325.77 210.186 1330.37 Q213.357 1334.96 213.357 1343.71 Q213.357 1351.88 209.468 1356.76 Q205.602 1361.62 199.051 1361.62 Q197.292 1361.62 195.487 1361.27 Q193.681 1360.93 191.737 1360.23 M201.042 1345.58 Q204.19 1345.58 206.019 1343.43 Q207.871 1341.28 207.871 1337.53 Q207.871 1333.8 206.019 1331.65 Q204.19 1329.47 201.042 1329.47 Q197.894 1329.47 196.042 1331.65 Q194.213 1333.8 194.213 1337.53 Q194.213 1341.28 196.042 1343.43 Q197.894 1345.58 201.042 1345.58 Z" fill="#000000" fill-rule="nonzero" fill-opacity="1" /><path clip-path="url(#clip670)" d="M232.338 1341.81 Q229.19 1341.81 227.338 1343.96 Q225.51 1346.11 225.51 1349.86 Q225.51 1353.59 227.338 1355.77 Q229.19 1357.92 232.338 1357.92 Q235.486 1357.92 237.315 1355.77 Q239.167 1353.59 239.167 1349.86 Q239.167 1346.11 237.315 1343.96 Q235.486 1341.81 232.338 1341.81 M241.621 1327.15 L241.621 1331.41 Q239.861 1330.58 238.056 1330.14 Q236.273 1329.7 234.514 1329.7 Q229.885 1329.7 227.431 1332.83 Q225 1335.95 224.653 1342.27 Q226.019 1340.26 228.079 1339.19 Q230.139 1338.1 232.616 1338.1 Q237.824 1338.1 240.834 1341.28 Q243.866 1344.42 243.866 1349.86 Q243.866 1355.19 240.718 1358.4 Q237.57 1361.62 232.338 1361.62 Q226.343 1361.62 223.172 1357.04 Q220 1352.43 220 1343.71 Q220 1335.51 223.889 1330.65 Q227.778 1325.77 234.329 1325.77 Q236.088 1325.77 237.871 1326.11 Q239.676 1326.46 241.621 1327.15 Z" fill="#000000" fill-rule="nonzero" fill-opacity="1" /><path clip-path="url(#clip670)" d="M127.269 1091.2 Q123.658 1091.2 121.83 1094.76 Q120.024 1098.3 120.024 1105.43 Q120.024 1112.54 121.83 1116.1 Q123.658 1119.65 127.269 1119.65 Q130.904 1119.65 132.709 1116.1 Q134.538 1112.54 134.538 1105.43 Q134.538 1098.3 132.709 1094.76 Q130.904 1091.2 127.269 1091.2 M127.269 1087.49 Q133.08 1087.49 136.135 1092.1 Q139.214 1096.68 139.214 1105.43 Q139.214 1114.16 136.135 1118.77 Q133.08 1123.35 127.269 1123.35 Q121.459 1123.35 118.381 1118.77 Q115.325 1114.16 115.325 1105.43 Q115.325 1096.68 118.381 1092.1 Q121.459 1087.49 127.269 1087.49 Z" fill="#000000" fill-rule="nonzero" fill-opacity="1" /><path clip-path="url(#clip670)" d="M147.431 1116.8 L152.316 1116.8 L152.316 1122.68 L147.431 1122.68 L147.431 1116.8 Z" fill="#000000" fill-rule="nonzero" fill-opacity="1" /><path clip-path="url(#clip670)" d="M162.64 1121.96 L162.64 1117.7 Q164.399 1118.53 166.204 1118.97 Q168.01 1119.41 169.746 1119.41 Q174.376 1119.41 176.806 1116.31 Q179.26 1113.19 179.607 1106.84 Q178.264 1108.83 176.204 1109.9 Q174.144 1110.96 171.644 1110.96 Q166.459 1110.96 163.427 1107.84 Q160.417 1104.69 160.417 1099.25 Q160.417 1093.93 163.565 1090.71 Q166.714 1087.49 171.945 1087.49 Q177.94 1087.49 181.089 1092.1 Q184.26 1096.68 184.26 1105.43 Q184.26 1113.6 180.371 1118.49 Q176.505 1123.35 169.954 1123.35 Q168.195 1123.35 166.39 1123 Q164.584 1122.65 162.64 1121.96 M171.945 1107.31 Q175.093 1107.31 176.922 1105.15 Q178.774 1103 178.774 1099.25 Q178.774 1095.52 176.922 1093.37 Q175.093 1091.2 171.945 1091.2 Q168.797 1091.2 166.945 1093.37 Q165.116 1095.52 165.116 1099.25 Q165.116 1103 166.945 1105.15 Q168.797 1107.31 171.945 1107.31 Z" fill="#000000" fill-rule="nonzero" fill-opacity="1" /><path clip-path="url(#clip670)" d="M192.801 1121.96 L192.801 1117.7 Q194.561 1118.53 196.366 1118.97 Q198.172 1119.41 199.908 1119.41 Q204.537 1119.41 206.968 1116.31 Q209.422 1113.19 209.769 1106.84 Q208.426 1108.83 206.366 1109.9 Q204.306 1110.96 201.806 1110.96 Q196.621 1110.96 193.588 1107.84 Q190.579 1104.69 190.579 1099.25 Q190.579 1093.93 193.727 1090.71 Q196.875 1087.49 202.107 1087.49 Q208.102 1087.49 211.25 1092.1 Q214.422 1096.68 214.422 1105.43 Q214.422 1113.6 210.533 1118.49 Q206.667 1123.35 200.116 1123.35 Q198.357 1123.35 196.551 1123 Q194.746 1122.65 192.801 1121.96 M202.107 1107.31 Q205.255 1107.31 207.084 1105.15 Q208.936 1103 208.936 1099.25 Q208.936 1095.52 207.084 1093.37 Q205.255 1091.2 202.107 1091.2 Q198.959 1091.2 197.107 1093.37 Q195.278 1095.52 195.278 1099.25 Q195.278 1103 197.107 1105.15 Q198.959 1107.31 202.107 1107.31 Z" fill="#000000" fill-rule="nonzero" fill-opacity="1" /><path clip-path="url(#clip670)" d="M221.644 1088.12 L243.866 1088.12 L243.866 1090.11 L231.32 1122.68 L226.435 1122.68 L238.241 1092.05 L221.644 1092.05 L221.644 1088.12 Z" fill="#000000" fill-rule="nonzero" fill-opacity="1" /><path clip-path="url(#clip670)" d="M126.459 852.923 Q122.848 852.923 121.019 856.487 Q119.214 860.029 119.214 867.159 Q119.214 874.265 121.019 877.83 Q122.848 881.372 126.459 881.372 Q130.093 881.372 131.899 877.83 Q133.728 874.265 133.728 867.159 Q133.728 860.029 131.899 856.487 Q130.093 852.923 126.459 852.923 M126.459 849.219 Q132.269 849.219 135.325 853.825 Q138.404 858.409 138.404 867.159 Q138.404 875.885 135.325 880.492 Q132.269 885.075 126.459 885.075 Q120.649 885.075 117.57 880.492 Q114.515 875.885 114.515 867.159 Q114.515 858.409 117.57 853.825 Q120.649 849.219 126.459 849.219 Z" fill="#000000" fill-rule="nonzero" fill-opacity="1" /><path clip-path="url(#clip670)" d="M146.621 878.524 L151.505 878.524 L151.505 884.404 L146.621 884.404 L146.621 878.524 Z" fill="#000000" fill-rule="nonzero" fill-opacity="1" /><path clip-path="url(#clip670)" d="M161.829 883.686 L161.829 879.427 Q163.589 880.26 165.394 880.7 Q167.2 881.14 168.936 881.14 Q173.565 881.14 175.996 878.038 Q178.45 874.913 178.797 868.571 Q177.454 870.561 175.394 871.626 Q173.334 872.691 170.834 872.691 Q165.649 872.691 162.616 869.566 Q159.607 866.418 159.607 860.978 Q159.607 855.654 162.755 852.436 Q165.903 849.219 171.135 849.219 Q177.13 849.219 180.278 853.825 Q183.45 858.409 183.45 867.159 Q183.45 875.33 179.561 880.214 Q175.695 885.075 169.144 885.075 Q167.385 885.075 165.579 884.728 Q163.774 884.381 161.829 883.686 M171.135 869.034 Q174.283 869.034 176.112 866.881 Q177.964 864.728 177.964 860.978 Q177.964 857.251 176.112 855.099 Q174.283 852.923 171.135 852.923 Q167.987 852.923 166.135 855.099 Q164.306 857.251 164.306 860.978 Q164.306 864.728 166.135 866.881 Q167.987 869.034 171.135 869.034 Z" fill="#000000" fill-rule="nonzero" fill-opacity="1" /><path clip-path="url(#clip670)" d="M191.991 883.686 L191.991 879.427 Q193.75 880.26 195.556 880.7 Q197.362 881.14 199.098 881.14 Q203.727 881.14 206.158 878.038 Q208.612 874.913 208.959 868.571 Q207.616 870.561 205.556 871.626 Q203.496 872.691 200.996 872.691 Q195.811 872.691 192.778 869.566 Q189.769 866.418 189.769 860.978 Q189.769 855.654 192.917 852.436 Q196.065 849.219 201.297 849.219 Q207.292 849.219 210.44 853.825 Q213.611 858.409 213.611 867.159 Q213.611 875.33 209.723 880.214 Q205.857 885.075 199.306 885.075 Q197.547 885.075 195.741 884.728 Q193.936 884.381 191.991 883.686 M201.297 869.034 Q204.445 869.034 206.274 866.881 Q208.125 864.728 208.125 860.978 Q208.125 857.251 206.274 855.099 Q204.445 852.923 201.297 852.923 Q198.149 852.923 196.297 855.099 Q194.468 857.251 194.468 860.978 Q194.468 864.728 196.297 866.881 Q198.149 869.034 201.297 869.034 Z" fill="#000000" fill-rule="nonzero" fill-opacity="1" /><path clip-path="url(#clip670)" d="M232.014 867.992 Q228.681 867.992 226.76 869.774 Q224.861 871.557 224.861 874.682 Q224.861 877.807 226.76 879.589 Q228.681 881.372 232.014 881.372 Q235.347 881.372 237.269 879.589 Q239.19 877.784 239.19 874.682 Q239.19 871.557 237.269 869.774 Q235.371 867.992 232.014 867.992 M227.338 866.001 Q224.329 865.26 222.639 863.2 Q220.973 861.14 220.973 858.177 Q220.973 854.034 223.912 851.626 Q226.875 849.219 232.014 849.219 Q237.176 849.219 240.116 851.626 Q243.056 854.034 243.056 858.177 Q243.056 861.14 241.366 863.2 Q239.699 865.26 236.713 866.001 Q240.093 866.788 241.968 869.08 Q243.866 871.372 243.866 874.682 Q243.866 879.705 240.787 882.39 Q237.732 885.075 232.014 885.075 Q226.297 885.075 223.218 882.39 Q220.162 879.705 220.162 874.682 Q220.162 871.372 222.061 869.08 Q223.959 866.788 227.338 866.001 M225.625 858.617 Q225.625 861.302 227.292 862.807 Q228.982 864.311 232.014 864.311 Q235.023 864.311 236.713 862.807 Q238.426 861.302 238.426 858.617 Q238.426 855.932 236.713 854.427 Q235.023 852.923 232.014 852.923 Q228.982 852.923 227.292 854.427 Q225.625 855.932 225.625 858.617 Z" fill="#000000" fill-rule="nonzero" fill-opacity="1" /><path clip-path="url(#clip670)" d="M126.552 614.649 Q122.941 614.649 121.112 618.214 Q119.306 621.756 119.306 628.885 Q119.306 635.992 121.112 639.556 Q122.941 643.098 126.552 643.098 Q130.186 643.098 131.992 639.556 Q133.82 635.992 133.82 628.885 Q133.82 621.756 131.992 618.214 Q130.186 614.649 126.552 614.649 M126.552 610.945 Q132.362 610.945 135.417 615.552 Q138.496 620.135 138.496 628.885 Q138.496 637.612 135.417 642.218 Q132.362 646.802 126.552 646.802 Q120.742 646.802 117.663 642.218 Q114.607 637.612 114.607 628.885 Q114.607 620.135 117.663 615.552 Q120.742 610.945 126.552 610.945 Z" fill="#000000" fill-rule="nonzero" fill-opacity="1" /><path clip-path="url(#clip670)" d="M146.714 640.251 L151.598 640.251 L151.598 646.13 L146.714 646.13 L146.714 640.251 Z" fill="#000000" fill-rule="nonzero" fill-opacity="1" /><path clip-path="url(#clip670)" d="M161.922 645.413 L161.922 641.154 Q163.681 641.987 165.487 642.427 Q167.292 642.867 169.028 642.867 Q173.658 642.867 176.089 639.765 Q178.542 636.64 178.889 630.297 Q177.547 632.288 175.487 633.353 Q173.427 634.418 170.927 634.418 Q165.741 634.418 162.709 631.293 Q159.7 628.144 159.7 622.705 Q159.7 617.381 162.848 614.163 Q165.996 610.945 171.227 610.945 Q177.223 610.945 180.371 615.552 Q183.542 620.135 183.542 628.885 Q183.542 637.056 179.653 641.941 Q175.788 646.802 169.237 646.802 Q167.477 646.802 165.672 646.455 Q163.866 646.107 161.922 645.413 M171.227 630.76 Q174.376 630.76 176.204 628.607 Q178.056 626.455 178.056 622.705 Q178.056 618.978 176.204 616.825 Q174.376 614.649 171.227 614.649 Q168.079 614.649 166.227 616.825 Q164.399 618.978 164.399 622.705 Q164.399 626.455 166.227 628.607 Q168.079 630.76 171.227 630.76 Z" fill="#000000" fill-rule="nonzero" fill-opacity="1" /><path clip-path="url(#clip670)" d="M192.084 645.413 L192.084 641.154 Q193.843 641.987 195.649 642.427 Q197.454 642.867 199.19 642.867 Q203.82 642.867 206.25 639.765 Q208.704 636.64 209.051 630.297 Q207.709 632.288 205.649 633.353 Q203.588 634.418 201.088 634.418 Q195.903 634.418 192.871 631.293 Q189.862 628.144 189.862 622.705 Q189.862 617.381 193.01 614.163 Q196.158 610.945 201.389 610.945 Q207.385 610.945 210.533 615.552 Q213.704 620.135 213.704 628.885 Q213.704 637.056 209.815 641.941 Q205.949 646.802 199.399 646.802 Q197.639 646.802 195.834 646.455 Q194.028 646.107 192.084 645.413 M201.389 630.76 Q204.537 630.76 206.366 628.607 Q208.218 626.455 208.218 622.705 Q208.218 618.978 206.366 616.825 Q204.537 614.649 201.389 614.649 Q198.241 614.649 196.389 616.825 Q194.561 618.978 194.561 622.705 Q194.561 626.455 196.389 628.607 Q198.241 630.76 201.389 630.76 Z" fill="#000000" fill-rule="nonzero" fill-opacity="1" /><path clip-path="url(#clip670)" d="M222.246 645.413 L222.246 641.154 Q224.005 641.987 225.81 642.427 Q227.616 642.867 229.352 642.867 Q233.982 642.867 236.412 639.765 Q238.866 636.64 239.213 630.297 Q237.871 632.288 235.81 633.353 Q233.75 634.418 231.25 634.418 Q226.065 634.418 223.033 631.293 Q220.023 628.144 220.023 622.705 Q220.023 617.381 223.172 614.163 Q226.32 610.945 231.551 610.945 Q237.547 610.945 240.695 615.552 Q243.866 620.135 243.866 628.885 Q243.866 637.056 239.977 641.941 Q236.111 646.802 229.56 646.802 Q227.801 646.802 225.996 646.455 Q224.19 646.107 222.246 645.413 M231.551 630.76 Q234.699 630.76 236.528 628.607 Q238.38 626.455 238.38 622.705 Q238.38 618.978 236.528 616.825 Q234.699 614.649 231.551 614.649 Q228.403 614.649 226.551 616.825 Q224.723 618.978 224.723 622.705 Q224.723 626.455 226.551 628.607 Q228.403 630.76 231.551 630.76 Z" fill="#000000" fill-rule="nonzero" fill-opacity="1" /><path clip-path="url(#clip670)" d="M117.177 403.922 L124.816 403.922 L124.816 377.556 L116.506 379.223 L116.506 374.964 L124.769 373.297 L129.445 373.297 L129.445 403.922 L137.084 403.922 L137.084 407.857 L117.177 407.857 L117.177 403.922 Z" fill="#000000" fill-rule="nonzero" fill-opacity="1" /><path clip-path="url(#clip670)" d="M146.529 401.977 L151.413 401.977 L151.413 407.857 L146.529 407.857 L146.529 401.977 Z" fill="#000000" fill-rule="nonzero" fill-opacity="1" /><path clip-path="url(#clip670)" d="M171.598 376.376 Q167.987 376.376 166.158 379.94 Q164.352 383.482 164.352 390.612 Q164.352 397.718 166.158 401.283 Q167.987 404.825 171.598 404.825 Q175.232 404.825 177.038 401.283 Q178.866 397.718 178.866 390.612 Q178.866 383.482 177.038 379.94 Q175.232 376.376 171.598 376.376 M171.598 372.672 Q177.408 372.672 180.464 377.278 Q183.542 381.862 183.542 390.612 Q183.542 399.338 180.464 403.945 Q177.408 408.528 171.598 408.528 Q165.788 408.528 162.709 403.945 Q159.653 399.338 159.653 390.612 Q159.653 381.862 162.709 377.278 Q165.788 372.672 171.598 372.672 Z" fill="#000000" fill-rule="nonzero" fill-opacity="1" /><path clip-path="url(#clip670)" d="M201.76 376.376 Q198.149 376.376 196.32 379.94 Q194.514 383.482 194.514 390.612 Q194.514 397.718 196.32 401.283 Q198.149 404.825 201.76 404.825 Q205.394 404.825 207.199 401.283 Q209.028 397.718 209.028 390.612 Q209.028 383.482 207.199 379.94 Q205.394 376.376 201.76 376.376 M201.76 372.672 Q207.57 372.672 210.625 377.278 Q213.704 381.862 213.704 390.612 Q213.704 399.338 210.625 403.945 Q207.57 408.528 201.76 408.528 Q195.95 408.528 192.871 403.945 Q189.815 399.338 189.815 390.612 Q189.815 381.862 192.871 377.278 Q195.95 372.672 201.76 372.672 Z" fill="#000000" fill-rule="nonzero" fill-opacity="1" /><path clip-path="url(#clip670)" d="M231.922 376.376 Q228.31 376.376 226.482 379.94 Q224.676 383.482 224.676 390.612 Q224.676 397.718 226.482 401.283 Q228.31 404.825 231.922 404.825 Q235.556 404.825 237.361 401.283 Q239.19 397.718 239.19 390.612 Q239.19 383.482 237.361 379.94 Q235.556 376.376 231.922 376.376 M231.922 372.672 Q237.732 372.672 240.787 377.278 Q243.866 381.862 243.866 390.612 Q243.866 399.338 240.787 403.945 Q237.732 408.528 231.922 408.528 Q226.111 408.528 223.033 403.945 Q219.977 399.338 219.977 390.612 Q219.977 381.862 223.033 377.278 Q226.111 372.672 231.922 372.672 Z" fill="#000000" fill-rule="nonzero" fill-opacity="1" /><path clip-path="url(#clip670)" d="M118.404 165.648 L126.043 165.648 L126.043 139.283 L117.732 140.949 L117.732 136.69 L125.996 135.023 L130.672 135.023 L130.672 165.648 L138.311 165.648 L138.311 169.583 L118.404 169.583 L118.404 165.648 Z" fill="#000000" fill-rule="nonzero" fill-opacity="1" /><path clip-path="url(#clip670)" d="M147.755 163.704 L152.64 163.704 L152.64 169.583 L147.755 169.583 L147.755 163.704 Z" fill="#000000" fill-rule="nonzero" fill-opacity="1" /><path clip-path="url(#clip670)" d="M172.825 138.102 Q169.214 138.102 167.385 141.667 Q165.579 145.209 165.579 152.338 Q165.579 159.445 167.385 163.009 Q169.214 166.551 172.825 166.551 Q176.459 166.551 178.264 163.009 Q180.093 159.445 180.093 152.338 Q180.093 145.209 178.264 141.667 Q176.459 138.102 172.825 138.102 M172.825 134.398 Q178.635 134.398 181.69 139.005 Q184.769 143.588 184.769 152.338 Q184.769 161.065 181.69 165.671 Q178.635 170.255 172.825 170.255 Q167.015 170.255 163.936 165.671 Q160.88 161.065 160.88 152.338 Q160.88 143.588 163.936 139.005 Q167.015 134.398 172.825 134.398 Z" fill="#000000" fill-rule="nonzero" fill-opacity="1" /><path clip-path="url(#clip670)" d="M202.987 138.102 Q199.375 138.102 197.547 141.667 Q195.741 145.209 195.741 152.338 Q195.741 159.445 197.547 163.009 Q199.375 166.551 202.987 166.551 Q206.621 166.551 208.426 163.009 Q210.255 159.445 210.255 152.338 Q210.255 145.209 208.426 141.667 Q206.621 138.102 202.987 138.102 M202.987 134.398 Q208.797 134.398 211.852 139.005 Q214.931 143.588 214.931 152.338 Q214.931 161.065 211.852 165.671 Q208.797 170.255 202.987 170.255 Q197.176 170.255 194.098 165.671 Q191.042 161.065 191.042 152.338 Q191.042 143.588 194.098 139.005 Q197.176 134.398 202.987 134.398 Z" fill="#000000" fill-rule="nonzero" fill-opacity="1" /><path clip-path="url(#clip670)" d="M223.959 165.648 L231.597 165.648 L231.597 139.283 L223.287 140.949 L223.287 136.69 L231.551 135.023 L236.227 135.023 L236.227 165.648 L243.866 165.648 L243.866 169.583 L223.959 169.583 L223.959 165.648 Z" fill="#000000" fill-rule="nonzero" fill-opacity="1" /><path clip-path="url(#clip670)" d="M29.4065 723.499 L34.9447 723.499 Q33.6716 725.982 33.035 728.655 Q32.3984 731.329 32.3984 734.193 Q32.3984 738.554 33.7352 740.75 Q35.072 742.914 37.7456 742.914 Q39.7826 742.914 40.9603 741.355 Q42.1061 739.795 43.1565 735.085 L43.6021 733.079 Q44.9389 726.841 47.3897 724.231 Q49.8086 721.589 54.1691 721.589 Q59.1344 721.589 62.0308 725.536 Q64.9272 729.451 64.9272 736.326 Q64.9272 739.191 64.3543 742.31 Q63.8132 745.397 62.6992 748.835 L56.6518 748.835 Q58.3387 745.588 59.198 742.437 Q60.0256 739.286 60.0256 736.199 Q60.0256 732.061 58.6251 729.833 Q57.1929 727.605 54.6147 727.605 Q52.2276 727.605 50.9545 729.228 Q49.6813 730.82 48.5037 736.262 L48.0262 738.299 Q46.8804 743.742 44.5251 746.161 Q42.138 748.58 38.0002 748.58 Q32.9713 748.58 30.2341 745.015 Q27.4968 741.45 27.4968 734.894 Q27.4968 731.647 27.9743 728.783 Q28.4517 725.918 29.4065 723.499 Z" fill="#000000" fill-rule="nonzero" fill-opacity="1" /><polyline clip-path="url(#clip671)" style="stroke:#009af9; stroke-linecap:round; stroke-linejoin:round; stroke-width:8; stroke-opacity:1; fill:none" points="2294.09,1384.24 2275.83,1358.27 "/>
<polyline clip-path="url(#clip671)" style="stroke:#009af9; stroke-linecap:round; stroke-linejoin:round; stroke-width:8; stroke-opacity:1; fill:none" points="2275.83,1358.27 2242.32,1326.47 "/>
<polyline clip-path="url(#clip671)" style="stroke:#009af9; stroke-linecap:round; stroke-linejoin:round; stroke-width:8; stroke-opacity:1; fill:none" points="2242.32,1326.47 2198.37,1294.29 "/>
<polyline clip-path="url(#clip671)" style="stroke:#009af9; stroke-linecap:round; stroke-linejoin:round; stroke-width:8; stroke-opacity:1; fill:none" points="2198.37,1294.29 2153.06,1266 "/>
<polyline clip-path="url(#clip671)" style="stroke:#009af9; stroke-linecap:round; stroke-linejoin:round; stroke-width:8; stroke-opacity:1; fill:none" points="2153.06,1266 2106.08,1239.52 "/>
<polyline clip-path="url(#clip671)" style="stroke:#009af9; stroke-linecap:round; stroke-linejoin:round; stroke-width:8; stroke-opacity:1; fill:none" points="2106.08,1239.52 2058.12,1214.39 "/>
<polyline clip-path="url(#clip671)" style="stroke:#009af9; stroke-linecap:round; stroke-linejoin:round; stroke-width:8; stroke-opacity:1; fill:none" points="2058.12,1214.39 2009.53,1190.2 "/>
<polyline clip-path="url(#clip671)" style="stroke:#009af9; stroke-linecap:round; stroke-linejoin:round; stroke-width:4; stroke-opacity:1; fill:none" stroke-dasharray="2, 4" points="2009.53,1190.2 1960.51,1166.79 "/>
<polyline clip-path="url(#clip671)" style="stroke:#009af9; stroke-linecap:round; stroke-linejoin:round; stroke-width:4; stroke-opacity:1; fill:none" stroke-dasharray="2, 4" points="1960.51,1166.79 1911.18,1143.94 "/>
<polyline clip-path="url(#clip671)" style="stroke:#009af9; stroke-linecap:round; stroke-linejoin:round; stroke-width:4; stroke-opacity:1; fill:none" stroke-dasharray="2, 4" points="1911.18,1143.94 1861.62,1121.51 "/>
<polyline clip-path="url(#clip671)" style="stroke:#009af9; stroke-linecap:round; stroke-linejoin:round; stroke-width:4; stroke-opacity:1; fill:none" stroke-dasharray="2, 4" points="1861.62,1121.51 1811.91,1099.34 "/>
<polyline clip-path="url(#clip671)" style="stroke:#009af9; stroke-linecap:round; stroke-linejoin:round; stroke-width:4; stroke-opacity:1; fill:none" stroke-dasharray="2, 4" points="1811.91,1099.34 1762.08,1077.42 "/>
<polyline clip-path="url(#clip671)" style="stroke:#009af9; stroke-linecap:round; stroke-linejoin:round; stroke-width:4; stroke-opacity:1; fill:none" stroke-dasharray="2, 4" points="1762.08,1077.42 1712.16,1055.63 "/>
<polyline clip-path="url(#clip671)" style="stroke:#009af9; stroke-linecap:round; stroke-linejoin:round; stroke-width:4; stroke-opacity:1; fill:none" stroke-dasharray="2, 4" points="1712.16,1055.63 1662.18,1033.82 "/>
<polyline clip-path="url(#clip671)" style="stroke:#009af9; stroke-linecap:round; stroke-linejoin:round; stroke-width:4; stroke-opacity:1; fill:none" stroke-dasharray="2, 4" points="1662.18,1033.82 1612.18,1011.99 "/>
<polyline clip-path="url(#clip671)" style="stroke:#009af9; stroke-linecap:round; stroke-linejoin:round; stroke-width:4; stroke-opacity:1; fill:none" stroke-dasharray="2, 4" points="1612.18,1011.99 1562.17,990.078 "/>
<polyline clip-path="url(#clip671)" style="stroke:#009af9; stroke-linecap:round; stroke-linejoin:round; stroke-width:4; stroke-opacity:1; fill:none" stroke-dasharray="2, 4" points="1562.17,990.078 1512.18,967.99 "/>
<polyline clip-path="url(#clip671)" style="stroke:#009af9; stroke-linecap:round; stroke-linejoin:round; stroke-width:8; stroke-opacity:1; fill:none" points="1512.18,967.99 1462.23,945.631 "/>
<polyline clip-path="url(#clip671)" style="stroke:#009af9; stroke-linecap:round; stroke-linejoin:round; stroke-width:8; stroke-opacity:1; fill:none" points="1462.23,945.631 1412.36,922.886 "/>
<polyline clip-path="url(#clip671)" style="stroke:#009af9; stroke-linecap:round; stroke-linejoin:round; stroke-width:8; stroke-opacity:1; fill:none" points="1412.36,922.886 1362.6,899.614 "/>
<polyline clip-path="url(#clip671)" style="stroke:#009af9; stroke-linecap:round; stroke-linejoin:round; stroke-width:8; stroke-opacity:1; fill:none" points="1362.6,899.614 1313.03,875.618 "/>
<polyline clip-path="url(#clip671)" style="stroke:#009af9; stroke-linecap:round; stroke-linejoin:round; stroke-width:8; stroke-opacity:1; fill:none" points="1313.03,875.618 1263.71,850.613 "/>
<polyline clip-path="url(#clip671)" style="stroke:#009af9; stroke-linecap:round; stroke-linejoin:round; stroke-width:8; stroke-opacity:1; fill:none" points="1263.71,850.613 1214.81,824.122 "/>
<polyline clip-path="url(#clip671)" style="stroke:#009af9; stroke-linecap:round; stroke-linejoin:round; stroke-width:8; stroke-opacity:1; fill:none" points="1214.81,824.122 1166.62,795.202 "/>
<polyline clip-path="url(#clip671)" style="stroke:#009af9; stroke-linecap:round; stroke-linejoin:round; stroke-width:8; stroke-opacity:1; fill:none" points="1166.62,795.202 1119.88,761.2 "/>
<polyline clip-path="url(#clip671)" style="stroke:#009af9; stroke-linecap:round; stroke-linejoin:round; stroke-width:8; stroke-opacity:1; fill:none" points="1119.88,761.2 1098.75,739.82 "/>
<polyline clip-path="url(#clip671)" style="stroke:#009af9; stroke-linecap:round; stroke-linejoin:round; stroke-width:8; stroke-opacity:1; fill:none" points="1098.75,739.82 1094.23,698.374 "/>
<polyline clip-path="url(#clip671)" style="stroke:#009af9; stroke-linecap:round; stroke-linejoin:round; stroke-width:4; stroke-opacity:1; fill:none" stroke-dasharray="2, 4" points="1094.23,698.374 1133.31,677.892 "/>
<polyline clip-path="url(#clip671)" style="stroke:#009af9; stroke-linecap:round; stroke-linejoin:round; stroke-width:4; stroke-opacity:1; fill:none" stroke-dasharray="2, 4" points="1133.31,677.892 1177.17,664.878 "/>
<polyline clip-path="url(#clip671)" style="stroke:#009af9; stroke-linecap:round; stroke-linejoin:round; stroke-width:4; stroke-opacity:1; fill:none" stroke-dasharray="2, 4" points="1177.17,664.878 1221.99,640.665 "/>
<polyline clip-path="url(#clip671)" style="stroke:#009af9; stroke-linecap:round; stroke-linejoin:round; stroke-width:4; stroke-opacity:1; fill:none" stroke-dasharray="2, 4" points="1221.99,640.665 1217.12,607.322 "/>
<polyline clip-path="url(#clip671)" style="stroke:#009af9; stroke-linecap:round; stroke-linejoin:round; stroke-width:8; stroke-opacity:1; fill:none" points="1217.12,607.322 1190.62,577.448 "/>
<polyline clip-path="url(#clip671)" style="stroke:#009af9; stroke-linecap:round; stroke-linejoin:round; stroke-width:8; stroke-opacity:1; fill:none" points="1190.62,577.448 1148.81,542.965 "/>
<polyline clip-path="url(#clip671)" style="stroke:#009af9; stroke-linecap:round; stroke-linejoin:round; stroke-width:8; stroke-opacity:1; fill:none" points="1148.81,542.965 1104.14,511.132 "/>
<polyline clip-path="url(#clip671)" style="stroke:#009af9; stroke-linecap:round; stroke-linejoin:round; stroke-width:8; stroke-opacity:1; fill:none" points="1104.14,511.132 1058.15,480.89 "/>
<polyline clip-path="url(#clip671)" style="stroke:#009af9; stroke-linecap:round; stroke-linejoin:round; stroke-width:8; stroke-opacity:1; fill:none" points="1058.15,480.89 1011.45,451.765 "/>
<polyline clip-path="url(#clip671)" style="stroke:#009af9; stroke-linecap:round; stroke-linejoin:round; stroke-width:8; stroke-opacity:1; fill:none" points="1011.45,451.765 964.308,423.468 "/>
<polyline clip-path="url(#clip671)" style="stroke:#009af9; stroke-linecap:round; stroke-linejoin:round; stroke-width:8; stroke-opacity:1; fill:none" points="964.308,423.468 916.86,395.813 "/>
<polyline clip-path="url(#clip671)" style="stroke:#009af9; stroke-linecap:round; stroke-linejoin:round; stroke-width:8; stroke-opacity:1; fill:none" points="916.86,395.813 869.186,368.673 "/>
<polyline clip-path="url(#clip671)" style="stroke:#009af9; stroke-linecap:round; stroke-linejoin:round; stroke-width:8; stroke-opacity:1; fill:none" points="869.186,368.673 821.341,341.956 "/>
<polyline clip-path="url(#clip671)" style="stroke:#009af9; stroke-linecap:round; stroke-linejoin:round; stroke-width:8; stroke-opacity:1; fill:none" points="821.341,341.956 773.361,315.593 "/>
<polyline clip-path="url(#clip671)" style="stroke:#009af9; stroke-linecap:round; stroke-linejoin:round; stroke-width:8; stroke-opacity:1; fill:none" points="773.361,315.593 725.272,289.527 "/>
<polyline clip-path="url(#clip671)" style="stroke:#009af9; stroke-linecap:round; stroke-linejoin:round; stroke-width:8; stroke-opacity:1; fill:none" points="725.272,289.527 677.096,263.713 "/>
<polyline clip-path="url(#clip671)" style="stroke:#009af9; stroke-linecap:round; stroke-linejoin:round; stroke-width:8; stroke-opacity:1; fill:none" points="677.096,263.713 628.849,238.114 "/>
<polyline clip-path="url(#clip671)" style="stroke:#009af9; stroke-linecap:round; stroke-linejoin:round; stroke-width:8; stroke-opacity:1; fill:none" points="628.849,238.114 580.545,212.467 "/>
<polyline clip-path="url(#clip671)" style="stroke:#009af9; stroke-linecap:round; stroke-linejoin:round; stroke-width:8; stroke-opacity:1; fill:none" points="580.545,212.467 532.195,186.976 "/>
<polyline clip-path="url(#clip671)" style="stroke:#009af9; stroke-linecap:round; stroke-linejoin:round; stroke-width:8; stroke-opacity:1; fill:none" points="532.195,186.976 483.809,161.624 "/>
<polyline clip-path="url(#clip671)" style="stroke:#009af9; stroke-linecap:round; stroke-linejoin:round; stroke-width:8; stroke-opacity:1; fill:none" points="483.809,161.624 435.398,136.388 "/>
<polyline clip-path="url(#clip671)" style="stroke:#009af9; stroke-linecap:round; stroke-linejoin:round; stroke-width:8; stroke-opacity:1; fill:none" points="435.398,136.388 386.97,111.249 "/>
<polyline clip-path="url(#clip671)" style="stroke:#009af9; stroke-linecap:round; stroke-linejoin:round; stroke-width:8; stroke-opacity:1; fill:none" points="386.97,111.249 338.533,86.1857 "/>
<circle clip-path="url(#clip671)" cx="2009.53" cy="1190.2" r="10.8" fill="#008000" fill-rule="evenodd" fill-opacity="1" stroke="none"/>
<circle clip-path="url(#clip671)" cx="1512.18" cy="967.99" r="10.8" fill="#008000" fill-rule="evenodd" fill-opacity="1" stroke="none"/>
<circle clip-path="url(#clip671)" cx="1094.23" cy="698.374" r="10.8" fill="#0000ff" fill-rule="evenodd" fill-opacity="1" stroke="none"/>
<circle clip-path="url(#clip671)" cx="1217.12" cy="607.322" r="10.8" fill="#0000ff" fill-rule="evenodd" fill-opacity="1" stroke="none"/>
<circle clip-path="url(#clip671)" cx="2009.53" cy="1190.2" r="10.8" fill="#008000" fill-rule="evenodd" fill-opacity="1" stroke="none"/>
<circle clip-path="url(#clip671)" cx="1094.23" cy="698.374" r="10.8" fill="#0000ff" fill-rule="evenodd" fill-opacity="1" stroke="none"/>
<path clip-path="url(#clip670)" d="M2023.08 248.629 L2283.66 248.629 L2283.66 93.1086 L2023.08 93.1086  Z" fill="#ffffff" fill-rule="evenodd" fill-opacity="1"/>
<polyline clip-path="url(#clip670)" style="stroke:#000000; stroke-linecap:round; stroke-linejoin:round; stroke-width:4; stroke-opacity:1; fill:none" points="2023.08,248.629 2283.66,248.629 2283.66,93.1086 2023.08,93.1086 2023.08,248.629 "/>
<circle clip-path="url(#clip670)" cx="2115.21" cy="144.949" r="23.04" fill="#008000" fill-rule="evenodd" fill-opacity="1" stroke="none"/>
<path clip-path="url(#clip670)" d="M2211.62 158.34 L2211.62 172.09 L2207.34 172.09 L2207.34 136.303 L2211.62 136.303 L2211.62 140.238 Q2212.97 137.923 2215 136.812 Q2217.06 135.678 2219.91 135.678 Q2224.63 135.678 2227.57 139.428 Q2230.54 143.178 2230.54 149.289 Q2230.54 155.4 2227.57 159.15 Q2224.63 162.9 2219.91 162.9 Q2217.06 162.9 2215 161.789 Q2212.97 160.655 2211.62 158.34 M2226.11 149.289 Q2226.11 144.59 2224.17 141.928 Q2222.25 139.243 2218.87 139.243 Q2215.49 139.243 2213.54 141.928 Q2211.62 144.59 2211.62 149.289 Q2211.62 153.988 2213.54 156.673 Q2215.49 159.335 2218.87 159.335 Q2222.25 159.335 2224.17 156.673 Q2226.11 153.988 2226.11 149.289 Z" fill="#000000" fill-rule="nonzero" fill-opacity="1" /><path clip-path="url(#clip670)" d="M2254.66 140.238 L2254.66 126.21 L2258.91 126.21 L2258.91 162.229 L2254.66 162.229 L2254.66 158.34 Q2253.31 160.655 2251.25 161.789 Q2249.22 162.9 2246.35 162.9 Q2241.65 162.9 2238.68 159.15 Q2235.74 155.4 2235.74 149.289 Q2235.74 143.178 2238.68 139.428 Q2241.65 135.678 2246.35 135.678 Q2249.22 135.678 2251.25 136.812 Q2253.31 137.923 2254.66 140.238 M2240.14 149.289 Q2240.14 153.988 2242.06 156.673 Q2244.01 159.335 2247.39 159.335 Q2250.77 159.335 2252.71 156.673 Q2254.66 153.988 2254.66 149.289 Q2254.66 144.59 2252.71 141.928 Q2250.77 139.243 2247.39 139.243 Q2244.01 139.243 2242.06 141.928 Q2240.14 144.59 2240.14 149.289 Z" fill="#000000" fill-rule="nonzero" fill-opacity="1" /><circle clip-path="url(#clip670)" cx="2115.21" cy="196.789" r="23.04" fill="#0000ff" fill-rule="evenodd" fill-opacity="1" stroke="none"/>
<path clip-path="url(#clip670)" d="M2226.11 201.129 Q2226.11 196.43 2224.17 193.768 Q2222.25 191.083 2218.87 191.083 Q2215.49 191.083 2213.54 193.768 Q2211.62 196.43 2211.62 201.129 Q2211.62 205.828 2213.54 208.513 Q2215.49 211.175 2218.87 211.175 Q2222.25 211.175 2224.17 208.513 Q2226.11 205.828 2226.11 201.129 M2211.62 192.078 Q2212.97 189.763 2215 188.652 Q2217.06 187.518 2219.91 187.518 Q2224.63 187.518 2227.57 191.268 Q2230.54 195.018 2230.54 201.129 Q2230.54 207.24 2227.57 210.99 Q2224.63 214.74 2219.91 214.74 Q2217.06 214.74 2215 213.629 Q2212.97 212.495 2211.62 210.18 L2211.62 214.069 L2207.34 214.069 L2207.34 178.05 L2211.62 178.05 L2211.62 192.078 Z" fill="#000000" fill-rule="nonzero" fill-opacity="1" /><path clip-path="url(#clip670)" d="M2241.72 210.18 L2241.72 223.93 L2237.43 223.93 L2237.43 188.143 L2241.72 188.143 L2241.72 192.078 Q2243.06 189.763 2245.1 188.652 Q2247.16 187.518 2250 187.518 Q2254.72 187.518 2257.66 191.268 Q2260.63 195.018 2260.63 201.129 Q2260.63 207.24 2257.66 210.99 Q2254.72 214.74 2250 214.74 Q2247.16 214.74 2245.1 213.629 Q2243.06 212.495 2241.72 210.18 M2256.21 201.129 Q2256.21 196.43 2254.26 193.768 Q2252.34 191.083 2248.96 191.083 Q2245.58 191.083 2243.64 193.768 Q2241.72 196.43 2241.72 201.129 Q2241.72 205.828 2243.64 208.513 Q2245.58 211.175 2248.96 211.175 Q2252.34 211.175 2254.26 208.513 Q2256.21 205.828 2256.21 201.129 Z" fill="#000000" fill-rule="nonzero" fill-opacity="1" /></svg>
