<?xml version="1.0" encoding="utf-8"?>
<svg xmlns="http://www.w3.org/2000/svg" xmlns:xlink="http://www.w3.org/1999/xlink" width="600" height="400" viewBox="0 0 2400 1600">
<defs>
  <clipPath id="clip990">
    <rect x="0" y="0" width="2400" height="1600"/>
  </clipPath>
</defs>
<path clip-path="url(#clip990)" d="M0 1600 L2400 1600 L2400 0 L0 0  Z" fill="#ffffff" fill-rule="evenodd" fill-opacity="1"/>
<defs>
  <clipPath id="clip991">
    <rect x="480" y="0" width="1681" height="1600"/>
  </clipPath>
</defs>
<path clip-path="url(#clip990)" d="M202.227 1423.18 L2352.76 1423.18 L2352.76 47.2441 L202.227 47.2441  Z" fill="#ffffff" fill-rule="evenodd" fill-opacity="1"/>
<defs>
  <clipPath id="clip992">
    <rect x="202" y="47" width="2152" height="1377"/>
  </clipPath>
</defs>
<polyline clip-path="url(#clip992)" style="stroke:#000000; stroke-linecap:round; stroke-linejoin:round; stroke-width:2; stroke-opacity:0.1; fill:none" points="479.121,1423.18 479.121,47.2441 "/>
<polyline clip-path="url(#clip992)" style="stroke:#000000; stroke-linecap:round; stroke-linejoin:round; stroke-width:2; stroke-opacity:0.1; fill:none" points="911.179,1423.18 911.179,47.2441 "/>
<polyline clip-path="url(#clip992)" style="stroke:#000000; stroke-linecap:round; stroke-linejoin:round; stroke-width:2; stroke-opacity:0.1; fill:none" points="1343.24,1423.18 1343.24,47.2441 "/>
<polyline clip-path="url(#clip992)" style="stroke:#000000; stroke-linecap:round; stroke-linejoin:round; stroke-width:2; stroke-opacity:0.1; fill:none" points="1775.3,1423.18 1775.3,47.2441 "/>
<polyline clip-path="url(#clip992)" style="stroke:#000000; stroke-linecap:round; stroke-linejoin:round; stroke-width:2; stroke-opacity:0.1; fill:none" points="2207.35,1423.18 2207.35,47.2441 "/>
<polyline clip-path="url(#clip990)" style="stroke:#000000; stroke-linecap:round; stroke-linejoin:round; stroke-width:4; stroke-opacity:1; fill:none" points="202.227,1423.18 2352.76,1423.18 "/>
<polyline clip-path="url(#clip990)" style="stroke:#000000; stroke-linecap:round; stroke-linejoin:round; stroke-width:4; stroke-opacity:1; fill:none" points="479.121,1423.18 479.121,1404.28 "/>
<polyline clip-path="url(#clip990)" style="stroke:#000000; stroke-linecap:round; stroke-linejoin:round; stroke-width:4; stroke-opacity:1; fill:none" points="911.179,1423.18 911.179,1404.28 "/>
<polyline clip-path="url(#clip990)" style="stroke:#000000; stroke-linecap:round; stroke-linejoin:round; stroke-width:4; stroke-opacity:1; fill:none" points="1343.24,1423.18 1343.24,1404.28 "/>
<polyline clip-path="url(#clip990)" style="stroke:#000000; stroke-linecap:round; stroke-linejoin:round; stroke-width:4; stroke-opacity:1; fill:none" points="1775.3,1423.18 1775.3,1404.28 "/>
<polyline clip-path="url(#clip990)" style="stroke:#000000; stroke-linecap:round; stroke-linejoin:round; stroke-width:4; stroke-opacity:1; fill:none" points="2207.35,1423.18 2207.35,1404.28 "/>
<path clip-path="url(#clip990)" d="M441.343 1454.1 Q437.732 1454.1 435.903 1457.66 Q434.098 1461.2 434.098 1468.33 Q434.098 1475.44 435.903 1479.01 Q437.732 1482.55 441.343 1482.55 Q444.977 1482.55 446.783 1479.01 Q448.612 1475.44 448.612 1468.33 Q448.612 1461.2 446.783 1457.66 Q444.977 1454.1 441.343 1454.1 M441.343 1450.39 Q447.153 1450.39 450.209 1455 Q453.287 1459.58 453.287 1468.33 Q453.287 1477.06 450.209 1481.67 Q447.153 1486.25 441.343 1486.25 Q435.533 1486.25 432.454 1481.67 Q429.399 1477.06 429.399 1468.33 Q429.399 1459.58 432.454 1455 Q435.533 1450.39 441.343 1450.39 Z" fill="#000000" fill-rule="nonzero" fill-opacity="1" /><path clip-path="url(#clip990)" d="M461.505 1479.7 L466.389 1479.7 L466.389 1485.58 L461.505 1485.58 L461.505 1479.7 Z" fill="#000000" fill-rule="nonzero" fill-opacity="1" /><path clip-path="url(#clip990)" d="M475.394 1451.02 L497.616 1451.02 L497.616 1453.01 L485.07 1485.58 L480.185 1485.58 L491.991 1454.96 L475.394 1454.96 L475.394 1451.02 Z" fill="#000000" fill-rule="nonzero" fill-opacity="1" /><path clip-path="url(#clip990)" d="M517.315 1466.44 Q514.167 1466.44 512.315 1468.59 Q510.486 1470.74 510.486 1474.49 Q510.486 1478.22 512.315 1480.39 Q514.167 1482.55 517.315 1482.55 Q520.463 1482.55 522.292 1480.39 Q524.144 1478.22 524.144 1474.49 Q524.144 1470.74 522.292 1468.59 Q520.463 1466.44 517.315 1466.44 M526.597 1451.78 L526.597 1456.04 Q524.838 1455.21 523.032 1454.77 Q521.25 1454.33 519.491 1454.33 Q514.861 1454.33 512.408 1457.45 Q509.977 1460.58 509.63 1466.9 Q510.996 1464.89 513.056 1463.82 Q515.116 1462.73 517.593 1462.73 Q522.801 1462.73 525.81 1465.9 Q528.843 1469.05 528.843 1474.49 Q528.843 1479.82 525.695 1483.03 Q522.546 1486.25 517.315 1486.25 Q511.32 1486.25 508.148 1481.67 Q504.977 1477.06 504.977 1468.33 Q504.977 1460.14 508.866 1455.28 Q512.755 1450.39 519.306 1450.39 Q521.065 1450.39 522.847 1450.74 Q524.653 1451.09 526.597 1451.78 Z" fill="#000000" fill-rule="nonzero" fill-opacity="1" /><path clip-path="url(#clip990)" d="M873.529 1454.1 Q869.918 1454.1 868.089 1457.66 Q866.283 1461.2 866.283 1468.33 Q866.283 1475.44 868.089 1479.01 Q869.918 1482.55 873.529 1482.55 Q877.163 1482.55 878.969 1479.01 Q880.797 1475.44 880.797 1468.33 Q880.797 1461.2 878.969 1457.66 Q877.163 1454.1 873.529 1454.1 M873.529 1450.39 Q879.339 1450.39 882.395 1455 Q885.473 1459.58 885.473 1468.33 Q885.473 1477.06 882.395 1481.67 Q879.339 1486.25 873.529 1486.25 Q867.719 1486.25 864.64 1481.67 Q861.584 1477.06 861.584 1468.33 Q861.584 1459.58 864.64 1455 Q867.719 1450.39 873.529 1450.39 Z" fill="#000000" fill-rule="nonzero" fill-opacity="1" /><path clip-path="url(#clip990)" d="M893.691 1479.7 L898.575 1479.7 L898.575 1485.58 L893.691 1485.58 L893.691 1479.7 Z" fill="#000000" fill-rule="nonzero" fill-opacity="1" /><path clip-path="url(#clip990)" d="M907.58 1451.02 L929.802 1451.02 L929.802 1453.01 L917.255 1485.58 L912.371 1485.58 L924.177 1454.96 L907.58 1454.96 L907.58 1451.02 Z" fill="#000000" fill-rule="nonzero" fill-opacity="1" /><path clip-path="url(#clip990)" d="M948.922 1469.17 Q945.589 1469.17 943.667 1470.95 Q941.769 1472.73 941.769 1475.86 Q941.769 1478.98 943.667 1480.77 Q945.589 1482.55 948.922 1482.55 Q952.255 1482.55 954.177 1480.77 Q956.098 1478.96 956.098 1475.86 Q956.098 1472.73 954.177 1470.95 Q952.278 1469.17 948.922 1469.17 M944.246 1467.18 Q941.237 1466.44 939.547 1464.38 Q937.88 1462.32 937.88 1459.35 Q937.88 1455.21 940.82 1452.8 Q943.783 1450.39 948.922 1450.39 Q954.084 1450.39 957.024 1452.8 Q959.964 1455.21 959.964 1459.35 Q959.964 1462.32 958.274 1464.38 Q956.607 1466.44 953.621 1467.18 Q957.001 1467.96 958.876 1470.26 Q960.774 1472.55 960.774 1475.86 Q960.774 1480.88 957.695 1483.57 Q954.639 1486.25 948.922 1486.25 Q943.204 1486.25 940.126 1483.57 Q937.07 1480.88 937.07 1475.86 Q937.07 1472.55 938.968 1470.26 Q940.866 1467.96 944.246 1467.18 M942.533 1459.79 Q942.533 1462.48 944.2 1463.98 Q945.89 1465.49 948.922 1465.49 Q951.931 1465.49 953.621 1463.98 Q955.334 1462.48 955.334 1459.79 Q955.334 1457.11 953.621 1455.6 Q951.931 1454.1 948.922 1454.1 Q945.89 1454.1 944.2 1455.6 Q942.533 1457.11 942.533 1459.79 Z" fill="#000000" fill-rule="nonzero" fill-opacity="1" /><path clip-path="url(#clip990)" d="M1305.54 1454.1 Q1301.93 1454.1 1300.1 1457.66 Q1298.3 1461.2 1298.3 1468.33 Q1298.3 1475.44 1300.1 1479.01 Q1301.93 1482.55 1305.54 1482.55 Q1309.18 1482.55 1310.98 1479.01 Q1312.81 1475.44 1312.81 1468.33 Q1312.81 1461.2 1310.98 1457.66 Q1309.18 1454.1 1305.54 1454.1 M1305.54 1450.39 Q1311.35 1450.39 1314.41 1455 Q1317.49 1459.58 1317.49 1468.33 Q1317.49 1477.06 1314.41 1481.67 Q1311.35 1486.25 1305.54 1486.25 Q1299.73 1486.25 1296.65 1481.67 Q1293.6 1477.06 1293.6 1468.33 Q1293.6 1459.58 1296.65 1455 Q1299.73 1450.39 1305.54 1450.39 Z" fill="#000000" fill-rule="nonzero" fill-opacity="1" /><path clip-path="url(#clip990)" d="M1325.7 1479.7 L1330.59 1479.7 L1330.59 1485.58 L1325.7 1485.58 L1325.7 1479.7 Z" fill="#000000" fill-rule="nonzero" fill-opacity="1" /><path clip-path="url(#clip990)" d="M1350.77 1469.17 Q1347.44 1469.17 1345.52 1470.95 Q1343.62 1472.73 1343.62 1475.86 Q1343.62 1478.98 1345.52 1480.77 Q1347.44 1482.55 1350.77 1482.55 Q1354.11 1482.55 1356.03 1480.77 Q1357.95 1478.96 1357.95 1475.86 Q1357.95 1472.73 1356.03 1470.95 Q1354.13 1469.17 1350.77 1469.17 M1346.1 1467.18 Q1343.09 1466.44 1341.4 1464.38 Q1339.73 1462.32 1339.73 1459.35 Q1339.73 1455.21 1342.67 1452.8 Q1345.63 1450.39 1350.77 1450.39 Q1355.93 1450.39 1358.87 1452.8 Q1361.81 1455.21 1361.81 1459.35 Q1361.81 1462.32 1360.12 1464.38 Q1358.46 1466.44 1355.47 1467.18 Q1358.85 1467.96 1360.73 1470.26 Q1362.62 1472.55 1362.62 1475.86 Q1362.62 1480.88 1359.55 1483.57 Q1356.49 1486.25 1350.77 1486.25 Q1345.05 1486.25 1341.98 1483.57 Q1338.92 1480.88 1338.92 1475.86 Q1338.92 1472.55 1340.82 1470.26 Q1342.72 1467.96 1346.1 1467.18 M1344.38 1459.79 Q1344.38 1462.48 1346.05 1463.98 Q1347.74 1465.49 1350.77 1465.49 Q1353.78 1465.49 1355.47 1463.98 Q1357.18 1462.48 1357.18 1459.79 Q1357.18 1457.11 1355.47 1455.6 Q1353.78 1454.1 1350.77 1454.1 Q1347.74 1454.1 1346.05 1455.6 Q1344.38 1457.11 1344.38 1459.79 Z" fill="#000000" fill-rule="nonzero" fill-opacity="1" /><path clip-path="url(#clip990)" d="M1380.93 1454.1 Q1377.32 1454.1 1375.49 1457.66 Q1373.69 1461.2 1373.69 1468.33 Q1373.69 1475.44 1375.49 1479.01 Q1377.32 1482.55 1380.93 1482.55 Q1384.57 1482.55 1386.37 1479.01 Q1388.2 1475.44 1388.2 1468.33 Q1388.2 1461.2 1386.37 1457.66 Q1384.57 1454.1 1380.93 1454.1 M1380.93 1450.39 Q1386.74 1450.39 1389.8 1455 Q1392.88 1459.58 1392.88 1468.33 Q1392.88 1477.06 1389.8 1481.67 Q1386.74 1486.25 1380.93 1486.25 Q1375.12 1486.25 1372.05 1481.67 Q1368.99 1477.06 1368.99 1468.33 Q1368.99 1459.58 1372.05 1455 Q1375.12 1450.39 1380.93 1450.39 Z" fill="#000000" fill-rule="nonzero" fill-opacity="1" /><path clip-path="url(#clip990)" d="M1738.4 1454.1 Q1734.79 1454.1 1732.96 1457.66 Q1731.15 1461.2 1731.15 1468.33 Q1731.15 1475.44 1732.96 1479.01 Q1734.79 1482.55 1738.4 1482.55 Q1742.03 1482.55 1743.84 1479.01 Q1745.67 1475.44 1745.67 1468.33 Q1745.67 1461.2 1743.84 1457.66 Q1742.03 1454.1 1738.4 1454.1 M1738.4 1450.39 Q1744.21 1450.39 1747.26 1455 Q1750.34 1459.58 1750.34 1468.33 Q1750.34 1477.06 1747.26 1481.67 Q1744.21 1486.25 1738.4 1486.25 Q1732.59 1486.25 1729.51 1481.67 Q1726.45 1477.06 1726.45 1468.33 Q1726.45 1459.58 1729.51 1455 Q1732.59 1450.39 1738.4 1450.39 Z" fill="#000000" fill-rule="nonzero" fill-opacity="1" /><path clip-path="url(#clip990)" d="M1758.56 1479.7 L1763.44 1479.7 L1763.44 1485.58 L1758.56 1485.58 L1758.56 1479.7 Z" fill="#000000" fill-rule="nonzero" fill-opacity="1" /><path clip-path="url(#clip990)" d="M1783.63 1469.17 Q1780.3 1469.17 1778.37 1470.95 Q1776.48 1472.73 1776.48 1475.86 Q1776.48 1478.98 1778.37 1480.77 Q1780.3 1482.55 1783.63 1482.55 Q1786.96 1482.55 1788.88 1480.77 Q1790.81 1478.96 1790.81 1475.86 Q1790.81 1472.73 1788.88 1470.95 Q1786.99 1469.17 1783.63 1469.17 M1778.95 1467.18 Q1775.94 1466.44 1774.25 1464.38 Q1772.59 1462.32 1772.59 1459.35 Q1772.59 1455.21 1775.53 1452.8 Q1778.49 1450.39 1783.63 1450.39 Q1788.79 1450.39 1791.73 1452.8 Q1794.67 1455.21 1794.67 1459.35 Q1794.67 1462.32 1792.98 1464.38 Q1791.31 1466.44 1788.33 1467.18 Q1791.71 1467.96 1793.58 1470.26 Q1795.48 1472.55 1795.48 1475.86 Q1795.48 1480.88 1792.4 1483.57 Q1789.35 1486.25 1783.63 1486.25 Q1777.91 1486.25 1774.83 1483.57 Q1771.78 1480.88 1771.78 1475.86 Q1771.78 1472.55 1773.68 1470.26 Q1775.57 1467.96 1778.95 1467.18 M1777.24 1459.79 Q1777.24 1462.48 1778.91 1463.98 Q1780.6 1465.49 1783.63 1465.49 Q1786.64 1465.49 1788.33 1463.98 Q1790.04 1462.48 1790.04 1459.79 Q1790.04 1457.11 1788.33 1455.6 Q1786.64 1454.1 1783.63 1454.1 Q1780.6 1454.1 1778.91 1455.6 Q1777.24 1457.11 1777.24 1459.79 Z" fill="#000000" fill-rule="nonzero" fill-opacity="1" /><path clip-path="url(#clip990)" d="M1807.82 1481.64 L1824.14 1481.64 L1824.14 1485.58 L1802.19 1485.58 L1802.19 1481.64 Q1804.86 1478.89 1809.44 1474.26 Q1814.05 1469.61 1815.23 1468.27 Q1817.47 1465.74 1818.35 1464.01 Q1819.25 1462.25 1819.25 1460.56 Q1819.25 1457.8 1817.31 1456.07 Q1815.39 1454.33 1812.29 1454.33 Q1810.09 1454.33 1807.63 1455.09 Q1805.2 1455.86 1802.43 1457.41 L1802.43 1452.69 Q1805.25 1451.55 1807.7 1450.97 Q1810.16 1450.39 1812.19 1450.39 Q1817.56 1450.39 1820.76 1453.08 Q1823.95 1455.77 1823.95 1460.26 Q1823.95 1462.39 1823.14 1464.31 Q1822.36 1466.2 1820.25 1468.8 Q1819.67 1469.47 1816.57 1472.69 Q1813.47 1475.88 1807.82 1481.64 Z" fill="#000000" fill-rule="nonzero" fill-opacity="1" /><path clip-path="url(#clip990)" d="M2169.41 1454.1 Q2165.8 1454.1 2163.97 1457.66 Q2162.17 1461.2 2162.17 1468.33 Q2162.17 1475.44 2163.97 1479.01 Q2165.8 1482.55 2169.41 1482.55 Q2173.05 1482.55 2174.85 1479.01 Q2176.68 1475.44 2176.68 1468.33 Q2176.68 1461.2 2174.85 1457.66 Q2173.05 1454.1 2169.41 1454.1 M2169.41 1450.39 Q2175.22 1450.39 2178.28 1455 Q2181.36 1459.58 2181.36 1468.33 Q2181.36 1477.06 2178.28 1481.67 Q2175.22 1486.25 2169.41 1486.25 Q2163.6 1486.25 2160.53 1481.67 Q2157.47 1477.06 2157.47 1468.33 Q2157.47 1459.58 2160.53 1455 Q2163.6 1450.39 2169.41 1450.39 Z" fill="#000000" fill-rule="nonzero" fill-opacity="1" /><path clip-path="url(#clip990)" d="M2189.58 1479.7 L2194.46 1479.7 L2194.46 1485.58 L2189.58 1485.58 L2189.58 1479.7 Z" fill="#000000" fill-rule="nonzero" fill-opacity="1" /><path clip-path="url(#clip990)" d="M2214.65 1469.17 Q2211.31 1469.17 2209.39 1470.95 Q2207.49 1472.73 2207.49 1475.86 Q2207.49 1478.98 2209.39 1480.77 Q2211.31 1482.55 2214.65 1482.55 Q2217.98 1482.55 2219.9 1480.77 Q2221.82 1478.96 2221.82 1475.86 Q2221.82 1472.73 2219.9 1470.95 Q2218 1469.17 2214.65 1469.17 M2209.97 1467.18 Q2206.96 1466.44 2205.27 1464.38 Q2203.6 1462.32 2203.6 1459.35 Q2203.6 1455.21 2206.54 1452.8 Q2209.51 1450.39 2214.65 1450.39 Q2219.81 1450.39 2222.75 1452.8 Q2225.69 1455.21 2225.69 1459.35 Q2225.69 1462.32 2224 1464.38 Q2222.33 1466.44 2219.34 1467.18 Q2222.72 1467.96 2224.6 1470.26 Q2226.5 1472.55 2226.5 1475.86 Q2226.5 1480.88 2223.42 1483.57 Q2220.36 1486.25 2214.65 1486.25 Q2208.93 1486.25 2205.85 1483.57 Q2202.79 1480.88 2202.79 1475.86 Q2202.79 1472.55 2204.69 1470.26 Q2206.59 1467.96 2209.97 1467.18 M2208.26 1459.79 Q2208.26 1462.48 2209.92 1463.98 Q2211.61 1465.49 2214.65 1465.49 Q2217.66 1465.49 2219.34 1463.98 Q2221.06 1462.48 2221.06 1459.79 Q2221.06 1457.11 2219.34 1455.6 Q2217.66 1454.1 2214.65 1454.1 Q2211.61 1454.1 2209.92 1455.6 Q2208.26 1457.11 2208.26 1459.79 Z" fill="#000000" fill-rule="nonzero" fill-opacity="1" /><path clip-path="url(#clip990)" d="M2247.65 1455.09 L2235.85 1473.54 L2247.65 1473.54 L2247.65 1455.09 M2246.43 1451.02 L2252.31 1451.02 L2252.31 1473.54 L2257.24 1473.54 L2257.24 1477.43 L2252.31 1477.43 L2252.31 1485.58 L2247.65 1485.58 L2247.65 1477.43 L2232.05 1477.43 L2232.05 1472.92 L2246.43 1451.02 Z" fill="#000000" fill-rule="nonzero" fill-opacity="1" /><path clip-path="url(#clip990)" d="M1243.07 1518.52 L1248.96 1518.52 L1248.96 1547.77 L1266.43 1532.4 L1273.91 1532.4 L1255 1549.07 L1274.71 1568.04 L1267.07 1568.04 L1248.96 1550.63 L1248.96 1568.04 L1243.07 1568.04 L1243.07 1518.52 Z" fill="#000000" fill-rule="nonzero" fill-opacity="1" /><path clip-path="url(#clip990)" d="M1295.62 1545.48 Q1291.03 1545.48 1288.39 1547.93 Q1285.78 1550.38 1285.78 1554.68 Q1285.78 1558.97 1288.39 1561.42 Q1291.03 1563.87 1295.62 1563.87 Q1300.2 1563.87 1302.84 1561.42 Q1305.48 1558.94 1305.48 1554.68 Q1305.48 1550.38 1302.84 1547.93 Q1300.23 1545.48 1295.62 1545.48 M1289.19 1542.74 Q1285.05 1541.72 1282.73 1538.89 Q1280.44 1536.06 1280.44 1531.98 Q1280.44 1526.28 1284.48 1522.97 Q1288.55 1519.66 1295.62 1519.66 Q1302.72 1519.66 1306.76 1522.97 Q1310.8 1526.28 1310.8 1531.98 Q1310.8 1536.06 1308.48 1538.89 Q1306.19 1541.72 1302.08 1542.74 Q1306.73 1543.82 1309.3 1546.97 Q1311.91 1550.12 1311.91 1554.68 Q1311.91 1561.58 1307.68 1565.27 Q1303.48 1568.97 1295.62 1568.97 Q1287.76 1568.97 1283.52 1565.27 Q1279.32 1561.58 1279.32 1554.68 Q1279.32 1550.12 1281.93 1546.97 Q1284.54 1543.82 1289.19 1542.74 M1286.83 1532.59 Q1286.83 1536.28 1289.13 1538.35 Q1291.45 1540.42 1295.62 1540.42 Q1299.76 1540.42 1302.08 1538.35 Q1304.43 1536.28 1304.43 1532.59 Q1304.43 1528.89 1302.08 1526.83 Q1299.76 1524.76 1295.62 1524.76 Q1291.45 1524.76 1289.13 1526.83 Q1286.83 1528.89 1286.83 1532.59 Z" fill="#000000" fill-rule="nonzero" fill-opacity="1" /><polyline clip-path="url(#clip992)" style="stroke:#000000; stroke-linecap:round; stroke-linejoin:round; stroke-width:2; stroke-opacity:0.1; fill:none" points="202.227,1122.96 2352.76,1122.96 "/>
<polyline clip-path="url(#clip992)" style="stroke:#000000; stroke-linecap:round; stroke-linejoin:round; stroke-width:2; stroke-opacity:0.1; fill:none" points="202.227,764.499 2352.76,764.499 "/>
<polyline clip-path="url(#clip992)" style="stroke:#000000; stroke-linecap:round; stroke-linejoin:round; stroke-width:2; stroke-opacity:0.1; fill:none" points="202.227,406.036 2352.76,406.036 "/>
<polyline clip-path="url(#clip992)" style="stroke:#000000; stroke-linecap:round; stroke-linejoin:round; stroke-width:2; stroke-opacity:0.1; fill:none" points="202.227,47.5722 2352.76,47.5722 "/>
<polyline clip-path="url(#clip990)" style="stroke:#000000; stroke-linecap:round; stroke-linejoin:round; stroke-width:4; stroke-opacity:1; fill:none" points="202.227,1423.18 202.227,47.2441 "/>
<polyline clip-path="url(#clip990)" style="stroke:#000000; stroke-linecap:round; stroke-linejoin:round; stroke-width:4; stroke-opacity:1; fill:none" points="202.227,1122.96 221.125,1122.96 "/>
<polyline clip-path="url(#clip990)" style="stroke:#000000; stroke-linecap:round; stroke-linejoin:round; stroke-width:4; stroke-opacity:1; fill:none" points="202.227,764.499 221.125,764.499 "/>
<polyline clip-path="url(#clip990)" style="stroke:#000000; stroke-linecap:round; stroke-linejoin:round; stroke-width:4; stroke-opacity:1; fill:none" points="202.227,406.036 221.125,406.036 "/>
<polyline clip-path="url(#clip990)" style="stroke:#000000; stroke-linecap:round; stroke-linejoin:round; stroke-width:4; stroke-opacity:1; fill:none" points="202.227,47.5722 221.125,47.5722 "/>
<path clip-path="url(#clip990)" d="M144.005 1105.68 L166.227 1105.68 L166.227 1107.67 L153.681 1140.24 L148.797 1140.24 L160.603 1109.62 L144.005 1109.62 L144.005 1105.68 Z" fill="#000000" fill-rule="nonzero" fill-opacity="1" /><path clip-path="url(#clip990)" d="M154.376 765.367 Q151.042 765.367 149.121 767.15 Q147.223 768.932 147.223 772.057 Q147.223 775.182 149.121 776.964 Q151.042 778.747 154.376 778.747 Q157.709 778.747 159.63 776.964 Q161.552 775.159 161.552 772.057 Q161.552 768.932 159.63 767.15 Q157.732 765.367 154.376 765.367 M149.7 763.377 Q146.691 762.636 145.001 760.576 Q143.334 758.515 143.334 755.552 Q143.334 751.409 146.274 749.002 Q149.237 746.594 154.376 746.594 Q159.538 746.594 162.477 749.002 Q165.417 751.409 165.417 755.552 Q165.417 758.515 163.727 760.576 Q162.061 762.636 159.075 763.377 Q162.454 764.164 164.329 766.455 Q166.227 768.747 166.227 772.057 Q166.227 777.08 163.149 779.765 Q160.093 782.45 154.376 782.45 Q148.658 782.45 145.579 779.765 Q142.524 777.08 142.524 772.057 Q142.524 768.747 144.422 766.455 Q146.32 764.164 149.7 763.377 M147.987 755.992 Q147.987 758.677 149.653 760.182 Q151.343 761.687 154.376 761.687 Q157.385 761.687 159.075 760.182 Q160.788 758.677 160.788 755.992 Q160.788 753.307 159.075 751.802 Q157.385 750.298 154.376 750.298 Q151.343 750.298 149.653 751.802 Q147.987 753.307 147.987 755.992 Z" fill="#000000" fill-rule="nonzero" fill-opacity="1" /><path clip-path="url(#clip990)" d="M144.607 422.598 L144.607 418.339 Q146.366 419.172 148.172 419.612 Q149.978 420.052 151.714 420.052 Q156.343 420.052 158.774 416.95 Q161.227 413.825 161.575 407.482 Q160.232 409.473 158.172 410.538 Q156.112 411.603 153.612 411.603 Q148.427 411.603 145.394 408.478 Q142.385 405.33 142.385 399.89 Q142.385 394.566 145.533 391.348 Q148.681 388.131 153.913 388.131 Q159.908 388.131 163.056 392.737 Q166.227 397.32 166.227 406.07 Q166.227 414.242 162.339 419.126 Q158.473 423.987 151.922 423.987 Q150.163 423.987 148.357 423.64 Q146.552 423.293 144.607 422.598 M153.913 407.945 Q157.061 407.945 158.89 405.793 Q160.741 403.64 160.741 399.89 Q160.741 396.163 158.89 394.01 Q157.061 391.834 153.913 391.834 Q150.765 391.834 148.913 394.01 Q147.084 396.163 147.084 399.89 Q147.084 403.64 148.913 405.793 Q150.765 407.945 153.913 407.945 Z" fill="#000000" fill-rule="nonzero" fill-opacity="1" /><path clip-path="url(#clip990)" d="M114.931 60.917 L122.57 60.917 L122.57 34.5514 L114.26 36.2181 L114.26 31.9588 L122.524 30.2922 L127.2 30.2922 L127.2 60.917 L134.839 60.917 L134.839 64.8522 L114.931 64.8522 L114.931 60.917 Z" fill="#000000" fill-rule="nonzero" fill-opacity="1" /><path clip-path="url(#clip990)" d="M154.283 33.3709 Q150.672 33.3709 148.843 36.9357 Q147.038 40.4773 147.038 47.6069 Q147.038 54.7134 148.843 58.2781 Q150.672 61.8198 154.283 61.8198 Q157.917 61.8198 159.723 58.2781 Q161.552 54.7134 161.552 47.6069 Q161.552 40.4773 159.723 36.9357 Q157.917 33.3709 154.283 33.3709 M154.283 29.6672 Q160.093 29.6672 163.149 34.2736 Q166.227 38.857 166.227 47.6069 Q166.227 56.3337 163.149 60.9402 Q160.093 65.5235 154.283 65.5235 Q148.473 65.5235 145.394 60.9402 Q142.339 56.3337 142.339 47.6069 Q142.339 38.857 145.394 34.2736 Q148.473 29.6672 154.283 29.6672 Z" fill="#000000" fill-rule="nonzero" fill-opacity="1" /><path clip-path="url(#clip990)" d="M35.1993 774.218 Q31.2526 772.022 29.3747 768.966 Q27.4968 765.911 27.4968 761.773 Q27.4968 756.203 31.4117 753.179 Q35.2948 750.155 42.4881 750.155 L64.0042 750.155 L64.0042 756.044 L42.679 756.044 Q37.5546 756.044 35.072 757.858 Q32.5894 759.672 32.5894 763.396 Q32.5894 767.948 35.6131 770.589 Q38.6368 773.231 43.8567 773.231 L64.0042 773.231 L64.0042 779.119 L42.679 779.119 Q37.5228 779.119 35.072 780.934 Q32.5894 782.748 32.5894 786.535 Q32.5894 791.023 35.6449 793.665 Q38.6686 796.307 43.8567 796.307 L64.0042 796.307 L64.0042 802.195 L28.3562 802.195 L28.3562 796.307 L33.8944 796.307 Q30.616 794.302 29.0564 791.501 Q27.4968 788.7 27.4968 784.849 Q27.4968 780.965 29.4702 778.26 Q31.4436 775.523 35.1993 774.218 Z" fill="#000000" fill-rule="nonzero" fill-opacity="1" /><path clip-path="url(#clip990)" d="M46.0847 722.274 Q46.0847 729.371 47.7079 732.109 Q49.3312 734.846 53.2461 734.846 Q56.3653 734.846 58.2114 732.809 Q60.0256 730.74 60.0256 727.207 Q60.0256 722.337 56.5881 719.409 Q53.1188 716.449 47.3897 716.449 L46.0847 716.449 L46.0847 722.274 M43.6657 710.593 L64.0042 710.593 L64.0042 716.449 L58.5933 716.449 Q61.8398 718.454 63.3994 721.446 Q64.9272 724.438 64.9272 728.767 Q64.9272 734.241 61.8716 737.488 Q58.7843 740.702 53.6281 740.702 Q47.6125 740.702 44.5569 736.692 Q41.5014 732.65 41.5014 724.661 L41.5014 716.449 L40.9285 716.449 Q36.8862 716.449 34.6901 719.123 Q32.4621 721.764 32.4621 726.571 Q32.4621 729.626 33.1941 732.522 Q33.9262 735.419 35.3903 738.092 L29.9795 738.092 Q28.7381 734.878 28.1334 731.854 Q27.4968 728.83 27.4968 725.966 Q27.4968 718.231 31.5072 714.412 Q35.5176 710.593 43.6657 710.593 Z" fill="#000000" fill-rule="nonzero" fill-opacity="1" /><path clip-path="url(#clip990)" d="M28.3562 668.897 L45.7028 681.788 L64.0042 668.229 L64.0042 675.136 L49.9996 685.512 L64.0042 695.888 L64.0042 702.795 L45.3526 688.949 L28.3562 701.617 L28.3562 694.71 L41.0558 685.257 L28.3562 675.804 L28.3562 668.897 Z" fill="#000000" fill-rule="nonzero" fill-opacity="1" /><polyline clip-path="url(#clip992)" style="stroke:#009af9; stroke-linecap:round; stroke-linejoin:round; stroke-width:8; stroke-opacity:1; fill:none" points="263.091,86.1857 271.029,87.1303 "/>
<polyline clip-path="url(#clip992)" style="stroke:#009af9; stroke-linecap:round; stroke-linejoin:round; stroke-width:8; stroke-opacity:1; fill:none" points="271.029,87.1303 282.316,88.4742 "/>
<polyline clip-path="url(#clip992)" style="stroke:#009af9; stroke-linecap:round; stroke-linejoin:round; stroke-width:8; stroke-opacity:1; fill:none" points="282.316,88.4742 298.358,90.3858 "/>
<polyline clip-path="url(#clip992)" style="stroke:#009af9; stroke-linecap:round; stroke-linejoin:round; stroke-width:8; stroke-opacity:1; fill:none" points="298.358,90.3858 321.146,93.1045 "/>
<polyline clip-path="url(#clip992)" style="stroke:#009af9; stroke-linecap:round; stroke-linejoin:round; stroke-width:8; stroke-opacity:1; fill:none" points="321.146,93.1045 353.492,96.9696 "/>
<polyline clip-path="url(#clip992)" style="stroke:#009af9; stroke-linecap:round; stroke-linejoin:round; stroke-width:8; stroke-opacity:1; fill:none" points="353.492,96.9696 399.35,102.462 "/>
<polyline clip-path="url(#clip992)" style="stroke:#009af9; stroke-linecap:round; stroke-linejoin:round; stroke-width:8; stroke-opacity:1; fill:none" points="399.35,102.462 464.261,110.262 "/>
<polyline clip-path="url(#clip992)" style="stroke:#009af9; stroke-linecap:round; stroke-linejoin:round; stroke-width:8; stroke-opacity:1; fill:none" points="464.261,110.262 555.919,121.329 "/>
<polyline clip-path="url(#clip992)" style="stroke:#009af9; stroke-linecap:round; stroke-linejoin:round; stroke-width:8; stroke-opacity:1; fill:none" points="555.919,121.329 684.895,137.009 "/>
<polyline clip-path="url(#clip992)" style="stroke:#009af9; stroke-linecap:round; stroke-linejoin:round; stroke-width:8; stroke-opacity:1; fill:none" points="684.895,137.009 860.919,158.627 "/>
<polyline clip-path="url(#clip992)" style="stroke:#009af9; stroke-linecap:round; stroke-linejoin:round; stroke-width:8; stroke-opacity:1; fill:none" points="860.919,158.627 1045.57,181.61 "/>
<polyline clip-path="url(#clip992)" style="stroke:#009af9; stroke-linecap:round; stroke-linejoin:round; stroke-width:8; stroke-opacity:1; fill:none" points="1045.57,181.61 1226.1,204.46 "/>
<polyline clip-path="url(#clip992)" style="stroke:#009af9; stroke-linecap:round; stroke-linejoin:round; stroke-width:8; stroke-opacity:1; fill:none" points="1226.1,204.46 1402.39,227.336 "/>
<polyline clip-path="url(#clip992)" style="stroke:#009af9; stroke-linecap:round; stroke-linejoin:round; stroke-width:8; stroke-opacity:1; fill:none" points="1402.39,227.336 1576.13,251.247 "/>
<polyline clip-path="url(#clip992)" style="stroke:#009af9; stroke-linecap:round; stroke-linejoin:round; stroke-width:8; stroke-opacity:1; fill:none" points="1576.13,251.247 1668.61,266.041 "/>
<polyline clip-path="url(#clip992)" style="stroke:#009af9; stroke-linecap:round; stroke-linejoin:round; stroke-width:8; stroke-opacity:1; fill:none" points="1668.61,266.041 1754.5,284.894 "/>
<polyline clip-path="url(#clip992)" style="stroke:#009af9; stroke-linecap:round; stroke-linejoin:round; stroke-width:8; stroke-opacity:1; fill:none" points="1754.5,284.894 1836.42,311.882 "/>
<polyline clip-path="url(#clip992)" style="stroke:#009af9; stroke-linecap:round; stroke-linejoin:round; stroke-width:8; stroke-opacity:1; fill:none" points="1836.42,311.882 1889.85,333.198 "/>
<polyline clip-path="url(#clip992)" style="stroke:#009af9; stroke-linecap:round; stroke-linejoin:round; stroke-width:4; stroke-opacity:1; fill:none" points="1889.85,333.198 1961.27,365.938 "/>
<polyline clip-path="url(#clip992)" style="stroke:#009af9; stroke-linecap:round; stroke-linejoin:round; stroke-width:4; stroke-opacity:1; fill:none" points="1961.27,365.938 2029,400.916 "/>
<polyline clip-path="url(#clip992)" style="stroke:#009af9; stroke-linecap:round; stroke-linejoin:round; stroke-width:4; stroke-opacity:1; fill:none" points="2029,400.916 2087.09,434.857 "/>
<polyline clip-path="url(#clip992)" style="stroke:#009af9; stroke-linecap:round; stroke-linejoin:round; stroke-width:4; stroke-opacity:1; fill:none" points="2087.09,434.857 2137.08,467.708 "/>
<polyline clip-path="url(#clip992)" style="stroke:#009af9; stroke-linecap:round; stroke-linejoin:round; stroke-width:4; stroke-opacity:1; fill:none" points="2137.08,467.708 2179.63,500.292 "/>
<polyline clip-path="url(#clip992)" style="stroke:#009af9; stroke-linecap:round; stroke-linejoin:round; stroke-width:4; stroke-opacity:1; fill:none" points="2179.63,500.292 2215.09,531.945 "/>
<polyline clip-path="url(#clip992)" style="stroke:#009af9; stroke-linecap:round; stroke-linejoin:round; stroke-width:4; stroke-opacity:1; fill:none" points="2215.09,531.945 2243.65,563.31 "/>
<polyline clip-path="url(#clip992)" style="stroke:#009af9; stroke-linecap:round; stroke-linejoin:round; stroke-width:4; stroke-opacity:1; fill:none" points="2243.65,563.31 2265.48,594.393 "/>
<polyline clip-path="url(#clip992)" style="stroke:#009af9; stroke-linecap:round; stroke-linejoin:round; stroke-width:4; stroke-opacity:1; fill:none" points="2265.48,594.393 2280.7,624.749 "/>
<polyline clip-path="url(#clip992)" style="stroke:#009af9; stroke-linecap:round; stroke-linejoin:round; stroke-width:4; stroke-opacity:1; fill:none" points="2280.7,624.749 2289.44,654.946 "/>
<polyline clip-path="url(#clip992)" style="stroke:#009af9; stroke-linecap:round; stroke-linejoin:round; stroke-width:4; stroke-opacity:1; fill:none" points="2289.44,654.946 2291.89,683.132 "/>
<polyline clip-path="url(#clip992)" style="stroke:#009af9; stroke-linecap:round; stroke-linejoin:round; stroke-width:4; stroke-opacity:1; fill:none" points="2291.89,683.132 2288.52,712.644 "/>
<polyline clip-path="url(#clip992)" style="stroke:#009af9; stroke-linecap:round; stroke-linejoin:round; stroke-width:4; stroke-opacity:1; fill:none" points="2288.52,712.644 2279.15,742.044 "/>
<polyline clip-path="url(#clip992)" style="stroke:#009af9; stroke-linecap:round; stroke-linejoin:round; stroke-width:4; stroke-opacity:1; fill:none" points="2279.15,742.044 2263.98,771.366 "/>
<polyline clip-path="url(#clip992)" style="stroke:#009af9; stroke-linecap:round; stroke-linejoin:round; stroke-width:4; stroke-opacity:1; fill:none" points="2263.98,771.366 2243.26,800.644 "/>
<polyline clip-path="url(#clip992)" style="stroke:#009af9; stroke-linecap:round; stroke-linejoin:round; stroke-width:4; stroke-opacity:1; fill:none" points="2243.26,800.644 2217.25,829.902 "/>
<polyline clip-path="url(#clip992)" style="stroke:#009af9; stroke-linecap:round; stroke-linejoin:round; stroke-width:4; stroke-opacity:1; fill:none" points="2217.25,829.902 2186.26,859.124 "/>
<polyline clip-path="url(#clip992)" style="stroke:#009af9; stroke-linecap:round; stroke-linejoin:round; stroke-width:4; stroke-opacity:1; fill:none" points="2186.26,859.124 2150.63,888.538 "/>
<polyline clip-path="url(#clip992)" style="stroke:#009af9; stroke-linecap:round; stroke-linejoin:round; stroke-width:4; stroke-opacity:1; fill:none" points="2150.63,888.538 2110.76,918.227 "/>
<polyline clip-path="url(#clip992)" style="stroke:#009af9; stroke-linecap:round; stroke-linejoin:round; stroke-width:4; stroke-opacity:1; fill:none" points="2110.76,918.227 2067.09,948.288 "/>
<polyline clip-path="url(#clip992)" style="stroke:#009af9; stroke-linecap:round; stroke-linejoin:round; stroke-width:4; stroke-opacity:1; fill:none" points="2067.09,948.288 2020.13,978.833 "/>
<polyline clip-path="url(#clip992)" style="stroke:#009af9; stroke-linecap:round; stroke-linejoin:round; stroke-width:4; stroke-opacity:1; fill:none" points="2020.13,978.833 1970.45,1009.98 "/>
<polyline clip-path="url(#clip992)" style="stroke:#009af9; stroke-linecap:round; stroke-linejoin:round; stroke-width:4; stroke-opacity:1; fill:none" points="1970.45,1009.98 1918.69,1041.88 "/>
<polyline clip-path="url(#clip992)" style="stroke:#009af9; stroke-linecap:round; stroke-linejoin:round; stroke-width:4; stroke-opacity:1; fill:none" points="1918.69,1041.88 1865.56,1074.65 "/>
<polyline clip-path="url(#clip992)" style="stroke:#009af9; stroke-linecap:round; stroke-linejoin:round; stroke-width:4; stroke-opacity:1; fill:none" points="1865.56,1074.65 1811.88,1108.38 "/>
<polyline clip-path="url(#clip992)" style="stroke:#009af9; stroke-linecap:round; stroke-linejoin:round; stroke-width:4; stroke-opacity:1; fill:none" points="1811.88,1108.38 1758.54,1143.28 "/>
<polyline clip-path="url(#clip992)" style="stroke:#009af9; stroke-linecap:round; stroke-linejoin:round; stroke-width:4; stroke-opacity:1; fill:none" points="1758.54,1143.28 1706.55,1179.52 "/>
<polyline clip-path="url(#clip992)" style="stroke:#009af9; stroke-linecap:round; stroke-linejoin:round; stroke-width:4; stroke-opacity:1; fill:none" points="1706.55,1179.52 1656.96,1217.23 "/>
<polyline clip-path="url(#clip992)" style="stroke:#009af9; stroke-linecap:round; stroke-linejoin:round; stroke-width:4; stroke-opacity:1; fill:none" points="1656.96,1217.23 1610.94,1256.44 "/>
<polyline clip-path="url(#clip992)" style="stroke:#009af9; stroke-linecap:round; stroke-linejoin:round; stroke-width:4; stroke-opacity:1; fill:none" points="1610.94,1256.44 1569.66,1297.34 "/>
<polyline clip-path="url(#clip992)" style="stroke:#009af9; stroke-linecap:round; stroke-linejoin:round; stroke-width:4; stroke-opacity:1; fill:none" points="1569.66,1297.34 1534.31,1339.95 "/>
<polyline clip-path="url(#clip992)" style="stroke:#009af9; stroke-linecap:round; stroke-linejoin:round; stroke-width:4; stroke-opacity:1; fill:none" points="1534.31,1339.95 1505.98,1384.24 "/>
<circle clip-path="url(#clip992)" cx="1889.85" cy="333.198" r="10.8" fill="#ffa500" fill-rule="evenodd" fill-opacity="1" stroke="none"/>
<circle clip-path="url(#clip992)" cx="2291.89" cy="683.132" r="10.8" fill="#0000ff" fill-rule="evenodd" fill-opacity="1" stroke="none"/>
<circle clip-path="url(#clip992)" cx="1889.85" cy="333.198" r="10.8" fill="#ffa500" fill-rule="evenodd" fill-opacity="1" stroke="none"/>
<circle clip-path="url(#clip992)" cx="2291.89" cy="683.132" r="10.8" fill="#0000ff" fill-rule="evenodd" fill-opacity="1" stroke="none"/>
<path clip-path="url(#clip990)" d="M2012.73 1377.32 L2281.07 1377.32 L2281.07 1221.8 L2012.73 1221.8  Z" fill="#ffffff" fill-rule="evenodd" fill-opacity="1"/>
<polyline clip-path="url(#clip990)" style="stroke:#000000; stroke-linecap:round; stroke-linejoin:round; stroke-width:4; stroke-opacity:1; fill:none" points="2012.73,1377.32 2281.07,1377.32 2281.07,1221.8 2012.73,1221.8 2012.73,1377.32 "/>
<circle clip-path="url(#clip990)" cx="2108.31" cy="1273.64" r="23.04" fill="#ffa500" fill-rule="evenodd" fill-opacity="1" stroke="none"/>
<path clip-path="url(#clip990)" d="M2225.6 1275.27 L2225.6 1290.92 L2221.34 1290.92 L2221.34 1275.41 Q2221.34 1271.73 2219.91 1269.9 Q2218.47 1268.07 2215.6 1268.07 Q2212.15 1268.07 2210.16 1270.27 Q2208.17 1272.47 2208.17 1276.26 L2208.17 1290.92 L2203.89 1290.92 L2203.89 1264.99 L2208.17 1264.99 L2208.17 1269.02 Q2209.7 1266.68 2211.76 1265.52 Q2213.84 1264.36 2216.55 1264.36 Q2221.02 1264.36 2223.31 1267.14 Q2225.6 1269.9 2225.6 1275.27 Z" fill="#000000" fill-rule="nonzero" fill-opacity="1" /><path clip-path="url(#clip990)" d="M2250.63 1265.75 L2250.63 1269.78 Q2248.82 1268.86 2246.88 1268.39 Q2244.93 1267.93 2242.85 1267.93 Q2239.68 1267.93 2238.08 1268.9 Q2236.51 1269.87 2236.51 1271.82 Q2236.51 1273.3 2237.64 1274.16 Q2238.77 1274.99 2242.2 1275.75 L2243.66 1276.08 Q2248.2 1277.05 2250.09 1278.83 Q2252.01 1280.59 2252.01 1283.76 Q2252.01 1287.37 2249.14 1289.48 Q2246.3 1291.59 2241.3 1291.59 Q2239.21 1291.59 2236.95 1291.17 Q2234.7 1290.78 2232.2 1289.97 L2232.2 1285.57 Q2234.56 1286.79 2236.85 1287.42 Q2239.14 1288.02 2241.39 1288.02 Q2244.4 1288.02 2246.02 1287 Q2247.64 1285.96 2247.64 1284.09 Q2247.64 1282.35 2246.46 1281.42 Q2245.3 1280.5 2241.34 1279.64 L2239.86 1279.3 Q2235.9 1278.46 2234.14 1276.75 Q2232.39 1275.01 2232.39 1272 Q2232.39 1268.35 2234.98 1266.36 Q2237.57 1264.36 2242.34 1264.36 Q2244.7 1264.36 2246.78 1264.71 Q2248.87 1265.06 2250.63 1265.75 Z" fill="#000000" fill-rule="nonzero" fill-opacity="1" /><circle clip-path="url(#clip990)" cx="2108.31" cy="1325.48" r="23.04" fill="#0000ff" fill-rule="evenodd" fill-opacity="1" stroke="none"/>
<path clip-path="url(#clip990)" d="M2222.66 1329.82 Q2222.66 1325.12 2220.72 1322.45 Q2218.8 1319.77 2215.42 1319.77 Q2212.04 1319.77 2210.09 1322.45 Q2208.17 1325.12 2208.17 1329.82 Q2208.17 1334.51 2210.09 1337.2 Q2212.04 1339.86 2215.42 1339.86 Q2218.8 1339.86 2220.72 1337.2 Q2222.66 1334.51 2222.66 1329.82 M2208.17 1320.76 Q2209.52 1318.45 2211.55 1317.34 Q2213.61 1316.2 2216.46 1316.2 Q2221.18 1316.2 2224.12 1319.95 Q2227.08 1323.7 2227.08 1329.82 Q2227.08 1335.93 2224.12 1339.68 Q2221.18 1343.43 2216.46 1343.43 Q2213.61 1343.43 2211.55 1342.32 Q2209.52 1341.18 2208.17 1338.87 L2208.17 1342.76 L2203.89 1342.76 L2203.89 1306.74 L2208.17 1306.74 L2208.17 1320.76 Z" fill="#000000" fill-rule="nonzero" fill-opacity="1" /><path clip-path="url(#clip990)" d="M2238.26 1338.87 L2238.26 1352.62 L2233.98 1352.62 L2233.98 1316.83 L2238.26 1316.83 L2238.26 1320.76 Q2239.61 1318.45 2241.64 1317.34 Q2243.7 1316.2 2246.55 1316.2 Q2251.27 1316.2 2254.21 1319.95 Q2257.18 1323.7 2257.18 1329.82 Q2257.18 1335.93 2254.21 1339.68 Q2251.27 1343.43 2246.55 1343.43 Q2243.7 1343.43 2241.64 1342.32 Q2239.61 1341.18 2238.26 1338.87 M2252.76 1329.82 Q2252.76 1325.12 2250.81 1322.45 Q2248.89 1319.77 2245.51 1319.77 Q2242.13 1319.77 2240.19 1322.45 Q2238.26 1325.12 2238.26 1329.82 Q2238.26 1334.51 2240.19 1337.2 Q2242.13 1339.86 2245.51 1339.86 Q2248.89 1339.86 2250.81 1337.2 Q2252.76 1334.51 2252.76 1329.82 Z" fill="#000000" fill-rule="nonzero" fill-opacity="1" /></svg>
