<?xml version="1.0" encoding="utf-8"?>
<svg xmlns="http://www.w3.org/2000/svg" xmlns:xlink="http://www.w3.org/1999/xlink" width="600" height="400" viewBox="0 0 2400 1600">
<defs>
  <clipPath id="clip510">
    <rect x="0" y="0" width="2400" height="1600"/>
  </clipPath>
</defs>
<path clip-path="url(#clip510)" d="M0 1600 L2400 1600 L2400 0 L0 0  Z" fill="#ffffff" fill-rule="evenodd" fill-opacity="1"/>
<defs>
  <clipPath id="clip511">
    <rect x="480" y="0" width="1681" height="1600"/>
  </clipPath>
</defs>
<path clip-path="url(#clip510)" d="M287.366 1423.18 L2352.76 1423.18 L2352.76 47.2441 L287.366 47.2441  Z" fill="#ffffff" fill-rule="evenodd" fill-opacity="1"/>
<defs>
  <clipPath id="clip512">
    <rect x="287" y="47" width="2066" height="1377"/>
  </clipPath>
</defs>
<polyline clip-path="url(#clip512)" style="stroke:#000000; stroke-linecap:round; stroke-linejoin:round; stroke-width:2; stroke-opacity:0.1; fill:none" points="540.47,1423.18 540.47,47.2441 "/>
<polyline clip-path="url(#clip512)" style="stroke:#000000; stroke-linecap:round; stroke-linejoin:round; stroke-width:2; stroke-opacity:0.1; fill:none" points="966.536,1423.18 966.536,47.2441 "/>
<polyline clip-path="url(#clip512)" style="stroke:#000000; stroke-linecap:round; stroke-linejoin:round; stroke-width:2; stroke-opacity:0.1; fill:none" points="1392.6,1423.18 1392.6,47.2441 "/>
<polyline clip-path="url(#clip512)" style="stroke:#000000; stroke-linecap:round; stroke-linejoin:round; stroke-width:2; stroke-opacity:0.1; fill:none" points="1818.67,1423.18 1818.67,47.2441 "/>
<polyline clip-path="url(#clip512)" style="stroke:#000000; stroke-linecap:round; stroke-linejoin:round; stroke-width:2; stroke-opacity:0.1; fill:none" points="2244.73,1423.18 2244.73,47.2441 "/>
<polyline clip-path="url(#clip510)" style="stroke:#000000; stroke-linecap:round; stroke-linejoin:round; stroke-width:4; stroke-opacity:1; fill:none" points="287.366,1423.18 2352.76,1423.18 "/>
<polyline clip-path="url(#clip510)" style="stroke:#000000; stroke-linecap:round; stroke-linejoin:round; stroke-width:4; stroke-opacity:1; fill:none" points="540.47,1423.18 540.47,1404.28 "/>
<polyline clip-path="url(#clip510)" style="stroke:#000000; stroke-linecap:round; stroke-linejoin:round; stroke-width:4; stroke-opacity:1; fill:none" points="966.536,1423.18 966.536,1404.28 "/>
<polyline clip-path="url(#clip510)" style="stroke:#000000; stroke-linecap:round; stroke-linejoin:round; stroke-width:4; stroke-opacity:1; fill:none" points="1392.6,1423.18 1392.6,1404.28 "/>
<polyline clip-path="url(#clip510)" style="stroke:#000000; stroke-linecap:round; stroke-linejoin:round; stroke-width:4; stroke-opacity:1; fill:none" points="1818.67,1423.18 1818.67,1404.28 "/>
<polyline clip-path="url(#clip510)" style="stroke:#000000; stroke-linecap:round; stroke-linejoin:round; stroke-width:4; stroke-opacity:1; fill:none" points="2244.73,1423.18 2244.73,1404.28 "/>
<path clip-path="url(#clip510)" d="M508.236 1481.64 L515.875 1481.64 L515.875 1455.28 L507.565 1456.95 L507.565 1452.69 L515.829 1451.02 L520.505 1451.02 L520.505 1481.64 L528.144 1481.64 L528.144 1485.58 L508.236 1485.58 L508.236 1481.64 Z" fill="#000000" fill-rule="nonzero" fill-opacity="1" /><path clip-path="url(#clip510)" d="M537.588 1479.7 L542.472 1479.7 L542.472 1485.58 L537.588 1485.58 L537.588 1479.7 Z" fill="#000000" fill-rule="nonzero" fill-opacity="1" /><path clip-path="url(#clip510)" d="M553.467 1481.64 L561.106 1481.64 L561.106 1455.28 L552.796 1456.95 L552.796 1452.69 L561.06 1451.02 L565.736 1451.02 L565.736 1481.64 L573.375 1481.64 L573.375 1485.58 L553.467 1485.58 L553.467 1481.64 Z" fill="#000000" fill-rule="nonzero" fill-opacity="1" /><path clip-path="url(#clip510)" d="M934.488 1481.64 L942.126 1481.64 L942.126 1455.28 L933.816 1456.95 L933.816 1452.69 L942.08 1451.02 L946.756 1451.02 L946.756 1481.64 L954.395 1481.64 L954.395 1485.58 L934.488 1485.58 L934.488 1481.64 Z" fill="#000000" fill-rule="nonzero" fill-opacity="1" /><path clip-path="url(#clip510)" d="M963.839 1479.7 L968.723 1479.7 L968.723 1485.58 L963.839 1485.58 L963.839 1479.7 Z" fill="#000000" fill-rule="nonzero" fill-opacity="1" /><path clip-path="url(#clip510)" d="M982.936 1481.64 L999.256 1481.64 L999.256 1485.58 L977.311 1485.58 L977.311 1481.64 Q979.973 1478.89 984.557 1474.26 Q989.163 1469.61 990.344 1468.27 Q992.589 1465.74 993.469 1464.01 Q994.371 1462.25 994.371 1460.56 Q994.371 1457.8 992.427 1456.07 Q990.506 1454.33 987.404 1454.33 Q985.205 1454.33 982.751 1455.09 Q980.321 1455.86 977.543 1457.41 L977.543 1452.69 Q980.367 1451.55 982.821 1450.97 Q985.274 1450.39 987.311 1450.39 Q992.682 1450.39 995.876 1453.08 Q999.071 1455.77 999.071 1460.26 Q999.071 1462.39 998.26 1464.31 Q997.473 1466.2 995.367 1468.8 Q994.788 1469.47 991.686 1472.69 Q988.584 1475.88 982.936 1481.64 Z" fill="#000000" fill-rule="nonzero" fill-opacity="1" /><path clip-path="url(#clip510)" d="M1360.08 1481.64 L1367.72 1481.64 L1367.72 1455.28 L1359.41 1456.95 L1359.41 1452.69 L1367.67 1451.02 L1372.35 1451.02 L1372.35 1481.64 L1379.99 1481.64 L1379.99 1485.58 L1360.08 1485.58 L1360.08 1481.64 Z" fill="#000000" fill-rule="nonzero" fill-opacity="1" /><path clip-path="url(#clip510)" d="M1389.43 1479.7 L1394.32 1479.7 L1394.32 1485.58 L1389.43 1485.58 L1389.43 1479.7 Z" fill="#000000" fill-rule="nonzero" fill-opacity="1" /><path clip-path="url(#clip510)" d="M1418.67 1466.95 Q1422.02 1467.66 1423.9 1469.93 Q1425.8 1472.2 1425.8 1475.53 Q1425.8 1480.65 1422.28 1483.45 Q1418.76 1486.25 1412.28 1486.25 Q1410.1 1486.25 1407.79 1485.81 Q1405.5 1485.39 1403.04 1484.54 L1403.04 1480.02 Q1404.99 1481.16 1407.3 1481.74 Q1409.62 1482.32 1412.14 1482.32 Q1416.54 1482.32 1418.83 1480.58 Q1421.14 1478.84 1421.14 1475.53 Q1421.14 1472.48 1418.99 1470.77 Q1416.86 1469.03 1413.04 1469.03 L1409.01 1469.03 L1409.01 1465.19 L1413.23 1465.19 Q1416.68 1465.19 1418.5 1463.82 Q1420.33 1462.43 1420.33 1459.84 Q1420.33 1457.18 1418.44 1455.77 Q1416.56 1454.33 1413.04 1454.33 Q1411.12 1454.33 1408.92 1454.75 Q1406.72 1455.16 1404.08 1456.04 L1404.08 1451.88 Q1406.75 1451.14 1409.06 1450.77 Q1411.4 1450.39 1413.46 1450.39 Q1418.78 1450.39 1421.88 1452.83 Q1424.99 1455.23 1424.99 1459.35 Q1424.99 1462.22 1423.34 1464.21 Q1421.7 1466.18 1418.67 1466.95 Z" fill="#000000" fill-rule="nonzero" fill-opacity="1" /><path clip-path="url(#clip510)" d="M1785.58 1481.64 L1793.22 1481.64 L1793.22 1455.28 L1784.91 1456.95 L1784.91 1452.69 L1793.17 1451.02 L1797.85 1451.02 L1797.85 1481.64 L1805.49 1481.64 L1805.49 1485.58 L1785.58 1485.58 L1785.58 1481.64 Z" fill="#000000" fill-rule="nonzero" fill-opacity="1" /><path clip-path="url(#clip510)" d="M1814.93 1479.7 L1819.81 1479.7 L1819.81 1485.58 L1814.93 1485.58 L1814.93 1479.7 Z" fill="#000000" fill-rule="nonzero" fill-opacity="1" /><path clip-path="url(#clip510)" d="M1842.85 1455.09 L1831.04 1473.54 L1842.85 1473.54 L1842.85 1455.09 M1841.62 1451.02 L1847.5 1451.02 L1847.5 1473.54 L1852.43 1473.54 L1852.43 1477.43 L1847.5 1477.43 L1847.5 1485.58 L1842.85 1485.58 L1842.85 1477.43 L1827.24 1477.43 L1827.24 1472.92 L1841.62 1451.02 Z" fill="#000000" fill-rule="nonzero" fill-opacity="1" /><path clip-path="url(#clip510)" d="M2212.38 1481.64 L2220.02 1481.64 L2220.02 1455.28 L2211.71 1456.95 L2211.71 1452.69 L2219.98 1451.02 L2224.65 1451.02 L2224.65 1481.64 L2232.29 1481.64 L2232.29 1485.58 L2212.38 1485.58 L2212.38 1481.64 Z" fill="#000000" fill-rule="nonzero" fill-opacity="1" /><path clip-path="url(#clip510)" d="M2241.74 1479.7 L2246.62 1479.7 L2246.62 1485.58 L2241.74 1485.58 L2241.74 1479.7 Z" fill="#000000" fill-rule="nonzero" fill-opacity="1" /><path clip-path="url(#clip510)" d="M2256.85 1451.02 L2275.21 1451.02 L2275.21 1454.96 L2261.13 1454.96 L2261.13 1463.43 Q2262.15 1463.08 2263.17 1462.92 Q2264.19 1462.73 2265.21 1462.73 Q2271 1462.73 2274.38 1465.9 Q2277.75 1469.08 2277.75 1474.49 Q2277.75 1480.07 2274.28 1483.17 Q2270.81 1486.25 2264.49 1486.25 Q2262.32 1486.25 2260.05 1485.88 Q2257.8 1485.51 2255.39 1484.77 L2255.39 1480.07 Q2257.48 1481.2 2259.7 1481.76 Q2261.92 1482.32 2264.4 1482.32 Q2268.4 1482.32 2270.74 1480.21 Q2273.08 1478.1 2273.08 1474.49 Q2273.08 1470.88 2270.74 1468.77 Q2268.4 1466.67 2264.4 1466.67 Q2262.52 1466.67 2260.65 1467.08 Q2258.8 1467.5 2256.85 1468.38 L2256.85 1451.02 Z" fill="#000000" fill-rule="nonzero" fill-opacity="1" /><path clip-path="url(#clip510)" d="M1301.89 1520.52 L1308.79 1520.52 L1320.6 1538.19 L1332.47 1520.52 L1339.38 1520.52 L1324.1 1543.34 L1340.4 1568.04 L1333.49 1568.04 L1320.12 1547.83 L1306.66 1568.04 L1299.72 1568.04 L1316.69 1542.68 L1301.89 1520.52 Z" fill="#000000" fill-rule="nonzero" fill-opacity="1" /><polyline clip-path="url(#clip512)" style="stroke:#000000; stroke-linecap:round; stroke-linejoin:round; stroke-width:2; stroke-opacity:0.1; fill:none" points="287.366,1423.18 2352.76,1423.18 "/>
<polyline clip-path="url(#clip512)" style="stroke:#000000; stroke-linecap:round; stroke-linejoin:round; stroke-width:2; stroke-opacity:0.1; fill:none" points="287.366,1079.2 2352.76,1079.2 "/>
<polyline clip-path="url(#clip512)" style="stroke:#000000; stroke-linecap:round; stroke-linejoin:round; stroke-width:2; stroke-opacity:0.1; fill:none" points="287.366,735.212 2352.76,735.212 "/>
<polyline clip-path="url(#clip512)" style="stroke:#000000; stroke-linecap:round; stroke-linejoin:round; stroke-width:2; stroke-opacity:0.1; fill:none" points="287.366,391.228 2352.76,391.228 "/>
<polyline clip-path="url(#clip512)" style="stroke:#000000; stroke-linecap:round; stroke-linejoin:round; stroke-width:2; stroke-opacity:0.1; fill:none" points="287.366,47.2441 2352.76,47.2441 "/>
<polyline clip-path="url(#clip510)" style="stroke:#000000; stroke-linecap:round; stroke-linejoin:round; stroke-width:4; stroke-opacity:1; fill:none" points="287.366,1423.18 287.366,47.2441 "/>
<polyline clip-path="url(#clip510)" style="stroke:#000000; stroke-linecap:round; stroke-linejoin:round; stroke-width:4; stroke-opacity:1; fill:none" points="287.366,1423.18 306.264,1423.18 "/>
<polyline clip-path="url(#clip510)" style="stroke:#000000; stroke-linecap:round; stroke-linejoin:round; stroke-width:4; stroke-opacity:1; fill:none" points="287.366,1079.2 306.264,1079.2 "/>
<polyline clip-path="url(#clip510)" style="stroke:#000000; stroke-linecap:round; stroke-linejoin:round; stroke-width:4; stroke-opacity:1; fill:none" points="287.366,735.212 306.264,735.212 "/>
<polyline clip-path="url(#clip510)" style="stroke:#000000; stroke-linecap:round; stroke-linejoin:round; stroke-width:4; stroke-opacity:1; fill:none" points="287.366,391.228 306.264,391.228 "/>
<polyline clip-path="url(#clip510)" style="stroke:#000000; stroke-linecap:round; stroke-linejoin:round; stroke-width:4; stroke-opacity:1; fill:none" points="287.366,47.2441 306.264,47.2441 "/>
<path clip-path="url(#clip510)" d="M114.26 1423.63 L143.936 1423.63 L143.936 1427.57 L114.26 1427.57 L114.26 1423.63 Z" fill="#000000" fill-rule="nonzero" fill-opacity="1" /><path clip-path="url(#clip510)" d="M164.028 1408.98 Q160.417 1408.98 158.589 1412.54 Q156.783 1416.08 156.783 1423.21 Q156.783 1430.32 158.589 1433.89 Q160.417 1437.43 164.028 1437.43 Q167.663 1437.43 169.468 1433.89 Q171.297 1430.32 171.297 1423.21 Q171.297 1416.08 169.468 1412.54 Q167.663 1408.98 164.028 1408.98 M164.028 1405.27 Q169.839 1405.27 172.894 1409.88 Q175.973 1414.46 175.973 1423.21 Q175.973 1431.94 172.894 1436.55 Q169.839 1441.13 164.028 1441.13 Q158.218 1441.13 155.14 1436.55 Q152.084 1431.94 152.084 1423.21 Q152.084 1414.46 155.14 1409.88 Q158.218 1405.27 164.028 1405.27 Z" fill="#000000" fill-rule="nonzero" fill-opacity="1" /><path clip-path="url(#clip510)" d="M184.19 1434.58 L189.075 1434.58 L189.075 1440.46 L184.19 1440.46 L184.19 1434.58 Z" fill="#000000" fill-rule="nonzero" fill-opacity="1" /><path clip-path="url(#clip510)" d="M199.306 1405.9 L217.662 1405.9 L217.662 1409.84 L203.588 1409.84 L203.588 1418.31 Q204.607 1417.96 205.625 1417.8 Q206.644 1417.61 207.662 1417.61 Q213.449 1417.61 216.829 1420.78 Q220.209 1423.96 220.209 1429.37 Q220.209 1434.95 216.736 1438.05 Q213.264 1441.13 206.945 1441.13 Q204.769 1441.13 202.5 1440.76 Q200.255 1440.39 197.848 1439.65 L197.848 1434.95 Q199.931 1436.08 202.153 1436.64 Q204.375 1437.2 206.852 1437.2 Q210.857 1437.2 213.195 1435.09 Q215.533 1432.98 215.533 1429.37 Q215.533 1425.76 213.195 1423.65 Q210.857 1421.55 206.852 1421.55 Q204.977 1421.55 203.102 1421.96 Q201.25 1422.38 199.306 1423.26 L199.306 1405.9 Z" fill="#000000" fill-rule="nonzero" fill-opacity="1" /><path clip-path="url(#clip510)" d="M239.422 1408.98 Q235.81 1408.98 233.982 1412.54 Q232.176 1416.08 232.176 1423.21 Q232.176 1430.32 233.982 1433.89 Q235.81 1437.43 239.422 1437.43 Q243.056 1437.43 244.861 1433.89 Q246.69 1430.32 246.69 1423.21 Q246.69 1416.08 244.861 1412.54 Q243.056 1408.98 239.422 1408.98 M239.422 1405.27 Q245.232 1405.27 248.287 1409.88 Q251.366 1414.46 251.366 1423.21 Q251.366 1431.94 248.287 1436.55 Q245.232 1441.13 239.422 1441.13 Q233.611 1441.13 230.533 1436.55 Q227.477 1431.94 227.477 1423.21 Q227.477 1414.46 230.533 1409.88 Q233.611 1405.27 239.422 1405.27 Z" fill="#000000" fill-rule="nonzero" fill-opacity="1" /><path clip-path="url(#clip510)" d="M115.256 1079.65 L144.931 1079.65 L144.931 1083.58 L115.256 1083.58 L115.256 1079.65 Z" fill="#000000" fill-rule="nonzero" fill-opacity="1" /><path clip-path="url(#clip510)" d="M165.024 1064.99 Q161.413 1064.99 159.584 1068.56 Q157.778 1072.1 157.778 1079.23 Q157.778 1086.34 159.584 1089.9 Q161.413 1093.44 165.024 1093.44 Q168.658 1093.44 170.464 1089.9 Q172.292 1086.34 172.292 1079.23 Q172.292 1072.1 170.464 1068.56 Q168.658 1064.99 165.024 1064.99 M165.024 1061.29 Q170.834 1061.29 173.889 1065.9 Q176.968 1070.48 176.968 1079.23 Q176.968 1087.96 173.889 1092.56 Q170.834 1097.15 165.024 1097.15 Q159.214 1097.15 156.135 1092.56 Q153.079 1087.96 153.079 1079.23 Q153.079 1070.48 156.135 1065.9 Q159.214 1061.29 165.024 1061.29 Z" fill="#000000" fill-rule="nonzero" fill-opacity="1" /><path clip-path="url(#clip510)" d="M185.186 1090.6 L190.07 1090.6 L190.07 1096.48 L185.186 1096.48 L185.186 1090.6 Z" fill="#000000" fill-rule="nonzero" fill-opacity="1" /><path clip-path="url(#clip510)" d="M204.283 1092.54 L220.602 1092.54 L220.602 1096.48 L198.658 1096.48 L198.658 1092.54 Q201.32 1089.79 205.903 1085.16 Q210.51 1080.5 211.69 1079.16 Q213.936 1076.64 214.815 1074.9 Q215.718 1073.14 215.718 1071.45 Q215.718 1068.7 213.774 1066.96 Q211.852 1065.23 208.75 1065.23 Q206.551 1065.23 204.098 1065.99 Q201.667 1066.75 198.889 1068.3 L198.889 1063.58 Q201.713 1062.45 204.167 1061.87 Q206.621 1061.29 208.658 1061.29 Q214.028 1061.29 217.223 1063.98 Q220.417 1066.66 220.417 1071.15 Q220.417 1073.28 219.607 1075.2 Q218.82 1077.1 216.713 1079.69 Q216.135 1080.36 213.033 1083.58 Q209.931 1086.78 204.283 1092.54 Z" fill="#000000" fill-rule="nonzero" fill-opacity="1" /><path clip-path="url(#clip510)" d="M230.463 1061.92 L248.82 1061.92 L248.82 1065.85 L234.746 1065.85 L234.746 1074.32 Q235.764 1073.98 236.783 1073.81 Q237.801 1073.63 238.82 1073.63 Q244.607 1073.63 247.986 1076.8 Q251.366 1079.97 251.366 1085.39 Q251.366 1090.97 247.894 1094.07 Q244.421 1097.15 238.102 1097.15 Q235.926 1097.15 233.658 1096.78 Q231.412 1096.41 229.005 1095.67 L229.005 1090.97 Q231.088 1092.1 233.31 1092.66 Q235.533 1093.21 238.009 1093.21 Q242.014 1093.21 244.352 1091.11 Q246.69 1089 246.69 1085.39 Q246.69 1081.78 244.352 1079.67 Q242.014 1077.56 238.009 1077.56 Q236.135 1077.56 234.26 1077.98 Q232.408 1078.4 230.463 1079.28 L230.463 1061.92 Z" fill="#000000" fill-rule="nonzero" fill-opacity="1" /><path clip-path="url(#clip510)" d="M164.028 721.011 Q160.417 721.011 158.589 724.575 Q156.783 728.117 156.783 735.247 Q156.783 742.353 158.589 745.918 Q160.417 749.46 164.028 749.46 Q167.663 749.46 169.468 745.918 Q171.297 742.353 171.297 735.247 Q171.297 728.117 169.468 724.575 Q167.663 721.011 164.028 721.011 M164.028 717.307 Q169.839 717.307 172.894 721.913 Q175.973 726.497 175.973 735.247 Q175.973 743.973 172.894 748.58 Q169.839 753.163 164.028 753.163 Q158.218 753.163 155.14 748.58 Q152.084 743.973 152.084 735.247 Q152.084 726.497 155.14 721.913 Q158.218 717.307 164.028 717.307 Z" fill="#000000" fill-rule="nonzero" fill-opacity="1" /><path clip-path="url(#clip510)" d="M184.19 746.612 L189.075 746.612 L189.075 752.492 L184.19 752.492 L184.19 746.612 Z" fill="#000000" fill-rule="nonzero" fill-opacity="1" /><path clip-path="url(#clip510)" d="M209.26 721.011 Q205.649 721.011 203.82 724.575 Q202.014 728.117 202.014 735.247 Q202.014 742.353 203.82 745.918 Q205.649 749.46 209.26 749.46 Q212.894 749.46 214.699 745.918 Q216.528 742.353 216.528 735.247 Q216.528 728.117 214.699 724.575 Q212.894 721.011 209.26 721.011 M209.26 717.307 Q215.07 717.307 218.125 721.913 Q221.204 726.497 221.204 735.247 Q221.204 743.973 218.125 748.58 Q215.07 753.163 209.26 753.163 Q203.449 753.163 200.371 748.58 Q197.315 743.973 197.315 735.247 Q197.315 726.497 200.371 721.913 Q203.449 717.307 209.26 717.307 Z" fill="#000000" fill-rule="nonzero" fill-opacity="1" /><path clip-path="url(#clip510)" d="M239.422 721.011 Q235.81 721.011 233.982 724.575 Q232.176 728.117 232.176 735.247 Q232.176 742.353 233.982 745.918 Q235.81 749.46 239.422 749.46 Q243.056 749.46 244.861 745.918 Q246.69 742.353 246.69 735.247 Q246.69 728.117 244.861 724.575 Q243.056 721.011 239.422 721.011 M239.422 717.307 Q245.232 717.307 248.287 721.913 Q251.366 726.497 251.366 735.247 Q251.366 743.973 248.287 748.58 Q245.232 753.163 239.422 753.163 Q233.611 753.163 230.533 748.58 Q227.477 743.973 227.477 735.247 Q227.477 726.497 230.533 721.913 Q233.611 717.307 239.422 717.307 Z" fill="#000000" fill-rule="nonzero" fill-opacity="1" /><path clip-path="url(#clip510)" d="M165.024 377.027 Q161.413 377.027 159.584 380.592 Q157.778 384.133 157.778 391.263 Q157.778 398.369 159.584 401.934 Q161.413 405.476 165.024 405.476 Q168.658 405.476 170.464 401.934 Q172.292 398.369 172.292 391.263 Q172.292 384.133 170.464 380.592 Q168.658 377.027 165.024 377.027 M165.024 373.323 Q170.834 373.323 173.889 377.929 Q176.968 382.513 176.968 391.263 Q176.968 399.99 173.889 404.596 Q170.834 409.179 165.024 409.179 Q159.214 409.179 156.135 404.596 Q153.079 399.99 153.079 391.263 Q153.079 382.513 156.135 377.929 Q159.214 373.323 165.024 373.323 Z" fill="#000000" fill-rule="nonzero" fill-opacity="1" /><path clip-path="url(#clip510)" d="M185.186 402.628 L190.07 402.628 L190.07 408.508 L185.186 408.508 L185.186 402.628 Z" fill="#000000" fill-rule="nonzero" fill-opacity="1" /><path clip-path="url(#clip510)" d="M204.283 404.573 L220.602 404.573 L220.602 408.508 L198.658 408.508 L198.658 404.573 Q201.32 401.818 205.903 397.189 Q210.51 392.536 211.69 391.193 Q213.936 388.67 214.815 386.934 Q215.718 385.175 215.718 383.485 Q215.718 380.73 213.774 378.994 Q211.852 377.258 208.75 377.258 Q206.551 377.258 204.098 378.022 Q201.667 378.786 198.889 380.337 L198.889 375.615 Q201.713 374.48 204.167 373.902 Q206.621 373.323 208.658 373.323 Q214.028 373.323 217.223 376.008 Q220.417 378.693 220.417 383.184 Q220.417 385.314 219.607 387.235 Q218.82 389.133 216.713 391.726 Q216.135 392.397 213.033 395.615 Q209.931 398.809 204.283 404.573 Z" fill="#000000" fill-rule="nonzero" fill-opacity="1" /><path clip-path="url(#clip510)" d="M230.463 373.948 L248.82 373.948 L248.82 377.883 L234.746 377.883 L234.746 386.355 Q235.764 386.008 236.783 385.846 Q237.801 385.661 238.82 385.661 Q244.607 385.661 247.986 388.832 Q251.366 392.003 251.366 397.42 Q251.366 402.999 247.894 406.101 Q244.421 409.179 238.102 409.179 Q235.926 409.179 233.658 408.809 Q231.412 408.439 229.005 407.698 L229.005 402.999 Q231.088 404.133 233.31 404.689 Q235.533 405.244 238.009 405.244 Q242.014 405.244 244.352 403.138 Q246.69 401.031 246.69 397.42 Q246.69 393.809 244.352 391.703 Q242.014 389.596 238.009 389.596 Q236.135 389.596 234.26 390.013 Q232.408 390.429 230.463 391.309 L230.463 373.948 Z" fill="#000000" fill-rule="nonzero" fill-opacity="1" /><path clip-path="url(#clip510)" d="M164.028 33.0428 Q160.417 33.0428 158.589 36.6076 Q156.783 40.1492 156.783 47.2788 Q156.783 54.3853 158.589 57.9501 Q160.417 61.4917 164.028 61.4917 Q167.663 61.4917 169.468 57.9501 Q171.297 54.3853 171.297 47.2788 Q171.297 40.1492 169.468 36.6076 Q167.663 33.0428 164.028 33.0428 M164.028 29.3391 Q169.839 29.3391 172.894 33.9456 Q175.973 38.5289 175.973 47.2788 Q175.973 56.0056 172.894 60.6121 Q169.839 65.1954 164.028 65.1954 Q158.218 65.1954 155.14 60.6121 Q152.084 56.0056 152.084 47.2788 Q152.084 38.5289 155.14 33.9456 Q158.218 29.3391 164.028 29.3391 Z" fill="#000000" fill-rule="nonzero" fill-opacity="1" /><path clip-path="url(#clip510)" d="M184.19 58.6445 L189.075 58.6445 L189.075 64.5241 L184.19 64.5241 L184.19 58.6445 Z" fill="#000000" fill-rule="nonzero" fill-opacity="1" /><path clip-path="url(#clip510)" d="M199.306 29.9641 L217.662 29.9641 L217.662 33.8993 L203.588 33.8993 L203.588 42.3714 Q204.607 42.0242 205.625 41.8622 Q206.644 41.677 207.662 41.677 Q213.449 41.677 216.829 44.8483 Q220.209 48.0196 220.209 53.4362 Q220.209 59.0149 216.736 62.1167 Q213.264 65.1954 206.945 65.1954 Q204.769 65.1954 202.5 64.825 Q200.255 64.4547 197.848 63.7139 L197.848 59.0149 Q199.931 60.1491 202.153 60.7047 Q204.375 61.2602 206.852 61.2602 Q210.857 61.2602 213.195 59.1538 Q215.533 57.0473 215.533 53.4362 Q215.533 49.8251 213.195 47.7186 Q210.857 45.6122 206.852 45.6122 Q204.977 45.6122 203.102 46.0288 Q201.25 46.4455 199.306 47.3251 L199.306 29.9641 Z" fill="#000000" fill-rule="nonzero" fill-opacity="1" /><path clip-path="url(#clip510)" d="M239.422 33.0428 Q235.81 33.0428 233.982 36.6076 Q232.176 40.1492 232.176 47.2788 Q232.176 54.3853 233.982 57.9501 Q235.81 61.4917 239.422 61.4917 Q243.056 61.4917 244.861 57.9501 Q246.69 54.3853 246.69 47.2788 Q246.69 40.1492 244.861 36.6076 Q243.056 33.0428 239.422 33.0428 M239.422 29.3391 Q245.232 29.3391 248.287 33.9456 Q251.366 38.5289 251.366 47.2788 Q251.366 56.0056 248.287 60.6121 Q245.232 65.1954 239.422 65.1954 Q233.611 65.1954 230.533 60.6121 Q227.477 56.0056 227.477 47.2788 Q227.477 38.5289 230.533 33.9456 Q233.611 29.3391 239.422 29.3391 Z" fill="#000000" fill-rule="nonzero" fill-opacity="1" /><path clip-path="url(#clip510)" d="M16.4842 753.402 L16.4842 746.941 L45.3526 746.941 Q52.9915 746.941 56.3653 744.172 Q59.7073 741.403 59.7073 735.196 Q59.7073 729.021 56.3653 726.252 Q52.9915 723.483 45.3526 723.483 L16.4842 723.483 L16.4842 717.022 L46.1484 717.022 Q55.4423 717.022 60.1847 721.637 Q64.9272 726.22 64.9272 735.196 Q64.9272 744.204 60.1847 748.819 Q55.4423 753.402 46.1484 753.402 L16.4842 753.402 Z" fill="#000000" fill-rule="nonzero" fill-opacity="1" /><polyline clip-path="url(#clip512)" style="stroke:#009af9; stroke-linecap:round; stroke-linejoin:round; stroke-width:4; stroke-opacity:1; fill:none" points="1442.82,951.272 1434.94,950.345 1423.72,949.02 1407.73,947.121 1384.9,944.394 1352.29,940.459 1312.36,935.576 1272.21,930.591 1231.83,925.5 1191.23,920.295 1150.39,914.969 1109.3,909.515 1075.78,904.989 1034.26,899.28 992.481,893.414 950.454,887.379 908.179,881.16 865.658,874.739 822.9,868.093 779.916,861.198 736.728,854.021 693.367,846.52 649.882,838.644 606.346,830.322 562.872,821.456 519.647,811.909 476.984,801.471 435.465,789.803 396.3,776.31 369.364,763.908 345.82,744.26 352.372,718.276 369.38,706.508 404.643,690.93 444.814,677.818 486.769,666.447 529.639,656.23 572.961,646.853 616.471,638.122 660.01,629.91 703.475,622.126 746.801,614.705 789.945,607.596 832.879,600.762 875.584,594.171 918.049,587.798 960.267,581.623 1002.24,575.629 1043.95,569.801 1075.79,565.435 1117.06,559.871 1158.1,554.442 1198.9,549.139 1239.46,543.956 1279.8,538.885 1319.91,533.92 1359.8,529.055 1399.48,524.286 1438.95,519.607 1478.22,515.015 1517.29,510.505 1556.18,506.075 1594.88,501.72 1633.4,497.438 1671.74,493.225 1709.91,489.08 1747.92,484.999 1785.76,480.98 1823.45,477.021 1860.98,473.12 1898.37,469.275 1935.61,465.483 1972.71,461.744 2009.67,458.055 2046.5,454.415 2083.2,450.823 2119.77,447.276 2156.22,443.774 2192.54,440.316 2228.75,436.899 2264.84,433.524 2294.3,430.79 "/>
<circle clip-path="url(#clip512)" cx="1075.78" cy="904.989" r="10.8" fill="#ff0000" fill-rule="evenodd" fill-opacity="1" stroke="none"/>
<circle clip-path="url(#clip512)" cx="369.364" cy="763.908" r="10.8" fill="#eec591" fill-rule="evenodd" fill-opacity="1" stroke="none"/>
<circle clip-path="url(#clip512)" cx="369.38" cy="706.508" r="10.8" fill="#eec591" fill-rule="evenodd" fill-opacity="1" stroke="none"/>
<circle clip-path="url(#clip512)" cx="1075.79" cy="565.435" r="10.8" fill="#ff0000" fill-rule="evenodd" fill-opacity="1" stroke="none"/>
<circle clip-path="url(#clip512)" cx="1075.78" cy="904.989" r="10.8" fill="#ff0000" fill-rule="evenodd" fill-opacity="1" stroke="none"/>
<circle clip-path="url(#clip512)" cx="369.364" cy="763.908" r="10.8" fill="#eec591" fill-rule="evenodd" fill-opacity="1" stroke="none"/>
<path clip-path="url(#clip510)" d="M1961.79 300.469 L2283.91 300.469 L2283.91 93.1086 L1961.79 93.1086  Z" fill="#ffffff" fill-rule="evenodd" fill-opacity="1"/>
<polyline clip-path="url(#clip510)" style="stroke:#000000; stroke-linecap:round; stroke-linejoin:round; stroke-width:4; stroke-opacity:1; fill:none" points="1961.79,300.469 2283.91,300.469 2283.91,93.1086 1961.79,93.1086 1961.79,300.469 "/>
<polyline clip-path="url(#clip510)" style="stroke:#009af9; stroke-linecap:round; stroke-linejoin:round; stroke-width:4; stroke-opacity:1; fill:none" points="1984.74,144.949 2122.43,144.949 "/>
<path clip-path="url(#clip510)" d="M2145.38 127.669 L2165.24 127.669 L2165.24 131.604 L2150.06 131.604 L2150.06 141.789 L2163.76 141.789 L2163.76 145.724 L2150.06 145.724 L2150.06 162.229 L2145.38 162.229 L2145.38 127.669 Z" fill="#000000" fill-rule="nonzero" fill-opacity="1" /><path clip-path="url(#clip510)" d="M2180.82 139.289 Q2177.4 139.289 2175.41 141.974 Q2173.41 144.636 2173.41 149.289 Q2173.41 153.942 2175.38 156.627 Q2177.37 159.289 2180.82 159.289 Q2184.23 159.289 2186.22 156.604 Q2188.21 153.918 2188.21 149.289 Q2188.21 144.682 2186.22 141.997 Q2184.23 139.289 2180.82 139.289 M2180.82 135.678 Q2186.38 135.678 2189.55 139.289 Q2192.72 142.9 2192.72 149.289 Q2192.72 155.655 2189.55 159.289 Q2186.38 162.9 2180.82 162.9 Q2175.24 162.9 2172.07 159.289 Q2168.92 155.655 2168.92 149.289 Q2168.92 142.9 2172.07 139.289 Q2175.24 135.678 2180.82 135.678 Z" fill="#000000" fill-rule="nonzero" fill-opacity="1" /><path clip-path="url(#clip510)" d="M2199.78 126.21 L2204.04 126.21 L2204.04 162.229 L2199.78 162.229 L2199.78 126.21 Z" fill="#000000" fill-rule="nonzero" fill-opacity="1" /><path clip-path="url(#clip510)" d="M2230.01 140.238 L2230.01 126.21 L2234.27 126.21 L2234.27 162.229 L2230.01 162.229 L2230.01 158.34 Q2228.67 160.655 2226.61 161.789 Q2224.57 162.9 2221.7 162.9 Q2217 162.9 2214.04 159.15 Q2211.1 155.4 2211.1 149.289 Q2211.1 143.178 2214.04 139.428 Q2217 135.678 2221.7 135.678 Q2224.57 135.678 2226.61 136.812 Q2228.67 137.923 2230.01 140.238 M2215.5 149.289 Q2215.5 153.988 2217.42 156.673 Q2219.36 159.335 2222.74 159.335 Q2226.12 159.335 2228.07 156.673 Q2230.01 153.988 2230.01 149.289 Q2230.01 144.59 2228.07 141.928 Q2226.12 139.243 2222.74 139.243 Q2219.36 139.243 2217.42 141.928 Q2215.5 144.59 2215.5 149.289 Z" fill="#000000" fill-rule="nonzero" fill-opacity="1" /><path clip-path="url(#clip510)" d="M2259.57 137.067 L2259.57 141.094 Q2257.77 140.169 2255.82 139.706 Q2253.88 139.243 2251.79 139.243 Q2248.62 139.243 2247.03 140.215 Q2245.45 141.187 2245.45 143.131 Q2245.45 144.613 2246.59 145.469 Q2247.72 146.303 2251.15 147.067 L2252.6 147.391 Q2257.14 148.363 2259.04 150.145 Q2260.96 151.905 2260.96 155.076 Q2260.96 158.687 2258.09 160.793 Q2255.24 162.9 2250.24 162.9 Q2248.16 162.9 2245.89 162.483 Q2243.65 162.09 2241.15 161.28 L2241.15 156.881 Q2243.51 158.108 2245.8 158.733 Q2248.09 159.335 2250.34 159.335 Q2253.35 159.335 2254.97 158.317 Q2256.59 157.275 2256.59 155.4 Q2256.59 153.664 2255.41 152.738 Q2254.25 151.812 2250.29 150.956 L2248.81 150.608 Q2244.85 149.775 2243.09 148.062 Q2241.33 146.326 2241.33 143.317 Q2241.33 139.659 2243.92 137.669 Q2246.52 135.678 2251.28 135.678 Q2253.65 135.678 2255.73 136.025 Q2257.81 136.372 2259.57 137.067 Z" fill="#000000" fill-rule="nonzero" fill-opacity="1" /><circle clip-path="url(#clip510)" cx="2053.59" cy="196.789" r="23.04" fill="#ff0000" fill-rule="evenodd" fill-opacity="1" stroke="none"/>
<path clip-path="url(#clip510)" d="M2164.16 201.129 Q2164.16 196.43 2162.21 193.768 Q2160.29 191.083 2156.91 191.083 Q2153.53 191.083 2151.59 193.768 Q2149.67 196.43 2149.67 201.129 Q2149.67 205.828 2151.59 208.513 Q2153.53 211.175 2156.91 211.175 Q2160.29 211.175 2162.21 208.513 Q2164.16 205.828 2164.16 201.129 M2149.67 192.078 Q2151.01 189.763 2153.04 188.652 Q2155.1 187.518 2157.95 187.518 Q2162.67 187.518 2165.61 191.268 Q2168.58 195.018 2168.58 201.129 Q2168.58 207.24 2165.61 210.99 Q2162.67 214.74 2157.95 214.74 Q2155.1 214.74 2153.04 213.629 Q2151.01 212.495 2149.67 210.18 L2149.67 214.069 L2145.38 214.069 L2145.38 178.05 L2149.67 178.05 L2149.67 192.078 Z" fill="#000000" fill-rule="nonzero" fill-opacity="1" /><path clip-path="url(#clip510)" d="M2179.85 180.782 L2179.85 188.143 L2188.62 188.143 L2188.62 191.453 L2179.85 191.453 L2179.85 205.527 Q2179.85 208.698 2180.71 209.601 Q2181.59 210.504 2184.25 210.504 L2188.62 210.504 L2188.62 214.069 L2184.25 214.069 Q2179.32 214.069 2177.44 212.24 Q2175.57 210.388 2175.57 205.527 L2175.57 191.453 L2172.44 191.453 L2172.44 188.143 L2175.57 188.143 L2175.57 180.782 L2179.85 180.782 Z" fill="#000000" fill-rule="nonzero" fill-opacity="1" /><circle clip-path="url(#clip510)" cx="2053.59" cy="248.629" r="23.04" fill="#eec591" fill-rule="evenodd" fill-opacity="1" stroke="none"/>
<path clip-path="url(#clip510)" d="M2145.96 239.983 L2166.19 239.983 L2166.19 243.872 L2150.17 262.506 L2166.19 262.506 L2166.19 265.909 L2145.38 265.909 L2145.38 262.02 L2161.4 243.386 L2145.96 243.386 L2145.96 239.983 Z" fill="#000000" fill-rule="nonzero" fill-opacity="1" /><path clip-path="url(#clip510)" d="M2194.25 250.261 L2194.25 265.909 L2189.99 265.909 L2189.99 250.399 Q2189.99 246.719 2188.55 244.89 Q2187.12 243.062 2184.25 243.062 Q2180.8 243.062 2178.81 245.261 Q2176.82 247.46 2176.82 251.256 L2176.82 265.909 L2172.54 265.909 L2172.54 229.89 L2176.82 229.89 L2176.82 244.011 Q2178.35 241.673 2180.41 240.515 Q2182.49 239.358 2185.2 239.358 Q2189.66 239.358 2191.96 242.136 Q2194.25 244.89 2194.25 250.261 Z" fill="#000000" fill-rule="nonzero" fill-opacity="1" /></svg>
