<?xml version="1.0" encoding="utf-8"?>
<svg xmlns="http://www.w3.org/2000/svg" xmlns:xlink="http://www.w3.org/1999/xlink" width="600" height="400" viewBox="0 0 2400 1600">
<defs>
  <clipPath id="clip630">
    <rect x="0" y="0" width="2400" height="1600"/>
  </clipPath>
</defs>
<path clip-path="url(#clip630)" d="M0 1600 L2400 1600 L2400 0 L0 0  Z" fill="#ffffff" fill-rule="evenodd" fill-opacity="1"/>
<defs>
  <clipPath id="clip631">
    <rect x="480" y="0" width="1681" height="1600"/>
  </clipPath>
</defs>
<path clip-path="url(#clip630)" d="M307.034 1486.45 L2352.76 1486.45 L2352.76 47.2441 L307.034 47.2441  Z" fill="#ffffff" fill-rule="evenodd" fill-opacity="1"/>
<defs>
  <clipPath id="clip632">
    <rect x="307" y="47" width="2047" height="1440"/>
  </clipPath>
</defs>
<polyline clip-path="url(#clip632)" style="stroke:#000000; stroke-linecap:round; stroke-linejoin:round; stroke-width:2; stroke-opacity:0.1; fill:none" points="364.932,1486.45 364.932,47.2441 "/>
<polyline clip-path="url(#clip632)" style="stroke:#000000; stroke-linecap:round; stroke-linejoin:round; stroke-width:2; stroke-opacity:0.1; fill:none" points="889.662,1486.45 889.662,47.2441 "/>
<polyline clip-path="url(#clip632)" style="stroke:#000000; stroke-linecap:round; stroke-linejoin:round; stroke-width:2; stroke-opacity:0.1; fill:none" points="1414.39,1486.45 1414.39,47.2441 "/>
<polyline clip-path="url(#clip632)" style="stroke:#000000; stroke-linecap:round; stroke-linejoin:round; stroke-width:2; stroke-opacity:0.1; fill:none" points="1939.12,1486.45 1939.12,47.2441 "/>
<polyline clip-path="url(#clip630)" style="stroke:#000000; stroke-linecap:round; stroke-linejoin:round; stroke-width:4; stroke-opacity:1; fill:none" points="307.034,1486.45 2352.76,1486.45 "/>
<polyline clip-path="url(#clip630)" style="stroke:#000000; stroke-linecap:round; stroke-linejoin:round; stroke-width:4; stroke-opacity:1; fill:none" points="364.932,1486.45 364.932,1467.55 "/>
<polyline clip-path="url(#clip630)" style="stroke:#000000; stroke-linecap:round; stroke-linejoin:round; stroke-width:4; stroke-opacity:1; fill:none" points="889.662,1486.45 889.662,1467.55 "/>
<polyline clip-path="url(#clip630)" style="stroke:#000000; stroke-linecap:round; stroke-linejoin:round; stroke-width:4; stroke-opacity:1; fill:none" points="1414.39,1486.45 1414.39,1467.55 "/>
<polyline clip-path="url(#clip630)" style="stroke:#000000; stroke-linecap:round; stroke-linejoin:round; stroke-width:4; stroke-opacity:1; fill:none" points="1939.12,1486.45 1939.12,1467.55 "/>
<path clip-path="url(#clip630)" d="M342.317 1517.37 Q338.705 1517.37 336.877 1520.93 Q335.071 1524.47 335.071 1531.6 Q335.071 1538.71 336.877 1542.27 Q338.705 1545.82 342.317 1545.82 Q345.951 1545.82 347.756 1542.27 Q349.585 1538.71 349.585 1531.6 Q349.585 1524.47 347.756 1520.93 Q345.951 1517.37 342.317 1517.37 M342.317 1513.66 Q348.127 1513.66 351.182 1518.27 Q354.261 1522.85 354.261 1531.6 Q354.261 1540.33 351.182 1544.94 Q348.127 1549.52 342.317 1549.52 Q336.506 1549.52 333.428 1544.94 Q330.372 1540.33 330.372 1531.6 Q330.372 1522.85 333.428 1518.27 Q336.506 1513.66 342.317 1513.66 Z" fill="#000000" fill-rule="nonzero" fill-opacity="1" /><path clip-path="url(#clip630)" d="M362.478 1542.97 L367.363 1542.97 L367.363 1548.85 L362.478 1548.85 L362.478 1542.97 Z" fill="#000000" fill-rule="nonzero" fill-opacity="1" /><path clip-path="url(#clip630)" d="M387.548 1517.37 Q383.937 1517.37 382.108 1520.93 Q380.302 1524.47 380.302 1531.6 Q380.302 1538.71 382.108 1542.27 Q383.937 1545.82 387.548 1545.82 Q391.182 1545.82 392.988 1542.27 Q394.816 1538.71 394.816 1531.6 Q394.816 1524.47 392.988 1520.93 Q391.182 1517.37 387.548 1517.37 M387.548 1513.66 Q393.358 1513.66 396.413 1518.27 Q399.492 1522.85 399.492 1531.6 Q399.492 1540.33 396.413 1544.94 Q393.358 1549.52 387.548 1549.52 Q381.738 1549.52 378.659 1544.94 Q375.603 1540.33 375.603 1531.6 Q375.603 1522.85 378.659 1518.27 Q381.738 1513.66 387.548 1513.66 Z" fill="#000000" fill-rule="nonzero" fill-opacity="1" /><path clip-path="url(#clip630)" d="M867.66 1517.37 Q864.049 1517.37 862.22 1520.93 Q860.415 1524.47 860.415 1531.6 Q860.415 1538.71 862.22 1542.27 Q864.049 1545.82 867.66 1545.82 Q871.295 1545.82 873.1 1542.27 Q874.929 1538.71 874.929 1531.6 Q874.929 1524.47 873.1 1520.93 Q871.295 1517.37 867.66 1517.37 M867.66 1513.66 Q873.47 1513.66 876.526 1518.27 Q879.605 1522.85 879.605 1531.6 Q879.605 1540.33 876.526 1544.94 Q873.47 1549.52 867.66 1549.52 Q861.85 1549.52 858.771 1544.94 Q855.716 1540.33 855.716 1531.6 Q855.716 1522.85 858.771 1518.27 Q861.85 1513.66 867.66 1513.66 Z" fill="#000000" fill-rule="nonzero" fill-opacity="1" /><path clip-path="url(#clip630)" d="M887.822 1542.97 L892.706 1542.97 L892.706 1548.85 L887.822 1548.85 L887.822 1542.97 Z" fill="#000000" fill-rule="nonzero" fill-opacity="1" /><path clip-path="url(#clip630)" d="M903.702 1544.91 L911.341 1544.91 L911.341 1518.55 L903.03 1520.21 L903.03 1515.95 L911.294 1514.29 L915.97 1514.29 L915.97 1544.91 L923.609 1544.91 L923.609 1548.85 L903.702 1548.85 L903.702 1544.91 Z" fill="#000000" fill-rule="nonzero" fill-opacity="1" /><path clip-path="url(#clip630)" d="M1392.58 1517.37 Q1388.96 1517.37 1387.14 1520.93 Q1385.33 1524.47 1385.33 1531.6 Q1385.33 1538.71 1387.14 1542.27 Q1388.96 1545.82 1392.58 1545.82 Q1396.21 1545.82 1398.02 1542.27 Q1399.84 1538.71 1399.84 1531.6 Q1399.84 1524.47 1398.02 1520.93 Q1396.21 1517.37 1392.58 1517.37 M1392.58 1513.66 Q1398.39 1513.66 1401.44 1518.27 Q1404.52 1522.85 1404.52 1531.6 Q1404.52 1540.33 1401.44 1544.94 Q1398.39 1549.52 1392.58 1549.52 Q1386.77 1549.52 1383.69 1544.94 Q1380.63 1540.33 1380.63 1531.6 Q1380.63 1522.85 1383.69 1518.27 Q1386.77 1513.66 1392.58 1513.66 Z" fill="#000000" fill-rule="nonzero" fill-opacity="1" /><path clip-path="url(#clip630)" d="M1412.74 1542.97 L1417.62 1542.97 L1417.62 1548.85 L1412.74 1548.85 L1412.74 1542.97 Z" fill="#000000" fill-rule="nonzero" fill-opacity="1" /><path clip-path="url(#clip630)" d="M1431.83 1544.91 L1448.15 1544.91 L1448.15 1548.85 L1426.21 1548.85 L1426.21 1544.91 Q1428.87 1542.16 1433.46 1537.53 Q1438.06 1532.88 1439.24 1531.53 Q1441.49 1529.01 1442.37 1527.27 Q1443.27 1525.51 1443.27 1523.82 Q1443.27 1521.07 1441.33 1519.33 Q1439.4 1517.6 1436.3 1517.6 Q1434.1 1517.6 1431.65 1518.36 Q1429.22 1519.13 1426.44 1520.68 L1426.44 1515.95 Q1429.27 1514.82 1431.72 1514.24 Q1434.17 1513.66 1436.21 1513.66 Q1441.58 1513.66 1444.77 1516.35 Q1447.97 1519.03 1447.97 1523.52 Q1447.97 1525.65 1447.16 1527.57 Q1446.37 1529.47 1444.27 1532.07 Q1443.69 1532.74 1440.58 1535.95 Q1437.48 1539.15 1431.83 1544.91 Z" fill="#000000" fill-rule="nonzero" fill-opacity="1" /><path clip-path="url(#clip630)" d="M1916.83 1517.37 Q1913.22 1517.37 1911.39 1520.93 Q1909.59 1524.47 1909.59 1531.6 Q1909.59 1538.71 1911.39 1542.27 Q1913.22 1545.82 1916.83 1545.82 Q1920.47 1545.82 1922.27 1542.27 Q1924.1 1538.71 1924.1 1531.6 Q1924.1 1524.47 1922.27 1520.93 Q1920.47 1517.37 1916.83 1517.37 M1916.83 1513.66 Q1922.64 1513.66 1925.7 1518.27 Q1928.78 1522.85 1928.78 1531.6 Q1928.78 1540.33 1925.7 1544.94 Q1922.64 1549.52 1916.83 1549.52 Q1911.02 1549.52 1907.94 1544.94 Q1904.89 1540.33 1904.89 1531.6 Q1904.89 1522.85 1907.94 1518.27 Q1911.02 1513.66 1916.83 1513.66 Z" fill="#000000" fill-rule="nonzero" fill-opacity="1" /><path clip-path="url(#clip630)" d="M1936.99 1542.97 L1941.88 1542.97 L1941.88 1548.85 L1936.99 1548.85 L1936.99 1542.97 Z" fill="#000000" fill-rule="nonzero" fill-opacity="1" /><path clip-path="url(#clip630)" d="M1966.23 1530.21 Q1969.59 1530.93 1971.46 1533.2 Q1973.36 1535.47 1973.36 1538.8 Q1973.36 1543.92 1969.84 1546.72 Q1966.32 1549.52 1959.84 1549.52 Q1957.66 1549.52 1955.35 1549.08 Q1953.06 1548.66 1950.6 1547.81 L1950.6 1543.29 Q1952.55 1544.43 1954.86 1545.01 Q1957.18 1545.58 1959.7 1545.58 Q1964.1 1545.58 1966.39 1543.85 Q1968.71 1542.11 1968.71 1538.8 Q1968.71 1535.75 1966.55 1534.03 Q1964.42 1532.3 1960.6 1532.3 L1956.58 1532.3 L1956.58 1528.45 L1960.79 1528.45 Q1964.24 1528.45 1966.07 1527.09 Q1967.9 1525.7 1967.9 1523.11 Q1967.9 1520.45 1966 1519.03 Q1964.12 1517.6 1960.6 1517.6 Q1958.68 1517.6 1956.48 1518.01 Q1954.29 1518.43 1951.65 1519.31 L1951.65 1515.14 Q1954.31 1514.4 1956.62 1514.03 Q1958.96 1513.66 1961.02 1513.66 Q1966.35 1513.66 1969.45 1516.09 Q1972.55 1518.5 1972.55 1522.62 Q1972.55 1525.49 1970.91 1527.48 Q1969.26 1529.45 1966.23 1530.21 Z" fill="#000000" fill-rule="nonzero" fill-opacity="1" /><polyline clip-path="url(#clip632)" style="stroke:#000000; stroke-linecap:round; stroke-linejoin:round; stroke-width:2; stroke-opacity:0.1; fill:none" points="307.034,1445.72 2352.76,1445.72 "/>
<polyline clip-path="url(#clip632)" style="stroke:#000000; stroke-linecap:round; stroke-linejoin:round; stroke-width:2; stroke-opacity:0.1; fill:none" points="307.034,1119.34 2352.76,1119.34 "/>
<polyline clip-path="url(#clip632)" style="stroke:#000000; stroke-linecap:round; stroke-linejoin:round; stroke-width:2; stroke-opacity:0.1; fill:none" points="307.034,792.97 2352.76,792.97 "/>
<polyline clip-path="url(#clip632)" style="stroke:#000000; stroke-linecap:round; stroke-linejoin:round; stroke-width:2; stroke-opacity:0.1; fill:none" points="307.034,466.597 2352.76,466.597 "/>
<polyline clip-path="url(#clip632)" style="stroke:#000000; stroke-linecap:round; stroke-linejoin:round; stroke-width:2; stroke-opacity:0.1; fill:none" points="307.034,140.224 2352.76,140.224 "/>
<polyline clip-path="url(#clip630)" style="stroke:#000000; stroke-linecap:round; stroke-linejoin:round; stroke-width:4; stroke-opacity:1; fill:none" points="307.034,1486.45 307.034,47.2441 "/>
<polyline clip-path="url(#clip630)" style="stroke:#000000; stroke-linecap:round; stroke-linejoin:round; stroke-width:4; stroke-opacity:1; fill:none" points="307.034,1445.72 325.932,1445.72 "/>
<polyline clip-path="url(#clip630)" style="stroke:#000000; stroke-linecap:round; stroke-linejoin:round; stroke-width:4; stroke-opacity:1; fill:none" points="307.034,1119.34 325.932,1119.34 "/>
<polyline clip-path="url(#clip630)" style="stroke:#000000; stroke-linecap:round; stroke-linejoin:round; stroke-width:4; stroke-opacity:1; fill:none" points="307.034,792.97 325.932,792.97 "/>
<polyline clip-path="url(#clip630)" style="stroke:#000000; stroke-linecap:round; stroke-linejoin:round; stroke-width:4; stroke-opacity:1; fill:none" points="307.034,466.597 325.932,466.597 "/>
<polyline clip-path="url(#clip630)" style="stroke:#000000; stroke-linecap:round; stroke-linejoin:round; stroke-width:4; stroke-opacity:1; fill:none" points="307.034,140.224 325.932,140.224 "/>
<path clip-path="url(#clip630)" d="M259.09 1431.51 Q255.479 1431.51 253.65 1435.08 Q251.845 1438.62 251.845 1445.75 Q251.845 1452.86 253.65 1456.42 Q255.479 1459.96 259.09 1459.96 Q262.724 1459.96 264.53 1456.42 Q266.358 1452.86 266.358 1445.75 Q266.358 1438.62 264.53 1435.08 Q262.724 1431.51 259.09 1431.51 M259.09 1427.81 Q264.9 1427.81 267.956 1432.42 Q271.034 1437 271.034 1445.75 Q271.034 1454.48 267.956 1459.08 Q264.9 1463.67 259.09 1463.67 Q253.28 1463.67 250.201 1459.08 Q247.146 1454.48 247.146 1445.75 Q247.146 1437 250.201 1432.42 Q253.28 1427.81 259.09 1427.81 Z" fill="#000000" fill-rule="nonzero" fill-opacity="1" /><path clip-path="url(#clip630)" d="M54.5569 1139.14 L62.1958 1139.14 L62.1958 1112.77 L53.8856 1114.44 L53.8856 1110.18 L62.1495 1108.51 L66.8254 1108.51 L66.8254 1139.14 L74.4642 1139.14 L74.4642 1143.07 L54.5569 1143.07 L54.5569 1139.14 Z" fill="#000000" fill-rule="nonzero" fill-opacity="1" /><path clip-path="url(#clip630)" d="M83.9086 1137.19 L88.7928 1137.19 L88.7928 1143.07 L83.9086 1143.07 L83.9086 1137.19 Z" fill="#000000" fill-rule="nonzero" fill-opacity="1" /><path clip-path="url(#clip630)" d="M108.978 1111.59 Q105.367 1111.59 103.538 1115.15 Q101.733 1118.7 101.733 1125.83 Q101.733 1132.93 103.538 1136.5 Q105.367 1140.04 108.978 1140.04 Q112.612 1140.04 114.418 1136.5 Q116.246 1132.93 116.246 1125.83 Q116.246 1118.7 114.418 1115.15 Q112.612 1111.59 108.978 1111.59 M108.978 1107.89 Q114.788 1107.89 117.844 1112.49 Q120.922 1117.08 120.922 1125.83 Q120.922 1134.55 117.844 1139.16 Q114.788 1143.74 108.978 1143.74 Q103.168 1143.74 100.089 1139.16 Q97.0335 1134.55 97.0335 1125.83 Q97.0335 1117.08 100.089 1112.49 Q103.168 1107.89 108.978 1107.89 Z" fill="#000000" fill-rule="nonzero" fill-opacity="1" /><path clip-path="url(#clip630)" d="M157.311 1117.61 L146.732 1128.23 L157.311 1138.81 L154.556 1141.61 L143.931 1130.99 L133.306 1141.61 L130.575 1138.81 L141.131 1128.23 L130.575 1117.61 L133.306 1114.81 L143.931 1125.43 L154.556 1114.81 L157.311 1117.61 Z" fill="#000000" fill-rule="nonzero" fill-opacity="1" /><path clip-path="url(#clip630)" d="M169.672 1139.14 L177.311 1139.14 L177.311 1112.77 L169.001 1114.44 L169.001 1110.18 L177.265 1108.51 L181.94 1108.51 L181.94 1139.14 L189.579 1139.14 L189.579 1143.07 L169.672 1143.07 L169.672 1139.14 Z" fill="#000000" fill-rule="nonzero" fill-opacity="1" /><path clip-path="url(#clip630)" d="M209.024 1111.59 Q205.413 1111.59 203.584 1115.15 Q201.778 1118.7 201.778 1125.83 Q201.778 1132.93 203.584 1136.5 Q205.413 1140.04 209.024 1140.04 Q212.658 1140.04 214.463 1136.5 Q216.292 1132.93 216.292 1125.83 Q216.292 1118.7 214.463 1115.15 Q212.658 1111.59 209.024 1111.59 M209.024 1107.89 Q214.834 1107.89 217.889 1112.49 Q220.968 1117.08 220.968 1125.83 Q220.968 1134.55 217.889 1139.16 Q214.834 1143.74 209.024 1143.74 Q203.214 1143.74 200.135 1139.16 Q197.079 1134.55 197.079 1125.83 Q197.079 1117.08 200.135 1112.49 Q203.214 1107.89 209.024 1107.89 Z" fill="#000000" fill-rule="nonzero" fill-opacity="1" /><path clip-path="url(#clip630)" d="M220.968 1101.99 L245.08 1101.99 L245.08 1105.18 L220.968 1105.18 L220.968 1101.99 Z" fill="#000000" fill-rule="nonzero" fill-opacity="1" /><path clip-path="url(#clip630)" d="M261.405 1102.33 Q258.696 1102.33 257.135 1103.77 Q255.593 1105.22 255.593 1107.76 Q255.593 1110.3 257.135 1111.75 Q258.696 1113.2 261.405 1113.2 Q264.113 1113.2 265.674 1111.75 Q267.235 1110.28 267.235 1107.76 Q267.235 1105.22 265.674 1103.77 Q264.132 1102.33 261.405 1102.33 M257.606 1100.71 Q255.161 1100.11 253.788 1098.43 Q252.433 1096.76 252.433 1094.35 Q252.433 1090.98 254.822 1089.03 Q257.229 1087.07 261.405 1087.07 Q265.599 1087.07 267.987 1089.03 Q270.376 1090.98 270.376 1094.35 Q270.376 1096.76 269.003 1098.43 Q267.649 1100.11 265.223 1100.71 Q267.969 1101.35 269.492 1103.21 Q271.034 1105.07 271.034 1107.76 Q271.034 1111.84 268.533 1114.02 Q266.05 1116.21 261.405 1116.21 Q256.759 1116.21 254.258 1114.02 Q251.775 1111.84 251.775 1107.76 Q251.775 1105.07 253.317 1103.21 Q254.86 1101.35 257.606 1100.71 M256.214 1094.71 Q256.214 1096.89 257.568 1098.11 Q258.941 1099.33 261.405 1099.33 Q263.85 1099.33 265.223 1098.11 Q266.615 1096.89 266.615 1094.71 Q266.615 1092.53 265.223 1091.3 Q263.85 1090.08 261.405 1090.08 Q258.941 1090.08 257.568 1091.3 Q256.214 1092.53 256.214 1094.71 Z" fill="#000000" fill-rule="nonzero" fill-opacity="1" /><path clip-path="url(#clip630)" d="M57.7745 812.762 L74.0939 812.762 L74.0939 816.698 L52.1495 816.698 L52.1495 812.762 Q54.8115 810.008 59.3949 805.378 Q64.0013 800.725 65.1819 799.383 Q67.4272 796.86 68.3068 795.124 Q69.2096 793.364 69.2096 791.675 Q69.2096 788.92 67.2652 787.184 Q65.3439 785.448 62.2421 785.448 Q60.043 785.448 57.5893 786.212 Q55.1588 786.975 52.381 788.526 L52.381 783.804 Q55.2051 782.67 57.6588 782.091 Q60.1124 781.513 62.1495 781.513 Q67.5198 781.513 70.7142 784.198 Q73.9087 786.883 73.9087 791.374 Q73.9087 793.503 73.0985 795.425 Q72.3115 797.323 70.205 799.915 Q69.6263 800.587 66.5245 803.804 Q63.4226 806.999 57.7745 812.762 Z" fill="#000000" fill-rule="nonzero" fill-opacity="1" /><path clip-path="url(#clip630)" d="M83.9086 810.818 L88.7928 810.818 L88.7928 816.698 L83.9086 816.698 L83.9086 810.818 Z" fill="#000000" fill-rule="nonzero" fill-opacity="1" /><path clip-path="url(#clip630)" d="M108.978 785.216 Q105.367 785.216 103.538 788.781 Q101.733 792.323 101.733 799.452 Q101.733 806.559 103.538 810.124 Q105.367 813.665 108.978 813.665 Q112.612 813.665 114.418 810.124 Q116.246 806.559 116.246 799.452 Q116.246 792.323 114.418 788.781 Q112.612 785.216 108.978 785.216 M108.978 781.513 Q114.788 781.513 117.844 786.119 Q120.922 790.702 120.922 799.452 Q120.922 808.179 117.844 812.786 Q114.788 817.369 108.978 817.369 Q103.168 817.369 100.089 812.786 Q97.0335 808.179 97.0335 799.452 Q97.0335 790.702 100.089 786.119 Q103.168 781.513 108.978 781.513 Z" fill="#000000" fill-rule="nonzero" fill-opacity="1" /><path clip-path="url(#clip630)" d="M157.311 791.235 L146.732 801.86 L157.311 812.438 L154.556 815.239 L143.931 804.614 L133.306 815.239 L130.575 812.438 L141.131 801.86 L130.575 791.235 L133.306 788.434 L143.931 799.059 L154.556 788.434 L157.311 791.235 Z" fill="#000000" fill-rule="nonzero" fill-opacity="1" /><path clip-path="url(#clip630)" d="M169.672 812.762 L177.311 812.762 L177.311 786.397 L169.001 788.063 L169.001 783.804 L177.265 782.138 L181.94 782.138 L181.94 812.762 L189.579 812.762 L189.579 816.698 L169.672 816.698 L169.672 812.762 Z" fill="#000000" fill-rule="nonzero" fill-opacity="1" /><path clip-path="url(#clip630)" d="M209.024 785.216 Q205.413 785.216 203.584 788.781 Q201.778 792.323 201.778 799.452 Q201.778 806.559 203.584 810.124 Q205.413 813.665 209.024 813.665 Q212.658 813.665 214.463 810.124 Q216.292 806.559 216.292 799.452 Q216.292 792.323 214.463 788.781 Q212.658 785.216 209.024 785.216 M209.024 781.513 Q214.834 781.513 217.889 786.119 Q220.968 790.702 220.968 799.452 Q220.968 808.179 217.889 812.786 Q214.834 817.369 209.024 817.369 Q203.214 817.369 200.135 812.786 Q197.079 808.179 197.079 799.452 Q197.079 790.702 200.135 786.119 Q203.214 781.513 209.024 781.513 Z" fill="#000000" fill-rule="nonzero" fill-opacity="1" /><path clip-path="url(#clip630)" d="M220.968 775.614 L245.08 775.614 L245.08 778.811 L220.968 778.811 L220.968 775.614 Z" fill="#000000" fill-rule="nonzero" fill-opacity="1" /><path clip-path="url(#clip630)" d="M261.405 775.952 Q258.696 775.952 257.135 777.401 Q255.593 778.849 255.593 781.388 Q255.593 783.927 257.135 785.375 Q258.696 786.823 261.405 786.823 Q264.113 786.823 265.674 785.375 Q267.235 783.908 267.235 781.388 Q267.235 778.849 265.674 777.401 Q264.132 775.952 261.405 775.952 M257.606 774.335 Q255.161 773.733 253.788 772.059 Q252.433 770.385 252.433 767.978 Q252.433 764.611 254.822 762.655 Q257.229 760.699 261.405 760.699 Q265.599 760.699 267.987 762.655 Q270.376 764.611 270.376 767.978 Q270.376 770.385 269.003 772.059 Q267.649 773.733 265.223 774.335 Q267.969 774.974 269.492 776.836 Q271.034 778.698 271.034 781.388 Q271.034 785.469 268.533 787.651 Q266.05 789.833 261.405 789.833 Q256.759 789.833 254.258 787.651 Q251.775 785.469 251.775 781.388 Q251.775 778.698 253.317 776.836 Q254.86 774.974 257.606 774.335 M256.214 768.335 Q256.214 770.517 257.568 771.74 Q258.941 772.962 261.405 772.962 Q263.85 772.962 265.223 771.74 Q266.615 770.517 266.615 768.335 Q266.615 766.154 265.223 764.931 Q263.85 763.709 261.405 763.709 Q258.941 763.709 257.568 764.931 Q256.214 766.154 256.214 768.335 Z" fill="#000000" fill-rule="nonzero" fill-opacity="1" /><path clip-path="url(#clip630)" d="M67.9133 471.691 Q71.2698 472.408 73.1448 474.677 Q75.0429 476.945 75.0429 480.278 Q75.0429 485.394 71.5244 488.195 Q68.0059 490.996 61.5245 490.996 Q59.3486 490.996 57.0338 490.556 Q54.7421 490.14 52.2884 489.283 L52.2884 484.769 Q54.2328 485.903 56.5477 486.482 Q58.8625 487.061 61.3856 487.061 Q65.7837 487.061 68.0754 485.325 Q70.3902 483.589 70.3902 480.278 Q70.3902 477.223 68.2374 475.51 Q66.1078 473.774 62.2884 473.774 L58.2606 473.774 L58.2606 469.931 L62.4735 469.931 Q65.9226 469.931 67.7513 468.566 Q69.58 467.177 69.58 464.584 Q69.58 461.922 67.6819 460.51 Q65.8069 459.075 62.2884 459.075 Q60.3671 459.075 58.168 459.492 Q55.969 459.908 53.3301 460.788 L53.3301 456.621 Q55.9921 455.88 58.3069 455.51 Q60.6449 455.14 62.705 455.14 Q68.0291 455.14 71.1309 457.57 Q74.2327 459.978 74.2327 464.098 Q74.2327 466.968 72.5892 468.959 Q70.9457 470.927 67.9133 471.691 Z" fill="#000000" fill-rule="nonzero" fill-opacity="1" /><path clip-path="url(#clip630)" d="M83.9086 484.445 L88.7928 484.445 L88.7928 490.325 L83.9086 490.325 L83.9086 484.445 Z" fill="#000000" fill-rule="nonzero" fill-opacity="1" /><path clip-path="url(#clip630)" d="M108.978 458.843 Q105.367 458.843 103.538 462.408 Q101.733 465.95 101.733 473.079 Q101.733 480.186 103.538 483.751 Q105.367 487.292 108.978 487.292 Q112.612 487.292 114.418 483.751 Q116.246 480.186 116.246 473.079 Q116.246 465.95 114.418 462.408 Q112.612 458.843 108.978 458.843 M108.978 455.14 Q114.788 455.14 117.844 459.746 Q120.922 464.329 120.922 473.079 Q120.922 481.806 117.844 486.413 Q114.788 490.996 108.978 490.996 Q103.168 490.996 100.089 486.413 Q97.0335 481.806 97.0335 473.079 Q97.0335 464.329 100.089 459.746 Q103.168 455.14 108.978 455.14 Z" fill="#000000" fill-rule="nonzero" fill-opacity="1" /><path clip-path="url(#clip630)" d="M157.311 464.862 L146.732 475.487 L157.311 486.065 L154.556 488.866 L143.931 478.241 L133.306 488.866 L130.575 486.065 L141.131 475.487 L130.575 464.862 L133.306 462.061 L143.931 472.686 L154.556 462.061 L157.311 464.862 Z" fill="#000000" fill-rule="nonzero" fill-opacity="1" /><path clip-path="url(#clip630)" d="M169.672 486.39 L177.311 486.39 L177.311 460.024 L169.001 461.691 L169.001 457.431 L177.265 455.765 L181.94 455.765 L181.94 486.39 L189.579 486.39 L189.579 490.325 L169.672 490.325 L169.672 486.39 Z" fill="#000000" fill-rule="nonzero" fill-opacity="1" /><path clip-path="url(#clip630)" d="M209.024 458.843 Q205.413 458.843 203.584 462.408 Q201.778 465.95 201.778 473.079 Q201.778 480.186 203.584 483.751 Q205.413 487.292 209.024 487.292 Q212.658 487.292 214.463 483.751 Q216.292 480.186 216.292 473.079 Q216.292 465.95 214.463 462.408 Q212.658 458.843 209.024 458.843 M209.024 455.14 Q214.834 455.14 217.889 459.746 Q220.968 464.329 220.968 473.079 Q220.968 481.806 217.889 486.413 Q214.834 490.996 209.024 490.996 Q203.214 490.996 200.135 486.413 Q197.079 481.806 197.079 473.079 Q197.079 464.329 200.135 459.746 Q203.214 455.14 209.024 455.14 Z" fill="#000000" fill-rule="nonzero" fill-opacity="1" /><path clip-path="url(#clip630)" d="M220.968 449.241 L245.08 449.241 L245.08 452.438 L220.968 452.438 L220.968 449.241 Z" fill="#000000" fill-rule="nonzero" fill-opacity="1" /><path clip-path="url(#clip630)" d="M261.405 449.58 Q258.696 449.58 257.135 451.028 Q255.593 452.476 255.593 455.015 Q255.593 457.554 257.135 459.002 Q258.696 460.45 261.405 460.45 Q264.113 460.45 265.674 459.002 Q267.235 457.535 267.235 455.015 Q267.235 452.476 265.674 451.028 Q264.132 449.58 261.405 449.58 M257.606 447.962 Q255.161 447.36 253.788 445.686 Q252.433 444.012 252.433 441.605 Q252.433 438.238 254.822 436.282 Q257.229 434.326 261.405 434.326 Q265.599 434.326 267.987 436.282 Q270.376 438.238 270.376 441.605 Q270.376 444.012 269.003 445.686 Q267.649 447.36 265.223 447.962 Q267.969 448.602 269.492 450.464 Q271.034 452.326 271.034 455.015 Q271.034 459.096 268.533 461.278 Q266.05 463.46 261.405 463.46 Q256.759 463.46 254.258 461.278 Q251.775 459.096 251.775 455.015 Q251.775 452.326 253.317 450.464 Q254.86 448.602 257.606 447.962 M256.214 441.962 Q256.214 444.144 257.568 445.367 Q258.941 446.589 261.405 446.589 Q263.85 446.589 265.223 445.367 Q266.615 444.144 266.615 441.962 Q266.615 439.781 265.223 438.558 Q263.85 437.336 261.405 437.336 Q258.941 437.336 257.568 438.558 Q256.214 439.781 256.214 441.962 Z" fill="#000000" fill-rule="nonzero" fill-opacity="1" /><path clip-path="url(#clip630)" d="M66.5939 133.466 L54.7884 151.915 L66.5939 151.915 L66.5939 133.466 M65.367 129.392 L71.2466 129.392 L71.2466 151.915 L76.1772 151.915 L76.1772 155.804 L71.2466 155.804 L71.2466 163.952 L66.5939 163.952 L66.5939 155.804 L50.9921 155.804 L50.9921 151.29 L65.367 129.392 Z" fill="#000000" fill-rule="nonzero" fill-opacity="1" /><path clip-path="url(#clip630)" d="M83.9086 158.072 L88.7928 158.072 L88.7928 163.952 L83.9086 163.952 L83.9086 158.072 Z" fill="#000000" fill-rule="nonzero" fill-opacity="1" /><path clip-path="url(#clip630)" d="M108.978 132.471 Q105.367 132.471 103.538 136.035 Q101.733 139.577 101.733 146.707 Q101.733 153.813 103.538 157.378 Q105.367 160.919 108.978 160.919 Q112.612 160.919 114.418 157.378 Q116.246 153.813 116.246 146.707 Q116.246 139.577 114.418 136.035 Q112.612 132.471 108.978 132.471 M108.978 128.767 Q114.788 128.767 117.844 133.373 Q120.922 137.957 120.922 146.707 Q120.922 155.433 117.844 160.04 Q114.788 164.623 108.978 164.623 Q103.168 164.623 100.089 160.04 Q97.0335 155.433 97.0335 146.707 Q97.0335 137.957 100.089 133.373 Q103.168 128.767 108.978 128.767 Z" fill="#000000" fill-rule="nonzero" fill-opacity="1" /><path clip-path="url(#clip630)" d="M157.311 138.489 L146.732 149.114 L157.311 159.693 L154.556 162.493 L143.931 151.869 L133.306 162.493 L130.575 159.693 L141.131 149.114 L130.575 138.489 L133.306 135.688 L143.931 146.313 L154.556 135.688 L157.311 138.489 Z" fill="#000000" fill-rule="nonzero" fill-opacity="1" /><path clip-path="url(#clip630)" d="M169.672 160.017 L177.311 160.017 L177.311 133.651 L169.001 135.318 L169.001 131.058 L177.265 129.392 L181.94 129.392 L181.94 160.017 L189.579 160.017 L189.579 163.952 L169.672 163.952 L169.672 160.017 Z" fill="#000000" fill-rule="nonzero" fill-opacity="1" /><path clip-path="url(#clip630)" d="M209.024 132.471 Q205.413 132.471 203.584 136.035 Q201.778 139.577 201.778 146.707 Q201.778 153.813 203.584 157.378 Q205.413 160.919 209.024 160.919 Q212.658 160.919 214.463 157.378 Q216.292 153.813 216.292 146.707 Q216.292 139.577 214.463 136.035 Q212.658 132.471 209.024 132.471 M209.024 128.767 Q214.834 128.767 217.889 133.373 Q220.968 137.957 220.968 146.707 Q220.968 155.433 217.889 160.04 Q214.834 164.623 209.024 164.623 Q203.214 164.623 200.135 160.04 Q197.079 155.433 197.079 146.707 Q197.079 137.957 200.135 133.373 Q203.214 128.767 209.024 128.767 Z" fill="#000000" fill-rule="nonzero" fill-opacity="1" /><path clip-path="url(#clip630)" d="M220.968 122.868 L245.08 122.868 L245.08 126.065 L220.968 126.065 L220.968 122.868 Z" fill="#000000" fill-rule="nonzero" fill-opacity="1" /><path clip-path="url(#clip630)" d="M261.405 123.207 Q258.696 123.207 257.135 124.655 Q255.593 126.103 255.593 128.642 Q255.593 131.181 257.135 132.629 Q258.696 134.078 261.405 134.078 Q264.113 134.078 265.674 132.629 Q267.235 131.162 267.235 128.642 Q267.235 126.103 265.674 124.655 Q264.132 123.207 261.405 123.207 M257.606 121.589 Q255.161 120.987 253.788 119.314 Q252.433 117.64 252.433 115.232 Q252.433 111.866 254.822 109.91 Q257.229 107.954 261.405 107.954 Q265.599 107.954 267.987 109.91 Q270.376 111.866 270.376 115.232 Q270.376 117.64 269.003 119.314 Q267.649 120.987 265.223 121.589 Q267.969 122.229 269.492 124.091 Q271.034 125.953 271.034 128.642 Q271.034 132.723 268.533 134.905 Q266.05 137.087 261.405 137.087 Q256.759 137.087 254.258 134.905 Q251.775 132.723 251.775 128.642 Q251.775 125.953 253.317 124.091 Q254.86 122.229 257.606 121.589 M256.214 115.59 Q256.214 117.771 257.568 118.994 Q258.941 120.216 261.405 120.216 Q263.85 120.216 265.223 118.994 Q266.615 117.771 266.615 115.59 Q266.615 113.408 265.223 112.185 Q263.85 110.963 261.405 110.963 Q258.941 110.963 257.568 112.185 Q256.214 113.408 256.214 115.59 Z" fill="#000000" fill-rule="nonzero" fill-opacity="1" /><polyline clip-path="url(#clip632)" style="stroke:#009af9; stroke-linecap:round; stroke-linejoin:round; stroke-width:20; stroke-opacity:1; fill:none" points="364.932,1445.72 520.386,1445.72 669.35,1445.72 811.742,1445.72 947.489,1445.72 1076.53,1445.72 1198.81,1445.72 1314.29,1445.72 1422.97,1445.72 1524.82,1445.72 1619.86,1445.72 1708.13,1445.72 1789.67,1445.72 1864.54,1445.71 1932.84,1445.7 1994.66,1445.6 2050.14,1445.09 2099.41,1442.84 2142.64,1433.89 2180,1401.41 "/>
<polyline clip-path="url(#clip632)" style="stroke:#e26f46; stroke-linecap:round; stroke-linejoin:round; stroke-width:20; stroke-opacity:1; fill:none" points="2180,1445.72 2221.73,1445.38 2253.16,1445.13 2275.23,1444.96 2288.85,1444.85 2294.86,1444.8 2294.03,1444.81 2287.08,1444.87 2274.7,1444.96 2257.49,1445.1 2236.05,1445.27 2210.88,1445.47 2182.49,1445.68 2151.3,1445.6 2117.74,1445.66 2082.17,1444.1 2044.92,1437.32 2006.31,1412.63 1966.61,1330.75 1926.08,1077.74 "/>
<polyline clip-path="url(#clip632)" style="stroke:#3da44d; stroke-linecap:round; stroke-linejoin:round; stroke-width:20; stroke-opacity:1; fill:none" points="1926.08,1445.72 1883.42,1444.93 1840.34,1444.13 1797.04,1443.33 1753.69,1442.53 1710.45,1441.73 1667.46,1440.94 1624.84,1440.15 1582.69,1439.37 1541.11,1438.6 1500.17,1437.84 1459.95,1437.1 1420.51,1436.36 1381.89,1435.58 1344.13,1434.59 1307.26,1432.62 1271.32,1426.87 1236.32,1407.75 1202.27,1344.63 1169.19,1145.76 "/>
<polyline clip-path="url(#clip632)" style="stroke:#c271d2; stroke-linecap:round; stroke-linejoin:round; stroke-width:20; stroke-opacity:1; fill:none" points="1169.19,1445.72 1165.43,1445.34 1161.68,1444.96 1157.95,1444.58 1154.23,1444.21 1150.52,1443.83 1146.82,1443.46 1143.14,1443.09 1139.47,1442.72 1135.82,1442.35 1132.17,1441.98 1128.54,1441.61 1124.92,1441.18 1121.32,1440.5 1117.73,1438.68 1114.15,1432.29 1110.58,1409.26 1107.03,1330.34 1103.49,1076.7 1099.96,310.789 "/>
<polyline clip-path="url(#clip632)" style="stroke:#ac8d18; stroke-linecap:round; stroke-linejoin:round; stroke-width:20; stroke-opacity:1; fill:none" points="1099.96,1445.71 1094.11,1444.18 1088.28,1442.64 1082.5,1441.12 1076.75,1439.6 1071.04,1438.1 1065.36,1436.6 1059.72,1435.11 1054.11,1433.64 1048.54,1432.17 1043,1430.71 1037.5,1429.25 1032.04,1427.77 1026.61,1426.12 1021.22,1423.71 1015.86,1418.2 1010.54,1401.38 1005.25,1346.58 999.998,1173 994.781,651.156 "/>
<polyline clip-path="url(#clip632)" style="stroke:#00a9ad; stroke-linecap:round; stroke-linejoin:round; stroke-width:20; stroke-opacity:1; fill:none" points="994.781,1445.72 977.762,1443.05 961.12,1440.45 944.853,1437.91 928.955,1435.42 913.422,1432.99 898.25,1430.61 883.434,1428.3 868.968,1426.03 854.849,1423.82 841.07,1421.67 827.626,1419.56 814.512,1417.47 801.722,1415.25 789.251,1412.32 777.093,1406.37 765.242,1389.28 753.693,1334.66 742.44,1162.66 731.478,646.378 "/>
<polyline clip-path="url(#clip632)" style="stroke:#ed5d92; stroke-linecap:round; stroke-linejoin:round; stroke-width:20; stroke-opacity:1; fill:none" points="731.478,1445.72 703.827,1441.55 678.066,1437.68 654.091,1434.07 631.8,1430.71 611.094,1427.59 591.877,1424.7 574.057,1422.02 557.544,1419.53 542.255,1417.23 528.109,1415.1 515.028,1413.13 502.941,1411.29 491.778,1409.51 481.474,1407.47 471.97,1403.82 463.207,1393.41 455.131,1357.79 447.692,1235.5 440.844,834.089 "/>
<polyline clip-path="url(#clip632)" style="stroke:#c68125; stroke-linecap:round; stroke-linejoin:round; stroke-width:20; stroke-opacity:1; fill:none" points="440.844,1445.72 432.881,1445.45 425.726,1445.2 419.3,1444.99 413.532,1444.79 408.359,1444.62 403.721,1444.46 399.565,1444.32 395.844,1444.19 392.512,1444.08 389.532,1443.98 386.866,1443.89 384.483,1443.84 382.354,1443.9 380.452,1444.52 378.754,1443.75 377.238,1430.1 375.885,1376.32 374.679,1179.72 373.604,506.054 "/>
<polyline clip-path="url(#clip632)" style="stroke:#00a98d; stroke-linecap:round; stroke-linejoin:round; stroke-width:20; stroke-opacity:1; fill:none" points="373.604,1445.72 372.499,1445.19 371.532,1444.73 370.688,1444.33 369.95,1443.98 369.305,1443.68 368.742,1443.41 368.251,1443.18 367.822,1442.98 367.448,1442.8 367.122,1442.64 366.838,1442.51 366.59,1442.37 366.374,1442.17 366.186,1441.55 366.023,1438.92 365.88,1427.68 365.756,1382.53 365.648,1213.17 365.554,617.067 "/>
<polyline clip-path="url(#clip632)" style="stroke:#8e971d; stroke-linecap:round; stroke-linejoin:round; stroke-width:20; stroke-opacity:1; fill:none" points="365.554,1445.72 365.471,1445.64 365.4,1445.58 365.337,1445.53 365.283,1445.48 365.236,1445.44 365.195,1445.4 365.16,1445.37 365.13,1445.35 365.103,1445.32 365.08,1445.3 365.06,1445.28 365.043,1445.25 365.028,1445.14 365.015,1444.57 365.004,1441.88 364.994,1430.11 364.986,1382.5 364.979,1203.36 364.972,571.137 "/>
<polyline clip-path="url(#clip632)" style="stroke:#00a8cb; stroke-linecap:round; stroke-linejoin:round; stroke-width:20; stroke-opacity:1; fill:none" points="364.972,1445.72 364.967,1445.72 364.962,1445.71 364.958,1445.71 364.954,1445.71 364.951,1445.71 364.949,1445.71 364.946,1445.71 364.944,1445.71 364.943,1445.71 364.941,1445.71 364.94,1445.71 364.939,1445.69 364.938,1445.58 364.937,1444.95 364.936,1441.93 364.936,1428.61 364.935,1374.57 364.935,1170.56 364.934,448.35 "/>
<polyline clip-path="url(#clip632)" style="stroke:#9b7fe8; stroke-linecap:round; stroke-linejoin:round; stroke-width:20; stroke-opacity:1; fill:none" points="364.934,1445.71 364.934,1445.71 364.934,1445.72 364.934,1445.71 364.933,1445.71 364.933,1445.71 364.933,1445.71 364.933,1445.71 364.933,1445.71 364.933,1445.71 364.933,1445.71 364.933,1445.72 364.932,1445.69 364.932,1445.54 364.932,1444.7 364.932,1440.67 364.932,1422.81 364.932,1349.9 364.932,1073.14 364.932,87.9763 "/>
<polyline clip-path="url(#clip632)" style="stroke:#608cf6; stroke-linecap:round; stroke-linejoin:round; stroke-width:20; stroke-opacity:1; fill:none" points="364.932,1445.71 364.932,1445.72 364.932,1445.71 364.932,1445.72 364.932,1445.71 364.932,1445.72 364.932,1445.72 364.932,1445.71 364.932,1445.72 364.932,1445.71 364.932,1445.72 364.932,1445.72 364.932,1445.71 364.932,1445.65 364.932,1445.35 364.932,1443.9 364.932,1437.57 364.932,1412.11 364.932,1316.9 364.932,983.046 "/>
<polyline clip-path="url(#clip632)" style="stroke:#f05f73; stroke-linecap:round; stroke-linejoin:round; stroke-width:20; stroke-opacity:1; fill:none" points="364.932,1445.71 364.932,1445.71 364.932,1445.71 364.932,1445.71 364.932,1445.71 364.932,1445.72 364.932,1445.72 364.932,1445.72 364.932,1445.71 364.932,1445.72 364.932,1445.71 364.932,1445.71 364.932,1445.7 364.932,1445.62 364.932,1445.18 364.932,1443.05 364.932,1433.6 364.932,1395.05 364.932,1248.75 364.932,728.045 "/>
<polyline clip-path="url(#clip632)" style="stroke:#dd64b5; stroke-linecap:round; stroke-linejoin:round; stroke-width:20; stroke-opacity:1; fill:none" points="364.932,1445.71 364.932,1445.71 364.932,1445.71 364.932,1445.71 364.932,1445.71 364.932,1445.71 364.932,1445.71 364.932,1445.72 364.932,1445.72 364.932,1445.72 364.932,1445.72 364.932,1445.71 364.932,1445.7 364.932,1445.61 364.932,1445.16 364.932,1442.98 364.932,1433.38 364.932,1394.4 364.932,1247.29 364.932,726.554 "/>
</svg>
