<?xml version="1.0" encoding="utf-8"?>
<svg xmlns="http://www.w3.org/2000/svg" xmlns:xlink="http://www.w3.org/1999/xlink" width="600" height="400" viewBox="0 0 2400 1600">
<defs>
  <clipPath id="clip620">
    <rect x="0" y="0" width="2400" height="1600"/>
  </clipPath>
</defs>
<path clip-path="url(#clip620)" d="M0 1600 L2400 1600 L2400 0 L0 0  Z" fill="#ffffff" fill-rule="evenodd" fill-opacity="1"/>
<defs>
  <clipPath id="clip621">
    <rect x="249" y="123" width="2104" height="1301"/>
  </clipPath>
</defs>
<path clip-path="url(#clip620)" d="M249.542 1423.18 L2352.76 1423.18 L2352.76 123.472 L249.542 123.472  Z" fill="#ffffff" fill-rule="evenodd" fill-opacity="1"/>
<polyline clip-path="url(#clip621)" style="stroke:#000000; stroke-linecap:round; stroke-linejoin:round; stroke-width:2; stroke-opacity:0.1; fill:none" points="309.067,1423.18 309.067,123.472 "/>
<polyline clip-path="url(#clip621)" style="stroke:#000000; stroke-linecap:round; stroke-linejoin:round; stroke-width:2; stroke-opacity:0.1; fill:none" points="639.761,1423.18 639.761,123.472 "/>
<polyline clip-path="url(#clip621)" style="stroke:#000000; stroke-linecap:round; stroke-linejoin:round; stroke-width:2; stroke-opacity:0.1; fill:none" points="970.455,1423.18 970.455,123.472 "/>
<polyline clip-path="url(#clip621)" style="stroke:#000000; stroke-linecap:round; stroke-linejoin:round; stroke-width:2; stroke-opacity:0.1; fill:none" points="1301.15,1423.18 1301.15,123.472 "/>
<polyline clip-path="url(#clip621)" style="stroke:#000000; stroke-linecap:round; stroke-linejoin:round; stroke-width:2; stroke-opacity:0.1; fill:none" points="1631.84,1423.18 1631.84,123.472 "/>
<polyline clip-path="url(#clip621)" style="stroke:#000000; stroke-linecap:round; stroke-linejoin:round; stroke-width:2; stroke-opacity:0.1; fill:none" points="1962.54,1423.18 1962.54,123.472 "/>
<polyline clip-path="url(#clip621)" style="stroke:#000000; stroke-linecap:round; stroke-linejoin:round; stroke-width:2; stroke-opacity:0.1; fill:none" points="2293.23,1423.18 2293.23,123.472 "/>
<polyline clip-path="url(#clip621)" style="stroke:#000000; stroke-linecap:round; stroke-linejoin:round; stroke-width:2; stroke-opacity:0.1; fill:none" points="249.542,1386.4 2352.76,1386.4 "/>
<polyline clip-path="url(#clip621)" style="stroke:#000000; stroke-linecap:round; stroke-linejoin:round; stroke-width:2; stroke-opacity:0.1; fill:none" points="249.542,1079.86 2352.76,1079.86 "/>
<polyline clip-path="url(#clip621)" style="stroke:#000000; stroke-linecap:round; stroke-linejoin:round; stroke-width:2; stroke-opacity:0.1; fill:none" points="249.542,773.326 2352.76,773.326 "/>
<polyline clip-path="url(#clip621)" style="stroke:#000000; stroke-linecap:round; stroke-linejoin:round; stroke-width:2; stroke-opacity:0.1; fill:none" points="249.542,466.791 2352.76,466.791 "/>
<polyline clip-path="url(#clip621)" style="stroke:#000000; stroke-linecap:round; stroke-linejoin:round; stroke-width:2; stroke-opacity:0.1; fill:none" points="249.542,160.256 2352.76,160.256 "/>
<polyline clip-path="url(#clip620)" style="stroke:#000000; stroke-linecap:round; stroke-linejoin:round; stroke-width:4; stroke-opacity:1; fill:none" points="249.542,1423.18 2352.76,1423.18 "/>
<polyline clip-path="url(#clip620)" style="stroke:#000000; stroke-linecap:round; stroke-linejoin:round; stroke-width:4; stroke-opacity:1; fill:none" points="309.067,1423.18 309.067,1404.28 "/>
<polyline clip-path="url(#clip620)" style="stroke:#000000; stroke-linecap:round; stroke-linejoin:round; stroke-width:4; stroke-opacity:1; fill:none" points="639.761,1423.18 639.761,1404.28 "/>
<polyline clip-path="url(#clip620)" style="stroke:#000000; stroke-linecap:round; stroke-linejoin:round; stroke-width:4; stroke-opacity:1; fill:none" points="970.455,1423.18 970.455,1404.28 "/>
<polyline clip-path="url(#clip620)" style="stroke:#000000; stroke-linecap:round; stroke-linejoin:round; stroke-width:4; stroke-opacity:1; fill:none" points="1301.15,1423.18 1301.15,1404.28 "/>
<polyline clip-path="url(#clip620)" style="stroke:#000000; stroke-linecap:round; stroke-linejoin:round; stroke-width:4; stroke-opacity:1; fill:none" points="1631.84,1423.18 1631.84,1404.28 "/>
<polyline clip-path="url(#clip620)" style="stroke:#000000; stroke-linecap:round; stroke-linejoin:round; stroke-width:4; stroke-opacity:1; fill:none" points="1962.54,1423.18 1962.54,1404.28 "/>
<polyline clip-path="url(#clip620)" style="stroke:#000000; stroke-linecap:round; stroke-linejoin:round; stroke-width:4; stroke-opacity:1; fill:none" points="2293.23,1423.18 2293.23,1404.28 "/>
<path clip-path="url(#clip620)" d="M256.394 1468.75 L286.069 1468.75 L286.069 1472.69 L256.394 1472.69 L256.394 1468.75 Z" fill="#000000" fill-rule="nonzero" fill-opacity="1" /><path clip-path="url(#clip620)" d="M306.162 1454.1 Q302.551 1454.1 300.722 1457.66 Q298.917 1461.2 298.917 1468.33 Q298.917 1475.44 300.722 1479.01 Q302.551 1482.55 306.162 1482.55 Q309.796 1482.55 311.602 1479.01 Q313.43 1475.44 313.43 1468.33 Q313.43 1461.2 311.602 1457.66 Q309.796 1454.1 306.162 1454.1 M306.162 1450.39 Q311.972 1450.39 315.028 1455 Q318.106 1459.58 318.106 1468.33 Q318.106 1477.06 315.028 1481.67 Q311.972 1486.25 306.162 1486.25 Q300.352 1486.25 297.273 1481.67 Q294.217 1477.06 294.217 1468.33 Q294.217 1459.58 297.273 1455 Q300.352 1450.39 306.162 1450.39 Z" fill="#000000" fill-rule="nonzero" fill-opacity="1" /><path clip-path="url(#clip620)" d="M326.324 1479.7 L331.208 1479.7 L331.208 1485.58 L326.324 1485.58 L326.324 1479.7 Z" fill="#000000" fill-rule="nonzero" fill-opacity="1" /><path clip-path="url(#clip620)" d="M345.421 1481.64 L361.74 1481.64 L361.74 1485.58 L339.796 1485.58 L339.796 1481.64 Q342.458 1478.89 347.041 1474.26 Q351.648 1469.61 352.828 1468.27 Q355.074 1465.74 355.953 1464.01 Q356.856 1462.25 356.856 1460.56 Q356.856 1457.8 354.912 1456.07 Q352.99 1454.33 349.888 1454.33 Q347.689 1454.33 345.236 1455.09 Q342.805 1455.86 340.027 1457.41 L340.027 1452.69 Q342.851 1451.55 345.305 1450.97 Q347.759 1450.39 349.796 1450.39 Q355.166 1450.39 358.361 1453.08 Q361.555 1455.77 361.555 1460.26 Q361.555 1462.39 360.745 1464.31 Q359.958 1466.2 357.851 1468.8 Q357.273 1469.47 354.171 1472.69 Q351.069 1475.88 345.421 1481.64 Z" fill="#000000" fill-rule="nonzero" fill-opacity="1" /><path clip-path="url(#clip620)" d="M586.902 1468.75 L616.578 1468.75 L616.578 1472.69 L586.902 1472.69 L586.902 1468.75 Z" fill="#000000" fill-rule="nonzero" fill-opacity="1" /><path clip-path="url(#clip620)" d="M636.671 1454.1 Q633.06 1454.1 631.231 1457.66 Q629.425 1461.2 629.425 1468.33 Q629.425 1475.44 631.231 1479.01 Q633.06 1482.55 636.671 1482.55 Q640.305 1482.55 642.11 1479.01 Q643.939 1475.44 643.939 1468.33 Q643.939 1461.2 642.11 1457.66 Q640.305 1454.1 636.671 1454.1 M636.671 1450.39 Q642.481 1450.39 645.536 1455 Q648.615 1459.58 648.615 1468.33 Q648.615 1477.06 645.536 1481.67 Q642.481 1486.25 636.671 1486.25 Q630.861 1486.25 627.782 1481.67 Q624.726 1477.06 624.726 1468.33 Q624.726 1459.58 627.782 1455 Q630.861 1450.39 636.671 1450.39 Z" fill="#000000" fill-rule="nonzero" fill-opacity="1" /><path clip-path="url(#clip620)" d="M656.833 1479.7 L661.717 1479.7 L661.717 1485.58 L656.833 1485.58 L656.833 1479.7 Z" fill="#000000" fill-rule="nonzero" fill-opacity="1" /><path clip-path="url(#clip620)" d="M672.712 1481.64 L680.351 1481.64 L680.351 1455.28 L672.041 1456.95 L672.041 1452.69 L680.305 1451.02 L684.981 1451.02 L684.981 1481.64 L692.619 1481.64 L692.619 1485.58 L672.712 1485.58 L672.712 1481.64 Z" fill="#000000" fill-rule="nonzero" fill-opacity="1" /><path clip-path="url(#clip620)" d="M947.839 1454.1 Q944.228 1454.1 942.4 1457.66 Q940.594 1461.2 940.594 1468.33 Q940.594 1475.44 942.4 1479.01 Q944.228 1482.55 947.839 1482.55 Q951.474 1482.55 953.279 1479.01 Q955.108 1475.44 955.108 1468.33 Q955.108 1461.2 953.279 1457.66 Q951.474 1454.1 947.839 1454.1 M947.839 1450.39 Q953.649 1450.39 956.705 1455 Q959.784 1459.58 959.784 1468.33 Q959.784 1477.06 956.705 1481.67 Q953.649 1486.25 947.839 1486.25 Q942.029 1486.25 938.951 1481.67 Q935.895 1477.06 935.895 1468.33 Q935.895 1459.58 938.951 1455 Q942.029 1450.39 947.839 1450.39 Z" fill="#000000" fill-rule="nonzero" fill-opacity="1" /><path clip-path="url(#clip620)" d="M968.001 1479.7 L972.886 1479.7 L972.886 1485.58 L968.001 1485.58 L968.001 1479.7 Z" fill="#000000" fill-rule="nonzero" fill-opacity="1" /><path clip-path="url(#clip620)" d="M993.071 1454.1 Q989.459 1454.1 987.631 1457.66 Q985.825 1461.2 985.825 1468.33 Q985.825 1475.44 987.631 1479.01 Q989.459 1482.55 993.071 1482.55 Q996.705 1482.55 998.51 1479.01 Q1000.34 1475.44 1000.34 1468.33 Q1000.34 1461.2 998.51 1457.66 Q996.705 1454.1 993.071 1454.1 M993.071 1450.39 Q998.881 1450.39 1001.94 1455 Q1005.01 1459.58 1005.01 1468.33 Q1005.01 1477.06 1001.94 1481.67 Q998.881 1486.25 993.071 1486.25 Q987.26 1486.25 984.182 1481.67 Q981.126 1477.06 981.126 1468.33 Q981.126 1459.58 984.182 1455 Q987.26 1450.39 993.071 1450.39 Z" fill="#000000" fill-rule="nonzero" fill-opacity="1" /><path clip-path="url(#clip620)" d="M1279.15 1454.1 Q1275.54 1454.1 1273.71 1457.66 Q1271.9 1461.2 1271.9 1468.33 Q1271.9 1475.44 1273.71 1479.01 Q1275.54 1482.55 1279.15 1482.55 Q1282.78 1482.55 1284.59 1479.01 Q1286.42 1475.44 1286.42 1468.33 Q1286.42 1461.2 1284.59 1457.66 Q1282.78 1454.1 1279.15 1454.1 M1279.15 1450.39 Q1284.96 1450.39 1288.01 1455 Q1291.09 1459.58 1291.09 1468.33 Q1291.09 1477.06 1288.01 1481.67 Q1284.96 1486.25 1279.15 1486.25 Q1273.34 1486.25 1270.26 1481.67 Q1267.2 1477.06 1267.2 1468.33 Q1267.2 1459.58 1270.26 1455 Q1273.34 1450.39 1279.15 1450.39 Z" fill="#000000" fill-rule="nonzero" fill-opacity="1" /><path clip-path="url(#clip620)" d="M1299.31 1479.7 L1304.19 1479.7 L1304.19 1485.58 L1299.31 1485.58 L1299.31 1479.7 Z" fill="#000000" fill-rule="nonzero" fill-opacity="1" /><path clip-path="url(#clip620)" d="M1315.19 1481.64 L1322.83 1481.64 L1322.83 1455.28 L1314.52 1456.95 L1314.52 1452.69 L1322.78 1451.02 L1327.46 1451.02 L1327.46 1481.64 L1335.1 1481.64 L1335.1 1485.58 L1315.19 1485.58 L1315.19 1481.64 Z" fill="#000000" fill-rule="nonzero" fill-opacity="1" /><path clip-path="url(#clip620)" d="M1610.03 1454.1 Q1606.41 1454.1 1604.59 1457.66 Q1602.78 1461.2 1602.78 1468.33 Q1602.78 1475.44 1604.59 1479.01 Q1606.41 1482.55 1610.03 1482.55 Q1613.66 1482.55 1615.47 1479.01 Q1617.29 1475.44 1617.29 1468.33 Q1617.29 1461.2 1615.47 1457.66 Q1613.66 1454.1 1610.03 1454.1 M1610.03 1450.39 Q1615.84 1450.39 1618.89 1455 Q1621.97 1459.58 1621.97 1468.33 Q1621.97 1477.06 1618.89 1481.67 Q1615.84 1486.25 1610.03 1486.25 Q1604.22 1486.25 1601.14 1481.67 Q1598.08 1477.06 1598.08 1468.33 Q1598.08 1459.58 1601.14 1455 Q1604.22 1450.39 1610.03 1450.39 Z" fill="#000000" fill-rule="nonzero" fill-opacity="1" /><path clip-path="url(#clip620)" d="M1630.19 1479.7 L1635.07 1479.7 L1635.07 1485.58 L1630.19 1485.58 L1630.19 1479.7 Z" fill="#000000" fill-rule="nonzero" fill-opacity="1" /><path clip-path="url(#clip620)" d="M1649.29 1481.64 L1665.6 1481.64 L1665.6 1485.58 L1643.66 1485.58 L1643.66 1481.64 Q1646.32 1478.89 1650.91 1474.26 Q1655.51 1469.61 1656.69 1468.27 Q1658.94 1465.74 1659.82 1464.01 Q1660.72 1462.25 1660.72 1460.56 Q1660.72 1457.8 1658.78 1456.07 Q1656.85 1454.33 1653.75 1454.33 Q1651.55 1454.33 1649.1 1455.09 Q1646.67 1455.86 1643.89 1457.41 L1643.89 1452.69 Q1646.72 1451.55 1649.17 1450.97 Q1651.62 1450.39 1653.66 1450.39 Q1659.03 1450.39 1662.22 1453.08 Q1665.42 1455.77 1665.42 1460.26 Q1665.42 1462.39 1664.61 1464.31 Q1663.82 1466.2 1661.72 1468.8 Q1661.14 1469.47 1658.03 1472.69 Q1654.93 1475.88 1649.29 1481.64 Z" fill="#000000" fill-rule="nonzero" fill-opacity="1" /><path clip-path="url(#clip620)" d="M1940.25 1454.1 Q1936.63 1454.1 1934.81 1457.66 Q1933 1461.2 1933 1468.33 Q1933 1475.44 1934.81 1479.01 Q1936.63 1482.55 1940.25 1482.55 Q1943.88 1482.55 1945.69 1479.01 Q1947.51 1475.44 1947.51 1468.33 Q1947.51 1461.2 1945.69 1457.66 Q1943.88 1454.1 1940.25 1454.1 M1940.25 1450.39 Q1946.06 1450.39 1949.11 1455 Q1952.19 1459.58 1952.19 1468.33 Q1952.19 1477.06 1949.11 1481.67 Q1946.06 1486.25 1940.25 1486.25 Q1934.44 1486.25 1931.36 1481.67 Q1928.3 1477.06 1928.3 1468.33 Q1928.3 1459.58 1931.36 1455 Q1934.44 1450.39 1940.25 1450.39 Z" fill="#000000" fill-rule="nonzero" fill-opacity="1" /><path clip-path="url(#clip620)" d="M1960.41 1479.7 L1965.29 1479.7 L1965.29 1485.58 L1960.41 1485.58 L1960.41 1479.7 Z" fill="#000000" fill-rule="nonzero" fill-opacity="1" /><path clip-path="url(#clip620)" d="M1989.64 1466.95 Q1993 1467.66 1994.87 1469.93 Q1996.77 1472.2 1996.77 1475.53 Q1996.77 1480.65 1993.25 1483.45 Q1989.74 1486.25 1983.25 1486.25 Q1981.08 1486.25 1978.76 1485.81 Q1976.47 1485.39 1974.02 1484.54 L1974.02 1480.02 Q1975.96 1481.16 1978.28 1481.74 Q1980.59 1482.32 1983.12 1482.32 Q1987.51 1482.32 1989.81 1480.58 Q1992.12 1478.84 1992.12 1475.53 Q1992.12 1472.48 1989.97 1470.77 Q1987.84 1469.03 1984.02 1469.03 L1979.99 1469.03 L1979.99 1465.19 L1984.2 1465.19 Q1987.65 1465.19 1989.48 1463.82 Q1991.31 1462.43 1991.31 1459.84 Q1991.31 1457.18 1989.41 1455.77 Q1987.54 1454.33 1984.02 1454.33 Q1982.1 1454.33 1979.9 1454.75 Q1977.7 1455.16 1975.06 1456.04 L1975.06 1451.88 Q1977.72 1451.14 1980.04 1450.77 Q1982.37 1450.39 1984.44 1450.39 Q1989.76 1450.39 1992.86 1452.83 Q1995.96 1455.23 1995.96 1459.35 Q1995.96 1462.22 1994.32 1464.21 Q1992.68 1466.18 1989.64 1466.95 Z" fill="#000000" fill-rule="nonzero" fill-opacity="1" /><path clip-path="url(#clip620)" d="M2270.37 1454.1 Q2266.76 1454.1 2264.93 1457.66 Q2263.13 1461.2 2263.13 1468.33 Q2263.13 1475.44 2264.93 1479.01 Q2266.76 1482.55 2270.37 1482.55 Q2274.01 1482.55 2275.81 1479.01 Q2277.64 1475.44 2277.64 1468.33 Q2277.64 1461.2 2275.81 1457.66 Q2274.01 1454.1 2270.37 1454.1 M2270.37 1450.39 Q2276.18 1450.39 2279.24 1455 Q2282.32 1459.58 2282.32 1468.33 Q2282.32 1477.06 2279.24 1481.67 Q2276.18 1486.25 2270.37 1486.25 Q2264.56 1486.25 2261.48 1481.67 Q2258.43 1477.06 2258.43 1468.33 Q2258.43 1459.58 2261.48 1455 Q2264.56 1450.39 2270.37 1450.39 Z" fill="#000000" fill-rule="nonzero" fill-opacity="1" /><path clip-path="url(#clip620)" d="M2290.53 1479.7 L2295.42 1479.7 L2295.42 1485.58 L2290.53 1485.58 L2290.53 1479.7 Z" fill="#000000" fill-rule="nonzero" fill-opacity="1" /><path clip-path="url(#clip620)" d="M2318.45 1455.09 L2306.65 1473.54 L2318.45 1473.54 L2318.45 1455.09 M2317.22 1451.02 L2323.1 1451.02 L2323.1 1473.54 L2328.03 1473.54 L2328.03 1477.43 L2323.1 1477.43 L2323.1 1485.58 L2318.45 1485.58 L2318.45 1477.43 L2302.85 1477.43 L2302.85 1472.92 L2317.22 1451.02 Z" fill="#000000" fill-rule="nonzero" fill-opacity="1" /><path clip-path="url(#clip620)" d="M1283.98 1581.6 L1283.98 1532.4 L1289.83 1532.4 L1289.83 1554.55 Q1289.83 1559.16 1292.03 1561.52 Q1294.23 1563.87 1298.52 1563.87 Q1303.23 1563.87 1305.59 1561.2 Q1307.98 1558.53 1307.98 1553.18 L1307.98 1532.4 L1313.83 1532.4 L1313.83 1559.83 Q1313.83 1561.74 1314.37 1562.66 Q1314.95 1563.56 1316.12 1563.56 Q1316.41 1563.56 1316.92 1563.4 Q1317.43 1563.21 1318.32 1562.82 L1318.32 1567.53 Q1317.02 1568.27 1315.84 1568.62 Q1314.69 1568.97 1313.58 1568.97 Q1311.38 1568.97 1310.08 1567.73 Q1308.77 1566.48 1308.29 1563.94 Q1306.7 1566.45 1304.38 1567.73 Q1302.09 1568.97 1298.97 1568.97 Q1295.72 1568.97 1293.43 1567.73 Q1291.17 1566.48 1289.83 1564 L1289.83 1581.6 L1283.98 1581.6 Z" fill="#000000" fill-rule="nonzero" fill-opacity="1" /><polyline clip-path="url(#clip620)" style="stroke:#000000; stroke-linecap:round; stroke-linejoin:round; stroke-width:4; stroke-opacity:1; fill:none" points="249.542,1423.18 249.542,123.472 "/>
<polyline clip-path="url(#clip620)" style="stroke:#000000; stroke-linecap:round; stroke-linejoin:round; stroke-width:4; stroke-opacity:1; fill:none" points="249.542,1386.4 268.44,1386.4 "/>
<polyline clip-path="url(#clip620)" style="stroke:#000000; stroke-linecap:round; stroke-linejoin:round; stroke-width:4; stroke-opacity:1; fill:none" points="249.542,1079.86 268.44,1079.86 "/>
<polyline clip-path="url(#clip620)" style="stroke:#000000; stroke-linecap:round; stroke-linejoin:round; stroke-width:4; stroke-opacity:1; fill:none" points="249.542,773.326 268.44,773.326 "/>
<polyline clip-path="url(#clip620)" style="stroke:#000000; stroke-linecap:round; stroke-linejoin:round; stroke-width:4; stroke-opacity:1; fill:none" points="249.542,466.791 268.44,466.791 "/>
<polyline clip-path="url(#clip620)" style="stroke:#000000; stroke-linecap:round; stroke-linejoin:round; stroke-width:4; stroke-opacity:1; fill:none" points="249.542,160.256 268.44,160.256 "/>
<path clip-path="url(#clip620)" d="M126.205 1372.19 Q122.593 1372.19 120.765 1375.76 Q118.959 1379.3 118.959 1386.43 Q118.959 1393.54 120.765 1397.1 Q122.593 1400.64 126.205 1400.64 Q129.839 1400.64 131.644 1397.1 Q133.473 1393.54 133.473 1386.43 Q133.473 1379.3 131.644 1375.76 Q129.839 1372.19 126.205 1372.19 M126.205 1368.49 Q132.015 1368.49 135.07 1373.1 Q138.149 1377.68 138.149 1386.43 Q138.149 1395.16 135.07 1399.76 Q132.015 1404.35 126.205 1404.35 Q120.394 1404.35 117.316 1399.76 Q114.26 1395.16 114.26 1386.43 Q114.26 1377.68 117.316 1373.1 Q120.394 1368.49 126.205 1368.49 Z" fill="#000000" fill-rule="nonzero" fill-opacity="1" /><path clip-path="url(#clip620)" d="M146.366 1397.8 L151.251 1397.8 L151.251 1403.68 L146.366 1403.68 L146.366 1397.8 Z" fill="#000000" fill-rule="nonzero" fill-opacity="1" /><path clip-path="url(#clip620)" d="M171.436 1372.19 Q167.825 1372.19 165.996 1375.76 Q164.19 1379.3 164.19 1386.43 Q164.19 1393.54 165.996 1397.1 Q167.825 1400.64 171.436 1400.64 Q175.07 1400.64 176.876 1397.1 Q178.704 1393.54 178.704 1386.43 Q178.704 1379.3 176.876 1375.76 Q175.07 1372.19 171.436 1372.19 M171.436 1368.49 Q177.246 1368.49 180.301 1373.1 Q183.38 1377.68 183.38 1386.43 Q183.38 1395.16 180.301 1399.76 Q177.246 1404.35 171.436 1404.35 Q165.626 1404.35 162.547 1399.76 Q159.491 1395.16 159.491 1386.43 Q159.491 1377.68 162.547 1373.1 Q165.626 1368.49 171.436 1368.49 Z" fill="#000000" fill-rule="nonzero" fill-opacity="1" /><path clip-path="url(#clip620)" d="M201.598 1372.19 Q197.987 1372.19 196.158 1375.76 Q194.352 1379.3 194.352 1386.43 Q194.352 1393.54 196.158 1397.1 Q197.987 1400.64 201.598 1400.64 Q205.232 1400.64 207.037 1397.1 Q208.866 1393.54 208.866 1386.43 Q208.866 1379.3 207.037 1375.76 Q205.232 1372.19 201.598 1372.19 M201.598 1368.49 Q207.408 1368.49 210.463 1373.1 Q213.542 1377.68 213.542 1386.43 Q213.542 1395.16 210.463 1399.76 Q207.408 1404.35 201.598 1404.35 Q195.787 1404.35 192.709 1399.76 Q189.653 1395.16 189.653 1386.43 Q189.653 1377.68 192.709 1373.1 Q195.787 1368.49 201.598 1368.49 Z" fill="#000000" fill-rule="nonzero" fill-opacity="1" /><path clip-path="url(#clip620)" d="M127.2 1065.66 Q123.589 1065.66 121.76 1069.22 Q119.955 1072.77 119.955 1079.9 Q119.955 1087 121.76 1090.57 Q123.589 1094.11 127.2 1094.11 Q130.834 1094.11 132.64 1090.57 Q134.468 1087 134.468 1079.9 Q134.468 1072.77 132.64 1069.22 Q130.834 1065.66 127.2 1065.66 M127.2 1061.96 Q133.01 1061.96 136.066 1066.56 Q139.144 1071.15 139.144 1079.9 Q139.144 1088.62 136.066 1093.23 Q133.01 1097.81 127.2 1097.81 Q121.39 1097.81 118.311 1093.23 Q115.256 1088.62 115.256 1079.9 Q115.256 1071.15 118.311 1066.56 Q121.39 1061.96 127.2 1061.96 Z" fill="#000000" fill-rule="nonzero" fill-opacity="1" /><path clip-path="url(#clip620)" d="M147.362 1091.26 L152.246 1091.26 L152.246 1097.14 L147.362 1097.14 L147.362 1091.26 Z" fill="#000000" fill-rule="nonzero" fill-opacity="1" /><path clip-path="url(#clip620)" d="M166.459 1093.21 L182.778 1093.21 L182.778 1097.14 L160.834 1097.14 L160.834 1093.21 Q163.496 1090.45 168.079 1085.82 Q172.686 1081.17 173.866 1079.83 Q176.112 1077.3 176.991 1075.57 Q177.894 1073.81 177.894 1072.12 Q177.894 1069.36 175.95 1067.63 Q174.028 1065.89 170.927 1065.89 Q168.727 1065.89 166.274 1066.65 Q163.843 1067.42 161.065 1068.97 L161.065 1064.25 Q163.89 1063.11 166.343 1062.53 Q168.797 1061.96 170.834 1061.96 Q176.204 1061.96 179.399 1064.64 Q182.593 1067.33 182.593 1071.82 Q182.593 1073.95 181.783 1075.87 Q180.996 1077.77 178.889 1080.36 Q178.311 1081.03 175.209 1084.25 Q172.107 1087.44 166.459 1093.21 Z" fill="#000000" fill-rule="nonzero" fill-opacity="1" /><path clip-path="url(#clip620)" d="M192.639 1062.58 L210.996 1062.58 L210.996 1066.52 L196.922 1066.52 L196.922 1074.99 Q197.94 1074.64 198.959 1074.48 Q199.977 1074.29 200.996 1074.29 Q206.783 1074.29 210.162 1077.47 Q213.542 1080.64 213.542 1086.05 Q213.542 1091.63 210.07 1094.73 Q206.598 1097.81 200.278 1097.81 Q198.102 1097.81 195.834 1097.44 Q193.588 1097.07 191.181 1096.33 L191.181 1091.63 Q193.264 1092.77 195.487 1093.32 Q197.709 1093.88 200.186 1093.88 Q204.19 1093.88 206.528 1091.77 Q208.866 1089.66 208.866 1086.05 Q208.866 1082.44 206.528 1080.34 Q204.19 1078.23 200.186 1078.23 Q198.311 1078.23 196.436 1078.65 Q194.584 1079.06 192.639 1079.94 L192.639 1062.58 Z" fill="#000000" fill-rule="nonzero" fill-opacity="1" /><path clip-path="url(#clip620)" d="M126.205 759.125 Q122.593 759.125 120.765 762.689 Q118.959 766.231 118.959 773.361 Q118.959 780.467 120.765 784.032 Q122.593 787.574 126.205 787.574 Q129.839 787.574 131.644 784.032 Q133.473 780.467 133.473 773.361 Q133.473 766.231 131.644 762.689 Q129.839 759.125 126.205 759.125 M126.205 755.421 Q132.015 755.421 135.07 760.027 Q138.149 764.611 138.149 773.361 Q138.149 782.088 135.07 786.694 Q132.015 791.277 126.205 791.277 Q120.394 791.277 117.316 786.694 Q114.26 782.088 114.26 773.361 Q114.26 764.611 117.316 760.027 Q120.394 755.421 126.205 755.421 Z" fill="#000000" fill-rule="nonzero" fill-opacity="1" /><path clip-path="url(#clip620)" d="M146.366 784.726 L151.251 784.726 L151.251 790.606 L146.366 790.606 L146.366 784.726 Z" fill="#000000" fill-rule="nonzero" fill-opacity="1" /><path clip-path="url(#clip620)" d="M161.482 756.046 L179.839 756.046 L179.839 759.981 L165.765 759.981 L165.765 768.453 Q166.783 768.106 167.802 767.944 Q168.82 767.759 169.839 767.759 Q175.626 767.759 179.005 770.93 Q182.385 774.101 182.385 779.518 Q182.385 785.097 178.913 788.199 Q175.44 791.277 169.121 791.277 Q166.945 791.277 164.677 790.907 Q162.431 790.537 160.024 789.796 L160.024 785.097 Q162.107 786.231 164.329 786.787 Q166.552 787.342 169.028 787.342 Q173.033 787.342 175.371 785.236 Q177.709 783.129 177.709 779.518 Q177.709 775.907 175.371 773.801 Q173.033 771.694 169.028 771.694 Q167.153 771.694 165.278 772.111 Q163.427 772.527 161.482 773.407 L161.482 756.046 Z" fill="#000000" fill-rule="nonzero" fill-opacity="1" /><path clip-path="url(#clip620)" d="M201.598 759.125 Q197.987 759.125 196.158 762.689 Q194.352 766.231 194.352 773.361 Q194.352 780.467 196.158 784.032 Q197.987 787.574 201.598 787.574 Q205.232 787.574 207.037 784.032 Q208.866 780.467 208.866 773.361 Q208.866 766.231 207.037 762.689 Q205.232 759.125 201.598 759.125 M201.598 755.421 Q207.408 755.421 210.463 760.027 Q213.542 764.611 213.542 773.361 Q213.542 782.088 210.463 786.694 Q207.408 791.277 201.598 791.277 Q195.787 791.277 192.709 786.694 Q189.653 782.088 189.653 773.361 Q189.653 764.611 192.709 760.027 Q195.787 755.421 201.598 755.421 Z" fill="#000000" fill-rule="nonzero" fill-opacity="1" /><path clip-path="url(#clip620)" d="M127.2 452.59 Q123.589 452.59 121.76 456.155 Q119.955 459.696 119.955 466.826 Q119.955 473.932 121.76 477.497 Q123.589 481.039 127.2 481.039 Q130.834 481.039 132.64 477.497 Q134.468 473.932 134.468 466.826 Q134.468 459.696 132.64 456.155 Q130.834 452.59 127.2 452.59 M127.2 448.886 Q133.01 448.886 136.066 453.493 Q139.144 458.076 139.144 466.826 Q139.144 475.553 136.066 480.159 Q133.01 484.742 127.2 484.742 Q121.39 484.742 118.311 480.159 Q115.256 475.553 115.256 466.826 Q115.256 458.076 118.311 453.493 Q121.39 448.886 127.2 448.886 Z" fill="#000000" fill-rule="nonzero" fill-opacity="1" /><path clip-path="url(#clip620)" d="M147.362 478.192 L152.246 478.192 L152.246 484.071 L147.362 484.071 L147.362 478.192 Z" fill="#000000" fill-rule="nonzero" fill-opacity="1" /><path clip-path="url(#clip620)" d="M161.251 449.511 L183.473 449.511 L183.473 451.502 L170.927 484.071 L166.042 484.071 L177.848 453.446 L161.251 453.446 L161.251 449.511 Z" fill="#000000" fill-rule="nonzero" fill-opacity="1" /><path clip-path="url(#clip620)" d="M192.639 449.511 L210.996 449.511 L210.996 453.446 L196.922 453.446 L196.922 461.918 Q197.94 461.571 198.959 461.409 Q199.977 461.224 200.996 461.224 Q206.783 461.224 210.162 464.395 Q213.542 467.567 213.542 472.983 Q213.542 478.562 210.07 481.664 Q206.598 484.742 200.278 484.742 Q198.102 484.742 195.834 484.372 Q193.588 484.002 191.181 483.261 L191.181 478.562 Q193.264 479.696 195.487 480.252 Q197.709 480.807 200.186 480.807 Q204.19 480.807 206.528 478.701 Q208.866 476.594 208.866 472.983 Q208.866 469.372 206.528 467.266 Q204.19 465.159 200.186 465.159 Q198.311 465.159 196.436 465.576 Q194.584 465.993 192.639 466.872 L192.639 449.511 Z" fill="#000000" fill-rule="nonzero" fill-opacity="1" /><path clip-path="url(#clip620)" d="M117.015 173.601 L124.654 173.601 L124.654 147.236 L116.343 148.902 L116.343 144.643 L124.607 142.976 L129.283 142.976 L129.283 173.601 L136.922 173.601 L136.922 177.536 L117.015 177.536 L117.015 173.601 Z" fill="#000000" fill-rule="nonzero" fill-opacity="1" /><path clip-path="url(#clip620)" d="M146.366 171.657 L151.251 171.657 L151.251 177.536 L146.366 177.536 L146.366 171.657 Z" fill="#000000" fill-rule="nonzero" fill-opacity="1" /><path clip-path="url(#clip620)" d="M171.436 146.055 Q167.825 146.055 165.996 149.62 Q164.19 153.161 164.19 160.291 Q164.19 167.397 165.996 170.962 Q167.825 174.504 171.436 174.504 Q175.07 174.504 176.876 170.962 Q178.704 167.397 178.704 160.291 Q178.704 153.161 176.876 149.62 Q175.07 146.055 171.436 146.055 M171.436 142.351 Q177.246 142.351 180.301 146.958 Q183.38 151.541 183.38 160.291 Q183.38 169.018 180.301 173.624 Q177.246 178.208 171.436 178.208 Q165.626 178.208 162.547 173.624 Q159.491 169.018 159.491 160.291 Q159.491 151.541 162.547 146.958 Q165.626 142.351 171.436 142.351 Z" fill="#000000" fill-rule="nonzero" fill-opacity="1" /><path clip-path="url(#clip620)" d="M201.598 146.055 Q197.987 146.055 196.158 149.62 Q194.352 153.161 194.352 160.291 Q194.352 167.397 196.158 170.962 Q197.987 174.504 201.598 174.504 Q205.232 174.504 207.037 170.962 Q208.866 167.397 208.866 160.291 Q208.866 153.161 207.037 149.62 Q205.232 146.055 201.598 146.055 M201.598 142.351 Q207.408 142.351 210.463 146.958 Q213.542 151.541 213.542 160.291 Q213.542 169.018 210.463 173.624 Q207.408 178.208 201.598 178.208 Q195.787 178.208 192.709 173.624 Q189.653 169.018 189.653 160.291 Q189.653 151.541 192.709 146.958 Q195.787 142.351 201.598 142.351 Z" fill="#000000" fill-rule="nonzero" fill-opacity="1" /><path clip-path="url(#clip620)" d="M28.3562 756.711 L45.7028 769.602 L64.0042 756.043 L64.0042 762.95 L49.9996 773.326 L64.0042 783.702 L64.0042 790.609 L45.3526 776.763 L28.3562 789.431 L28.3562 782.524 L41.0558 773.071 L28.3562 763.618 L28.3562 756.711 Z" fill="#000000" fill-rule="nonzero" fill-opacity="1" /><path clip-path="url(#clip620)" d="M1077.72 36.0774 L1065.93 36.0774 L1062.53 49.6074 L1074.4 49.6074 L1077.72 36.0774 M1071.64 13.0277 L1067.43 29.839 L1079.26 29.839 L1083.51 13.0277 L1090 13.0277 L1085.82 29.839 L1098.46 29.839 L1098.46 36.0774 L1084.24 36.0774 L1080.92 49.6074 L1093.8 49.6074 L1093.8 55.8053 L1079.34 55.8053 L1075.13 72.576 L1068.65 72.576 L1072.82 55.8053 L1060.95 55.8053 L1056.78 72.576 L1050.26 72.576 L1054.47 55.8053 L1041.71 55.8053 L1041.71 49.6074 L1055.97 49.6074 L1059.37 36.0774 L1046.33 36.0774 L1046.33 29.839 L1060.95 29.839 L1065.08 13.0277 L1071.64 13.0277 Z" fill="#000000" fill-rule="nonzero" fill-opacity="1" /><path clip-path="url(#clip620)" d="M1145.21 49.9314 Q1145.21 41.7081 1141.81 37.0496 Q1138.44 32.3505 1132.53 32.3505 Q1126.62 32.3505 1123.21 37.0496 Q1119.85 41.7081 1119.85 49.9314 Q1119.85 58.1548 1123.21 62.8538 Q1126.62 67.5124 1132.53 67.5124 Q1138.44 67.5124 1141.81 62.8538 Q1145.21 58.1548 1145.21 49.9314 M1119.85 34.0924 Q1122.2 30.0415 1125.77 28.0971 Q1129.37 26.1121 1134.35 26.1121 Q1142.62 26.1121 1147.76 32.6746 Q1152.95 39.2371 1152.95 49.9314 Q1152.95 60.6258 1147.76 67.1883 Q1142.62 73.7508 1134.35 73.7508 Q1129.37 73.7508 1125.77 71.8063 Q1122.2 69.8214 1119.85 65.7705 L1119.85 72.576 L1112.36 72.576 L1112.36 9.54393 L1119.85 9.54393 L1119.85 34.0924 Z" fill="#000000" fill-rule="nonzero" fill-opacity="1" /><path clip-path="url(#clip620)" d="M1191.59 34.1734 Q1190.34 33.4443 1188.84 33.1202 Q1187.38 32.7556 1185.6 32.7556 Q1179.28 32.7556 1175.87 36.8875 Q1172.51 40.9789 1172.51 48.6757 L1172.51 72.576 L1165.02 72.576 L1165.02 27.2059 L1172.51 27.2059 L1172.51 34.2544 Q1174.86 30.1225 1178.63 28.1376 Q1182.4 26.1121 1187.78 26.1121 Q1188.55 26.1121 1189.49 26.2337 Q1190.42 26.3147 1191.55 26.5172 L1191.59 34.1734 Z" fill="#000000" fill-rule="nonzero" fill-opacity="1" /><path clip-path="url(#clip620)" d="M1220.03 49.7694 Q1211 49.7694 1207.51 51.8354 Q1204.03 53.9013 1204.03 58.8839 Q1204.03 62.8538 1206.62 65.2034 Q1209.25 67.5124 1213.75 67.5124 Q1219.95 67.5124 1223.68 63.1374 Q1227.44 58.7219 1227.44 51.4303 L1227.44 49.7694 L1220.03 49.7694 M1234.9 46.6907 L1234.9 72.576 L1227.44 72.576 L1227.44 65.6895 Q1224.89 69.8214 1221.08 71.8063 Q1217.27 73.7508 1211.77 73.7508 Q1204.8 73.7508 1200.67 69.8619 Q1196.57 65.9325 1196.57 59.3701 Q1196.57 51.7138 1201.68 47.825 Q1206.82 43.9361 1216.99 43.9361 L1227.44 43.9361 L1227.44 43.2069 Q1227.44 38.0623 1224.04 35.2672 Q1220.68 32.4315 1214.56 32.4315 Q1210.67 32.4315 1206.99 33.3632 Q1203.3 34.295 1199.9 36.1584 L1199.9 29.2718 Q1203.99 27.692 1207.84 26.9223 Q1211.68 26.1121 1215.33 26.1121 Q1225.17 26.1121 1230.04 31.2163 Q1234.9 36.3204 1234.9 46.6907 Z" fill="#000000" fill-rule="nonzero" fill-opacity="1" /><path clip-path="url(#clip620)" d="M1287.96 45.1919 L1287.96 72.576 L1280.51 72.576 L1280.51 45.4349 Q1280.51 38.994 1278 35.7938 Q1275.49 32.5936 1270.46 32.5936 Q1264.43 32.5936 1260.94 36.4419 Q1257.46 40.2903 1257.46 46.9338 L1257.46 72.576 L1249.97 72.576 L1249.97 27.2059 L1257.46 27.2059 L1257.46 34.2544 Q1260.13 30.163 1263.74 28.1376 Q1267.38 26.1121 1272.12 26.1121 Q1279.94 26.1121 1283.95 30.9732 Q1287.96 35.7938 1287.96 45.1919 Z" fill="#000000" fill-rule="nonzero" fill-opacity="1" /><path clip-path="url(#clip620)" d="M1335.48 28.9478 L1335.48 35.9153 Q1332.32 34.1734 1329.12 33.3227 Q1325.96 32.4315 1322.72 32.4315 Q1315.47 32.4315 1311.46 37.0496 Q1307.45 41.6271 1307.45 49.9314 Q1307.45 58.2358 1311.46 62.8538 Q1315.47 67.4314 1322.72 67.4314 Q1325.96 67.4314 1329.12 66.5807 Q1332.32 65.6895 1335.48 63.9476 L1335.48 70.8341 Q1332.36 72.2924 1329 73.0216 Q1325.68 73.7508 1321.91 73.7508 Q1311.66 73.7508 1305.63 67.3098 Q1299.59 60.8689 1299.59 49.9314 Q1299.59 38.832 1305.67 32.472 Q1311.78 26.1121 1322.4 26.1121 Q1325.84 26.1121 1329.12 26.8413 Q1332.4 27.5299 1335.48 28.9478 Z" fill="#000000" fill-rule="nonzero" fill-opacity="1" /><path clip-path="url(#clip620)" d="M1386.16 45.1919 L1386.16 72.576 L1378.7 72.576 L1378.7 45.4349 Q1378.7 38.994 1376.19 35.7938 Q1373.68 32.5936 1368.66 32.5936 Q1362.62 32.5936 1359.14 36.4419 Q1355.65 40.2903 1355.65 46.9338 L1355.65 72.576 L1348.16 72.576 L1348.16 9.54393 L1355.65 9.54393 L1355.65 34.2544 Q1358.33 30.163 1361.93 28.1376 Q1365.58 26.1121 1370.32 26.1121 Q1378.14 26.1121 1382.15 30.9732 Q1386.16 35.7938 1386.16 45.1919 Z" fill="#000000" fill-rule="nonzero" fill-opacity="1" /><path clip-path="url(#clip620)" d="M1428.37 34.9026 L1480.3 34.9026 L1480.3 41.7081 L1428.37 41.7081 L1428.37 34.9026 M1428.37 51.4303 L1480.3 51.4303 L1480.3 58.3168 L1428.37 58.3168 L1428.37 51.4303 Z" fill="#000000" fill-rule="nonzero" fill-opacity="1" /><path clip-path="url(#clip620)" d="M1525.75 65.6895 L1539.12 65.6895 L1539.12 19.5497 L1524.58 22.4663 L1524.58 15.0127 L1539.04 12.096 L1547.22 12.096 L1547.22 65.6895 L1560.59 65.6895 L1560.59 72.576 L1525.75 72.576 L1525.75 65.6895 Z" fill="#000000" fill-rule="nonzero" fill-opacity="1" /><polyline clip-path="url(#clip621)" style="stroke:#009af9; stroke-linecap:round; stroke-linejoin:round; stroke-width:8; stroke-opacity:1; fill:none" points="309.067,1386.4 313.744,1386.4 "/>
<polyline clip-path="url(#clip621)" style="stroke:#009af9; stroke-linecap:round; stroke-linejoin:round; stroke-width:8; stroke-opacity:1; fill:none" points="313.744,1386.4 320.759,1386.4 "/>
<polyline clip-path="url(#clip621)" style="stroke:#009af9; stroke-linecap:round; stroke-linejoin:round; stroke-width:8; stroke-opacity:1; fill:none" points="320.759,1386.4 331.281,1386.4 "/>
<polyline clip-path="url(#clip621)" style="stroke:#009af9; stroke-linecap:round; stroke-linejoin:round; stroke-width:8; stroke-opacity:1; fill:none" points="331.281,1386.4 347.065,1386.4 "/>
<polyline clip-path="url(#clip621)" style="stroke:#009af9; stroke-linecap:round; stroke-linejoin:round; stroke-width:8; stroke-opacity:1; fill:none" points="347.065,1386.4 370.449,1386.4 "/>
<polyline clip-path="url(#clip621)" style="stroke:#009af9; stroke-linecap:round; stroke-linejoin:round; stroke-width:8; stroke-opacity:1; fill:none" points="370.449,1386.4 393.832,1386.4 "/>
<polyline clip-path="url(#clip621)" style="stroke:#009af9; stroke-linecap:round; stroke-linejoin:round; stroke-width:8; stroke-opacity:1; fill:none" points="393.832,1386.4 417.216,1386.4 "/>
<polyline clip-path="url(#clip621)" style="stroke:#009af9; stroke-linecap:round; stroke-linejoin:round; stroke-width:8; stroke-opacity:1; fill:none" points="417.216,1386.4 440.6,1386.4 "/>
<polyline clip-path="url(#clip621)" style="stroke:#009af9; stroke-linecap:round; stroke-linejoin:round; stroke-width:8; stroke-opacity:1; fill:none" points="440.6,1386.4 463.983,1386.4 "/>
<polyline clip-path="url(#clip621)" style="stroke:#009af9; stroke-linecap:round; stroke-linejoin:round; stroke-width:8; stroke-opacity:1; fill:none" points="463.983,1386.4 487.367,1386.4 "/>
<polyline clip-path="url(#clip621)" style="stroke:#009af9; stroke-linecap:round; stroke-linejoin:round; stroke-width:8; stroke-opacity:1; fill:none" points="487.367,1386.4 510.75,1386.4 "/>
<polyline clip-path="url(#clip621)" style="stroke:#009af9; stroke-linecap:round; stroke-linejoin:round; stroke-width:8; stroke-opacity:1; fill:none" points="510.75,1386.4 534.134,1386.4 "/>
<polyline clip-path="url(#clip621)" style="stroke:#009af9; stroke-linecap:round; stroke-linejoin:round; stroke-width:8; stroke-opacity:1; fill:none" points="534.134,1386.4 557.518,1386.4 "/>
<polyline clip-path="url(#clip621)" style="stroke:#009af9; stroke-linecap:round; stroke-linejoin:round; stroke-width:8; stroke-opacity:1; fill:none" points="557.518,1386.4 580.901,1386.4 "/>
<polyline clip-path="url(#clip621)" style="stroke:#009af9; stroke-linecap:round; stroke-linejoin:round; stroke-width:8; stroke-opacity:1; fill:none" points="580.901,1386.4 604.285,1386.4 "/>
<polyline clip-path="url(#clip621)" style="stroke:#009af9; stroke-linecap:round; stroke-linejoin:round; stroke-width:8; stroke-opacity:1; fill:none" points="604.285,1386.4 627.668,1386.4 "/>
<polyline clip-path="url(#clip621)" style="stroke:#009af9; stroke-linecap:round; stroke-linejoin:round; stroke-width:8; stroke-opacity:1; fill:none" points="627.668,1386.4 651.052,1386.4 "/>
<polyline clip-path="url(#clip621)" style="stroke:#009af9; stroke-linecap:round; stroke-linejoin:round; stroke-width:8; stroke-opacity:1; fill:none" points="651.052,1386.4 674.436,1386.4 "/>
<polyline clip-path="url(#clip621)" style="stroke:#009af9; stroke-linecap:round; stroke-linejoin:round; stroke-width:8; stroke-opacity:1; fill:none" points="674.436,1386.4 697.819,1386.4 "/>
<polyline clip-path="url(#clip621)" style="stroke:#009af9; stroke-linecap:round; stroke-linejoin:round; stroke-width:8; stroke-opacity:1; fill:none" points="697.819,1386.4 721.203,1386.4 "/>
<polyline clip-path="url(#clip621)" style="stroke:#009af9; stroke-linecap:round; stroke-linejoin:round; stroke-width:8; stroke-opacity:1; fill:none" points="721.203,1386.4 744.586,1386.4 "/>
<polyline clip-path="url(#clip621)" style="stroke:#009af9; stroke-linecap:round; stroke-linejoin:round; stroke-width:8; stroke-opacity:1; fill:none" points="744.586,1386.4 767.97,1386.4 "/>
<polyline clip-path="url(#clip621)" style="stroke:#009af9; stroke-linecap:round; stroke-linejoin:round; stroke-width:8; stroke-opacity:1; fill:none" points="767.97,1386.4 791.354,1386.4 "/>
<polyline clip-path="url(#clip621)" style="stroke:#009af9; stroke-linecap:round; stroke-linejoin:round; stroke-width:8; stroke-opacity:1; fill:none" points="791.354,1386.4 814.737,1386.4 "/>
<polyline clip-path="url(#clip621)" style="stroke:#009af9; stroke-linecap:round; stroke-linejoin:round; stroke-width:8; stroke-opacity:1; fill:none" points="814.737,1386.4 838.121,1386.4 "/>
<polyline clip-path="url(#clip621)" style="stroke:#009af9; stroke-linecap:round; stroke-linejoin:round; stroke-width:8; stroke-opacity:1; fill:none" points="838.121,1386.4 861.504,1386.4 "/>
<polyline clip-path="url(#clip621)" style="stroke:#009af9; stroke-linecap:round; stroke-linejoin:round; stroke-width:8; stroke-opacity:1; fill:none" points="861.504,1386.4 884.888,1386.4 "/>
<polyline clip-path="url(#clip621)" style="stroke:#009af9; stroke-linecap:round; stroke-linejoin:round; stroke-width:8; stroke-opacity:1; fill:none" points="884.888,1386.4 908.272,1386.4 "/>
<polyline clip-path="url(#clip621)" style="stroke:#009af9; stroke-linecap:round; stroke-linejoin:round; stroke-width:8; stroke-opacity:1; fill:none" points="908.272,1386.4 931.655,1386.4 "/>
<polyline clip-path="url(#clip621)" style="stroke:#009af9; stroke-linecap:round; stroke-linejoin:round; stroke-width:8; stroke-opacity:1; fill:none" points="931.655,1386.4 955.039,1386.4 "/>
<polyline clip-path="url(#clip621)" style="stroke:#009af9; stroke-linecap:round; stroke-linejoin:round; stroke-width:8; stroke-opacity:1; fill:none" points="955.039,1386.4 971.115,1386.4 "/>
<polyline clip-path="url(#clip621)" style="stroke:#009af9; stroke-linecap:round; stroke-linejoin:round; stroke-width:4; stroke-opacity:1; fill:none" points="971.115,1386.4 994.499,1386.4 "/>
<polyline clip-path="url(#clip621)" style="stroke:#009af9; stroke-linecap:round; stroke-linejoin:round; stroke-width:4; stroke-opacity:1; fill:none" points="994.499,1386.4 1017.88,1386.4 "/>
<polyline clip-path="url(#clip621)" style="stroke:#009af9; stroke-linecap:round; stroke-linejoin:round; stroke-width:4; stroke-opacity:1; fill:none" points="1017.88,1386.4 1041.27,1386.4 "/>
<polyline clip-path="url(#clip621)" style="stroke:#009af9; stroke-linecap:round; stroke-linejoin:round; stroke-width:4; stroke-opacity:1; fill:none" points="1041.27,1386.4 1064.65,1386.4 "/>
<polyline clip-path="url(#clip621)" style="stroke:#009af9; stroke-linecap:round; stroke-linejoin:round; stroke-width:4; stroke-opacity:1; fill:none" points="1064.65,1386.4 1088.03,1386.4 "/>
<polyline clip-path="url(#clip621)" style="stroke:#009af9; stroke-linecap:round; stroke-linejoin:round; stroke-width:4; stroke-opacity:1; fill:none" points="1088.03,1386.4 1111.42,1386.4 "/>
<polyline clip-path="url(#clip621)" style="stroke:#009af9; stroke-linecap:round; stroke-linejoin:round; stroke-width:4; stroke-opacity:1; fill:none" points="1111.42,1386.4 1134.8,1386.4 "/>
<polyline clip-path="url(#clip621)" style="stroke:#009af9; stroke-linecap:round; stroke-linejoin:round; stroke-width:4; stroke-opacity:1; fill:none" points="1134.8,1386.4 1158.18,1386.4 "/>
<polyline clip-path="url(#clip621)" style="stroke:#009af9; stroke-linecap:round; stroke-linejoin:round; stroke-width:4; stroke-opacity:1; fill:none" points="1158.18,1386.4 1181.57,1386.4 "/>
<polyline clip-path="url(#clip621)" style="stroke:#009af9; stroke-linecap:round; stroke-linejoin:round; stroke-width:4; stroke-opacity:1; fill:none" points="1181.57,1386.4 1204.95,1386.4 "/>
<polyline clip-path="url(#clip621)" style="stroke:#009af9; stroke-linecap:round; stroke-linejoin:round; stroke-width:4; stroke-opacity:1; fill:none" points="1204.95,1386.4 1228.33,1386.4 "/>
<polyline clip-path="url(#clip621)" style="stroke:#009af9; stroke-linecap:round; stroke-linejoin:round; stroke-width:4; stroke-opacity:1; fill:none" points="1228.33,1386.4 1251.72,1386.4 "/>
<polyline clip-path="url(#clip621)" style="stroke:#009af9; stroke-linecap:round; stroke-linejoin:round; stroke-width:4; stroke-opacity:1; fill:none" points="1251.72,1386.4 1275.1,1386.4 "/>
<polyline clip-path="url(#clip621)" style="stroke:#009af9; stroke-linecap:round; stroke-linejoin:round; stroke-width:4; stroke-opacity:1; fill:none" points="1275.1,1386.4 1298.49,1386.4 "/>
<polyline clip-path="url(#clip621)" style="stroke:#009af9; stroke-linecap:round; stroke-linejoin:round; stroke-width:4; stroke-opacity:1; fill:none" points="1298.49,1386.4 1321.87,1386.4 "/>
<polyline clip-path="url(#clip621)" style="stroke:#009af9; stroke-linecap:round; stroke-linejoin:round; stroke-width:4; stroke-opacity:1; fill:none" points="1321.87,1386.4 1345.25,1386.4 "/>
<polyline clip-path="url(#clip621)" style="stroke:#009af9; stroke-linecap:round; stroke-linejoin:round; stroke-width:4; stroke-opacity:1; fill:none" points="1345.25,1386.4 1368.64,1386.4 "/>
<polyline clip-path="url(#clip621)" style="stroke:#009af9; stroke-linecap:round; stroke-linejoin:round; stroke-width:4; stroke-opacity:1; fill:none" points="1368.64,1386.4 1392.02,1386.4 "/>
<polyline clip-path="url(#clip621)" style="stroke:#009af9; stroke-linecap:round; stroke-linejoin:round; stroke-width:4; stroke-opacity:1; fill:none" points="1392.02,1386.4 1415.4,1386.4 "/>
<polyline clip-path="url(#clip621)" style="stroke:#009af9; stroke-linecap:round; stroke-linejoin:round; stroke-width:4; stroke-opacity:1; fill:none" points="1415.4,1386.4 1438.79,1386.4 "/>
<polyline clip-path="url(#clip621)" style="stroke:#009af9; stroke-linecap:round; stroke-linejoin:round; stroke-width:4; stroke-opacity:1; fill:none" points="1438.79,1386.4 1462.17,1386.4 "/>
<polyline clip-path="url(#clip621)" style="stroke:#009af9; stroke-linecap:round; stroke-linejoin:round; stroke-width:4; stroke-opacity:1; fill:none" points="1462.17,1386.4 1485.55,1386.4 "/>
<polyline clip-path="url(#clip621)" style="stroke:#009af9; stroke-linecap:round; stroke-linejoin:round; stroke-width:4; stroke-opacity:1; fill:none" points="1485.55,1386.4 1508.94,1386.4 "/>
<polyline clip-path="url(#clip621)" style="stroke:#009af9; stroke-linecap:round; stroke-linejoin:round; stroke-width:4; stroke-opacity:1; fill:none" points="1508.94,1386.4 1532.32,1386.4 "/>
<polyline clip-path="url(#clip621)" style="stroke:#009af9; stroke-linecap:round; stroke-linejoin:round; stroke-width:4; stroke-opacity:1; fill:none" points="1532.32,1386.4 1555.7,1386.4 "/>
<polyline clip-path="url(#clip621)" style="stroke:#009af9; stroke-linecap:round; stroke-linejoin:round; stroke-width:4; stroke-opacity:1; fill:none" points="1555.7,1386.4 1579.09,1386.4 "/>
<polyline clip-path="url(#clip621)" style="stroke:#009af9; stroke-linecap:round; stroke-linejoin:round; stroke-width:4; stroke-opacity:1; fill:none" points="1579.09,1386.4 1602.47,1386.4 "/>
<polyline clip-path="url(#clip621)" style="stroke:#009af9; stroke-linecap:round; stroke-linejoin:round; stroke-width:4; stroke-opacity:1; fill:none" points="1602.47,1386.4 1625.86,1386.4 "/>
<polyline clip-path="url(#clip621)" style="stroke:#009af9; stroke-linecap:round; stroke-linejoin:round; stroke-width:4; stroke-opacity:1; fill:none" points="1625.86,1386.4 1649.24,1386.4 "/>
<polyline clip-path="url(#clip621)" style="stroke:#009af9; stroke-linecap:round; stroke-linejoin:round; stroke-width:4; stroke-opacity:1; fill:none" points="1649.24,1386.4 1672.62,1386.4 "/>
<polyline clip-path="url(#clip621)" style="stroke:#009af9; stroke-linecap:round; stroke-linejoin:round; stroke-width:4; stroke-opacity:1; fill:none" points="1672.62,1386.4 1696.01,1386.4 "/>
<polyline clip-path="url(#clip621)" style="stroke:#009af9; stroke-linecap:round; stroke-linejoin:round; stroke-width:4; stroke-opacity:1; fill:none" points="1696.01,1386.4 1719.39,1386.4 "/>
<polyline clip-path="url(#clip621)" style="stroke:#009af9; stroke-linecap:round; stroke-linejoin:round; stroke-width:4; stroke-opacity:1; fill:none" points="1719.39,1386.4 1742.77,1386.4 "/>
<polyline clip-path="url(#clip621)" style="stroke:#009af9; stroke-linecap:round; stroke-linejoin:round; stroke-width:4; stroke-opacity:1; fill:none" points="1742.77,1386.4 1766.16,1386.4 "/>
<polyline clip-path="url(#clip621)" style="stroke:#009af9; stroke-linecap:round; stroke-linejoin:round; stroke-width:4; stroke-opacity:1; fill:none" points="1766.16,1386.4 1789.54,1386.4 "/>
<polyline clip-path="url(#clip621)" style="stroke:#009af9; stroke-linecap:round; stroke-linejoin:round; stroke-width:4; stroke-opacity:1; fill:none" points="1789.54,1386.4 1812.92,1386.4 "/>
<polyline clip-path="url(#clip621)" style="stroke:#009af9; stroke-linecap:round; stroke-linejoin:round; stroke-width:4; stroke-opacity:1; fill:none" points="1812.92,1386.4 1836.31,1386.4 "/>
<polyline clip-path="url(#clip621)" style="stroke:#009af9; stroke-linecap:round; stroke-linejoin:round; stroke-width:4; stroke-opacity:1; fill:none" points="1836.31,1386.4 1859.69,1386.4 "/>
<polyline clip-path="url(#clip621)" style="stroke:#009af9; stroke-linecap:round; stroke-linejoin:round; stroke-width:4; stroke-opacity:1; fill:none" points="1859.69,1386.4 1883.08,1386.4 "/>
<polyline clip-path="url(#clip621)" style="stroke:#009af9; stroke-linecap:round; stroke-linejoin:round; stroke-width:4; stroke-opacity:1; fill:none" points="1883.08,1386.4 1906.46,1386.4 "/>
<polyline clip-path="url(#clip621)" style="stroke:#009af9; stroke-linecap:round; stroke-linejoin:round; stroke-width:4; stroke-opacity:1; fill:none" points="1906.46,1386.4 1929.84,1386.4 "/>
<polyline clip-path="url(#clip621)" style="stroke:#009af9; stroke-linecap:round; stroke-linejoin:round; stroke-width:4; stroke-opacity:1; fill:none" points="1929.84,1386.4 1953.23,1386.4 "/>
<polyline clip-path="url(#clip621)" style="stroke:#009af9; stroke-linecap:round; stroke-linejoin:round; stroke-width:4; stroke-opacity:1; fill:none" points="1953.23,1386.4 1976.61,1386.4 "/>
<polyline clip-path="url(#clip621)" style="stroke:#009af9; stroke-linecap:round; stroke-linejoin:round; stroke-width:4; stroke-opacity:1; fill:none" points="1976.61,1386.4 1999.99,1386.4 "/>
<polyline clip-path="url(#clip621)" style="stroke:#009af9; stroke-linecap:round; stroke-linejoin:round; stroke-width:4; stroke-opacity:1; fill:none" points="1999.99,1386.4 2023.38,1386.4 "/>
<polyline clip-path="url(#clip621)" style="stroke:#009af9; stroke-linecap:round; stroke-linejoin:round; stroke-width:4; stroke-opacity:1; fill:none" points="2023.38,1386.4 2046.76,1386.4 "/>
<polyline clip-path="url(#clip621)" style="stroke:#009af9; stroke-linecap:round; stroke-linejoin:round; stroke-width:4; stroke-opacity:1; fill:none" points="2046.76,1386.4 2070.14,1386.4 "/>
<polyline clip-path="url(#clip621)" style="stroke:#009af9; stroke-linecap:round; stroke-linejoin:round; stroke-width:4; stroke-opacity:1; fill:none" points="2070.14,1386.4 2093.53,1386.4 "/>
<polyline clip-path="url(#clip621)" style="stroke:#009af9; stroke-linecap:round; stroke-linejoin:round; stroke-width:4; stroke-opacity:1; fill:none" points="2093.53,1386.4 2116.91,1386.4 "/>
<polyline clip-path="url(#clip621)" style="stroke:#009af9; stroke-linecap:round; stroke-linejoin:round; stroke-width:4; stroke-opacity:1; fill:none" points="2116.91,1386.4 2140.29,1386.4 "/>
<polyline clip-path="url(#clip621)" style="stroke:#009af9; stroke-linecap:round; stroke-linejoin:round; stroke-width:4; stroke-opacity:1; fill:none" points="2140.29,1386.4 2163.68,1386.4 "/>
<polyline clip-path="url(#clip621)" style="stroke:#009af9; stroke-linecap:round; stroke-linejoin:round; stroke-width:4; stroke-opacity:1; fill:none" points="2163.68,1386.4 2187.06,1386.4 "/>
<polyline clip-path="url(#clip621)" style="stroke:#009af9; stroke-linecap:round; stroke-linejoin:round; stroke-width:4; stroke-opacity:1; fill:none" points="2187.06,1386.4 2210.45,1386.4 "/>
<polyline clip-path="url(#clip621)" style="stroke:#009af9; stroke-linecap:round; stroke-linejoin:round; stroke-width:4; stroke-opacity:1; fill:none" points="2210.45,1386.4 2233.83,1386.4 "/>
<polyline clip-path="url(#clip621)" style="stroke:#009af9; stroke-linecap:round; stroke-linejoin:round; stroke-width:4; stroke-opacity:1; fill:none" points="2233.83,1386.4 2257.21,1386.4 "/>
<polyline clip-path="url(#clip621)" style="stroke:#009af9; stroke-linecap:round; stroke-linejoin:round; stroke-width:4; stroke-opacity:1; fill:none" points="2257.21,1386.4 2280.6,1386.4 "/>
<polyline clip-path="url(#clip621)" style="stroke:#009af9; stroke-linecap:round; stroke-linejoin:round; stroke-width:4; stroke-opacity:1; fill:none" points="2280.6,1386.4 2293.23,1386.4 "/>
<circle clip-path="url(#clip621)" cx="971.115" cy="1386.4" r="7.2" fill="#ff00ff" fill-rule="evenodd" fill-opacity="1" stroke="none"/>
<path clip-path="url(#clip620)" d="M2043.48 270.476 L2282.65 270.476 L2282.65 166.796 L2043.48 166.796  Z" fill="#ffffff" fill-rule="evenodd" fill-opacity="1"/>
<polyline clip-path="url(#clip620)" style="stroke:#000000; stroke-linecap:round; stroke-linejoin:round; stroke-width:4; stroke-opacity:1; fill:none" points="2043.48,270.476 2282.65,270.476 2282.65,166.796 2043.48,166.796 2043.48,270.476 "/>
<polyline clip-path="url(#clip620)" style="stroke:#009af9; stroke-linecap:round; stroke-linejoin:round; stroke-width:8; stroke-opacity:1; fill:none" points="2066.85,218.636 2207.07,218.636 "/>
<path clip-path="url(#clip620)" d="M2241.06 199.944 Q2237.96 205.268 2236.46 210.476 Q2234.95 215.684 2234.95 221.032 Q2234.95 226.379 2236.46 231.633 Q2237.98 236.865 2241.06 242.166 L2237.36 242.166 Q2233.89 236.726 2232.15 231.471 Q2230.44 226.217 2230.44 221.032 Q2230.44 215.87 2232.15 210.638 Q2233.86 205.407 2237.36 199.944 L2241.06 199.944 Z" fill="#000000" fill-rule="nonzero" fill-opacity="1" /><path clip-path="url(#clip620)" d="M2248.65 199.944 L2252.36 199.944 Q2255.83 205.407 2257.54 210.638 Q2259.28 215.87 2259.28 221.032 Q2259.28 226.217 2257.54 231.471 Q2255.83 236.726 2252.36 242.166 L2248.65 242.166 Q2251.73 236.865 2253.24 231.633 Q2254.77 226.379 2254.77 221.032 Q2254.77 215.684 2253.24 210.476 Q2251.73 205.268 2248.65 199.944 Z" fill="#000000" fill-rule="nonzero" fill-opacity="1" /></svg>
