<?xml version="1.0" encoding="utf-8"?>
<svg xmlns="http://www.w3.org/2000/svg" xmlns:xlink="http://www.w3.org/1999/xlink" width="600" height="400" viewBox="0 0 2400 1600">
<defs>
  <clipPath id="clip200">
    <rect x="0" y="0" width="2400" height="1600"/>
  </clipPath>
</defs>
<path clip-path="url(#clip200)" d="M0 1600 L2400 1600 L2400 0 L0 0  Z" fill="#ffffff" fill-rule="evenodd" fill-opacity="1"/>
<defs>
  <clipPath id="clip201">
    <rect x="257" y="47" width="2096" height="1377"/>
  </clipPath>
</defs>
<path clip-path="url(#clip200)" d="M257.69 1423.18 L2352.76 1423.18 L2352.76 47.2441 L257.69 47.2441  Z" fill="#ffffff" fill-rule="evenodd" fill-opacity="1"/>
<polyline clip-path="url(#clip201)" style="stroke:#000000; stroke-linecap:round; stroke-linejoin:round; stroke-width:2; stroke-opacity:0.1; fill:none" points="316.984,1423.18 316.984,47.2441 "/>
<polyline clip-path="url(#clip201)" style="stroke:#000000; stroke-linecap:round; stroke-linejoin:round; stroke-width:2; stroke-opacity:0.1; fill:none" points="646.397,1423.18 646.397,47.2441 "/>
<polyline clip-path="url(#clip201)" style="stroke:#000000; stroke-linecap:round; stroke-linejoin:round; stroke-width:2; stroke-opacity:0.1; fill:none" points="975.81,1423.18 975.81,47.2441 "/>
<polyline clip-path="url(#clip201)" style="stroke:#000000; stroke-linecap:round; stroke-linejoin:round; stroke-width:2; stroke-opacity:0.1; fill:none" points="1305.22,1423.18 1305.22,47.2441 "/>
<polyline clip-path="url(#clip201)" style="stroke:#000000; stroke-linecap:round; stroke-linejoin:round; stroke-width:2; stroke-opacity:0.1; fill:none" points="1634.64,1423.18 1634.64,47.2441 "/>
<polyline clip-path="url(#clip201)" style="stroke:#000000; stroke-linecap:round; stroke-linejoin:round; stroke-width:2; stroke-opacity:0.1; fill:none" points="1964.05,1423.18 1964.05,47.2441 "/>
<polyline clip-path="url(#clip201)" style="stroke:#000000; stroke-linecap:round; stroke-linejoin:round; stroke-width:2; stroke-opacity:0.1; fill:none" points="2293.46,1423.18 2293.46,47.2441 "/>
<polyline clip-path="url(#clip201)" style="stroke:#000000; stroke-linecap:round; stroke-linejoin:round; stroke-width:2; stroke-opacity:0.1; fill:none" points="257.69,1405.17 2352.76,1405.17 "/>
<polyline clip-path="url(#clip201)" style="stroke:#000000; stroke-linecap:round; stroke-linejoin:round; stroke-width:2; stroke-opacity:0.1; fill:none" points="257.69,1100.38 2352.76,1100.38 "/>
<polyline clip-path="url(#clip201)" style="stroke:#000000; stroke-linecap:round; stroke-linejoin:round; stroke-width:2; stroke-opacity:0.1; fill:none" points="257.69,795.584 2352.76,795.584 "/>
<polyline clip-path="url(#clip201)" style="stroke:#000000; stroke-linecap:round; stroke-linejoin:round; stroke-width:2; stroke-opacity:0.1; fill:none" points="257.69,490.793 2352.76,490.793 "/>
<polyline clip-path="url(#clip201)" style="stroke:#000000; stroke-linecap:round; stroke-linejoin:round; stroke-width:2; stroke-opacity:0.1; fill:none" points="257.69,186.001 2352.76,186.001 "/>
<polyline clip-path="url(#clip200)" style="stroke:#000000; stroke-linecap:round; stroke-linejoin:round; stroke-width:4; stroke-opacity:1; fill:none" points="257.69,1423.18 2352.76,1423.18 "/>
<polyline clip-path="url(#clip200)" style="stroke:#000000; stroke-linecap:round; stroke-linejoin:round; stroke-width:4; stroke-opacity:1; fill:none" points="316.984,1423.18 316.984,1404.28 "/>
<polyline clip-path="url(#clip200)" style="stroke:#000000; stroke-linecap:round; stroke-linejoin:round; stroke-width:4; stroke-opacity:1; fill:none" points="646.397,1423.18 646.397,1404.28 "/>
<polyline clip-path="url(#clip200)" style="stroke:#000000; stroke-linecap:round; stroke-linejoin:round; stroke-width:4; stroke-opacity:1; fill:none" points="975.81,1423.18 975.81,1404.28 "/>
<polyline clip-path="url(#clip200)" style="stroke:#000000; stroke-linecap:round; stroke-linejoin:round; stroke-width:4; stroke-opacity:1; fill:none" points="1305.22,1423.18 1305.22,1404.28 "/>
<polyline clip-path="url(#clip200)" style="stroke:#000000; stroke-linecap:round; stroke-linejoin:round; stroke-width:4; stroke-opacity:1; fill:none" points="1634.64,1423.18 1634.64,1404.28 "/>
<polyline clip-path="url(#clip200)" style="stroke:#000000; stroke-linecap:round; stroke-linejoin:round; stroke-width:4; stroke-opacity:1; fill:none" points="1964.05,1423.18 1964.05,1404.28 "/>
<polyline clip-path="url(#clip200)" style="stroke:#000000; stroke-linecap:round; stroke-linejoin:round; stroke-width:4; stroke-opacity:1; fill:none" points="2293.46,1423.18 2293.46,1404.28 "/>
<path clip-path="url(#clip200)" d="M264.311 1468.75 L293.987 1468.75 L293.987 1472.69 L264.311 1472.69 L264.311 1468.75 Z" fill="#000000" fill-rule="nonzero" fill-opacity="1" /><path clip-path="url(#clip200)" d="M314.079 1454.1 Q310.468 1454.1 308.64 1457.66 Q306.834 1461.2 306.834 1468.33 Q306.834 1475.44 308.64 1479.01 Q310.468 1482.55 314.079 1482.55 Q317.714 1482.55 319.519 1479.01 Q321.348 1475.44 321.348 1468.33 Q321.348 1461.2 319.519 1457.66 Q317.714 1454.1 314.079 1454.1 M314.079 1450.39 Q319.89 1450.39 322.945 1455 Q326.024 1459.58 326.024 1468.33 Q326.024 1477.06 322.945 1481.67 Q319.89 1486.25 314.079 1486.25 Q308.269 1486.25 305.191 1481.67 Q302.135 1477.06 302.135 1468.33 Q302.135 1459.58 305.191 1455 Q308.269 1450.39 314.079 1450.39 Z" fill="#000000" fill-rule="nonzero" fill-opacity="1" /><path clip-path="url(#clip200)" d="M334.241 1479.7 L339.126 1479.7 L339.126 1485.58 L334.241 1485.58 L334.241 1479.7 Z" fill="#000000" fill-rule="nonzero" fill-opacity="1" /><path clip-path="url(#clip200)" d="M353.338 1481.64 L369.658 1481.64 L369.658 1485.58 L347.713 1485.58 L347.713 1481.64 Q350.375 1478.89 354.959 1474.26 Q359.565 1469.61 360.746 1468.27 Q362.991 1465.74 363.871 1464.01 Q364.774 1462.25 364.774 1460.56 Q364.774 1457.8 362.829 1456.07 Q360.908 1454.33 357.806 1454.33 Q355.607 1454.33 353.153 1455.09 Q350.723 1455.86 347.945 1457.41 L347.945 1452.69 Q350.769 1451.55 353.223 1450.97 Q355.676 1450.39 357.713 1450.39 Q363.084 1450.39 366.278 1453.08 Q369.473 1455.77 369.473 1460.26 Q369.473 1462.39 368.662 1464.31 Q367.875 1466.2 365.769 1468.8 Q365.19 1469.47 362.088 1472.69 Q358.987 1475.88 353.338 1481.64 Z" fill="#000000" fill-rule="nonzero" fill-opacity="1" /><path clip-path="url(#clip200)" d="M593.539 1468.75 L623.215 1468.75 L623.215 1472.69 L593.539 1472.69 L593.539 1468.75 Z" fill="#000000" fill-rule="nonzero" fill-opacity="1" /><path clip-path="url(#clip200)" d="M643.307 1454.1 Q639.696 1454.1 637.867 1457.66 Q636.062 1461.2 636.062 1468.33 Q636.062 1475.44 637.867 1479.01 Q639.696 1482.55 643.307 1482.55 Q646.941 1482.55 648.747 1479.01 Q650.576 1475.44 650.576 1468.33 Q650.576 1461.2 648.747 1457.66 Q646.941 1454.1 643.307 1454.1 M643.307 1450.39 Q649.117 1450.39 652.173 1455 Q655.251 1459.58 655.251 1468.33 Q655.251 1477.06 652.173 1481.67 Q649.117 1486.25 643.307 1486.25 Q637.497 1486.25 634.418 1481.67 Q631.363 1477.06 631.363 1468.33 Q631.363 1459.58 634.418 1455 Q637.497 1450.39 643.307 1450.39 Z" fill="#000000" fill-rule="nonzero" fill-opacity="1" /><path clip-path="url(#clip200)" d="M663.469 1479.7 L668.353 1479.7 L668.353 1485.58 L663.469 1485.58 L663.469 1479.7 Z" fill="#000000" fill-rule="nonzero" fill-opacity="1" /><path clip-path="url(#clip200)" d="M679.349 1481.64 L686.987 1481.64 L686.987 1455.28 L678.677 1456.95 L678.677 1452.69 L686.941 1451.02 L691.617 1451.02 L691.617 1481.64 L699.256 1481.64 L699.256 1485.58 L679.349 1485.58 L679.349 1481.64 Z" fill="#000000" fill-rule="nonzero" fill-opacity="1" /><path clip-path="url(#clip200)" d="M953.195 1454.1 Q949.583 1454.1 947.755 1457.66 Q945.949 1461.2 945.949 1468.33 Q945.949 1475.44 947.755 1479.01 Q949.583 1482.55 953.195 1482.55 Q956.829 1482.55 958.634 1479.01 Q960.463 1475.44 960.463 1468.33 Q960.463 1461.2 958.634 1457.66 Q956.829 1454.1 953.195 1454.1 M953.195 1450.39 Q959.005 1450.39 962.06 1455 Q965.139 1459.58 965.139 1468.33 Q965.139 1477.06 962.06 1481.67 Q959.005 1486.25 953.195 1486.25 Q947.384 1486.25 944.306 1481.67 Q941.25 1477.06 941.25 1468.33 Q941.25 1459.58 944.306 1455 Q947.384 1450.39 953.195 1450.39 Z" fill="#000000" fill-rule="nonzero" fill-opacity="1" /><path clip-path="url(#clip200)" d="M973.356 1479.7 L978.241 1479.7 L978.241 1485.58 L973.356 1485.58 L973.356 1479.7 Z" fill="#000000" fill-rule="nonzero" fill-opacity="1" /><path clip-path="url(#clip200)" d="M998.426 1454.1 Q994.815 1454.1 992.986 1457.66 Q991.18 1461.2 991.18 1468.33 Q991.18 1475.44 992.986 1479.01 Q994.815 1482.55 998.426 1482.55 Q1002.06 1482.55 1003.87 1479.01 Q1005.69 1475.44 1005.69 1468.33 Q1005.69 1461.2 1003.87 1457.66 Q1002.06 1454.1 998.426 1454.1 M998.426 1450.39 Q1004.24 1450.39 1007.29 1455 Q1010.37 1459.58 1010.37 1468.33 Q1010.37 1477.06 1007.29 1481.67 Q1004.24 1486.25 998.426 1486.25 Q992.616 1486.25 989.537 1481.67 Q986.481 1477.06 986.481 1468.33 Q986.481 1459.58 989.537 1455 Q992.616 1450.39 998.426 1450.39 Z" fill="#000000" fill-rule="nonzero" fill-opacity="1" /><path clip-path="url(#clip200)" d="M1283.22 1454.1 Q1279.61 1454.1 1277.78 1457.66 Q1275.98 1461.2 1275.98 1468.33 Q1275.98 1475.44 1277.78 1479.01 Q1279.61 1482.55 1283.22 1482.55 Q1286.86 1482.55 1288.66 1479.01 Q1290.49 1475.44 1290.49 1468.33 Q1290.49 1461.2 1288.66 1457.66 Q1286.86 1454.1 1283.22 1454.1 M1283.22 1450.39 Q1289.03 1450.39 1292.09 1455 Q1295.17 1459.58 1295.17 1468.33 Q1295.17 1477.06 1292.09 1481.67 Q1289.03 1486.25 1283.22 1486.25 Q1277.41 1486.25 1274.33 1481.67 Q1271.28 1477.06 1271.28 1468.33 Q1271.28 1459.58 1274.33 1455 Q1277.41 1450.39 1283.22 1450.39 Z" fill="#000000" fill-rule="nonzero" fill-opacity="1" /><path clip-path="url(#clip200)" d="M1303.38 1479.7 L1308.27 1479.7 L1308.27 1485.58 L1303.38 1485.58 L1303.38 1479.7 Z" fill="#000000" fill-rule="nonzero" fill-opacity="1" /><path clip-path="url(#clip200)" d="M1319.26 1481.64 L1326.9 1481.64 L1326.9 1455.28 L1318.59 1456.95 L1318.59 1452.69 L1326.85 1451.02 L1331.53 1451.02 L1331.53 1481.64 L1339.17 1481.64 L1339.17 1485.58 L1319.26 1485.58 L1319.26 1481.64 Z" fill="#000000" fill-rule="nonzero" fill-opacity="1" /><path clip-path="url(#clip200)" d="M1612.82 1454.1 Q1609.21 1454.1 1607.38 1457.66 Q1605.57 1461.2 1605.57 1468.33 Q1605.57 1475.44 1607.38 1479.01 Q1609.21 1482.55 1612.82 1482.55 Q1616.45 1482.55 1618.26 1479.01 Q1620.09 1475.44 1620.09 1468.33 Q1620.09 1461.2 1618.26 1457.66 Q1616.45 1454.1 1612.82 1454.1 M1612.82 1450.39 Q1618.63 1450.39 1621.68 1455 Q1624.76 1459.58 1624.76 1468.33 Q1624.76 1477.06 1621.68 1481.67 Q1618.63 1486.25 1612.82 1486.25 Q1607.01 1486.25 1603.93 1481.67 Q1600.87 1477.06 1600.87 1468.33 Q1600.87 1459.58 1603.93 1455 Q1607.01 1450.39 1612.82 1450.39 Z" fill="#000000" fill-rule="nonzero" fill-opacity="1" /><path clip-path="url(#clip200)" d="M1632.98 1479.7 L1637.87 1479.7 L1637.87 1485.58 L1632.98 1485.58 L1632.98 1479.7 Z" fill="#000000" fill-rule="nonzero" fill-opacity="1" /><path clip-path="url(#clip200)" d="M1652.08 1481.64 L1668.4 1481.64 L1668.4 1485.58 L1646.45 1485.58 L1646.45 1481.64 Q1649.11 1478.89 1653.7 1474.26 Q1658.3 1469.61 1659.49 1468.27 Q1661.73 1465.74 1662.61 1464.01 Q1663.51 1462.25 1663.51 1460.56 Q1663.51 1457.8 1661.57 1456.07 Q1659.65 1454.33 1656.55 1454.33 Q1654.35 1454.33 1651.89 1455.09 Q1649.46 1455.86 1646.68 1457.41 L1646.68 1452.69 Q1649.51 1451.55 1651.96 1450.97 Q1654.42 1450.39 1656.45 1450.39 Q1661.82 1450.39 1665.02 1453.08 Q1668.21 1455.77 1668.21 1460.26 Q1668.21 1462.39 1667.4 1464.31 Q1666.61 1466.2 1664.51 1468.8 Q1663.93 1469.47 1660.83 1472.69 Q1657.73 1475.88 1652.08 1481.64 Z" fill="#000000" fill-rule="nonzero" fill-opacity="1" /><path clip-path="url(#clip200)" d="M1941.76 1454.1 Q1938.15 1454.1 1936.32 1457.66 Q1934.51 1461.2 1934.51 1468.33 Q1934.51 1475.44 1936.32 1479.01 Q1938.15 1482.55 1941.76 1482.55 Q1945.39 1482.55 1947.2 1479.01 Q1949.03 1475.44 1949.03 1468.33 Q1949.03 1461.2 1947.2 1457.66 Q1945.39 1454.1 1941.76 1454.1 M1941.76 1450.39 Q1947.57 1450.39 1950.62 1455 Q1953.7 1459.58 1953.7 1468.33 Q1953.7 1477.06 1950.62 1481.67 Q1947.57 1486.25 1941.76 1486.25 Q1935.95 1486.25 1932.87 1481.67 Q1929.81 1477.06 1929.81 1468.33 Q1929.81 1459.58 1932.87 1455 Q1935.95 1450.39 1941.76 1450.39 Z" fill="#000000" fill-rule="nonzero" fill-opacity="1" /><path clip-path="url(#clip200)" d="M1961.92 1479.7 L1966.8 1479.7 L1966.8 1485.58 L1961.92 1485.58 L1961.92 1479.7 Z" fill="#000000" fill-rule="nonzero" fill-opacity="1" /><path clip-path="url(#clip200)" d="M1991.16 1466.95 Q1994.51 1467.66 1996.39 1469.93 Q1998.28 1472.2 1998.28 1475.53 Q1998.28 1480.65 1994.77 1483.45 Q1991.25 1486.25 1984.77 1486.25 Q1982.59 1486.25 1980.28 1485.81 Q1977.98 1485.39 1975.53 1484.54 L1975.53 1480.02 Q1977.47 1481.16 1979.79 1481.74 Q1982.1 1482.32 1984.63 1482.32 Q1989.03 1482.32 1991.32 1480.58 Q1993.63 1478.84 1993.63 1475.53 Q1993.63 1472.48 1991.48 1470.77 Q1989.35 1469.03 1985.53 1469.03 L1981.5 1469.03 L1981.5 1465.19 L1985.72 1465.19 Q1989.16 1465.19 1990.99 1463.82 Q1992.82 1462.43 1992.82 1459.84 Q1992.82 1457.18 1990.92 1455.77 Q1989.05 1454.33 1985.53 1454.33 Q1983.61 1454.33 1981.41 1454.75 Q1979.21 1455.16 1976.57 1456.04 L1976.57 1451.88 Q1979.23 1451.14 1981.55 1450.77 Q1983.89 1450.39 1985.95 1450.39 Q1991.27 1450.39 1994.37 1452.83 Q1997.47 1455.23 1997.47 1459.35 Q1997.47 1462.22 1995.83 1464.21 Q1994.19 1466.18 1991.16 1466.95 Z" fill="#000000" fill-rule="nonzero" fill-opacity="1" /><path clip-path="url(#clip200)" d="M2270.6 1454.1 Q2266.99 1454.1 2265.16 1457.66 Q2263.36 1461.2 2263.36 1468.33 Q2263.36 1475.44 2265.16 1479.01 Q2266.99 1482.55 2270.6 1482.55 Q2274.24 1482.55 2276.04 1479.01 Q2277.87 1475.44 2277.87 1468.33 Q2277.87 1461.2 2276.04 1457.66 Q2274.24 1454.1 2270.6 1454.1 M2270.6 1450.39 Q2276.41 1450.39 2279.47 1455 Q2282.55 1459.58 2282.55 1468.33 Q2282.55 1477.06 2279.47 1481.67 Q2276.41 1486.25 2270.6 1486.25 Q2264.79 1486.25 2261.71 1481.67 Q2258.66 1477.06 2258.66 1468.33 Q2258.66 1459.58 2261.71 1455 Q2264.79 1450.39 2270.6 1450.39 Z" fill="#000000" fill-rule="nonzero" fill-opacity="1" /><path clip-path="url(#clip200)" d="M2290.76 1479.7 L2295.65 1479.7 L2295.65 1485.58 L2290.76 1485.58 L2290.76 1479.7 Z" fill="#000000" fill-rule="nonzero" fill-opacity="1" /><path clip-path="url(#clip200)" d="M2318.68 1455.09 L2306.88 1473.54 L2318.68 1473.54 L2318.68 1455.09 M2317.45 1451.02 L2323.33 1451.02 L2323.33 1473.54 L2328.26 1473.54 L2328.26 1477.43 L2323.33 1477.43 L2323.33 1485.58 L2318.68 1485.58 L2318.68 1477.43 L2303.08 1477.43 L2303.08 1472.92 L2317.45 1451.02 Z" fill="#000000" fill-rule="nonzero" fill-opacity="1" /><path clip-path="url(#clip200)" d="M1288.05 1581.6 L1288.05 1532.4 L1293.91 1532.4 L1293.91 1554.55 Q1293.91 1559.16 1296.1 1561.52 Q1298.3 1563.87 1302.6 1563.87 Q1307.31 1563.87 1309.66 1561.2 Q1312.05 1558.53 1312.05 1553.18 L1312.05 1532.4 L1317.91 1532.4 L1317.91 1559.83 Q1317.91 1561.74 1318.45 1562.66 Q1319.02 1563.56 1320.2 1563.56 Q1320.48 1563.56 1320.99 1563.4 Q1321.5 1563.21 1322.39 1562.82 L1322.39 1567.53 Q1321.09 1568.27 1319.91 1568.62 Q1318.77 1568.97 1317.65 1568.97 Q1315.46 1568.97 1314.15 1567.73 Q1312.85 1566.48 1312.37 1563.94 Q1310.78 1566.45 1308.45 1567.73 Q1306.16 1568.97 1303.04 1568.97 Q1299.8 1568.97 1297.5 1567.73 Q1295.24 1566.48 1293.91 1564 L1293.91 1581.6 L1288.05 1581.6 Z" fill="#000000" fill-rule="nonzero" fill-opacity="1" /><polyline clip-path="url(#clip200)" style="stroke:#000000; stroke-linecap:round; stroke-linejoin:round; stroke-width:4; stroke-opacity:1; fill:none" points="257.69,1423.18 257.69,47.2441 "/>
<polyline clip-path="url(#clip200)" style="stroke:#000000; stroke-linecap:round; stroke-linejoin:round; stroke-width:4; stroke-opacity:1; fill:none" points="257.69,1405.17 276.588,1405.17 "/>
<polyline clip-path="url(#clip200)" style="stroke:#000000; stroke-linecap:round; stroke-linejoin:round; stroke-width:4; stroke-opacity:1; fill:none" points="257.69,1100.38 276.588,1100.38 "/>
<polyline clip-path="url(#clip200)" style="stroke:#000000; stroke-linecap:round; stroke-linejoin:round; stroke-width:4; stroke-opacity:1; fill:none" points="257.69,795.584 276.588,795.584 "/>
<polyline clip-path="url(#clip200)" style="stroke:#000000; stroke-linecap:round; stroke-linejoin:round; stroke-width:4; stroke-opacity:1; fill:none" points="257.69,490.793 276.588,490.793 "/>
<polyline clip-path="url(#clip200)" style="stroke:#000000; stroke-linecap:round; stroke-linejoin:round; stroke-width:4; stroke-opacity:1; fill:none" points="257.69,186.001 276.588,186.001 "/>
<path clip-path="url(#clip200)" d="M114.26 1405.62 L143.936 1405.62 L143.936 1409.55 L114.26 1409.55 L114.26 1405.62 Z" fill="#000000" fill-rule="nonzero" fill-opacity="1" /><path clip-path="url(#clip200)" d="M164.028 1390.97 Q160.417 1390.97 158.589 1394.53 Q156.783 1398.07 156.783 1405.2 Q156.783 1412.31 158.589 1415.87 Q160.417 1419.41 164.028 1419.41 Q167.663 1419.41 169.468 1415.87 Q171.297 1412.31 171.297 1405.2 Q171.297 1398.07 169.468 1394.53 Q167.663 1390.97 164.028 1390.97 M164.028 1387.26 Q169.839 1387.26 172.894 1391.87 Q175.973 1396.45 175.973 1405.2 Q175.973 1413.93 172.894 1418.54 Q169.839 1423.12 164.028 1423.12 Q158.218 1423.12 155.14 1418.54 Q152.084 1413.93 152.084 1405.2 Q152.084 1396.45 155.14 1391.87 Q158.218 1387.26 164.028 1387.26 Z" fill="#000000" fill-rule="nonzero" fill-opacity="1" /><path clip-path="url(#clip200)" d="M184.19 1416.57 L189.075 1416.57 L189.075 1422.45 L184.19 1422.45 L184.19 1416.57 Z" fill="#000000" fill-rule="nonzero" fill-opacity="1" /><path clip-path="url(#clip200)" d="M212.107 1391.96 L200.301 1410.41 L212.107 1410.41 L212.107 1391.96 M210.88 1387.89 L216.76 1387.89 L216.76 1410.41 L221.69 1410.41 L221.69 1414.3 L216.76 1414.3 L216.76 1422.45 L212.107 1422.45 L212.107 1414.3 L196.505 1414.3 L196.505 1409.79 L210.88 1387.89 Z" fill="#000000" fill-rule="nonzero" fill-opacity="1" /><path clip-path="url(#clip200)" d="M116.343 1100.83 L146.019 1100.83 L146.019 1104.76 L116.343 1104.76 L116.343 1100.83 Z" fill="#000000" fill-rule="nonzero" fill-opacity="1" /><path clip-path="url(#clip200)" d="M166.112 1086.17 Q162.501 1086.17 160.672 1089.74 Q158.866 1093.28 158.866 1100.41 Q158.866 1107.52 160.672 1111.08 Q162.501 1114.62 166.112 1114.62 Q169.746 1114.62 171.552 1111.08 Q173.38 1107.52 173.38 1100.41 Q173.38 1093.28 171.552 1089.74 Q169.746 1086.17 166.112 1086.17 M166.112 1082.47 Q171.922 1082.47 174.977 1087.08 Q178.056 1091.66 178.056 1100.41 Q178.056 1109.14 174.977 1113.74 Q171.922 1118.33 166.112 1118.33 Q160.302 1118.33 157.223 1113.74 Q154.167 1109.14 154.167 1100.41 Q154.167 1091.66 157.223 1087.08 Q160.302 1082.47 166.112 1082.47 Z" fill="#000000" fill-rule="nonzero" fill-opacity="1" /><path clip-path="url(#clip200)" d="M186.274 1111.78 L191.158 1111.78 L191.158 1117.66 L186.274 1117.66 L186.274 1111.78 Z" fill="#000000" fill-rule="nonzero" fill-opacity="1" /><path clip-path="url(#clip200)" d="M205.371 1113.72 L221.69 1113.72 L221.69 1117.66 L199.746 1117.66 L199.746 1113.72 Q202.408 1110.97 206.991 1106.34 Q211.598 1101.68 212.778 1100.34 Q215.024 1097.82 215.903 1096.08 Q216.806 1094.32 216.806 1092.63 Q216.806 1089.88 214.861 1088.14 Q212.94 1086.41 209.838 1086.41 Q207.639 1086.41 205.186 1087.17 Q202.755 1087.93 199.977 1089.48 L199.977 1084.76 Q202.801 1083.63 205.255 1083.05 Q207.709 1082.47 209.746 1082.47 Q215.116 1082.47 218.311 1085.16 Q221.505 1087.84 221.505 1092.33 Q221.505 1094.46 220.695 1096.38 Q219.908 1098.28 217.801 1100.87 Q217.223 1101.54 214.121 1104.76 Q211.019 1107.96 205.371 1113.72 Z" fill="#000000" fill-rule="nonzero" fill-opacity="1" /><path clip-path="url(#clip200)" d="M164.515 781.383 Q160.903 781.383 159.075 784.948 Q157.269 788.489 157.269 795.619 Q157.269 802.725 159.075 806.29 Q160.903 809.832 164.515 809.832 Q168.149 809.832 169.954 806.29 Q171.783 802.725 171.783 795.619 Q171.783 788.489 169.954 784.948 Q168.149 781.383 164.515 781.383 M164.515 777.679 Q170.325 777.679 173.38 782.286 Q176.459 786.869 176.459 795.619 Q176.459 804.346 173.38 808.952 Q170.325 813.536 164.515 813.536 Q158.704 813.536 155.626 808.952 Q152.57 804.346 152.57 795.619 Q152.57 786.869 155.626 782.286 Q158.704 777.679 164.515 777.679 Z" fill="#000000" fill-rule="nonzero" fill-opacity="1" /><path clip-path="url(#clip200)" d="M184.676 806.985 L189.561 806.985 L189.561 812.864 L184.676 812.864 L184.676 806.985 Z" fill="#000000" fill-rule="nonzero" fill-opacity="1" /><path clip-path="url(#clip200)" d="M209.746 781.383 Q206.135 781.383 204.306 784.948 Q202.5 788.489 202.5 795.619 Q202.5 802.725 204.306 806.29 Q206.135 809.832 209.746 809.832 Q213.38 809.832 215.186 806.29 Q217.014 802.725 217.014 795.619 Q217.014 788.489 215.186 784.948 Q213.38 781.383 209.746 781.383 M209.746 777.679 Q215.556 777.679 218.611 782.286 Q221.69 786.869 221.69 795.619 Q221.69 804.346 218.611 808.952 Q215.556 813.536 209.746 813.536 Q203.936 813.536 200.857 808.952 Q197.801 804.346 197.801 795.619 Q197.801 786.869 200.857 782.286 Q203.936 777.679 209.746 777.679 Z" fill="#000000" fill-rule="nonzero" fill-opacity="1" /><path clip-path="url(#clip200)" d="M166.112 476.592 Q162.501 476.592 160.672 480.156 Q158.866 483.698 158.866 490.828 Q158.866 497.934 160.672 501.499 Q162.501 505.04 166.112 505.04 Q169.746 505.04 171.552 501.499 Q173.38 497.934 173.38 490.828 Q173.38 483.698 171.552 480.156 Q169.746 476.592 166.112 476.592 M166.112 472.888 Q171.922 472.888 174.977 477.494 Q178.056 482.078 178.056 490.828 Q178.056 499.554 174.977 504.161 Q171.922 508.744 166.112 508.744 Q160.302 508.744 157.223 504.161 Q154.167 499.554 154.167 490.828 Q154.167 482.078 157.223 477.494 Q160.302 472.888 166.112 472.888 Z" fill="#000000" fill-rule="nonzero" fill-opacity="1" /><path clip-path="url(#clip200)" d="M186.274 502.193 L191.158 502.193 L191.158 508.073 L186.274 508.073 L186.274 502.193 Z" fill="#000000" fill-rule="nonzero" fill-opacity="1" /><path clip-path="url(#clip200)" d="M205.371 504.138 L221.69 504.138 L221.69 508.073 L199.746 508.073 L199.746 504.138 Q202.408 501.383 206.991 496.753 Q211.598 492.101 212.778 490.758 Q215.024 488.235 215.903 486.499 Q216.806 484.74 216.806 483.05 Q216.806 480.295 214.861 478.559 Q212.94 476.823 209.838 476.823 Q207.639 476.823 205.186 477.587 Q202.755 478.351 199.977 479.902 L199.977 475.179 Q202.801 474.045 205.255 473.467 Q207.709 472.888 209.746 472.888 Q215.116 472.888 218.311 475.573 Q221.505 478.258 221.505 482.749 Q221.505 484.879 220.695 486.8 Q219.908 488.698 217.801 491.291 Q217.223 491.962 214.121 495.179 Q211.019 498.374 205.371 504.138 Z" fill="#000000" fill-rule="nonzero" fill-opacity="1" /><path clip-path="url(#clip200)" d="M164.028 171.8 Q160.417 171.8 158.589 175.365 Q156.783 178.906 156.783 186.036 Q156.783 193.142 158.589 196.707 Q160.417 200.249 164.028 200.249 Q167.663 200.249 169.468 196.707 Q171.297 193.142 171.297 186.036 Q171.297 178.906 169.468 175.365 Q167.663 171.8 164.028 171.8 M164.028 168.096 Q169.839 168.096 172.894 172.703 Q175.973 177.286 175.973 186.036 Q175.973 194.763 172.894 199.369 Q169.839 203.953 164.028 203.953 Q158.218 203.953 155.14 199.369 Q152.084 194.763 152.084 186.036 Q152.084 177.286 155.14 172.703 Q158.218 168.096 164.028 168.096 Z" fill="#000000" fill-rule="nonzero" fill-opacity="1" /><path clip-path="url(#clip200)" d="M184.19 197.402 L189.075 197.402 L189.075 203.281 L184.19 203.281 L184.19 197.402 Z" fill="#000000" fill-rule="nonzero" fill-opacity="1" /><path clip-path="url(#clip200)" d="M212.107 172.795 L200.301 191.244 L212.107 191.244 L212.107 172.795 M210.88 168.721 L216.76 168.721 L216.76 191.244 L221.69 191.244 L221.69 195.133 L216.76 195.133 L216.76 203.281 L212.107 203.281 L212.107 195.133 L196.505 195.133 L196.505 190.619 L210.88 168.721 Z" fill="#000000" fill-rule="nonzero" fill-opacity="1" /><path clip-path="url(#clip200)" d="M42.4881 748.341 L64.0042 748.341 L64.0042 754.198 L42.679 754.198 Q37.6183 754.198 35.1038 756.171 Q32.5894 758.144 32.5894 762.091 Q32.5894 766.834 35.6131 769.571 Q38.6368 772.308 43.8567 772.308 L64.0042 772.308 L64.0042 778.196 L28.3562 778.196 L28.3562 772.308 L33.8944 772.308 Q30.6797 770.207 29.0883 767.375 Q27.4968 764.51 27.4968 760.786 Q27.4968 754.643 31.3163 751.492 Q35.1038 748.341 42.4881 748.341 Z" fill="#000000" fill-rule="nonzero" fill-opacity="1" /><path clip-path="url(#clip200)" d="M28.3562 740.066 L28.3562 734.209 L56.1743 726.889 L28.3562 719.6 L28.3562 712.693 L56.1743 705.373 L28.3562 698.084 L28.3562 692.228 L64.0042 701.553 L64.0042 708.46 L34.7856 716.131 L64.0042 723.833 L64.0042 730.74 L28.3562 740.066 Z" fill="#000000" fill-rule="nonzero" fill-opacity="1" /><circle clip-path="url(#clip201)" cx="975.819" cy="795.584" r="10.8" fill="#ff00ff" fill-rule="evenodd" fill-opacity="1" stroke="none"/>
<circle clip-path="url(#clip201)" cx="935.198" cy="691.001" r="10.8" fill="#0000ff" fill-rule="evenodd" fill-opacity="1" stroke="none"/>
<polyline clip-path="url(#clip201)" style="stroke:#3da44d; stroke-linecap:round; stroke-linejoin:round; stroke-width:8; stroke-opacity:1; fill:none" points="316.984,795.584 321.643,795.584 "/>
<polyline clip-path="url(#clip201)" style="stroke:#3da44d; stroke-linecap:round; stroke-linejoin:round; stroke-width:8; stroke-opacity:1; fill:none" points="321.643,795.584 328.631,795.584 "/>
<polyline clip-path="url(#clip201)" style="stroke:#3da44d; stroke-linecap:round; stroke-linejoin:round; stroke-width:8; stroke-opacity:1; fill:none" points="328.631,795.584 339.113,795.584 "/>
<polyline clip-path="url(#clip201)" style="stroke:#3da44d; stroke-linecap:round; stroke-linejoin:round; stroke-width:8; stroke-opacity:1; fill:none" points="339.113,795.584 354.836,795.584 "/>
<polyline clip-path="url(#clip201)" style="stroke:#3da44d; stroke-linecap:round; stroke-linejoin:round; stroke-width:8; stroke-opacity:1; fill:none" points="354.836,795.584 378.42,795.584 "/>
<polyline clip-path="url(#clip201)" style="stroke:#3da44d; stroke-linecap:round; stroke-linejoin:round; stroke-width:8; stroke-opacity:1; fill:none" points="378.42,795.584 413.796,795.584 "/>
<polyline clip-path="url(#clip201)" style="stroke:#3da44d; stroke-linecap:round; stroke-linejoin:round; stroke-width:8; stroke-opacity:1; fill:none" points="413.796,795.584 466.86,795.584 "/>
<polyline clip-path="url(#clip201)" style="stroke:#3da44d; stroke-linecap:round; stroke-linejoin:round; stroke-width:8; stroke-opacity:1; fill:none" points="466.86,795.584 546.457,795.584 "/>
<polyline clip-path="url(#clip201)" style="stroke:#3da44d; stroke-linecap:round; stroke-linejoin:round; stroke-width:8; stroke-opacity:1; fill:none" points="546.457,795.584 639.629,795.584 "/>
<polyline clip-path="url(#clip201)" style="stroke:#3da44d; stroke-linecap:round; stroke-linejoin:round; stroke-width:8; stroke-opacity:1; fill:none" points="639.629,795.584 732.801,795.584 "/>
<polyline clip-path="url(#clip201)" style="stroke:#3da44d; stroke-linecap:round; stroke-linejoin:round; stroke-width:8; stroke-opacity:1; fill:none" points="732.801,795.584 825.973,795.584 "/>
<polyline clip-path="url(#clip201)" style="stroke:#3da44d; stroke-linecap:round; stroke-linejoin:round; stroke-width:8; stroke-opacity:1; fill:none" points="825.973,795.584 919.145,795.584 "/>
<polyline clip-path="url(#clip201)" style="stroke:#3da44d; stroke-linecap:round; stroke-linejoin:round; stroke-width:8; stroke-opacity:1; fill:none" points="919.145,795.584 975.819,795.584 "/>
<polyline clip-path="url(#clip201)" style="stroke:#3da44d; stroke-linecap:round; stroke-linejoin:round; stroke-width:4; stroke-opacity:1; fill:none" points="975.819,795.584 1068.99,795.584 "/>
<polyline clip-path="url(#clip201)" style="stroke:#3da44d; stroke-linecap:round; stroke-linejoin:round; stroke-width:4; stroke-opacity:1; fill:none" points="1068.99,795.584 1162.16,795.584 "/>
<polyline clip-path="url(#clip201)" style="stroke:#3da44d; stroke-linecap:round; stroke-linejoin:round; stroke-width:4; stroke-opacity:1; fill:none" points="1162.16,795.584 1255.34,795.584 "/>
<polyline clip-path="url(#clip201)" style="stroke:#3da44d; stroke-linecap:round; stroke-linejoin:round; stroke-width:4; stroke-opacity:1; fill:none" points="1255.34,795.584 1348.51,795.584 "/>
<polyline clip-path="url(#clip201)" style="stroke:#3da44d; stroke-linecap:round; stroke-linejoin:round; stroke-width:4; stroke-opacity:1; fill:none" points="1348.51,795.584 1441.68,795.584 "/>
<polyline clip-path="url(#clip201)" style="stroke:#3da44d; stroke-linecap:round; stroke-linejoin:round; stroke-width:4; stroke-opacity:1; fill:none" points="1441.68,795.584 1534.85,795.584 "/>
<polyline clip-path="url(#clip201)" style="stroke:#3da44d; stroke-linecap:round; stroke-linejoin:round; stroke-width:4; stroke-opacity:1; fill:none" points="1534.85,795.584 1628.02,795.584 "/>
<polyline clip-path="url(#clip201)" style="stroke:#3da44d; stroke-linecap:round; stroke-linejoin:round; stroke-width:4; stroke-opacity:1; fill:none" points="1628.02,795.584 1721.2,795.584 "/>
<polyline clip-path="url(#clip201)" style="stroke:#3da44d; stroke-linecap:round; stroke-linejoin:round; stroke-width:4; stroke-opacity:1; fill:none" points="1721.2,795.584 1814.37,795.584 "/>
<polyline clip-path="url(#clip201)" style="stroke:#3da44d; stroke-linecap:round; stroke-linejoin:round; stroke-width:4; stroke-opacity:1; fill:none" points="1814.37,795.584 1907.54,795.584 "/>
<polyline clip-path="url(#clip201)" style="stroke:#3da44d; stroke-linecap:round; stroke-linejoin:round; stroke-width:4; stroke-opacity:1; fill:none" points="1907.54,795.584 2000.71,795.584 "/>
<polyline clip-path="url(#clip201)" style="stroke:#3da44d; stroke-linecap:round; stroke-linejoin:round; stroke-width:4; stroke-opacity:1; fill:none" points="2000.71,795.584 2093.88,795.584 "/>
<polyline clip-path="url(#clip201)" style="stroke:#3da44d; stroke-linecap:round; stroke-linejoin:round; stroke-width:4; stroke-opacity:1; fill:none" points="2093.88,795.584 2187.06,795.584 "/>
<polyline clip-path="url(#clip201)" style="stroke:#3da44d; stroke-linecap:round; stroke-linejoin:round; stroke-width:4; stroke-opacity:1; fill:none" points="2187.06,795.584 2280.23,795.584 "/>
<polyline clip-path="url(#clip201)" style="stroke:#3da44d; stroke-linecap:round; stroke-linejoin:round; stroke-width:4; stroke-opacity:1; fill:none" points="2280.23,795.584 2293.46,795.584 "/>
<circle clip-path="url(#clip201)" cx="975.819" cy="795.584" r="10.8" fill="#ff00ff" fill-rule="evenodd" fill-opacity="1" stroke="none"/>
<polyline clip-path="url(#clip201)" style="stroke:#ac8d18; stroke-linecap:round; stroke-linejoin:round; stroke-width:4; stroke-opacity:1; fill:none" points="975.819,795.584 975.81,795.584 "/>
<polyline clip-path="url(#clip201)" style="stroke:#ac8d18; stroke-linecap:round; stroke-linejoin:round; stroke-width:4; stroke-opacity:1; fill:none" points="975.81,795.584 972.494,791.224 "/>
<polyline clip-path="url(#clip201)" style="stroke:#ac8d18; stroke-linecap:round; stroke-linejoin:round; stroke-width:4; stroke-opacity:1; fill:none" points="972.494,791.224 968.017,785.017 "/>
<polyline clip-path="url(#clip201)" style="stroke:#ac8d18; stroke-linecap:round; stroke-linejoin:round; stroke-width:4; stroke-opacity:1; fill:none" points="968.017,785.017 962.108,776.133 "/>
<polyline clip-path="url(#clip201)" style="stroke:#ac8d18; stroke-linecap:round; stroke-linejoin:round; stroke-width:4; stroke-opacity:1; fill:none" points="962.108,776.133 954.626,763.336 "/>
<polyline clip-path="url(#clip201)" style="stroke:#ac8d18; stroke-linecap:round; stroke-linejoin:round; stroke-width:4; stroke-opacity:1; fill:none" points="954.626,763.336 945.925,744.751 "/>
<polyline clip-path="url(#clip201)" style="stroke:#ac8d18; stroke-linecap:round; stroke-linejoin:round; stroke-width:4; stroke-opacity:1; fill:none" points="945.925,744.751 937.82,717.576 "/>
<polyline clip-path="url(#clip201)" style="stroke:#ac8d18; stroke-linecap:round; stroke-linejoin:round; stroke-width:4; stroke-opacity:1; fill:none" points="937.82,717.576 935.198,691.001 "/>
<polyline clip-path="url(#clip201)" style="stroke:#ac8d18; stroke-linecap:round; stroke-linejoin:round; stroke-width:8; stroke-opacity:1; fill:none" points="935.198,691.001 944.969,639.702 "/>
<polyline clip-path="url(#clip201)" style="stroke:#ac8d18; stroke-linecap:round; stroke-linejoin:round; stroke-width:8; stroke-opacity:1; fill:none" points="944.969,639.702 987.929,571.832 "/>
<polyline clip-path="url(#clip201)" style="stroke:#ac8d18; stroke-linecap:round; stroke-linejoin:round; stroke-width:8; stroke-opacity:1; fill:none" points="987.929,571.832 1050.01,515.159 "/>
<polyline clip-path="url(#clip201)" style="stroke:#ac8d18; stroke-linecap:round; stroke-linejoin:round; stroke-width:8; stroke-opacity:1; fill:none" points="1050.01,515.159 1121.02,467.292 "/>
<polyline clip-path="url(#clip201)" style="stroke:#ac8d18; stroke-linecap:round; stroke-linejoin:round; stroke-width:8; stroke-opacity:1; fill:none" points="1121.02,467.292 1197.28,425.327 "/>
<polyline clip-path="url(#clip201)" style="stroke:#ac8d18; stroke-linecap:round; stroke-linejoin:round; stroke-width:8; stroke-opacity:1; fill:none" points="1197.28,425.327 1276.92,387.635 "/>
<polyline clip-path="url(#clip201)" style="stroke:#ac8d18; stroke-linecap:round; stroke-linejoin:round; stroke-width:8; stroke-opacity:1; fill:none" points="1276.92,387.635 1358.88,353.207 "/>
<polyline clip-path="url(#clip201)" style="stroke:#ac8d18; stroke-linecap:round; stroke-linejoin:round; stroke-width:8; stroke-opacity:1; fill:none" points="1358.88,353.207 1442.53,321.364 "/>
<polyline clip-path="url(#clip201)" style="stroke:#ac8d18; stroke-linecap:round; stroke-linejoin:round; stroke-width:8; stroke-opacity:1; fill:none" points="1442.53,321.364 1527.43,291.63 "/>
<polyline clip-path="url(#clip201)" style="stroke:#ac8d18; stroke-linecap:round; stroke-linejoin:round; stroke-width:8; stroke-opacity:1; fill:none" points="1527.43,291.63 1613.31,263.653 "/>
<polyline clip-path="url(#clip201)" style="stroke:#ac8d18; stroke-linecap:round; stroke-linejoin:round; stroke-width:8; stroke-opacity:1; fill:none" points="1613.31,263.653 1699.97,237.167 "/>
<polyline clip-path="url(#clip201)" style="stroke:#ac8d18; stroke-linecap:round; stroke-linejoin:round; stroke-width:8; stroke-opacity:1; fill:none" points="1699.97,237.167 1787.26,211.966 "/>
<polyline clip-path="url(#clip201)" style="stroke:#ac8d18; stroke-linecap:round; stroke-linejoin:round; stroke-width:8; stroke-opacity:1; fill:none" points="1787.26,211.966 1875.08,187.885 "/>
<polyline clip-path="url(#clip201)" style="stroke:#ac8d18; stroke-linecap:round; stroke-linejoin:round; stroke-width:8; stroke-opacity:1; fill:none" points="1875.08,187.885 1963.34,164.793 "/>
<polyline clip-path="url(#clip201)" style="stroke:#ac8d18; stroke-linecap:round; stroke-linejoin:round; stroke-width:8; stroke-opacity:1; fill:none" points="1963.34,164.793 2051.97,142.581 "/>
<polyline clip-path="url(#clip201)" style="stroke:#ac8d18; stroke-linecap:round; stroke-linejoin:round; stroke-width:8; stroke-opacity:1; fill:none" points="2051.97,142.581 2140.93,121.157 "/>
<polyline clip-path="url(#clip201)" style="stroke:#ac8d18; stroke-linecap:round; stroke-linejoin:round; stroke-width:8; stroke-opacity:1; fill:none" points="2140.93,121.157 2230.16,100.446 "/>
<polyline clip-path="url(#clip201)" style="stroke:#ac8d18; stroke-linecap:round; stroke-linejoin:round; stroke-width:8; stroke-opacity:1; fill:none" points="2230.16,100.446 2293.46,86.1857 "/>
<circle clip-path="url(#clip201)" cx="975.81" cy="795.584" r="10.8" fill="#ff00ff" fill-rule="evenodd" fill-opacity="1" stroke="none"/>
<circle clip-path="url(#clip201)" cx="935.198" cy="691.001" r="10.8" fill="#0000ff" fill-rule="evenodd" fill-opacity="1" stroke="none"/>
<polyline clip-path="url(#clip201)" style="stroke:#ed5d92; stroke-linecap:round; stroke-linejoin:round; stroke-width:4; stroke-opacity:1; fill:none" points="975.819,795.584 975.813,795.587 "/>
<polyline clip-path="url(#clip201)" style="stroke:#ed5d92; stroke-linecap:round; stroke-linejoin:round; stroke-width:4; stroke-opacity:1; fill:none" points="975.813,795.587 979.231,799.9 "/>
<polyline clip-path="url(#clip201)" style="stroke:#ed5d92; stroke-linecap:round; stroke-linejoin:round; stroke-width:4; stroke-opacity:1; fill:none" points="979.231,799.9 984.2,805.88 "/>
<polyline clip-path="url(#clip201)" style="stroke:#ed5d92; stroke-linecap:round; stroke-linejoin:round; stroke-width:4; stroke-opacity:1; fill:none" points="984.2,805.88 991.488,814.127 "/>
<polyline clip-path="url(#clip201)" style="stroke:#ed5d92; stroke-linecap:round; stroke-linejoin:round; stroke-width:4; stroke-opacity:1; fill:none" points="991.488,814.127 1002.28,825.415 "/>
<polyline clip-path="url(#clip201)" style="stroke:#ed5d92; stroke-linecap:round; stroke-linejoin:round; stroke-width:4; stroke-opacity:1; fill:none" points="1002.28,825.415 1018.41,840.706 "/>
<polyline clip-path="url(#clip201)" style="stroke:#ed5d92; stroke-linecap:round; stroke-linejoin:round; stroke-width:4; stroke-opacity:1; fill:none" points="1018.41,840.706 1042.68,861.14 "/>
<polyline clip-path="url(#clip201)" style="stroke:#ed5d92; stroke-linecap:round; stroke-linejoin:round; stroke-width:4; stroke-opacity:1; fill:none" points="1042.68,861.14 1078.1,887.18 "/>
<polyline clip-path="url(#clip201)" style="stroke:#ed5d92; stroke-linecap:round; stroke-linejoin:round; stroke-width:4; stroke-opacity:1; fill:none" points="1078.1,887.18 1129.58,919.803 "/>
<polyline clip-path="url(#clip201)" style="stroke:#ed5d92; stroke-linecap:round; stroke-linejoin:round; stroke-width:4; stroke-opacity:1; fill:none" points="1129.58,919.803 1203.83,959.978 "/>
<polyline clip-path="url(#clip201)" style="stroke:#ed5d92; stroke-linecap:round; stroke-linejoin:round; stroke-width:4; stroke-opacity:1; fill:none" points="1203.83,959.978 1283.69,997.36 "/>
<polyline clip-path="url(#clip201)" style="stroke:#ed5d92; stroke-linecap:round; stroke-linejoin:round; stroke-width:4; stroke-opacity:1; fill:none" points="1283.69,997.36 1365.82,1031.55 "/>
<polyline clip-path="url(#clip201)" style="stroke:#ed5d92; stroke-linecap:round; stroke-linejoin:round; stroke-width:4; stroke-opacity:1; fill:none" points="1365.82,1031.55 1449.58,1063.2 "/>
<polyline clip-path="url(#clip201)" style="stroke:#ed5d92; stroke-linecap:round; stroke-linejoin:round; stroke-width:4; stroke-opacity:1; fill:none" points="1449.58,1063.2 1534.58,1092.78 "/>
<polyline clip-path="url(#clip201)" style="stroke:#ed5d92; stroke-linecap:round; stroke-linejoin:round; stroke-width:4; stroke-opacity:1; fill:none" points="1534.58,1092.78 1620.53,1120.62 "/>
<polyline clip-path="url(#clip201)" style="stroke:#ed5d92; stroke-linecap:round; stroke-linejoin:round; stroke-width:4; stroke-opacity:1; fill:none" points="1620.53,1120.62 1707.25,1146.99 "/>
<polyline clip-path="url(#clip201)" style="stroke:#ed5d92; stroke-linecap:round; stroke-linejoin:round; stroke-width:4; stroke-opacity:1; fill:none" points="1707.25,1146.99 1794.59,1172.09 "/>
<polyline clip-path="url(#clip201)" style="stroke:#ed5d92; stroke-linecap:round; stroke-linejoin:round; stroke-width:4; stroke-opacity:1; fill:none" points="1794.59,1172.09 1882.45,1196.08 "/>
<polyline clip-path="url(#clip201)" style="stroke:#ed5d92; stroke-linecap:round; stroke-linejoin:round; stroke-width:4; stroke-opacity:1; fill:none" points="1882.45,1196.08 1970.74,1219.1 "/>
<polyline clip-path="url(#clip201)" style="stroke:#ed5d92; stroke-linecap:round; stroke-linejoin:round; stroke-width:4; stroke-opacity:1; fill:none" points="1970.74,1219.1 2059.4,1241.24 "/>
<polyline clip-path="url(#clip201)" style="stroke:#ed5d92; stroke-linecap:round; stroke-linejoin:round; stroke-width:4; stroke-opacity:1; fill:none" points="2059.4,1241.24 2148.38,1262.6 "/>
<polyline clip-path="url(#clip201)" style="stroke:#ed5d92; stroke-linecap:round; stroke-linejoin:round; stroke-width:4; stroke-opacity:1; fill:none" points="2148.38,1262.6 2237.64,1283.26 "/>
<polyline clip-path="url(#clip201)" style="stroke:#ed5d92; stroke-linecap:round; stroke-linejoin:round; stroke-width:4; stroke-opacity:1; fill:none" points="2237.64,1283.26 2293.46,1295.82 "/>
<circle clip-path="url(#clip201)" cx="975.813" cy="795.587" r="10.8" fill="#0000ff" fill-rule="evenodd" fill-opacity="1" stroke="none"/>
<polyline clip-path="url(#clip201)" style="stroke:#00a98d; stroke-linecap:round; stroke-linejoin:round; stroke-width:4; stroke-opacity:1; fill:none" points="975.819,795.584 975.808,795.584 "/>
<polyline clip-path="url(#clip201)" style="stroke:#00a98d; stroke-linecap:round; stroke-linejoin:round; stroke-width:4; stroke-opacity:1; fill:none" points="975.808,795.584 972.594,796.024 "/>
<polyline clip-path="url(#clip201)" style="stroke:#00a98d; stroke-linecap:round; stroke-linejoin:round; stroke-width:4; stroke-opacity:1; fill:none" points="972.594,796.024 968.249,796.65 "/>
<polyline clip-path="url(#clip201)" style="stroke:#00a98d; stroke-linecap:round; stroke-linejoin:round; stroke-width:4; stroke-opacity:1; fill:none" points="968.249,796.65 962.5,797.546 "/>
<polyline clip-path="url(#clip201)" style="stroke:#00a98d; stroke-linecap:round; stroke-linejoin:round; stroke-width:4; stroke-opacity:1; fill:none" points="962.5,797.546 955.188,798.834 "/>
<polyline clip-path="url(#clip201)" style="stroke:#00a98d; stroke-linecap:round; stroke-linejoin:round; stroke-width:4; stroke-opacity:1; fill:none" points="955.188,798.834 946.601,800.704 "/>
<polyline clip-path="url(#clip201)" style="stroke:#00a98d; stroke-linecap:round; stroke-linejoin:round; stroke-width:4; stroke-opacity:1; fill:none" points="946.601,800.704 938.358,803.437 "/>
<polyline clip-path="url(#clip201)" style="stroke:#00a98d; stroke-linecap:round; stroke-linejoin:round; stroke-width:4; stroke-opacity:1; fill:none" points="938.358,803.437 935.198,806.476 "/>
<polyline clip-path="url(#clip201)" style="stroke:#00a98d; stroke-linecap:round; stroke-linejoin:round; stroke-width:8; stroke-opacity:1; fill:none" points="935.198,806.476 944.372,811.651 "/>
<polyline clip-path="url(#clip201)" style="stroke:#00a98d; stroke-linecap:round; stroke-linejoin:round; stroke-width:8; stroke-opacity:1; fill:none" points="944.372,811.651 984.967,818.531 "/>
<polyline clip-path="url(#clip201)" style="stroke:#00a98d; stroke-linecap:round; stroke-linejoin:round; stroke-width:8; stroke-opacity:1; fill:none" points="984.967,818.531 1046.28,824.487 "/>
<polyline clip-path="url(#clip201)" style="stroke:#00a98d; stroke-linecap:round; stroke-linejoin:round; stroke-width:8; stroke-opacity:1; fill:none" points="1046.28,824.487 1116.92,829.512 "/>
<polyline clip-path="url(#clip201)" style="stroke:#00a98d; stroke-linecap:round; stroke-linejoin:round; stroke-width:8; stroke-opacity:1; fill:none" points="1116.92,829.512 1192.95,833.911 "/>
<polyline clip-path="url(#clip201)" style="stroke:#00a98d; stroke-linecap:round; stroke-linejoin:round; stroke-width:8; stroke-opacity:1; fill:none" points="1192.95,833.911 1272.43,837.858 "/>
<polyline clip-path="url(#clip201)" style="stroke:#00a98d; stroke-linecap:round; stroke-linejoin:round; stroke-width:8; stroke-opacity:1; fill:none" points="1272.43,837.858 1354.29,841.46 "/>
<polyline clip-path="url(#clip201)" style="stroke:#00a98d; stroke-linecap:round; stroke-linejoin:round; stroke-width:8; stroke-opacity:1; fill:none" points="1354.29,841.46 1437.85,844.789 "/>
<polyline clip-path="url(#clip201)" style="stroke:#00a98d; stroke-linecap:round; stroke-linejoin:round; stroke-width:8; stroke-opacity:1; fill:none" points="1437.85,844.789 1522.69,847.896 "/>
<polyline clip-path="url(#clip201)" style="stroke:#00a98d; stroke-linecap:round; stroke-linejoin:round; stroke-width:8; stroke-opacity:1; fill:none" points="1522.69,847.896 1608.52,850.819 "/>
<polyline clip-path="url(#clip201)" style="stroke:#00a98d; stroke-linecap:round; stroke-linejoin:round; stroke-width:8; stroke-opacity:1; fill:none" points="1608.52,850.819 1695.15,853.585 "/>
<polyline clip-path="url(#clip201)" style="stroke:#00a98d; stroke-linecap:round; stroke-linejoin:round; stroke-width:8; stroke-opacity:1; fill:none" points="1695.15,853.585 1782.41,856.216 "/>
<polyline clip-path="url(#clip201)" style="stroke:#00a98d; stroke-linecap:round; stroke-linejoin:round; stroke-width:8; stroke-opacity:1; fill:none" points="1782.41,856.216 1870.2,858.73 "/>
<polyline clip-path="url(#clip201)" style="stroke:#00a98d; stroke-linecap:round; stroke-linejoin:round; stroke-width:8; stroke-opacity:1; fill:none" points="1870.2,858.73 1958.43,861.14 "/>
<polyline clip-path="url(#clip201)" style="stroke:#00a98d; stroke-linecap:round; stroke-linejoin:round; stroke-width:8; stroke-opacity:1; fill:none" points="1958.43,861.14 2047.05,863.458 "/>
<polyline clip-path="url(#clip201)" style="stroke:#00a98d; stroke-linecap:round; stroke-linejoin:round; stroke-width:8; stroke-opacity:1; fill:none" points="2047.05,863.458 2135.98,865.693 "/>
<polyline clip-path="url(#clip201)" style="stroke:#00a98d; stroke-linecap:round; stroke-linejoin:round; stroke-width:8; stroke-opacity:1; fill:none" points="2135.98,865.693 2225.21,867.854 "/>
<polyline clip-path="url(#clip201)" style="stroke:#00a98d; stroke-linecap:round; stroke-linejoin:round; stroke-width:8; stroke-opacity:1; fill:none" points="2225.21,867.854 2293.46,869.457 "/>
<circle clip-path="url(#clip201)" cx="975.808" cy="795.584" r="10.8" fill="#0000ff" fill-rule="evenodd" fill-opacity="1" stroke="none"/>
<circle clip-path="url(#clip201)" cx="935.198" cy="806.476" r="10.8" fill="#0000ff" fill-rule="evenodd" fill-opacity="1" stroke="none"/>
<polyline clip-path="url(#clip201)" style="stroke:#00a8cb; stroke-linecap:round; stroke-linejoin:round; stroke-width:4; stroke-opacity:1; fill:none" points="975.819,795.584 975.815,794.513 "/>
<polyline clip-path="url(#clip201)" style="stroke:#00a8cb; stroke-linecap:round; stroke-linejoin:round; stroke-width:4; stroke-opacity:1; fill:none" points="975.815,794.513 975.841,798.436 "/>
<polyline clip-path="url(#clip201)" style="stroke:#00a8cb; stroke-linecap:round; stroke-linejoin:round; stroke-width:4; stroke-opacity:1; fill:none" points="975.841,798.436 976.088,804.129 "/>
<polyline clip-path="url(#clip201)" style="stroke:#00a8cb; stroke-linecap:round; stroke-linejoin:round; stroke-width:4; stroke-opacity:1; fill:none" points="976.088,804.129 976.883,812.382 "/>
<polyline clip-path="url(#clip201)" style="stroke:#00a8cb; stroke-linecap:round; stroke-linejoin:round; stroke-width:4; stroke-opacity:1; fill:none" points="976.883,812.382 978.868,823.942 "/>
<polyline clip-path="url(#clip201)" style="stroke:#00a8cb; stroke-linecap:round; stroke-linejoin:round; stroke-width:4; stroke-opacity:1; fill:none" points="978.868,823.942 983.333,840.063 "/>
<polyline clip-path="url(#clip201)" style="stroke:#00a8cb; stroke-linecap:round; stroke-linejoin:round; stroke-width:4; stroke-opacity:1; fill:none" points="983.333,840.063 992.763,862.354 "/>
<polyline clip-path="url(#clip201)" style="stroke:#00a8cb; stroke-linecap:round; stroke-linejoin:round; stroke-width:4; stroke-opacity:1; fill:none" points="992.763,862.354 1011.67,892.697 "/>
<polyline clip-path="url(#clip201)" style="stroke:#00a8cb; stroke-linecap:round; stroke-linejoin:round; stroke-width:4; stroke-opacity:1; fill:none" points="1011.67,892.697 1046.29,931.731 "/>
<polyline clip-path="url(#clip201)" style="stroke:#00a8cb; stroke-linecap:round; stroke-linejoin:round; stroke-width:4; stroke-opacity:1; fill:none" points="1046.29,931.731 1101.5,977.388 "/>
<polyline clip-path="url(#clip201)" style="stroke:#00a8cb; stroke-linecap:round; stroke-linejoin:round; stroke-width:4; stroke-opacity:1; fill:none" points="1101.5,977.388 1165.13,1018.71 "/>
<polyline clip-path="url(#clip201)" style="stroke:#00a8cb; stroke-linecap:round; stroke-linejoin:round; stroke-width:4; stroke-opacity:1; fill:none" points="1165.13,1018.71 1234.43,1056.37 "/>
<polyline clip-path="url(#clip201)" style="stroke:#00a8cb; stroke-linecap:round; stroke-linejoin:round; stroke-width:4; stroke-opacity:1; fill:none" points="1234.43,1056.37 1307.76,1091.04 "/>
<polyline clip-path="url(#clip201)" style="stroke:#00a8cb; stroke-linecap:round; stroke-linejoin:round; stroke-width:4; stroke-opacity:1; fill:none" points="1307.76,1091.04 1384.05,1123.24 "/>
<polyline clip-path="url(#clip201)" style="stroke:#00a8cb; stroke-linecap:round; stroke-linejoin:round; stroke-width:4; stroke-opacity:1; fill:none" points="1384.05,1123.24 1462.6,1153.38 "/>
<polyline clip-path="url(#clip201)" style="stroke:#00a8cb; stroke-linecap:round; stroke-linejoin:round; stroke-width:4; stroke-opacity:1; fill:none" points="1462.6,1153.38 1542.91,1181.76 "/>
<polyline clip-path="url(#clip201)" style="stroke:#00a8cb; stroke-linecap:round; stroke-linejoin:round; stroke-width:4; stroke-opacity:1; fill:none" points="1542.91,1181.76 1624.62,1208.65 "/>
<polyline clip-path="url(#clip201)" style="stroke:#00a8cb; stroke-linecap:round; stroke-linejoin:round; stroke-width:4; stroke-opacity:1; fill:none" points="1624.62,1208.65 1707.48,1234.23 "/>
<polyline clip-path="url(#clip201)" style="stroke:#00a8cb; stroke-linecap:round; stroke-linejoin:round; stroke-width:4; stroke-opacity:1; fill:none" points="1707.48,1234.23 1791.28,1258.67 "/>
<polyline clip-path="url(#clip201)" style="stroke:#00a8cb; stroke-linecap:round; stroke-linejoin:round; stroke-width:4; stroke-opacity:1; fill:none" points="1791.28,1258.67 1875.88,1282.1 "/>
<polyline clip-path="url(#clip201)" style="stroke:#00a8cb; stroke-linecap:round; stroke-linejoin:round; stroke-width:4; stroke-opacity:1; fill:none" points="1875.88,1282.1 1883.38,1284.12 "/>
<polyline clip-path="url(#clip201)" style="stroke:#00a8cb; stroke-linecap:round; stroke-linejoin:round; stroke-width:8; stroke-opacity:1; fill:none" points="1883.38,1284.12 1968.69,1306.57 "/>
<polyline clip-path="url(#clip201)" style="stroke:#00a8cb; stroke-linecap:round; stroke-linejoin:round; stroke-width:8; stroke-opacity:1; fill:none" points="1968.69,1306.57 2054.59,1328.22 "/>
<polyline clip-path="url(#clip201)" style="stroke:#00a8cb; stroke-linecap:round; stroke-linejoin:round; stroke-width:8; stroke-opacity:1; fill:none" points="2054.59,1328.22 2140.99,1349.13 "/>
<polyline clip-path="url(#clip201)" style="stroke:#00a8cb; stroke-linecap:round; stroke-linejoin:round; stroke-width:8; stroke-opacity:1; fill:none" points="2140.99,1349.13 2227.83,1369.39 "/>
<polyline clip-path="url(#clip201)" style="stroke:#00a8cb; stroke-linecap:round; stroke-linejoin:round; stroke-width:8; stroke-opacity:1; fill:none" points="2227.83,1369.39 2293.46,1384.24 "/>
<circle clip-path="url(#clip201)" cx="975.815" cy="794.513" r="10.8" fill="#ff00ff" fill-rule="evenodd" fill-opacity="1" stroke="none"/>
<circle clip-path="url(#clip201)" cx="1883.38" cy="1284.12" r="10.8" fill="#0000ff" fill-rule="evenodd" fill-opacity="1" stroke="none"/>
<polyline clip-path="url(#clip201)" style="stroke:#608cf6; stroke-linecap:round; stroke-linejoin:round; stroke-width:4; stroke-opacity:1; fill:none" points="975.819,795.584 975.815,796.409 "/>
<polyline clip-path="url(#clip201)" style="stroke:#608cf6; stroke-linecap:round; stroke-linejoin:round; stroke-width:4; stroke-opacity:1; fill:none" points="975.815,796.409 975.841,793.39 "/>
<polyline clip-path="url(#clip201)" style="stroke:#608cf6; stroke-linecap:round; stroke-linejoin:round; stroke-width:4; stroke-opacity:1; fill:none" points="975.841,793.39 976.088,789.009 "/>
<polyline clip-path="url(#clip201)" style="stroke:#608cf6; stroke-linecap:round; stroke-linejoin:round; stroke-width:4; stroke-opacity:1; fill:none" points="976.088,789.009 976.883,782.658 "/>
<polyline clip-path="url(#clip201)" style="stroke:#608cf6; stroke-linecap:round; stroke-linejoin:round; stroke-width:4; stroke-opacity:1; fill:none" points="976.883,782.658 978.868,773.763 "/>
<polyline clip-path="url(#clip201)" style="stroke:#608cf6; stroke-linecap:round; stroke-linejoin:round; stroke-width:4; stroke-opacity:1; fill:none" points="978.868,773.763 983.333,761.358 "/>
<polyline clip-path="url(#clip201)" style="stroke:#608cf6; stroke-linecap:round; stroke-linejoin:round; stroke-width:4; stroke-opacity:1; fill:none" points="983.333,761.358 992.763,744.204 "/>
<polyline clip-path="url(#clip201)" style="stroke:#608cf6; stroke-linecap:round; stroke-linejoin:round; stroke-width:4; stroke-opacity:1; fill:none" points="992.763,744.204 1011.67,720.856 "/>
<polyline clip-path="url(#clip201)" style="stroke:#608cf6; stroke-linecap:round; stroke-linejoin:round; stroke-width:4; stroke-opacity:1; fill:none" points="1011.67,720.856 1046.29,690.818 "/>
<polyline clip-path="url(#clip201)" style="stroke:#608cf6; stroke-linecap:round; stroke-linejoin:round; stroke-width:4; stroke-opacity:1; fill:none" points="1046.29,690.818 1101.5,655.685 "/>
<polyline clip-path="url(#clip201)" style="stroke:#608cf6; stroke-linecap:round; stroke-linejoin:round; stroke-width:4; stroke-opacity:1; fill:none" points="1101.5,655.685 1165.13,623.884 "/>
<polyline clip-path="url(#clip201)" style="stroke:#608cf6; stroke-linecap:round; stroke-linejoin:round; stroke-width:4; stroke-opacity:1; fill:none" points="1165.13,623.884 1234.43,594.904 "/>
<polyline clip-path="url(#clip201)" style="stroke:#608cf6; stroke-linecap:round; stroke-linejoin:round; stroke-width:4; stroke-opacity:1; fill:none" points="1234.43,594.904 1307.76,568.228 "/>
<polyline clip-path="url(#clip201)" style="stroke:#608cf6; stroke-linecap:round; stroke-linejoin:round; stroke-width:4; stroke-opacity:1; fill:none" points="1307.76,568.228 1384.05,543.451 "/>
<polyline clip-path="url(#clip201)" style="stroke:#608cf6; stroke-linecap:round; stroke-linejoin:round; stroke-width:4; stroke-opacity:1; fill:none" points="1384.05,543.451 1462.6,520.261 "/>
<polyline clip-path="url(#clip201)" style="stroke:#608cf6; stroke-linecap:round; stroke-linejoin:round; stroke-width:4; stroke-opacity:1; fill:none" points="1462.6,520.261 1542.91,498.416 "/>
<polyline clip-path="url(#clip201)" style="stroke:#608cf6; stroke-linecap:round; stroke-linejoin:round; stroke-width:4; stroke-opacity:1; fill:none" points="1542.91,498.416 1624.62,477.727 "/>
<polyline clip-path="url(#clip201)" style="stroke:#608cf6; stroke-linecap:round; stroke-linejoin:round; stroke-width:4; stroke-opacity:1; fill:none" points="1624.62,477.727 1707.48,458.041 "/>
<polyline clip-path="url(#clip201)" style="stroke:#608cf6; stroke-linecap:round; stroke-linejoin:round; stroke-width:4; stroke-opacity:1; fill:none" points="1707.48,458.041 1791.28,439.234 "/>
<polyline clip-path="url(#clip201)" style="stroke:#608cf6; stroke-linecap:round; stroke-linejoin:round; stroke-width:4; stroke-opacity:1; fill:none" points="1791.28,439.234 1875.88,421.206 "/>
<polyline clip-path="url(#clip201)" style="stroke:#608cf6; stroke-linecap:round; stroke-linejoin:round; stroke-width:4; stroke-opacity:1; fill:none" points="1875.88,421.206 1883.38,419.649 "/>
<polyline clip-path="url(#clip201)" style="stroke:#608cf6; stroke-linecap:round; stroke-linejoin:round; stroke-width:8; stroke-opacity:1; fill:none" points="1883.38,419.649 1968.69,402.376 "/>
<polyline clip-path="url(#clip201)" style="stroke:#608cf6; stroke-linecap:round; stroke-linejoin:round; stroke-width:8; stroke-opacity:1; fill:none" points="1968.69,402.376 2054.59,385.719 "/>
<polyline clip-path="url(#clip201)" style="stroke:#608cf6; stroke-linecap:round; stroke-linejoin:round; stroke-width:8; stroke-opacity:1; fill:none" points="2054.59,385.719 2140.99,369.623 "/>
<polyline clip-path="url(#clip201)" style="stroke:#608cf6; stroke-linecap:round; stroke-linejoin:round; stroke-width:8; stroke-opacity:1; fill:none" points="2140.99,369.623 2227.83,354.035 "/>
<polyline clip-path="url(#clip201)" style="stroke:#608cf6; stroke-linecap:round; stroke-linejoin:round; stroke-width:8; stroke-opacity:1; fill:none" points="2227.83,354.035 2293.46,342.61 "/>
<circle clip-path="url(#clip201)" cx="975.815" cy="796.409" r="10.8" fill="#ff00ff" fill-rule="evenodd" fill-opacity="1" stroke="none"/>
<circle clip-path="url(#clip201)" cx="1883.38" cy="419.649" r="10.8" fill="#0000ff" fill-rule="evenodd" fill-opacity="1" stroke="none"/>
<path clip-path="url(#clip200)" d="M327.526 248.629 L590.319 248.629 L590.319 93.1086 L327.526 93.1086  Z" fill="#ffffff" fill-rule="evenodd" fill-opacity="1"/>
<polyline clip-path="url(#clip200)" style="stroke:#000000; stroke-linecap:round; stroke-linejoin:round; stroke-width:4; stroke-opacity:1; fill:none" points="327.526,248.629 590.319,248.629 590.319,93.1086 327.526,93.1086 327.526,248.629 "/>
<circle clip-path="url(#clip200)" cx="420.64" cy="144.949" r="23.04" fill="#ff00ff" fill-rule="evenodd" fill-opacity="1" stroke="none"/>
<path clip-path="url(#clip200)" d="M535.467 146.581 L535.467 162.229 L531.207 162.229 L531.207 146.719 Q531.207 143.039 529.772 141.21 Q528.337 139.382 525.467 139.382 Q522.018 139.382 520.027 141.581 Q518.036 143.78 518.036 147.576 L518.036 162.229 L513.754 162.229 L513.754 136.303 L518.036 136.303 L518.036 140.331 Q519.564 137.993 521.624 136.835 Q523.707 135.678 526.416 135.678 Q530.883 135.678 533.175 138.456 Q535.467 141.21 535.467 146.581 Z" fill="#000000" fill-rule="nonzero" fill-opacity="1" /><path clip-path="url(#clip200)" d="M561.022 140.238 L561.022 126.21 L565.281 126.21 L565.281 162.229 L561.022 162.229 L561.022 158.34 Q559.679 160.655 557.619 161.789 Q555.582 162.9 552.712 162.9 Q548.013 162.9 545.05 159.15 Q542.11 155.4 542.11 149.289 Q542.11 143.178 545.05 139.428 Q548.013 135.678 552.712 135.678 Q555.582 135.678 557.619 136.812 Q559.679 137.923 561.022 140.238 M546.508 149.289 Q546.508 153.988 548.429 156.673 Q550.374 159.335 553.754 159.335 Q557.133 159.335 559.078 156.673 Q561.022 153.988 561.022 149.289 Q561.022 144.59 559.078 141.928 Q557.133 139.243 553.754 139.243 Q550.374 139.243 548.429 141.928 Q546.508 144.59 546.508 149.289 Z" fill="#000000" fill-rule="nonzero" fill-opacity="1" /><circle clip-path="url(#clip200)" cx="420.64" cy="196.789" r="23.04" fill="#0000ff" fill-rule="evenodd" fill-opacity="1" stroke="none"/>
<path clip-path="url(#clip200)" d="M532.527 201.129 Q532.527 196.43 530.582 193.768 Q528.661 191.083 525.281 191.083 Q521.902 191.083 519.957 193.768 Q518.036 196.43 518.036 201.129 Q518.036 205.828 519.957 208.513 Q521.902 211.175 525.281 211.175 Q528.661 211.175 530.582 208.513 Q532.527 205.828 532.527 201.129 M518.036 192.078 Q519.379 189.763 521.416 188.652 Q523.476 187.518 526.323 187.518 Q531.045 187.518 533.985 191.268 Q536.948 195.018 536.948 201.129 Q536.948 207.24 533.985 210.99 Q531.045 214.74 526.323 214.74 Q523.476 214.74 521.416 213.629 Q519.379 212.495 518.036 210.18 L518.036 214.069 L513.754 214.069 L513.754 178.05 L518.036 178.05 L518.036 192.078 Z" fill="#000000" fill-rule="nonzero" fill-opacity="1" /><path clip-path="url(#clip200)" d="M548.129 210.18 L548.129 223.93 L543.846 223.93 L543.846 188.143 L548.129 188.143 L548.129 192.078 Q549.471 189.763 551.508 188.652 Q553.568 187.518 556.416 187.518 Q561.138 187.518 564.078 191.268 Q567.04 195.018 567.04 201.129 Q567.04 207.24 564.078 210.99 Q561.138 214.74 556.416 214.74 Q553.568 214.74 551.508 213.629 Q549.471 212.495 548.129 210.18 M562.619 201.129 Q562.619 196.43 560.675 193.768 Q558.753 191.083 555.374 191.083 Q551.994 191.083 550.05 193.768 Q548.129 196.43 548.129 201.129 Q548.129 205.828 550.05 208.513 Q551.994 211.175 555.374 211.175 Q558.753 211.175 560.675 208.513 Q562.619 205.828 562.619 201.129 Z" fill="#000000" fill-rule="nonzero" fill-opacity="1" /></svg>
