<?xml version="1.0" encoding="utf-8"?>
<svg xmlns="http://www.w3.org/2000/svg" xmlns:xlink="http://www.w3.org/1999/xlink" width="600" height="400" viewBox="0 0 2400 1600">
<defs>
  <clipPath id="clip140">
    <rect x="0" y="0" width="2400" height="1600"/>
  </clipPath>
</defs>
<path clip-path="url(#clip140)" d="M0 1600 L2400 1600 L2400 0 L0 0  Z" fill="#ffffff" fill-rule="evenodd" fill-opacity="1"/>
<defs>
  <clipPath id="clip141">
    <rect x="480" y="0" width="1681" height="1600"/>
  </clipPath>
</defs>
<path clip-path="url(#clip140)" d="M279.704 1423.18 L2352.76 1423.18 L2352.76 47.2441 L279.704 47.2441  Z" fill="#ffffff" fill-rule="evenodd" fill-opacity="1"/>
<defs>
  <clipPath id="clip142">
    <rect x="279" y="47" width="2074" height="1377"/>
  </clipPath>
</defs>
<polyline clip-path="url(#clip142)" style="stroke:#000000; stroke-linecap:round; stroke-linejoin:round; stroke-width:2; stroke-opacity:0.1; fill:none" points="399.324,1423.18 399.324,47.2441 "/>
<polyline clip-path="url(#clip142)" style="stroke:#000000; stroke-linecap:round; stroke-linejoin:round; stroke-width:2; stroke-opacity:0.1; fill:none" points="811.259,1423.18 811.259,47.2441 "/>
<polyline clip-path="url(#clip142)" style="stroke:#000000; stroke-linecap:round; stroke-linejoin:round; stroke-width:2; stroke-opacity:0.1; fill:none" points="1223.19,1423.18 1223.19,47.2441 "/>
<polyline clip-path="url(#clip142)" style="stroke:#000000; stroke-linecap:round; stroke-linejoin:round; stroke-width:2; stroke-opacity:0.1; fill:none" points="1635.13,1423.18 1635.13,47.2441 "/>
<polyline clip-path="url(#clip142)" style="stroke:#000000; stroke-linecap:round; stroke-linejoin:round; stroke-width:2; stroke-opacity:0.1; fill:none" points="2047.06,1423.18 2047.06,47.2441 "/>
<polyline clip-path="url(#clip142)" style="stroke:#000000; stroke-linecap:round; stroke-linejoin:round; stroke-width:2; stroke-opacity:0.1; fill:none" points="279.704,1163.4 2352.76,1163.4 "/>
<polyline clip-path="url(#clip142)" style="stroke:#000000; stroke-linecap:round; stroke-linejoin:round; stroke-width:2; stroke-opacity:0.1; fill:none" points="279.704,886.637 2352.76,886.637 "/>
<polyline clip-path="url(#clip142)" style="stroke:#000000; stroke-linecap:round; stroke-linejoin:round; stroke-width:2; stroke-opacity:0.1; fill:none" points="279.704,609.875 2352.76,609.875 "/>
<polyline clip-path="url(#clip142)" style="stroke:#000000; stroke-linecap:round; stroke-linejoin:round; stroke-width:2; stroke-opacity:0.1; fill:none" points="279.704,333.113 2352.76,333.113 "/>
<polyline clip-path="url(#clip142)" style="stroke:#000000; stroke-linecap:round; stroke-linejoin:round; stroke-width:2; stroke-opacity:0.1; fill:none" points="279.704,56.3512 2352.76,56.3512 "/>
<polyline clip-path="url(#clip140)" style="stroke:#000000; stroke-linecap:round; stroke-linejoin:round; stroke-width:4; stroke-opacity:1; fill:none" points="279.704,1423.18 2352.76,1423.18 "/>
<polyline clip-path="url(#clip140)" style="stroke:#000000; stroke-linecap:round; stroke-linejoin:round; stroke-width:4; stroke-opacity:1; fill:none" points="399.324,1423.18 399.324,1404.28 "/>
<polyline clip-path="url(#clip140)" style="stroke:#000000; stroke-linecap:round; stroke-linejoin:round; stroke-width:4; stroke-opacity:1; fill:none" points="811.259,1423.18 811.259,1404.28 "/>
<polyline clip-path="url(#clip140)" style="stroke:#000000; stroke-linecap:round; stroke-linejoin:round; stroke-width:4; stroke-opacity:1; fill:none" points="1223.19,1423.18 1223.19,1404.28 "/>
<polyline clip-path="url(#clip140)" style="stroke:#000000; stroke-linecap:round; stroke-linejoin:round; stroke-width:4; stroke-opacity:1; fill:none" points="1635.13,1423.18 1635.13,1404.28 "/>
<polyline clip-path="url(#clip140)" style="stroke:#000000; stroke-linecap:round; stroke-linejoin:round; stroke-width:4; stroke-opacity:1; fill:none" points="2047.06,1423.18 2047.06,1404.28 "/>
<path clip-path="url(#clip140)" d="M347.044 1454.1 Q343.433 1454.1 341.604 1457.66 Q339.799 1461.2 339.799 1468.33 Q339.799 1475.44 341.604 1479.01 Q343.433 1482.55 347.044 1482.55 Q350.678 1482.55 352.484 1479.01 Q354.313 1475.44 354.313 1468.33 Q354.313 1461.2 352.484 1457.66 Q350.678 1454.1 347.044 1454.1 M347.044 1450.39 Q352.854 1450.39 355.91 1455 Q358.989 1459.58 358.989 1468.33 Q358.989 1477.06 355.91 1481.67 Q352.854 1486.25 347.044 1486.25 Q341.234 1486.25 338.155 1481.67 Q335.1 1477.06 335.1 1468.33 Q335.1 1459.58 338.155 1455 Q341.234 1450.39 347.044 1450.39 Z" fill="#000000" fill-rule="nonzero" fill-opacity="1" /><path clip-path="url(#clip140)" d="M367.206 1479.7 L372.09 1479.7 L372.09 1485.58 L367.206 1485.58 L367.206 1479.7 Z" fill="#000000" fill-rule="nonzero" fill-opacity="1" /><path clip-path="url(#clip140)" d="M386.303 1481.64 L402.623 1481.64 L402.623 1485.58 L380.678 1485.58 L380.678 1481.64 Q383.34 1478.89 387.924 1474.26 Q392.53 1469.61 393.711 1468.27 Q395.956 1465.74 396.836 1464.01 Q397.738 1462.25 397.738 1460.56 Q397.738 1457.8 395.794 1456.07 Q393.873 1454.33 390.771 1454.33 Q388.572 1454.33 386.118 1455.09 Q383.688 1455.86 380.91 1457.41 L380.91 1452.69 Q383.734 1451.55 386.188 1450.97 Q388.641 1450.39 390.678 1450.39 Q396.049 1450.39 399.243 1453.08 Q402.437 1455.77 402.437 1460.26 Q402.437 1462.39 401.627 1464.31 Q400.84 1466.2 398.734 1468.8 Q398.155 1469.47 395.053 1472.69 Q391.951 1475.88 386.303 1481.64 Z" fill="#000000" fill-rule="nonzero" fill-opacity="1" /><path clip-path="url(#clip140)" d="M416.465 1481.64 L432.785 1481.64 L432.785 1485.58 L410.84 1485.58 L410.84 1481.64 Q413.502 1478.89 418.086 1474.26 Q422.692 1469.61 423.873 1468.27 Q426.118 1465.74 426.998 1464.01 Q427.9 1462.25 427.9 1460.56 Q427.9 1457.8 425.956 1456.07 Q424.035 1454.33 420.933 1454.33 Q418.734 1454.33 416.28 1455.09 Q413.849 1455.86 411.072 1457.41 L411.072 1452.69 Q413.896 1451.55 416.349 1450.97 Q418.803 1450.39 420.84 1450.39 Q426.21 1450.39 429.405 1453.08 Q432.599 1455.77 432.599 1460.26 Q432.599 1462.39 431.789 1464.31 Q431.002 1466.2 428.896 1468.8 Q428.317 1469.47 425.215 1472.69 Q422.113 1475.88 416.465 1481.64 Z" fill="#000000" fill-rule="nonzero" fill-opacity="1" /><path clip-path="url(#clip140)" d="M442.646 1451.02 L461.002 1451.02 L461.002 1454.96 L446.928 1454.96 L446.928 1463.43 Q447.946 1463.08 448.965 1462.92 Q449.984 1462.73 451.002 1462.73 Q456.789 1462.73 460.169 1465.9 Q463.548 1469.08 463.548 1474.49 Q463.548 1480.07 460.076 1483.17 Q456.604 1486.25 450.284 1486.25 Q448.109 1486.25 445.84 1485.88 Q443.595 1485.51 441.187 1484.77 L441.187 1480.07 Q443.271 1481.2 445.493 1481.76 Q447.715 1482.32 450.192 1482.32 Q454.196 1482.32 456.534 1480.21 Q458.872 1478.1 458.872 1474.49 Q458.872 1470.88 456.534 1468.77 Q454.196 1466.67 450.192 1466.67 Q448.317 1466.67 446.442 1467.08 Q444.59 1467.5 442.646 1468.38 L442.646 1451.02 Z" fill="#000000" fill-rule="nonzero" fill-opacity="1" /><path clip-path="url(#clip140)" d="M758.481 1454.1 Q754.87 1454.1 753.041 1457.66 Q751.236 1461.2 751.236 1468.33 Q751.236 1475.44 753.041 1479.01 Q754.87 1482.55 758.481 1482.55 Q762.115 1482.55 763.921 1479.01 Q765.75 1475.44 765.75 1468.33 Q765.75 1461.2 763.921 1457.66 Q762.115 1454.1 758.481 1454.1 M758.481 1450.39 Q764.291 1450.39 767.347 1455 Q770.425 1459.58 770.425 1468.33 Q770.425 1477.06 767.347 1481.67 Q764.291 1486.25 758.481 1486.25 Q752.671 1486.25 749.592 1481.67 Q746.537 1477.06 746.537 1468.33 Q746.537 1459.58 749.592 1455 Q752.671 1450.39 758.481 1450.39 Z" fill="#000000" fill-rule="nonzero" fill-opacity="1" /><path clip-path="url(#clip140)" d="M778.643 1479.7 L783.527 1479.7 L783.527 1485.58 L778.643 1485.58 L778.643 1479.7 Z" fill="#000000" fill-rule="nonzero" fill-opacity="1" /><path clip-path="url(#clip140)" d="M797.74 1481.64 L814.059 1481.64 L814.059 1485.58 L792.115 1485.58 L792.115 1481.64 Q794.777 1478.89 799.36 1474.26 Q803.967 1469.61 805.147 1468.27 Q807.393 1465.74 808.272 1464.01 Q809.175 1462.25 809.175 1460.56 Q809.175 1457.8 807.231 1456.07 Q805.309 1454.33 802.208 1454.33 Q800.009 1454.33 797.555 1455.09 Q795.124 1455.86 792.347 1457.41 L792.347 1452.69 Q795.171 1451.55 797.624 1450.97 Q800.078 1450.39 802.115 1450.39 Q807.485 1450.39 810.68 1453.08 Q813.874 1455.77 813.874 1460.26 Q813.874 1462.39 813.064 1464.31 Q812.277 1466.2 810.171 1468.8 Q809.592 1469.47 806.49 1472.69 Q803.388 1475.88 797.74 1481.64 Z" fill="#000000" fill-rule="nonzero" fill-opacity="1" /><path clip-path="url(#clip140)" d="M823.921 1451.02 L842.277 1451.02 L842.277 1454.96 L828.203 1454.96 L828.203 1463.43 Q829.221 1463.08 830.24 1462.92 Q831.258 1462.73 832.277 1462.73 Q838.064 1462.73 841.444 1465.9 Q844.823 1469.08 844.823 1474.49 Q844.823 1480.07 841.351 1483.17 Q837.879 1486.25 831.559 1486.25 Q829.383 1486.25 827.115 1485.88 Q824.87 1485.51 822.462 1484.77 L822.462 1480.07 Q824.546 1481.2 826.768 1481.76 Q828.99 1482.32 831.467 1482.32 Q835.471 1482.32 837.809 1480.21 Q840.147 1478.1 840.147 1474.49 Q840.147 1470.88 837.809 1468.77 Q835.471 1466.67 831.467 1466.67 Q829.592 1466.67 827.717 1467.08 Q825.865 1467.5 823.921 1468.38 L823.921 1451.02 Z" fill="#000000" fill-rule="nonzero" fill-opacity="1" /><path clip-path="url(#clip140)" d="M864.036 1454.1 Q860.425 1454.1 858.596 1457.66 Q856.791 1461.2 856.791 1468.33 Q856.791 1475.44 858.596 1479.01 Q860.425 1482.55 864.036 1482.55 Q867.67 1482.55 869.476 1479.01 Q871.305 1475.44 871.305 1468.33 Q871.305 1461.2 869.476 1457.66 Q867.67 1454.1 864.036 1454.1 M864.036 1450.39 Q869.846 1450.39 872.902 1455 Q875.98 1459.58 875.98 1468.33 Q875.98 1477.06 872.902 1481.67 Q869.846 1486.25 864.036 1486.25 Q858.226 1486.25 855.147 1481.67 Q852.092 1477.06 852.092 1468.33 Q852.092 1459.58 855.147 1455 Q858.226 1450.39 864.036 1450.39 Z" fill="#000000" fill-rule="nonzero" fill-opacity="1" /><path clip-path="url(#clip140)" d="M1170.91 1454.1 Q1167.3 1454.1 1165.47 1457.66 Q1163.67 1461.2 1163.67 1468.33 Q1163.67 1475.44 1165.47 1479.01 Q1167.3 1482.55 1170.91 1482.55 Q1174.55 1482.55 1176.35 1479.01 Q1178.18 1475.44 1178.18 1468.33 Q1178.18 1461.2 1176.35 1457.66 Q1174.55 1454.1 1170.91 1454.1 M1170.91 1450.39 Q1176.72 1450.39 1179.78 1455 Q1182.86 1459.58 1182.86 1468.33 Q1182.86 1477.06 1179.78 1481.67 Q1176.72 1486.25 1170.91 1486.25 Q1165.1 1486.25 1162.02 1481.67 Q1158.97 1477.06 1158.97 1468.33 Q1158.97 1459.58 1162.02 1455 Q1165.1 1450.39 1170.91 1450.39 Z" fill="#000000" fill-rule="nonzero" fill-opacity="1" /><path clip-path="url(#clip140)" d="M1191.08 1479.7 L1195.96 1479.7 L1195.96 1485.58 L1191.08 1485.58 L1191.08 1479.7 Z" fill="#000000" fill-rule="nonzero" fill-opacity="1" /><path clip-path="url(#clip140)" d="M1210.17 1481.64 L1226.49 1481.64 L1226.49 1485.58 L1204.55 1485.58 L1204.55 1481.64 Q1207.21 1478.89 1211.79 1474.26 Q1216.4 1469.61 1217.58 1468.27 Q1219.82 1465.74 1220.7 1464.01 Q1221.61 1462.25 1221.61 1460.56 Q1221.61 1457.8 1219.66 1456.07 Q1217.74 1454.33 1214.64 1454.33 Q1212.44 1454.33 1209.99 1455.09 Q1207.56 1455.86 1204.78 1457.41 L1204.78 1452.69 Q1207.6 1451.55 1210.06 1450.97 Q1212.51 1450.39 1214.55 1450.39 Q1219.92 1450.39 1223.11 1453.08 Q1226.31 1455.77 1226.31 1460.26 Q1226.31 1462.39 1225.5 1464.31 Q1224.71 1466.2 1222.6 1468.8 Q1222.02 1469.47 1218.92 1472.69 Q1215.82 1475.88 1210.17 1481.64 Z" fill="#000000" fill-rule="nonzero" fill-opacity="1" /><path clip-path="url(#clip140)" d="M1235.13 1451.02 L1257.35 1451.02 L1257.35 1453.01 L1244.8 1485.58 L1239.92 1485.58 L1251.72 1454.96 L1235.13 1454.96 L1235.13 1451.02 Z" fill="#000000" fill-rule="nonzero" fill-opacity="1" /><path clip-path="url(#clip140)" d="M1266.51 1451.02 L1284.87 1451.02 L1284.87 1454.96 L1270.8 1454.96 L1270.8 1463.43 Q1271.82 1463.08 1272.83 1462.92 Q1273.85 1462.73 1274.87 1462.73 Q1280.66 1462.73 1284.04 1465.9 Q1287.42 1469.08 1287.42 1474.49 Q1287.42 1480.07 1283.94 1483.17 Q1280.47 1486.25 1274.15 1486.25 Q1271.98 1486.25 1269.71 1485.88 Q1267.46 1485.51 1265.06 1484.77 L1265.06 1480.07 Q1267.14 1481.2 1269.36 1481.76 Q1271.58 1482.32 1274.06 1482.32 Q1278.07 1482.32 1280.4 1480.21 Q1282.74 1478.1 1282.74 1474.49 Q1282.74 1470.88 1280.4 1468.77 Q1278.07 1466.67 1274.06 1466.67 Q1272.19 1466.67 1270.31 1467.08 Q1268.46 1467.5 1266.51 1468.38 L1266.51 1451.02 Z" fill="#000000" fill-rule="nonzero" fill-opacity="1" /><path clip-path="url(#clip140)" d="M1582.35 1454.1 Q1578.74 1454.1 1576.91 1457.66 Q1575.1 1461.2 1575.1 1468.33 Q1575.1 1475.44 1576.91 1479.01 Q1578.74 1482.55 1582.35 1482.55 Q1585.98 1482.55 1587.79 1479.01 Q1589.62 1475.44 1589.62 1468.33 Q1589.62 1461.2 1587.79 1457.66 Q1585.98 1454.1 1582.35 1454.1 M1582.35 1450.39 Q1588.16 1450.39 1591.22 1455 Q1594.29 1459.58 1594.29 1468.33 Q1594.29 1477.06 1591.22 1481.67 Q1588.16 1486.25 1582.35 1486.25 Q1576.54 1486.25 1573.46 1481.67 Q1570.41 1477.06 1570.41 1468.33 Q1570.41 1459.58 1573.46 1455 Q1576.54 1450.39 1582.35 1450.39 Z" fill="#000000" fill-rule="nonzero" fill-opacity="1" /><path clip-path="url(#clip140)" d="M1602.51 1479.7 L1607.4 1479.7 L1607.4 1485.58 L1602.51 1485.58 L1602.51 1479.7 Z" fill="#000000" fill-rule="nonzero" fill-opacity="1" /><path clip-path="url(#clip140)" d="M1631.75 1466.95 Q1635.1 1467.66 1636.98 1469.93 Q1638.88 1472.2 1638.88 1475.53 Q1638.88 1480.65 1635.36 1483.45 Q1631.84 1486.25 1625.36 1486.25 Q1623.18 1486.25 1620.87 1485.81 Q1618.58 1485.39 1616.12 1484.54 L1616.12 1480.02 Q1618.07 1481.16 1620.38 1481.74 Q1622.7 1482.32 1625.22 1482.32 Q1629.62 1482.32 1631.91 1480.58 Q1634.22 1478.84 1634.22 1475.53 Q1634.22 1472.48 1632.07 1470.77 Q1629.94 1469.03 1626.12 1469.03 L1622.1 1469.03 L1622.1 1465.19 L1626.31 1465.19 Q1629.76 1465.19 1631.59 1463.82 Q1633.41 1462.43 1633.41 1459.84 Q1633.41 1457.18 1631.52 1455.77 Q1629.64 1454.33 1626.12 1454.33 Q1624.2 1454.33 1622 1454.75 Q1619.8 1455.16 1617.16 1456.04 L1617.16 1451.88 Q1619.83 1451.14 1622.14 1450.77 Q1624.48 1450.39 1626.54 1450.39 Q1631.86 1450.39 1634.97 1452.83 Q1638.07 1455.23 1638.07 1459.35 Q1638.07 1462.22 1636.42 1464.21 Q1634.78 1466.18 1631.75 1466.95 Z" fill="#000000" fill-rule="nonzero" fill-opacity="1" /><path clip-path="url(#clip140)" d="M1657.74 1454.1 Q1654.13 1454.1 1652.3 1457.66 Q1650.5 1461.2 1650.5 1468.33 Q1650.5 1475.44 1652.3 1479.01 Q1654.13 1482.55 1657.74 1482.55 Q1661.38 1482.55 1663.18 1479.01 Q1665.01 1475.44 1665.01 1468.33 Q1665.01 1461.2 1663.18 1457.66 Q1661.38 1454.1 1657.74 1454.1 M1657.74 1450.39 Q1663.55 1450.39 1666.61 1455 Q1669.69 1459.58 1669.69 1468.33 Q1669.69 1477.06 1666.61 1481.67 Q1663.55 1486.25 1657.74 1486.25 Q1651.93 1486.25 1648.85 1481.67 Q1645.8 1477.06 1645.8 1468.33 Q1645.8 1459.58 1648.85 1455 Q1651.93 1450.39 1657.74 1450.39 Z" fill="#000000" fill-rule="nonzero" fill-opacity="1" /><path clip-path="url(#clip140)" d="M1687.9 1454.1 Q1684.29 1454.1 1682.47 1457.66 Q1680.66 1461.2 1680.66 1468.33 Q1680.66 1475.44 1682.47 1479.01 Q1684.29 1482.55 1687.9 1482.55 Q1691.54 1482.55 1693.34 1479.01 Q1695.17 1475.44 1695.17 1468.33 Q1695.17 1461.2 1693.34 1457.66 Q1691.54 1454.1 1687.9 1454.1 M1687.9 1450.39 Q1693.72 1450.39 1696.77 1455 Q1699.85 1459.58 1699.85 1468.33 Q1699.85 1477.06 1696.77 1481.67 Q1693.72 1486.25 1687.9 1486.25 Q1682.09 1486.25 1679.02 1481.67 Q1675.96 1477.06 1675.96 1468.33 Q1675.96 1459.58 1679.02 1455 Q1682.09 1450.39 1687.9 1450.39 Z" fill="#000000" fill-rule="nonzero" fill-opacity="1" /><path clip-path="url(#clip140)" d="M1994.78 1454.1 Q1991.17 1454.1 1989.34 1457.66 Q1987.54 1461.2 1987.54 1468.33 Q1987.54 1475.44 1989.34 1479.01 Q1991.17 1482.55 1994.78 1482.55 Q1998.42 1482.55 2000.22 1479.01 Q2002.05 1475.44 2002.05 1468.33 Q2002.05 1461.2 2000.22 1457.66 Q1998.42 1454.1 1994.78 1454.1 M1994.78 1450.39 Q2000.59 1450.39 2003.65 1455 Q2006.73 1459.58 2006.73 1468.33 Q2006.73 1477.06 2003.65 1481.67 Q2000.59 1486.25 1994.78 1486.25 Q1988.97 1486.25 1985.89 1481.67 Q1982.84 1477.06 1982.84 1468.33 Q1982.84 1459.58 1985.89 1455 Q1988.97 1450.39 1994.78 1450.39 Z" fill="#000000" fill-rule="nonzero" fill-opacity="1" /><path clip-path="url(#clip140)" d="M2014.94 1479.7 L2019.83 1479.7 L2019.83 1485.58 L2014.94 1485.58 L2014.94 1479.7 Z" fill="#000000" fill-rule="nonzero" fill-opacity="1" /><path clip-path="url(#clip140)" d="M2044.18 1466.95 Q2047.54 1467.66 2049.41 1469.93 Q2051.31 1472.2 2051.31 1475.53 Q2051.31 1480.65 2047.79 1483.45 Q2044.27 1486.25 2037.79 1486.25 Q2035.62 1486.25 2033.3 1485.81 Q2031.01 1485.39 2028.56 1484.54 L2028.56 1480.02 Q2030.5 1481.16 2032.81 1481.74 Q2035.13 1482.32 2037.65 1482.32 Q2042.05 1482.32 2044.34 1480.58 Q2046.66 1478.84 2046.66 1475.53 Q2046.66 1472.48 2044.5 1470.77 Q2042.37 1469.03 2038.56 1469.03 L2034.53 1469.03 L2034.53 1465.19 L2038.74 1465.19 Q2042.19 1465.19 2044.02 1463.82 Q2045.85 1462.43 2045.85 1459.84 Q2045.85 1457.18 2043.95 1455.77 Q2042.07 1454.33 2038.56 1454.33 Q2036.63 1454.33 2034.43 1454.75 Q2032.24 1455.16 2029.6 1456.04 L2029.6 1451.88 Q2032.26 1451.14 2034.57 1450.77 Q2036.91 1450.39 2038.97 1450.39 Q2044.3 1450.39 2047.4 1452.83 Q2050.5 1455.23 2050.5 1459.35 Q2050.5 1462.22 2048.86 1464.21 Q2047.21 1466.18 2044.18 1466.95 Z" fill="#000000" fill-rule="nonzero" fill-opacity="1" /><path clip-path="url(#clip140)" d="M2064.2 1481.64 L2080.52 1481.64 L2080.52 1485.58 L2058.58 1485.58 L2058.58 1481.64 Q2061.24 1478.89 2065.82 1474.26 Q2070.43 1469.61 2071.61 1468.27 Q2073.86 1465.74 2074.74 1464.01 Q2075.64 1462.25 2075.64 1460.56 Q2075.64 1457.8 2073.69 1456.07 Q2071.77 1454.33 2068.67 1454.33 Q2066.47 1454.33 2064.02 1455.09 Q2061.59 1455.86 2058.81 1457.41 L2058.81 1452.69 Q2061.63 1451.55 2064.09 1450.97 Q2066.54 1450.39 2068.58 1450.39 Q2073.95 1450.39 2077.14 1453.08 Q2080.34 1455.77 2080.34 1460.26 Q2080.34 1462.39 2079.53 1464.31 Q2078.74 1466.2 2076.63 1468.8 Q2076.05 1469.47 2072.95 1472.69 Q2069.85 1475.88 2064.2 1481.64 Z" fill="#000000" fill-rule="nonzero" fill-opacity="1" /><path clip-path="url(#clip140)" d="M2090.38 1451.02 L2108.74 1451.02 L2108.74 1454.96 L2094.67 1454.96 L2094.67 1463.43 Q2095.68 1463.08 2096.7 1462.92 Q2097.72 1462.73 2098.74 1462.73 Q2104.53 1462.73 2107.91 1465.9 Q2111.29 1469.08 2111.29 1474.49 Q2111.29 1480.07 2107.81 1483.17 Q2104.34 1486.25 2098.02 1486.25 Q2095.85 1486.25 2093.58 1485.88 Q2091.33 1485.51 2088.93 1484.77 L2088.93 1480.07 Q2091.01 1481.2 2093.23 1481.76 Q2095.45 1482.32 2097.93 1482.32 Q2101.93 1482.32 2104.27 1480.21 Q2106.61 1478.1 2106.61 1474.49 Q2106.61 1470.88 2104.27 1468.77 Q2101.93 1466.67 2097.93 1466.67 Q2096.05 1466.67 2094.18 1467.08 Q2092.33 1467.5 2090.38 1468.38 L2090.38 1451.02 Z" fill="#000000" fill-rule="nonzero" fill-opacity="1" /><path clip-path="url(#clip140)" d="M1305.74 1550.25 Q1305.74 1543.79 1303.07 1540.13 Q1300.43 1536.44 1295.78 1536.44 Q1291.13 1536.44 1288.46 1540.13 Q1285.82 1543.79 1285.82 1550.25 Q1285.82 1556.71 1288.46 1560.4 Q1291.13 1564.07 1295.78 1564.07 Q1300.43 1564.07 1303.07 1560.4 Q1305.74 1556.71 1305.74 1550.25 M1285.82 1537.81 Q1287.66 1534.62 1290.46 1533.1 Q1293.3 1531.54 1297.21 1531.54 Q1303.71 1531.54 1307.75 1536.69 Q1311.82 1541.85 1311.82 1550.25 Q1311.82 1558.65 1307.75 1563.81 Q1303.71 1568.97 1297.21 1568.97 Q1293.3 1568.97 1290.46 1567.44 Q1287.66 1565.88 1285.82 1562.7 L1285.82 1568.04 L1279.93 1568.04 L1279.93 1518.52 L1285.82 1518.52 L1285.82 1537.81 Z" fill="#000000" fill-rule="nonzero" fill-opacity="1" /><path clip-path="url(#clip140)" d="M1336.11 1524.76 Q1331.14 1524.76 1328.63 1529.66 Q1326.14 1534.53 1326.14 1544.33 Q1326.14 1554.1 1328.63 1559 Q1331.14 1563.87 1336.11 1563.87 Q1341.1 1563.87 1343.59 1559 Q1346.1 1554.1 1346.1 1544.33 Q1346.1 1534.53 1343.59 1529.66 Q1341.1 1524.76 1336.11 1524.76 M1336.11 1519.66 Q1344.1 1519.66 1348.3 1526 Q1352.53 1532.3 1352.53 1544.33 Q1352.53 1556.33 1348.3 1562.66 Q1344.1 1568.97 1336.11 1568.97 Q1328.12 1568.97 1323.88 1562.66 Q1319.68 1556.33 1319.68 1544.33 Q1319.68 1532.3 1323.88 1526 Q1328.12 1519.66 1336.11 1519.66 Z" fill="#000000" fill-rule="nonzero" fill-opacity="1" /><polyline clip-path="url(#clip140)" style="stroke:#000000; stroke-linecap:round; stroke-linejoin:round; stroke-width:4; stroke-opacity:1; fill:none" points="279.704,1423.18 279.704,47.2441 "/>
<polyline clip-path="url(#clip140)" style="stroke:#000000; stroke-linecap:round; stroke-linejoin:round; stroke-width:4; stroke-opacity:1; fill:none" points="279.704,1163.4 298.602,1163.4 "/>
<polyline clip-path="url(#clip140)" style="stroke:#000000; stroke-linecap:round; stroke-linejoin:round; stroke-width:4; stroke-opacity:1; fill:none" points="279.704,886.637 298.602,886.637 "/>
<polyline clip-path="url(#clip140)" style="stroke:#000000; stroke-linecap:round; stroke-linejoin:round; stroke-width:4; stroke-opacity:1; fill:none" points="279.704,609.875 298.602,609.875 "/>
<polyline clip-path="url(#clip140)" style="stroke:#000000; stroke-linecap:round; stroke-linejoin:round; stroke-width:4; stroke-opacity:1; fill:none" points="279.704,333.113 298.602,333.113 "/>
<polyline clip-path="url(#clip140)" style="stroke:#000000; stroke-linecap:round; stroke-linejoin:round; stroke-width:4; stroke-opacity:1; fill:none" points="279.704,56.3512 298.602,56.3512 "/>
<path clip-path="url(#clip140)" d="M127.2 1149.2 Q123.589 1149.2 121.76 1152.76 Q119.955 1156.3 119.955 1163.43 Q119.955 1170.54 121.76 1174.1 Q123.589 1177.65 127.2 1177.65 Q130.834 1177.65 132.64 1174.1 Q134.468 1170.54 134.468 1163.43 Q134.468 1156.3 132.64 1152.76 Q130.834 1149.2 127.2 1149.2 M127.2 1145.49 Q133.01 1145.49 136.066 1150.1 Q139.144 1154.68 139.144 1163.43 Q139.144 1172.16 136.066 1176.77 Q133.01 1181.35 127.2 1181.35 Q121.39 1181.35 118.311 1176.77 Q115.256 1172.16 115.256 1163.43 Q115.256 1154.68 118.311 1150.1 Q121.39 1145.49 127.2 1145.49 Z" fill="#000000" fill-rule="nonzero" fill-opacity="1" /><path clip-path="url(#clip140)" d="M147.362 1174.8 L152.246 1174.8 L152.246 1180.68 L147.362 1180.68 L147.362 1174.8 Z" fill="#000000" fill-rule="nonzero" fill-opacity="1" /><path clip-path="url(#clip140)" d="M173.01 1161.53 Q169.862 1161.53 168.01 1163.69 Q166.181 1165.84 166.181 1169.59 Q166.181 1173.32 168.01 1175.49 Q169.862 1177.65 173.01 1177.65 Q176.158 1177.65 177.987 1175.49 Q179.839 1173.32 179.839 1169.59 Q179.839 1165.84 177.987 1163.69 Q176.158 1161.53 173.01 1161.53 M182.292 1146.88 L182.292 1151.14 Q180.533 1150.31 178.727 1149.87 Q176.945 1149.43 175.186 1149.43 Q170.556 1149.43 168.102 1152.55 Q165.672 1155.68 165.325 1162 Q166.69 1159.98 168.751 1158.92 Q170.811 1157.83 173.288 1157.83 Q178.496 1157.83 181.505 1161 Q184.538 1164.15 184.538 1169.59 Q184.538 1174.91 181.389 1178.13 Q178.241 1181.35 173.01 1181.35 Q167.015 1181.35 163.843 1176.77 Q160.672 1172.16 160.672 1163.43 Q160.672 1155.24 164.561 1150.38 Q168.45 1145.49 175.001 1145.49 Q176.76 1145.49 178.542 1145.84 Q180.348 1146.19 182.292 1146.88 Z" fill="#000000" fill-rule="nonzero" fill-opacity="1" /><path clip-path="url(#clip140)" d="M191.413 1146.12 L213.635 1146.12 L213.635 1148.11 L201.088 1180.68 L196.204 1180.68 L208.01 1150.05 L191.413 1150.05 L191.413 1146.12 Z" fill="#000000" fill-rule="nonzero" fill-opacity="1" /><path clip-path="url(#clip140)" d="M222.801 1146.12 L241.158 1146.12 L241.158 1150.05 L227.084 1150.05 L227.084 1158.53 Q228.102 1158.18 229.121 1158.02 Q230.139 1157.83 231.158 1157.83 Q236.945 1157.83 240.324 1161 Q243.704 1164.17 243.704 1169.59 Q243.704 1175.17 240.232 1178.27 Q236.76 1181.35 230.44 1181.35 Q228.264 1181.35 225.996 1180.98 Q223.75 1180.61 221.343 1179.87 L221.343 1175.17 Q223.426 1176.3 225.648 1176.86 Q227.871 1177.41 230.347 1177.41 Q234.352 1177.41 236.69 1175.31 Q239.028 1173.2 239.028 1169.59 Q239.028 1165.98 236.69 1163.87 Q234.352 1161.77 230.347 1161.77 Q228.473 1161.77 226.598 1162.18 Q224.746 1162.6 222.801 1163.48 L222.801 1146.12 Z" fill="#000000" fill-rule="nonzero" fill-opacity="1" /><path clip-path="url(#clip140)" d="M126.205 872.435 Q122.593 872.435 120.765 876 Q118.959 879.542 118.959 886.671 Q118.959 893.778 120.765 897.342 Q122.593 900.884 126.205 900.884 Q129.839 900.884 131.644 897.342 Q133.473 893.778 133.473 886.671 Q133.473 879.542 131.644 876 Q129.839 872.435 126.205 872.435 M126.205 868.732 Q132.015 868.732 135.07 873.338 Q138.149 877.921 138.149 886.671 Q138.149 895.398 135.07 900.005 Q132.015 904.588 126.205 904.588 Q120.394 904.588 117.316 900.005 Q114.26 895.398 114.26 886.671 Q114.26 877.921 117.316 873.338 Q120.394 868.732 126.205 868.732 Z" fill="#000000" fill-rule="nonzero" fill-opacity="1" /><path clip-path="url(#clip140)" d="M146.366 898.037 L151.251 898.037 L151.251 903.917 L146.366 903.917 L146.366 898.037 Z" fill="#000000" fill-rule="nonzero" fill-opacity="1" /><path clip-path="url(#clip140)" d="M160.255 869.357 L182.477 869.357 L182.477 871.347 L169.931 903.917 L165.047 903.917 L176.852 873.292 L160.255 873.292 L160.255 869.357 Z" fill="#000000" fill-rule="nonzero" fill-opacity="1" /><path clip-path="url(#clip140)" d="M201.598 872.435 Q197.987 872.435 196.158 876 Q194.352 879.542 194.352 886.671 Q194.352 893.778 196.158 897.342 Q197.987 900.884 201.598 900.884 Q205.232 900.884 207.037 897.342 Q208.866 893.778 208.866 886.671 Q208.866 879.542 207.037 876 Q205.232 872.435 201.598 872.435 M201.598 868.732 Q207.408 868.732 210.463 873.338 Q213.542 877.921 213.542 886.671 Q213.542 895.398 210.463 900.005 Q207.408 904.588 201.598 904.588 Q195.787 904.588 192.709 900.005 Q189.653 895.398 189.653 886.671 Q189.653 877.921 192.709 873.338 Q195.787 868.732 201.598 868.732 Z" fill="#000000" fill-rule="nonzero" fill-opacity="1" /><path clip-path="url(#clip140)" d="M231.76 872.435 Q228.148 872.435 226.32 876 Q224.514 879.542 224.514 886.671 Q224.514 893.778 226.32 897.342 Q228.148 900.884 231.76 900.884 Q235.394 900.884 237.199 897.342 Q239.028 893.778 239.028 886.671 Q239.028 879.542 237.199 876 Q235.394 872.435 231.76 872.435 M231.76 868.732 Q237.57 868.732 240.625 873.338 Q243.704 877.921 243.704 886.671 Q243.704 895.398 240.625 900.005 Q237.57 904.588 231.76 904.588 Q225.949 904.588 222.871 900.005 Q219.815 895.398 219.815 886.671 Q219.815 877.921 222.871 873.338 Q225.949 868.732 231.76 868.732 Z" fill="#000000" fill-rule="nonzero" fill-opacity="1" /><path clip-path="url(#clip140)" d="M127.2 595.673 Q123.589 595.673 121.76 599.238 Q119.955 602.78 119.955 609.909 Q119.955 617.016 121.76 620.581 Q123.589 624.122 127.2 624.122 Q130.834 624.122 132.64 620.581 Q134.468 617.016 134.468 609.909 Q134.468 602.78 132.64 599.238 Q130.834 595.673 127.2 595.673 M127.2 591.97 Q133.01 591.97 136.066 596.576 Q139.144 601.16 139.144 609.909 Q139.144 618.636 136.066 623.243 Q133.01 627.826 127.2 627.826 Q121.39 627.826 118.311 623.243 Q115.256 618.636 115.256 609.909 Q115.256 601.16 118.311 596.576 Q121.39 591.97 127.2 591.97 Z" fill="#000000" fill-rule="nonzero" fill-opacity="1" /><path clip-path="url(#clip140)" d="M147.362 621.275 L152.246 621.275 L152.246 627.155 L147.362 627.155 L147.362 621.275 Z" fill="#000000" fill-rule="nonzero" fill-opacity="1" /><path clip-path="url(#clip140)" d="M161.251 592.595 L183.473 592.595 L183.473 594.585 L170.927 627.155 L166.042 627.155 L177.848 596.53 L161.251 596.53 L161.251 592.595 Z" fill="#000000" fill-rule="nonzero" fill-opacity="1" /><path clip-path="url(#clip140)" d="M196.621 623.22 L212.94 623.22 L212.94 627.155 L190.996 627.155 L190.996 623.22 Q193.658 620.465 198.241 615.835 Q202.848 611.183 204.028 609.84 Q206.274 607.317 207.153 605.581 Q208.056 603.822 208.056 602.132 Q208.056 599.377 206.112 597.641 Q204.19 595.905 201.088 595.905 Q198.889 595.905 196.436 596.669 Q194.005 597.433 191.227 598.984 L191.227 594.261 Q194.051 593.127 196.505 592.548 Q198.959 591.97 200.996 591.97 Q206.366 591.97 209.561 594.655 Q212.755 597.34 212.755 601.831 Q212.755 603.96 211.945 605.882 Q211.158 607.78 209.051 610.372 Q208.473 611.044 205.371 614.261 Q202.269 617.456 196.621 623.22 Z" fill="#000000" fill-rule="nonzero" fill-opacity="1" /><path clip-path="url(#clip140)" d="M222.801 592.595 L241.158 592.595 L241.158 596.53 L227.084 596.53 L227.084 605.002 Q228.102 604.655 229.121 604.493 Q230.139 604.308 231.158 604.308 Q236.945 604.308 240.324 607.479 Q243.704 610.65 243.704 616.067 Q243.704 621.646 240.232 624.747 Q236.76 627.826 230.44 627.826 Q228.264 627.826 225.996 627.456 Q223.75 627.085 221.343 626.345 L221.343 621.646 Q223.426 622.78 225.648 623.335 Q227.871 623.891 230.347 623.891 Q234.352 623.891 236.69 621.784 Q239.028 619.678 239.028 616.067 Q239.028 612.456 236.69 610.349 Q234.352 608.243 230.347 608.243 Q228.473 608.243 226.598 608.659 Q224.746 609.076 222.801 609.956 L222.801 592.595 Z" fill="#000000" fill-rule="nonzero" fill-opacity="1" /><path clip-path="url(#clip140)" d="M126.205 318.912 Q122.593 318.912 120.765 322.476 Q118.959 326.018 118.959 333.148 Q118.959 340.254 120.765 343.819 Q122.593 347.361 126.205 347.361 Q129.839 347.361 131.644 343.819 Q133.473 340.254 133.473 333.148 Q133.473 326.018 131.644 322.476 Q129.839 318.912 126.205 318.912 M126.205 315.208 Q132.015 315.208 135.07 319.814 Q138.149 324.398 138.149 333.148 Q138.149 341.875 135.07 346.481 Q132.015 351.064 126.205 351.064 Q120.394 351.064 117.316 346.481 Q114.26 341.875 114.26 333.148 Q114.26 324.398 117.316 319.814 Q120.394 315.208 126.205 315.208 Z" fill="#000000" fill-rule="nonzero" fill-opacity="1" /><path clip-path="url(#clip140)" d="M146.366 344.513 L151.251 344.513 L151.251 350.393 L146.366 350.393 L146.366 344.513 Z" fill="#000000" fill-rule="nonzero" fill-opacity="1" /><path clip-path="url(#clip140)" d="M160.255 315.833 L182.477 315.833 L182.477 317.824 L169.931 350.393 L165.047 350.393 L176.852 319.768 L160.255 319.768 L160.255 315.833 Z" fill="#000000" fill-rule="nonzero" fill-opacity="1" /><path clip-path="url(#clip140)" d="M191.644 315.833 L210 315.833 L210 319.768 L195.926 319.768 L195.926 328.24 Q196.945 327.893 197.963 327.731 Q198.982 327.546 200 327.546 Q205.787 327.546 209.167 330.717 Q212.547 333.888 212.547 339.305 Q212.547 344.884 209.074 347.986 Q205.602 351.064 199.283 351.064 Q197.107 351.064 194.838 350.694 Q192.593 350.324 190.186 349.583 L190.186 344.884 Q192.269 346.018 194.491 346.574 Q196.713 347.129 199.19 347.129 Q203.195 347.129 205.533 345.023 Q207.871 342.916 207.871 339.305 Q207.871 335.694 205.533 333.588 Q203.195 331.481 199.19 331.481 Q197.315 331.481 195.44 331.898 Q193.588 332.314 191.644 333.194 L191.644 315.833 Z" fill="#000000" fill-rule="nonzero" fill-opacity="1" /><path clip-path="url(#clip140)" d="M231.76 318.912 Q228.148 318.912 226.32 322.476 Q224.514 326.018 224.514 333.148 Q224.514 340.254 226.32 343.819 Q228.148 347.361 231.76 347.361 Q235.394 347.361 237.199 343.819 Q239.028 340.254 239.028 333.148 Q239.028 326.018 237.199 322.476 Q235.394 318.912 231.76 318.912 M231.76 315.208 Q237.57 315.208 240.625 319.814 Q243.704 324.398 243.704 333.148 Q243.704 341.875 240.625 346.481 Q237.57 351.064 231.76 351.064 Q225.949 351.064 222.871 346.481 Q219.815 341.875 219.815 333.148 Q219.815 324.398 222.871 319.814 Q225.949 315.208 231.76 315.208 Z" fill="#000000" fill-rule="nonzero" fill-opacity="1" /><path clip-path="url(#clip140)" d="M127.2 42.1499 Q123.589 42.1499 121.76 45.7147 Q119.955 49.2564 119.955 56.386 Q119.955 63.4924 121.76 67.0572 Q123.589 70.5988 127.2 70.5988 Q130.834 70.5988 132.64 67.0572 Q134.468 63.4924 134.468 56.386 Q134.468 49.2564 132.64 45.7147 Q130.834 42.1499 127.2 42.1499 M127.2 38.4462 Q133.01 38.4462 136.066 43.0527 Q139.144 47.636 139.144 56.386 Q139.144 65.1128 136.066 69.7192 Q133.01 74.3025 127.2 74.3025 Q121.39 74.3025 118.311 69.7192 Q115.256 65.1128 115.256 56.386 Q115.256 47.636 118.311 43.0527 Q121.39 38.4462 127.2 38.4462 Z" fill="#000000" fill-rule="nonzero" fill-opacity="1" /><path clip-path="url(#clip140)" d="M147.362 67.7516 L152.246 67.7516 L152.246 73.6312 L147.362 73.6312 L147.362 67.7516 Z" fill="#000000" fill-rule="nonzero" fill-opacity="1" /><path clip-path="url(#clip140)" d="M161.251 39.0712 L183.473 39.0712 L183.473 41.062 L170.927 73.6312 L166.042 73.6312 L177.848 43.0064 L161.251 43.0064 L161.251 39.0712 Z" fill="#000000" fill-rule="nonzero" fill-opacity="1" /><path clip-path="url(#clip140)" d="M191.413 39.0712 L213.635 39.0712 L213.635 41.062 L201.088 73.6312 L196.204 73.6312 L208.01 43.0064 L191.413 43.0064 L191.413 39.0712 Z" fill="#000000" fill-rule="nonzero" fill-opacity="1" /><path clip-path="url(#clip140)" d="M222.801 39.0712 L241.158 39.0712 L241.158 43.0064 L227.084 43.0064 L227.084 51.4786 Q228.102 51.1313 229.121 50.9693 Q230.139 50.7841 231.158 50.7841 Q236.945 50.7841 240.324 53.9554 Q243.704 57.1267 243.704 62.5433 Q243.704 68.122 240.232 71.2238 Q236.76 74.3025 230.44 74.3025 Q228.264 74.3025 225.996 73.9322 Q223.75 73.5618 221.343 72.821 L221.343 68.122 Q223.426 69.2563 225.648 69.8118 Q227.871 70.3674 230.347 70.3674 Q234.352 70.3674 236.69 68.2609 Q239.028 66.1544 239.028 62.5433 Q239.028 58.9322 236.69 56.8258 Q234.352 54.7193 230.347 54.7193 Q228.473 54.7193 226.598 55.136 Q224.746 55.5526 222.801 56.4322 L222.801 39.0712 Z" fill="#000000" fill-rule="nonzero" fill-opacity="1" /><path clip-path="url(#clip140)" d="M35.1993 774.218 Q31.2526 772.022 29.3747 768.966 Q27.4968 765.911 27.4968 761.773 Q27.4968 756.203 31.4117 753.179 Q35.2948 750.155 42.4881 750.155 L64.0042 750.155 L64.0042 756.044 L42.679 756.044 Q37.5546 756.044 35.072 757.858 Q32.5894 759.672 32.5894 763.396 Q32.5894 767.948 35.6131 770.589 Q38.6368 773.231 43.8567 773.231 L64.0042 773.231 L64.0042 779.119 L42.679 779.119 Q37.5228 779.119 35.072 780.934 Q32.5894 782.748 32.5894 786.535 Q32.5894 791.023 35.6449 793.665 Q38.6686 796.307 43.8567 796.307 L64.0042 796.307 L64.0042 802.195 L28.3562 802.195 L28.3562 796.307 L33.8944 796.307 Q30.616 794.302 29.0564 791.501 Q27.4968 788.7 27.4968 784.849 Q27.4968 780.965 29.4702 778.26 Q31.4436 775.523 35.1993 774.218 Z" fill="#000000" fill-rule="nonzero" fill-opacity="1" /><path clip-path="url(#clip140)" d="M46.0847 722.274 Q46.0847 729.371 47.7079 732.109 Q49.3312 734.846 53.2461 734.846 Q56.3653 734.846 58.2114 732.809 Q60.0256 730.74 60.0256 727.207 Q60.0256 722.337 56.5881 719.409 Q53.1188 716.449 47.3897 716.449 L46.0847 716.449 L46.0847 722.274 M43.6657 710.593 L64.0042 710.593 L64.0042 716.449 L58.5933 716.449 Q61.8398 718.454 63.3994 721.446 Q64.9272 724.438 64.9272 728.767 Q64.9272 734.241 61.8716 737.488 Q58.7843 740.702 53.6281 740.702 Q47.6125 740.702 44.5569 736.692 Q41.5014 732.65 41.5014 724.661 L41.5014 716.449 L40.9285 716.449 Q36.8862 716.449 34.6901 719.123 Q32.4621 721.764 32.4621 726.571 Q32.4621 729.626 33.1941 732.522 Q33.9262 735.419 35.3903 738.092 L29.9795 738.092 Q28.7381 734.878 28.1334 731.854 Q27.4968 728.83 27.4968 725.966 Q27.4968 718.231 31.5072 714.412 Q35.5176 710.593 43.6657 710.593 Z" fill="#000000" fill-rule="nonzero" fill-opacity="1" /><path clip-path="url(#clip140)" d="M28.3562 668.897 L45.7028 681.788 L64.0042 668.229 L64.0042 675.136 L49.9996 685.512 L64.0042 695.888 L64.0042 702.795 L45.3526 688.949 L28.3562 701.617 L28.3562 694.71 L41.0558 685.257 L28.3562 675.804 L28.3562 668.897 Z" fill="#000000" fill-rule="nonzero" fill-opacity="1" /><polyline clip-path="url(#clip142)" style="stroke:#009af9; stroke-linecap:round; stroke-linejoin:round; stroke-width:8; stroke-opacity:1; fill:none" points="811.259,95.3586 831.598,98.0007 "/>
<polyline clip-path="url(#clip142)" style="stroke:#009af9; stroke-linecap:round; stroke-linejoin:round; stroke-width:8; stroke-opacity:1; fill:none" points="831.598,98.0007 860.795,102.389 "/>
<polyline clip-path="url(#clip142)" style="stroke:#009af9; stroke-linecap:round; stroke-linejoin:round; stroke-width:8; stroke-opacity:1; fill:none" points="860.795,102.389 902.847,109.517 "/>
<polyline clip-path="url(#clip142)" style="stroke:#009af9; stroke-linecap:round; stroke-linejoin:round; stroke-width:8; stroke-opacity:1; fill:none" points="902.847,109.517 963.698,121.888 "/>
<polyline clip-path="url(#clip142)" style="stroke:#009af9; stroke-linecap:round; stroke-linejoin:round; stroke-width:8; stroke-opacity:1; fill:none" points="963.698,121.888 1050.08,143.271 "/>
<polyline clip-path="url(#clip142)" style="stroke:#009af9; stroke-linecap:round; stroke-linejoin:round; stroke-width:8; stroke-opacity:1; fill:none" points="1050.08,143.271 1161.42,177.581 "/>
<polyline clip-path="url(#clip142)" style="stroke:#009af9; stroke-linecap:round; stroke-linejoin:round; stroke-width:8; stroke-opacity:1; fill:none" points="1161.42,177.581 1276.65,220.841 "/>
<polyline clip-path="url(#clip142)" style="stroke:#009af9; stroke-linecap:round; stroke-linejoin:round; stroke-width:8; stroke-opacity:1; fill:none" points="1276.65,220.841 1395.96,274.283 "/>
<polyline clip-path="url(#clip142)" style="stroke:#009af9; stroke-linecap:round; stroke-linejoin:round; stroke-width:8; stroke-opacity:1; fill:none" points="1395.96,274.283 1519.39,339.233 "/>
<polyline clip-path="url(#clip142)" style="stroke:#009af9; stroke-linecap:round; stroke-linejoin:round; stroke-width:8; stroke-opacity:1; fill:none" points="1519.39,339.233 1646.68,417.233 "/>
<polyline clip-path="url(#clip142)" style="stroke:#009af9; stroke-linecap:round; stroke-linejoin:round; stroke-width:8; stroke-opacity:1; fill:none" points="1646.68,417.233 1776.96,510.157 "/>
<polyline clip-path="url(#clip142)" style="stroke:#009af9; stroke-linecap:round; stroke-linejoin:round; stroke-width:8; stroke-opacity:1; fill:none" points="1776.96,510.157 1908.21,619.434 "/>
<polyline clip-path="url(#clip142)" style="stroke:#009af9; stroke-linecap:round; stroke-linejoin:round; stroke-width:8; stroke-opacity:1; fill:none" points="1908.21,619.434 2036.31,745.923 "/>
<polyline clip-path="url(#clip142)" style="stroke:#009af9; stroke-linecap:round; stroke-linejoin:round; stroke-width:8; stroke-opacity:1; fill:none" points="2036.31,745.923 2153.55,888.807 "/>
<polyline clip-path="url(#clip142)" style="stroke:#009af9; stroke-linecap:round; stroke-linejoin:round; stroke-width:8; stroke-opacity:1; fill:none" points="2153.55,888.807 2246.36,1043.97 "/>
<polyline clip-path="url(#clip142)" style="stroke:#009af9; stroke-linecap:round; stroke-linejoin:round; stroke-width:8; stroke-opacity:1; fill:none" points="2246.36,1043.97 2292.88,1200.13 "/>
<polyline clip-path="url(#clip142)" style="stroke:#009af9; stroke-linecap:round; stroke-linejoin:round; stroke-width:8; stroke-opacity:1; fill:none" points="2292.88,1200.13 2294.08,1226.37 "/>
<polyline clip-path="url(#clip142)" style="stroke:#009af9; stroke-linecap:round; stroke-linejoin:round; stroke-width:4; stroke-opacity:1; fill:none" points="2294.08,1226.37 2249.68,1344.45 "/>
<polyline clip-path="url(#clip142)" style="stroke:#009af9; stroke-linecap:round; stroke-linejoin:round; stroke-width:4; stroke-opacity:1; fill:none" points="2249.68,1344.45 2127.7,1384.24 "/>
<polyline clip-path="url(#clip142)" style="stroke:#009af9; stroke-linecap:round; stroke-linejoin:round; stroke-width:4; stroke-opacity:1; fill:none" points="2127.7,1384.24 1968.61,1352.7 "/>
<polyline clip-path="url(#clip142)" style="stroke:#009af9; stroke-linecap:round; stroke-linejoin:round; stroke-width:4; stroke-opacity:1; fill:none" points="1968.61,1352.7 1796.9,1279.24 "/>
<polyline clip-path="url(#clip142)" style="stroke:#009af9; stroke-linecap:round; stroke-linejoin:round; stroke-width:4; stroke-opacity:1; fill:none" points="1796.9,1279.24 1620.85,1183.04 "/>
<polyline clip-path="url(#clip142)" style="stroke:#009af9; stroke-linecap:round; stroke-linejoin:round; stroke-width:4; stroke-opacity:1; fill:none" points="1620.85,1183.04 1443.63,1075.18 "/>
<polyline clip-path="url(#clip142)" style="stroke:#009af9; stroke-linecap:round; stroke-linejoin:round; stroke-width:4; stroke-opacity:1; fill:none" points="1443.63,1075.18 1267.27,962.253 "/>
<polyline clip-path="url(#clip142)" style="stroke:#009af9; stroke-linecap:round; stroke-linejoin:round; stroke-width:4; stroke-opacity:1; fill:none" points="1267.27,962.253 1093.88,848.76 "/>
<polyline clip-path="url(#clip142)" style="stroke:#009af9; stroke-linecap:round; stroke-linejoin:round; stroke-width:4; stroke-opacity:1; fill:none" points="1093.88,848.76 926.31,737.423 "/>
<polyline clip-path="url(#clip142)" style="stroke:#009af9; stroke-linecap:round; stroke-linejoin:round; stroke-width:4; stroke-opacity:1; fill:none" points="926.31,737.423 768.841,630.829 "/>
<polyline clip-path="url(#clip142)" style="stroke:#009af9; stroke-linecap:round; stroke-linejoin:round; stroke-width:4; stroke-opacity:1; fill:none" points="768.841,630.829 627.929,531.852 "/>
<polyline clip-path="url(#clip142)" style="stroke:#009af9; stroke-linecap:round; stroke-linejoin:round; stroke-width:4; stroke-opacity:1; fill:none" points="627.929,531.852 511.654,443.245 "/>
<polyline clip-path="url(#clip142)" style="stroke:#009af9; stroke-linecap:round; stroke-linejoin:round; stroke-width:4; stroke-opacity:1; fill:none" points="511.654,443.245 426.077,367.434 "/>
<polyline clip-path="url(#clip142)" style="stroke:#009af9; stroke-linecap:round; stroke-linejoin:round; stroke-width:4; stroke-opacity:1; fill:none" points="426.077,367.434 371.598,304.716 "/>
<polyline clip-path="url(#clip142)" style="stroke:#009af9; stroke-linecap:round; stroke-linejoin:round; stroke-width:4; stroke-opacity:1; fill:none" points="371.598,304.716 344.192,253.121 "/>
<polyline clip-path="url(#clip142)" style="stroke:#009af9; stroke-linecap:round; stroke-linejoin:round; stroke-width:4; stroke-opacity:1; fill:none" points="344.192,253.121 338.375,219.732 "/>
<polyline clip-path="url(#clip142)" style="stroke:#009af9; stroke-linecap:round; stroke-linejoin:round; stroke-width:8; stroke-opacity:1; fill:none" points="338.375,219.732 347.138,183.109 "/>
<polyline clip-path="url(#clip142)" style="stroke:#009af9; stroke-linecap:round; stroke-linejoin:round; stroke-width:8; stroke-opacity:1; fill:none" points="347.138,183.109 371.67,152.693 "/>
<polyline clip-path="url(#clip142)" style="stroke:#009af9; stroke-linecap:round; stroke-linejoin:round; stroke-width:8; stroke-opacity:1; fill:none" points="371.67,152.693 410.084,127.94 "/>
<polyline clip-path="url(#clip142)" style="stroke:#009af9; stroke-linecap:round; stroke-linejoin:round; stroke-width:8; stroke-opacity:1; fill:none" points="410.084,127.94 461.517,108.578 "/>
<polyline clip-path="url(#clip142)" style="stroke:#009af9; stroke-linecap:round; stroke-linejoin:round; stroke-width:8; stroke-opacity:1; fill:none" points="461.517,108.578 526.017,94.589 "/>
<polyline clip-path="url(#clip142)" style="stroke:#009af9; stroke-linecap:round; stroke-linejoin:round; stroke-width:8; stroke-opacity:1; fill:none" points="526.017,94.589 604.486,86.6858 "/>
<polyline clip-path="url(#clip142)" style="stroke:#009af9; stroke-linecap:round; stroke-linejoin:round; stroke-width:8; stroke-opacity:1; fill:none" points="604.486,86.6858 698.51,86.1857 "/>
<polyline clip-path="url(#clip142)" style="stroke:#009af9; stroke-linecap:round; stroke-linejoin:round; stroke-width:8; stroke-opacity:1; fill:none" points="698.51,86.1857 809.601,95.1667 "/>
<polyline clip-path="url(#clip142)" style="stroke:#009af9; stroke-linecap:round; stroke-linejoin:round; stroke-width:8; stroke-opacity:1; fill:none" points="809.601,95.1667 937.172,116.118 "/>
<polyline clip-path="url(#clip142)" style="stroke:#009af9; stroke-linecap:round; stroke-linejoin:round; stroke-width:8; stroke-opacity:1; fill:none" points="937.172,116.118 1076.3,150.653 "/>
<polyline clip-path="url(#clip142)" style="stroke:#009af9; stroke-linecap:round; stroke-linejoin:round; stroke-width:8; stroke-opacity:1; fill:none" points="1076.3,150.653 1219.42,198.382 "/>
<polyline clip-path="url(#clip142)" style="stroke:#009af9; stroke-linecap:round; stroke-linejoin:round; stroke-width:8; stroke-opacity:1; fill:none" points="1219.42,198.382 1360.75,257.596 "/>
<polyline clip-path="url(#clip142)" style="stroke:#009af9; stroke-linecap:round; stroke-linejoin:round; stroke-width:8; stroke-opacity:1; fill:none" points="1360.75,257.596 1497.45,326.947 "/>
<polyline clip-path="url(#clip142)" style="stroke:#009af9; stroke-linecap:round; stroke-linejoin:round; stroke-width:8; stroke-opacity:1; fill:none" points="1497.45,326.947 1628.37,405.277 "/>
<polyline clip-path="url(#clip142)" style="stroke:#009af9; stroke-linecap:round; stroke-linejoin:round; stroke-width:8; stroke-opacity:1; fill:none" points="1628.37,405.277 1752.98,491.932 "/>
<polyline clip-path="url(#clip142)" style="stroke:#009af9; stroke-linecap:round; stroke-linejoin:round; stroke-width:8; stroke-opacity:1; fill:none" points="1752.98,491.932 1870.76,586.42 "/>
<polyline clip-path="url(#clip142)" style="stroke:#009af9; stroke-linecap:round; stroke-linejoin:round; stroke-width:8; stroke-opacity:1; fill:none" points="1870.76,586.42 1980.91,688.306 "/>
<circle clip-path="url(#clip142)" cx="2294.08" cy="1226.37" r="10.8" fill="#0000ff" fill-rule="evenodd" fill-opacity="1" stroke="none"/>
<circle clip-path="url(#clip142)" cx="338.375" cy="219.732" r="10.8" fill="#0000ff" fill-rule="evenodd" fill-opacity="1" stroke="none"/>
<circle clip-path="url(#clip142)" cx="2294.08" cy="1226.37" r="10.8" fill="#0000ff" fill-rule="evenodd" fill-opacity="1" stroke="none"/>
<path clip-path="url(#clip140)" d="M2023.06 196.789 L2283.65 196.789 L2283.65 93.1086 L2023.06 93.1086  Z" fill="#ffffff" fill-rule="evenodd" fill-opacity="1"/>
<polyline clip-path="url(#clip140)" style="stroke:#000000; stroke-linecap:round; stroke-linejoin:round; stroke-width:4; stroke-opacity:1; fill:none" points="2023.06,196.789 2283.65,196.789 2283.65,93.1086 2023.06,93.1086 2023.06,196.789 "/>
<circle clip-path="url(#clip140)" cx="2115.2" cy="144.949" r="23.04" fill="#0000ff" fill-rule="evenodd" fill-opacity="1" stroke="none"/>
<path clip-path="url(#clip140)" d="M2226.11 149.289 Q2226.11 144.59 2224.16 141.928 Q2222.24 139.243 2218.86 139.243 Q2215.48 139.243 2213.54 141.928 Q2211.62 144.59 2211.62 149.289 Q2211.62 153.988 2213.54 156.673 Q2215.48 159.335 2218.86 159.335 Q2222.24 159.335 2224.16 156.673 Q2226.11 153.988 2226.11 149.289 M2211.62 140.238 Q2212.96 137.923 2215 136.812 Q2217.06 135.678 2219.9 135.678 Q2224.63 135.678 2227.56 139.428 Q2230.53 143.178 2230.53 149.289 Q2230.53 155.4 2227.56 159.15 Q2224.63 162.9 2219.9 162.9 Q2217.06 162.9 2215 161.789 Q2212.96 160.655 2211.62 158.34 L2211.62 162.229 L2207.33 162.229 L2207.33 126.21 L2211.62 126.21 L2211.62 140.238 Z" fill="#000000" fill-rule="nonzero" fill-opacity="1" /><path clip-path="url(#clip140)" d="M2241.71 158.34 L2241.71 172.09 L2237.43 172.09 L2237.43 136.303 L2241.71 136.303 L2241.71 140.238 Q2243.05 137.923 2245.09 136.812 Q2247.15 135.678 2250 135.678 Q2254.72 135.678 2257.66 139.428 Q2260.62 143.178 2260.62 149.289 Q2260.62 155.4 2257.66 159.15 Q2254.72 162.9 2250 162.9 Q2247.15 162.9 2245.09 161.789 Q2243.05 160.655 2241.71 158.34 M2256.2 149.289 Q2256.2 144.59 2254.25 141.928 Q2252.33 139.243 2248.95 139.243 Q2245.57 139.243 2243.63 141.928 Q2241.71 144.59 2241.71 149.289 Q2241.71 153.988 2243.63 156.673 Q2245.57 159.335 2248.95 159.335 Q2252.33 159.335 2254.25 156.673 Q2256.2 153.988 2256.2 149.289 Z" fill="#000000" fill-rule="nonzero" fill-opacity="1" /></svg>
