<?xml version="1.0" encoding="utf-8"?>
<svg xmlns="http://www.w3.org/2000/svg" xmlns:xlink="http://www.w3.org/1999/xlink" width="600" height="400" viewBox="0 0 2400 1600">
<defs>
  <clipPath id="clip490">
    <rect x="0" y="0" width="2400" height="1600"/>
  </clipPath>
</defs>
<path clip-path="url(#clip490)" d="M0 1600 L2400 1600 L2400 0 L0 0  Z" fill="#ffffff" fill-rule="evenodd" fill-opacity="1"/>
<defs>
  <clipPath id="clip491">
    <rect x="480" y="0" width="1681" height="1600"/>
  </clipPath>
</defs>
<path clip-path="url(#clip490)" d="M247.459 1423.18 L2352.76 1423.18 L2352.76 47.2441 L247.459 47.2441  Z" fill="#ffffff" fill-rule="evenodd" fill-opacity="1"/>
<defs>
  <clipPath id="clip492">
    <rect x="247" y="47" width="2106" height="1377"/>
  </clipPath>
</defs>
<polyline clip-path="url(#clip492)" style="stroke:#000000; stroke-linecap:round; stroke-linejoin:round; stroke-width:2; stroke-opacity:0.1; fill:none" points="307.043,1423.18 307.043,47.2441 "/>
<polyline clip-path="url(#clip492)" style="stroke:#000000; stroke-linecap:round; stroke-linejoin:round; stroke-width:2; stroke-opacity:0.1; fill:none" points="854.401,1423.18 854.401,47.2441 "/>
<polyline clip-path="url(#clip492)" style="stroke:#000000; stroke-linecap:round; stroke-linejoin:round; stroke-width:2; stroke-opacity:0.1; fill:none" points="1401.76,1423.18 1401.76,47.2441 "/>
<polyline clip-path="url(#clip492)" style="stroke:#000000; stroke-linecap:round; stroke-linejoin:round; stroke-width:2; stroke-opacity:0.1; fill:none" points="1949.12,1423.18 1949.12,47.2441 "/>
<polyline clip-path="url(#clip492)" style="stroke:#000000; stroke-linecap:round; stroke-linejoin:round; stroke-width:2; stroke-opacity:0.1; fill:none" points="247.459,1384.24 2352.76,1384.24 "/>
<polyline clip-path="url(#clip492)" style="stroke:#000000; stroke-linecap:round; stroke-linejoin:round; stroke-width:2; stroke-opacity:0.1; fill:none" points="247.459,1082.95 2352.76,1082.95 "/>
<polyline clip-path="url(#clip492)" style="stroke:#000000; stroke-linecap:round; stroke-linejoin:round; stroke-width:2; stroke-opacity:0.1; fill:none" points="247.459,781.663 2352.76,781.663 "/>
<polyline clip-path="url(#clip492)" style="stroke:#000000; stroke-linecap:round; stroke-linejoin:round; stroke-width:2; stroke-opacity:0.1; fill:none" points="247.459,480.375 2352.76,480.375 "/>
<polyline clip-path="url(#clip492)" style="stroke:#000000; stroke-linecap:round; stroke-linejoin:round; stroke-width:2; stroke-opacity:0.1; fill:none" points="247.459,179.088 2352.76,179.088 "/>
<polyline clip-path="url(#clip490)" style="stroke:#000000; stroke-linecap:round; stroke-linejoin:round; stroke-width:4; stroke-opacity:1; fill:none" points="247.459,1423.18 2352.76,1423.18 "/>
<polyline clip-path="url(#clip490)" style="stroke:#000000; stroke-linecap:round; stroke-linejoin:round; stroke-width:4; stroke-opacity:1; fill:none" points="307.043,1423.18 307.043,1404.28 "/>
<polyline clip-path="url(#clip490)" style="stroke:#000000; stroke-linecap:round; stroke-linejoin:round; stroke-width:4; stroke-opacity:1; fill:none" points="854.401,1423.18 854.401,1404.28 "/>
<polyline clip-path="url(#clip490)" style="stroke:#000000; stroke-linecap:round; stroke-linejoin:round; stroke-width:4; stroke-opacity:1; fill:none" points="1401.76,1423.18 1401.76,1404.28 "/>
<polyline clip-path="url(#clip490)" style="stroke:#000000; stroke-linecap:round; stroke-linejoin:round; stroke-width:4; stroke-opacity:1; fill:none" points="1949.12,1423.18 1949.12,1404.28 "/>
<path clip-path="url(#clip490)" d="M284.427 1454.1 Q280.816 1454.1 278.987 1457.66 Q277.182 1461.2 277.182 1468.33 Q277.182 1475.44 278.987 1479.01 Q280.816 1482.55 284.427 1482.55 Q288.061 1482.55 289.867 1479.01 Q291.695 1475.44 291.695 1468.33 Q291.695 1461.2 289.867 1457.66 Q288.061 1454.1 284.427 1454.1 M284.427 1450.39 Q290.237 1450.39 293.293 1455 Q296.371 1459.58 296.371 1468.33 Q296.371 1477.06 293.293 1481.67 Q290.237 1486.25 284.427 1486.25 Q278.617 1486.25 275.538 1481.67 Q272.483 1477.06 272.483 1468.33 Q272.483 1459.58 275.538 1455 Q278.617 1450.39 284.427 1450.39 Z" fill="#000000" fill-rule="nonzero" fill-opacity="1" /><path clip-path="url(#clip490)" d="M304.589 1479.7 L309.473 1479.7 L309.473 1485.58 L304.589 1485.58 L304.589 1479.7 Z" fill="#000000" fill-rule="nonzero" fill-opacity="1" /><path clip-path="url(#clip490)" d="M329.658 1454.1 Q326.047 1454.1 324.218 1457.66 Q322.413 1461.2 322.413 1468.33 Q322.413 1475.44 324.218 1479.01 Q326.047 1482.55 329.658 1482.55 Q333.292 1482.55 335.098 1479.01 Q336.927 1475.44 336.927 1468.33 Q336.927 1461.2 335.098 1457.66 Q333.292 1454.1 329.658 1454.1 M329.658 1450.39 Q335.468 1450.39 338.524 1455 Q341.603 1459.58 341.603 1468.33 Q341.603 1477.06 338.524 1481.67 Q335.468 1486.25 329.658 1486.25 Q323.848 1486.25 320.769 1481.67 Q317.714 1477.06 317.714 1468.33 Q317.714 1459.58 320.769 1455 Q323.848 1450.39 329.658 1450.39 Z" fill="#000000" fill-rule="nonzero" fill-opacity="1" /><path clip-path="url(#clip490)" d="M832.399 1454.1 Q828.787 1454.1 826.959 1457.66 Q825.153 1461.2 825.153 1468.33 Q825.153 1475.44 826.959 1479.01 Q828.787 1482.55 832.399 1482.55 Q836.033 1482.55 837.838 1479.01 Q839.667 1475.44 839.667 1468.33 Q839.667 1461.2 837.838 1457.66 Q836.033 1454.1 832.399 1454.1 M832.399 1450.39 Q838.209 1450.39 841.264 1455 Q844.343 1459.58 844.343 1468.33 Q844.343 1477.06 841.264 1481.67 Q838.209 1486.25 832.399 1486.25 Q826.588 1486.25 823.51 1481.67 Q820.454 1477.06 820.454 1468.33 Q820.454 1459.58 823.51 1455 Q826.588 1450.39 832.399 1450.39 Z" fill="#000000" fill-rule="nonzero" fill-opacity="1" /><path clip-path="url(#clip490)" d="M852.561 1479.7 L857.445 1479.7 L857.445 1485.58 L852.561 1485.58 L852.561 1479.7 Z" fill="#000000" fill-rule="nonzero" fill-opacity="1" /><path clip-path="url(#clip490)" d="M868.44 1481.64 L876.079 1481.64 L876.079 1455.28 L867.769 1456.95 L867.769 1452.69 L876.033 1451.02 L880.708 1451.02 L880.708 1481.64 L888.347 1481.64 L888.347 1485.58 L868.44 1485.58 L868.44 1481.64 Z" fill="#000000" fill-rule="nonzero" fill-opacity="1" /><path clip-path="url(#clip490)" d="M1379.94 1454.1 Q1376.33 1454.1 1374.5 1457.66 Q1372.7 1461.2 1372.7 1468.33 Q1372.7 1475.44 1374.5 1479.01 Q1376.33 1482.55 1379.94 1482.55 Q1383.58 1482.55 1385.38 1479.01 Q1387.21 1475.44 1387.21 1468.33 Q1387.21 1461.2 1385.38 1457.66 Q1383.58 1454.1 1379.94 1454.1 M1379.94 1450.39 Q1385.75 1450.39 1388.81 1455 Q1391.89 1459.58 1391.89 1468.33 Q1391.89 1477.06 1388.81 1481.67 Q1385.75 1486.25 1379.94 1486.25 Q1374.13 1486.25 1371.05 1481.67 Q1368 1477.06 1368 1468.33 Q1368 1459.58 1371.05 1455 Q1374.13 1450.39 1379.94 1450.39 Z" fill="#000000" fill-rule="nonzero" fill-opacity="1" /><path clip-path="url(#clip490)" d="M1400.1 1479.7 L1404.99 1479.7 L1404.99 1485.58 L1400.1 1485.58 L1400.1 1479.7 Z" fill="#000000" fill-rule="nonzero" fill-opacity="1" /><path clip-path="url(#clip490)" d="M1419.2 1481.64 L1435.52 1481.64 L1435.52 1485.58 L1413.58 1485.58 L1413.58 1481.64 Q1416.24 1478.89 1420.82 1474.26 Q1425.43 1469.61 1426.61 1468.27 Q1428.85 1465.74 1429.73 1464.01 Q1430.64 1462.25 1430.64 1460.56 Q1430.64 1457.8 1428.69 1456.07 Q1426.77 1454.33 1423.67 1454.33 Q1421.47 1454.33 1419.02 1455.09 Q1416.59 1455.86 1413.81 1457.41 L1413.81 1452.69 Q1416.63 1451.55 1419.09 1450.97 Q1421.54 1450.39 1423.58 1450.39 Q1428.95 1450.39 1432.14 1453.08 Q1435.34 1455.77 1435.34 1460.26 Q1435.34 1462.39 1434.52 1464.31 Q1433.74 1466.2 1431.63 1468.8 Q1431.05 1469.47 1427.95 1472.69 Q1424.85 1475.88 1419.2 1481.64 Z" fill="#000000" fill-rule="nonzero" fill-opacity="1" /><path clip-path="url(#clip490)" d="M1926.83 1454.1 Q1923.21 1454.1 1921.39 1457.66 Q1919.58 1461.2 1919.58 1468.33 Q1919.58 1475.44 1921.39 1479.01 Q1923.21 1482.55 1926.83 1482.55 Q1930.46 1482.55 1932.27 1479.01 Q1934.09 1475.44 1934.09 1468.33 Q1934.09 1461.2 1932.27 1457.66 Q1930.46 1454.1 1926.83 1454.1 M1926.83 1450.39 Q1932.64 1450.39 1935.69 1455 Q1938.77 1459.58 1938.77 1468.33 Q1938.77 1477.06 1935.69 1481.67 Q1932.64 1486.25 1926.83 1486.25 Q1921.02 1486.25 1917.94 1481.67 Q1914.88 1477.06 1914.88 1468.33 Q1914.88 1459.58 1917.94 1455 Q1921.02 1450.39 1926.83 1450.39 Z" fill="#000000" fill-rule="nonzero" fill-opacity="1" /><path clip-path="url(#clip490)" d="M1946.99 1479.7 L1951.87 1479.7 L1951.87 1485.58 L1946.99 1485.58 L1946.99 1479.7 Z" fill="#000000" fill-rule="nonzero" fill-opacity="1" /><path clip-path="url(#clip490)" d="M1976.22 1466.95 Q1979.58 1467.66 1981.45 1469.93 Q1983.35 1472.2 1983.35 1475.53 Q1983.35 1480.65 1979.83 1483.45 Q1976.32 1486.25 1969.83 1486.25 Q1967.66 1486.25 1965.34 1485.81 Q1963.05 1485.39 1960.6 1484.54 L1960.6 1480.02 Q1962.54 1481.16 1964.86 1481.74 Q1967.17 1482.32 1969.7 1482.32 Q1974.09 1482.32 1976.39 1480.58 Q1978.7 1478.84 1978.7 1475.53 Q1978.7 1472.48 1976.55 1470.77 Q1974.42 1469.03 1970.6 1469.03 L1966.57 1469.03 L1966.57 1465.19 L1970.78 1465.19 Q1974.23 1465.19 1976.06 1463.82 Q1977.89 1462.43 1977.89 1459.84 Q1977.89 1457.18 1975.99 1455.77 Q1974.12 1454.33 1970.6 1454.33 Q1968.68 1454.33 1966.48 1454.75 Q1964.28 1455.16 1961.64 1456.04 L1961.64 1451.88 Q1964.3 1451.14 1966.62 1450.77 Q1968.95 1450.39 1971.02 1450.39 Q1976.34 1450.39 1979.44 1452.83 Q1982.54 1455.23 1982.54 1459.35 Q1982.54 1462.22 1980.9 1464.21 Q1979.26 1466.18 1976.22 1466.95 Z" fill="#000000" fill-rule="nonzero" fill-opacity="1" /><path clip-path="url(#clip490)" d="M1305.31 1551.46 L1303.91 1544.11 Q1302.48 1536.57 1296.81 1536.57 Q1292.55 1536.57 1290.61 1540.07 Q1288.16 1544.46 1288.16 1550.25 Q1288.16 1557.25 1290.54 1560.6 Q1292.96 1564 1296.81 1564 Q1301.08 1564 1303.37 1557.22 L1305.31 1551.46 M1308.59 1541.72 L1311.74 1532.4 L1316.96 1532.4 L1310.44 1551.72 L1311.71 1558.69 Q1312 1560.25 1313.11 1561.55 Q1314.41 1563.08 1315.43 1563.08 L1318.23 1563.08 L1318.23 1568.04 L1314.73 1568.04 Q1311.74 1568.04 1309.07 1565.37 Q1307.76 1564.03 1307.22 1561.23 Q1305.76 1564.77 1302.76 1567.53 Q1301.36 1568.84 1296.81 1568.84 Q1289.33 1568.84 1285.7 1564 Q1281.98 1559 1281.98 1550.25 Q1281.98 1540.89 1286.02 1536.5 Q1290.51 1531.6 1296.81 1531.6 Q1306.71 1531.6 1308.59 1541.72 Z" fill="#000000" fill-rule="nonzero" fill-opacity="1" /><polyline clip-path="url(#clip490)" style="stroke:#000000; stroke-linecap:round; stroke-linejoin:round; stroke-width:4; stroke-opacity:1; fill:none" points="247.459,1423.18 247.459,47.2441 "/>
<polyline clip-path="url(#clip490)" style="stroke:#000000; stroke-linecap:round; stroke-linejoin:round; stroke-width:4; stroke-opacity:1; fill:none" points="247.459,1384.24 266.356,1384.24 "/>
<polyline clip-path="url(#clip490)" style="stroke:#000000; stroke-linecap:round; stroke-linejoin:round; stroke-width:4; stroke-opacity:1; fill:none" points="247.459,1082.95 266.356,1082.95 "/>
<polyline clip-path="url(#clip490)" style="stroke:#000000; stroke-linecap:round; stroke-linejoin:round; stroke-width:4; stroke-opacity:1; fill:none" points="247.459,781.663 266.356,781.663 "/>
<polyline clip-path="url(#clip490)" style="stroke:#000000; stroke-linecap:round; stroke-linejoin:round; stroke-width:4; stroke-opacity:1; fill:none" points="247.459,480.375 266.356,480.375 "/>
<polyline clip-path="url(#clip490)" style="stroke:#000000; stroke-linecap:round; stroke-linejoin:round; stroke-width:4; stroke-opacity:1; fill:none" points="247.459,179.088 266.356,179.088 "/>
<path clip-path="url(#clip490)" d="M154.283 1370.04 Q150.672 1370.04 148.843 1373.6 Q147.038 1377.14 147.038 1384.27 Q147.038 1391.38 148.843 1394.94 Q150.672 1398.49 154.283 1398.49 Q157.917 1398.49 159.723 1394.94 Q161.552 1391.38 161.552 1384.27 Q161.552 1377.14 159.723 1373.6 Q157.917 1370.04 154.283 1370.04 M154.283 1366.33 Q160.093 1366.33 163.149 1370.94 Q166.227 1375.52 166.227 1384.27 Q166.227 1393 163.149 1397.61 Q160.093 1402.19 154.283 1402.19 Q148.473 1402.19 145.394 1397.61 Q142.339 1393 142.339 1384.27 Q142.339 1375.52 145.394 1370.94 Q148.473 1366.33 154.283 1366.33 Z" fill="#000000" fill-rule="nonzero" fill-opacity="1" /><path clip-path="url(#clip490)" d="M174.445 1395.64 L179.329 1395.64 L179.329 1401.52 L174.445 1401.52 L174.445 1395.64 Z" fill="#000000" fill-rule="nonzero" fill-opacity="1" /><path clip-path="url(#clip490)" d="M199.514 1370.04 Q195.903 1370.04 194.075 1373.6 Q192.269 1377.14 192.269 1384.27 Q192.269 1391.38 194.075 1394.94 Q195.903 1398.49 199.514 1398.49 Q203.149 1398.49 204.954 1394.94 Q206.783 1391.38 206.783 1384.27 Q206.783 1377.14 204.954 1373.6 Q203.149 1370.04 199.514 1370.04 M199.514 1366.33 Q205.324 1366.33 208.38 1370.94 Q211.459 1375.52 211.459 1384.27 Q211.459 1393 208.38 1397.61 Q205.324 1402.19 199.514 1402.19 Q193.704 1402.19 190.625 1397.61 Q187.57 1393 187.57 1384.27 Q187.57 1375.52 190.625 1370.94 Q193.704 1366.33 199.514 1366.33 Z" fill="#000000" fill-rule="nonzero" fill-opacity="1" /><path clip-path="url(#clip490)" d="M149.306 1096.3 L165.626 1096.3 L165.626 1100.23 L143.681 1100.23 L143.681 1096.3 Q146.343 1093.54 150.927 1088.91 Q155.533 1084.26 156.714 1082.92 Q158.959 1080.39 159.839 1078.66 Q160.741 1076.9 160.741 1075.21 Q160.741 1072.45 158.797 1070.72 Q156.876 1068.98 153.774 1068.98 Q151.575 1068.98 149.121 1069.74 Q146.691 1070.51 143.913 1072.06 L143.913 1067.34 Q146.737 1066.2 149.191 1065.62 Q151.644 1065.05 153.681 1065.05 Q159.052 1065.05 162.246 1067.73 Q165.44 1070.42 165.44 1074.91 Q165.44 1077.04 164.63 1078.96 Q163.843 1080.86 161.737 1083.45 Q161.158 1084.12 158.056 1087.34 Q154.954 1090.53 149.306 1096.3 Z" fill="#000000" fill-rule="nonzero" fill-opacity="1" /><path clip-path="url(#clip490)" d="M175.44 1094.35 L180.325 1094.35 L180.325 1100.23 L175.44 1100.23 L175.44 1094.35 Z" fill="#000000" fill-rule="nonzero" fill-opacity="1" /><path clip-path="url(#clip490)" d="M190.556 1065.67 L208.912 1065.67 L208.912 1069.61 L194.838 1069.61 L194.838 1078.08 Q195.857 1077.73 196.875 1077.57 Q197.894 1077.38 198.912 1077.38 Q204.699 1077.38 208.079 1080.55 Q211.459 1083.73 211.459 1089.14 Q211.459 1094.72 207.987 1097.82 Q204.514 1100.9 198.195 1100.9 Q196.019 1100.9 193.75 1100.53 Q191.505 1100.16 189.098 1099.42 L189.098 1094.72 Q191.181 1095.86 193.403 1096.41 Q195.625 1096.97 198.102 1096.97 Q202.107 1096.97 204.445 1094.86 Q206.783 1092.75 206.783 1089.14 Q206.783 1085.53 204.445 1083.43 Q202.107 1081.32 198.102 1081.32 Q196.227 1081.32 194.352 1081.74 Q192.5 1082.15 190.556 1083.03 L190.556 1065.67 Z" fill="#000000" fill-rule="nonzero" fill-opacity="1" /><path clip-path="url(#clip490)" d="M144.329 764.383 L162.686 764.383 L162.686 768.318 L148.612 768.318 L148.612 776.79 Q149.63 776.443 150.649 776.281 Q151.667 776.096 152.686 776.096 Q158.473 776.096 161.852 779.267 Q165.232 782.439 165.232 787.855 Q165.232 793.434 161.76 796.536 Q158.288 799.614 151.968 799.614 Q149.792 799.614 147.524 799.244 Q145.279 798.874 142.871 798.133 L142.871 793.434 Q144.954 794.568 147.177 795.124 Q149.399 795.679 151.876 795.679 Q155.88 795.679 158.218 793.573 Q160.556 791.466 160.556 787.855 Q160.556 784.244 158.218 782.138 Q155.88 780.031 151.876 780.031 Q150.001 780.031 148.126 780.448 Q146.274 780.864 144.329 781.744 L144.329 764.383 Z" fill="#000000" fill-rule="nonzero" fill-opacity="1" /><path clip-path="url(#clip490)" d="M174.445 793.063 L179.329 793.063 L179.329 798.943 L174.445 798.943 L174.445 793.063 Z" fill="#000000" fill-rule="nonzero" fill-opacity="1" /><path clip-path="url(#clip490)" d="M199.514 767.462 Q195.903 767.462 194.075 771.027 Q192.269 774.568 192.269 781.698 Q192.269 788.804 194.075 792.369 Q195.903 795.911 199.514 795.911 Q203.149 795.911 204.954 792.369 Q206.783 788.804 206.783 781.698 Q206.783 774.568 204.954 771.027 Q203.149 767.462 199.514 767.462 M199.514 763.758 Q205.324 763.758 208.38 768.365 Q211.459 772.948 211.459 781.698 Q211.459 790.425 208.38 795.031 Q205.324 799.614 199.514 799.614 Q193.704 799.614 190.625 795.031 Q187.57 790.425 187.57 781.698 Q187.57 772.948 190.625 768.365 Q193.704 763.758 199.514 763.758 Z" fill="#000000" fill-rule="nonzero" fill-opacity="1" /><path clip-path="url(#clip490)" d="M144.098 463.095 L166.32 463.095 L166.32 465.086 L153.774 497.655 L148.89 497.655 L160.695 467.031 L144.098 467.031 L144.098 463.095 Z" fill="#000000" fill-rule="nonzero" fill-opacity="1" /><path clip-path="url(#clip490)" d="M175.44 491.776 L180.325 491.776 L180.325 497.655 L175.44 497.655 L175.44 491.776 Z" fill="#000000" fill-rule="nonzero" fill-opacity="1" /><path clip-path="url(#clip490)" d="M190.556 463.095 L208.912 463.095 L208.912 467.031 L194.838 467.031 L194.838 475.503 Q195.857 475.156 196.875 474.994 Q197.894 474.808 198.912 474.808 Q204.699 474.808 208.079 477.98 Q211.459 481.151 211.459 486.568 Q211.459 492.146 207.987 495.248 Q204.514 498.327 198.195 498.327 Q196.019 498.327 193.75 497.956 Q191.505 497.586 189.098 496.845 L189.098 492.146 Q191.181 493.281 193.403 493.836 Q195.625 494.392 198.102 494.392 Q202.107 494.392 204.445 492.285 Q206.783 490.179 206.783 486.568 Q206.783 482.956 204.445 480.85 Q202.107 478.744 198.102 478.744 Q196.227 478.744 194.352 479.16 Q192.5 479.577 190.556 480.457 L190.556 463.095 Z" fill="#000000" fill-rule="nonzero" fill-opacity="1" /><path clip-path="url(#clip490)" d="M114.931 192.433 L122.57 192.433 L122.57 166.067 L114.26 167.734 L114.26 163.475 L122.524 161.808 L127.2 161.808 L127.2 192.433 L134.839 192.433 L134.839 196.368 L114.931 196.368 L114.931 192.433 Z" fill="#000000" fill-rule="nonzero" fill-opacity="1" /><path clip-path="url(#clip490)" d="M154.283 164.887 Q150.672 164.887 148.843 168.451 Q147.038 171.993 147.038 179.123 Q147.038 186.229 148.843 189.794 Q150.672 193.336 154.283 193.336 Q157.917 193.336 159.723 189.794 Q161.552 186.229 161.552 179.123 Q161.552 171.993 159.723 168.451 Q157.917 164.887 154.283 164.887 M154.283 161.183 Q160.093 161.183 163.149 165.789 Q166.227 170.373 166.227 179.123 Q166.227 187.849 163.149 192.456 Q160.093 197.039 154.283 197.039 Q148.473 197.039 145.394 192.456 Q142.339 187.849 142.339 179.123 Q142.339 170.373 145.394 165.789 Q148.473 161.183 154.283 161.183 Z" fill="#000000" fill-rule="nonzero" fill-opacity="1" /><path clip-path="url(#clip490)" d="M174.445 190.488 L179.329 190.488 L179.329 196.368 L174.445 196.368 L174.445 190.488 Z" fill="#000000" fill-rule="nonzero" fill-opacity="1" /><path clip-path="url(#clip490)" d="M199.514 164.887 Q195.903 164.887 194.075 168.451 Q192.269 171.993 192.269 179.123 Q192.269 186.229 194.075 189.794 Q195.903 193.336 199.514 193.336 Q203.149 193.336 204.954 189.794 Q206.783 186.229 206.783 179.123 Q206.783 171.993 204.954 168.451 Q203.149 164.887 199.514 164.887 M199.514 161.183 Q205.324 161.183 208.38 165.789 Q211.459 170.373 211.459 179.123 Q211.459 187.849 208.38 192.456 Q205.324 197.039 199.514 197.039 Q193.704 197.039 190.625 192.456 Q187.57 187.849 187.57 179.123 Q187.57 170.373 190.625 165.789 Q193.704 161.183 199.514 161.183 Z" fill="#000000" fill-rule="nonzero" fill-opacity="1" /><path clip-path="url(#clip490)" d="M28.3562 718.597 L45.7028 731.488 L64.0042 717.929 L64.0042 724.836 L49.9996 735.212 L64.0042 745.588 L64.0042 752.495 L45.3526 738.649 L28.3562 751.317 L28.3562 744.41 L41.0558 734.957 L28.3562 725.504 L28.3562 718.597 Z" fill="#000000" fill-rule="nonzero" fill-opacity="1" /><polyline clip-path="url(#clip492)" style="stroke:#009af9; stroke-linecap:round; stroke-linejoin:round; stroke-width:8; stroke-opacity:1; fill:none" points="307.043,1384.24 361.503,1382.53 "/>
<polyline clip-path="url(#clip492)" style="stroke:#009af9; stroke-linecap:round; stroke-linejoin:round; stroke-width:8; stroke-opacity:1; fill:none" points="361.503,1382.53 438.046,1380.06 "/>
<polyline clip-path="url(#clip492)" style="stroke:#009af9; stroke-linecap:round; stroke-linejoin:round; stroke-width:8; stroke-opacity:1; fill:none" points="438.046,1380.06 544.953,1376.49 "/>
<polyline clip-path="url(#clip492)" style="stroke:#009af9; stroke-linecap:round; stroke-linejoin:round; stroke-width:8; stroke-opacity:1; fill:none" points="544.953,1376.49 692.792,1371.28 "/>
<polyline clip-path="url(#clip492)" style="stroke:#009af9; stroke-linecap:round; stroke-linejoin:round; stroke-width:8; stroke-opacity:1; fill:none" points="692.792,1371.28 893.889,1363.61 "/>
<polyline clip-path="url(#clip492)" style="stroke:#009af9; stroke-linecap:round; stroke-linejoin:round; stroke-width:8; stroke-opacity:1; fill:none" points="893.889,1363.61 1153.19,1352.5 "/>
<polyline clip-path="url(#clip492)" style="stroke:#009af9; stroke-linecap:round; stroke-linejoin:round; stroke-width:8; stroke-opacity:1; fill:none" points="1153.19,1352.5 1471.33,1336.17 "/>
<polyline clip-path="url(#clip492)" style="stroke:#009af9; stroke-linecap:round; stroke-linejoin:round; stroke-width:8; stroke-opacity:1; fill:none" points="1471.33,1336.17 1825.62,1311.99 "/>
<polyline clip-path="url(#clip492)" style="stroke:#009af9; stroke-linecap:round; stroke-linejoin:round; stroke-width:8; stroke-opacity:1; fill:none" points="1825.62,1311.99 2144.16,1276.78 "/>
<polyline clip-path="url(#clip492)" style="stroke:#009af9; stroke-linecap:round; stroke-linejoin:round; stroke-width:8; stroke-opacity:1; fill:none" points="2144.16,1276.78 2293.17,1240.52 "/>
<polyline clip-path="url(#clip492)" style="stroke:#009af9; stroke-linecap:round; stroke-linejoin:round; stroke-width:8; stroke-opacity:1; fill:none" points="2293.17,1240.52 2259.83,1168.03 "/>
<polyline clip-path="url(#clip492)" style="stroke:#009af9; stroke-linecap:round; stroke-linejoin:round; stroke-width:4; stroke-opacity:1; fill:none" points="2259.83,1168.03 2151.24,1132.03 "/>
<polyline clip-path="url(#clip492)" style="stroke:#009af9; stroke-linecap:round; stroke-linejoin:round; stroke-width:4; stroke-opacity:1; fill:none" points="2151.24,1132.03 2013.57,1096.12 "/>
<polyline clip-path="url(#clip492)" style="stroke:#009af9; stroke-linecap:round; stroke-linejoin:round; stroke-width:4; stroke-opacity:1; fill:none" points="2013.57,1096.12 1861.92,1060.27 "/>
<polyline clip-path="url(#clip492)" style="stroke:#009af9; stroke-linecap:round; stroke-linejoin:round; stroke-width:4; stroke-opacity:1; fill:none" points="1861.92,1060.27 1706.48,1024.44 "/>
<polyline clip-path="url(#clip492)" style="stroke:#009af9; stroke-linecap:round; stroke-linejoin:round; stroke-width:4; stroke-opacity:1; fill:none" points="1706.48,1024.44 1554.04,988.603 "/>
<polyline clip-path="url(#clip492)" style="stroke:#009af9; stroke-linecap:round; stroke-linejoin:round; stroke-width:4; stroke-opacity:1; fill:none" points="1554.04,988.603 1408.96,952.731 "/>
<polyline clip-path="url(#clip492)" style="stroke:#009af9; stroke-linecap:round; stroke-linejoin:round; stroke-width:4; stroke-opacity:1; fill:none" points="1408.96,952.731 1273.9,916.821 "/>
<polyline clip-path="url(#clip492)" style="stroke:#009af9; stroke-linecap:round; stroke-linejoin:round; stroke-width:4; stroke-opacity:1; fill:none" points="1273.9,916.821 1150.25,880.87 "/>
<polyline clip-path="url(#clip492)" style="stroke:#009af9; stroke-linecap:round; stroke-linejoin:round; stroke-width:4; stroke-opacity:1; fill:none" points="1150.25,880.87 938.742,808.861 "/>
<polyline clip-path="url(#clip492)" style="stroke:#009af9; stroke-linecap:round; stroke-linejoin:round; stroke-width:4; stroke-opacity:1; fill:none" points="938.742,808.861 850.344,772.811 "/>
<polyline clip-path="url(#clip492)" style="stroke:#009af9; stroke-linecap:round; stroke-linejoin:round; stroke-width:4; stroke-opacity:1; fill:none" points="850.344,772.811 772.642,736.736 "/>
<polyline clip-path="url(#clip492)" style="stroke:#009af9; stroke-linecap:round; stroke-linejoin:round; stroke-width:4; stroke-opacity:1; fill:none" points="772.642,736.736 704.781,700.642 "/>
<polyline clip-path="url(#clip492)" style="stroke:#009af9; stroke-linecap:round; stroke-linejoin:round; stroke-width:4; stroke-opacity:1; fill:none" points="704.781,700.642 645.84,664.533 "/>
<polyline clip-path="url(#clip492)" style="stroke:#009af9; stroke-linecap:round; stroke-linejoin:round; stroke-width:4; stroke-opacity:1; fill:none" points="645.84,664.533 594.892,628.413 "/>
<polyline clip-path="url(#clip492)" style="stroke:#009af9; stroke-linecap:round; stroke-linejoin:round; stroke-width:4; stroke-opacity:1; fill:none" points="594.892,628.413 551.038,592.283 "/>
<polyline clip-path="url(#clip492)" style="stroke:#009af9; stroke-linecap:round; stroke-linejoin:round; stroke-width:4; stroke-opacity:1; fill:none" points="551.038,592.283 513.428,556.147 "/>
<polyline clip-path="url(#clip492)" style="stroke:#009af9; stroke-linecap:round; stroke-linejoin:round; stroke-width:4; stroke-opacity:1; fill:none" points="513.428,556.147 481.278,520.006 "/>
<polyline clip-path="url(#clip492)" style="stroke:#009af9; stroke-linecap:round; stroke-linejoin:round; stroke-width:4; stroke-opacity:1; fill:none" points="481.278,520.006 453.877,483.861 "/>
<polyline clip-path="url(#clip492)" style="stroke:#009af9; stroke-linecap:round; stroke-linejoin:round; stroke-width:4; stroke-opacity:1; fill:none" points="453.877,483.861 430.584,447.714 "/>
<polyline clip-path="url(#clip492)" style="stroke:#009af9; stroke-linecap:round; stroke-linejoin:round; stroke-width:4; stroke-opacity:1; fill:none" points="430.584,447.714 410.83,411.564 "/>
<polyline clip-path="url(#clip492)" style="stroke:#009af9; stroke-linecap:round; stroke-linejoin:round; stroke-width:4; stroke-opacity:1; fill:none" points="410.83,411.564 394.114,375.413 "/>
<polyline clip-path="url(#clip492)" style="stroke:#009af9; stroke-linecap:round; stroke-linejoin:round; stroke-width:4; stroke-opacity:1; fill:none" points="394.114,375.413 379.996,339.262 "/>
<polyline clip-path="url(#clip492)" style="stroke:#009af9; stroke-linecap:round; stroke-linejoin:round; stroke-width:4; stroke-opacity:1; fill:none" points="379.996,339.262 368.094,303.109 "/>
<polyline clip-path="url(#clip492)" style="stroke:#009af9; stroke-linecap:round; stroke-linejoin:round; stroke-width:4; stroke-opacity:1; fill:none" points="368.094,303.109 358.076,266.956 "/>
<polyline clip-path="url(#clip492)" style="stroke:#009af9; stroke-linecap:round; stroke-linejoin:round; stroke-width:4; stroke-opacity:1; fill:none" points="358.076,266.956 349.657,230.802 "/>
<polyline clip-path="url(#clip492)" style="stroke:#009af9; stroke-linecap:round; stroke-linejoin:round; stroke-width:4; stroke-opacity:1; fill:none" points="349.657,230.802 342.592,194.648 "/>
<polyline clip-path="url(#clip492)" style="stroke:#009af9; stroke-linecap:round; stroke-linejoin:round; stroke-width:4; stroke-opacity:1; fill:none" points="342.592,194.648 336.671,158.494 "/>
<polyline clip-path="url(#clip492)" style="stroke:#009af9; stroke-linecap:round; stroke-linejoin:round; stroke-width:4; stroke-opacity:1; fill:none" points="336.671,158.494 331.715,122.34 "/>
<polyline clip-path="url(#clip492)" style="stroke:#009af9; stroke-linecap:round; stroke-linejoin:round; stroke-width:4; stroke-opacity:1; fill:none" points="331.715,122.34 327.571,86.1857 "/>
<circle clip-path="url(#clip492)" cx="2259.83" cy="1168.03" r="10.8" fill="#0000ff" fill-rule="evenodd" fill-opacity="1" stroke="none"/>
<circle clip-path="url(#clip492)" cx="938.742" cy="808.861" r="10.8" fill="#0000ff" fill-rule="evenodd" fill-opacity="1" stroke="none"/>
<circle clip-path="url(#clip492)" cx="2259.83" cy="1168.03" r="10.8" fill="#0000ff" fill-rule="evenodd" fill-opacity="1" stroke="none"/>
<path clip-path="url(#clip490)" d="M2018.76 196.789 L2282.58 196.789 L2282.58 93.1086 L2018.76 93.1086  Z" fill="#ffffff" fill-rule="evenodd" fill-opacity="1"/>
<polyline clip-path="url(#clip490)" style="stroke:#000000; stroke-linecap:round; stroke-linejoin:round; stroke-width:4; stroke-opacity:1; fill:none" points="2018.76,196.789 2282.58,196.789 2282.58,93.1086 2018.76,93.1086 2018.76,196.789 "/>
<circle clip-path="url(#clip490)" cx="2112.33" cy="144.949" r="23.04" fill="#0000ff" fill-rule="evenodd" fill-opacity="1" stroke="none"/>
<path clip-path="url(#clip490)" d="M2224.67 149.289 Q2224.67 144.59 2222.73 141.928 Q2220.81 139.243 2217.43 139.243 Q2214.05 139.243 2212.1 141.928 Q2210.18 144.59 2210.18 149.289 Q2210.18 153.988 2212.1 156.673 Q2214.05 159.335 2217.43 159.335 Q2220.81 159.335 2222.73 156.673 Q2224.67 153.988 2224.67 149.289 M2210.18 140.238 Q2211.53 137.923 2213.56 136.812 Q2215.62 135.678 2218.47 135.678 Q2223.19 135.678 2226.13 139.428 Q2229.09 143.178 2229.09 149.289 Q2229.09 155.4 2226.13 159.15 Q2223.19 162.9 2218.47 162.9 Q2215.62 162.9 2213.56 161.789 Q2211.53 160.655 2210.18 158.34 L2210.18 162.229 L2205.9 162.229 L2205.9 126.21 L2210.18 126.21 L2210.18 140.238 Z" fill="#000000" fill-rule="nonzero" fill-opacity="1" /><path clip-path="url(#clip490)" d="M2240.28 158.34 L2240.28 172.09 L2235.99 172.09 L2235.99 136.303 L2240.28 136.303 L2240.28 140.238 Q2241.62 137.923 2243.65 136.812 Q2245.71 135.678 2248.56 135.678 Q2253.28 135.678 2256.22 139.428 Q2259.19 143.178 2259.19 149.289 Q2259.19 155.4 2256.22 159.15 Q2253.28 162.9 2248.56 162.9 Q2245.71 162.9 2243.65 161.789 Q2241.62 160.655 2240.28 158.34 M2254.77 149.289 Q2254.77 144.59 2252.82 141.928 Q2250.9 139.243 2247.52 139.243 Q2244.14 139.243 2242.2 141.928 Q2240.28 144.59 2240.28 149.289 Q2240.28 153.988 2242.2 156.673 Q2244.14 159.335 2247.52 159.335 Q2250.9 159.335 2252.82 156.673 Q2254.77 153.988 2254.77 149.289 Z" fill="#000000" fill-rule="nonzero" fill-opacity="1" /></svg>
