<?xml version="1.0" encoding="utf-8"?>
<svg xmlns="http://www.w3.org/2000/svg" xmlns:xlink="http://www.w3.org/1999/xlink" width="600" height="400" viewBox="0 0 2400 1600">
<defs>
  <clipPath id="clip120">
    <rect x="0" y="0" width="2400" height="1600"/>
  </clipPath>
</defs>
<path clip-path="url(#clip120)" d="M0 1600 L2400 1600 L2400 0 L0 0  Z" fill="#ffffff" fill-rule="evenodd" fill-opacity="1"/>
<defs>
  <clipPath id="clip121">
    <rect x="480" y="0" width="1681" height="1600"/>
  </clipPath>
</defs>
<path clip-path="url(#clip120)" d="M219.519 1423.18 L2352.76 1423.18 L2352.76 47.2441 L219.519 47.2441  Z" fill="#ffffff" fill-rule="evenodd" fill-opacity="1"/>
<defs>
  <clipPath id="clip122">
    <rect x="219" y="47" width="2134" height="1377"/>
  </clipPath>
</defs>
<polyline clip-path="url(#clip122)" style="stroke:#000000; stroke-linecap:round; stroke-linejoin:round; stroke-width:2; stroke-opacity:0.1; fill:none" points="494.185,1423.18 494.185,47.2441 "/>
<polyline clip-path="url(#clip122)" style="stroke:#000000; stroke-linecap:round; stroke-linejoin:round; stroke-width:2; stroke-opacity:0.1; fill:none" points="922.768,1423.18 922.768,47.2441 "/>
<polyline clip-path="url(#clip122)" style="stroke:#000000; stroke-linecap:round; stroke-linejoin:round; stroke-width:2; stroke-opacity:0.1; fill:none" points="1351.35,1423.18 1351.35,47.2441 "/>
<polyline clip-path="url(#clip122)" style="stroke:#000000; stroke-linecap:round; stroke-linejoin:round; stroke-width:2; stroke-opacity:0.1; fill:none" points="1779.93,1423.18 1779.93,47.2441 "/>
<polyline clip-path="url(#clip122)" style="stroke:#000000; stroke-linecap:round; stroke-linejoin:round; stroke-width:2; stroke-opacity:0.1; fill:none" points="2208.52,1423.18 2208.52,47.2441 "/>
<polyline clip-path="url(#clip122)" style="stroke:#000000; stroke-linecap:round; stroke-linejoin:round; stroke-width:2; stroke-opacity:0.1; fill:none" points="219.519,1351.69 2352.76,1351.69 "/>
<polyline clip-path="url(#clip122)" style="stroke:#000000; stroke-linecap:round; stroke-linejoin:round; stroke-width:2; stroke-opacity:0.1; fill:none" points="219.519,1132.92 2352.76,1132.92 "/>
<polyline clip-path="url(#clip122)" style="stroke:#000000; stroke-linecap:round; stroke-linejoin:round; stroke-width:2; stroke-opacity:0.1; fill:none" points="219.519,914.144 2352.76,914.144 "/>
<polyline clip-path="url(#clip122)" style="stroke:#000000; stroke-linecap:round; stroke-linejoin:round; stroke-width:2; stroke-opacity:0.1; fill:none" points="219.519,695.372 2352.76,695.372 "/>
<polyline clip-path="url(#clip122)" style="stroke:#000000; stroke-linecap:round; stroke-linejoin:round; stroke-width:2; stroke-opacity:0.1; fill:none" points="219.519,476.601 2352.76,476.601 "/>
<polyline clip-path="url(#clip122)" style="stroke:#000000; stroke-linecap:round; stroke-linejoin:round; stroke-width:2; stroke-opacity:0.1; fill:none" points="219.519,257.829 2352.76,257.829 "/>
<polyline clip-path="url(#clip120)" style="stroke:#000000; stroke-linecap:round; stroke-linejoin:round; stroke-width:4; stroke-opacity:1; fill:none" points="219.519,1423.18 2352.76,1423.18 "/>
<polyline clip-path="url(#clip120)" style="stroke:#000000; stroke-linecap:round; stroke-linejoin:round; stroke-width:4; stroke-opacity:1; fill:none" points="494.185,1423.18 494.185,1404.28 "/>
<polyline clip-path="url(#clip120)" style="stroke:#000000; stroke-linecap:round; stroke-linejoin:round; stroke-width:4; stroke-opacity:1; fill:none" points="922.768,1423.18 922.768,1404.28 "/>
<polyline clip-path="url(#clip120)" style="stroke:#000000; stroke-linecap:round; stroke-linejoin:round; stroke-width:4; stroke-opacity:1; fill:none" points="1351.35,1423.18 1351.35,1404.28 "/>
<polyline clip-path="url(#clip120)" style="stroke:#000000; stroke-linecap:round; stroke-linejoin:round; stroke-width:4; stroke-opacity:1; fill:none" points="1779.93,1423.18 1779.93,1404.28 "/>
<polyline clip-path="url(#clip120)" style="stroke:#000000; stroke-linecap:round; stroke-linejoin:round; stroke-width:4; stroke-opacity:1; fill:none" points="2208.52,1423.18 2208.52,1404.28 "/>
<path clip-path="url(#clip120)" d="M456.407 1454.1 Q452.796 1454.1 450.968 1457.66 Q449.162 1461.2 449.162 1468.33 Q449.162 1475.44 450.968 1479.01 Q452.796 1482.55 456.407 1482.55 Q460.042 1482.55 461.847 1479.01 Q463.676 1475.44 463.676 1468.33 Q463.676 1461.2 461.847 1457.66 Q460.042 1454.1 456.407 1454.1 M456.407 1450.39 Q462.218 1450.39 465.273 1455 Q468.352 1459.58 468.352 1468.33 Q468.352 1477.06 465.273 1481.67 Q462.218 1486.25 456.407 1486.25 Q450.597 1486.25 447.519 1481.67 Q444.463 1477.06 444.463 1468.33 Q444.463 1459.58 447.519 1455 Q450.597 1450.39 456.407 1450.39 Z" fill="#000000" fill-rule="nonzero" fill-opacity="1" /><path clip-path="url(#clip120)" d="M476.569 1479.7 L481.454 1479.7 L481.454 1485.58 L476.569 1485.58 L476.569 1479.7 Z" fill="#000000" fill-rule="nonzero" fill-opacity="1" /><path clip-path="url(#clip120)" d="M490.458 1451.02 L512.68 1451.02 L512.68 1453.01 L500.134 1485.58 L495.25 1485.58 L507.055 1454.96 L490.458 1454.96 L490.458 1451.02 Z" fill="#000000" fill-rule="nonzero" fill-opacity="1" /><path clip-path="url(#clip120)" d="M532.379 1466.44 Q529.231 1466.44 527.379 1468.59 Q525.551 1470.74 525.551 1474.49 Q525.551 1478.22 527.379 1480.39 Q529.231 1482.55 532.379 1482.55 Q535.527 1482.55 537.356 1480.39 Q539.208 1478.22 539.208 1474.49 Q539.208 1470.74 537.356 1468.59 Q535.527 1466.44 532.379 1466.44 M541.662 1451.78 L541.662 1456.04 Q539.902 1455.21 538.097 1454.77 Q536.314 1454.33 534.555 1454.33 Q529.926 1454.33 527.472 1457.45 Q525.041 1460.58 524.694 1466.9 Q526.06 1464.89 528.12 1463.82 Q530.18 1462.73 532.657 1462.73 Q537.865 1462.73 540.875 1465.9 Q543.907 1469.05 543.907 1474.49 Q543.907 1479.82 540.759 1483.03 Q537.611 1486.25 532.379 1486.25 Q526.384 1486.25 523.213 1481.67 Q520.041 1477.06 520.041 1468.33 Q520.041 1460.14 523.93 1455.28 Q527.819 1450.39 534.37 1450.39 Q536.129 1450.39 537.912 1450.74 Q539.717 1451.09 541.662 1451.78 Z" fill="#000000" fill-rule="nonzero" fill-opacity="1" /><path clip-path="url(#clip120)" d="M885.118 1454.1 Q881.506 1454.1 879.678 1457.66 Q877.872 1461.2 877.872 1468.33 Q877.872 1475.44 879.678 1479.01 Q881.506 1482.55 885.118 1482.55 Q888.752 1482.55 890.557 1479.01 Q892.386 1475.44 892.386 1468.33 Q892.386 1461.2 890.557 1457.66 Q888.752 1454.1 885.118 1454.1 M885.118 1450.39 Q890.928 1450.39 893.983 1455 Q897.062 1459.58 897.062 1468.33 Q897.062 1477.06 893.983 1481.67 Q890.928 1486.25 885.118 1486.25 Q879.307 1486.25 876.229 1481.67 Q873.173 1477.06 873.173 1468.33 Q873.173 1459.58 876.229 1455 Q879.307 1450.39 885.118 1450.39 Z" fill="#000000" fill-rule="nonzero" fill-opacity="1" /><path clip-path="url(#clip120)" d="M905.28 1479.7 L910.164 1479.7 L910.164 1485.58 L905.28 1485.58 L905.28 1479.7 Z" fill="#000000" fill-rule="nonzero" fill-opacity="1" /><path clip-path="url(#clip120)" d="M919.168 1451.02 L941.39 1451.02 L941.39 1453.01 L928.844 1485.58 L923.96 1485.58 L935.765 1454.96 L919.168 1454.96 L919.168 1451.02 Z" fill="#000000" fill-rule="nonzero" fill-opacity="1" /><path clip-path="url(#clip120)" d="M960.511 1469.17 Q957.177 1469.17 955.256 1470.95 Q953.358 1472.73 953.358 1475.86 Q953.358 1478.98 955.256 1480.77 Q957.177 1482.55 960.511 1482.55 Q963.844 1482.55 965.765 1480.77 Q967.687 1478.96 967.687 1475.86 Q967.687 1472.73 965.765 1470.95 Q963.867 1469.17 960.511 1469.17 M955.835 1467.18 Q952.826 1466.44 951.136 1464.38 Q949.469 1462.32 949.469 1459.35 Q949.469 1455.21 952.409 1452.8 Q955.372 1450.39 960.511 1450.39 Q965.673 1450.39 968.613 1452.8 Q971.552 1455.21 971.552 1459.35 Q971.552 1462.32 969.862 1464.38 Q968.196 1466.44 965.21 1467.18 Q968.589 1467.96 970.464 1470.26 Q972.362 1472.55 972.362 1475.86 Q972.362 1480.88 969.284 1483.57 Q966.228 1486.25 960.511 1486.25 Q954.793 1486.25 951.714 1483.57 Q948.659 1480.88 948.659 1475.86 Q948.659 1472.55 950.557 1470.26 Q952.455 1467.96 955.835 1467.18 M954.122 1459.79 Q954.122 1462.48 955.788 1463.98 Q957.478 1465.49 960.511 1465.49 Q963.52 1465.49 965.21 1463.98 Q966.923 1462.48 966.923 1459.79 Q966.923 1457.11 965.21 1455.6 Q963.52 1454.1 960.511 1454.1 Q957.478 1454.1 955.788 1455.6 Q954.122 1457.11 954.122 1459.79 Z" fill="#000000" fill-rule="nonzero" fill-opacity="1" /><path clip-path="url(#clip120)" d="M1313.65 1454.1 Q1310.04 1454.1 1308.21 1457.66 Q1306.41 1461.2 1306.41 1468.33 Q1306.41 1475.44 1308.21 1479.01 Q1310.04 1482.55 1313.65 1482.55 Q1317.29 1482.55 1319.09 1479.01 Q1320.92 1475.44 1320.92 1468.33 Q1320.92 1461.2 1319.09 1457.66 Q1317.29 1454.1 1313.65 1454.1 M1313.65 1450.39 Q1319.46 1450.39 1322.52 1455 Q1325.6 1459.58 1325.6 1468.33 Q1325.6 1477.06 1322.52 1481.67 Q1319.46 1486.25 1313.65 1486.25 Q1307.84 1486.25 1304.77 1481.67 Q1301.71 1477.06 1301.71 1468.33 Q1301.71 1459.58 1304.77 1455 Q1307.84 1450.39 1313.65 1450.39 Z" fill="#000000" fill-rule="nonzero" fill-opacity="1" /><path clip-path="url(#clip120)" d="M1333.82 1479.7 L1338.7 1479.7 L1338.7 1485.58 L1333.82 1485.58 L1333.82 1479.7 Z" fill="#000000" fill-rule="nonzero" fill-opacity="1" /><path clip-path="url(#clip120)" d="M1358.89 1469.17 Q1355.55 1469.17 1353.63 1470.95 Q1351.73 1472.73 1351.73 1475.86 Q1351.73 1478.98 1353.63 1480.77 Q1355.55 1482.55 1358.89 1482.55 Q1362.22 1482.55 1364.14 1480.77 Q1366.06 1478.96 1366.06 1475.86 Q1366.06 1472.73 1364.14 1470.95 Q1362.24 1469.17 1358.89 1469.17 M1354.21 1467.18 Q1351.2 1466.44 1349.51 1464.38 Q1347.84 1462.32 1347.84 1459.35 Q1347.84 1455.21 1350.78 1452.8 Q1353.75 1450.39 1358.89 1450.39 Q1364.05 1450.39 1366.99 1452.8 Q1369.93 1455.21 1369.93 1459.35 Q1369.93 1462.32 1368.24 1464.38 Q1366.57 1466.44 1363.58 1467.18 Q1366.96 1467.96 1368.84 1470.26 Q1370.74 1472.55 1370.74 1475.86 Q1370.74 1480.88 1367.66 1483.57 Q1364.6 1486.25 1358.89 1486.25 Q1353.17 1486.25 1350.09 1483.57 Q1347.03 1480.88 1347.03 1475.86 Q1347.03 1472.55 1348.93 1470.26 Q1350.83 1467.96 1354.21 1467.18 M1352.5 1459.79 Q1352.5 1462.48 1354.16 1463.98 Q1355.85 1465.49 1358.89 1465.49 Q1361.89 1465.49 1363.58 1463.98 Q1365.3 1462.48 1365.3 1459.79 Q1365.3 1457.11 1363.58 1455.6 Q1361.89 1454.1 1358.89 1454.1 Q1355.85 1454.1 1354.16 1455.6 Q1352.5 1457.11 1352.5 1459.79 Z" fill="#000000" fill-rule="nonzero" fill-opacity="1" /><path clip-path="url(#clip120)" d="M1389.05 1454.1 Q1385.44 1454.1 1383.61 1457.66 Q1381.8 1461.2 1381.8 1468.33 Q1381.8 1475.44 1383.61 1479.01 Q1385.44 1482.55 1389.05 1482.55 Q1392.68 1482.55 1394.49 1479.01 Q1396.32 1475.44 1396.32 1468.33 Q1396.32 1461.2 1394.49 1457.66 Q1392.68 1454.1 1389.05 1454.1 M1389.05 1450.39 Q1394.86 1450.39 1397.91 1455 Q1400.99 1459.58 1400.99 1468.33 Q1400.99 1477.06 1397.91 1481.67 Q1394.86 1486.25 1389.05 1486.25 Q1383.24 1486.25 1380.16 1481.67 Q1377.1 1477.06 1377.1 1468.33 Q1377.1 1459.58 1380.16 1455 Q1383.24 1450.39 1389.05 1450.39 Z" fill="#000000" fill-rule="nonzero" fill-opacity="1" /><path clip-path="url(#clip120)" d="M1743.04 1454.1 Q1739.42 1454.1 1737.6 1457.66 Q1735.79 1461.2 1735.79 1468.33 Q1735.79 1475.44 1737.6 1479.01 Q1739.42 1482.55 1743.04 1482.55 Q1746.67 1482.55 1748.48 1479.01 Q1750.3 1475.44 1750.3 1468.33 Q1750.3 1461.2 1748.48 1457.66 Q1746.67 1454.1 1743.04 1454.1 M1743.04 1450.39 Q1748.85 1450.39 1751.9 1455 Q1754.98 1459.58 1754.98 1468.33 Q1754.98 1477.06 1751.9 1481.67 Q1748.85 1486.25 1743.04 1486.25 Q1737.23 1486.25 1734.15 1481.67 Q1731.09 1477.06 1731.09 1468.33 Q1731.09 1459.58 1734.15 1455 Q1737.23 1450.39 1743.04 1450.39 Z" fill="#000000" fill-rule="nonzero" fill-opacity="1" /><path clip-path="url(#clip120)" d="M1763.2 1479.7 L1768.08 1479.7 L1768.08 1485.58 L1763.2 1485.58 L1763.2 1479.7 Z" fill="#000000" fill-rule="nonzero" fill-opacity="1" /><path clip-path="url(#clip120)" d="M1788.27 1469.17 Q1784.93 1469.17 1783.01 1470.95 Q1781.11 1472.73 1781.11 1475.86 Q1781.11 1478.98 1783.01 1480.77 Q1784.93 1482.55 1788.27 1482.55 Q1791.6 1482.55 1793.52 1480.77 Q1795.44 1478.96 1795.44 1475.86 Q1795.44 1472.73 1793.52 1470.95 Q1791.62 1469.17 1788.27 1469.17 M1783.59 1467.18 Q1780.58 1466.44 1778.89 1464.38 Q1777.23 1462.32 1777.23 1459.35 Q1777.23 1455.21 1780.16 1452.8 Q1783.13 1450.39 1788.27 1450.39 Q1793.43 1450.39 1796.37 1452.8 Q1799.31 1455.21 1799.31 1459.35 Q1799.31 1462.32 1797.62 1464.38 Q1795.95 1466.44 1792.97 1467.18 Q1796.35 1467.96 1798.22 1470.26 Q1800.12 1472.55 1800.12 1475.86 Q1800.12 1480.88 1797.04 1483.57 Q1793.98 1486.25 1788.27 1486.25 Q1782.55 1486.25 1779.47 1483.57 Q1776.41 1480.88 1776.41 1475.86 Q1776.41 1472.55 1778.31 1470.26 Q1780.21 1467.96 1783.59 1467.18 M1781.88 1459.79 Q1781.88 1462.48 1783.54 1463.98 Q1785.23 1465.49 1788.27 1465.49 Q1791.28 1465.49 1792.97 1463.98 Q1794.68 1462.48 1794.68 1459.79 Q1794.68 1457.11 1792.97 1455.6 Q1791.28 1454.1 1788.27 1454.1 Q1785.23 1454.1 1783.54 1455.6 Q1781.88 1457.11 1781.88 1459.79 Z" fill="#000000" fill-rule="nonzero" fill-opacity="1" /><path clip-path="url(#clip120)" d="M1812.46 1481.64 L1828.78 1481.64 L1828.78 1485.58 L1806.83 1485.58 L1806.83 1481.64 Q1809.49 1478.89 1814.08 1474.26 Q1818.68 1469.61 1819.86 1468.27 Q1822.11 1465.74 1822.99 1464.01 Q1823.89 1462.25 1823.89 1460.56 Q1823.89 1457.8 1821.95 1456.07 Q1820.03 1454.33 1816.92 1454.33 Q1814.72 1454.33 1812.27 1455.09 Q1809.84 1455.86 1807.06 1457.41 L1807.06 1452.69 Q1809.89 1451.55 1812.34 1450.97 Q1814.79 1450.39 1816.83 1450.39 Q1822.2 1450.39 1825.4 1453.08 Q1828.59 1455.77 1828.59 1460.26 Q1828.59 1462.39 1827.78 1464.31 Q1826.99 1466.2 1824.89 1468.8 Q1824.31 1469.47 1821.21 1472.69 Q1818.1 1475.88 1812.46 1481.64 Z" fill="#000000" fill-rule="nonzero" fill-opacity="1" /><path clip-path="url(#clip120)" d="M2170.58 1454.1 Q2166.97 1454.1 2165.14 1457.66 Q2163.33 1461.2 2163.33 1468.33 Q2163.33 1475.44 2165.14 1479.01 Q2166.97 1482.55 2170.58 1482.55 Q2174.21 1482.55 2176.02 1479.01 Q2177.85 1475.44 2177.85 1468.33 Q2177.85 1461.2 2176.02 1457.66 Q2174.21 1454.1 2170.58 1454.1 M2170.58 1450.39 Q2176.39 1450.39 2179.44 1455 Q2182.52 1459.58 2182.52 1468.33 Q2182.52 1477.06 2179.44 1481.67 Q2176.39 1486.25 2170.58 1486.25 Q2164.77 1486.25 2161.69 1481.67 Q2158.63 1477.06 2158.63 1468.33 Q2158.63 1459.58 2161.69 1455 Q2164.77 1450.39 2170.58 1450.39 Z" fill="#000000" fill-rule="nonzero" fill-opacity="1" /><path clip-path="url(#clip120)" d="M2190.74 1479.7 L2195.62 1479.7 L2195.62 1485.58 L2190.74 1485.58 L2190.74 1479.7 Z" fill="#000000" fill-rule="nonzero" fill-opacity="1" /><path clip-path="url(#clip120)" d="M2215.81 1469.17 Q2212.47 1469.17 2210.55 1470.95 Q2208.66 1472.73 2208.66 1475.86 Q2208.66 1478.98 2210.55 1480.77 Q2212.47 1482.55 2215.81 1482.55 Q2219.14 1482.55 2221.06 1480.77 Q2222.98 1478.96 2222.98 1475.86 Q2222.98 1472.73 2221.06 1470.95 Q2219.16 1469.17 2215.81 1469.17 M2211.13 1467.18 Q2208.12 1466.44 2206.43 1464.38 Q2204.77 1462.32 2204.77 1459.35 Q2204.77 1455.21 2207.71 1452.8 Q2210.67 1450.39 2215.81 1450.39 Q2220.97 1450.39 2223.91 1452.8 Q2226.85 1455.21 2226.85 1459.35 Q2226.85 1462.32 2225.16 1464.38 Q2223.49 1466.44 2220.51 1467.18 Q2223.89 1467.96 2225.76 1470.26 Q2227.66 1472.55 2227.66 1475.86 Q2227.66 1480.88 2224.58 1483.57 Q2221.53 1486.25 2215.81 1486.25 Q2210.09 1486.25 2207.01 1483.57 Q2203.96 1480.88 2203.96 1475.86 Q2203.96 1472.55 2205.85 1470.26 Q2207.75 1467.96 2211.13 1467.18 M2209.42 1459.79 Q2209.42 1462.48 2211.09 1463.98 Q2212.78 1465.49 2215.81 1465.49 Q2218.82 1465.49 2220.51 1463.98 Q2222.22 1462.48 2222.22 1459.79 Q2222.22 1457.11 2220.51 1455.6 Q2218.82 1454.1 2215.81 1454.1 Q2212.78 1454.1 2211.09 1455.6 Q2209.42 1457.11 2209.42 1459.79 Z" fill="#000000" fill-rule="nonzero" fill-opacity="1" /><path clip-path="url(#clip120)" d="M2248.82 1455.09 L2237.01 1473.54 L2248.82 1473.54 L2248.82 1455.09 M2247.59 1451.02 L2253.47 1451.02 L2253.47 1473.54 L2258.4 1473.54 L2258.4 1477.43 L2253.47 1477.43 L2253.47 1485.58 L2248.82 1485.58 L2248.82 1477.43 L2233.22 1477.43 L2233.22 1472.92 L2247.59 1451.02 Z" fill="#000000" fill-rule="nonzero" fill-opacity="1" /><path clip-path="url(#clip120)" d="M1251.71 1518.52 L1257.6 1518.52 L1257.6 1547.77 L1275.08 1532.4 L1282.56 1532.4 L1263.65 1549.07 L1283.35 1568.04 L1275.71 1568.04 L1257.6 1550.63 L1257.6 1568.04 L1251.71 1568.04 L1251.71 1518.52 Z" fill="#000000" fill-rule="nonzero" fill-opacity="1" /><path clip-path="url(#clip120)" d="M1304.26 1545.48 Q1299.68 1545.48 1297.04 1547.93 Q1294.43 1550.38 1294.43 1554.68 Q1294.43 1558.97 1297.04 1561.42 Q1299.68 1563.87 1304.26 1563.87 Q1308.85 1563.87 1311.49 1561.42 Q1314.13 1558.94 1314.13 1554.68 Q1314.13 1550.38 1311.49 1547.93 Q1308.88 1545.48 1304.26 1545.48 M1297.83 1542.74 Q1293.7 1541.72 1291.37 1538.89 Q1289.08 1536.06 1289.08 1531.98 Q1289.08 1526.28 1293.12 1522.97 Q1297.2 1519.66 1304.26 1519.66 Q1311.36 1519.66 1315.4 1522.97 Q1319.45 1526.28 1319.45 1531.98 Q1319.45 1536.06 1317.12 1538.89 Q1314.83 1541.72 1310.73 1542.74 Q1315.37 1543.82 1317.95 1546.97 Q1320.56 1550.12 1320.56 1554.68 Q1320.56 1561.58 1316.33 1565.27 Q1312.13 1568.97 1304.26 1568.97 Q1296.4 1568.97 1292.17 1565.27 Q1287.97 1561.58 1287.97 1554.68 Q1287.97 1550.12 1290.58 1546.97 Q1293.19 1543.82 1297.83 1542.74 M1295.48 1532.59 Q1295.48 1536.28 1297.77 1538.35 Q1300.09 1540.42 1304.26 1540.42 Q1308.4 1540.42 1310.73 1538.35 Q1313.08 1536.28 1313.08 1532.59 Q1313.08 1528.89 1310.73 1526.83 Q1308.4 1524.76 1304.26 1524.76 Q1300.09 1524.76 1297.77 1526.83 Q1295.48 1528.89 1295.48 1532.59 Z" fill="#000000" fill-rule="nonzero" fill-opacity="1" /><polyline clip-path="url(#clip120)" style="stroke:#000000; stroke-linecap:round; stroke-linejoin:round; stroke-width:4; stroke-opacity:1; fill:none" points="219.519,1423.18 219.519,47.2441 "/>
<polyline clip-path="url(#clip120)" style="stroke:#000000; stroke-linecap:round; stroke-linejoin:round; stroke-width:4; stroke-opacity:1; fill:none" points="219.519,1351.69 238.417,1351.69 "/>
<polyline clip-path="url(#clip120)" style="stroke:#000000; stroke-linecap:round; stroke-linejoin:round; stroke-width:4; stroke-opacity:1; fill:none" points="219.519,1132.92 238.417,1132.92 "/>
<polyline clip-path="url(#clip120)" style="stroke:#000000; stroke-linecap:round; stroke-linejoin:round; stroke-width:4; stroke-opacity:1; fill:none" points="219.519,914.144 238.417,914.144 "/>
<polyline clip-path="url(#clip120)" style="stroke:#000000; stroke-linecap:round; stroke-linejoin:round; stroke-width:4; stroke-opacity:1; fill:none" points="219.519,695.372 238.417,695.372 "/>
<polyline clip-path="url(#clip120)" style="stroke:#000000; stroke-linecap:round; stroke-linejoin:round; stroke-width:4; stroke-opacity:1; fill:none" points="219.519,476.601 238.417,476.601 "/>
<polyline clip-path="url(#clip120)" style="stroke:#000000; stroke-linecap:round; stroke-linejoin:round; stroke-width:4; stroke-opacity:1; fill:none" points="219.519,257.829 238.417,257.829 "/>
<path clip-path="url(#clip120)" d="M115.163 1334.41 L137.385 1334.41 L137.385 1336.4 L124.839 1368.97 L119.955 1368.97 L131.76 1338.34 L115.163 1338.34 L115.163 1334.41 Z" fill="#000000" fill-rule="nonzero" fill-opacity="1" /><path clip-path="url(#clip120)" d="M146.505 1363.09 L151.39 1363.09 L151.39 1368.97 L146.505 1368.97 L146.505 1363.09 Z" fill="#000000" fill-rule="nonzero" fill-opacity="1" /><path clip-path="url(#clip120)" d="M171.575 1337.49 Q167.964 1337.49 166.135 1341.05 Q164.329 1344.59 164.329 1351.72 Q164.329 1358.83 166.135 1362.39 Q167.964 1365.94 171.575 1365.94 Q175.209 1365.94 177.014 1362.39 Q178.843 1358.83 178.843 1351.72 Q178.843 1344.59 177.014 1341.05 Q175.209 1337.49 171.575 1337.49 M171.575 1333.78 Q177.385 1333.78 180.44 1338.39 Q183.519 1342.97 183.519 1351.72 Q183.519 1360.45 180.44 1365.06 Q177.385 1369.64 171.575 1369.64 Q165.765 1369.64 162.686 1365.06 Q159.63 1360.45 159.63 1351.72 Q159.63 1342.97 162.686 1338.39 Q165.765 1333.78 171.575 1333.78 Z" fill="#000000" fill-rule="nonzero" fill-opacity="1" /><path clip-path="url(#clip120)" d="M116.158 1115.64 L138.38 1115.64 L138.38 1117.63 L125.834 1150.2 L120.95 1150.2 L132.755 1119.57 L116.158 1119.57 L116.158 1115.64 Z" fill="#000000" fill-rule="nonzero" fill-opacity="1" /><path clip-path="url(#clip120)" d="M147.501 1144.32 L152.385 1144.32 L152.385 1150.2 L147.501 1150.2 L147.501 1144.32 Z" fill="#000000" fill-rule="nonzero" fill-opacity="1" /><path clip-path="url(#clip120)" d="M162.616 1115.64 L180.973 1115.64 L180.973 1119.57 L166.899 1119.57 L166.899 1128.04 Q167.917 1127.7 168.936 1127.53 Q169.954 1127.35 170.973 1127.35 Q176.76 1127.35 180.139 1130.52 Q183.519 1133.69 183.519 1139.11 Q183.519 1144.69 180.047 1147.79 Q176.575 1150.87 170.255 1150.87 Q168.079 1150.87 165.811 1150.5 Q163.565 1150.13 161.158 1149.39 L161.158 1144.69 Q163.241 1145.82 165.464 1146.38 Q167.686 1146.93 170.163 1146.93 Q174.167 1146.93 176.505 1144.83 Q178.843 1142.72 178.843 1139.11 Q178.843 1135.5 176.505 1133.39 Q174.167 1131.28 170.163 1131.28 Q168.288 1131.28 166.413 1131.7 Q164.561 1132.12 162.616 1133 L162.616 1115.64 Z" fill="#000000" fill-rule="nonzero" fill-opacity="1" /><path clip-path="url(#clip120)" d="M126.343 915.012 Q123.01 915.012 121.089 916.795 Q119.191 918.577 119.191 921.702 Q119.191 924.827 121.089 926.609 Q123.01 928.392 126.343 928.392 Q129.677 928.392 131.598 926.609 Q133.519 924.804 133.519 921.702 Q133.519 918.577 131.598 916.795 Q129.7 915.012 126.343 915.012 M121.668 913.021 Q118.658 912.281 116.968 910.22 Q115.302 908.16 115.302 905.197 Q115.302 901.054 118.242 898.646 Q121.205 896.239 126.343 896.239 Q131.505 896.239 134.445 898.646 Q137.385 901.054 137.385 905.197 Q137.385 908.16 135.695 910.22 Q134.029 912.281 131.042 913.021 Q134.422 913.808 136.297 916.1 Q138.195 918.392 138.195 921.702 Q138.195 926.725 135.117 929.41 Q132.061 932.095 126.343 932.095 Q120.626 932.095 117.547 929.41 Q114.492 926.725 114.492 921.702 Q114.492 918.392 116.39 916.1 Q118.288 913.808 121.668 913.021 M119.955 905.637 Q119.955 908.322 121.621 909.827 Q123.311 911.332 126.343 911.332 Q129.353 911.332 131.042 909.827 Q132.755 908.322 132.755 905.637 Q132.755 902.952 131.042 901.447 Q129.353 899.943 126.343 899.943 Q123.311 899.943 121.621 901.447 Q119.955 902.952 119.955 905.637 Z" fill="#000000" fill-rule="nonzero" fill-opacity="1" /><path clip-path="url(#clip120)" d="M146.505 925.544 L151.39 925.544 L151.39 931.424 L146.505 931.424 L146.505 925.544 Z" fill="#000000" fill-rule="nonzero" fill-opacity="1" /><path clip-path="url(#clip120)" d="M171.575 899.943 Q167.964 899.943 166.135 903.508 Q164.329 907.049 164.329 914.179 Q164.329 921.285 166.135 924.85 Q167.964 928.392 171.575 928.392 Q175.209 928.392 177.014 924.85 Q178.843 921.285 178.843 914.179 Q178.843 907.049 177.014 903.508 Q175.209 899.943 171.575 899.943 M171.575 896.239 Q177.385 896.239 180.44 900.846 Q183.519 905.429 183.519 914.179 Q183.519 922.906 180.44 927.512 Q177.385 932.095 171.575 932.095 Q165.765 932.095 162.686 927.512 Q159.63 922.906 159.63 914.179 Q159.63 905.429 162.686 900.846 Q165.765 896.239 171.575 896.239 Z" fill="#000000" fill-rule="nonzero" fill-opacity="1" /><path clip-path="url(#clip120)" d="M127.339 696.24 Q124.005 696.24 122.084 698.023 Q120.186 699.805 120.186 702.93 Q120.186 706.055 122.084 707.838 Q124.005 709.62 127.339 709.62 Q130.672 709.62 132.593 707.838 Q134.515 706.032 134.515 702.93 Q134.515 699.805 132.593 698.023 Q130.695 696.24 127.339 696.24 M122.663 694.25 Q119.654 693.509 117.964 691.449 Q116.297 689.389 116.297 686.426 Q116.297 682.282 119.237 679.875 Q122.2 677.467 127.339 677.467 Q132.501 677.467 135.441 679.875 Q138.38 682.282 138.38 686.426 Q138.38 689.389 136.691 691.449 Q135.024 693.509 132.038 694.25 Q135.417 695.037 137.292 697.328 Q139.191 699.62 139.191 702.93 Q139.191 707.953 136.112 710.638 Q133.056 713.324 127.339 713.324 Q121.621 713.324 118.543 710.638 Q115.487 707.953 115.487 702.93 Q115.487 699.62 117.385 697.328 Q119.283 695.037 122.663 694.25 M120.95 686.865 Q120.95 689.551 122.617 691.055 Q124.306 692.56 127.339 692.56 Q130.348 692.56 132.038 691.055 Q133.751 689.551 133.751 686.865 Q133.751 684.18 132.038 682.676 Q130.348 681.171 127.339 681.171 Q124.306 681.171 122.617 682.676 Q120.95 684.18 120.95 686.865 Z" fill="#000000" fill-rule="nonzero" fill-opacity="1" /><path clip-path="url(#clip120)" d="M147.501 706.773 L152.385 706.773 L152.385 712.652 L147.501 712.652 L147.501 706.773 Z" fill="#000000" fill-rule="nonzero" fill-opacity="1" /><path clip-path="url(#clip120)" d="M162.616 678.092 L180.973 678.092 L180.973 682.028 L166.899 682.028 L166.899 690.5 Q167.917 690.152 168.936 689.99 Q169.954 689.805 170.973 689.805 Q176.76 689.805 180.139 692.977 Q183.519 696.148 183.519 701.564 Q183.519 707.143 180.047 710.245 Q176.575 713.324 170.255 713.324 Q168.079 713.324 165.811 712.953 Q163.565 712.583 161.158 711.842 L161.158 707.143 Q163.241 708.277 165.464 708.833 Q167.686 709.388 170.163 709.388 Q174.167 709.388 176.505 707.282 Q178.843 705.176 178.843 701.564 Q178.843 697.953 176.505 695.847 Q174.167 693.74 170.163 693.74 Q168.288 693.74 166.413 694.157 Q164.561 694.574 162.616 695.453 L162.616 678.092 Z" fill="#000000" fill-rule="nonzero" fill-opacity="1" /><path clip-path="url(#clip120)" d="M116.482 493.163 L116.482 488.904 Q118.242 489.737 120.047 490.177 Q121.853 490.617 123.589 490.617 Q128.218 490.617 130.649 487.515 Q133.103 484.39 133.45 478.047 Q132.107 480.038 130.047 481.103 Q127.987 482.168 125.487 482.168 Q120.302 482.168 117.269 479.043 Q114.26 475.895 114.26 470.455 Q114.26 465.131 117.408 461.913 Q120.556 458.696 125.788 458.696 Q131.783 458.696 134.931 463.302 Q138.103 467.885 138.103 476.635 Q138.103 484.807 134.214 489.691 Q130.348 494.552 123.797 494.552 Q122.038 494.552 120.232 494.205 Q118.427 493.857 116.482 493.163 M125.788 478.51 Q128.936 478.51 130.765 476.358 Q132.617 474.205 132.617 470.455 Q132.617 466.728 130.765 464.575 Q128.936 462.399 125.788 462.399 Q122.64 462.399 120.788 464.575 Q118.959 466.728 118.959 470.455 Q118.959 474.205 120.788 476.358 Q122.64 478.51 125.788 478.51 Z" fill="#000000" fill-rule="nonzero" fill-opacity="1" /><path clip-path="url(#clip120)" d="M146.505 488.001 L151.39 488.001 L151.39 493.881 L146.505 493.881 L146.505 488.001 Z" fill="#000000" fill-rule="nonzero" fill-opacity="1" /><path clip-path="url(#clip120)" d="M171.575 462.399 Q167.964 462.399 166.135 465.964 Q164.329 469.506 164.329 476.635 Q164.329 483.742 166.135 487.307 Q167.964 490.848 171.575 490.848 Q175.209 490.848 177.014 487.307 Q178.843 483.742 178.843 476.635 Q178.843 469.506 177.014 465.964 Q175.209 462.399 171.575 462.399 M171.575 458.696 Q177.385 458.696 180.44 463.302 Q183.519 467.885 183.519 476.635 Q183.519 485.362 180.44 489.969 Q177.385 494.552 171.575 494.552 Q165.765 494.552 162.686 489.969 Q159.63 485.362 159.63 476.635 Q159.63 467.885 162.686 463.302 Q165.765 458.696 171.575 458.696 Z" fill="#000000" fill-rule="nonzero" fill-opacity="1" /><path clip-path="url(#clip120)" d="M117.478 274.391 L117.478 270.132 Q119.237 270.965 121.043 271.405 Q122.848 271.845 124.584 271.845 Q129.214 271.845 131.644 268.743 Q134.098 265.618 134.445 259.276 Q133.103 261.266 131.042 262.331 Q128.982 263.396 126.482 263.396 Q121.297 263.396 118.265 260.271 Q115.256 257.123 115.256 251.683 Q115.256 246.359 118.404 243.142 Q121.552 239.924 126.783 239.924 Q132.779 239.924 135.927 244.53 Q139.098 249.114 139.098 257.864 Q139.098 266.035 135.209 270.919 Q131.343 275.78 124.793 275.78 Q123.033 275.78 121.228 275.433 Q119.422 275.086 117.478 274.391 M126.783 259.739 Q129.931 259.739 131.76 257.586 Q133.612 255.433 133.612 251.683 Q133.612 247.956 131.76 245.804 Q129.931 243.628 126.783 243.628 Q123.635 243.628 121.783 245.804 Q119.955 247.956 119.955 251.683 Q119.955 255.433 121.783 257.586 Q123.635 259.739 126.783 259.739 Z" fill="#000000" fill-rule="nonzero" fill-opacity="1" /><path clip-path="url(#clip120)" d="M147.501 269.229 L152.385 269.229 L152.385 275.109 L147.501 275.109 L147.501 269.229 Z" fill="#000000" fill-rule="nonzero" fill-opacity="1" /><path clip-path="url(#clip120)" d="M162.616 240.549 L180.973 240.549 L180.973 244.484 L166.899 244.484 L166.899 252.956 Q167.917 252.609 168.936 252.447 Q169.954 252.262 170.973 252.262 Q176.76 252.262 180.139 255.433 Q183.519 258.604 183.519 264.021 Q183.519 269.6 180.047 272.702 Q176.575 275.78 170.255 275.78 Q168.079 275.78 165.811 275.41 Q163.565 275.039 161.158 274.299 L161.158 269.6 Q163.241 270.734 165.464 271.29 Q167.686 271.845 170.163 271.845 Q174.167 271.845 176.505 269.739 Q178.843 267.632 178.843 264.021 Q178.843 260.41 176.505 258.303 Q174.167 256.197 170.163 256.197 Q168.288 256.197 166.413 256.614 Q164.561 257.03 162.616 257.91 L162.616 240.549 Z" fill="#000000" fill-rule="nonzero" fill-opacity="1" /><path clip-path="url(#clip120)" d="M35.1993 774.218 Q31.2526 772.022 29.3747 768.966 Q27.4968 765.911 27.4968 761.773 Q27.4968 756.203 31.4117 753.179 Q35.2948 750.155 42.4881 750.155 L64.0042 750.155 L64.0042 756.044 L42.679 756.044 Q37.5546 756.044 35.072 757.858 Q32.5894 759.672 32.5894 763.396 Q32.5894 767.948 35.6131 770.589 Q38.6368 773.231 43.8567 773.231 L64.0042 773.231 L64.0042 779.119 L42.679 779.119 Q37.5228 779.119 35.072 780.934 Q32.5894 782.748 32.5894 786.535 Q32.5894 791.023 35.6449 793.665 Q38.6686 796.307 43.8567 796.307 L64.0042 796.307 L64.0042 802.195 L28.3562 802.195 L28.3562 796.307 L33.8944 796.307 Q30.616 794.302 29.0564 791.501 Q27.4968 788.7 27.4968 784.849 Q27.4968 780.965 29.4702 778.26 Q31.4436 775.523 35.1993 774.218 Z" fill="#000000" fill-rule="nonzero" fill-opacity="1" /><path clip-path="url(#clip120)" d="M46.0847 722.274 Q46.0847 729.371 47.7079 732.109 Q49.3312 734.846 53.2461 734.846 Q56.3653 734.846 58.2114 732.809 Q60.0256 730.74 60.0256 727.207 Q60.0256 722.337 56.5881 719.409 Q53.1188 716.449 47.3897 716.449 L46.0847 716.449 L46.0847 722.274 M43.6657 710.593 L64.0042 710.593 L64.0042 716.449 L58.5933 716.449 Q61.8398 718.454 63.3994 721.446 Q64.9272 724.438 64.9272 728.767 Q64.9272 734.241 61.8716 737.488 Q58.7843 740.702 53.6281 740.702 Q47.6125 740.702 44.5569 736.692 Q41.5014 732.65 41.5014 724.661 L41.5014 716.449 L40.9285 716.449 Q36.8862 716.449 34.6901 719.123 Q32.4621 721.764 32.4621 726.571 Q32.4621 729.626 33.1941 732.522 Q33.9262 735.419 35.3903 738.092 L29.9795 738.092 Q28.7381 734.878 28.1334 731.854 Q27.4968 728.83 27.4968 725.966 Q27.4968 718.231 31.5072 714.412 Q35.5176 710.593 43.6657 710.593 Z" fill="#000000" fill-rule="nonzero" fill-opacity="1" /><path clip-path="url(#clip120)" d="M28.3562 668.897 L45.7028 681.788 L64.0042 668.229 L64.0042 675.136 L49.9996 685.512 L64.0042 695.888 L64.0042 702.795 L45.3526 688.949 L28.3562 701.617 L28.3562 694.71 L41.0558 685.257 L28.3562 675.804 L28.3562 668.897 Z" fill="#000000" fill-rule="nonzero" fill-opacity="1" /><polyline clip-path="url(#clip122)" style="stroke:#009af9; stroke-linecap:round; stroke-linejoin:round; stroke-width:8; stroke-opacity:1; fill:none" points="279.894,86.1857 287.38,87.2817 "/>
<polyline clip-path="url(#clip122)" style="stroke:#009af9; stroke-linecap:round; stroke-linejoin:round; stroke-width:8; stroke-opacity:1; fill:none" points="287.38,87.2817 297.256,88.7284 "/>
<polyline clip-path="url(#clip122)" style="stroke:#009af9; stroke-linecap:round; stroke-linejoin:round; stroke-width:8; stroke-opacity:1; fill:none" points="297.256,88.7284 310.281,90.6377 "/>
<polyline clip-path="url(#clip122)" style="stroke:#009af9; stroke-linecap:round; stroke-linejoin:round; stroke-width:8; stroke-opacity:1; fill:none" points="310.281,90.6377 327.454,93.1571 "/>
<polyline clip-path="url(#clip122)" style="stroke:#009af9; stroke-linecap:round; stroke-linejoin:round; stroke-width:8; stroke-opacity:1; fill:none" points="327.454,93.1571 350.083,96.4807 "/>
<polyline clip-path="url(#clip122)" style="stroke:#009af9; stroke-linecap:round; stroke-linejoin:round; stroke-width:8; stroke-opacity:1; fill:none" points="350.083,96.4807 379.88,100.864 "/>
<polyline clip-path="url(#clip122)" style="stroke:#009af9; stroke-linecap:round; stroke-linejoin:round; stroke-width:8; stroke-opacity:1; fill:none" points="379.88,100.864 419.075,106.642 "/>
<polyline clip-path="url(#clip122)" style="stroke:#009af9; stroke-linecap:round; stroke-linejoin:round; stroke-width:8; stroke-opacity:1; fill:none" points="419.075,106.642 470.541,114.249 "/>
<polyline clip-path="url(#clip122)" style="stroke:#009af9; stroke-linecap:round; stroke-linejoin:round; stroke-width:8; stroke-opacity:1; fill:none" points="470.541,114.249 537.938,124.246 "/>
<polyline clip-path="url(#clip122)" style="stroke:#009af9; stroke-linecap:round; stroke-linejoin:round; stroke-width:8; stroke-opacity:1; fill:none" points="537.938,124.246 625.817,137.345 "/>
<polyline clip-path="url(#clip122)" style="stroke:#009af9; stroke-linecap:round; stroke-linejoin:round; stroke-width:8; stroke-opacity:1; fill:none" points="625.817,137.345 739.6,154.415 "/>
<polyline clip-path="url(#clip122)" style="stroke:#009af9; stroke-linecap:round; stroke-linejoin:round; stroke-width:8; stroke-opacity:1; fill:none" points="739.6,154.415 885.266,176.463 "/>
<polyline clip-path="url(#clip122)" style="stroke:#009af9; stroke-linecap:round; stroke-linejoin:round; stroke-width:8; stroke-opacity:1; fill:none" points="885.266,176.463 1049.43,201.605 "/>
<polyline clip-path="url(#clip122)" style="stroke:#009af9; stroke-linecap:round; stroke-linejoin:round; stroke-width:8; stroke-opacity:1; fill:none" points="1049.43,201.605 1204.53,225.711 "/>
<polyline clip-path="url(#clip122)" style="stroke:#009af9; stroke-linecap:round; stroke-linejoin:round; stroke-width:8; stroke-opacity:1; fill:none" points="1204.53,225.711 1350.34,248.806 "/>
<polyline clip-path="url(#clip122)" style="stroke:#009af9; stroke-linecap:round; stroke-linejoin:round; stroke-width:8; stroke-opacity:1; fill:none" points="1350.34,248.806 1487.55,271.23 "/>
<polyline clip-path="url(#clip122)" style="stroke:#009af9; stroke-linecap:round; stroke-linejoin:round; stroke-width:8; stroke-opacity:1; fill:none" points="1487.55,271.23 1622.2,295.046 "/>
<polyline clip-path="url(#clip122)" style="stroke:#009af9; stroke-linecap:round; stroke-linejoin:round; stroke-width:8; stroke-opacity:1; fill:none" points="1622.2,295.046 1709.68,314.144 "/>
<polyline clip-path="url(#clip122)" style="stroke:#009af9; stroke-linecap:round; stroke-linejoin:round; stroke-width:8; stroke-opacity:1; fill:none" points="1709.68,314.144 1795.02,341.638 "/>
<polyline clip-path="url(#clip122)" style="stroke:#009af9; stroke-linecap:round; stroke-linejoin:round; stroke-width:8; stroke-opacity:1; fill:none" points="1795.02,341.638 1817.45,350.909 "/>
<polyline clip-path="url(#clip122)" style="stroke:#009af9; stroke-linecap:round; stroke-linejoin:round; stroke-width:8; stroke-opacity:1; fill:none" points="1817.45,350.909 1839.84,360.931 "/>
<polyline clip-path="url(#clip122)" style="stroke:#009af9; stroke-linecap:round; stroke-linejoin:round; stroke-width:8; stroke-opacity:1; fill:none" points="1839.84,360.931 1863.29,372.158 "/>
<polyline clip-path="url(#clip122)" style="stroke:#009af9; stroke-linecap:round; stroke-linejoin:round; stroke-width:8; stroke-opacity:1; fill:none" points="1863.29,372.158 1888.6,385.014 "/>
<polyline clip-path="url(#clip122)" style="stroke:#009af9; stroke-linecap:round; stroke-linejoin:round; stroke-width:8; stroke-opacity:1; fill:none" points="1888.6,385.014 1891.66,386.615 "/>
<polyline clip-path="url(#clip122)" style="stroke:#009af9; stroke-linecap:round; stroke-linejoin:round; stroke-width:4; stroke-opacity:1; fill:none" points="1891.66,386.615 1924.25,404.292 "/>
<polyline clip-path="url(#clip122)" style="stroke:#009af9; stroke-linecap:round; stroke-linejoin:round; stroke-width:4; stroke-opacity:1; fill:none" points="1924.25,404.292 1953.45,421.043 "/>
<polyline clip-path="url(#clip122)" style="stroke:#009af9; stroke-linecap:round; stroke-linejoin:round; stroke-width:4; stroke-opacity:1; fill:none" points="1953.45,421.043 1980.37,437.248 "/>
<polyline clip-path="url(#clip122)" style="stroke:#009af9; stroke-linecap:round; stroke-linejoin:round; stroke-width:4; stroke-opacity:1; fill:none" points="1980.37,437.248 2005.61,453.153 "/>
<polyline clip-path="url(#clip122)" style="stroke:#009af9; stroke-linecap:round; stroke-linejoin:round; stroke-width:4; stroke-opacity:1; fill:none" points="2005.61,453.153 2029.59,468.939 "/>
<polyline clip-path="url(#clip122)" style="stroke:#009af9; stroke-linecap:round; stroke-linejoin:round; stroke-width:4; stroke-opacity:1; fill:none" points="2029.59,468.939 2052.57,484.757 "/>
<polyline clip-path="url(#clip122)" style="stroke:#009af9; stroke-linecap:round; stroke-linejoin:round; stroke-width:4; stroke-opacity:1; fill:none" points="2052.57,484.757 2074.76,500.739 "/>
<polyline clip-path="url(#clip122)" style="stroke:#009af9; stroke-linecap:round; stroke-linejoin:round; stroke-width:4; stroke-opacity:1; fill:none" points="2074.76,500.739 2096.29,517.013 "/>
<polyline clip-path="url(#clip122)" style="stroke:#009af9; stroke-linecap:round; stroke-linejoin:round; stroke-width:4; stroke-opacity:1; fill:none" points="2096.29,517.013 2117.26,533.704 "/>
<polyline clip-path="url(#clip122)" style="stroke:#009af9; stroke-linecap:round; stroke-linejoin:round; stroke-width:4; stroke-opacity:1; fill:none" points="2117.26,533.704 2137.73,550.942 "/>
<polyline clip-path="url(#clip122)" style="stroke:#009af9; stroke-linecap:round; stroke-linejoin:round; stroke-width:4; stroke-opacity:1; fill:none" points="2137.73,550.942 2157.74,568.864 "/>
<polyline clip-path="url(#clip122)" style="stroke:#009af9; stroke-linecap:round; stroke-linejoin:round; stroke-width:4; stroke-opacity:1; fill:none" points="2157.74,568.864 2177.26,587.619 "/>
<polyline clip-path="url(#clip122)" style="stroke:#009af9; stroke-linecap:round; stroke-linejoin:round; stroke-width:4; stroke-opacity:1; fill:none" points="2177.26,587.619 2196.25,607.369 "/>
<polyline clip-path="url(#clip122)" style="stroke:#009af9; stroke-linecap:round; stroke-linejoin:round; stroke-width:4; stroke-opacity:1; fill:none" points="2196.25,607.369 2214.57,628.292 "/>
<polyline clip-path="url(#clip122)" style="stroke:#009af9; stroke-linecap:round; stroke-linejoin:round; stroke-width:4; stroke-opacity:1; fill:none" points="2214.57,628.292 2232.03,650.577 "/>
<polyline clip-path="url(#clip122)" style="stroke:#009af9; stroke-linecap:round; stroke-linejoin:round; stroke-width:4; stroke-opacity:1; fill:none" points="2232.03,650.577 2248.32,674.428 "/>
<polyline clip-path="url(#clip122)" style="stroke:#009af9; stroke-linecap:round; stroke-linejoin:round; stroke-width:4; stroke-opacity:1; fill:none" points="2248.32,674.428 2263.04,700.044 "/>
<polyline clip-path="url(#clip122)" style="stroke:#009af9; stroke-linecap:round; stroke-linejoin:round; stroke-width:4; stroke-opacity:1; fill:none" points="2263.04,700.044 2275.59,727.607 "/>
<polyline clip-path="url(#clip122)" style="stroke:#009af9; stroke-linecap:round; stroke-linejoin:round; stroke-width:4; stroke-opacity:1; fill:none" points="2275.59,727.607 2285.23,757.246 "/>
<polyline clip-path="url(#clip122)" style="stroke:#009af9; stroke-linecap:round; stroke-linejoin:round; stroke-width:4; stroke-opacity:1; fill:none" points="2285.23,757.246 2291.07,789.007 "/>
<polyline clip-path="url(#clip122)" style="stroke:#009af9; stroke-linecap:round; stroke-linejoin:round; stroke-width:4; stroke-opacity:1; fill:none" points="2291.07,789.007 2292.38,812.465 "/>
<polyline clip-path="url(#clip122)" style="stroke:#009af9; stroke-linecap:round; stroke-linejoin:round; stroke-width:4; stroke-opacity:1; fill:none" points="2292.38,812.465 2289.57,847.559 "/>
<polyline clip-path="url(#clip122)" style="stroke:#009af9; stroke-linecap:round; stroke-linejoin:round; stroke-width:4; stroke-opacity:1; fill:none" points="2289.57,847.559 2280.58,884.202 "/>
<polyline clip-path="url(#clip122)" style="stroke:#009af9; stroke-linecap:round; stroke-linejoin:round; stroke-width:4; stroke-opacity:1; fill:none" points="2280.58,884.202 2264.96,921.95 "/>
<polyline clip-path="url(#clip122)" style="stroke:#009af9; stroke-linecap:round; stroke-linejoin:round; stroke-width:4; stroke-opacity:1; fill:none" points="2264.96,921.95 2242.72,960.318 "/>
<polyline clip-path="url(#clip122)" style="stroke:#009af9; stroke-linecap:round; stroke-linejoin:round; stroke-width:4; stroke-opacity:1; fill:none" points="2242.72,960.318 2214.27,998.871 "/>
<polyline clip-path="url(#clip122)" style="stroke:#009af9; stroke-linecap:round; stroke-linejoin:round; stroke-width:4; stroke-opacity:1; fill:none" points="2214.27,998.871 2180.35,1037.28 "/>
<polyline clip-path="url(#clip122)" style="stroke:#009af9; stroke-linecap:round; stroke-linejoin:round; stroke-width:4; stroke-opacity:1; fill:none" points="2180.35,1037.28 2141.84,1075.38 "/>
<polyline clip-path="url(#clip122)" style="stroke:#009af9; stroke-linecap:round; stroke-linejoin:round; stroke-width:4; stroke-opacity:1; fill:none" points="2141.84,1075.38 2099.61,1113.13 "/>
<polyline clip-path="url(#clip122)" style="stroke:#009af9; stroke-linecap:round; stroke-linejoin:round; stroke-width:4; stroke-opacity:1; fill:none" points="2099.61,1113.13 2054.44,1150.62 "/>
<polyline clip-path="url(#clip122)" style="stroke:#009af9; stroke-linecap:round; stroke-linejoin:round; stroke-width:4; stroke-opacity:1; fill:none" points="2054.44,1150.62 2007,1188.05 "/>
<polyline clip-path="url(#clip122)" style="stroke:#009af9; stroke-linecap:round; stroke-linejoin:round; stroke-width:4; stroke-opacity:1; fill:none" points="2007,1188.05 1957.85,1225.67 "/>
<polyline clip-path="url(#clip122)" style="stroke:#009af9; stroke-linecap:round; stroke-linejoin:round; stroke-width:4; stroke-opacity:1; fill:none" points="1957.85,1225.67 1907.47,1263.78 "/>
<polyline clip-path="url(#clip122)" style="stroke:#009af9; stroke-linecap:round; stroke-linejoin:round; stroke-width:4; stroke-opacity:1; fill:none" points="1907.47,1263.78 1856.34,1302.69 "/>
<polyline clip-path="url(#clip122)" style="stroke:#009af9; stroke-linecap:round; stroke-linejoin:round; stroke-width:4; stroke-opacity:1; fill:none" points="1856.34,1302.69 1804.98,1342.74 "/>
<polyline clip-path="url(#clip122)" style="stroke:#009af9; stroke-linecap:round; stroke-linejoin:round; stroke-width:4; stroke-opacity:1; fill:none" points="1804.98,1342.74 1754.01,1384.24 "/>
<circle clip-path="url(#clip122)" cx="1891.66" cy="386.615" r="10.8" fill="#ffa500" fill-rule="evenodd" fill-opacity="1" stroke="none"/>
<circle clip-path="url(#clip122)" cx="2292.38" cy="812.465" r="10.8" fill="#0000ff" fill-rule="evenodd" fill-opacity="1" stroke="none"/>
<circle clip-path="url(#clip122)" cx="1891.66" cy="386.615" r="10.8" fill="#ffa500" fill-rule="evenodd" fill-opacity="1" stroke="none"/>
<circle clip-path="url(#clip122)" cx="2292.38" cy="812.465" r="10.8" fill="#0000ff" fill-rule="evenodd" fill-opacity="1" stroke="none"/>
<path clip-path="url(#clip120)" d="M290.627 1377.32 L557.237 1377.32 L557.237 1221.8 L290.627 1221.8  Z" fill="#ffffff" fill-rule="evenodd" fill-opacity="1"/>
<polyline clip-path="url(#clip120)" style="stroke:#000000; stroke-linecap:round; stroke-linejoin:round; stroke-width:4; stroke-opacity:1; fill:none" points="290.627,1377.32 557.237,1377.32 557.237,1221.8 290.627,1221.8 290.627,1377.32 "/>
<circle clip-path="url(#clip120)" cx="385.437" cy="1273.64" r="23.04" fill="#ffa500" fill-rule="evenodd" fill-opacity="1" stroke="none"/>
<path clip-path="url(#clip120)" d="M501.961 1275.27 L501.961 1290.92 L497.702 1290.92 L497.702 1275.41 Q497.702 1271.73 496.266 1269.9 Q494.831 1268.07 491.961 1268.07 Q488.512 1268.07 486.521 1270.27 Q484.53 1272.47 484.53 1276.26 L484.53 1290.92 L480.248 1290.92 L480.248 1264.99 L484.53 1264.99 L484.53 1269.02 Q486.058 1266.68 488.118 1265.52 Q490.202 1264.36 492.91 1264.36 Q497.378 1264.36 499.669 1267.14 Q501.961 1269.9 501.961 1275.27 Z" fill="#000000" fill-rule="nonzero" fill-opacity="1" /><path clip-path="url(#clip120)" d="M526.984 1265.75 L526.984 1269.78 Q525.178 1268.86 523.234 1268.39 Q521.289 1267.93 519.206 1267.93 Q516.035 1267.93 514.438 1268.9 Q512.864 1269.87 512.864 1271.82 Q512.864 1273.3 513.998 1274.16 Q515.132 1274.99 518.558 1275.75 L520.016 1276.08 Q524.553 1277.05 526.451 1278.83 Q528.373 1280.59 528.373 1283.76 Q528.373 1287.37 525.502 1289.48 Q522.655 1291.59 517.655 1291.59 Q515.572 1291.59 513.303 1291.17 Q511.058 1290.78 508.558 1289.97 L508.558 1285.57 Q510.919 1286.79 513.211 1287.42 Q515.502 1288.02 517.748 1288.02 Q520.757 1288.02 522.377 1287 Q523.998 1285.96 523.998 1284.09 Q523.998 1282.35 522.817 1281.42 Q521.66 1280.5 517.701 1279.64 L516.22 1279.3 Q512.262 1278.46 510.502 1276.75 Q508.743 1275.01 508.743 1272 Q508.743 1268.35 511.336 1266.36 Q513.928 1264.36 518.697 1264.36 Q521.058 1264.36 523.141 1264.71 Q525.225 1265.06 526.984 1265.75 Z" fill="#000000" fill-rule="nonzero" fill-opacity="1" /><circle clip-path="url(#clip120)" cx="385.437" cy="1325.48" r="23.04" fill="#0000ff" fill-rule="evenodd" fill-opacity="1" stroke="none"/>
<path clip-path="url(#clip120)" d="M499.021 1329.82 Q499.021 1325.12 497.077 1322.45 Q495.155 1319.77 491.776 1319.77 Q488.396 1319.77 486.452 1322.45 Q484.53 1325.12 484.53 1329.82 Q484.53 1334.51 486.452 1337.2 Q488.396 1339.86 491.776 1339.86 Q495.155 1339.86 497.077 1337.2 Q499.021 1334.51 499.021 1329.82 M484.53 1320.76 Q485.873 1318.45 487.91 1317.34 Q489.97 1316.2 492.817 1316.2 Q497.54 1316.2 500.479 1319.95 Q503.442 1323.7 503.442 1329.82 Q503.442 1335.93 500.479 1339.68 Q497.54 1343.43 492.817 1343.43 Q489.97 1343.43 487.91 1342.32 Q485.873 1341.18 484.53 1338.87 L484.53 1342.76 L480.248 1342.76 L480.248 1306.74 L484.53 1306.74 L484.53 1320.76 Z" fill="#000000" fill-rule="nonzero" fill-opacity="1" /><path clip-path="url(#clip120)" d="M514.623 1338.87 L514.623 1352.62 L510.34 1352.62 L510.34 1316.83 L514.623 1316.83 L514.623 1320.76 Q515.965 1318.45 518.002 1317.34 Q520.063 1316.2 522.91 1316.2 Q527.632 1316.2 530.572 1319.95 Q533.535 1323.7 533.535 1329.82 Q533.535 1335.93 530.572 1339.68 Q527.632 1343.43 522.91 1343.43 Q520.063 1343.43 518.002 1342.32 Q515.965 1341.18 514.623 1338.87 M529.113 1329.82 Q529.113 1325.12 527.169 1322.45 Q525.248 1319.77 521.868 1319.77 Q518.489 1319.77 516.544 1322.45 Q514.623 1325.12 514.623 1329.82 Q514.623 1334.51 516.544 1337.2 Q518.489 1339.86 521.868 1339.86 Q525.248 1339.86 527.169 1337.2 Q529.113 1334.51 529.113 1329.82 Z" fill="#000000" fill-rule="nonzero" fill-opacity="1" /></svg>
