<?xml version="1.0" encoding="utf-8"?>
<svg xmlns="http://www.w3.org/2000/svg" xmlns:xlink="http://www.w3.org/1999/xlink" width="600" height="400" viewBox="0 0 2400 1600">
<defs>
  <clipPath id="clip420">
    <rect x="0" y="0" width="2400" height="1600"/>
  </clipPath>
</defs>
<path clip-path="url(#clip420)" d="M0 1600 L2400 1600 L2400 0 L0 0  Z" fill="#ffffff" fill-rule="evenodd" fill-opacity="1"/>
<defs>
  <clipPath id="clip421">
    <rect x="480" y="0" width="1681" height="1600"/>
  </clipPath>
</defs>
<path clip-path="url(#clip420)" d="M250.028 1423.18 L2352.76 1423.18 L2352.76 47.2441 L250.028 47.2441  Z" fill="#ffffff" fill-rule="evenodd" fill-opacity="1"/>
<defs>
  <clipPath id="clip422">
    <rect x="250" y="47" width="2104" height="1377"/>
  </clipPath>
</defs>
<polyline clip-path="url(#clip422)" style="stroke:#000000; stroke-linecap:round; stroke-linejoin:round; stroke-width:2; stroke-opacity:0.1; fill:none" points="309.539,1423.18 309.539,47.2441 "/>
<polyline clip-path="url(#clip422)" style="stroke:#000000; stroke-linecap:round; stroke-linejoin:round; stroke-width:2; stroke-opacity:0.1; fill:none" points="864.414,1423.18 864.414,47.2441 "/>
<polyline clip-path="url(#clip422)" style="stroke:#000000; stroke-linecap:round; stroke-linejoin:round; stroke-width:2; stroke-opacity:0.1; fill:none" points="1419.29,1423.18 1419.29,47.2441 "/>
<polyline clip-path="url(#clip422)" style="stroke:#000000; stroke-linecap:round; stroke-linejoin:round; stroke-width:2; stroke-opacity:0.1; fill:none" points="1974.16,1423.18 1974.16,47.2441 "/>
<polyline clip-path="url(#clip422)" style="stroke:#000000; stroke-linecap:round; stroke-linejoin:round; stroke-width:2; stroke-opacity:0.1; fill:none" points="250.028,1201.65 2352.76,1201.65 "/>
<polyline clip-path="url(#clip422)" style="stroke:#000000; stroke-linecap:round; stroke-linejoin:round; stroke-width:2; stroke-opacity:0.1; fill:none" points="250.028,954.87 2352.76,954.87 "/>
<polyline clip-path="url(#clip422)" style="stroke:#000000; stroke-linecap:round; stroke-linejoin:round; stroke-width:2; stroke-opacity:0.1; fill:none" points="250.028,708.091 2352.76,708.091 "/>
<polyline clip-path="url(#clip422)" style="stroke:#000000; stroke-linecap:round; stroke-linejoin:round; stroke-width:2; stroke-opacity:0.1; fill:none" points="250.028,461.311 2352.76,461.311 "/>
<polyline clip-path="url(#clip422)" style="stroke:#000000; stroke-linecap:round; stroke-linejoin:round; stroke-width:2; stroke-opacity:0.1; fill:none" points="250.028,214.532 2352.76,214.532 "/>
<polyline clip-path="url(#clip420)" style="stroke:#000000; stroke-linecap:round; stroke-linejoin:round; stroke-width:4; stroke-opacity:1; fill:none" points="250.028,1423.18 2352.76,1423.18 "/>
<polyline clip-path="url(#clip420)" style="stroke:#000000; stroke-linecap:round; stroke-linejoin:round; stroke-width:4; stroke-opacity:1; fill:none" points="309.539,1423.18 309.539,1404.28 "/>
<polyline clip-path="url(#clip420)" style="stroke:#000000; stroke-linecap:round; stroke-linejoin:round; stroke-width:4; stroke-opacity:1; fill:none" points="864.414,1423.18 864.414,1404.28 "/>
<polyline clip-path="url(#clip420)" style="stroke:#000000; stroke-linecap:round; stroke-linejoin:round; stroke-width:4; stroke-opacity:1; fill:none" points="1419.29,1423.18 1419.29,1404.28 "/>
<polyline clip-path="url(#clip420)" style="stroke:#000000; stroke-linecap:round; stroke-linejoin:round; stroke-width:4; stroke-opacity:1; fill:none" points="1974.16,1423.18 1974.16,1404.28 "/>
<path clip-path="url(#clip420)" d="M277.19 1481.64 L284.829 1481.64 L284.829 1455.28 L276.519 1456.95 L276.519 1452.69 L284.782 1451.02 L289.458 1451.02 L289.458 1481.64 L297.097 1481.64 L297.097 1485.58 L277.19 1485.58 L277.19 1481.64 Z" fill="#000000" fill-rule="nonzero" fill-opacity="1" /><path clip-path="url(#clip420)" d="M306.542 1479.7 L311.426 1479.7 L311.426 1485.58 L306.542 1485.58 L306.542 1479.7 Z" fill="#000000" fill-rule="nonzero" fill-opacity="1" /><path clip-path="url(#clip420)" d="M321.657 1451.02 L340.014 1451.02 L340.014 1454.96 L325.94 1454.96 L325.94 1463.43 Q326.958 1463.08 327.977 1462.92 Q328.995 1462.73 330.014 1462.73 Q335.801 1462.73 339.18 1465.9 Q342.56 1469.08 342.56 1474.49 Q342.56 1480.07 339.088 1483.17 Q335.616 1486.25 329.296 1486.25 Q327.12 1486.25 324.852 1485.88 Q322.606 1485.51 320.199 1484.77 L320.199 1480.07 Q322.282 1481.2 324.505 1481.76 Q326.727 1482.32 329.204 1482.32 Q333.208 1482.32 335.546 1480.21 Q337.884 1478.1 337.884 1474.49 Q337.884 1470.88 335.546 1468.77 Q333.208 1466.67 329.204 1466.67 Q327.329 1466.67 325.454 1467.08 Q323.602 1467.5 321.657 1468.38 L321.657 1451.02 Z" fill="#000000" fill-rule="nonzero" fill-opacity="1" /><path clip-path="url(#clip420)" d="M831.486 1481.64 L839.125 1481.64 L839.125 1455.28 L830.815 1456.95 L830.815 1452.69 L839.079 1451.02 L843.755 1451.02 L843.755 1481.64 L851.393 1481.64 L851.393 1485.58 L831.486 1485.58 L831.486 1481.64 Z" fill="#000000" fill-rule="nonzero" fill-opacity="1" /><path clip-path="url(#clip420)" d="M860.838 1479.7 L865.722 1479.7 L865.722 1485.58 L860.838 1485.58 L860.838 1479.7 Z" fill="#000000" fill-rule="nonzero" fill-opacity="1" /><path clip-path="url(#clip420)" d="M886.486 1466.44 Q883.338 1466.44 881.486 1468.59 Q879.657 1470.74 879.657 1474.49 Q879.657 1478.22 881.486 1480.39 Q883.338 1482.55 886.486 1482.55 Q889.634 1482.55 891.463 1480.39 Q893.314 1478.22 893.314 1474.49 Q893.314 1470.74 891.463 1468.59 Q889.634 1466.44 886.486 1466.44 M895.768 1451.78 L895.768 1456.04 Q894.009 1455.21 892.203 1454.77 Q890.421 1454.33 888.662 1454.33 Q884.032 1454.33 881.578 1457.45 Q879.148 1460.58 878.801 1466.9 Q880.166 1464.89 882.227 1463.82 Q884.287 1462.73 886.764 1462.73 Q891.972 1462.73 894.981 1465.9 Q898.013 1469.05 898.013 1474.49 Q898.013 1479.82 894.865 1483.03 Q891.717 1486.25 886.486 1486.25 Q880.49 1486.25 877.319 1481.67 Q874.148 1477.06 874.148 1468.33 Q874.148 1460.14 878.037 1455.28 Q881.926 1450.39 888.476 1450.39 Q890.236 1450.39 892.018 1450.74 Q893.824 1451.09 895.768 1451.78 Z" fill="#000000" fill-rule="nonzero" fill-opacity="1" /><path clip-path="url(#clip420)" d="M1386.89 1481.64 L1394.53 1481.64 L1394.53 1455.28 L1386.22 1456.95 L1386.22 1452.69 L1394.49 1451.02 L1399.16 1451.02 L1399.16 1481.64 L1406.8 1481.64 L1406.8 1485.58 L1386.89 1485.58 L1386.89 1481.64 Z" fill="#000000" fill-rule="nonzero" fill-opacity="1" /><path clip-path="url(#clip420)" d="M1416.24 1479.7 L1421.13 1479.7 L1421.13 1485.58 L1416.24 1485.58 L1416.24 1479.7 Z" fill="#000000" fill-rule="nonzero" fill-opacity="1" /><path clip-path="url(#clip420)" d="M1430.13 1451.02 L1452.36 1451.02 L1452.36 1453.01 L1439.81 1485.58 L1434.93 1485.58 L1446.73 1454.96 L1430.13 1454.96 L1430.13 1451.02 Z" fill="#000000" fill-rule="nonzero" fill-opacity="1" /><path clip-path="url(#clip420)" d="M1941.36 1481.64 L1949 1481.64 L1949 1455.28 L1940.69 1456.95 L1940.69 1452.69 L1948.96 1451.02 L1953.63 1451.02 L1953.63 1481.64 L1961.27 1481.64 L1961.27 1485.58 L1941.36 1485.58 L1941.36 1481.64 Z" fill="#000000" fill-rule="nonzero" fill-opacity="1" /><path clip-path="url(#clip420)" d="M1970.71 1479.7 L1975.6 1479.7 L1975.6 1485.58 L1970.71 1485.58 L1970.71 1479.7 Z" fill="#000000" fill-rule="nonzero" fill-opacity="1" /><path clip-path="url(#clip420)" d="M1995.78 1469.17 Q1992.45 1469.17 1990.53 1470.95 Q1988.63 1472.73 1988.63 1475.86 Q1988.63 1478.98 1990.53 1480.77 Q1992.45 1482.55 1995.78 1482.55 Q1999.12 1482.55 2001.04 1480.77 Q2002.96 1478.96 2002.96 1475.86 Q2002.96 1472.73 2001.04 1470.95 Q1999.14 1469.17 1995.78 1469.17 M1991.11 1467.18 Q1988.1 1466.44 1986.41 1464.38 Q1984.74 1462.32 1984.74 1459.35 Q1984.74 1455.21 1987.68 1452.8 Q1990.65 1450.39 1995.78 1450.39 Q2000.95 1450.39 2003.89 1452.8 Q2006.83 1455.21 2006.83 1459.35 Q2006.83 1462.32 2005.14 1464.38 Q2003.47 1466.44 2000.48 1467.18 Q2003.86 1467.96 2005.74 1470.26 Q2007.64 1472.55 2007.64 1475.86 Q2007.64 1480.88 2004.56 1483.57 Q2001.5 1486.25 1995.78 1486.25 Q1990.07 1486.25 1986.99 1483.57 Q1983.93 1480.88 1983.93 1475.86 Q1983.93 1472.55 1985.83 1470.26 Q1987.73 1467.96 1991.11 1467.18 M1989.4 1459.79 Q1989.4 1462.48 1991.06 1463.98 Q1992.75 1465.49 1995.78 1465.49 Q1998.79 1465.49 2000.48 1463.98 Q2002.2 1462.48 2002.2 1459.79 Q2002.2 1457.11 2000.48 1455.6 Q1998.79 1454.1 1995.78 1454.1 Q1992.75 1454.1 1991.06 1455.6 Q1989.4 1457.11 1989.4 1459.79 Z" fill="#000000" fill-rule="nonzero" fill-opacity="1" /><path clip-path="url(#clip420)" d="M1267.53 1518.52 L1273.41 1518.52 L1273.41 1547.77 L1290.89 1532.4 L1298.37 1532.4 L1279.46 1549.07 L1299.16 1568.04 L1291.53 1568.04 L1273.41 1550.63 L1273.41 1568.04 L1267.53 1568.04 L1267.53 1518.52 Z" fill="#000000" fill-rule="nonzero" fill-opacity="1" /><path clip-path="url(#clip420)" d="M1304.7 1520.52 L1335.26 1520.52 L1335.26 1523.26 L1318.01 1568.04 L1311.29 1568.04 L1327.52 1525.93 L1304.7 1525.93 L1304.7 1520.52 Z" fill="#000000" fill-rule="nonzero" fill-opacity="1" /><polyline clip-path="url(#clip420)" style="stroke:#000000; stroke-linecap:round; stroke-linejoin:round; stroke-width:4; stroke-opacity:1; fill:none" points="250.028,1423.18 250.028,47.2441 "/>
<polyline clip-path="url(#clip420)" style="stroke:#000000; stroke-linecap:round; stroke-linejoin:round; stroke-width:4; stroke-opacity:1; fill:none" points="250.028,1201.65 268.926,1201.65 "/>
<polyline clip-path="url(#clip420)" style="stroke:#000000; stroke-linecap:round; stroke-linejoin:round; stroke-width:4; stroke-opacity:1; fill:none" points="250.028,954.87 268.926,954.87 "/>
<polyline clip-path="url(#clip420)" style="stroke:#000000; stroke-linecap:round; stroke-linejoin:round; stroke-width:4; stroke-opacity:1; fill:none" points="250.028,708.091 268.926,708.091 "/>
<polyline clip-path="url(#clip420)" style="stroke:#000000; stroke-linecap:round; stroke-linejoin:round; stroke-width:4; stroke-opacity:1; fill:none" points="250.028,461.311 268.926,461.311 "/>
<polyline clip-path="url(#clip420)" style="stroke:#000000; stroke-linecap:round; stroke-linejoin:round; stroke-width:4; stroke-opacity:1; fill:none" points="250.028,214.532 268.926,214.532 "/>
<path clip-path="url(#clip420)" d="M126.205 1187.45 Q122.593 1187.45 120.765 1191.01 Q118.959 1194.55 118.959 1201.68 Q118.959 1208.79 120.765 1212.36 Q122.593 1215.9 126.205 1215.9 Q129.839 1215.9 131.644 1212.36 Q133.473 1208.79 133.473 1201.68 Q133.473 1194.55 131.644 1191.01 Q129.839 1187.45 126.205 1187.45 M126.205 1183.74 Q132.015 1183.74 135.07 1188.35 Q138.149 1192.93 138.149 1201.68 Q138.149 1210.41 135.07 1215.02 Q132.015 1219.6 126.205 1219.6 Q120.394 1219.6 117.316 1215.02 Q114.26 1210.41 114.26 1201.68 Q114.26 1192.93 117.316 1188.35 Q120.394 1183.74 126.205 1183.74 Z" fill="#000000" fill-rule="nonzero" fill-opacity="1" /><path clip-path="url(#clip420)" d="M146.366 1213.05 L151.251 1213.05 L151.251 1218.93 L146.366 1218.93 L146.366 1213.05 Z" fill="#000000" fill-rule="nonzero" fill-opacity="1" /><path clip-path="url(#clip420)" d="M171.436 1202.52 Q168.102 1202.52 166.181 1204.3 Q164.283 1206.08 164.283 1209.21 Q164.283 1212.33 166.181 1214.11 Q168.102 1215.9 171.436 1215.9 Q174.769 1215.9 176.69 1214.11 Q178.612 1212.31 178.612 1209.21 Q178.612 1206.08 176.69 1204.3 Q174.792 1202.52 171.436 1202.52 M166.76 1200.53 Q163.751 1199.79 162.061 1197.73 Q160.394 1195.67 160.394 1192.7 Q160.394 1188.56 163.334 1186.15 Q166.297 1183.74 171.436 1183.74 Q176.598 1183.74 179.538 1186.15 Q182.477 1188.56 182.477 1192.7 Q182.477 1195.67 180.788 1197.73 Q179.121 1199.79 176.135 1200.53 Q179.514 1201.31 181.389 1203.61 Q183.288 1205.9 183.288 1209.21 Q183.288 1214.23 180.209 1216.92 Q177.153 1219.6 171.436 1219.6 Q165.718 1219.6 162.64 1216.92 Q159.584 1214.23 159.584 1209.21 Q159.584 1205.9 161.482 1203.61 Q163.38 1201.31 166.76 1200.53 M165.047 1193.14 Q165.047 1195.83 166.714 1197.33 Q168.403 1198.84 171.436 1198.84 Q174.445 1198.84 176.135 1197.33 Q177.848 1195.83 177.848 1193.14 Q177.848 1190.46 176.135 1188.95 Q174.445 1187.45 171.436 1187.45 Q168.403 1187.45 166.714 1188.95 Q165.047 1190.46 165.047 1193.14 Z" fill="#000000" fill-rule="nonzero" fill-opacity="1" /><path clip-path="url(#clip420)" d="M204.445 1188.44 L192.639 1206.89 L204.445 1206.89 L204.445 1188.44 M203.218 1184.37 L209.098 1184.37 L209.098 1206.89 L214.028 1206.89 L214.028 1210.78 L209.098 1210.78 L209.098 1218.93 L204.445 1218.93 L204.445 1210.78 L188.843 1210.78 L188.843 1206.27 L203.218 1184.37 Z" fill="#000000" fill-rule="nonzero" fill-opacity="1" /><path clip-path="url(#clip420)" d="M126.529 940.669 Q122.918 940.669 121.089 944.233 Q119.283 947.775 119.283 954.905 Q119.283 962.011 121.089 965.576 Q122.918 969.118 126.529 969.118 Q130.163 969.118 131.968 965.576 Q133.797 962.011 133.797 954.905 Q133.797 947.775 131.968 944.233 Q130.163 940.669 126.529 940.669 M126.529 936.965 Q132.339 936.965 135.394 941.571 Q138.473 946.155 138.473 954.905 Q138.473 963.631 135.394 968.238 Q132.339 972.821 126.529 972.821 Q120.718 972.821 117.64 968.238 Q114.584 963.631 114.584 954.905 Q114.584 946.155 117.64 941.571 Q120.718 936.965 126.529 936.965 Z" fill="#000000" fill-rule="nonzero" fill-opacity="1" /><path clip-path="url(#clip420)" d="M146.691 966.27 L151.575 966.27 L151.575 972.15 L146.691 972.15 L146.691 966.27 Z" fill="#000000" fill-rule="nonzero" fill-opacity="1" /><path clip-path="url(#clip420)" d="M171.76 955.738 Q168.427 955.738 166.505 957.52 Q164.607 959.303 164.607 962.428 Q164.607 965.553 166.505 967.335 Q168.427 969.118 171.76 969.118 Q175.093 969.118 177.014 967.335 Q178.936 965.53 178.936 962.428 Q178.936 959.303 177.014 957.52 Q175.116 955.738 171.76 955.738 M167.084 953.747 Q164.075 953.007 162.385 950.946 Q160.718 948.886 160.718 945.923 Q160.718 941.78 163.658 939.372 Q166.621 936.965 171.76 936.965 Q176.922 936.965 179.862 939.372 Q182.801 941.78 182.801 945.923 Q182.801 948.886 181.112 950.946 Q179.445 953.007 176.459 953.747 Q179.839 954.534 181.713 956.826 Q183.612 959.118 183.612 962.428 Q183.612 967.451 180.533 970.136 Q177.477 972.821 171.76 972.821 Q166.042 972.821 162.964 970.136 Q159.908 967.451 159.908 962.428 Q159.908 959.118 161.806 956.826 Q163.704 954.534 167.084 953.747 M165.371 946.363 Q165.371 949.048 167.038 950.553 Q168.727 952.057 171.76 952.057 Q174.769 952.057 176.459 950.553 Q178.172 949.048 178.172 946.363 Q178.172 943.678 176.459 942.173 Q174.769 940.669 171.76 940.669 Q168.727 940.669 167.038 942.173 Q165.371 943.678 165.371 946.363 Z" fill="#000000" fill-rule="nonzero" fill-opacity="1" /><path clip-path="url(#clip420)" d="M202.5 953.007 Q199.352 953.007 197.5 955.159 Q195.672 957.312 195.672 961.062 Q195.672 964.789 197.5 966.965 Q199.352 969.118 202.5 969.118 Q205.649 969.118 207.477 966.965 Q209.329 964.789 209.329 961.062 Q209.329 957.312 207.477 955.159 Q205.649 953.007 202.5 953.007 M211.783 938.354 L211.783 942.613 Q210.024 941.78 208.218 941.34 Q206.436 940.9 204.676 940.9 Q200.047 940.9 197.593 944.025 Q195.163 947.15 194.815 953.469 Q196.181 951.456 198.241 950.391 Q200.301 949.303 202.778 949.303 Q207.987 949.303 210.996 952.474 Q214.028 955.622 214.028 961.062 Q214.028 966.386 210.88 969.604 Q207.732 972.821 202.5 972.821 Q196.505 972.821 193.334 968.238 Q190.163 963.631 190.163 954.905 Q190.163 946.71 194.051 941.849 Q197.94 936.965 204.491 936.965 Q206.25 936.965 208.033 937.312 Q209.838 937.659 211.783 938.354 Z" fill="#000000" fill-rule="nonzero" fill-opacity="1" /><path clip-path="url(#clip420)" d="M126.783 693.889 Q123.172 693.889 121.343 697.454 Q119.538 700.996 119.538 708.125 Q119.538 715.232 121.343 718.797 Q123.172 722.338 126.783 722.338 Q130.417 722.338 132.223 718.797 Q134.052 715.232 134.052 708.125 Q134.052 700.996 132.223 697.454 Q130.417 693.889 126.783 693.889 M126.783 690.186 Q132.593 690.186 135.649 694.792 Q138.728 699.375 138.728 708.125 Q138.728 716.852 135.649 721.459 Q132.593 726.042 126.783 726.042 Q120.973 726.042 117.894 721.459 Q114.839 716.852 114.839 708.125 Q114.839 699.375 117.894 694.792 Q120.973 690.186 126.783 690.186 Z" fill="#000000" fill-rule="nonzero" fill-opacity="1" /><path clip-path="url(#clip420)" d="M146.945 719.491 L151.829 719.491 L151.829 725.371 L146.945 725.371 L146.945 719.491 Z" fill="#000000" fill-rule="nonzero" fill-opacity="1" /><path clip-path="url(#clip420)" d="M172.014 708.959 Q168.681 708.959 166.76 710.741 Q164.862 712.523 164.862 715.648 Q164.862 718.773 166.76 720.556 Q168.681 722.338 172.014 722.338 Q175.348 722.338 177.269 720.556 Q179.19 718.75 179.19 715.648 Q179.19 712.523 177.269 710.741 Q175.371 708.959 172.014 708.959 M167.339 706.968 Q164.329 706.227 162.64 704.167 Q160.973 702.107 160.973 699.144 Q160.973 695 163.913 692.593 Q166.876 690.186 172.014 690.186 Q177.176 690.186 180.116 692.593 Q183.056 695 183.056 699.144 Q183.056 702.107 181.366 704.167 Q179.7 706.227 176.714 706.968 Q180.093 707.755 181.968 710.047 Q183.866 712.338 183.866 715.648 Q183.866 720.672 180.788 723.357 Q177.732 726.042 172.014 726.042 Q166.297 726.042 163.218 723.357 Q160.163 720.672 160.163 715.648 Q160.163 712.338 162.061 710.047 Q163.959 707.755 167.339 706.968 M165.626 699.584 Q165.626 702.269 167.292 703.774 Q168.982 705.278 172.014 705.278 Q175.024 705.278 176.714 703.774 Q178.426 702.269 178.426 699.584 Q178.426 696.899 176.714 695.394 Q175.024 693.889 172.014 693.889 Q168.982 693.889 167.292 695.394 Q165.626 696.899 165.626 699.584 Z" fill="#000000" fill-rule="nonzero" fill-opacity="1" /><path clip-path="url(#clip420)" d="M202.176 708.959 Q198.843 708.959 196.922 710.741 Q195.024 712.523 195.024 715.648 Q195.024 718.773 196.922 720.556 Q198.843 722.338 202.176 722.338 Q205.51 722.338 207.431 720.556 Q209.352 718.75 209.352 715.648 Q209.352 712.523 207.431 710.741 Q205.533 708.959 202.176 708.959 M197.5 706.968 Q194.491 706.227 192.801 704.167 Q191.135 702.107 191.135 699.144 Q191.135 695 194.075 692.593 Q197.037 690.186 202.176 690.186 Q207.338 690.186 210.278 692.593 Q213.218 695 213.218 699.144 Q213.218 702.107 211.528 704.167 Q209.861 706.227 206.875 706.968 Q210.255 707.755 212.13 710.047 Q214.028 712.338 214.028 715.648 Q214.028 720.672 210.949 723.357 Q207.894 726.042 202.176 726.042 Q196.459 726.042 193.38 723.357 Q190.325 720.672 190.325 715.648 Q190.325 712.338 192.223 710.047 Q194.121 707.755 197.5 706.968 M195.787 699.584 Q195.787 702.269 197.454 703.774 Q199.144 705.278 202.176 705.278 Q205.186 705.278 206.875 703.774 Q208.588 702.269 208.588 699.584 Q208.588 696.899 206.875 695.394 Q205.186 693.889 202.176 693.889 Q199.144 693.889 197.454 695.394 Q195.787 696.899 195.787 699.584 Z" fill="#000000" fill-rule="nonzero" fill-opacity="1" /><path clip-path="url(#clip420)" d="M126.691 447.11 Q123.08 447.11 121.251 450.675 Q119.445 454.216 119.445 461.346 Q119.445 468.453 121.251 472.017 Q123.08 475.559 126.691 475.559 Q130.325 475.559 132.13 472.017 Q133.959 468.453 133.959 461.346 Q133.959 454.216 132.13 450.675 Q130.325 447.11 126.691 447.11 M126.691 443.406 Q132.501 443.406 135.556 448.013 Q138.635 452.596 138.635 461.346 Q138.635 470.073 135.556 474.679 Q132.501 479.263 126.691 479.263 Q120.88 479.263 117.802 474.679 Q114.746 470.073 114.746 461.346 Q114.746 452.596 117.802 448.013 Q120.88 443.406 126.691 443.406 Z" fill="#000000" fill-rule="nonzero" fill-opacity="1" /><path clip-path="url(#clip420)" d="M146.853 472.712 L151.737 472.712 L151.737 478.591 L146.853 478.591 L146.853 472.712 Z" fill="#000000" fill-rule="nonzero" fill-opacity="1" /><path clip-path="url(#clip420)" d="M162.061 477.874 L162.061 473.615 Q163.82 474.448 165.626 474.888 Q167.431 475.327 169.167 475.327 Q173.797 475.327 176.227 472.226 Q178.681 469.101 179.028 462.758 Q177.686 464.749 175.626 465.814 Q173.565 466.878 171.065 466.878 Q165.88 466.878 162.848 463.753 Q159.839 460.605 159.839 455.166 Q159.839 449.841 162.987 446.624 Q166.135 443.406 171.366 443.406 Q177.362 443.406 180.51 448.013 Q183.681 452.596 183.681 461.346 Q183.681 469.517 179.792 474.402 Q175.926 479.263 169.376 479.263 Q167.616 479.263 165.811 478.915 Q164.005 478.568 162.061 477.874 M171.366 463.221 Q174.514 463.221 176.343 461.068 Q178.195 458.916 178.195 455.166 Q178.195 451.439 176.343 449.286 Q174.514 447.11 171.366 447.11 Q168.218 447.11 166.366 449.286 Q164.538 451.439 164.538 455.166 Q164.538 458.916 166.366 461.068 Q168.218 463.221 171.366 463.221 Z" fill="#000000" fill-rule="nonzero" fill-opacity="1" /><path clip-path="url(#clip420)" d="M202.084 447.11 Q198.473 447.11 196.644 450.675 Q194.838 454.216 194.838 461.346 Q194.838 468.453 196.644 472.017 Q198.473 475.559 202.084 475.559 Q205.718 475.559 207.524 472.017 Q209.352 468.453 209.352 461.346 Q209.352 454.216 207.524 450.675 Q205.718 447.11 202.084 447.11 M202.084 443.406 Q207.894 443.406 210.949 448.013 Q214.028 452.596 214.028 461.346 Q214.028 470.073 210.949 474.679 Q207.894 479.263 202.084 479.263 Q196.274 479.263 193.195 474.679 Q190.139 470.073 190.139 461.346 Q190.139 452.596 193.195 448.013 Q196.274 443.406 202.084 443.406 Z" fill="#000000" fill-rule="nonzero" fill-opacity="1" /><path clip-path="url(#clip420)" d="M128.288 200.331 Q124.677 200.331 122.848 203.896 Q121.043 207.437 121.043 214.567 Q121.043 221.673 122.848 225.238 Q124.677 228.78 128.288 228.78 Q131.922 228.78 133.728 225.238 Q135.556 221.673 135.556 214.567 Q135.556 207.437 133.728 203.896 Q131.922 200.331 128.288 200.331 M128.288 196.627 Q134.098 196.627 137.154 201.234 Q140.232 205.817 140.232 214.567 Q140.232 223.294 137.154 227.9 Q134.098 232.483 128.288 232.483 Q122.478 232.483 119.399 227.9 Q116.343 223.294 116.343 214.567 Q116.343 205.817 119.399 201.234 Q122.478 196.627 128.288 196.627 Z" fill="#000000" fill-rule="nonzero" fill-opacity="1" /><path clip-path="url(#clip420)" d="M148.45 225.932 L153.334 225.932 L153.334 231.812 L148.45 231.812 L148.45 225.932 Z" fill="#000000" fill-rule="nonzero" fill-opacity="1" /><path clip-path="url(#clip420)" d="M163.658 231.094 L163.658 226.835 Q165.417 227.669 167.223 228.108 Q169.028 228.548 170.764 228.548 Q175.394 228.548 177.825 225.446 Q180.278 222.321 180.626 215.979 Q179.283 217.97 177.223 219.034 Q175.163 220.099 172.663 220.099 Q167.477 220.099 164.445 216.974 Q161.436 213.826 161.436 208.386 Q161.436 203.062 164.584 199.845 Q167.732 196.627 172.964 196.627 Q178.959 196.627 182.107 201.234 Q185.278 205.817 185.278 214.567 Q185.278 222.738 181.389 227.622 Q177.524 232.483 170.973 232.483 Q169.214 232.483 167.408 232.136 Q165.602 231.789 163.658 231.094 M172.964 216.442 Q176.112 216.442 177.94 214.289 Q179.792 212.136 179.792 208.386 Q179.792 204.659 177.94 202.507 Q176.112 200.331 172.964 200.331 Q169.815 200.331 167.964 202.507 Q166.135 204.659 166.135 208.386 Q166.135 212.136 167.964 214.289 Q169.815 216.442 172.964 216.442 Z" fill="#000000" fill-rule="nonzero" fill-opacity="1" /><path clip-path="url(#clip420)" d="M197.709 227.877 L214.028 227.877 L214.028 231.812 L192.084 231.812 L192.084 227.877 Q194.746 225.122 199.329 220.493 Q203.936 215.84 205.116 214.497 Q207.362 211.974 208.241 210.238 Q209.144 208.479 209.144 206.789 Q209.144 204.034 207.199 202.298 Q205.278 200.562 202.176 200.562 Q199.977 200.562 197.524 201.326 Q195.093 202.09 192.315 203.641 L192.315 198.919 Q195.139 197.784 197.593 197.206 Q200.047 196.627 202.084 196.627 Q207.454 196.627 210.649 199.312 Q213.843 201.997 213.843 206.488 Q213.843 208.618 213.033 210.539 Q212.246 212.437 210.139 215.03 Q209.561 215.701 206.459 218.919 Q203.357 222.113 197.709 227.877 Z" fill="#000000" fill-rule="nonzero" fill-opacity="1" /><path clip-path="url(#clip420)" d="M14.479 769.635 L14.479 763.746 L43.7294 763.746 L28.3562 746.272 L28.3562 738.793 L45.0344 757.699 L64.0042 737.997 L64.0042 745.636 L46.5939 763.746 L64.0042 763.746 L64.0042 769.635 L14.479 769.635 Z" fill="#000000" fill-rule="nonzero" fill-opacity="1" /><path clip-path="url(#clip420)" d="M41.4377 717.086 Q41.4377 721.669 43.8885 724.311 Q46.3393 726.921 50.6362 726.921 Q54.933 726.921 57.3838 724.311 Q59.8346 721.669 59.8346 717.086 Q59.8346 712.502 57.3838 709.861 Q54.9012 707.219 50.6362 707.219 Q46.3393 707.219 43.8885 709.861 Q41.4377 712.47 41.4377 717.086 M38.7005 723.515 Q37.682 727.653 34.8492 729.976 Q32.0165 732.268 27.9424 732.268 Q22.2451 732.268 18.935 728.226 Q15.6248 724.152 15.6248 717.086 Q15.6248 709.988 18.935 705.946 Q22.2451 701.903 27.9424 701.903 Q32.0165 701.903 34.8492 704.227 Q37.682 706.519 38.7005 710.624 Q39.7826 705.977 42.9337 703.399 Q46.0847 700.789 50.6362 700.789 Q57.543 700.789 61.2351 705.023 Q64.9272 709.224 64.9272 717.086 Q64.9272 724.947 61.2351 729.18 Q57.543 733.382 50.6362 733.382 Q46.0847 733.382 42.9337 730.772 Q39.7826 728.162 38.7005 723.515 M28.5472 725.87 Q32.2393 725.87 34.3081 723.579 Q36.377 721.255 36.377 717.086 Q36.377 712.948 34.3081 710.624 Q32.2393 708.269 28.5472 708.269 Q24.8551 708.269 22.7862 710.624 Q20.7174 712.948 20.7174 717.086 Q20.7174 721.255 22.7862 723.579 Q24.8551 725.87 28.5472 725.87 Z" fill="#000000" fill-rule="nonzero" fill-opacity="1" /><polyline clip-path="url(#clip422)" style="stroke:#009af9; stroke-linecap:round; stroke-linejoin:round; stroke-width:4; stroke-opacity:1; fill:none" points="309.539,1384.24 312.2,1381.75 316.088,1378.11 321.773,1372.8 329.873,1365.24 341.419,1354.49 357.888,1339.2 381.402,1317.45 415.018,1286.55 463.161,1242.68 517.878,1193.4 573.03,1144.37 628.608,1095.63 684.601,1047.23 740.997,999.242 797.784,951.701 854.949,904.67 912.476,858.204 970.35,812.364 1028.55,767.21 1087.07,722.804 1145.88,679.209 1204.97,636.49 1264.31,594.71 1323.88,553.937 1383.66,514.233 1443.63,475.665 1503.76,438.297 1564.02,402.192 1624.4,367.413 1684.86,334.018 1745.38,302.068 1805.93,271.616 1866.49,242.716 1927.03,215.416 1987.52,189.764 2047.94,165.8 2108.25,143.561 2168.43,123.083 2228.43,104.396 2288.1,87.5548 2291.76,86.5808 2292.89,86.2785 2293.24,86.1857 2292.47,86.3906 2291.55,86.6364 2290.73,86.8543 2289.58,87.1606 2287.93,87.6019 2285.62,88.2208 2282.4,89.0884 "/>
<circle clip-path="url(#clip422)" cx="2293.24" cy="86.1857" r="10.8" fill="#458b00" fill-rule="evenodd" fill-opacity="1" stroke="none"/>
<circle clip-path="url(#clip422)" cx="2293.24" cy="86.1857" r="10.8" fill="#458b00" fill-rule="evenodd" fill-opacity="1" stroke="none"/>
<path clip-path="url(#clip420)" d="M320.119 196.789 L584.466 196.789 L584.466 93.1086 L320.119 93.1086  Z" fill="#ffffff" fill-rule="evenodd" fill-opacity="1"/>
<polyline clip-path="url(#clip420)" style="stroke:#000000; stroke-linecap:round; stroke-linejoin:round; stroke-width:4; stroke-opacity:1; fill:none" points="320.119,196.789 584.466,196.789 584.466,93.1086 320.119,93.1086 320.119,196.789 "/>
<circle clip-path="url(#clip420)" cx="413.574" cy="144.949" r="23.04" fill="#458b00" fill-rule="evenodd" fill-opacity="1" stroke="none"/>
<path clip-path="url(#clip420)" d="M523.417 146.025 Q524.922 146.534 526.334 148.201 Q527.769 149.868 529.204 152.784 L533.949 162.229 L528.926 162.229 L524.505 153.363 Q522.792 149.891 521.172 148.756 Q519.574 147.622 516.797 147.622 L511.704 147.622 L511.704 162.229 L507.028 162.229 L507.028 127.669 L517.584 127.669 Q523.51 127.669 526.426 130.145 Q529.343 132.622 529.343 137.622 Q529.343 140.886 527.815 143.039 Q526.311 145.192 523.417 146.025 M511.704 131.511 L511.704 143.78 L517.584 143.78 Q520.963 143.78 522.676 142.229 Q524.412 140.655 524.412 137.622 Q524.412 134.59 522.676 133.062 Q520.963 131.511 517.584 131.511 L511.704 131.511 Z" fill="#000000" fill-rule="nonzero" fill-opacity="1" /><path clip-path="url(#clip420)" d="M541.195 158.293 L548.834 158.293 L548.834 131.928 L540.523 133.595 L540.523 129.335 L548.787 127.669 L553.463 127.669 L553.463 158.293 L561.102 158.293 L561.102 162.229 L541.195 162.229 L541.195 158.293 Z" fill="#000000" fill-rule="nonzero" fill-opacity="1" /></svg>
