<?xml version="1.0" encoding="utf-8"?>
<svg xmlns="http://www.w3.org/2000/svg" xmlns:xlink="http://www.w3.org/1999/xlink" width="600" height="400" viewBox="0 0 2400 1600">
<defs>
  <clipPath id="clip180">
    <rect x="0" y="0" width="2400" height="1600"/>
  </clipPath>
</defs>
<path clip-path="url(#clip180)" d="M0 1600 L2400 1600 L2400 0 L0 0  Z" fill="#ffffff" fill-rule="evenodd" fill-opacity="1"/>
<defs>
  <clipPath id="clip181">
    <rect x="480" y="0" width="1681" height="1600"/>
  </clipPath>
</defs>
<path clip-path="url(#clip180)" d="M249.704 1423.18 L2352.76 1423.18 L2352.76 47.2441 L249.704 47.2441  Z" fill="#ffffff" fill-rule="evenodd" fill-opacity="1"/>
<defs>
  <clipPath id="clip182">
    <rect x="249" y="47" width="2104" height="1377"/>
  </clipPath>
</defs>
<polyline clip-path="url(#clip182)" style="stroke:#000000; stroke-linecap:round; stroke-linejoin:round; stroke-width:2; stroke-opacity:0.1; fill:none" points="309.224,1423.18 309.224,47.2441 "/>
<polyline clip-path="url(#clip182)" style="stroke:#000000; stroke-linecap:round; stroke-linejoin:round; stroke-width:2; stroke-opacity:0.1; fill:none" points="813.165,1423.18 813.165,47.2441 "/>
<polyline clip-path="url(#clip182)" style="stroke:#000000; stroke-linecap:round; stroke-linejoin:round; stroke-width:2; stroke-opacity:0.1; fill:none" points="1317.1,1423.18 1317.1,47.2441 "/>
<polyline clip-path="url(#clip182)" style="stroke:#000000; stroke-linecap:round; stroke-linejoin:round; stroke-width:2; stroke-opacity:0.1; fill:none" points="1821.05,1423.18 1821.05,47.2441 "/>
<polyline clip-path="url(#clip182)" style="stroke:#000000; stroke-linecap:round; stroke-linejoin:round; stroke-width:2; stroke-opacity:0.1; fill:none" points="2324.99,1423.18 2324.99,47.2441 "/>
<polyline clip-path="url(#clip182)" style="stroke:#000000; stroke-linecap:round; stroke-linejoin:round; stroke-width:2; stroke-opacity:0.1; fill:none" points="249.704,1152.57 2352.76,1152.57 "/>
<polyline clip-path="url(#clip182)" style="stroke:#000000; stroke-linecap:round; stroke-linejoin:round; stroke-width:2; stroke-opacity:0.1; fill:none" points="249.704,864.532 2352.76,864.532 "/>
<polyline clip-path="url(#clip182)" style="stroke:#000000; stroke-linecap:round; stroke-linejoin:round; stroke-width:2; stroke-opacity:0.1; fill:none" points="249.704,576.497 2352.76,576.497 "/>
<polyline clip-path="url(#clip182)" style="stroke:#000000; stroke-linecap:round; stroke-linejoin:round; stroke-width:2; stroke-opacity:0.1; fill:none" points="249.704,288.462 2352.76,288.462 "/>
<polyline clip-path="url(#clip180)" style="stroke:#000000; stroke-linecap:round; stroke-linejoin:round; stroke-width:4; stroke-opacity:1; fill:none" points="249.704,1423.18 2352.76,1423.18 "/>
<polyline clip-path="url(#clip180)" style="stroke:#000000; stroke-linecap:round; stroke-linejoin:round; stroke-width:4; stroke-opacity:1; fill:none" points="309.224,1423.18 309.224,1404.28 "/>
<polyline clip-path="url(#clip180)" style="stroke:#000000; stroke-linecap:round; stroke-linejoin:round; stroke-width:4; stroke-opacity:1; fill:none" points="813.165,1423.18 813.165,1404.28 "/>
<polyline clip-path="url(#clip180)" style="stroke:#000000; stroke-linecap:round; stroke-linejoin:round; stroke-width:4; stroke-opacity:1; fill:none" points="1317.1,1423.18 1317.1,1404.28 "/>
<polyline clip-path="url(#clip180)" style="stroke:#000000; stroke-linecap:round; stroke-linejoin:round; stroke-width:4; stroke-opacity:1; fill:none" points="1821.05,1423.18 1821.05,1404.28 "/>
<polyline clip-path="url(#clip180)" style="stroke:#000000; stroke-linecap:round; stroke-linejoin:round; stroke-width:4; stroke-opacity:1; fill:none" points="2324.99,1423.18 2324.99,1404.28 "/>
<path clip-path="url(#clip180)" d="M276.875 1481.64 L284.514 1481.64 L284.514 1455.28 L276.204 1456.95 L276.204 1452.69 L284.468 1451.02 L289.143 1451.02 L289.143 1481.64 L296.782 1481.64 L296.782 1485.58 L276.875 1485.58 L276.875 1481.64 Z" fill="#000000" fill-rule="nonzero" fill-opacity="1" /><path clip-path="url(#clip180)" d="M306.227 1479.7 L311.111 1479.7 L311.111 1485.58 L306.227 1485.58 L306.227 1479.7 Z" fill="#000000" fill-rule="nonzero" fill-opacity="1" /><path clip-path="url(#clip180)" d="M321.342 1451.02 L339.699 1451.02 L339.699 1454.96 L325.625 1454.96 L325.625 1463.43 Q326.643 1463.08 327.662 1462.92 Q328.68 1462.73 329.699 1462.73 Q335.486 1462.73 338.865 1465.9 Q342.245 1469.08 342.245 1474.49 Q342.245 1480.07 338.773 1483.17 Q335.301 1486.25 328.981 1486.25 Q326.805 1486.25 324.537 1485.88 Q322.291 1485.51 319.884 1484.77 L319.884 1480.07 Q321.967 1481.2 324.19 1481.76 Q326.412 1482.32 328.889 1482.32 Q332.893 1482.32 335.231 1480.21 Q337.569 1478.1 337.569 1474.49 Q337.569 1470.88 335.231 1468.77 Q332.893 1466.67 328.889 1466.67 Q327.014 1466.67 325.139 1467.08 Q323.287 1467.5 321.342 1468.38 L321.342 1451.02 Z" fill="#000000" fill-rule="nonzero" fill-opacity="1" /><path clip-path="url(#clip180)" d="M780.237 1481.64 L787.875 1481.64 L787.875 1455.28 L779.565 1456.95 L779.565 1452.69 L787.829 1451.02 L792.505 1451.02 L792.505 1481.64 L800.144 1481.64 L800.144 1485.58 L780.237 1485.58 L780.237 1481.64 Z" fill="#000000" fill-rule="nonzero" fill-opacity="1" /><path clip-path="url(#clip180)" d="M809.588 1479.7 L814.473 1479.7 L814.473 1485.58 L809.588 1485.58 L809.588 1479.7 Z" fill="#000000" fill-rule="nonzero" fill-opacity="1" /><path clip-path="url(#clip180)" d="M835.236 1466.44 Q832.088 1466.44 830.236 1468.59 Q828.408 1470.74 828.408 1474.49 Q828.408 1478.22 830.236 1480.39 Q832.088 1482.55 835.236 1482.55 Q838.384 1482.55 840.213 1480.39 Q842.065 1478.22 842.065 1474.49 Q842.065 1470.74 840.213 1468.59 Q838.384 1466.44 835.236 1466.44 M844.519 1451.78 L844.519 1456.04 Q842.759 1455.21 840.954 1454.77 Q839.171 1454.33 837.412 1454.33 Q832.783 1454.33 830.329 1457.45 Q827.898 1460.58 827.551 1466.9 Q828.917 1464.89 830.977 1463.82 Q833.037 1462.73 835.514 1462.73 Q840.722 1462.73 843.732 1465.9 Q846.764 1469.05 846.764 1474.49 Q846.764 1479.82 843.616 1483.03 Q840.468 1486.25 835.236 1486.25 Q829.241 1486.25 826.07 1481.67 Q822.898 1477.06 822.898 1468.33 Q822.898 1460.14 826.787 1455.28 Q830.676 1450.39 837.227 1450.39 Q838.986 1450.39 840.769 1450.74 Q842.574 1451.09 844.519 1451.78 Z" fill="#000000" fill-rule="nonzero" fill-opacity="1" /><path clip-path="url(#clip180)" d="M1284.71 1481.64 L1292.35 1481.64 L1292.35 1455.28 L1284.04 1456.95 L1284.04 1452.69 L1292.3 1451.02 L1296.98 1451.02 L1296.98 1481.64 L1304.62 1481.64 L1304.62 1485.58 L1284.71 1485.58 L1284.71 1481.64 Z" fill="#000000" fill-rule="nonzero" fill-opacity="1" /><path clip-path="url(#clip180)" d="M1314.06 1479.7 L1318.95 1479.7 L1318.95 1485.58 L1314.06 1485.58 L1314.06 1479.7 Z" fill="#000000" fill-rule="nonzero" fill-opacity="1" /><path clip-path="url(#clip180)" d="M1327.95 1451.02 L1350.17 1451.02 L1350.17 1453.01 L1337.63 1485.58 L1332.74 1485.58 L1344.55 1454.96 L1327.95 1454.96 L1327.95 1451.02 Z" fill="#000000" fill-rule="nonzero" fill-opacity="1" /><path clip-path="url(#clip180)" d="M1788.24 1481.64 L1795.88 1481.64 L1795.88 1455.28 L1787.57 1456.95 L1787.57 1452.69 L1795.84 1451.02 L1800.51 1451.02 L1800.51 1481.64 L1808.15 1481.64 L1808.15 1485.58 L1788.24 1485.58 L1788.24 1481.64 Z" fill="#000000" fill-rule="nonzero" fill-opacity="1" /><path clip-path="url(#clip180)" d="M1817.6 1479.7 L1822.48 1479.7 L1822.48 1485.58 L1817.6 1485.58 L1817.6 1479.7 Z" fill="#000000" fill-rule="nonzero" fill-opacity="1" /><path clip-path="url(#clip180)" d="M1842.67 1469.17 Q1839.33 1469.17 1837.41 1470.95 Q1835.51 1472.73 1835.51 1475.86 Q1835.51 1478.98 1837.41 1480.77 Q1839.33 1482.55 1842.67 1482.55 Q1846 1482.55 1847.92 1480.77 Q1849.84 1478.96 1849.84 1475.86 Q1849.84 1472.73 1847.92 1470.95 Q1846.02 1469.17 1842.67 1469.17 M1837.99 1467.18 Q1834.98 1466.44 1833.29 1464.38 Q1831.62 1462.32 1831.62 1459.35 Q1831.62 1455.21 1834.56 1452.8 Q1837.53 1450.39 1842.67 1450.39 Q1847.83 1450.39 1850.77 1452.8 Q1853.71 1455.21 1853.71 1459.35 Q1853.71 1462.32 1852.02 1464.38 Q1850.35 1466.44 1847.36 1467.18 Q1850.74 1467.96 1852.62 1470.26 Q1854.52 1472.55 1854.52 1475.86 Q1854.52 1480.88 1851.44 1483.57 Q1848.38 1486.25 1842.67 1486.25 Q1836.95 1486.25 1833.87 1483.57 Q1830.81 1480.88 1830.81 1475.86 Q1830.81 1472.55 1832.71 1470.26 Q1834.61 1467.96 1837.99 1467.18 M1836.28 1459.79 Q1836.28 1462.48 1837.94 1463.98 Q1839.63 1465.49 1842.67 1465.49 Q1845.67 1465.49 1847.36 1463.98 Q1849.08 1462.48 1849.08 1459.79 Q1849.08 1457.11 1847.36 1455.6 Q1845.67 1454.1 1842.67 1454.1 Q1839.63 1454.1 1837.94 1455.6 Q1836.28 1457.11 1836.28 1459.79 Z" fill="#000000" fill-rule="nonzero" fill-opacity="1" /><path clip-path="url(#clip180)" d="M2292.23 1481.64 L2299.87 1481.64 L2299.87 1455.28 L2291.56 1456.95 L2291.56 1452.69 L2299.82 1451.02 L2304.5 1451.02 L2304.5 1481.64 L2312.14 1481.64 L2312.14 1485.58 L2292.23 1485.58 L2292.23 1481.64 Z" fill="#000000" fill-rule="nonzero" fill-opacity="1" /><path clip-path="url(#clip180)" d="M2321.58 1479.7 L2326.47 1479.7 L2326.47 1485.58 L2321.58 1485.58 L2321.58 1479.7 Z" fill="#000000" fill-rule="nonzero" fill-opacity="1" /><path clip-path="url(#clip180)" d="M2336.79 1484.86 L2336.79 1480.6 Q2338.55 1481.44 2340.36 1481.88 Q2342.16 1482.32 2343.9 1482.32 Q2348.53 1482.32 2350.96 1479.21 Q2353.41 1476.09 2353.76 1469.75 Q2352.42 1471.74 2350.36 1472.8 Q2348.3 1473.87 2345.8 1473.87 Q2340.61 1473.87 2337.58 1470.74 Q2334.57 1467.59 2334.57 1462.15 Q2334.57 1456.83 2337.72 1453.61 Q2340.86 1450.39 2346.1 1450.39 Q2352.09 1450.39 2355.24 1455 Q2358.41 1459.58 2358.41 1468.33 Q2358.41 1476.51 2354.52 1481.39 Q2350.66 1486.25 2344.11 1486.25 Q2342.35 1486.25 2340.54 1485.9 Q2338.74 1485.56 2336.79 1484.86 M2346.1 1470.21 Q2349.24 1470.21 2351.07 1468.06 Q2352.93 1465.9 2352.93 1462.15 Q2352.93 1458.43 2351.07 1456.27 Q2349.24 1454.1 2346.1 1454.1 Q2342.95 1454.1 2341.1 1456.27 Q2339.27 1458.43 2339.27 1462.15 Q2339.27 1465.9 2341.1 1468.06 Q2342.95 1470.21 2346.1 1470.21 Z" fill="#000000" fill-rule="nonzero" fill-opacity="1" /><path clip-path="url(#clip180)" d="M1267.36 1518.52 L1273.25 1518.52 L1273.25 1547.77 L1290.73 1532.4 L1298.21 1532.4 L1279.3 1549.07 L1299 1568.04 L1291.36 1568.04 L1273.25 1550.63 L1273.25 1568.04 L1267.36 1568.04 L1267.36 1518.52 Z" fill="#000000" fill-rule="nonzero" fill-opacity="1" /><path clip-path="url(#clip180)" d="M1304.54 1520.52 L1335.1 1520.52 L1335.1 1523.26 L1317.84 1568.04 L1311.13 1568.04 L1327.36 1525.93 L1304.54 1525.93 L1304.54 1520.52 Z" fill="#000000" fill-rule="nonzero" fill-opacity="1" /><polyline clip-path="url(#clip180)" style="stroke:#000000; stroke-linecap:round; stroke-linejoin:round; stroke-width:4; stroke-opacity:1; fill:none" points="249.704,1423.18 249.704,47.2441 "/>
<polyline clip-path="url(#clip180)" style="stroke:#000000; stroke-linecap:round; stroke-linejoin:round; stroke-width:4; stroke-opacity:1; fill:none" points="249.704,1152.57 268.602,1152.57 "/>
<polyline clip-path="url(#clip180)" style="stroke:#000000; stroke-linecap:round; stroke-linejoin:round; stroke-width:4; stroke-opacity:1; fill:none" points="249.704,864.532 268.602,864.532 "/>
<polyline clip-path="url(#clip180)" style="stroke:#000000; stroke-linecap:round; stroke-linejoin:round; stroke-width:4; stroke-opacity:1; fill:none" points="249.704,576.497 268.602,576.497 "/>
<polyline clip-path="url(#clip180)" style="stroke:#000000; stroke-linecap:round; stroke-linejoin:round; stroke-width:4; stroke-opacity:1; fill:none" points="249.704,288.462 268.602,288.462 "/>
<path clip-path="url(#clip180)" d="M126.205 1138.37 Q122.593 1138.37 120.765 1141.93 Q118.959 1145.47 118.959 1152.6 Q118.959 1159.71 120.765 1163.27 Q122.593 1166.81 126.205 1166.81 Q129.839 1166.81 131.644 1163.27 Q133.473 1159.71 133.473 1152.6 Q133.473 1145.47 131.644 1141.93 Q129.839 1138.37 126.205 1138.37 M126.205 1134.66 Q132.015 1134.66 135.07 1139.27 Q138.149 1143.85 138.149 1152.6 Q138.149 1161.33 135.07 1165.93 Q132.015 1170.52 126.205 1170.52 Q120.394 1170.52 117.316 1165.93 Q114.26 1161.33 114.26 1152.6 Q114.26 1143.85 117.316 1139.27 Q120.394 1134.66 126.205 1134.66 Z" fill="#000000" fill-rule="nonzero" fill-opacity="1" /><path clip-path="url(#clip180)" d="M146.366 1163.97 L151.251 1163.97 L151.251 1169.85 L146.366 1169.85 L146.366 1163.97 Z" fill="#000000" fill-rule="nonzero" fill-opacity="1" /><path clip-path="url(#clip180)" d="M171.436 1153.43 Q168.102 1153.43 166.181 1155.22 Q164.283 1157 164.283 1160.12 Q164.283 1163.25 166.181 1165.03 Q168.102 1166.81 171.436 1166.81 Q174.769 1166.81 176.69 1165.03 Q178.612 1163.23 178.612 1160.12 Q178.612 1157 176.69 1155.22 Q174.792 1153.43 171.436 1153.43 M166.76 1151.44 Q163.751 1150.7 162.061 1148.64 Q160.394 1146.58 160.394 1143.62 Q160.394 1139.48 163.334 1137.07 Q166.297 1134.66 171.436 1134.66 Q176.598 1134.66 179.538 1137.07 Q182.477 1139.48 182.477 1143.62 Q182.477 1146.58 180.788 1148.64 Q179.121 1150.7 176.135 1151.44 Q179.514 1152.23 181.389 1154.52 Q183.288 1156.81 183.288 1160.12 Q183.288 1165.15 180.209 1167.83 Q177.153 1170.52 171.436 1170.52 Q165.718 1170.52 162.64 1167.83 Q159.584 1165.15 159.584 1160.12 Q159.584 1156.81 161.482 1154.52 Q163.38 1152.23 166.76 1151.44 M165.047 1144.06 Q165.047 1146.74 166.714 1148.25 Q168.403 1149.75 171.436 1149.75 Q174.445 1149.75 176.135 1148.25 Q177.848 1146.74 177.848 1144.06 Q177.848 1141.37 176.135 1139.87 Q174.445 1138.37 171.436 1138.37 Q168.403 1138.37 166.714 1139.87 Q165.047 1141.37 165.047 1144.06 Z" fill="#000000" fill-rule="nonzero" fill-opacity="1" /><path clip-path="url(#clip180)" d="M202.176 1150.7 Q199.028 1150.7 197.176 1152.86 Q195.348 1155.01 195.348 1158.76 Q195.348 1162.49 197.176 1164.66 Q199.028 1166.81 202.176 1166.81 Q205.324 1166.81 207.153 1164.66 Q209.005 1162.49 209.005 1158.76 Q209.005 1155.01 207.153 1152.86 Q205.324 1150.7 202.176 1150.7 M211.459 1136.05 L211.459 1140.31 Q209.699 1139.48 207.894 1139.04 Q206.112 1138.6 204.352 1138.6 Q199.723 1138.6 197.269 1141.72 Q194.838 1144.85 194.491 1151.17 Q195.857 1149.15 197.917 1148.09 Q199.977 1147 202.454 1147 Q207.662 1147 210.672 1150.17 Q213.704 1153.32 213.704 1158.76 Q213.704 1164.08 210.556 1167.3 Q207.408 1170.52 202.176 1170.52 Q196.181 1170.52 193.01 1165.93 Q189.838 1161.33 189.838 1152.6 Q189.838 1144.41 193.727 1139.55 Q197.616 1134.66 204.167 1134.66 Q205.926 1134.66 207.709 1135.01 Q209.514 1135.36 211.459 1136.05 Z" fill="#000000" fill-rule="nonzero" fill-opacity="1" /><path clip-path="url(#clip180)" d="M126.459 850.33 Q122.848 850.33 121.019 853.895 Q119.214 857.437 119.214 864.566 Q119.214 871.673 121.019 875.238 Q122.848 878.779 126.459 878.779 Q130.093 878.779 131.899 875.238 Q133.728 871.673 133.728 864.566 Q133.728 857.437 131.899 853.895 Q130.093 850.33 126.459 850.33 M126.459 846.627 Q132.269 846.627 135.325 851.233 Q138.404 855.816 138.404 864.566 Q138.404 873.293 135.325 877.9 Q132.269 882.483 126.459 882.483 Q120.649 882.483 117.57 877.9 Q114.515 873.293 114.515 864.566 Q114.515 855.816 117.57 851.233 Q120.649 846.627 126.459 846.627 Z" fill="#000000" fill-rule="nonzero" fill-opacity="1" /><path clip-path="url(#clip180)" d="M146.621 875.932 L151.505 875.932 L151.505 881.812 L146.621 881.812 L146.621 875.932 Z" fill="#000000" fill-rule="nonzero" fill-opacity="1" /><path clip-path="url(#clip180)" d="M171.69 865.4 Q168.357 865.4 166.436 867.182 Q164.538 868.964 164.538 872.089 Q164.538 875.214 166.436 876.997 Q168.357 878.779 171.69 878.779 Q175.024 878.779 176.945 876.997 Q178.866 875.191 178.866 872.089 Q178.866 868.964 176.945 867.182 Q175.047 865.4 171.69 865.4 M167.015 863.409 Q164.005 862.668 162.315 860.608 Q160.649 858.548 160.649 855.585 Q160.649 851.441 163.589 849.034 Q166.552 846.627 171.69 846.627 Q176.852 846.627 179.792 849.034 Q182.732 851.441 182.732 855.585 Q182.732 858.548 181.042 860.608 Q179.376 862.668 176.389 863.409 Q179.769 864.196 181.644 866.488 Q183.542 868.779 183.542 872.089 Q183.542 877.113 180.464 879.798 Q177.408 882.483 171.69 882.483 Q165.973 882.483 162.894 879.798 Q159.839 877.113 159.839 872.089 Q159.839 868.779 161.737 866.488 Q163.635 864.196 167.015 863.409 M165.302 856.025 Q165.302 858.71 166.968 860.215 Q168.658 861.719 171.69 861.719 Q174.7 861.719 176.389 860.215 Q178.102 858.71 178.102 856.025 Q178.102 853.34 176.389 851.835 Q174.7 850.33 171.69 850.33 Q168.658 850.33 166.968 851.835 Q165.302 853.34 165.302 856.025 Z" fill="#000000" fill-rule="nonzero" fill-opacity="1" /><path clip-path="url(#clip180)" d="M201.852 865.4 Q198.519 865.4 196.598 867.182 Q194.7 868.964 194.7 872.089 Q194.7 875.214 196.598 876.997 Q198.519 878.779 201.852 878.779 Q205.186 878.779 207.107 876.997 Q209.028 875.191 209.028 872.089 Q209.028 868.964 207.107 867.182 Q205.209 865.4 201.852 865.4 M197.176 863.409 Q194.167 862.668 192.477 860.608 Q190.811 858.548 190.811 855.585 Q190.811 851.441 193.75 849.034 Q196.713 846.627 201.852 846.627 Q207.014 846.627 209.954 849.034 Q212.894 851.441 212.894 855.585 Q212.894 858.548 211.204 860.608 Q209.537 862.668 206.551 863.409 Q209.931 864.196 211.806 866.488 Q213.704 868.779 213.704 872.089 Q213.704 877.113 210.625 879.798 Q207.57 882.483 201.852 882.483 Q196.135 882.483 193.056 879.798 Q190 877.113 190 872.089 Q190 868.779 191.899 866.488 Q193.797 864.196 197.176 863.409 M195.463 856.025 Q195.463 858.71 197.13 860.215 Q198.82 861.719 201.852 861.719 Q204.862 861.719 206.551 860.215 Q208.264 858.71 208.264 856.025 Q208.264 853.34 206.551 851.835 Q204.862 850.33 201.852 850.33 Q198.82 850.33 197.13 851.835 Q195.463 853.34 195.463 856.025 Z" fill="#000000" fill-rule="nonzero" fill-opacity="1" /><path clip-path="url(#clip180)" d="M126.367 562.296 Q122.755 562.296 120.927 565.86 Q119.121 569.402 119.121 576.532 Q119.121 583.638 120.927 587.203 Q122.755 590.745 126.367 590.745 Q130.001 590.745 131.806 587.203 Q133.635 583.638 133.635 576.532 Q133.635 569.402 131.806 565.86 Q130.001 562.296 126.367 562.296 M126.367 558.592 Q132.177 558.592 135.232 563.198 Q138.311 567.782 138.311 576.532 Q138.311 585.258 135.232 589.865 Q132.177 594.448 126.367 594.448 Q120.556 594.448 117.478 589.865 Q114.422 585.258 114.422 576.532 Q114.422 567.782 117.478 563.198 Q120.556 558.592 126.367 558.592 Z" fill="#000000" fill-rule="nonzero" fill-opacity="1" /><path clip-path="url(#clip180)" d="M146.529 587.897 L151.413 587.897 L151.413 593.777 L146.529 593.777 L146.529 587.897 Z" fill="#000000" fill-rule="nonzero" fill-opacity="1" /><path clip-path="url(#clip180)" d="M161.737 593.059 L161.737 588.8 Q163.496 589.633 165.302 590.073 Q167.107 590.513 168.843 590.513 Q173.473 590.513 175.903 587.411 Q178.357 584.286 178.704 577.944 Q177.362 579.934 175.301 580.999 Q173.241 582.064 170.741 582.064 Q165.556 582.064 162.524 578.939 Q159.515 575.791 159.515 570.351 Q159.515 565.027 162.663 561.809 Q165.811 558.592 171.042 558.592 Q177.038 558.592 180.186 563.198 Q183.357 567.782 183.357 576.532 Q183.357 584.703 179.468 589.587 Q175.602 594.448 169.052 594.448 Q167.292 594.448 165.487 594.101 Q163.681 593.754 161.737 593.059 M171.042 578.407 Q174.19 578.407 176.019 576.254 Q177.871 574.101 177.871 570.351 Q177.871 566.624 176.019 564.472 Q174.19 562.296 171.042 562.296 Q167.894 562.296 166.042 564.472 Q164.214 566.624 164.214 570.351 Q164.214 574.101 166.042 576.254 Q167.894 578.407 171.042 578.407 Z" fill="#000000" fill-rule="nonzero" fill-opacity="1" /><path clip-path="url(#clip180)" d="M201.76 562.296 Q198.149 562.296 196.32 565.86 Q194.514 569.402 194.514 576.532 Q194.514 583.638 196.32 587.203 Q198.149 590.745 201.76 590.745 Q205.394 590.745 207.199 587.203 Q209.028 583.638 209.028 576.532 Q209.028 569.402 207.199 565.86 Q205.394 562.296 201.76 562.296 M201.76 558.592 Q207.57 558.592 210.625 563.198 Q213.704 567.782 213.704 576.532 Q213.704 585.258 210.625 589.865 Q207.57 594.448 201.76 594.448 Q195.95 594.448 192.871 589.865 Q189.815 585.258 189.815 576.532 Q189.815 567.782 192.871 563.198 Q195.95 558.592 201.76 558.592 Z" fill="#000000" fill-rule="nonzero" fill-opacity="1" /><path clip-path="url(#clip180)" d="M127.964 274.261 Q124.353 274.261 122.524 277.826 Q120.718 281.367 120.718 288.497 Q120.718 295.603 122.524 299.168 Q124.353 302.71 127.964 302.71 Q131.598 302.71 133.404 299.168 Q135.232 295.603 135.232 288.497 Q135.232 281.367 133.404 277.826 Q131.598 274.261 127.964 274.261 M127.964 270.557 Q133.774 270.557 136.829 275.164 Q139.908 279.747 139.908 288.497 Q139.908 297.224 136.829 301.83 Q133.774 306.413 127.964 306.413 Q122.154 306.413 119.075 301.83 Q116.019 297.224 116.019 288.497 Q116.019 279.747 119.075 275.164 Q122.154 270.557 127.964 270.557 Z" fill="#000000" fill-rule="nonzero" fill-opacity="1" /><path clip-path="url(#clip180)" d="M148.126 299.863 L153.01 299.863 L153.01 305.742 L148.126 305.742 L148.126 299.863 Z" fill="#000000" fill-rule="nonzero" fill-opacity="1" /><path clip-path="url(#clip180)" d="M163.334 305.025 L163.334 300.765 Q165.093 301.599 166.899 302.038 Q168.704 302.478 170.44 302.478 Q175.07 302.478 177.501 299.376 Q179.954 296.251 180.301 289.909 Q178.959 291.9 176.899 292.964 Q174.839 294.029 172.339 294.029 Q167.153 294.029 164.121 290.904 Q161.112 287.756 161.112 282.316 Q161.112 276.992 164.26 273.775 Q167.408 270.557 172.639 270.557 Q178.635 270.557 181.783 275.164 Q184.954 279.747 184.954 288.497 Q184.954 296.668 181.065 301.552 Q177.2 306.413 170.649 306.413 Q168.889 306.413 167.084 306.066 Q165.278 305.719 163.334 305.025 M172.639 290.372 Q175.788 290.372 177.616 288.219 Q179.468 286.066 179.468 282.316 Q179.468 278.59 177.616 276.437 Q175.788 274.261 172.639 274.261 Q169.491 274.261 167.64 276.437 Q165.811 278.59 165.811 282.316 Q165.811 286.066 167.64 288.219 Q169.491 290.372 172.639 290.372 Z" fill="#000000" fill-rule="nonzero" fill-opacity="1" /><path clip-path="url(#clip180)" d="M197.385 301.807 L213.704 301.807 L213.704 305.742 L191.76 305.742 L191.76 301.807 Q194.422 299.052 199.005 294.423 Q203.612 289.77 204.792 288.427 Q207.037 285.904 207.917 284.168 Q208.82 282.409 208.82 280.719 Q208.82 277.965 206.875 276.228 Q204.954 274.492 201.852 274.492 Q199.653 274.492 197.2 275.256 Q194.769 276.02 191.991 277.571 L191.991 272.849 Q194.815 271.715 197.269 271.136 Q199.723 270.557 201.76 270.557 Q207.13 270.557 210.324 273.242 Q213.519 275.928 213.519 280.418 Q213.519 282.548 212.709 284.469 Q211.922 286.367 209.815 288.96 Q209.237 289.631 206.135 292.849 Q203.033 296.043 197.385 301.807 Z" fill="#000000" fill-rule="nonzero" fill-opacity="1" /><path clip-path="url(#clip180)" d="M14.479 769.635 L14.479 763.746 L43.7294 763.746 L28.3562 746.272 L28.3562 738.793 L45.0344 757.699 L64.0042 737.997 L64.0042 745.636 L46.5939 763.746 L64.0042 763.746 L64.0042 769.635 L14.479 769.635 Z" fill="#000000" fill-rule="nonzero" fill-opacity="1" /><path clip-path="url(#clip180)" d="M41.4377 717.086 Q41.4377 721.669 43.8885 724.311 Q46.3393 726.921 50.6362 726.921 Q54.933 726.921 57.3838 724.311 Q59.8346 721.669 59.8346 717.086 Q59.8346 712.502 57.3838 709.861 Q54.9012 707.219 50.6362 707.219 Q46.3393 707.219 43.8885 709.861 Q41.4377 712.47 41.4377 717.086 M38.7005 723.515 Q37.682 727.653 34.8492 729.976 Q32.0165 732.268 27.9424 732.268 Q22.2451 732.268 18.935 728.226 Q15.6248 724.152 15.6248 717.086 Q15.6248 709.988 18.935 705.946 Q22.2451 701.903 27.9424 701.903 Q32.0165 701.903 34.8492 704.227 Q37.682 706.519 38.7005 710.624 Q39.7826 705.977 42.9337 703.399 Q46.0847 700.789 50.6362 700.789 Q57.543 700.789 61.2351 705.023 Q64.9272 709.224 64.9272 717.086 Q64.9272 724.947 61.2351 729.18 Q57.543 733.382 50.6362 733.382 Q46.0847 733.382 42.9337 730.772 Q39.7826 728.162 38.7005 723.515 M28.5472 725.87 Q32.2393 725.87 34.3081 723.579 Q36.377 721.255 36.377 717.086 Q36.377 712.948 34.3081 710.624 Q32.2393 708.269 28.5472 708.269 Q24.8551 708.269 22.7862 710.624 Q20.7174 712.948 20.7174 717.086 Q20.7174 721.255 22.7862 723.579 Q24.8551 725.87 28.5472 725.87 Z" fill="#000000" fill-rule="nonzero" fill-opacity="1" /><polyline clip-path="url(#clip182)" style="stroke:#009af9; stroke-linecap:round; stroke-linejoin:round; stroke-width:4; stroke-opacity:1; fill:none" points="309.224,1384.24 323.582,1370.83 343.224,1352.56 367.777,1329.82 398.591,1301.46 437.334,1266.08 486.15,1221.96 547.811,1166.94 611.248,1111.21 675.62,1055.58 740.881,1000.16 806.973,945.065 873.827,890.417 941.357,836.358 1009.46,783.039 1078.02,730.623 1146.89,679.284 1215.92,629.204 1284.93,580.572 1353.72,533.578 1422.08,488.407 1489.82,445.232 1556.73,404.208 1622.62,365.463 1687.32,329.097 1750.69,295.182 1812.6,263.753 1872.96,234.82 1931.67,208.362 1988.68,184.335 2043.94,162.67 2097.41,143.28 2149.07,126.06 2198.91,110.891 2246.96,97.6446 2293.24,86.1857 "/>
<circle clip-path="url(#clip182)" cx="2149.07" cy="126.06" r="10.8" fill="#458b00" fill-rule="evenodd" fill-opacity="1" stroke="none"/>
<circle clip-path="url(#clip182)" cx="2149.07" cy="126.06" r="10.8" fill="#458b00" fill-rule="evenodd" fill-opacity="1" stroke="none"/>
<path clip-path="url(#clip180)" d="M319.806 196.789 L584.185 196.789 L584.185 93.1086 L319.806 93.1086  Z" fill="#ffffff" fill-rule="evenodd" fill-opacity="1"/>
<polyline clip-path="url(#clip180)" style="stroke:#000000; stroke-linecap:round; stroke-linejoin:round; stroke-width:4; stroke-opacity:1; fill:none" points="319.806,196.789 584.185,196.789 584.185,93.1086 319.806,93.1086 319.806,196.789 "/>
<circle clip-path="url(#clip180)" cx="413.275" cy="144.949" r="23.04" fill="#458b00" fill-rule="evenodd" fill-opacity="1" stroke="none"/>
<path clip-path="url(#clip180)" d="M523.133 146.025 Q524.637 146.534 526.049 148.201 Q527.484 149.868 528.92 152.784 L533.665 162.229 L528.642 162.229 L524.22 153.363 Q522.508 149.891 520.887 148.756 Q519.29 147.622 516.512 147.622 L511.42 147.622 L511.42 162.229 L506.744 162.229 L506.744 127.669 L517.299 127.669 Q523.225 127.669 526.142 130.145 Q529.058 132.622 529.058 137.622 Q529.058 140.886 527.531 143.039 Q526.026 145.192 523.133 146.025 M511.42 131.511 L511.42 143.78 L517.299 143.78 Q520.679 143.78 522.392 142.229 Q524.128 140.655 524.128 137.622 Q524.128 134.59 522.392 133.062 Q520.679 131.511 517.299 131.511 L511.42 131.511 Z" fill="#000000" fill-rule="nonzero" fill-opacity="1" /><path clip-path="url(#clip180)" d="M540.91 158.293 L548.549 158.293 L548.549 131.928 L540.239 133.595 L540.239 129.335 L548.503 127.669 L553.179 127.669 L553.179 158.293 L560.818 158.293 L560.818 162.229 L540.91 162.229 L540.91 158.293 Z" fill="#000000" fill-rule="nonzero" fill-opacity="1" /></svg>
