<?xml version="1.0" encoding="utf-8"?>
<svg xmlns="http://www.w3.org/2000/svg" xmlns:xlink="http://www.w3.org/1999/xlink" width="600" height="400" viewBox="0 0 2400 1600">
<defs>
  <clipPath id="clip240">
    <rect x="0" y="0" width="2400" height="1600"/>
  </clipPath>
</defs>
<path clip-path="url(#clip240)" d="M0 1600 L2400 1600 L2400 0 L0 0  Z" fill="#ffffff" fill-rule="evenodd" fill-opacity="1"/>
<defs>
  <clipPath id="clip241">
    <rect x="480" y="0" width="1681" height="1600"/>
  </clipPath>
</defs>
<path clip-path="url(#clip240)" d="M250.028 1423.18 L2352.76 1423.18 L2352.76 47.2441 L250.028 47.2441  Z" fill="#ffffff" fill-rule="evenodd" fill-opacity="1"/>
<defs>
  <clipPath id="clip242">
    <rect x="250" y="47" width="2104" height="1377"/>
  </clipPath>
</defs>
<polyline clip-path="url(#clip242)" style="stroke:#000000; stroke-linecap:round; stroke-linejoin:round; stroke-width:2; stroke-opacity:0.1; fill:none" points="309.539,1423.18 309.539,47.2441 "/>
<polyline clip-path="url(#clip242)" style="stroke:#000000; stroke-linecap:round; stroke-linejoin:round; stroke-width:2; stroke-opacity:0.1; fill:none" points="813.402,1423.18 813.402,47.2441 "/>
<polyline clip-path="url(#clip242)" style="stroke:#000000; stroke-linecap:round; stroke-linejoin:round; stroke-width:2; stroke-opacity:0.1; fill:none" points="1317.26,1423.18 1317.26,47.2441 "/>
<polyline clip-path="url(#clip242)" style="stroke:#000000; stroke-linecap:round; stroke-linejoin:round; stroke-width:2; stroke-opacity:0.1; fill:none" points="1821.13,1423.18 1821.13,47.2441 "/>
<polyline clip-path="url(#clip242)" style="stroke:#000000; stroke-linecap:round; stroke-linejoin:round; stroke-width:2; stroke-opacity:0.1; fill:none" points="2324.99,1423.18 2324.99,47.2441 "/>
<polyline clip-path="url(#clip242)" style="stroke:#000000; stroke-linecap:round; stroke-linejoin:round; stroke-width:2; stroke-opacity:0.1; fill:none" points="250.028,1207.76 2352.76,1207.76 "/>
<polyline clip-path="url(#clip242)" style="stroke:#000000; stroke-linecap:round; stroke-linejoin:round; stroke-width:2; stroke-opacity:0.1; fill:none" points="250.028,969.243 2352.76,969.243 "/>
<polyline clip-path="url(#clip242)" style="stroke:#000000; stroke-linecap:round; stroke-linejoin:round; stroke-width:2; stroke-opacity:0.1; fill:none" points="250.028,730.725 2352.76,730.725 "/>
<polyline clip-path="url(#clip242)" style="stroke:#000000; stroke-linecap:round; stroke-linejoin:round; stroke-width:2; stroke-opacity:0.1; fill:none" points="250.028,492.207 2352.76,492.207 "/>
<polyline clip-path="url(#clip242)" style="stroke:#000000; stroke-linecap:round; stroke-linejoin:round; stroke-width:2; stroke-opacity:0.1; fill:none" points="250.028,253.689 2352.76,253.689 "/>
<polyline clip-path="url(#clip240)" style="stroke:#000000; stroke-linecap:round; stroke-linejoin:round; stroke-width:4; stroke-opacity:1; fill:none" points="250.028,1423.18 2352.76,1423.18 "/>
<polyline clip-path="url(#clip240)" style="stroke:#000000; stroke-linecap:round; stroke-linejoin:round; stroke-width:4; stroke-opacity:1; fill:none" points="309.539,1423.18 309.539,1404.28 "/>
<polyline clip-path="url(#clip240)" style="stroke:#000000; stroke-linecap:round; stroke-linejoin:round; stroke-width:4; stroke-opacity:1; fill:none" points="813.402,1423.18 813.402,1404.28 "/>
<polyline clip-path="url(#clip240)" style="stroke:#000000; stroke-linecap:round; stroke-linejoin:round; stroke-width:4; stroke-opacity:1; fill:none" points="1317.26,1423.18 1317.26,1404.28 "/>
<polyline clip-path="url(#clip240)" style="stroke:#000000; stroke-linecap:round; stroke-linejoin:round; stroke-width:4; stroke-opacity:1; fill:none" points="1821.13,1423.18 1821.13,1404.28 "/>
<polyline clip-path="url(#clip240)" style="stroke:#000000; stroke-linecap:round; stroke-linejoin:round; stroke-width:4; stroke-opacity:1; fill:none" points="2324.99,1423.18 2324.99,1404.28 "/>
<path clip-path="url(#clip240)" d="M277.19 1481.64 L284.829 1481.64 L284.829 1455.28 L276.519 1456.95 L276.519 1452.69 L284.782 1451.02 L289.458 1451.02 L289.458 1481.64 L297.097 1481.64 L297.097 1485.58 L277.19 1485.58 L277.19 1481.64 Z" fill="#000000" fill-rule="nonzero" fill-opacity="1" /><path clip-path="url(#clip240)" d="M306.542 1479.7 L311.426 1479.7 L311.426 1485.58 L306.542 1485.58 L306.542 1479.7 Z" fill="#000000" fill-rule="nonzero" fill-opacity="1" /><path clip-path="url(#clip240)" d="M321.657 1451.02 L340.014 1451.02 L340.014 1454.96 L325.94 1454.96 L325.94 1463.43 Q326.958 1463.08 327.977 1462.92 Q328.995 1462.73 330.014 1462.73 Q335.801 1462.73 339.18 1465.9 Q342.56 1469.08 342.56 1474.49 Q342.56 1480.07 339.088 1483.17 Q335.616 1486.25 329.296 1486.25 Q327.12 1486.25 324.852 1485.88 Q322.606 1485.51 320.199 1484.77 L320.199 1480.07 Q322.282 1481.2 324.505 1481.76 Q326.727 1482.32 329.204 1482.32 Q333.208 1482.32 335.546 1480.21 Q337.884 1478.1 337.884 1474.49 Q337.884 1470.88 335.546 1468.77 Q333.208 1466.67 329.204 1466.67 Q327.329 1466.67 325.454 1467.08 Q323.602 1467.5 321.657 1468.38 L321.657 1451.02 Z" fill="#000000" fill-rule="nonzero" fill-opacity="1" /><path clip-path="url(#clip240)" d="M780.474 1481.64 L788.113 1481.64 L788.113 1455.28 L779.803 1456.95 L779.803 1452.69 L788.066 1451.02 L792.742 1451.02 L792.742 1481.64 L800.381 1481.64 L800.381 1485.58 L780.474 1485.58 L780.474 1481.64 Z" fill="#000000" fill-rule="nonzero" fill-opacity="1" /><path clip-path="url(#clip240)" d="M809.826 1479.7 L814.71 1479.7 L814.71 1485.58 L809.826 1485.58 L809.826 1479.7 Z" fill="#000000" fill-rule="nonzero" fill-opacity="1" /><path clip-path="url(#clip240)" d="M835.474 1466.44 Q832.325 1466.44 830.474 1468.59 Q828.645 1470.74 828.645 1474.49 Q828.645 1478.22 830.474 1480.39 Q832.325 1482.55 835.474 1482.55 Q838.622 1482.55 840.45 1480.39 Q842.302 1478.22 842.302 1474.49 Q842.302 1470.74 840.45 1468.59 Q838.622 1466.44 835.474 1466.44 M844.756 1451.78 L844.756 1456.04 Q842.997 1455.21 841.191 1454.77 Q839.409 1454.33 837.649 1454.33 Q833.02 1454.33 830.566 1457.45 Q828.136 1460.58 827.788 1466.9 Q829.154 1464.89 831.214 1463.82 Q833.274 1462.73 835.751 1462.73 Q840.96 1462.73 843.969 1465.9 Q847.001 1469.05 847.001 1474.49 Q847.001 1479.82 843.853 1483.03 Q840.705 1486.25 835.474 1486.25 Q829.478 1486.25 826.307 1481.67 Q823.136 1477.06 823.136 1468.33 Q823.136 1460.14 827.025 1455.28 Q830.913 1450.39 837.464 1450.39 Q839.224 1450.39 841.006 1450.74 Q842.811 1451.09 844.756 1451.78 Z" fill="#000000" fill-rule="nonzero" fill-opacity="1" /><path clip-path="url(#clip240)" d="M1284.87 1481.64 L1292.51 1481.64 L1292.51 1455.28 L1284.2 1456.95 L1284.2 1452.69 L1292.46 1451.02 L1297.14 1451.02 L1297.14 1481.64 L1304.78 1481.64 L1304.78 1485.58 L1284.87 1485.58 L1284.87 1481.64 Z" fill="#000000" fill-rule="nonzero" fill-opacity="1" /><path clip-path="url(#clip240)" d="M1314.22 1479.7 L1319.1 1479.7 L1319.1 1485.58 L1314.22 1485.58 L1314.22 1479.7 Z" fill="#000000" fill-rule="nonzero" fill-opacity="1" /><path clip-path="url(#clip240)" d="M1328.11 1451.02 L1350.33 1451.02 L1350.33 1453.01 L1337.79 1485.58 L1332.9 1485.58 L1344.71 1454.96 L1328.11 1454.96 L1328.11 1451.02 Z" fill="#000000" fill-rule="nonzero" fill-opacity="1" /><path clip-path="url(#clip240)" d="M1788.33 1481.64 L1795.97 1481.64 L1795.97 1455.28 L1787.66 1456.95 L1787.66 1452.69 L1795.92 1451.02 L1800.59 1451.02 L1800.59 1481.64 L1808.23 1481.64 L1808.23 1485.58 L1788.33 1485.58 L1788.33 1481.64 Z" fill="#000000" fill-rule="nonzero" fill-opacity="1" /><path clip-path="url(#clip240)" d="M1817.68 1479.7 L1822.56 1479.7 L1822.56 1485.58 L1817.68 1485.58 L1817.68 1479.7 Z" fill="#000000" fill-rule="nonzero" fill-opacity="1" /><path clip-path="url(#clip240)" d="M1842.75 1469.17 Q1839.41 1469.17 1837.49 1470.95 Q1835.59 1472.73 1835.59 1475.86 Q1835.59 1478.98 1837.49 1480.77 Q1839.41 1482.55 1842.75 1482.55 Q1846.08 1482.55 1848 1480.77 Q1849.92 1478.96 1849.92 1475.86 Q1849.92 1472.73 1848 1470.95 Q1846.1 1469.17 1842.75 1469.17 M1838.07 1467.18 Q1835.06 1466.44 1833.37 1464.38 Q1831.71 1462.32 1831.71 1459.35 Q1831.71 1455.21 1834.65 1452.8 Q1837.61 1450.39 1842.75 1450.39 Q1847.91 1450.39 1850.85 1452.8 Q1853.79 1455.21 1853.79 1459.35 Q1853.79 1462.32 1852.1 1464.38 Q1850.43 1466.44 1847.45 1467.18 Q1850.83 1467.96 1852.7 1470.26 Q1854.6 1472.55 1854.6 1475.86 Q1854.6 1480.88 1851.52 1483.57 Q1848.46 1486.25 1842.75 1486.25 Q1837.03 1486.25 1833.95 1483.57 Q1830.9 1480.88 1830.9 1475.86 Q1830.9 1472.55 1832.79 1470.26 Q1834.69 1467.96 1838.07 1467.18 M1836.36 1459.79 Q1836.36 1462.48 1838.03 1463.98 Q1839.71 1465.49 1842.75 1465.49 Q1845.76 1465.49 1847.45 1463.98 Q1849.16 1462.48 1849.16 1459.79 Q1849.16 1457.11 1847.45 1455.6 Q1845.76 1454.1 1842.75 1454.1 Q1839.71 1454.1 1838.03 1455.6 Q1836.36 1457.11 1836.36 1459.79 Z" fill="#000000" fill-rule="nonzero" fill-opacity="1" /><path clip-path="url(#clip240)" d="M2292.24 1481.64 L2299.87 1481.64 L2299.87 1455.28 L2291.56 1456.95 L2291.56 1452.69 L2299.83 1451.02 L2304.5 1451.02 L2304.5 1481.64 L2312.14 1481.64 L2312.14 1485.58 L2292.24 1485.58 L2292.24 1481.64 Z" fill="#000000" fill-rule="nonzero" fill-opacity="1" /><path clip-path="url(#clip240)" d="M2321.59 1479.7 L2326.47 1479.7 L2326.47 1485.58 L2321.59 1485.58 L2321.59 1479.7 Z" fill="#000000" fill-rule="nonzero" fill-opacity="1" /><path clip-path="url(#clip240)" d="M2336.8 1484.86 L2336.8 1480.6 Q2338.55 1481.44 2340.36 1481.88 Q2342.17 1482.32 2343.9 1482.32 Q2348.53 1482.32 2350.96 1479.21 Q2353.42 1476.09 2353.76 1469.75 Q2352.42 1471.74 2350.36 1472.8 Q2348.3 1473.87 2345.8 1473.87 Q2340.61 1473.87 2337.58 1470.74 Q2334.57 1467.59 2334.57 1462.15 Q2334.57 1456.83 2337.72 1453.61 Q2340.87 1450.39 2346.1 1450.39 Q2352.1 1450.39 2355.24 1455 Q2358.42 1459.58 2358.42 1468.33 Q2358.42 1476.51 2354.53 1481.39 Q2350.66 1486.25 2344.11 1486.25 Q2342.35 1486.25 2340.55 1485.9 Q2338.74 1485.56 2336.8 1484.86 M2346.1 1470.21 Q2349.25 1470.21 2351.08 1468.06 Q2352.93 1465.9 2352.93 1462.15 Q2352.93 1458.43 2351.08 1456.27 Q2349.25 1454.1 2346.1 1454.1 Q2342.95 1454.1 2341.1 1456.27 Q2339.27 1458.43 2339.27 1462.15 Q2339.27 1465.9 2341.1 1468.06 Q2342.95 1470.21 2346.1 1470.21 Z" fill="#000000" fill-rule="nonzero" fill-opacity="1" /><path clip-path="url(#clip240)" d="M1267.53 1518.52 L1273.41 1518.52 L1273.41 1547.77 L1290.89 1532.4 L1298.37 1532.4 L1279.46 1549.07 L1299.16 1568.04 L1291.53 1568.04 L1273.41 1550.63 L1273.41 1568.04 L1267.53 1568.04 L1267.53 1518.52 Z" fill="#000000" fill-rule="nonzero" fill-opacity="1" /><path clip-path="url(#clip240)" d="M1304.7 1520.52 L1335.26 1520.52 L1335.26 1523.26 L1318.01 1568.04 L1311.29 1568.04 L1327.52 1525.93 L1304.7 1525.93 L1304.7 1520.52 Z" fill="#000000" fill-rule="nonzero" fill-opacity="1" /><polyline clip-path="url(#clip240)" style="stroke:#000000; stroke-linecap:round; stroke-linejoin:round; stroke-width:4; stroke-opacity:1; fill:none" points="250.028,1423.18 250.028,47.2441 "/>
<polyline clip-path="url(#clip240)" style="stroke:#000000; stroke-linecap:round; stroke-linejoin:round; stroke-width:4; stroke-opacity:1; fill:none" points="250.028,1207.76 268.926,1207.76 "/>
<polyline clip-path="url(#clip240)" style="stroke:#000000; stroke-linecap:round; stroke-linejoin:round; stroke-width:4; stroke-opacity:1; fill:none" points="250.028,969.243 268.926,969.243 "/>
<polyline clip-path="url(#clip240)" style="stroke:#000000; stroke-linecap:round; stroke-linejoin:round; stroke-width:4; stroke-opacity:1; fill:none" points="250.028,730.725 268.926,730.725 "/>
<polyline clip-path="url(#clip240)" style="stroke:#000000; stroke-linecap:round; stroke-linejoin:round; stroke-width:4; stroke-opacity:1; fill:none" points="250.028,492.207 268.926,492.207 "/>
<polyline clip-path="url(#clip240)" style="stroke:#000000; stroke-linecap:round; stroke-linejoin:round; stroke-width:4; stroke-opacity:1; fill:none" points="250.028,253.689 268.926,253.689 "/>
<path clip-path="url(#clip240)" d="M126.205 1193.56 Q122.593 1193.56 120.765 1197.12 Q118.959 1200.67 118.959 1207.8 Q118.959 1214.9 120.765 1218.47 Q122.593 1222.01 126.205 1222.01 Q129.839 1222.01 131.644 1218.47 Q133.473 1214.9 133.473 1207.8 Q133.473 1200.67 131.644 1197.12 Q129.839 1193.56 126.205 1193.56 M126.205 1189.86 Q132.015 1189.86 135.07 1194.46 Q138.149 1199.05 138.149 1207.8 Q138.149 1216.52 135.07 1221.13 Q132.015 1225.71 126.205 1225.71 Q120.394 1225.71 117.316 1221.13 Q114.26 1216.52 114.26 1207.8 Q114.26 1199.05 117.316 1194.46 Q120.394 1189.86 126.205 1189.86 Z" fill="#000000" fill-rule="nonzero" fill-opacity="1" /><path clip-path="url(#clip240)" d="M146.366 1219.16 L151.251 1219.16 L151.251 1225.04 L146.366 1225.04 L146.366 1219.16 Z" fill="#000000" fill-rule="nonzero" fill-opacity="1" /><path clip-path="url(#clip240)" d="M171.436 1208.63 Q168.102 1208.63 166.181 1210.41 Q164.283 1212.19 164.283 1215.32 Q164.283 1218.44 166.181 1220.23 Q168.102 1222.01 171.436 1222.01 Q174.769 1222.01 176.69 1220.23 Q178.612 1218.42 178.612 1215.32 Q178.612 1212.19 176.69 1210.41 Q174.792 1208.63 171.436 1208.63 M166.76 1206.64 Q163.751 1205.9 162.061 1203.84 Q160.394 1201.78 160.394 1198.81 Q160.394 1194.67 163.334 1192.26 Q166.297 1189.86 171.436 1189.86 Q176.598 1189.86 179.538 1192.26 Q182.477 1194.67 182.477 1198.81 Q182.477 1201.78 180.788 1203.84 Q179.121 1205.9 176.135 1206.64 Q179.514 1207.43 181.389 1209.72 Q183.288 1212.01 183.288 1215.32 Q183.288 1220.34 180.209 1223.03 Q177.153 1225.71 171.436 1225.71 Q165.718 1225.71 162.64 1223.03 Q159.584 1220.34 159.584 1215.32 Q159.584 1212.01 161.482 1209.72 Q163.38 1207.43 166.76 1206.64 M165.047 1199.25 Q165.047 1201.94 166.714 1203.44 Q168.403 1204.95 171.436 1204.95 Q174.445 1204.95 176.135 1203.44 Q177.848 1201.94 177.848 1199.25 Q177.848 1196.57 176.135 1195.06 Q174.445 1193.56 171.436 1193.56 Q168.403 1193.56 166.714 1195.06 Q165.047 1196.57 165.047 1199.25 Z" fill="#000000" fill-rule="nonzero" fill-opacity="1" /><path clip-path="url(#clip240)" d="M204.445 1194.56 L192.639 1213 L204.445 1213 L204.445 1194.56 M203.218 1190.48 L209.098 1190.48 L209.098 1213 L214.028 1213 L214.028 1216.89 L209.098 1216.89 L209.098 1225.04 L204.445 1225.04 L204.445 1216.89 L188.843 1216.89 L188.843 1212.38 L203.218 1190.48 Z" fill="#000000" fill-rule="nonzero" fill-opacity="1" /><path clip-path="url(#clip240)" d="M126.529 955.042 Q122.918 955.042 121.089 958.607 Q119.283 962.148 119.283 969.278 Q119.283 976.384 121.089 979.949 Q122.918 983.491 126.529 983.491 Q130.163 983.491 131.968 979.949 Q133.797 976.384 133.797 969.278 Q133.797 962.148 131.968 958.607 Q130.163 955.042 126.529 955.042 M126.529 951.338 Q132.339 951.338 135.394 955.945 Q138.473 960.528 138.473 969.278 Q138.473 978.005 135.394 982.611 Q132.339 987.195 126.529 987.195 Q120.718 987.195 117.64 982.611 Q114.584 978.005 114.584 969.278 Q114.584 960.528 117.64 955.945 Q120.718 951.338 126.529 951.338 Z" fill="#000000" fill-rule="nonzero" fill-opacity="1" /><path clip-path="url(#clip240)" d="M146.691 980.644 L151.575 980.644 L151.575 986.523 L146.691 986.523 L146.691 980.644 Z" fill="#000000" fill-rule="nonzero" fill-opacity="1" /><path clip-path="url(#clip240)" d="M171.76 970.111 Q168.427 970.111 166.505 971.894 Q164.607 973.676 164.607 976.801 Q164.607 979.926 166.505 981.708 Q168.427 983.491 171.76 983.491 Q175.093 983.491 177.014 981.708 Q178.936 979.903 178.936 976.801 Q178.936 973.676 177.014 971.894 Q175.116 970.111 171.76 970.111 M167.084 968.121 Q164.075 967.38 162.385 965.32 Q160.718 963.259 160.718 960.297 Q160.718 956.153 163.658 953.746 Q166.621 951.338 171.76 951.338 Q176.922 951.338 179.862 953.746 Q182.801 956.153 182.801 960.297 Q182.801 963.259 181.112 965.32 Q179.445 967.38 176.459 968.121 Q179.839 968.908 181.713 971.199 Q183.612 973.491 183.612 976.801 Q183.612 981.824 180.533 984.509 Q177.477 987.195 171.76 987.195 Q166.042 987.195 162.964 984.509 Q159.908 981.824 159.908 976.801 Q159.908 973.491 161.806 971.199 Q163.704 968.908 167.084 968.121 M165.371 960.736 Q165.371 963.421 167.038 964.926 Q168.727 966.431 171.76 966.431 Q174.769 966.431 176.459 964.926 Q178.172 963.421 178.172 960.736 Q178.172 958.051 176.459 956.547 Q174.769 955.042 171.76 955.042 Q168.727 955.042 167.038 956.547 Q165.371 958.051 165.371 960.736 Z" fill="#000000" fill-rule="nonzero" fill-opacity="1" /><path clip-path="url(#clip240)" d="M202.5 967.38 Q199.352 967.38 197.5 969.533 Q195.672 971.685 195.672 975.435 Q195.672 979.162 197.5 981.338 Q199.352 983.491 202.5 983.491 Q205.649 983.491 207.477 981.338 Q209.329 979.162 209.329 975.435 Q209.329 971.685 207.477 969.533 Q205.649 967.38 202.5 967.38 M211.783 952.727 L211.783 956.986 Q210.024 956.153 208.218 955.713 Q206.436 955.273 204.676 955.273 Q200.047 955.273 197.593 958.398 Q195.163 961.523 194.815 967.843 Q196.181 965.829 198.241 964.764 Q200.301 963.676 202.778 963.676 Q207.987 963.676 210.996 966.847 Q214.028 969.996 214.028 975.435 Q214.028 980.759 210.88 983.977 Q207.732 987.195 202.5 987.195 Q196.505 987.195 193.334 982.611 Q190.163 978.005 190.163 969.278 Q190.163 961.084 194.051 956.222 Q197.94 951.338 204.491 951.338 Q206.25 951.338 208.033 951.685 Q209.838 952.033 211.783 952.727 Z" fill="#000000" fill-rule="nonzero" fill-opacity="1" /><path clip-path="url(#clip240)" d="M126.783 716.524 Q123.172 716.524 121.343 720.088 Q119.538 723.63 119.538 730.76 Q119.538 737.866 121.343 741.431 Q123.172 744.973 126.783 744.973 Q130.417 744.973 132.223 741.431 Q134.052 737.866 134.052 730.76 Q134.052 723.63 132.223 720.088 Q130.417 716.524 126.783 716.524 M126.783 712.82 Q132.593 712.82 135.649 717.426 Q138.728 722.01 138.728 730.76 Q138.728 739.487 135.649 744.093 Q132.593 748.676 126.783 748.676 Q120.973 748.676 117.894 744.093 Q114.839 739.487 114.839 730.76 Q114.839 722.01 117.894 717.426 Q120.973 712.82 126.783 712.82 Z" fill="#000000" fill-rule="nonzero" fill-opacity="1" /><path clip-path="url(#clip240)" d="M146.945 742.125 L151.829 742.125 L151.829 748.005 L146.945 748.005 L146.945 742.125 Z" fill="#000000" fill-rule="nonzero" fill-opacity="1" /><path clip-path="url(#clip240)" d="M172.014 731.593 Q168.681 731.593 166.76 733.375 Q164.862 735.158 164.862 738.283 Q164.862 741.408 166.76 743.19 Q168.681 744.973 172.014 744.973 Q175.348 744.973 177.269 743.19 Q179.19 741.385 179.19 738.283 Q179.19 735.158 177.269 733.375 Q175.371 731.593 172.014 731.593 M167.339 729.602 Q164.329 728.862 162.64 726.801 Q160.973 724.741 160.973 721.778 Q160.973 717.635 163.913 715.227 Q166.876 712.82 172.014 712.82 Q177.176 712.82 180.116 715.227 Q183.056 717.635 183.056 721.778 Q183.056 724.741 181.366 726.801 Q179.7 728.862 176.714 729.602 Q180.093 730.389 181.968 732.681 Q183.866 734.973 183.866 738.283 Q183.866 743.306 180.788 745.991 Q177.732 748.676 172.014 748.676 Q166.297 748.676 163.218 745.991 Q160.163 743.306 160.163 738.283 Q160.163 734.973 162.061 732.681 Q163.959 730.389 167.339 729.602 M165.626 722.218 Q165.626 724.903 167.292 726.408 Q168.982 727.912 172.014 727.912 Q175.024 727.912 176.714 726.408 Q178.426 724.903 178.426 722.218 Q178.426 719.533 176.714 718.028 Q175.024 716.524 172.014 716.524 Q168.982 716.524 167.292 718.028 Q165.626 719.533 165.626 722.218 Z" fill="#000000" fill-rule="nonzero" fill-opacity="1" /><path clip-path="url(#clip240)" d="M202.176 731.593 Q198.843 731.593 196.922 733.375 Q195.024 735.158 195.024 738.283 Q195.024 741.408 196.922 743.19 Q198.843 744.973 202.176 744.973 Q205.51 744.973 207.431 743.19 Q209.352 741.385 209.352 738.283 Q209.352 735.158 207.431 733.375 Q205.533 731.593 202.176 731.593 M197.5 729.602 Q194.491 728.862 192.801 726.801 Q191.135 724.741 191.135 721.778 Q191.135 717.635 194.075 715.227 Q197.037 712.82 202.176 712.82 Q207.338 712.82 210.278 715.227 Q213.218 717.635 213.218 721.778 Q213.218 724.741 211.528 726.801 Q209.861 728.862 206.875 729.602 Q210.255 730.389 212.13 732.681 Q214.028 734.973 214.028 738.283 Q214.028 743.306 210.949 745.991 Q207.894 748.676 202.176 748.676 Q196.459 748.676 193.38 745.991 Q190.325 743.306 190.325 738.283 Q190.325 734.973 192.223 732.681 Q194.121 730.389 197.5 729.602 M195.787 722.218 Q195.787 724.903 197.454 726.408 Q199.144 727.912 202.176 727.912 Q205.186 727.912 206.875 726.408 Q208.588 724.903 208.588 722.218 Q208.588 719.533 206.875 718.028 Q205.186 716.524 202.176 716.524 Q199.144 716.524 197.454 718.028 Q195.787 719.533 195.787 722.218 Z" fill="#000000" fill-rule="nonzero" fill-opacity="1" /><path clip-path="url(#clip240)" d="M126.691 478.005 Q123.08 478.005 121.251 481.57 Q119.445 485.112 119.445 492.241 Q119.445 499.348 121.251 502.913 Q123.08 506.454 126.691 506.454 Q130.325 506.454 132.13 502.913 Q133.959 499.348 133.959 492.241 Q133.959 485.112 132.13 481.57 Q130.325 478.005 126.691 478.005 M126.691 474.302 Q132.501 474.302 135.556 478.908 Q138.635 483.492 138.635 492.241 Q138.635 500.968 135.556 505.575 Q132.501 510.158 126.691 510.158 Q120.88 510.158 117.802 505.575 Q114.746 500.968 114.746 492.241 Q114.746 483.492 117.802 478.908 Q120.88 474.302 126.691 474.302 Z" fill="#000000" fill-rule="nonzero" fill-opacity="1" /><path clip-path="url(#clip240)" d="M146.853 503.607 L151.737 503.607 L151.737 509.487 L146.853 509.487 L146.853 503.607 Z" fill="#000000" fill-rule="nonzero" fill-opacity="1" /><path clip-path="url(#clip240)" d="M162.061 508.769 L162.061 504.51 Q163.82 505.343 165.626 505.783 Q167.431 506.223 169.167 506.223 Q173.797 506.223 176.227 503.121 Q178.681 499.996 179.028 493.654 Q177.686 495.644 175.626 496.709 Q173.565 497.774 171.065 497.774 Q165.88 497.774 162.848 494.649 Q159.839 491.501 159.839 486.061 Q159.839 480.737 162.987 477.519 Q166.135 474.302 171.366 474.302 Q177.362 474.302 180.51 478.908 Q183.681 483.492 183.681 492.241 Q183.681 500.413 179.792 505.297 Q175.926 510.158 169.376 510.158 Q167.616 510.158 165.811 509.811 Q164.005 509.464 162.061 508.769 M171.366 494.116 Q174.514 494.116 176.343 491.964 Q178.195 489.811 178.195 486.061 Q178.195 482.334 176.343 480.181 Q174.514 478.005 171.366 478.005 Q168.218 478.005 166.366 480.181 Q164.538 482.334 164.538 486.061 Q164.538 489.811 166.366 491.964 Q168.218 494.116 171.366 494.116 Z" fill="#000000" fill-rule="nonzero" fill-opacity="1" /><path clip-path="url(#clip240)" d="M202.084 478.005 Q198.473 478.005 196.644 481.57 Q194.838 485.112 194.838 492.241 Q194.838 499.348 196.644 502.913 Q198.473 506.454 202.084 506.454 Q205.718 506.454 207.524 502.913 Q209.352 499.348 209.352 492.241 Q209.352 485.112 207.524 481.57 Q205.718 478.005 202.084 478.005 M202.084 474.302 Q207.894 474.302 210.949 478.908 Q214.028 483.492 214.028 492.241 Q214.028 500.968 210.949 505.575 Q207.894 510.158 202.084 510.158 Q196.274 510.158 193.195 505.575 Q190.139 500.968 190.139 492.241 Q190.139 483.492 193.195 478.908 Q196.274 474.302 202.084 474.302 Z" fill="#000000" fill-rule="nonzero" fill-opacity="1" /><path clip-path="url(#clip240)" d="M128.288 239.487 Q124.677 239.487 122.848 243.052 Q121.043 246.594 121.043 253.723 Q121.043 260.83 122.848 264.394 Q124.677 267.936 128.288 267.936 Q131.922 267.936 133.728 264.394 Q135.556 260.83 135.556 253.723 Q135.556 246.594 133.728 243.052 Q131.922 239.487 128.288 239.487 M128.288 235.784 Q134.098 235.784 137.154 240.39 Q140.232 244.973 140.232 253.723 Q140.232 262.45 137.154 267.057 Q134.098 271.64 128.288 271.64 Q122.478 271.64 119.399 267.057 Q116.343 262.45 116.343 253.723 Q116.343 244.973 119.399 240.39 Q122.478 235.784 128.288 235.784 Z" fill="#000000" fill-rule="nonzero" fill-opacity="1" /><path clip-path="url(#clip240)" d="M148.45 265.089 L153.334 265.089 L153.334 270.969 L148.45 270.969 L148.45 265.089 Z" fill="#000000" fill-rule="nonzero" fill-opacity="1" /><path clip-path="url(#clip240)" d="M163.658 270.251 L163.658 265.992 Q165.417 266.825 167.223 267.265 Q169.028 267.705 170.764 267.705 Q175.394 267.705 177.825 264.603 Q180.278 261.478 180.626 255.135 Q179.283 257.126 177.223 258.191 Q175.163 259.256 172.663 259.256 Q167.477 259.256 164.445 256.131 Q161.436 252.983 161.436 247.543 Q161.436 242.219 164.584 239.001 Q167.732 235.784 172.964 235.784 Q178.959 235.784 182.107 240.39 Q185.278 244.973 185.278 253.723 Q185.278 261.894 181.389 266.779 Q177.524 271.64 170.973 271.64 Q169.214 271.64 167.408 271.293 Q165.602 270.945 163.658 270.251 M172.964 255.598 Q176.112 255.598 177.94 253.445 Q179.792 251.293 179.792 247.543 Q179.792 243.816 177.94 241.663 Q176.112 239.487 172.964 239.487 Q169.815 239.487 167.964 241.663 Q166.135 243.816 166.135 247.543 Q166.135 251.293 167.964 253.445 Q169.815 255.598 172.964 255.598 Z" fill="#000000" fill-rule="nonzero" fill-opacity="1" /><path clip-path="url(#clip240)" d="M197.709 267.033 L214.028 267.033 L214.028 270.969 L192.084 270.969 L192.084 267.033 Q194.746 264.279 199.329 259.649 Q203.936 254.996 205.116 253.654 Q207.362 251.131 208.241 249.395 Q209.144 247.635 209.144 245.946 Q209.144 243.191 207.199 241.455 Q205.278 239.719 202.176 239.719 Q199.977 239.719 197.524 240.483 Q195.093 241.246 192.315 242.797 L192.315 238.075 Q195.139 236.941 197.593 236.362 Q200.047 235.784 202.084 235.784 Q207.454 235.784 210.649 238.469 Q213.843 241.154 213.843 245.645 Q213.843 247.774 213.033 249.695 Q212.246 251.594 210.139 254.186 Q209.561 254.857 206.459 258.075 Q203.357 261.269 197.709 267.033 Z" fill="#000000" fill-rule="nonzero" fill-opacity="1" /><path clip-path="url(#clip240)" d="M14.479 769.635 L14.479 763.746 L43.7294 763.746 L28.3562 746.272 L28.3562 738.793 L45.0344 757.699 L64.0042 737.997 L64.0042 745.636 L46.5939 763.746 L64.0042 763.746 L64.0042 769.635 L14.479 769.635 Z" fill="#000000" fill-rule="nonzero" fill-opacity="1" /><path clip-path="url(#clip240)" d="M41.4377 717.086 Q41.4377 721.669 43.8885 724.311 Q46.3393 726.921 50.6362 726.921 Q54.933 726.921 57.3838 724.311 Q59.8346 721.669 59.8346 717.086 Q59.8346 712.502 57.3838 709.861 Q54.9012 707.219 50.6362 707.219 Q46.3393 707.219 43.8885 709.861 Q41.4377 712.47 41.4377 717.086 M38.7005 723.515 Q37.682 727.653 34.8492 729.976 Q32.0165 732.268 27.9424 732.268 Q22.2451 732.268 18.935 728.226 Q15.6248 724.152 15.6248 717.086 Q15.6248 709.988 18.935 705.946 Q22.2451 701.903 27.9424 701.903 Q32.0165 701.903 34.8492 704.227 Q37.682 706.519 38.7005 710.624 Q39.7826 705.977 42.9337 703.399 Q46.0847 700.789 50.6362 700.789 Q57.543 700.789 61.2351 705.023 Q64.9272 709.224 64.9272 717.086 Q64.9272 724.947 61.2351 729.18 Q57.543 733.382 50.6362 733.382 Q46.0847 733.382 42.9337 730.772 Q39.7826 728.162 38.7005 723.515 M28.5472 725.87 Q32.2393 725.87 34.3081 723.579 Q36.377 721.255 36.377 717.086 Q36.377 712.948 34.3081 710.624 Q32.2393 708.269 28.5472 708.269 Q24.8551 708.269 22.7862 710.624 Q20.7174 712.948 20.7174 717.086 Q20.7174 721.255 22.7862 723.579 Q24.8551 725.87 28.5472 725.87 Z" fill="#000000" fill-rule="nonzero" fill-opacity="1" /><polyline clip-path="url(#clip242)" style="stroke:#009af9; stroke-linecap:round; stroke-linejoin:round; stroke-width:4; stroke-opacity:1; fill:none" points="309.539,1384.24 317.669,1376.15 329.937,1363.96 345.896,1348.16 366.772,1327.57 394.041,1300.83 429.563,1266.26 464.732,1232.31 499.677,1198.88 534.523,1165.85 569.387,1133.11 604.383,1100.56 639.621,1068.12 675.208,1035.7 711.249,1003.23 747.846,970.648 785.099,937.886 823.108,904.893 861.97,871.624 901.778,838.044 942.625,804.127 984.598,769.86 1027.77,735.243 1072.23,700.292 1118.02,665.044 1165.18,629.552 1213.76,593.897 1263.74,558.181 1315.11,522.534 1367.8,487.111 1421.73,452.091 1476.78,417.676 1532.76,384.083 1554.56,371.399 1611.52,339.316 1668.88,308.593 "/>
<circle clip-path="url(#clip242)" cx="1554.56" cy="371.399" r="10.8" fill="#cd0000" fill-rule="evenodd" fill-opacity="1" stroke="none"/>
<circle clip-path="url(#clip242)" cx="1554.56" cy="371.399" r="10.8" fill="#cd0000" fill-rule="evenodd" fill-opacity="1" stroke="none"/>
<polyline clip-path="url(#clip242)" style="stroke:#c271d2; stroke-linecap:round; stroke-linejoin:round; stroke-width:4; stroke-opacity:1; fill:none" points="309.539,1161.09 323.895,1149.99 343.533,1134.85 368.083,1116.03 398.892,1092.54 437.629,1063.25 486.437,1026.7 548.089,981.148 611.516,934.999 675.879,888.934 741.13,843.04 807.212,797.414 874.055,752.16 941.574,707.394 1009.67,663.242 1078.22,619.837 1147.08,577.323 1216.1,535.853 1285.09,495.581 1353.87,456.666 1422.23,419.261 1489.96,383.508 1556.85,349.536 1622.73,317.452 1687.42,287.338 1750.78,259.253 1812.68,233.227 1873.03,209.268 1931.74,187.359 1988.74,167.462 2043.99,149.522 2097.45,133.465 2149.1,119.205 2198.94,106.644 2246.97,95.6746 2293.24,86.1857 "/>
<circle clip-path="url(#clip242)" cx="2149.1" cy="119.205" r="10.8" fill="#458b00" fill-rule="evenodd" fill-opacity="1" stroke="none"/>
<circle clip-path="url(#clip242)" cx="2149.1" cy="119.205" r="10.8" fill="#458b00" fill-rule="evenodd" fill-opacity="1" stroke="none"/>
<path clip-path="url(#clip240)" d="M320.119 248.629 L584.466 248.629 L584.466 93.1086 L320.119 93.1086  Z" fill="#ffffff" fill-rule="evenodd" fill-opacity="1"/>
<polyline clip-path="url(#clip240)" style="stroke:#000000; stroke-linecap:round; stroke-linejoin:round; stroke-width:4; stroke-opacity:1; fill:none" points="320.119,248.629 584.466,248.629 584.466,93.1086 320.119,93.1086 320.119,248.629 "/>
<circle clip-path="url(#clip240)" cx="413.574" cy="144.949" r="23.04" fill="#cd0000" fill-rule="evenodd" fill-opacity="1" stroke="none"/>
<path clip-path="url(#clip240)" d="M527.537 137.298 L527.537 141.28 Q525.732 140.284 523.903 139.798 Q522.098 139.289 520.246 139.289 Q516.102 139.289 513.811 141.928 Q511.519 144.544 511.519 149.289 Q511.519 154.034 513.811 156.673 Q516.102 159.289 520.246 159.289 Q522.098 159.289 523.903 158.803 Q525.732 158.293 527.537 157.298 L527.537 161.233 Q525.755 162.067 523.834 162.483 Q521.936 162.9 519.783 162.9 Q513.926 162.9 510.477 159.219 Q507.028 155.539 507.028 149.289 Q507.028 142.946 510.5 139.312 Q513.996 135.678 520.061 135.678 Q522.028 135.678 523.903 136.095 Q525.778 136.488 527.537 137.298 Z" fill="#000000" fill-rule="nonzero" fill-opacity="1" /><path clip-path="url(#clip240)" d="M556.496 146.581 L556.496 162.229 L552.236 162.229 L552.236 146.719 Q552.236 143.039 550.801 141.21 Q549.366 139.382 546.496 139.382 Q543.047 139.382 541.056 141.581 Q539.065 143.78 539.065 147.576 L539.065 162.229 L534.783 162.229 L534.783 126.21 L539.065 126.21 L539.065 140.331 Q540.593 137.993 542.653 136.835 Q544.736 135.678 547.445 135.678 Q551.912 135.678 554.204 138.456 Q556.496 141.21 556.496 146.581 Z" fill="#000000" fill-rule="nonzero" fill-opacity="1" /><circle clip-path="url(#clip240)" cx="413.574" cy="196.789" r="23.04" fill="#458b00" fill-rule="evenodd" fill-opacity="1" stroke="none"/>
<path clip-path="url(#clip240)" d="M523.417 197.865 Q524.922 198.374 526.334 200.041 Q527.769 201.708 529.204 204.624 L533.949 214.069 L528.926 214.069 L524.505 205.203 Q522.792 201.731 521.172 200.596 Q519.574 199.462 516.797 199.462 L511.704 199.462 L511.704 214.069 L507.028 214.069 L507.028 179.509 L517.584 179.509 Q523.51 179.509 526.426 181.985 Q529.343 184.462 529.343 189.462 Q529.343 192.726 527.815 194.879 Q526.311 197.032 523.417 197.865 M511.704 183.351 L511.704 195.62 L517.584 195.62 Q520.963 195.62 522.676 194.069 Q524.412 192.495 524.412 189.462 Q524.412 186.43 522.676 184.902 Q520.963 183.351 517.584 183.351 L511.704 183.351 Z" fill="#000000" fill-rule="nonzero" fill-opacity="1" /><path clip-path="url(#clip240)" d="M541.195 210.133 L548.834 210.133 L548.834 183.768 L540.523 185.435 L540.523 181.175 L548.787 179.509 L553.463 179.509 L553.463 210.133 L561.102 210.133 L561.102 214.069 L541.195 214.069 L541.195 210.133 Z" fill="#000000" fill-rule="nonzero" fill-opacity="1" /></svg>
