<?xml version="1.0" encoding="utf-8"?>
<svg xmlns="http://www.w3.org/2000/svg" xmlns:xlink="http://www.w3.org/1999/xlink" width="600" height="400" viewBox="0 0 2400 1600">
<defs>
  <clipPath id="clip520">
    <rect x="0" y="0" width="2400" height="1600"/>
  </clipPath>
</defs>
<path clip-path="url(#clip520)" d="M0 1600 L2400 1600 L2400 0 L0 0  Z" fill="#ffffff" fill-rule="evenodd" fill-opacity="1"/>
<defs>
  <clipPath id="clip521">
    <rect x="480" y="0" width="1681" height="1600"/>
  </clipPath>
</defs>
<path clip-path="url(#clip520)" d="M337.196 1486.45 L2352.76 1486.45 L2352.76 47.2441 L337.196 47.2441  Z" fill="#ffffff" fill-rule="evenodd" fill-opacity="1"/>
<defs>
  <clipPath id="clip522">
    <rect x="337" y="47" width="2017" height="1440"/>
  </clipPath>
</defs>
<polyline clip-path="url(#clip522)" style="stroke:#000000; stroke-linecap:round; stroke-linejoin:round; stroke-width:2; stroke-opacity:0.1; fill:none" points="394.24,1486.45 394.24,47.2441 "/>
<polyline clip-path="url(#clip522)" style="stroke:#000000; stroke-linecap:round; stroke-linejoin:round; stroke-width:2; stroke-opacity:0.1; fill:none" points="911.234,1486.45 911.234,47.2441 "/>
<polyline clip-path="url(#clip522)" style="stroke:#000000; stroke-linecap:round; stroke-linejoin:round; stroke-width:2; stroke-opacity:0.1; fill:none" points="1428.23,1486.45 1428.23,47.2441 "/>
<polyline clip-path="url(#clip522)" style="stroke:#000000; stroke-linecap:round; stroke-linejoin:round; stroke-width:2; stroke-opacity:0.1; fill:none" points="1945.22,1486.45 1945.22,47.2441 "/>
<polyline clip-path="url(#clip522)" style="stroke:#000000; stroke-linecap:round; stroke-linejoin:round; stroke-width:2; stroke-opacity:0.1; fill:none" points="337.196,1445.72 2352.76,1445.72 "/>
<polyline clip-path="url(#clip522)" style="stroke:#000000; stroke-linecap:round; stroke-linejoin:round; stroke-width:2; stroke-opacity:0.1; fill:none" points="337.196,1229.81 2352.76,1229.81 "/>
<polyline clip-path="url(#clip522)" style="stroke:#000000; stroke-linecap:round; stroke-linejoin:round; stroke-width:2; stroke-opacity:0.1; fill:none" points="337.196,1013.9 2352.76,1013.9 "/>
<polyline clip-path="url(#clip522)" style="stroke:#000000; stroke-linecap:round; stroke-linejoin:round; stroke-width:2; stroke-opacity:0.1; fill:none" points="337.196,797.986 2352.76,797.986 "/>
<polyline clip-path="url(#clip522)" style="stroke:#000000; stroke-linecap:round; stroke-linejoin:round; stroke-width:2; stroke-opacity:0.1; fill:none" points="337.196,582.076 2352.76,582.076 "/>
<polyline clip-path="url(#clip522)" style="stroke:#000000; stroke-linecap:round; stroke-linejoin:round; stroke-width:2; stroke-opacity:0.1; fill:none" points="337.196,366.166 2352.76,366.166 "/>
<polyline clip-path="url(#clip522)" style="stroke:#000000; stroke-linecap:round; stroke-linejoin:round; stroke-width:2; stroke-opacity:0.1; fill:none" points="337.196,150.256 2352.76,150.256 "/>
<polyline clip-path="url(#clip520)" style="stroke:#000000; stroke-linecap:round; stroke-linejoin:round; stroke-width:4; stroke-opacity:1; fill:none" points="337.196,1486.45 2352.76,1486.45 "/>
<polyline clip-path="url(#clip520)" style="stroke:#000000; stroke-linecap:round; stroke-linejoin:round; stroke-width:4; stroke-opacity:1; fill:none" points="394.24,1486.45 394.24,1467.55 "/>
<polyline clip-path="url(#clip520)" style="stroke:#000000; stroke-linecap:round; stroke-linejoin:round; stroke-width:4; stroke-opacity:1; fill:none" points="911.234,1486.45 911.234,1467.55 "/>
<polyline clip-path="url(#clip520)" style="stroke:#000000; stroke-linecap:round; stroke-linejoin:round; stroke-width:4; stroke-opacity:1; fill:none" points="1428.23,1486.45 1428.23,1467.55 "/>
<polyline clip-path="url(#clip520)" style="stroke:#000000; stroke-linecap:round; stroke-linejoin:round; stroke-width:4; stroke-opacity:1; fill:none" points="1945.22,1486.45 1945.22,1467.55 "/>
<path clip-path="url(#clip520)" d="M371.625 1517.37 Q368.014 1517.37 366.185 1520.93 Q364.379 1524.47 364.379 1531.6 Q364.379 1538.71 366.185 1542.27 Q368.014 1545.82 371.625 1545.82 Q375.259 1545.82 377.065 1542.27 Q378.893 1538.71 378.893 1531.6 Q378.893 1524.47 377.065 1520.93 Q375.259 1517.37 371.625 1517.37 M371.625 1513.66 Q377.435 1513.66 380.49 1518.27 Q383.569 1522.85 383.569 1531.6 Q383.569 1540.33 380.49 1544.94 Q377.435 1549.52 371.625 1549.52 Q365.815 1549.52 362.736 1544.94 Q359.68 1540.33 359.68 1531.6 Q359.68 1522.85 362.736 1518.27 Q365.815 1513.66 371.625 1513.66 Z" fill="#000000" fill-rule="nonzero" fill-opacity="1" /><path clip-path="url(#clip520)" d="M391.787 1542.97 L396.671 1542.97 L396.671 1548.85 L391.787 1548.85 L391.787 1542.97 Z" fill="#000000" fill-rule="nonzero" fill-opacity="1" /><path clip-path="url(#clip520)" d="M416.856 1517.37 Q413.245 1517.37 411.416 1520.93 Q409.611 1524.47 409.611 1531.6 Q409.611 1538.71 411.416 1542.27 Q413.245 1545.82 416.856 1545.82 Q420.49 1545.82 422.296 1542.27 Q424.124 1538.71 424.124 1531.6 Q424.124 1524.47 422.296 1520.93 Q420.49 1517.37 416.856 1517.37 M416.856 1513.66 Q422.666 1513.66 425.722 1518.27 Q428.8 1522.85 428.8 1531.6 Q428.8 1540.33 425.722 1544.94 Q422.666 1549.52 416.856 1549.52 Q411.046 1549.52 407.967 1544.94 Q404.912 1540.33 404.912 1531.6 Q404.912 1522.85 407.967 1518.27 Q411.046 1513.66 416.856 1513.66 Z" fill="#000000" fill-rule="nonzero" fill-opacity="1" /><path clip-path="url(#clip520)" d="M889.232 1517.37 Q885.621 1517.37 883.792 1520.93 Q881.987 1524.47 881.987 1531.6 Q881.987 1538.71 883.792 1542.27 Q885.621 1545.82 889.232 1545.82 Q892.866 1545.82 894.672 1542.27 Q896.5 1538.71 896.5 1531.6 Q896.5 1524.47 894.672 1520.93 Q892.866 1517.37 889.232 1517.37 M889.232 1513.66 Q895.042 1513.66 898.098 1518.27 Q901.176 1522.85 901.176 1531.6 Q901.176 1540.33 898.098 1544.94 Q895.042 1549.52 889.232 1549.52 Q883.422 1549.52 880.343 1544.94 Q877.288 1540.33 877.288 1531.6 Q877.288 1522.85 880.343 1518.27 Q883.422 1513.66 889.232 1513.66 Z" fill="#000000" fill-rule="nonzero" fill-opacity="1" /><path clip-path="url(#clip520)" d="M909.394 1542.97 L914.278 1542.97 L914.278 1548.85 L909.394 1548.85 L909.394 1542.97 Z" fill="#000000" fill-rule="nonzero" fill-opacity="1" /><path clip-path="url(#clip520)" d="M925.273 1544.91 L932.912 1544.91 L932.912 1518.55 L924.602 1520.21 L924.602 1515.95 L932.866 1514.29 L937.542 1514.29 L937.542 1544.91 L945.181 1544.91 L945.181 1548.85 L925.273 1548.85 L925.273 1544.91 Z" fill="#000000" fill-rule="nonzero" fill-opacity="1" /><path clip-path="url(#clip520)" d="M1406.41 1517.37 Q1402.8 1517.37 1400.97 1520.93 Q1399.17 1524.47 1399.17 1531.6 Q1399.17 1538.71 1400.97 1542.27 Q1402.8 1545.82 1406.41 1545.82 Q1410.05 1545.82 1411.85 1542.27 Q1413.68 1538.71 1413.68 1531.6 Q1413.68 1524.47 1411.85 1520.93 Q1410.05 1517.37 1406.41 1517.37 M1406.41 1513.66 Q1412.22 1513.66 1415.28 1518.27 Q1418.36 1522.85 1418.36 1531.6 Q1418.36 1540.33 1415.28 1544.94 Q1412.22 1549.52 1406.41 1549.52 Q1400.6 1549.52 1397.52 1544.94 Q1394.47 1540.33 1394.47 1531.6 Q1394.47 1522.85 1397.52 1518.27 Q1400.6 1513.66 1406.41 1513.66 Z" fill="#000000" fill-rule="nonzero" fill-opacity="1" /><path clip-path="url(#clip520)" d="M1426.57 1542.97 L1431.46 1542.97 L1431.46 1548.85 L1426.57 1548.85 L1426.57 1542.97 Z" fill="#000000" fill-rule="nonzero" fill-opacity="1" /><path clip-path="url(#clip520)" d="M1445.67 1544.91 L1461.99 1544.91 L1461.99 1548.85 L1440.04 1548.85 L1440.04 1544.91 Q1442.71 1542.16 1447.29 1537.53 Q1451.9 1532.88 1453.08 1531.53 Q1455.32 1529.01 1456.2 1527.27 Q1457.11 1525.51 1457.11 1523.82 Q1457.11 1521.07 1455.16 1519.33 Q1453.24 1517.6 1450.14 1517.6 Q1447.94 1517.6 1445.48 1518.36 Q1443.05 1519.13 1440.28 1520.68 L1440.28 1515.95 Q1443.1 1514.82 1445.55 1514.24 Q1448.01 1513.66 1450.04 1513.66 Q1455.42 1513.66 1458.61 1516.35 Q1461.8 1519.03 1461.8 1523.52 Q1461.8 1525.65 1460.99 1527.57 Q1460.21 1529.47 1458.1 1532.07 Q1457.52 1532.74 1454.42 1535.95 Q1451.32 1539.15 1445.67 1544.91 Z" fill="#000000" fill-rule="nonzero" fill-opacity="1" /><path clip-path="url(#clip520)" d="M1922.93 1517.37 Q1919.32 1517.37 1917.49 1520.93 Q1915.68 1524.47 1915.68 1531.6 Q1915.68 1538.71 1917.49 1542.27 Q1919.32 1545.82 1922.93 1545.82 Q1926.56 1545.82 1928.37 1542.27 Q1930.2 1538.71 1930.2 1531.6 Q1930.2 1524.47 1928.37 1520.93 Q1926.56 1517.37 1922.93 1517.37 M1922.93 1513.66 Q1928.74 1513.66 1931.8 1518.27 Q1934.87 1522.85 1934.87 1531.6 Q1934.87 1540.33 1931.8 1544.94 Q1928.74 1549.52 1922.93 1549.52 Q1917.12 1549.52 1914.04 1544.94 Q1910.99 1540.33 1910.99 1531.6 Q1910.99 1522.85 1914.04 1518.27 Q1917.12 1513.66 1922.93 1513.66 Z" fill="#000000" fill-rule="nonzero" fill-opacity="1" /><path clip-path="url(#clip520)" d="M1943.09 1542.97 L1947.98 1542.97 L1947.98 1548.85 L1943.09 1548.85 L1943.09 1542.97 Z" fill="#000000" fill-rule="nonzero" fill-opacity="1" /><path clip-path="url(#clip520)" d="M1972.33 1530.21 Q1975.68 1530.93 1977.56 1533.2 Q1979.46 1535.47 1979.46 1538.8 Q1979.46 1543.92 1975.94 1546.72 Q1972.42 1549.52 1965.94 1549.52 Q1963.76 1549.52 1961.45 1549.08 Q1959.16 1548.66 1956.7 1547.81 L1956.7 1543.29 Q1958.65 1544.43 1960.96 1545.01 Q1963.28 1545.58 1965.8 1545.58 Q1970.2 1545.58 1972.49 1543.85 Q1974.8 1542.11 1974.8 1538.8 Q1974.8 1535.75 1972.65 1534.03 Q1970.52 1532.3 1966.7 1532.3 L1962.68 1532.3 L1962.68 1528.45 L1966.89 1528.45 Q1970.34 1528.45 1972.17 1527.09 Q1973.99 1525.7 1973.99 1523.11 Q1973.99 1520.45 1972.1 1519.03 Q1970.22 1517.6 1966.7 1517.6 Q1964.78 1517.6 1962.58 1518.01 Q1960.38 1518.43 1957.74 1519.31 L1957.74 1515.14 Q1960.41 1514.4 1962.72 1514.03 Q1965.06 1513.66 1967.12 1513.66 Q1972.44 1513.66 1975.55 1516.09 Q1978.65 1518.5 1978.65 1522.62 Q1978.65 1525.49 1977 1527.48 Q1975.36 1529.45 1972.33 1530.21 Z" fill="#000000" fill-rule="nonzero" fill-opacity="1" /><polyline clip-path="url(#clip520)" style="stroke:#000000; stroke-linecap:round; stroke-linejoin:round; stroke-width:4; stroke-opacity:1; fill:none" points="337.196,1486.45 337.196,47.2441 "/>
<polyline clip-path="url(#clip520)" style="stroke:#000000; stroke-linecap:round; stroke-linejoin:round; stroke-width:4; stroke-opacity:1; fill:none" points="337.196,1445.72 356.094,1445.72 "/>
<polyline clip-path="url(#clip520)" style="stroke:#000000; stroke-linecap:round; stroke-linejoin:round; stroke-width:4; stroke-opacity:1; fill:none" points="337.196,1229.81 356.094,1229.81 "/>
<polyline clip-path="url(#clip520)" style="stroke:#000000; stroke-linecap:round; stroke-linejoin:round; stroke-width:4; stroke-opacity:1; fill:none" points="337.196,1013.9 356.094,1013.9 "/>
<polyline clip-path="url(#clip520)" style="stroke:#000000; stroke-linecap:round; stroke-linejoin:round; stroke-width:4; stroke-opacity:1; fill:none" points="337.196,797.986 356.094,797.986 "/>
<polyline clip-path="url(#clip520)" style="stroke:#000000; stroke-linecap:round; stroke-linejoin:round; stroke-width:4; stroke-opacity:1; fill:none" points="337.196,582.076 356.094,582.076 "/>
<polyline clip-path="url(#clip520)" style="stroke:#000000; stroke-linecap:round; stroke-linejoin:round; stroke-width:4; stroke-opacity:1; fill:none" points="337.196,366.166 356.094,366.166 "/>
<polyline clip-path="url(#clip520)" style="stroke:#000000; stroke-linecap:round; stroke-linejoin:round; stroke-width:4; stroke-opacity:1; fill:none" points="337.196,150.256 356.094,150.256 "/>
<path clip-path="url(#clip520)" d="M289.252 1431.51 Q285.641 1431.51 283.812 1435.08 Q282.007 1438.62 282.007 1445.75 Q282.007 1452.86 283.812 1456.42 Q285.641 1459.96 289.252 1459.96 Q292.886 1459.96 294.692 1456.42 Q296.52 1452.86 296.52 1445.75 Q296.52 1438.62 294.692 1435.08 Q292.886 1431.51 289.252 1431.51 M289.252 1427.81 Q295.062 1427.81 298.118 1432.42 Q301.196 1437 301.196 1445.75 Q301.196 1454.48 298.118 1459.08 Q295.062 1463.67 289.252 1463.67 Q283.442 1463.67 280.363 1459.08 Q277.307 1454.48 277.307 1445.75 Q277.307 1437 280.363 1432.42 Q283.442 1427.81 289.252 1427.81 Z" fill="#000000" fill-rule="nonzero" fill-opacity="1" /><path clip-path="url(#clip520)" d="M57.7745 1249.6 L74.0939 1249.6 L74.0939 1253.53 L52.1495 1253.53 L52.1495 1249.6 Q54.8115 1246.84 59.3949 1242.21 Q64.0013 1237.56 65.1819 1236.22 Q67.4272 1233.7 68.3068 1231.96 Q69.2096 1230.2 69.2096 1228.51 Q69.2096 1225.76 67.2652 1224.02 Q65.3439 1222.28 62.2421 1222.28 Q60.043 1222.28 57.5893 1223.05 Q55.1588 1223.81 52.381 1225.36 L52.381 1220.64 Q55.2051 1219.51 57.6588 1218.93 Q60.1124 1218.35 62.1495 1218.35 Q67.5198 1218.35 70.7142 1221.03 Q73.9087 1223.72 73.9087 1228.21 Q73.9087 1230.34 73.0985 1232.26 Q72.3115 1234.16 70.205 1236.75 Q69.6263 1237.42 66.5245 1240.64 Q63.4226 1243.83 57.7745 1249.6 Z" fill="#000000" fill-rule="nonzero" fill-opacity="1" /><path clip-path="url(#clip520)" d="M83.9086 1247.65 L88.7928 1247.65 L88.7928 1253.53 L83.9086 1253.53 L83.9086 1247.65 Z" fill="#000000" fill-rule="nonzero" fill-opacity="1" /><path clip-path="url(#clip520)" d="M108.978 1222.05 Q105.367 1222.05 103.538 1225.62 Q101.733 1229.16 101.733 1236.29 Q101.733 1243.39 103.538 1246.96 Q105.367 1250.5 108.978 1250.5 Q112.612 1250.5 114.418 1246.96 Q116.246 1243.39 116.246 1236.29 Q116.246 1229.16 114.418 1225.62 Q112.612 1222.05 108.978 1222.05 M108.978 1218.35 Q114.788 1218.35 117.844 1222.95 Q120.922 1227.54 120.922 1236.29 Q120.922 1245.01 117.844 1249.62 Q114.788 1254.2 108.978 1254.2 Q103.168 1254.2 100.089 1249.62 Q97.0335 1245.01 97.0335 1236.29 Q97.0335 1227.54 100.089 1222.95 Q103.168 1218.35 108.978 1218.35 Z" fill="#000000" fill-rule="nonzero" fill-opacity="1" /><path clip-path="url(#clip520)" d="M139.14 1222.05 Q135.529 1222.05 133.7 1225.62 Q131.894 1229.16 131.894 1236.29 Q131.894 1243.39 133.7 1246.96 Q135.529 1250.5 139.14 1250.5 Q142.774 1250.5 144.58 1246.96 Q146.408 1243.39 146.408 1236.29 Q146.408 1229.16 144.58 1225.62 Q142.774 1222.05 139.14 1222.05 M139.14 1218.35 Q144.95 1218.35 148.005 1222.95 Q151.084 1227.54 151.084 1236.29 Q151.084 1245.01 148.005 1249.62 Q144.95 1254.2 139.14 1254.2 Q133.33 1254.2 130.251 1249.62 Q127.195 1245.01 127.195 1236.29 Q127.195 1227.54 130.251 1222.95 Q133.33 1218.35 139.14 1218.35 Z" fill="#000000" fill-rule="nonzero" fill-opacity="1" /><path clip-path="url(#clip520)" d="M187.473 1228.07 L176.894 1238.7 L187.473 1249.27 L184.718 1252.08 L174.093 1241.45 L163.468 1252.08 L160.737 1249.27 L171.292 1238.7 L160.737 1228.07 L163.468 1225.27 L174.093 1235.89 L184.718 1225.27 L187.473 1228.07 Z" fill="#000000" fill-rule="nonzero" fill-opacity="1" /><path clip-path="url(#clip520)" d="M199.834 1249.6 L207.473 1249.6 L207.473 1223.23 L199.163 1224.9 L199.163 1220.64 L207.426 1218.97 L212.102 1218.97 L212.102 1249.6 L219.741 1249.6 L219.741 1253.53 L199.834 1253.53 L199.834 1249.6 Z" fill="#000000" fill-rule="nonzero" fill-opacity="1" /><path clip-path="url(#clip520)" d="M239.186 1222.05 Q235.574 1222.05 233.746 1225.62 Q231.94 1229.16 231.94 1236.29 Q231.94 1243.39 233.746 1246.96 Q235.574 1250.5 239.186 1250.5 Q242.82 1250.5 244.625 1246.96 Q246.454 1243.39 246.454 1236.29 Q246.454 1229.16 244.625 1225.62 Q242.82 1222.05 239.186 1222.05 M239.186 1218.35 Q244.996 1218.35 248.051 1222.95 Q251.13 1227.54 251.13 1236.29 Q251.13 1245.01 248.051 1249.62 Q244.996 1254.2 239.186 1254.2 Q233.375 1254.2 230.297 1249.62 Q227.241 1245.01 227.241 1236.29 Q227.241 1227.54 230.297 1222.95 Q233.375 1218.35 239.186 1218.35 Z" fill="#000000" fill-rule="nonzero" fill-opacity="1" /><path clip-path="url(#clip520)" d="M251.13 1212.45 L275.242 1212.45 L275.242 1215.65 L251.13 1215.65 L251.13 1212.45 Z" fill="#000000" fill-rule="nonzero" fill-opacity="1" /><path clip-path="url(#clip520)" d="M291.567 1212.79 Q288.858 1212.79 287.297 1214.24 Q285.755 1215.68 285.755 1218.22 Q285.755 1220.76 287.297 1222.21 Q288.858 1223.66 291.567 1223.66 Q294.275 1223.66 295.836 1222.21 Q297.397 1220.74 297.397 1218.22 Q297.397 1215.68 295.836 1214.24 Q294.294 1212.79 291.567 1212.79 M287.767 1211.17 Q285.322 1210.57 283.95 1208.9 Q282.595 1207.22 282.595 1204.81 Q282.595 1201.45 284.984 1199.49 Q287.391 1197.54 291.567 1197.54 Q295.761 1197.54 298.149 1199.49 Q300.538 1201.45 300.538 1204.81 Q300.538 1207.22 299.165 1208.9 Q297.811 1210.57 295.385 1211.17 Q298.131 1211.81 299.654 1213.67 Q301.196 1215.53 301.196 1218.22 Q301.196 1222.31 298.695 1224.49 Q296.212 1226.67 291.567 1226.67 Q286.921 1226.67 284.42 1224.49 Q281.937 1222.31 281.937 1218.22 Q281.937 1215.53 283.479 1213.67 Q285.022 1211.81 287.767 1211.17 M286.376 1205.17 Q286.376 1207.35 287.73 1208.58 Q289.103 1209.8 291.567 1209.8 Q294.012 1209.8 295.385 1208.58 Q296.776 1207.35 296.776 1205.17 Q296.776 1202.99 295.385 1201.77 Q294.012 1200.54 291.567 1200.54 Q289.103 1200.54 287.73 1201.77 Q286.376 1202.99 286.376 1205.17 Z" fill="#000000" fill-rule="nonzero" fill-opacity="1" /><path clip-path="url(#clip520)" d="M66.5939 1007.14 L54.7884 1025.59 L66.5939 1025.59 L66.5939 1007.14 M65.367 1003.06 L71.2466 1003.06 L71.2466 1025.59 L76.1772 1025.59 L76.1772 1029.48 L71.2466 1029.48 L71.2466 1037.62 L66.5939 1037.62 L66.5939 1029.48 L50.9921 1029.48 L50.9921 1024.96 L65.367 1003.06 Z" fill="#000000" fill-rule="nonzero" fill-opacity="1" /><path clip-path="url(#clip520)" d="M83.9086 1031.74 L88.7928 1031.74 L88.7928 1037.62 L83.9086 1037.62 L83.9086 1031.74 Z" fill="#000000" fill-rule="nonzero" fill-opacity="1" /><path clip-path="url(#clip520)" d="M108.978 1006.14 Q105.367 1006.14 103.538 1009.71 Q101.733 1013.25 101.733 1020.38 Q101.733 1027.48 103.538 1031.05 Q105.367 1034.59 108.978 1034.59 Q112.612 1034.59 114.418 1031.05 Q116.246 1027.48 116.246 1020.38 Q116.246 1013.25 114.418 1009.71 Q112.612 1006.14 108.978 1006.14 M108.978 1002.44 Q114.788 1002.44 117.844 1007.04 Q120.922 1011.63 120.922 1020.38 Q120.922 1029.1 117.844 1033.71 Q114.788 1038.29 108.978 1038.29 Q103.168 1038.29 100.089 1033.71 Q97.0335 1029.1 97.0335 1020.38 Q97.0335 1011.63 100.089 1007.04 Q103.168 1002.44 108.978 1002.44 Z" fill="#000000" fill-rule="nonzero" fill-opacity="1" /><path clip-path="url(#clip520)" d="M139.14 1006.14 Q135.529 1006.14 133.7 1009.71 Q131.894 1013.25 131.894 1020.38 Q131.894 1027.48 133.7 1031.05 Q135.529 1034.59 139.14 1034.59 Q142.774 1034.59 144.58 1031.05 Q146.408 1027.48 146.408 1020.38 Q146.408 1013.25 144.58 1009.71 Q142.774 1006.14 139.14 1006.14 M139.14 1002.44 Q144.95 1002.44 148.005 1007.04 Q151.084 1011.63 151.084 1020.38 Q151.084 1029.1 148.005 1033.71 Q144.95 1038.29 139.14 1038.29 Q133.33 1038.29 130.251 1033.71 Q127.195 1029.1 127.195 1020.38 Q127.195 1011.63 130.251 1007.04 Q133.33 1002.44 139.14 1002.44 Z" fill="#000000" fill-rule="nonzero" fill-opacity="1" /><path clip-path="url(#clip520)" d="M187.473 1012.16 L176.894 1022.79 L187.473 1033.36 L184.718 1036.17 L174.093 1025.54 L163.468 1036.17 L160.737 1033.36 L171.292 1022.79 L160.737 1012.16 L163.468 1009.36 L174.093 1019.98 L184.718 1009.36 L187.473 1012.16 Z" fill="#000000" fill-rule="nonzero" fill-opacity="1" /><path clip-path="url(#clip520)" d="M199.834 1033.69 L207.473 1033.69 L207.473 1007.32 L199.163 1008.99 L199.163 1004.73 L207.426 1003.06 L212.102 1003.06 L212.102 1033.69 L219.741 1033.69 L219.741 1037.62 L199.834 1037.62 L199.834 1033.69 Z" fill="#000000" fill-rule="nonzero" fill-opacity="1" /><path clip-path="url(#clip520)" d="M239.186 1006.14 Q235.574 1006.14 233.746 1009.71 Q231.94 1013.25 231.94 1020.38 Q231.94 1027.48 233.746 1031.05 Q235.574 1034.59 239.186 1034.59 Q242.82 1034.59 244.625 1031.05 Q246.454 1027.48 246.454 1020.38 Q246.454 1013.25 244.625 1009.71 Q242.82 1006.14 239.186 1006.14 M239.186 1002.44 Q244.996 1002.44 248.051 1007.04 Q251.13 1011.63 251.13 1020.38 Q251.13 1029.1 248.051 1033.71 Q244.996 1038.29 239.186 1038.29 Q233.375 1038.29 230.297 1033.71 Q227.241 1029.1 227.241 1020.38 Q227.241 1011.63 230.297 1007.04 Q233.375 1002.44 239.186 1002.44 Z" fill="#000000" fill-rule="nonzero" fill-opacity="1" /><path clip-path="url(#clip520)" d="M251.13 996.54 L275.242 996.54 L275.242 999.737 L251.13 999.737 L251.13 996.54 Z" fill="#000000" fill-rule="nonzero" fill-opacity="1" /><path clip-path="url(#clip520)" d="M291.567 996.878 Q288.858 996.878 287.297 998.327 Q285.755 999.775 285.755 1002.31 Q285.755 1004.85 287.297 1006.3 Q288.858 1007.75 291.567 1007.75 Q294.275 1007.75 295.836 1006.3 Q297.397 1004.83 297.397 1002.31 Q297.397 999.775 295.836 998.327 Q294.294 996.878 291.567 996.878 M287.767 995.261 Q285.322 994.659 283.95 992.985 Q282.595 991.311 282.595 988.904 Q282.595 985.537 284.984 983.581 Q287.391 981.625 291.567 981.625 Q295.761 981.625 298.149 983.581 Q300.538 985.537 300.538 988.904 Q300.538 991.311 299.165 992.985 Q297.811 994.659 295.385 995.261 Q298.131 995.9 299.654 997.762 Q301.196 999.624 301.196 1002.31 Q301.196 1006.4 298.695 1008.58 Q296.212 1010.76 291.567 1010.76 Q286.921 1010.76 284.42 1008.58 Q281.937 1006.4 281.937 1002.31 Q281.937 999.624 283.479 997.762 Q285.022 995.9 287.767 995.261 M286.376 989.261 Q286.376 991.443 287.73 992.665 Q289.103 993.888 291.567 993.888 Q294.012 993.888 295.385 992.665 Q296.776 991.443 296.776 989.261 Q296.776 987.08 295.385 985.857 Q294.012 984.634 291.567 984.634 Q289.103 984.634 287.73 985.857 Q286.376 987.08 286.376 989.261 Z" fill="#000000" fill-rule="nonzero" fill-opacity="1" /><path clip-path="url(#clip520)" d="M64.3254 802.57 Q61.1773 802.57 59.3254 804.723 Q57.4967 806.876 57.4967 810.626 Q57.4967 814.352 59.3254 816.528 Q61.1773 818.681 64.3254 818.681 Q67.4735 818.681 69.3022 816.528 Q71.1541 814.352 71.1541 810.626 Q71.1541 806.876 69.3022 804.723 Q67.4735 802.57 64.3254 802.57 M73.6077 787.917 L73.6077 792.177 Q71.8485 791.343 70.0429 790.904 Q68.2606 790.464 66.5013 790.464 Q61.8717 790.464 59.418 793.589 Q56.9875 796.714 56.6402 803.033 Q58.006 801.019 60.0662 799.954 Q62.1263 798.866 64.6032 798.866 Q69.8115 798.866 72.8207 802.038 Q75.8531 805.186 75.8531 810.626 Q75.8531 815.95 72.705 819.167 Q69.5568 822.385 64.3254 822.385 Q58.33 822.385 55.1588 817.802 Q51.9875 813.195 51.9875 804.468 Q51.9875 796.274 55.8764 791.413 Q59.7652 786.529 66.3161 786.529 Q68.0754 786.529 69.8578 786.876 Q71.6633 787.223 73.6077 787.917 Z" fill="#000000" fill-rule="nonzero" fill-opacity="1" /><path clip-path="url(#clip520)" d="M83.9086 815.834 L88.7928 815.834 L88.7928 821.714 L83.9086 821.714 L83.9086 815.834 Z" fill="#000000" fill-rule="nonzero" fill-opacity="1" /><path clip-path="url(#clip520)" d="M108.978 790.232 Q105.367 790.232 103.538 793.797 Q101.733 797.339 101.733 804.468 Q101.733 811.575 103.538 815.14 Q105.367 818.681 108.978 818.681 Q112.612 818.681 114.418 815.14 Q116.246 811.575 116.246 804.468 Q116.246 797.339 114.418 793.797 Q112.612 790.232 108.978 790.232 M108.978 786.529 Q114.788 786.529 117.844 791.135 Q120.922 795.718 120.922 804.468 Q120.922 813.195 117.844 817.802 Q114.788 822.385 108.978 822.385 Q103.168 822.385 100.089 817.802 Q97.0335 813.195 97.0335 804.468 Q97.0335 795.718 100.089 791.135 Q103.168 786.529 108.978 786.529 Z" fill="#000000" fill-rule="nonzero" fill-opacity="1" /><path clip-path="url(#clip520)" d="M139.14 790.232 Q135.529 790.232 133.7 793.797 Q131.894 797.339 131.894 804.468 Q131.894 811.575 133.7 815.14 Q135.529 818.681 139.14 818.681 Q142.774 818.681 144.58 815.14 Q146.408 811.575 146.408 804.468 Q146.408 797.339 144.58 793.797 Q142.774 790.232 139.14 790.232 M139.14 786.529 Q144.95 786.529 148.005 791.135 Q151.084 795.718 151.084 804.468 Q151.084 813.195 148.005 817.802 Q144.95 822.385 139.14 822.385 Q133.33 822.385 130.251 817.802 Q127.195 813.195 127.195 804.468 Q127.195 795.718 130.251 791.135 Q133.33 786.529 139.14 786.529 Z" fill="#000000" fill-rule="nonzero" fill-opacity="1" /><path clip-path="url(#clip520)" d="M187.473 796.251 L176.894 806.876 L187.473 817.454 L184.718 820.255 L174.093 809.63 L163.468 820.255 L160.737 817.454 L171.292 806.876 L160.737 796.251 L163.468 793.45 L174.093 804.075 L184.718 793.45 L187.473 796.251 Z" fill="#000000" fill-rule="nonzero" fill-opacity="1" /><path clip-path="url(#clip520)" d="M199.834 817.778 L207.473 817.778 L207.473 791.413 L199.163 793.079 L199.163 788.82 L207.426 787.154 L212.102 787.154 L212.102 817.778 L219.741 817.778 L219.741 821.714 L199.834 821.714 L199.834 817.778 Z" fill="#000000" fill-rule="nonzero" fill-opacity="1" /><path clip-path="url(#clip520)" d="M239.186 790.232 Q235.574 790.232 233.746 793.797 Q231.94 797.339 231.94 804.468 Q231.94 811.575 233.746 815.14 Q235.574 818.681 239.186 818.681 Q242.82 818.681 244.625 815.14 Q246.454 811.575 246.454 804.468 Q246.454 797.339 244.625 793.797 Q242.82 790.232 239.186 790.232 M239.186 786.529 Q244.996 786.529 248.051 791.135 Q251.13 795.718 251.13 804.468 Q251.13 813.195 248.051 817.802 Q244.996 822.385 239.186 822.385 Q233.375 822.385 230.297 817.802 Q227.241 813.195 227.241 804.468 Q227.241 795.718 230.297 791.135 Q233.375 786.529 239.186 786.529 Z" fill="#000000" fill-rule="nonzero" fill-opacity="1" /><path clip-path="url(#clip520)" d="M251.13 780.63 L275.242 780.63 L275.242 783.827 L251.13 783.827 L251.13 780.63 Z" fill="#000000" fill-rule="nonzero" fill-opacity="1" /><path clip-path="url(#clip520)" d="M291.567 780.968 Q288.858 780.968 287.297 782.417 Q285.755 783.865 285.755 786.404 Q285.755 788.943 287.297 790.391 Q288.858 791.839 291.567 791.839 Q294.275 791.839 295.836 790.391 Q297.397 788.924 297.397 786.404 Q297.397 783.865 295.836 782.417 Q294.294 780.968 291.567 780.968 M287.767 779.351 Q285.322 778.749 283.95 777.075 Q282.595 775.401 282.595 772.994 Q282.595 769.627 284.984 767.671 Q287.391 765.715 291.567 765.715 Q295.761 765.715 298.149 767.671 Q300.538 769.627 300.538 772.994 Q300.538 775.401 299.165 777.075 Q297.811 778.749 295.385 779.351 Q298.131 779.99 299.654 781.852 Q301.196 783.714 301.196 786.404 Q301.196 790.485 298.695 792.667 Q296.212 794.849 291.567 794.849 Q286.921 794.849 284.42 792.667 Q281.937 790.485 281.937 786.404 Q281.937 783.714 283.479 781.852 Q285.022 779.99 287.767 779.351 M286.376 773.351 Q286.376 775.533 287.73 776.756 Q289.103 777.978 291.567 777.978 Q294.012 777.978 295.385 776.756 Q296.776 775.533 296.776 773.351 Q296.776 771.17 295.385 769.947 Q294.012 768.725 291.567 768.725 Q289.103 768.725 287.73 769.947 Q286.376 771.17 286.376 773.351 Z" fill="#000000" fill-rule="nonzero" fill-opacity="1" /><path clip-path="url(#clip520)" d="M63.7467 589.392 Q60.4134 589.392 58.4921 591.174 Q56.5939 592.956 56.5939 596.081 Q56.5939 599.206 58.4921 600.989 Q60.4134 602.771 63.7467 602.771 Q67.08 602.771 69.0013 600.989 Q70.9226 599.183 70.9226 596.081 Q70.9226 592.956 69.0013 591.174 Q67.1032 589.392 63.7467 589.392 M59.0708 587.401 Q56.0615 586.66 54.3717 584.6 Q52.7051 582.54 52.7051 579.577 Q52.7051 575.433 55.6449 573.026 Q58.6078 570.619 63.7467 570.619 Q68.9087 570.619 71.8485 573.026 Q74.7883 575.433 74.7883 579.577 Q74.7883 582.54 73.0985 584.6 Q71.4318 586.66 68.4457 587.401 Q71.8253 588.188 73.7003 590.48 Q75.5985 592.771 75.5985 596.081 Q75.5985 601.105 72.5198 603.79 Q69.4642 606.475 63.7467 606.475 Q58.0291 606.475 54.9504 603.79 Q51.8949 601.105 51.8949 596.081 Q51.8949 592.771 53.793 590.48 Q55.6912 588.188 59.0708 587.401 M57.3578 580.017 Q57.3578 582.702 59.0245 584.207 Q60.7143 585.711 63.7467 585.711 Q66.7559 585.711 68.4457 584.207 Q70.1587 582.702 70.1587 580.017 Q70.1587 577.332 68.4457 575.827 Q66.7559 574.322 63.7467 574.322 Q60.7143 574.322 59.0245 575.827 Q57.3578 577.332 57.3578 580.017 Z" fill="#000000" fill-rule="nonzero" fill-opacity="1" /><path clip-path="url(#clip520)" d="M83.9086 599.924 L88.7928 599.924 L88.7928 605.804 L83.9086 605.804 L83.9086 599.924 Z" fill="#000000" fill-rule="nonzero" fill-opacity="1" /><path clip-path="url(#clip520)" d="M108.978 574.322 Q105.367 574.322 103.538 577.887 Q101.733 581.429 101.733 588.558 Q101.733 595.665 103.538 599.23 Q105.367 602.771 108.978 602.771 Q112.612 602.771 114.418 599.23 Q116.246 595.665 116.246 588.558 Q116.246 581.429 114.418 577.887 Q112.612 574.322 108.978 574.322 M108.978 570.619 Q114.788 570.619 117.844 575.225 Q120.922 579.808 120.922 588.558 Q120.922 597.285 117.844 601.892 Q114.788 606.475 108.978 606.475 Q103.168 606.475 100.089 601.892 Q97.0335 597.285 97.0335 588.558 Q97.0335 579.808 100.089 575.225 Q103.168 570.619 108.978 570.619 Z" fill="#000000" fill-rule="nonzero" fill-opacity="1" /><path clip-path="url(#clip520)" d="M139.14 574.322 Q135.529 574.322 133.7 577.887 Q131.894 581.429 131.894 588.558 Q131.894 595.665 133.7 599.23 Q135.529 602.771 139.14 602.771 Q142.774 602.771 144.58 599.23 Q146.408 595.665 146.408 588.558 Q146.408 581.429 144.58 577.887 Q142.774 574.322 139.14 574.322 M139.14 570.619 Q144.95 570.619 148.005 575.225 Q151.084 579.808 151.084 588.558 Q151.084 597.285 148.005 601.892 Q144.95 606.475 139.14 606.475 Q133.33 606.475 130.251 601.892 Q127.195 597.285 127.195 588.558 Q127.195 579.808 130.251 575.225 Q133.33 570.619 139.14 570.619 Z" fill="#000000" fill-rule="nonzero" fill-opacity="1" /><path clip-path="url(#clip520)" d="M187.473 580.341 L176.894 590.966 L187.473 601.544 L184.718 604.345 L174.093 593.72 L163.468 604.345 L160.737 601.544 L171.292 590.966 L160.737 580.341 L163.468 577.54 L174.093 588.165 L184.718 577.54 L187.473 580.341 Z" fill="#000000" fill-rule="nonzero" fill-opacity="1" /><path clip-path="url(#clip520)" d="M199.834 601.868 L207.473 601.868 L207.473 575.503 L199.163 577.17 L199.163 572.91 L207.426 571.244 L212.102 571.244 L212.102 601.868 L219.741 601.868 L219.741 605.804 L199.834 605.804 L199.834 601.868 Z" fill="#000000" fill-rule="nonzero" fill-opacity="1" /><path clip-path="url(#clip520)" d="M239.186 574.322 Q235.574 574.322 233.746 577.887 Q231.94 581.429 231.94 588.558 Q231.94 595.665 233.746 599.23 Q235.574 602.771 239.186 602.771 Q242.82 602.771 244.625 599.23 Q246.454 595.665 246.454 588.558 Q246.454 581.429 244.625 577.887 Q242.82 574.322 239.186 574.322 M239.186 570.619 Q244.996 570.619 248.051 575.225 Q251.13 579.808 251.13 588.558 Q251.13 597.285 248.051 601.892 Q244.996 606.475 239.186 606.475 Q233.375 606.475 230.297 601.892 Q227.241 597.285 227.241 588.558 Q227.241 579.808 230.297 575.225 Q233.375 570.619 239.186 570.619 Z" fill="#000000" fill-rule="nonzero" fill-opacity="1" /><path clip-path="url(#clip520)" d="M251.13 564.72 L275.242 564.72 L275.242 567.917 L251.13 567.917 L251.13 564.72 Z" fill="#000000" fill-rule="nonzero" fill-opacity="1" /><path clip-path="url(#clip520)" d="M291.567 565.059 Q288.858 565.059 287.297 566.507 Q285.755 567.955 285.755 570.494 Q285.755 573.033 287.297 574.481 Q288.858 575.929 291.567 575.929 Q294.275 575.929 295.836 574.481 Q297.397 573.014 297.397 570.494 Q297.397 567.955 295.836 566.507 Q294.294 565.059 291.567 565.059 M287.767 563.441 Q285.322 562.839 283.95 561.165 Q282.595 559.491 282.595 557.084 Q282.595 553.717 284.984 551.761 Q287.391 549.805 291.567 549.805 Q295.761 549.805 298.149 551.761 Q300.538 553.717 300.538 557.084 Q300.538 559.491 299.165 561.165 Q297.811 562.839 295.385 563.441 Q298.131 564.081 299.654 565.942 Q301.196 567.804 301.196 570.494 Q301.196 574.575 298.695 576.757 Q296.212 578.939 291.567 578.939 Q286.921 578.939 284.42 576.757 Q281.937 574.575 281.937 570.494 Q281.937 567.804 283.479 565.942 Q285.022 564.081 287.767 563.441 M286.376 557.441 Q286.376 559.623 287.73 560.846 Q289.103 562.068 291.567 562.068 Q294.012 562.068 295.385 560.846 Q296.776 559.623 296.776 557.441 Q296.776 555.26 295.385 554.037 Q294.012 552.815 291.567 552.815 Q289.103 552.815 287.73 554.037 Q286.376 555.26 286.376 557.441 Z" fill="#000000" fill-rule="nonzero" fill-opacity="1" /><path clip-path="url(#clip520)" d="M55.2152 385.959 L62.854 385.959 L62.854 359.593 L54.5439 361.26 L54.5439 357 L62.8077 355.334 L67.4836 355.334 L67.4836 385.959 L75.1225 385.959 L75.1225 389.894 L55.2152 389.894 L55.2152 385.959 Z" fill="#000000" fill-rule="nonzero" fill-opacity="1" /><path clip-path="url(#clip520)" d="M84.5669 384.014 L89.4511 384.014 L89.4511 389.894 L84.5669 389.894 L84.5669 384.014 Z" fill="#000000" fill-rule="nonzero" fill-opacity="1" /><path clip-path="url(#clip520)" d="M109.636 358.412 Q106.025 358.412 104.196 361.977 Q102.391 365.519 102.391 372.648 Q102.391 379.755 104.196 383.32 Q106.025 386.861 109.636 386.861 Q113.27 386.861 115.076 383.32 Q116.905 379.755 116.905 372.648 Q116.905 365.519 115.076 361.977 Q113.27 358.412 109.636 358.412 M109.636 354.709 Q115.446 354.709 118.502 359.315 Q121.581 363.898 121.581 372.648 Q121.581 381.375 118.502 385.982 Q115.446 390.565 109.636 390.565 Q103.826 390.565 100.747 385.982 Q97.6918 381.375 97.6918 372.648 Q97.6918 363.898 100.747 359.315 Q103.826 354.709 109.636 354.709 Z" fill="#000000" fill-rule="nonzero" fill-opacity="1" /><path clip-path="url(#clip520)" d="M139.798 358.412 Q136.187 358.412 134.358 361.977 Q132.553 365.519 132.553 372.648 Q132.553 379.755 134.358 383.32 Q136.187 386.861 139.798 386.861 Q143.432 386.861 145.238 383.32 Q147.067 379.755 147.067 372.648 Q147.067 365.519 145.238 361.977 Q143.432 358.412 139.798 358.412 M139.798 354.709 Q145.608 354.709 148.664 359.315 Q151.742 363.898 151.742 372.648 Q151.742 381.375 148.664 385.982 Q145.608 390.565 139.798 390.565 Q133.988 390.565 130.909 385.982 Q127.854 381.375 127.854 372.648 Q127.854 363.898 130.909 359.315 Q133.988 354.709 139.798 354.709 Z" fill="#000000" fill-rule="nonzero" fill-opacity="1" /><path clip-path="url(#clip520)" d="M188.131 364.431 L177.553 375.056 L188.131 385.634 L185.377 388.435 L174.752 377.81 L164.127 388.435 L161.395 385.634 L171.951 375.056 L161.395 364.431 L164.127 361.63 L174.752 372.255 L185.377 361.63 L188.131 364.431 Z" fill="#000000" fill-rule="nonzero" fill-opacity="1" /><path clip-path="url(#clip520)" d="M200.492 385.959 L208.131 385.959 L208.131 359.593 L199.821 361.26 L199.821 357 L208.085 355.334 L212.761 355.334 L212.761 385.959 L220.399 385.959 L220.399 389.894 L200.492 389.894 L200.492 385.959 Z" fill="#000000" fill-rule="nonzero" fill-opacity="1" /><path clip-path="url(#clip520)" d="M239.844 358.412 Q236.233 358.412 234.404 361.977 Q232.599 365.519 232.599 372.648 Q232.599 379.755 234.404 383.32 Q236.233 386.861 239.844 386.861 Q243.478 386.861 245.284 383.32 Q247.112 379.755 247.112 372.648 Q247.112 365.519 245.284 361.977 Q243.478 358.412 239.844 358.412 M239.844 354.709 Q245.654 354.709 248.71 359.315 Q251.788 363.898 251.788 372.648 Q251.788 381.375 248.71 385.982 Q245.654 390.565 239.844 390.565 Q234.034 390.565 230.955 385.982 Q227.899 381.375 227.899 372.648 Q227.899 363.898 230.955 359.315 Q234.034 354.709 239.844 354.709 Z" fill="#000000" fill-rule="nonzero" fill-opacity="1" /><path clip-path="url(#clip520)" d="M251.788 348.81 L275.9 348.81 L275.9 352.007 L251.788 352.007 L251.788 348.81 Z" fill="#000000" fill-rule="nonzero" fill-opacity="1" /><path clip-path="url(#clip520)" d="M283.141 334.403 L301.196 334.403 L301.196 336.021 L291.002 362.483 L287.034 362.483 L296.626 337.601 L283.141 337.601 L283.141 334.403 Z" fill="#000000" fill-rule="nonzero" fill-opacity="1" /><path clip-path="url(#clip520)" d="M55.2152 170.049 L62.854 170.049 L62.854 143.683 L54.5439 145.35 L54.5439 141.09 L62.8077 139.424 L67.4836 139.424 L67.4836 170.049 L75.1225 170.049 L75.1225 173.984 L55.2152 173.984 L55.2152 170.049 Z" fill="#000000" fill-rule="nonzero" fill-opacity="1" /><path clip-path="url(#clip520)" d="M84.5669 168.104 L89.4511 168.104 L89.4511 173.984 L84.5669 173.984 L84.5669 168.104 Z" fill="#000000" fill-rule="nonzero" fill-opacity="1" /><path clip-path="url(#clip520)" d="M103.664 170.049 L119.983 170.049 L119.983 173.984 L98.039 173.984 L98.039 170.049 Q100.701 167.294 105.284 162.664 Q109.891 158.012 111.071 156.669 Q113.317 154.146 114.196 152.41 Q115.099 150.651 115.099 148.961 Q115.099 146.206 113.155 144.47 Q111.233 142.734 108.132 142.734 Q105.933 142.734 103.479 143.498 Q101.048 144.262 98.2705 145.813 L98.2705 141.09 Q101.095 139.956 103.548 139.378 Q106.002 138.799 108.039 138.799 Q113.409 138.799 116.604 141.484 Q119.798 144.169 119.798 148.66 Q119.798 150.789 118.988 152.711 Q118.201 154.609 116.094 157.201 Q115.516 157.873 112.414 161.09 Q109.312 164.285 103.664 170.049 Z" fill="#000000" fill-rule="nonzero" fill-opacity="1" /><path clip-path="url(#clip520)" d="M139.798 142.502 Q136.187 142.502 134.358 146.067 Q132.553 149.609 132.553 156.739 Q132.553 163.845 134.358 167.41 Q136.187 170.951 139.798 170.951 Q143.432 170.951 145.238 167.41 Q147.067 163.845 147.067 156.739 Q147.067 149.609 145.238 146.067 Q143.432 142.502 139.798 142.502 M139.798 138.799 Q145.608 138.799 148.664 143.405 Q151.742 147.989 151.742 156.739 Q151.742 165.465 148.664 170.072 Q145.608 174.655 139.798 174.655 Q133.988 174.655 130.909 170.072 Q127.854 165.465 127.854 156.739 Q127.854 147.989 130.909 143.405 Q133.988 138.799 139.798 138.799 Z" fill="#000000" fill-rule="nonzero" fill-opacity="1" /><path clip-path="url(#clip520)" d="M188.131 148.521 L177.553 159.146 L188.131 169.725 L185.377 172.525 L174.752 161.901 L164.127 172.525 L161.395 169.725 L171.951 159.146 L161.395 148.521 L164.127 145.72 L174.752 156.345 L185.377 145.72 L188.131 148.521 Z" fill="#000000" fill-rule="nonzero" fill-opacity="1" /><path clip-path="url(#clip520)" d="M200.492 170.049 L208.131 170.049 L208.131 143.683 L199.821 145.35 L199.821 141.09 L208.085 139.424 L212.761 139.424 L212.761 170.049 L220.399 170.049 L220.399 173.984 L200.492 173.984 L200.492 170.049 Z" fill="#000000" fill-rule="nonzero" fill-opacity="1" /><path clip-path="url(#clip520)" d="M239.844 142.502 Q236.233 142.502 234.404 146.067 Q232.599 149.609 232.599 156.739 Q232.599 163.845 234.404 167.41 Q236.233 170.951 239.844 170.951 Q243.478 170.951 245.284 167.41 Q247.112 163.845 247.112 156.739 Q247.112 149.609 245.284 146.067 Q243.478 142.502 239.844 142.502 M239.844 138.799 Q245.654 138.799 248.71 143.405 Q251.788 147.989 251.788 156.739 Q251.788 165.465 248.71 170.072 Q245.654 174.655 239.844 174.655 Q234.034 174.655 230.955 170.072 Q227.899 165.465 227.899 156.739 Q227.899 147.989 230.955 143.405 Q234.034 138.799 239.844 138.799 Z" fill="#000000" fill-rule="nonzero" fill-opacity="1" /><path clip-path="url(#clip520)" d="M251.788 132.9 L275.9 132.9 L275.9 136.097 L251.788 136.097 L251.788 132.9 Z" fill="#000000" fill-rule="nonzero" fill-opacity="1" /><path clip-path="url(#clip520)" d="M283.141 118.493 L301.196 118.493 L301.196 120.111 L291.002 146.573 L287.034 146.573 L296.626 121.691 L283.141 121.691 L283.141 118.493 Z" fill="#000000" fill-rule="nonzero" fill-opacity="1" /><polyline clip-path="url(#clip522)" style="stroke:#009af9; stroke-linecap:round; stroke-linejoin:round; stroke-width:20; stroke-opacity:1; fill:none" points="394.24,1445.72 547.402,1445.72 694.17,1445.72 834.463,1445.72 968.208,1445.72 1095.34,1445.72 1215.82,1445.72 1329.61,1445.72 1436.68,1445.72 1537.03,1445.72 1630.67,1445.72 1717.64,1445.72 1797.97,1445.72 1871.74,1445.72 1939.03,1445.71 1999.94,1445.68 2054.6,1445.51 2103.14,1444.76 2145.74,1441.8 2182.55,1431.06 "/>
<polyline clip-path="url(#clip522)" style="stroke:#e26f46; stroke-linecap:round; stroke-linejoin:round; stroke-width:20; stroke-opacity:1; fill:none" points="2182.55,1445.72 2223.67,1445.61 2254.63,1445.52 2276.38,1445.47 2289.8,1445.43 2295.71,1445.41 2294.89,1445.42 2288.05,1445.43 2275.85,1445.47 2258.9,1445.51 2237.77,1445.57 2212.97,1445.63 2185,1445.7 2154.27,1445.68 2121.2,1445.7 2086.16,1445.18 2049.46,1442.94 2011.42,1434.77 1972.31,1407.69 1932.37,1324 "/>
<polyline clip-path="url(#clip522)" style="stroke:#3da44d; stroke-linecap:round; stroke-linejoin:round; stroke-width:20; stroke-opacity:1; fill:none" points="1932.37,1445.72 1890.34,1445.45 1847.89,1445.19 1805.23,1444.93 1762.52,1444.66 1719.92,1444.4 1677.56,1444.13 1635.57,1443.87 1594.04,1443.62 1553.07,1443.36 1512.74,1443.11 1473.12,1442.87 1434.25,1442.62 1396.2,1442.36 1359,1442.03 1322.68,1441.38 1287.26,1439.48 1252.78,1433.16 1219.24,1412.28 1186.64,1346.5 "/>
<polyline clip-path="url(#clip522)" style="stroke:#c271d2; stroke-linecap:round; stroke-linejoin:round; stroke-width:20; stroke-opacity:1; fill:none" points="1186.64,1445.72 1183.35,1445.6 1180.07,1445.49 1176.8,1445.38 1173.54,1445.27 1170.3,1445.16 1167.06,1445.05 1163.83,1444.94 1160.61,1444.84 1157.4,1444.73 1154.2,1444.62 1151.01,1444.51 1147.83,1444.38 1144.66,1444.18 1141.5,1443.65 1138.36,1441.77 1135.22,1435.01 1132.09,1411.83 1128.97,1337.36 1125.86,1112.46 "/>
<polyline clip-path="url(#clip522)" style="stroke:#ac8d18; stroke-linecap:round; stroke-linejoin:round; stroke-width:20; stroke-opacity:1; fill:none" points="1125.86,1445.71 1121.05,1445.47 1116.26,1445.22 1111.49,1444.97 1106.75,1444.73 1102.04,1444.48 1097.35,1444.24 1092.68,1444 1088.04,1443.75 1083.42,1443.52 1078.82,1443.28 1074.25,1443.04 1069.7,1442.79 1065.18,1442.48 1060.68,1441.93 1056.21,1440.36 1051.76,1435.13 1047.33,1417.54 1042.93,1361.37 1038.55,1192.06 "/>
<polyline clip-path="url(#clip522)" style="stroke:#00a9ad; stroke-linecap:round; stroke-linejoin:round; stroke-width:20; stroke-opacity:1; fill:none" points="1038.55,1445.72 1024.8,1445.5 1011.28,1445.29 998.006,1445.09 984.963,1444.89 972.154,1444.69 959.574,1444.49 947.223,1444.3 935.099,1444.11 923.198,1443.93 911.518,1443.75 900.058,1443.57 888.814,1443.38 877.784,1443.14 866.966,1442.67 856.357,1441.22 845.954,1436.25 835.755,1419.43 825.756,1365.53 815.956,1202.95 "/>
<polyline clip-path="url(#clip522)" style="stroke:#ed5d92; stroke-linecap:round; stroke-linejoin:round; stroke-width:20; stroke-opacity:1; fill:none" points="815.956,1445.72 785.721,1444.88 757.418,1444.1 730.954,1443.38 706.235,1442.7 683.169,1442.06 661.665,1441.47 641.635,1440.92 622.994,1440.4 605.658,1439.93 589.548,1439.48 574.589,1439.07 560.706,1438.7 547.831,1438.37 535.898,1438.18 524.844,1438.51 514.61,1440.84 505.14,1439.48 496.382,1401.14 488.286,1274.2 "/>
<polyline clip-path="url(#clip522)" style="stroke:#c68125; stroke-linecap:round; stroke-linejoin:round; stroke-width:20; stroke-opacity:1; fill:none" points="488.286,1445.72 478.789,1444.19 470.214,1442.82 462.478,1441.58 455.503,1440.46 449.218,1439.45 443.557,1438.54 438.462,1437.73 433.879,1436.99 429.758,1436.33 426.054,1435.74 422.727,1435.2 419.74,1434.73 417.059,1434.34 414.654,1434.16 412.497,1434.79 410.563,1438.61 408.83,1436.94 407.278,1378.38 405.888,1177.88 "/>
<polyline clip-path="url(#clip522)" style="stroke:#00a98d; stroke-linecap:round; stroke-linejoin:round; stroke-width:20; stroke-opacity:1; fill:none" points="405.888,1445.72 404.415,1445.25 403.125,1444.83 401.996,1444.47 401.009,1444.16 400.145,1443.88 399.39,1443.64 398.731,1443.43 398.154,1443.25 397.651,1443.09 397.212,1442.95 396.829,1442.82 396.494,1442.71 396.202,1442.58 395.948,1442.32 395.726,1441.37 395.533,1437.46 395.365,1421.9 395.218,1363.69 395.091,1159.11 "/>
<polyline clip-path="url(#clip522)" style="stroke:#8e971d; stroke-linecap:round; stroke-linejoin:round; stroke-width:20; stroke-opacity:1; fill:none" points="395.091,1445.72 394.978,1445.71 394.88,1445.7 394.795,1445.7 394.722,1445.69 394.657,1445.69 394.602,1445.69 394.554,1445.69 394.512,1445.68 394.476,1445.68 394.444,1445.68 394.417,1445.68 394.393,1445.67 394.373,1445.63 394.355,1445.45 394.339,1444.57 394.326,1440.72 394.315,1425.16 394.305,1366.59 394.296,1159.97 "/>
<polyline clip-path="url(#clip522)" style="stroke:#00a8cb; stroke-linecap:round; stroke-linejoin:round; stroke-width:20; stroke-opacity:1; fill:none" points="394.296,1445.72 394.288,1445.71 394.282,1445.71 394.276,1445.71 394.271,1445.71 394.267,1445.71 394.263,1445.71 394.26,1445.71 394.257,1445.71 394.255,1445.71 394.253,1445.71 394.251,1445.71 394.25,1445.7 394.248,1445.66 394.247,1445.46 394.246,1444.48 394.246,1440.16 394.245,1422.64 394.244,1356.54 394.244,1122.62 "/>
<polyline clip-path="url(#clip522)" style="stroke:#9b7fe8; stroke-linecap:round; stroke-linejoin:round; stroke-width:20; stroke-opacity:1; fill:none" points="394.244,1445.72 394.243,1445.72 394.243,1445.72 394.242,1445.72 394.242,1445.72 394.242,1445.72 394.242,1445.72 394.241,1445.72 394.241,1445.72 394.241,1445.72 394.241,1445.72 394.241,1445.71 394.241,1445.71 394.241,1445.66 394.241,1445.4 394.241,1444.14 394.241,1438.57 394.241,1415.86 394.241,1329.75 394.241,1023.52 "/>
<polyline clip-path="url(#clip522)" style="stroke:#608cf6; stroke-linecap:round; stroke-linejoin:round; stroke-width:20; stroke-opacity:1; fill:none" points="394.241,1445.72 394.241,1445.72 394.24,1445.72 394.24,1445.72 394.24,1445.72 394.24,1445.72 394.24,1445.72 394.24,1445.72 394.24,1445.72 394.24,1445.72 394.24,1445.72 394.24,1445.71 394.24,1445.69 394.24,1445.55 394.24,1444.76 394.24,1440.89 394.24,1423.55 394.24,1351.99 394.24,1077.23 394.24,87.9763 "/>
<polyline clip-path="url(#clip522)" style="stroke:#f05f73; stroke-linecap:round; stroke-linejoin:round; stroke-width:20; stroke-opacity:1; fill:none" points="394.24,1445.72 394.24,1445.72 394.24,1445.72 394.24,1445.72 394.24,1445.72 394.24,1445.72 394.24,1445.72 394.24,1445.72 394.24,1445.72 394.24,1445.71 394.24,1445.72 394.24,1445.71 394.24,1445.71 394.24,1445.68 394.24,1445.54 394.24,1444.84 394.24,1441.74 394.24,1429.07 394.24,1380.95 394.24,1209.57 "/>
<polyline clip-path="url(#clip522)" style="stroke:#dd64b5; stroke-linecap:round; stroke-linejoin:round; stroke-width:20; stroke-opacity:1; fill:none" points="394.24,1445.72 394.24,1445.72 394.24,1445.72 394.24,1445.72 394.24,1445.71 394.24,1445.72 394.24,1445.72 394.24,1445.72 394.24,1445.72 394.24,1445.71 394.24,1445.72 394.24,1445.71 394.24,1445.71 394.24,1445.68 394.24,1445.53 394.24,1444.81 394.24,1441.63 394.24,1428.73 394.24,1379.99 394.24,1207.45 "/>
</svg>
