<?xml version="1.0" encoding="utf-8"?>
<svg xmlns="http://www.w3.org/2000/svg" xmlns:xlink="http://www.w3.org/1999/xlink" width="600" height="400" viewBox="0 0 2400 1600">
<defs>
  <clipPath id="clip670">
    <rect x="0" y="0" width="2400" height="1600"/>
  </clipPath>
</defs>
<path clip-path="url(#clip670)" d="M0 1600 L2400 1600 L2400 0 L0 0  Z" fill="#ffffff" fill-rule="evenodd" fill-opacity="1"/>
<defs>
  <clipPath id="clip671">
    <rect x="250" y="47" width="2104" height="1377"/>
  </clipPath>
</defs>
<path clip-path="url(#clip670)" d="M250.028 1423.18 L2352.76 1423.18 L2352.76 47.2441 L250.028 47.2441  Z" fill="#ffffff" fill-rule="evenodd" fill-opacity="1"/>
<polyline clip-path="url(#clip671)" style="stroke:#000000; stroke-linecap:round; stroke-linejoin:round; stroke-width:2; stroke-opacity:0.1; fill:none" points="309.539,1423.18 309.539,47.2441 "/>
<polyline clip-path="url(#clip671)" style="stroke:#000000; stroke-linecap:round; stroke-linejoin:round; stroke-width:2; stroke-opacity:0.1; fill:none" points="867.172,1423.18 867.172,47.2441 "/>
<polyline clip-path="url(#clip671)" style="stroke:#000000; stroke-linecap:round; stroke-linejoin:round; stroke-width:2; stroke-opacity:0.1; fill:none" points="1424.81,1423.18 1424.81,47.2441 "/>
<polyline clip-path="url(#clip671)" style="stroke:#000000; stroke-linecap:round; stroke-linejoin:round; stroke-width:2; stroke-opacity:0.1; fill:none" points="1982.44,1423.18 1982.44,47.2441 "/>
<polyline clip-path="url(#clip671)" style="stroke:#000000; stroke-linecap:round; stroke-linejoin:round; stroke-width:2; stroke-opacity:0.1; fill:none" points="250.028,1201.28 2352.76,1201.28 "/>
<polyline clip-path="url(#clip671)" style="stroke:#000000; stroke-linecap:round; stroke-linejoin:round; stroke-width:2; stroke-opacity:0.1; fill:none" points="250.028,954 2352.76,954 "/>
<polyline clip-path="url(#clip671)" style="stroke:#000000; stroke-linecap:round; stroke-linejoin:round; stroke-width:2; stroke-opacity:0.1; fill:none" points="250.028,706.721 2352.76,706.721 "/>
<polyline clip-path="url(#clip671)" style="stroke:#000000; stroke-linecap:round; stroke-linejoin:round; stroke-width:2; stroke-opacity:0.1; fill:none" points="250.028,459.442 2352.76,459.442 "/>
<polyline clip-path="url(#clip671)" style="stroke:#000000; stroke-linecap:round; stroke-linejoin:round; stroke-width:2; stroke-opacity:0.1; fill:none" points="250.028,212.163 2352.76,212.163 "/>
<polyline clip-path="url(#clip670)" style="stroke:#000000; stroke-linecap:round; stroke-linejoin:round; stroke-width:4; stroke-opacity:1; fill:none" points="250.028,1423.18 2352.76,1423.18 "/>
<polyline clip-path="url(#clip670)" style="stroke:#000000; stroke-linecap:round; stroke-linejoin:round; stroke-width:4; stroke-opacity:1; fill:none" points="309.539,1423.18 309.539,1404.28 "/>
<polyline clip-path="url(#clip670)" style="stroke:#000000; stroke-linecap:round; stroke-linejoin:round; stroke-width:4; stroke-opacity:1; fill:none" points="867.172,1423.18 867.172,1404.28 "/>
<polyline clip-path="url(#clip670)" style="stroke:#000000; stroke-linecap:round; stroke-linejoin:round; stroke-width:4; stroke-opacity:1; fill:none" points="1424.81,1423.18 1424.81,1404.28 "/>
<polyline clip-path="url(#clip670)" style="stroke:#000000; stroke-linecap:round; stroke-linejoin:round; stroke-width:4; stroke-opacity:1; fill:none" points="1982.44,1423.18 1982.44,1404.28 "/>
<path clip-path="url(#clip670)" d="M277.19 1481.64 L284.829 1481.64 L284.829 1455.28 L276.519 1456.95 L276.519 1452.69 L284.782 1451.02 L289.458 1451.02 L289.458 1481.64 L297.097 1481.64 L297.097 1485.58 L277.19 1485.58 L277.19 1481.64 Z" fill="#000000" fill-rule="nonzero" fill-opacity="1" /><path clip-path="url(#clip670)" d="M306.542 1479.7 L311.426 1479.7 L311.426 1485.58 L306.542 1485.58 L306.542 1479.7 Z" fill="#000000" fill-rule="nonzero" fill-opacity="1" /><path clip-path="url(#clip670)" d="M321.657 1451.02 L340.014 1451.02 L340.014 1454.96 L325.94 1454.96 L325.94 1463.43 Q326.958 1463.08 327.977 1462.92 Q328.995 1462.73 330.014 1462.73 Q335.801 1462.73 339.18 1465.9 Q342.56 1469.08 342.56 1474.49 Q342.56 1480.07 339.088 1483.17 Q335.616 1486.25 329.296 1486.25 Q327.12 1486.25 324.852 1485.88 Q322.606 1485.51 320.199 1484.77 L320.199 1480.07 Q322.282 1481.2 324.505 1481.76 Q326.727 1482.32 329.204 1482.32 Q333.208 1482.32 335.546 1480.21 Q337.884 1478.1 337.884 1474.49 Q337.884 1470.88 335.546 1468.77 Q333.208 1466.67 329.204 1466.67 Q327.329 1466.67 325.454 1467.08 Q323.602 1467.5 321.657 1468.38 L321.657 1451.02 Z" fill="#000000" fill-rule="nonzero" fill-opacity="1" /><path clip-path="url(#clip670)" d="M834.244 1481.64 L841.883 1481.64 L841.883 1455.28 L833.573 1456.95 L833.573 1452.69 L841.837 1451.02 L846.513 1451.02 L846.513 1481.64 L854.151 1481.64 L854.151 1485.58 L834.244 1485.58 L834.244 1481.64 Z" fill="#000000" fill-rule="nonzero" fill-opacity="1" /><path clip-path="url(#clip670)" d="M863.596 1479.7 L868.48 1479.7 L868.48 1485.58 L863.596 1485.58 L863.596 1479.7 Z" fill="#000000" fill-rule="nonzero" fill-opacity="1" /><path clip-path="url(#clip670)" d="M889.244 1466.44 Q886.096 1466.44 884.244 1468.59 Q882.415 1470.74 882.415 1474.49 Q882.415 1478.22 884.244 1480.39 Q886.096 1482.55 889.244 1482.55 Q892.392 1482.55 894.221 1480.39 Q896.073 1478.22 896.073 1474.49 Q896.073 1470.74 894.221 1468.59 Q892.392 1466.44 889.244 1466.44 M898.526 1451.78 L898.526 1456.04 Q896.767 1455.21 894.961 1454.77 Q893.179 1454.33 891.42 1454.33 Q886.79 1454.33 884.336 1457.45 Q881.906 1460.58 881.559 1466.9 Q882.924 1464.89 884.985 1463.82 Q887.045 1462.73 889.522 1462.73 Q894.73 1462.73 897.739 1465.9 Q900.772 1469.05 900.772 1474.49 Q900.772 1479.82 897.623 1483.03 Q894.475 1486.25 889.244 1486.25 Q883.249 1486.25 880.077 1481.67 Q876.906 1477.06 876.906 1468.33 Q876.906 1460.14 880.795 1455.28 Q884.684 1450.39 891.235 1450.39 Q892.994 1450.39 894.776 1450.74 Q896.582 1451.09 898.526 1451.78 Z" fill="#000000" fill-rule="nonzero" fill-opacity="1" /><path clip-path="url(#clip670)" d="M1392.41 1481.64 L1400.05 1481.64 L1400.05 1455.28 L1391.74 1456.95 L1391.74 1452.69 L1400 1451.02 L1404.68 1451.02 L1404.68 1481.64 L1412.32 1481.64 L1412.32 1485.58 L1392.41 1485.58 L1392.41 1481.64 Z" fill="#000000" fill-rule="nonzero" fill-opacity="1" /><path clip-path="url(#clip670)" d="M1421.76 1479.7 L1426.65 1479.7 L1426.65 1485.58 L1421.76 1485.58 L1421.76 1479.7 Z" fill="#000000" fill-rule="nonzero" fill-opacity="1" /><path clip-path="url(#clip670)" d="M1435.65 1451.02 L1457.87 1451.02 L1457.87 1453.01 L1445.33 1485.58 L1440.44 1485.58 L1452.25 1454.96 L1435.65 1454.96 L1435.65 1451.02 Z" fill="#000000" fill-rule="nonzero" fill-opacity="1" /><path clip-path="url(#clip670)" d="M1949.64 1481.64 L1957.28 1481.64 L1957.28 1455.28 L1948.97 1456.95 L1948.97 1452.69 L1957.23 1451.02 L1961.91 1451.02 L1961.91 1481.64 L1969.54 1481.64 L1969.54 1485.58 L1949.64 1485.58 L1949.64 1481.64 Z" fill="#000000" fill-rule="nonzero" fill-opacity="1" /><path clip-path="url(#clip670)" d="M1978.99 1479.7 L1983.87 1479.7 L1983.87 1485.58 L1978.99 1485.58 L1978.99 1479.7 Z" fill="#000000" fill-rule="nonzero" fill-opacity="1" /><path clip-path="url(#clip670)" d="M2004.06 1469.17 Q2000.73 1469.17 1998.8 1470.95 Q1996.91 1472.73 1996.91 1475.86 Q1996.91 1478.98 1998.8 1480.77 Q2000.73 1482.55 2004.06 1482.55 Q2007.39 1482.55 2009.31 1480.77 Q2011.23 1478.96 2011.23 1475.86 Q2011.23 1472.73 2009.31 1470.95 Q2007.41 1469.17 2004.06 1469.17 M1999.38 1467.18 Q1996.37 1466.44 1994.68 1464.38 Q1993.02 1462.32 1993.02 1459.35 Q1993.02 1455.21 1995.96 1452.8 Q1998.92 1450.39 2004.06 1450.39 Q2009.22 1450.39 2012.16 1452.8 Q2015.1 1455.21 2015.1 1459.35 Q2015.1 1462.32 2013.41 1464.38 Q2011.74 1466.44 2008.76 1467.18 Q2012.14 1467.96 2014.01 1470.26 Q2015.91 1472.55 2015.91 1475.86 Q2015.91 1480.88 2012.83 1483.57 Q2009.78 1486.25 2004.06 1486.25 Q1998.34 1486.25 1995.26 1483.57 Q1992.21 1480.88 1992.21 1475.86 Q1992.21 1472.55 1994.1 1470.26 Q1996 1467.96 1999.38 1467.18 M1997.67 1459.79 Q1997.67 1462.48 1999.34 1463.98 Q2001.03 1465.49 2004.06 1465.49 Q2007.07 1465.49 2008.76 1463.98 Q2010.47 1462.48 2010.47 1459.79 Q2010.47 1457.11 2008.76 1455.6 Q2007.07 1454.1 2004.06 1454.1 Q2001.03 1454.1 1999.34 1455.6 Q1997.67 1457.11 1997.67 1459.79 Z" fill="#000000" fill-rule="nonzero" fill-opacity="1" /><path clip-path="url(#clip670)" d="M1267.53 1518.52 L1273.41 1518.52 L1273.41 1547.77 L1290.89 1532.4 L1298.37 1532.4 L1279.46 1549.07 L1299.16 1568.04 L1291.53 1568.04 L1273.41 1550.63 L1273.41 1568.04 L1267.53 1568.04 L1267.53 1518.52 Z" fill="#000000" fill-rule="nonzero" fill-opacity="1" /><path clip-path="url(#clip670)" d="M1304.7 1520.52 L1335.26 1520.52 L1335.26 1523.26 L1318.01 1568.04 L1311.29 1568.04 L1327.52 1525.93 L1304.7 1525.93 L1304.7 1520.52 Z" fill="#000000" fill-rule="nonzero" fill-opacity="1" /><polyline clip-path="url(#clip670)" style="stroke:#000000; stroke-linecap:round; stroke-linejoin:round; stroke-width:4; stroke-opacity:1; fill:none" points="250.028,1423.18 250.028,47.2441 "/>
<polyline clip-path="url(#clip670)" style="stroke:#000000; stroke-linecap:round; stroke-linejoin:round; stroke-width:4; stroke-opacity:1; fill:none" points="250.028,1201.28 268.926,1201.28 "/>
<polyline clip-path="url(#clip670)" style="stroke:#000000; stroke-linecap:round; stroke-linejoin:round; stroke-width:4; stroke-opacity:1; fill:none" points="250.028,954 268.926,954 "/>
<polyline clip-path="url(#clip670)" style="stroke:#000000; stroke-linecap:round; stroke-linejoin:round; stroke-width:4; stroke-opacity:1; fill:none" points="250.028,706.721 268.926,706.721 "/>
<polyline clip-path="url(#clip670)" style="stroke:#000000; stroke-linecap:round; stroke-linejoin:round; stroke-width:4; stroke-opacity:1; fill:none" points="250.028,459.442 268.926,459.442 "/>
<polyline clip-path="url(#clip670)" style="stroke:#000000; stroke-linecap:round; stroke-linejoin:round; stroke-width:4; stroke-opacity:1; fill:none" points="250.028,212.163 268.926,212.163 "/>
<path clip-path="url(#clip670)" d="M126.205 1187.08 Q122.593 1187.08 120.765 1190.64 Q118.959 1194.18 118.959 1201.31 Q118.959 1208.42 120.765 1211.99 Q122.593 1215.53 126.205 1215.53 Q129.839 1215.53 131.644 1211.99 Q133.473 1208.42 133.473 1201.31 Q133.473 1194.18 131.644 1190.64 Q129.839 1187.08 126.205 1187.08 M126.205 1183.37 Q132.015 1183.37 135.07 1187.98 Q138.149 1192.56 138.149 1201.31 Q138.149 1210.04 135.07 1214.65 Q132.015 1219.23 126.205 1219.23 Q120.394 1219.23 117.316 1214.65 Q114.26 1210.04 114.26 1201.31 Q114.26 1192.56 117.316 1187.98 Q120.394 1183.37 126.205 1183.37 Z" fill="#000000" fill-rule="nonzero" fill-opacity="1" /><path clip-path="url(#clip670)" d="M146.366 1212.68 L151.251 1212.68 L151.251 1218.56 L146.366 1218.56 L146.366 1212.68 Z" fill="#000000" fill-rule="nonzero" fill-opacity="1" /><path clip-path="url(#clip670)" d="M171.436 1202.15 Q168.102 1202.15 166.181 1203.93 Q164.283 1205.71 164.283 1208.84 Q164.283 1211.96 166.181 1213.74 Q168.102 1215.53 171.436 1215.53 Q174.769 1215.53 176.69 1213.74 Q178.612 1211.94 178.612 1208.84 Q178.612 1205.71 176.69 1203.93 Q174.792 1202.15 171.436 1202.15 M166.76 1200.16 Q163.751 1199.42 162.061 1197.36 Q160.394 1195.3 160.394 1192.33 Q160.394 1188.19 163.334 1185.78 Q166.297 1183.37 171.436 1183.37 Q176.598 1183.37 179.538 1185.78 Q182.477 1188.19 182.477 1192.33 Q182.477 1195.3 180.788 1197.36 Q179.121 1199.42 176.135 1200.16 Q179.514 1200.94 181.389 1203.24 Q183.288 1205.53 183.288 1208.84 Q183.288 1213.86 180.209 1216.55 Q177.153 1219.23 171.436 1219.23 Q165.718 1219.23 162.64 1216.55 Q159.584 1213.86 159.584 1208.84 Q159.584 1205.53 161.482 1203.24 Q163.38 1200.94 166.76 1200.16 M165.047 1192.77 Q165.047 1195.46 166.714 1196.96 Q168.403 1198.47 171.436 1198.47 Q174.445 1198.47 176.135 1196.96 Q177.848 1195.46 177.848 1192.77 Q177.848 1190.09 176.135 1188.58 Q174.445 1187.08 171.436 1187.08 Q168.403 1187.08 166.714 1188.58 Q165.047 1190.09 165.047 1192.77 Z" fill="#000000" fill-rule="nonzero" fill-opacity="1" /><path clip-path="url(#clip670)" d="M204.445 1188.07 L192.639 1206.52 L204.445 1206.52 L204.445 1188.07 M203.218 1184 L209.098 1184 L209.098 1206.52 L214.028 1206.52 L214.028 1210.41 L209.098 1210.41 L209.098 1218.56 L204.445 1218.56 L204.445 1210.41 L188.843 1210.41 L188.843 1205.9 L203.218 1184 Z" fill="#000000" fill-rule="nonzero" fill-opacity="1" /><path clip-path="url(#clip670)" d="M126.529 939.799 Q122.918 939.799 121.089 943.364 Q119.283 946.906 119.283 954.035 Q119.283 961.142 121.089 964.706 Q122.918 968.248 126.529 968.248 Q130.163 968.248 131.968 964.706 Q133.797 961.142 133.797 954.035 Q133.797 946.906 131.968 943.364 Q130.163 939.799 126.529 939.799 M126.529 936.095 Q132.339 936.095 135.394 940.702 Q138.473 945.285 138.473 954.035 Q138.473 962.762 135.394 967.368 Q132.339 971.952 126.529 971.952 Q120.718 971.952 117.64 967.368 Q114.584 962.762 114.584 954.035 Q114.584 945.285 117.64 940.702 Q120.718 936.095 126.529 936.095 Z" fill="#000000" fill-rule="nonzero" fill-opacity="1" /><path clip-path="url(#clip670)" d="M146.691 965.401 L151.575 965.401 L151.575 971.28 L146.691 971.28 L146.691 965.401 Z" fill="#000000" fill-rule="nonzero" fill-opacity="1" /><path clip-path="url(#clip670)" d="M171.76 954.868 Q168.427 954.868 166.505 956.651 Q164.607 958.433 164.607 961.558 Q164.607 964.683 166.505 966.466 Q168.427 968.248 171.76 968.248 Q175.093 968.248 177.014 966.466 Q178.936 964.66 178.936 961.558 Q178.936 958.433 177.014 956.651 Q175.116 954.868 171.76 954.868 M167.084 952.878 Q164.075 952.137 162.385 950.077 Q160.718 948.017 160.718 945.054 Q160.718 940.91 163.658 938.503 Q166.621 936.095 171.76 936.095 Q176.922 936.095 179.862 938.503 Q182.801 940.91 182.801 945.054 Q182.801 948.017 181.112 950.077 Q179.445 952.137 176.459 952.878 Q179.839 953.665 181.713 955.956 Q183.612 958.248 183.612 961.558 Q183.612 966.581 180.533 969.267 Q177.477 971.952 171.76 971.952 Q166.042 971.952 162.964 969.267 Q159.908 966.581 159.908 961.558 Q159.908 958.248 161.806 955.956 Q163.704 953.665 167.084 952.878 M165.371 945.494 Q165.371 948.179 167.038 949.683 Q168.727 951.188 171.76 951.188 Q174.769 951.188 176.459 949.683 Q178.172 948.179 178.172 945.494 Q178.172 942.808 176.459 941.304 Q174.769 939.799 171.76 939.799 Q168.727 939.799 167.038 941.304 Q165.371 942.808 165.371 945.494 Z" fill="#000000" fill-rule="nonzero" fill-opacity="1" /><path clip-path="url(#clip670)" d="M202.5 952.137 Q199.352 952.137 197.5 954.29 Q195.672 956.443 195.672 960.193 Q195.672 963.919 197.5 966.095 Q199.352 968.248 202.5 968.248 Q205.649 968.248 207.477 966.095 Q209.329 963.919 209.329 960.193 Q209.329 956.443 207.477 954.29 Q205.649 952.137 202.5 952.137 M211.783 937.484 L211.783 941.744 Q210.024 940.91 208.218 940.47 Q206.436 940.031 204.676 940.031 Q200.047 940.031 197.593 943.156 Q195.163 946.281 194.815 952.6 Q196.181 950.586 198.241 949.521 Q200.301 948.433 202.778 948.433 Q207.987 948.433 210.996 951.605 Q214.028 954.753 214.028 960.193 Q214.028 965.517 210.88 968.734 Q207.732 971.952 202.5 971.952 Q196.505 971.952 193.334 967.368 Q190.163 962.762 190.163 954.035 Q190.163 945.841 194.051 940.98 Q197.94 936.095 204.491 936.095 Q206.25 936.095 208.033 936.443 Q209.838 936.79 211.783 937.484 Z" fill="#000000" fill-rule="nonzero" fill-opacity="1" /><path clip-path="url(#clip670)" d="M126.783 692.52 Q123.172 692.52 121.343 696.085 Q119.538 699.627 119.538 706.756 Q119.538 713.863 121.343 717.427 Q123.172 720.969 126.783 720.969 Q130.417 720.969 132.223 717.427 Q134.052 713.863 134.052 706.756 Q134.052 699.627 132.223 696.085 Q130.417 692.52 126.783 692.52 M126.783 688.816 Q132.593 688.816 135.649 693.423 Q138.728 698.006 138.728 706.756 Q138.728 715.483 135.649 720.089 Q132.593 724.673 126.783 724.673 Q120.973 724.673 117.894 720.089 Q114.839 715.483 114.839 706.756 Q114.839 698.006 117.894 693.423 Q120.973 688.816 126.783 688.816 Z" fill="#000000" fill-rule="nonzero" fill-opacity="1" /><path clip-path="url(#clip670)" d="M146.945 718.122 L151.829 718.122 L151.829 724.001 L146.945 724.001 L146.945 718.122 Z" fill="#000000" fill-rule="nonzero" fill-opacity="1" /><path clip-path="url(#clip670)" d="M172.014 707.589 Q168.681 707.589 166.76 709.372 Q164.862 711.154 164.862 714.279 Q164.862 717.404 166.76 719.187 Q168.681 720.969 172.014 720.969 Q175.348 720.969 177.269 719.187 Q179.19 717.381 179.19 714.279 Q179.19 711.154 177.269 709.372 Q175.371 707.589 172.014 707.589 M167.339 705.599 Q164.329 704.858 162.64 702.798 Q160.973 700.738 160.973 697.775 Q160.973 693.631 163.913 691.224 Q166.876 688.816 172.014 688.816 Q177.176 688.816 180.116 691.224 Q183.056 693.631 183.056 697.775 Q183.056 700.738 181.366 702.798 Q179.7 704.858 176.714 705.599 Q180.093 706.386 181.968 708.677 Q183.866 710.969 183.866 714.279 Q183.866 719.302 180.788 721.987 Q177.732 724.673 172.014 724.673 Q166.297 724.673 163.218 721.987 Q160.163 719.302 160.163 714.279 Q160.163 710.969 162.061 708.677 Q163.959 706.386 167.339 705.599 M165.626 698.214 Q165.626 700.9 167.292 702.404 Q168.982 703.909 172.014 703.909 Q175.024 703.909 176.714 702.404 Q178.426 700.9 178.426 698.214 Q178.426 695.529 176.714 694.025 Q175.024 692.52 172.014 692.52 Q168.982 692.52 167.292 694.025 Q165.626 695.529 165.626 698.214 Z" fill="#000000" fill-rule="nonzero" fill-opacity="1" /><path clip-path="url(#clip670)" d="M202.176 707.589 Q198.843 707.589 196.922 709.372 Q195.024 711.154 195.024 714.279 Q195.024 717.404 196.922 719.187 Q198.843 720.969 202.176 720.969 Q205.51 720.969 207.431 719.187 Q209.352 717.381 209.352 714.279 Q209.352 711.154 207.431 709.372 Q205.533 707.589 202.176 707.589 M197.5 705.599 Q194.491 704.858 192.801 702.798 Q191.135 700.738 191.135 697.775 Q191.135 693.631 194.075 691.224 Q197.037 688.816 202.176 688.816 Q207.338 688.816 210.278 691.224 Q213.218 693.631 213.218 697.775 Q213.218 700.738 211.528 702.798 Q209.861 704.858 206.875 705.599 Q210.255 706.386 212.13 708.677 Q214.028 710.969 214.028 714.279 Q214.028 719.302 210.949 721.987 Q207.894 724.673 202.176 724.673 Q196.459 724.673 193.38 721.987 Q190.325 719.302 190.325 714.279 Q190.325 710.969 192.223 708.677 Q194.121 706.386 197.5 705.599 M195.787 698.214 Q195.787 700.9 197.454 702.404 Q199.144 703.909 202.176 703.909 Q205.186 703.909 206.875 702.404 Q208.588 700.9 208.588 698.214 Q208.588 695.529 206.875 694.025 Q205.186 692.52 202.176 692.52 Q199.144 692.52 197.454 694.025 Q195.787 695.529 195.787 698.214 Z" fill="#000000" fill-rule="nonzero" fill-opacity="1" /><path clip-path="url(#clip670)" d="M126.691 445.241 Q123.08 445.241 121.251 448.806 Q119.445 452.347 119.445 459.477 Q119.445 466.584 121.251 470.148 Q123.08 473.69 126.691 473.69 Q130.325 473.69 132.13 470.148 Q133.959 466.584 133.959 459.477 Q133.959 452.347 132.13 448.806 Q130.325 445.241 126.691 445.241 M126.691 441.537 Q132.501 441.537 135.556 446.144 Q138.635 450.727 138.635 459.477 Q138.635 468.204 135.556 472.81 Q132.501 477.394 126.691 477.394 Q120.88 477.394 117.802 472.81 Q114.746 468.204 114.746 459.477 Q114.746 450.727 117.802 446.144 Q120.88 441.537 126.691 441.537 Z" fill="#000000" fill-rule="nonzero" fill-opacity="1" /><path clip-path="url(#clip670)" d="M146.853 470.843 L151.737 470.843 L151.737 476.722 L146.853 476.722 L146.853 470.843 Z" fill="#000000" fill-rule="nonzero" fill-opacity="1" /><path clip-path="url(#clip670)" d="M162.061 476.005 L162.061 471.746 Q163.82 472.579 165.626 473.019 Q167.431 473.458 169.167 473.458 Q173.797 473.458 176.227 470.357 Q178.681 467.232 179.028 460.889 Q177.686 462.88 175.626 463.945 Q173.565 465.009 171.065 465.009 Q165.88 465.009 162.848 461.884 Q159.839 458.736 159.839 453.297 Q159.839 447.972 162.987 444.755 Q166.135 441.537 171.366 441.537 Q177.362 441.537 180.51 446.144 Q183.681 450.727 183.681 459.477 Q183.681 467.648 179.792 472.533 Q175.926 477.394 169.376 477.394 Q167.616 477.394 165.811 477.046 Q164.005 476.699 162.061 476.005 M171.366 461.352 Q174.514 461.352 176.343 459.199 Q178.195 457.047 178.195 453.297 Q178.195 449.57 176.343 447.417 Q174.514 445.241 171.366 445.241 Q168.218 445.241 166.366 447.417 Q164.538 449.57 164.538 453.297 Q164.538 457.047 166.366 459.199 Q168.218 461.352 171.366 461.352 Z" fill="#000000" fill-rule="nonzero" fill-opacity="1" /><path clip-path="url(#clip670)" d="M202.084 445.241 Q198.473 445.241 196.644 448.806 Q194.838 452.347 194.838 459.477 Q194.838 466.584 196.644 470.148 Q198.473 473.69 202.084 473.69 Q205.718 473.69 207.524 470.148 Q209.352 466.584 209.352 459.477 Q209.352 452.347 207.524 448.806 Q205.718 445.241 202.084 445.241 M202.084 441.537 Q207.894 441.537 210.949 446.144 Q214.028 450.727 214.028 459.477 Q214.028 468.204 210.949 472.81 Q207.894 477.394 202.084 477.394 Q196.274 477.394 193.195 472.81 Q190.139 468.204 190.139 459.477 Q190.139 450.727 193.195 446.144 Q196.274 441.537 202.084 441.537 Z" fill="#000000" fill-rule="nonzero" fill-opacity="1" /><path clip-path="url(#clip670)" d="M128.288 197.962 Q124.677 197.962 122.848 201.527 Q121.043 205.068 121.043 212.198 Q121.043 219.304 122.848 222.869 Q124.677 226.411 128.288 226.411 Q131.922 226.411 133.728 222.869 Q135.556 219.304 135.556 212.198 Q135.556 205.068 133.728 201.527 Q131.922 197.962 128.288 197.962 M128.288 194.258 Q134.098 194.258 137.154 198.865 Q140.232 203.448 140.232 212.198 Q140.232 220.925 137.154 225.531 Q134.098 230.115 128.288 230.115 Q122.478 230.115 119.399 225.531 Q116.343 220.925 116.343 212.198 Q116.343 203.448 119.399 198.865 Q122.478 194.258 128.288 194.258 Z" fill="#000000" fill-rule="nonzero" fill-opacity="1" /><path clip-path="url(#clip670)" d="M148.45 223.564 L153.334 223.564 L153.334 229.443 L148.45 229.443 L148.45 223.564 Z" fill="#000000" fill-rule="nonzero" fill-opacity="1" /><path clip-path="url(#clip670)" d="M163.658 228.726 L163.658 224.466 Q165.417 225.3 167.223 225.74 Q169.028 226.179 170.764 226.179 Q175.394 226.179 177.825 223.078 Q180.278 219.953 180.626 213.61 Q179.283 215.601 177.223 216.666 Q175.163 217.73 172.663 217.73 Q167.477 217.73 164.445 214.605 Q161.436 211.457 161.436 206.018 Q161.436 200.693 164.584 197.476 Q167.732 194.258 172.964 194.258 Q178.959 194.258 182.107 198.865 Q185.278 203.448 185.278 212.198 Q185.278 220.369 181.389 225.254 Q177.524 230.115 170.973 230.115 Q169.214 230.115 167.408 229.767 Q165.602 229.42 163.658 228.726 M172.964 214.073 Q176.112 214.073 177.94 211.92 Q179.792 209.767 179.792 206.018 Q179.792 202.291 177.94 200.138 Q176.112 197.962 172.964 197.962 Q169.815 197.962 167.964 200.138 Q166.135 202.291 166.135 206.018 Q166.135 209.767 167.964 211.92 Q169.815 214.073 172.964 214.073 Z" fill="#000000" fill-rule="nonzero" fill-opacity="1" /><path clip-path="url(#clip670)" d="M197.709 225.508 L214.028 225.508 L214.028 229.443 L192.084 229.443 L192.084 225.508 Q194.746 222.754 199.329 218.124 Q203.936 213.471 205.116 212.129 Q207.362 209.605 208.241 207.869 Q209.144 206.11 209.144 204.42 Q209.144 201.666 207.199 199.93 Q205.278 198.193 202.176 198.193 Q199.977 198.193 197.524 198.957 Q195.093 199.721 192.315 201.272 L192.315 196.55 Q195.139 195.416 197.593 194.837 Q200.047 194.258 202.084 194.258 Q207.454 194.258 210.649 196.943 Q213.843 199.629 213.843 204.119 Q213.843 206.249 213.033 208.17 Q212.246 210.068 210.139 212.661 Q209.561 213.332 206.459 216.55 Q203.357 219.744 197.709 225.508 Z" fill="#000000" fill-rule="nonzero" fill-opacity="1" /><path clip-path="url(#clip670)" d="M14.479 769.635 L14.479 763.746 L43.7294 763.746 L28.3562 746.272 L28.3562 738.793 L45.0344 757.699 L64.0042 737.997 L64.0042 745.636 L46.5939 763.746 L64.0042 763.746 L64.0042 769.635 L14.479 769.635 Z" fill="#000000" fill-rule="nonzero" fill-opacity="1" /><path clip-path="url(#clip670)" d="M41.4377 717.086 Q41.4377 721.669 43.8885 724.311 Q46.3393 726.921 50.6362 726.921 Q54.933 726.921 57.3838 724.311 Q59.8346 721.669 59.8346 717.086 Q59.8346 712.502 57.3838 709.861 Q54.9012 707.219 50.6362 707.219 Q46.3393 707.219 43.8885 709.861 Q41.4377 712.47 41.4377 717.086 M38.7005 723.515 Q37.682 727.653 34.8492 729.976 Q32.0165 732.268 27.9424 732.268 Q22.2451 732.268 18.935 728.226 Q15.6248 724.152 15.6248 717.086 Q15.6248 709.988 18.935 705.946 Q22.2451 701.903 27.9424 701.903 Q32.0165 701.903 34.8492 704.227 Q37.682 706.519 38.7005 710.624 Q39.7826 705.977 42.9337 703.399 Q46.0847 700.789 50.6362 700.789 Q57.543 700.789 61.2351 705.023 Q64.9272 709.224 64.9272 717.086 Q64.9272 724.947 61.2351 729.18 Q57.543 733.382 50.6362 733.382 Q46.0847 733.382 42.9337 730.772 Q39.7826 728.162 38.7005 723.515 M28.5472 725.87 Q32.2393 725.87 34.3081 723.579 Q36.377 721.255 36.377 717.086 Q36.377 712.948 34.3081 710.624 Q32.2393 708.269 28.5472 708.269 Q24.8551 708.269 22.7862 710.624 Q20.7174 712.948 20.7174 717.086 Q20.7174 721.255 22.7862 723.579 Q24.8551 725.87 28.5472 725.87 Z" fill="#000000" fill-rule="nonzero" fill-opacity="1" /><polyline clip-path="url(#clip671)" style="stroke:#009af9; stroke-linecap:round; stroke-linejoin:round; stroke-width:4; stroke-opacity:1; fill:none" points="309.539,1384.24 312.213,1381.74 316.121,1378.1 321.833,1372.78 329.973,1365.21 341.576,1354.43 358.126,1339.11 381.756,1317.32 415.537,1286.36 463.917,1242.4 518.903,1193.02 574.328,1143.89 630.179,1095.06 686.448,1046.57 743.123,998.479 800.19,950.844 857.636,903.718 915.447,857.159 973.607,811.227 1032.1,765.983 1090.91,721.487 1150.01,677.805 1209.39,634.999 1269.02,593.136 1328.89,552.28 1388.96,512.496 1449.23,473.85 1509.65,436.406 1570.22,400.227 1630.89,365.377 1691.65,331.914 1752.48,299.898 1813.33,269.384 1874.19,240.424 1935.03,213.069 1995.82,187.363 2056.53,163.349 2117.14,141.065 2177.62,120.544 2237.92,101.818 2293.24,86.1857 "/>
<circle clip-path="url(#clip671)" cx="2293.24" cy="86.1857" r="10.8" fill="#cd0000" fill-rule="evenodd" fill-opacity="1" stroke="none"/>
<circle clip-path="url(#clip671)" cx="2293.24" cy="86.1857" r="10.8" fill="#cd0000" fill-rule="evenodd" fill-opacity="1" stroke="none"/>
<path clip-path="url(#clip670)" d="M320.119 196.789 L579.859 196.789 L579.859 93.1086 L320.119 93.1086  Z" fill="#ffffff" fill-rule="evenodd" fill-opacity="1"/>
<polyline clip-path="url(#clip670)" style="stroke:#000000; stroke-linecap:round; stroke-linejoin:round; stroke-width:4; stroke-opacity:1; fill:none" points="320.119,196.789 579.859,196.789 579.859,93.1086 320.119,93.1086 320.119,196.789 "/>
<circle clip-path="url(#clip670)" cx="413.574" cy="144.949" r="23.04" fill="#cd0000" fill-rule="evenodd" fill-opacity="1" stroke="none"/>
<path clip-path="url(#clip670)" d="M527.537 137.298 L527.537 141.28 Q525.732 140.284 523.903 139.798 Q522.098 139.289 520.246 139.289 Q516.102 139.289 513.811 141.928 Q511.519 144.544 511.519 149.289 Q511.519 154.034 513.811 156.673 Q516.102 159.289 520.246 159.289 Q522.098 159.289 523.903 158.803 Q525.732 158.293 527.537 157.298 L527.537 161.233 Q525.755 162.067 523.834 162.483 Q521.936 162.9 519.783 162.9 Q513.926 162.9 510.477 159.219 Q507.028 155.539 507.028 149.289 Q507.028 142.946 510.5 139.312 Q513.996 135.678 520.061 135.678 Q522.028 135.678 523.903 136.095 Q525.778 136.488 527.537 137.298 Z" fill="#000000" fill-rule="nonzero" fill-opacity="1" /><path clip-path="url(#clip670)" d="M556.496 146.581 L556.496 162.229 L552.236 162.229 L552.236 146.719 Q552.236 143.039 550.801 141.21 Q549.366 139.382 546.496 139.382 Q543.047 139.382 541.056 141.581 Q539.065 143.78 539.065 147.576 L539.065 162.229 L534.783 162.229 L534.783 126.21 L539.065 126.21 L539.065 140.331 Q540.593 137.993 542.653 136.835 Q544.736 135.678 547.445 135.678 Q551.912 135.678 554.204 138.456 Q556.496 141.21 556.496 146.581 Z" fill="#000000" fill-rule="nonzero" fill-opacity="1" /></svg>
