<?xml version="1.0" encoding="utf-8"?>
<svg xmlns="http://www.w3.org/2000/svg" xmlns:xlink="http://www.w3.org/1999/xlink" width="600" height="400" viewBox="0 0 2400 1600">
<defs>
  <clipPath id="clip240">
    <rect x="0" y="0" width="2400" height="1600"/>
  </clipPath>
</defs>
<path clip-path="url(#clip240)" d="M0 1600 L2400 1600 L2400 0 L0 0  Z" fill="#ffffff" fill-rule="evenodd" fill-opacity="1"/>
<defs>
  <clipPath id="clip241">
    <rect x="272" y="47" width="2081" height="1377"/>
  </clipPath>
</defs>
<path clip-path="url(#clip240)" d="M272.297 1423.18 L2352.76 1423.18 L2352.76 47.2441 L272.297 47.2441  Z" fill="#ffffff" fill-rule="evenodd" fill-opacity="1"/>
<polyline clip-path="url(#clip241)" style="stroke:#000000; stroke-linecap:round; stroke-linejoin:round; stroke-width:2; stroke-opacity:0.1; fill:none" points="509.605,1423.18 509.605,47.2441 "/>
<polyline clip-path="url(#clip241)" style="stroke:#000000; stroke-linecap:round; stroke-linejoin:round; stroke-width:2; stroke-opacity:0.1; fill:none" points="866.459,1423.18 866.459,47.2441 "/>
<polyline clip-path="url(#clip241)" style="stroke:#000000; stroke-linecap:round; stroke-linejoin:round; stroke-width:2; stroke-opacity:0.1; fill:none" points="1223.31,1423.18 1223.31,47.2441 "/>
<polyline clip-path="url(#clip241)" style="stroke:#000000; stroke-linecap:round; stroke-linejoin:round; stroke-width:2; stroke-opacity:0.1; fill:none" points="1580.17,1423.18 1580.17,47.2441 "/>
<polyline clip-path="url(#clip241)" style="stroke:#000000; stroke-linecap:round; stroke-linejoin:round; stroke-width:2; stroke-opacity:0.1; fill:none" points="1937.02,1423.18 1937.02,47.2441 "/>
<polyline clip-path="url(#clip241)" style="stroke:#000000; stroke-linecap:round; stroke-linejoin:round; stroke-width:2; stroke-opacity:0.1; fill:none" points="2293.87,1423.18 2293.87,47.2441 "/>
<polyline clip-path="url(#clip241)" style="stroke:#000000; stroke-linecap:round; stroke-linejoin:round; stroke-width:2; stroke-opacity:0.1; fill:none" points="272.297,1130.25 2352.76,1130.25 "/>
<polyline clip-path="url(#clip241)" style="stroke:#000000; stroke-linecap:round; stroke-linejoin:round; stroke-width:2; stroke-opacity:0.1; fill:none" points="272.297,780.59 2352.76,780.59 "/>
<polyline clip-path="url(#clip241)" style="stroke:#000000; stroke-linecap:round; stroke-linejoin:round; stroke-width:2; stroke-opacity:0.1; fill:none" points="272.297,430.931 2352.76,430.931 "/>
<polyline clip-path="url(#clip241)" style="stroke:#000000; stroke-linecap:round; stroke-linejoin:round; stroke-width:2; stroke-opacity:0.1; fill:none" points="272.297,81.2712 2352.76,81.2712 "/>
<polyline clip-path="url(#clip240)" style="stroke:#000000; stroke-linecap:round; stroke-linejoin:round; stroke-width:4; stroke-opacity:1; fill:none" points="272.297,1423.18 2352.76,1423.18 "/>
<polyline clip-path="url(#clip240)" style="stroke:#000000; stroke-linecap:round; stroke-linejoin:round; stroke-width:4; stroke-opacity:1; fill:none" points="509.605,1423.18 509.605,1404.28 "/>
<polyline clip-path="url(#clip240)" style="stroke:#000000; stroke-linecap:round; stroke-linejoin:round; stroke-width:4; stroke-opacity:1; fill:none" points="866.459,1423.18 866.459,1404.28 "/>
<polyline clip-path="url(#clip240)" style="stroke:#000000; stroke-linecap:round; stroke-linejoin:round; stroke-width:4; stroke-opacity:1; fill:none" points="1223.31,1423.18 1223.31,1404.28 "/>
<polyline clip-path="url(#clip240)" style="stroke:#000000; stroke-linecap:round; stroke-linejoin:round; stroke-width:4; stroke-opacity:1; fill:none" points="1580.17,1423.18 1580.17,1404.28 "/>
<polyline clip-path="url(#clip240)" style="stroke:#000000; stroke-linecap:round; stroke-linejoin:round; stroke-width:4; stroke-opacity:1; fill:none" points="1937.02,1423.18 1937.02,1404.28 "/>
<polyline clip-path="url(#clip240)" style="stroke:#000000; stroke-linecap:round; stroke-linejoin:round; stroke-width:4; stroke-opacity:1; fill:none" points="2293.87,1423.18 2293.87,1404.28 "/>
<path clip-path="url(#clip240)" d="M487.602 1454.1 Q483.991 1454.1 482.163 1457.66 Q480.357 1461.2 480.357 1468.33 Q480.357 1475.44 482.163 1479.01 Q483.991 1482.55 487.602 1482.55 Q491.237 1482.55 493.042 1479.01 Q494.871 1475.44 494.871 1468.33 Q494.871 1461.2 493.042 1457.66 Q491.237 1454.1 487.602 1454.1 M487.602 1450.39 Q493.412 1450.39 496.468 1455 Q499.547 1459.58 499.547 1468.33 Q499.547 1477.06 496.468 1481.67 Q493.412 1486.25 487.602 1486.25 Q481.792 1486.25 478.713 1481.67 Q475.658 1477.06 475.658 1468.33 Q475.658 1459.58 478.713 1455 Q481.792 1450.39 487.602 1450.39 Z" fill="#000000" fill-rule="nonzero" fill-opacity="1" /><path clip-path="url(#clip240)" d="M507.764 1479.7 L512.648 1479.7 L512.648 1485.58 L507.764 1485.58 L507.764 1479.7 Z" fill="#000000" fill-rule="nonzero" fill-opacity="1" /><path clip-path="url(#clip240)" d="M523.644 1481.64 L531.283 1481.64 L531.283 1455.28 L522.972 1456.95 L522.972 1452.69 L531.236 1451.02 L535.912 1451.02 L535.912 1481.64 L543.551 1481.64 L543.551 1485.58 L523.644 1485.58 L523.644 1481.64 Z" fill="#000000" fill-rule="nonzero" fill-opacity="1" /><path clip-path="url(#clip240)" d="M844.642 1454.1 Q841.031 1454.1 839.202 1457.66 Q837.396 1461.2 837.396 1468.33 Q837.396 1475.44 839.202 1479.01 Q841.031 1482.55 844.642 1482.55 Q848.276 1482.55 850.081 1479.01 Q851.91 1475.44 851.91 1468.33 Q851.91 1461.2 850.081 1457.66 Q848.276 1454.1 844.642 1454.1 M844.642 1450.39 Q850.452 1450.39 853.507 1455 Q856.586 1459.58 856.586 1468.33 Q856.586 1477.06 853.507 1481.67 Q850.452 1486.25 844.642 1486.25 Q838.831 1486.25 835.753 1481.67 Q832.697 1477.06 832.697 1468.33 Q832.697 1459.58 835.753 1455 Q838.831 1450.39 844.642 1450.39 Z" fill="#000000" fill-rule="nonzero" fill-opacity="1" /><path clip-path="url(#clip240)" d="M864.804 1479.7 L869.688 1479.7 L869.688 1485.58 L864.804 1485.58 L864.804 1479.7 Z" fill="#000000" fill-rule="nonzero" fill-opacity="1" /><path clip-path="url(#clip240)" d="M883.901 1481.64 L900.22 1481.64 L900.22 1485.58 L878.276 1485.58 L878.276 1481.64 Q880.938 1478.89 885.521 1474.26 Q890.127 1469.61 891.308 1468.27 Q893.553 1465.74 894.433 1464.01 Q895.336 1462.25 895.336 1460.56 Q895.336 1457.8 893.391 1456.07 Q891.47 1454.33 888.368 1454.33 Q886.169 1454.33 883.715 1455.09 Q881.285 1455.86 878.507 1457.41 L878.507 1452.69 Q881.331 1451.55 883.785 1450.97 Q886.239 1450.39 888.276 1450.39 Q893.646 1450.39 896.84 1453.08 Q900.035 1455.77 900.035 1460.26 Q900.035 1462.39 899.225 1464.31 Q898.438 1466.2 896.331 1468.8 Q895.752 1469.47 892.651 1472.69 Q889.549 1475.88 883.901 1481.64 Z" fill="#000000" fill-rule="nonzero" fill-opacity="1" /><path clip-path="url(#clip240)" d="M1201.02 1454.1 Q1197.41 1454.1 1195.58 1457.66 Q1193.78 1461.2 1193.78 1468.33 Q1193.78 1475.44 1195.58 1479.01 Q1197.41 1482.55 1201.02 1482.55 Q1204.66 1482.55 1206.46 1479.01 Q1208.29 1475.44 1208.29 1468.33 Q1208.29 1461.2 1206.46 1457.66 Q1204.66 1454.1 1201.02 1454.1 M1201.02 1450.39 Q1206.83 1450.39 1209.89 1455 Q1212.97 1459.58 1212.97 1468.33 Q1212.97 1477.06 1209.89 1481.67 Q1206.83 1486.25 1201.02 1486.25 Q1195.21 1486.25 1192.13 1481.67 Q1189.08 1477.06 1189.08 1468.33 Q1189.08 1459.58 1192.13 1455 Q1195.21 1450.39 1201.02 1450.39 Z" fill="#000000" fill-rule="nonzero" fill-opacity="1" /><path clip-path="url(#clip240)" d="M1221.18 1479.7 L1226.07 1479.7 L1226.07 1485.58 L1221.18 1485.58 L1221.18 1479.7 Z" fill="#000000" fill-rule="nonzero" fill-opacity="1" /><path clip-path="url(#clip240)" d="M1250.42 1466.95 Q1253.78 1467.66 1255.65 1469.93 Q1257.55 1472.2 1257.55 1475.53 Q1257.55 1480.65 1254.03 1483.45 Q1250.51 1486.25 1244.03 1486.25 Q1241.85 1486.25 1239.54 1485.81 Q1237.25 1485.39 1234.79 1484.54 L1234.79 1480.02 Q1236.74 1481.16 1239.05 1481.74 Q1241.37 1482.32 1243.89 1482.32 Q1248.29 1482.32 1250.58 1480.58 Q1252.9 1478.84 1252.9 1475.53 Q1252.9 1472.48 1250.74 1470.77 Q1248.61 1469.03 1244.79 1469.03 L1240.77 1469.03 L1240.77 1465.19 L1244.98 1465.19 Q1248.43 1465.19 1250.26 1463.82 Q1252.09 1462.43 1252.09 1459.84 Q1252.09 1457.18 1250.19 1455.77 Q1248.31 1454.33 1244.79 1454.33 Q1242.87 1454.33 1240.67 1454.75 Q1238.47 1455.16 1235.84 1456.04 L1235.84 1451.88 Q1238.5 1451.14 1240.81 1450.77 Q1243.15 1450.39 1245.21 1450.39 Q1250.53 1450.39 1253.64 1452.83 Q1256.74 1455.23 1256.74 1459.35 Q1256.74 1462.22 1255.09 1464.21 Q1253.45 1466.18 1250.42 1466.95 Z" fill="#000000" fill-rule="nonzero" fill-opacity="1" /><path clip-path="url(#clip240)" d="M1557.31 1454.1 Q1553.7 1454.1 1551.87 1457.66 Q1550.06 1461.2 1550.06 1468.33 Q1550.06 1475.44 1551.87 1479.01 Q1553.7 1482.55 1557.31 1482.55 Q1560.94 1482.55 1562.75 1479.01 Q1564.58 1475.44 1564.58 1468.33 Q1564.58 1461.2 1562.75 1457.66 Q1560.94 1454.1 1557.31 1454.1 M1557.31 1450.39 Q1563.12 1450.39 1566.17 1455 Q1569.25 1459.58 1569.25 1468.33 Q1569.25 1477.06 1566.17 1481.67 Q1563.12 1486.25 1557.31 1486.25 Q1551.5 1486.25 1548.42 1481.67 Q1545.36 1477.06 1545.36 1468.33 Q1545.36 1459.58 1548.42 1455 Q1551.5 1450.39 1557.31 1450.39 Z" fill="#000000" fill-rule="nonzero" fill-opacity="1" /><path clip-path="url(#clip240)" d="M1577.47 1479.7 L1582.35 1479.7 L1582.35 1485.58 L1577.47 1485.58 L1577.47 1479.7 Z" fill="#000000" fill-rule="nonzero" fill-opacity="1" /><path clip-path="url(#clip240)" d="M1605.39 1455.09 L1593.58 1473.54 L1605.39 1473.54 L1605.39 1455.09 M1604.16 1451.02 L1610.04 1451.02 L1610.04 1473.54 L1614.97 1473.54 L1614.97 1477.43 L1610.04 1477.43 L1610.04 1485.58 L1605.39 1485.58 L1605.39 1477.43 L1589.78 1477.43 L1589.78 1472.92 L1604.16 1451.02 Z" fill="#000000" fill-rule="nonzero" fill-opacity="1" /><path clip-path="url(#clip240)" d="M1914.9 1454.1 Q1911.29 1454.1 1909.46 1457.66 Q1907.66 1461.2 1907.66 1468.33 Q1907.66 1475.44 1909.46 1479.01 Q1911.29 1482.55 1914.9 1482.55 Q1918.54 1482.55 1920.34 1479.01 Q1922.17 1475.44 1922.17 1468.33 Q1922.17 1461.2 1920.34 1457.66 Q1918.54 1454.1 1914.9 1454.1 M1914.9 1450.39 Q1920.71 1450.39 1923.77 1455 Q1926.85 1459.58 1926.85 1468.33 Q1926.85 1477.06 1923.77 1481.67 Q1920.71 1486.25 1914.9 1486.25 Q1909.09 1486.25 1906.01 1481.67 Q1902.96 1477.06 1902.96 1468.33 Q1902.96 1459.58 1906.01 1455 Q1909.09 1450.39 1914.9 1450.39 Z" fill="#000000" fill-rule="nonzero" fill-opacity="1" /><path clip-path="url(#clip240)" d="M1935.06 1479.7 L1939.95 1479.7 L1939.95 1485.58 L1935.06 1485.58 L1935.06 1479.7 Z" fill="#000000" fill-rule="nonzero" fill-opacity="1" /><path clip-path="url(#clip240)" d="M1950.18 1451.02 L1968.54 1451.02 L1968.54 1454.96 L1954.46 1454.96 L1954.46 1463.43 Q1955.48 1463.08 1956.5 1462.92 Q1957.52 1462.73 1958.54 1462.73 Q1964.32 1462.73 1967.7 1465.9 Q1971.08 1469.08 1971.08 1474.49 Q1971.08 1480.07 1967.61 1483.17 Q1964.14 1486.25 1957.82 1486.25 Q1955.64 1486.25 1953.37 1485.88 Q1951.13 1485.51 1948.72 1484.77 L1948.72 1480.07 Q1950.81 1481.2 1953.03 1481.76 Q1955.25 1482.32 1957.73 1482.32 Q1961.73 1482.32 1964.07 1480.21 Q1966.41 1478.1 1966.41 1474.49 Q1966.41 1470.88 1964.07 1468.77 Q1961.73 1466.67 1957.73 1466.67 Q1955.85 1466.67 1953.98 1467.08 Q1952.12 1467.5 1950.18 1468.38 L1950.18 1451.02 Z" fill="#000000" fill-rule="nonzero" fill-opacity="1" /><path clip-path="url(#clip240)" d="M2271.18 1454.1 Q2267.57 1454.1 2265.74 1457.66 Q2263.93 1461.2 2263.93 1468.33 Q2263.93 1475.44 2265.74 1479.01 Q2267.57 1482.55 2271.18 1482.55 Q2274.81 1482.55 2276.62 1479.01 Q2278.45 1475.44 2278.45 1468.33 Q2278.45 1461.2 2276.62 1457.66 Q2274.81 1454.1 2271.18 1454.1 M2271.18 1450.39 Q2276.99 1450.39 2280.04 1455 Q2283.12 1459.58 2283.12 1468.33 Q2283.12 1477.06 2280.04 1481.67 Q2276.99 1486.25 2271.18 1486.25 Q2265.37 1486.25 2262.29 1481.67 Q2259.23 1477.06 2259.23 1468.33 Q2259.23 1459.58 2262.29 1455 Q2265.37 1450.39 2271.18 1450.39 Z" fill="#000000" fill-rule="nonzero" fill-opacity="1" /><path clip-path="url(#clip240)" d="M2291.34 1479.7 L2296.22 1479.7 L2296.22 1485.58 L2291.34 1485.58 L2291.34 1479.7 Z" fill="#000000" fill-rule="nonzero" fill-opacity="1" /><path clip-path="url(#clip240)" d="M2316.99 1466.44 Q2313.84 1466.44 2311.99 1468.59 Q2310.16 1470.74 2310.16 1474.49 Q2310.16 1478.22 2311.99 1480.39 Q2313.84 1482.55 2316.99 1482.55 Q2320.14 1482.55 2321.97 1480.39 Q2323.82 1478.22 2323.82 1474.49 Q2323.82 1470.74 2321.97 1468.59 Q2320.14 1466.44 2316.99 1466.44 M2326.27 1451.78 L2326.27 1456.04 Q2324.51 1455.21 2322.71 1454.77 Q2320.92 1454.33 2319.16 1454.33 Q2314.53 1454.33 2312.08 1457.45 Q2309.65 1460.58 2309.3 1466.9 Q2310.67 1464.89 2312.73 1463.82 Q2314.79 1462.73 2317.27 1462.73 Q2322.47 1462.73 2325.48 1465.9 Q2328.52 1469.05 2328.52 1474.49 Q2328.52 1479.82 2325.37 1483.03 Q2322.22 1486.25 2316.99 1486.25 Q2310.99 1486.25 2307.82 1481.67 Q2304.65 1477.06 2304.65 1468.33 Q2304.65 1460.14 2308.54 1455.28 Q2312.43 1450.39 2318.98 1450.39 Q2320.74 1450.39 2322.52 1450.74 Q2324.33 1451.09 2326.27 1451.78 Z" fill="#000000" fill-rule="nonzero" fill-opacity="1" /><path clip-path="url(#clip240)" d="M1326.39 1538.06 Q1325.21 1537.65 1324.03 1537.33 Q1320.88 1536.5 1317.51 1536.5 Q1311.68 1536.5 1308.44 1539.65 Q1305.41 1542.58 1304.84 1547.96 L1326.39 1547.96 L1326.39 1552.54 L1304.84 1552.54 Q1305.41 1557.92 1308.44 1560.85 Q1311.68 1564 1317.51 1564 Q1321.58 1564 1324.03 1563.17 L1326.39 1562.38 L1326.39 1567.69 L1323.87 1568.27 Q1320.56 1568.97 1317.16 1568.97 Q1308.63 1568.97 1303.66 1564 Q1298.66 1559.04 1298.66 1550.25 Q1298.66 1541.47 1303.66 1536.5 Q1308.63 1531.54 1317.16 1531.54 Q1320.37 1531.54 1323.87 1532.24 Q1325.15 1532.49 1326.39 1532.87 L1326.39 1538.06 Z" fill="#000000" fill-rule="nonzero" fill-opacity="1" /><polyline clip-path="url(#clip240)" style="stroke:#000000; stroke-linecap:round; stroke-linejoin:round; stroke-width:4; stroke-opacity:1; fill:none" points="272.297,1423.18 272.297,47.2441 "/>
<polyline clip-path="url(#clip240)" style="stroke:#000000; stroke-linecap:round; stroke-linejoin:round; stroke-width:4; stroke-opacity:1; fill:none" points="272.297,1130.25 291.194,1130.25 "/>
<polyline clip-path="url(#clip240)" style="stroke:#000000; stroke-linecap:round; stroke-linejoin:round; stroke-width:4; stroke-opacity:1; fill:none" points="272.297,780.59 291.194,780.59 "/>
<polyline clip-path="url(#clip240)" style="stroke:#000000; stroke-linecap:round; stroke-linejoin:round; stroke-width:4; stroke-opacity:1; fill:none" points="272.297,430.931 291.194,430.931 "/>
<polyline clip-path="url(#clip240)" style="stroke:#000000; stroke-linecap:round; stroke-linejoin:round; stroke-width:4; stroke-opacity:1; fill:none" points="272.297,81.2712 291.194,81.2712 "/>
<path clip-path="url(#clip240)" d="M114.26 1130.7 L143.936 1130.7 L143.936 1134.64 L114.26 1134.64 L114.26 1130.7 Z" fill="#000000" fill-rule="nonzero" fill-opacity="1" /><path clip-path="url(#clip240)" d="M154.839 1143.59 L162.477 1143.59 L162.477 1117.23 L154.167 1118.9 L154.167 1114.64 L162.431 1112.97 L167.107 1112.97 L167.107 1143.59 L174.746 1143.59 L174.746 1147.53 L154.839 1147.53 L154.839 1143.59 Z" fill="#000000" fill-rule="nonzero" fill-opacity="1" /><path clip-path="url(#clip240)" d="M194.19 1116.05 Q190.579 1116.05 188.75 1119.61 Q186.945 1123.15 186.945 1130.28 Q186.945 1137.39 188.75 1140.96 Q190.579 1144.5 194.19 1144.5 Q197.825 1144.5 199.63 1140.96 Q201.459 1137.39 201.459 1130.28 Q201.459 1123.15 199.63 1119.61 Q197.825 1116.05 194.19 1116.05 M194.19 1112.34 Q200 1112.34 203.056 1116.95 Q206.135 1121.53 206.135 1130.28 Q206.135 1139.01 203.056 1143.62 Q200 1148.2 194.19 1148.2 Q188.38 1148.2 185.301 1143.62 Q182.246 1139.01 182.246 1130.28 Q182.246 1121.53 185.301 1116.95 Q188.38 1112.34 194.19 1112.34 Z" fill="#000000" fill-rule="nonzero" fill-opacity="1" /><path clip-path="url(#clip240)" d="M224.352 1116.05 Q220.741 1116.05 218.912 1119.61 Q217.107 1123.15 217.107 1130.28 Q217.107 1137.39 218.912 1140.96 Q220.741 1144.5 224.352 1144.5 Q227.986 1144.5 229.792 1140.96 Q231.621 1137.39 231.621 1130.28 Q231.621 1123.15 229.792 1119.61 Q227.986 1116.05 224.352 1116.05 M224.352 1112.34 Q230.162 1112.34 233.218 1116.95 Q236.297 1121.53 236.297 1130.28 Q236.297 1139.01 233.218 1143.62 Q230.162 1148.2 224.352 1148.2 Q218.542 1148.2 215.463 1143.62 Q212.408 1139.01 212.408 1130.28 Q212.408 1121.53 215.463 1116.95 Q218.542 1112.34 224.352 1112.34 Z" fill="#000000" fill-rule="nonzero" fill-opacity="1" /><path clip-path="url(#clip240)" d="M224.352 766.389 Q220.741 766.389 218.912 769.954 Q217.107 773.495 217.107 780.625 Q217.107 787.731 218.912 791.296 Q220.741 794.838 224.352 794.838 Q227.986 794.838 229.792 791.296 Q231.621 787.731 231.621 780.625 Q231.621 773.495 229.792 769.954 Q227.986 766.389 224.352 766.389 M224.352 762.685 Q230.162 762.685 233.218 767.292 Q236.297 771.875 236.297 780.625 Q236.297 789.352 233.218 793.958 Q230.162 798.541 224.352 798.541 Q218.542 798.541 215.463 793.958 Q212.408 789.352 212.408 780.625 Q212.408 771.875 215.463 767.292 Q218.542 762.685 224.352 762.685 Z" fill="#000000" fill-rule="nonzero" fill-opacity="1" /><path clip-path="url(#clip240)" d="M154.839 444.276 L162.477 444.276 L162.477 417.91 L154.167 419.577 L154.167 415.317 L162.431 413.651 L167.107 413.651 L167.107 444.276 L174.746 444.276 L174.746 448.211 L154.839 448.211 L154.839 444.276 Z" fill="#000000" fill-rule="nonzero" fill-opacity="1" /><path clip-path="url(#clip240)" d="M194.19 416.729 Q190.579 416.729 188.75 420.294 Q186.945 423.836 186.945 430.965 Q186.945 438.072 188.75 441.637 Q190.579 445.178 194.19 445.178 Q197.825 445.178 199.63 441.637 Q201.459 438.072 201.459 430.965 Q201.459 423.836 199.63 420.294 Q197.825 416.729 194.19 416.729 M194.19 413.026 Q200 413.026 203.056 417.632 Q206.135 422.215 206.135 430.965 Q206.135 439.692 203.056 444.299 Q200 448.882 194.19 448.882 Q188.38 448.882 185.301 444.299 Q182.246 439.692 182.246 430.965 Q182.246 422.215 185.301 417.632 Q188.38 413.026 194.19 413.026 Z" fill="#000000" fill-rule="nonzero" fill-opacity="1" /><path clip-path="url(#clip240)" d="M224.352 416.729 Q220.741 416.729 218.912 420.294 Q217.107 423.836 217.107 430.965 Q217.107 438.072 218.912 441.637 Q220.741 445.178 224.352 445.178 Q227.986 445.178 229.792 441.637 Q231.621 438.072 231.621 430.965 Q231.621 423.836 229.792 420.294 Q227.986 416.729 224.352 416.729 M224.352 413.026 Q230.162 413.026 233.218 417.632 Q236.297 422.215 236.297 430.965 Q236.297 439.692 233.218 444.299 Q230.162 448.882 224.352 448.882 Q218.542 448.882 215.463 444.299 Q212.408 439.692 212.408 430.965 Q212.408 422.215 215.463 417.632 Q218.542 413.026 224.352 413.026 Z" fill="#000000" fill-rule="nonzero" fill-opacity="1" /><path clip-path="url(#clip240)" d="M158.056 94.616 L174.376 94.616 L174.376 98.5512 L152.431 98.5512 L152.431 94.616 Q155.093 91.8614 159.677 87.2318 Q164.283 82.5791 165.464 81.2365 Q167.709 78.7134 168.589 76.9772 Q169.491 75.218 169.491 73.5282 Q169.491 70.7736 167.547 69.0375 Q165.626 67.3014 162.524 67.3014 Q160.325 67.3014 157.871 68.0653 Q155.44 68.8291 152.663 70.3801 L152.663 65.6579 Q155.487 64.5236 157.94 63.9449 Q160.394 63.3662 162.431 63.3662 Q167.802 63.3662 170.996 66.0514 Q174.19 68.7366 174.19 73.2273 Q174.19 75.3569 173.38 77.2782 Q172.593 79.1763 170.487 81.7689 Q169.908 82.4402 166.806 85.6578 Q163.704 88.8522 158.056 94.616 Z" fill="#000000" fill-rule="nonzero" fill-opacity="1" /><path clip-path="url(#clip240)" d="M194.19 67.0699 Q190.579 67.0699 188.75 70.6347 Q186.945 74.1763 186.945 81.3059 Q186.945 88.4124 188.75 91.9772 Q190.579 95.5188 194.19 95.5188 Q197.825 95.5188 199.63 91.9772 Q201.459 88.4124 201.459 81.3059 Q201.459 74.1763 199.63 70.6347 Q197.825 67.0699 194.19 67.0699 M194.19 63.3662 Q200 63.3662 203.056 67.9727 Q206.135 72.556 206.135 81.3059 Q206.135 90.0327 203.056 94.6392 Q200 99.2225 194.19 99.2225 Q188.38 99.2225 185.301 94.6392 Q182.246 90.0327 182.246 81.3059 Q182.246 72.556 185.301 67.9727 Q188.38 63.3662 194.19 63.3662 Z" fill="#000000" fill-rule="nonzero" fill-opacity="1" /><path clip-path="url(#clip240)" d="M224.352 67.0699 Q220.741 67.0699 218.912 70.6347 Q217.107 74.1763 217.107 81.3059 Q217.107 88.4124 218.912 91.9772 Q220.741 95.5188 224.352 95.5188 Q227.986 95.5188 229.792 91.9772 Q231.621 88.4124 231.621 81.3059 Q231.621 74.1763 229.792 70.6347 Q227.986 67.0699 224.352 67.0699 M224.352 63.3662 Q230.162 63.3662 233.218 67.9727 Q236.297 72.556 236.297 81.3059 Q236.297 90.0327 233.218 94.6392 Q230.162 99.2225 224.352 99.2225 Q218.542 99.2225 215.463 94.6392 Q212.408 90.0327 212.408 81.3059 Q212.408 72.556 215.463 67.9727 Q218.542 63.3662 224.352 63.3662 Z" fill="#000000" fill-rule="nonzero" fill-opacity="1" /><path clip-path="url(#clip240)" d="M28.3562 718.597 L45.7028 731.488 L64.0042 717.929 L64.0042 724.836 L49.9996 735.212 L64.0042 745.588 L64.0042 752.495 L45.3526 738.649 L28.3562 751.317 L28.3562 744.41 L41.0558 734.957 L28.3562 725.504 L28.3562 718.597 Z" fill="#000000" fill-rule="nonzero" fill-opacity="1" /><polyline clip-path="url(#clip241)" style="stroke:#009af9; stroke-linecap:round; stroke-linejoin:round; stroke-width:4; stroke-opacity:1; fill:none" points="2293.87,779.845 2290.31,779.858 2286.74,779.87 2283.17,779.883 2279.6,779.895 2276.03,779.908 2272.46,779.92 2268.9,779.932 2265.33,779.945 2261.76,779.957 2258.19,779.969 2254.62,779.982 2251.05,779.994 2247.48,780.006 2243.92,780.018 2240.35,780.03 2236.78,780.043 2233.21,780.055 2229.64,780.067 2226.07,780.079 2222.5,780.091 2218.94,780.103 2215.37,780.115 2211.8,780.127 2208.23,780.139 2204.66,780.151 2201.09,780.162 2197.52,780.174 2193.96,780.186 2190.39,780.198 2186.82,780.21 2183.25,780.222 2179.68,780.233 2176.11,780.245 2172.54,780.257 2168.98,780.269 2165.41,780.28 2161.84,780.292 2158.27,780.304 2154.7,780.315 2151.13,780.327 2147.56,780.339 2144,780.35 2140.43,780.362 2136.86,780.374 2133.29,780.385 2129.72,780.397 2126.15,780.408 2122.59,780.42 2119.02,780.432 2115.45,780.443 2111.88,780.455 2108.31,780.466 2104.74,780.478 2101.17,780.489 2097.61,780.501 2094.04,780.513 2090.47,780.524 2086.9,780.536 2083.33,780.547 2079.76,780.559 2076.19,780.57 2072.63,780.582 2069.06,780.594 2065.49,780.605 2061.92,780.617 2058.35,780.628 2054.78,780.64 2051.21,780.651 2047.65,780.663 2044.08,780.675 2040.51,780.686 2036.94,780.698 2033.37,780.71 2029.8,780.721 2026.23,780.733 2022.67,780.745 2019.1,780.756 2015.53,780.768 2011.96,780.78 2008.39,780.792 2004.82,780.803 2001.25,780.815 1997.69,780.827 1994.12,780.839 1990.55,780.851 1986.98,780.863 1983.41,780.875 1979.84,780.887 1976.27,780.899 1972.71,780.911 1969.14,780.923 1965.57,780.935 1962,780.947 1958.43,780.959 1954.86,780.971 1951.3,780.983 1947.73,780.995 1944.16,781.008 1940.59,781.02 1937.02,781.032 1933.45,781.045 1929.88,781.057 1926.32,781.069 1922.75,781.082 1919.18,781.094 1915.61,781.107 1912.04,781.12 1908.47,781.132 1904.9,781.145 1901.34,781.158 1897.77,781.171 1894.2,781.184 1890.63,781.197 1887.06,781.21 1883.49,781.223 1879.92,781.236 1876.36,781.249 1872.79,781.262 1869.22,781.275 1865.65,781.289 1862.08,781.302 1858.51,781.316 1854.94,781.329 1851.38,781.343 1847.81,781.357 1844.24,781.371 1840.67,781.384 1837.1,781.398 1833.53,781.413 1829.96,781.427 1826.4,781.441 1822.83,781.455 1819.26,781.47 1815.69,781.484 1812.12,781.499 1808.55,781.514 1804.98,781.528 1801.42,781.543 1797.85,781.558 1794.28,781.573 1790.71,781.589 1787.14,781.604 1783.57,781.62 1780.01,781.635 1776.44,781.651 1772.87,781.667 1769.3,781.683 1765.73,781.699 1762.16,781.715 1758.59,781.732 1755.03,781.748 1751.46,781.765 1747.89,781.782 1744.32,781.799 1740.75,781.816 1737.18,781.833 1733.61,781.851 1730.05,781.869 1726.48,781.887 1722.91,781.905 1719.34,781.923 1715.77,781.941 1712.2,781.96 1708.63,781.979 1705.07,781.998 1701.5,782.017 1697.93,782.037 1694.36,782.056 1690.79,782.076 1687.22,782.096 1683.65,782.117 1680.09,782.138 1676.52,782.159 1672.95,782.18 1669.38,782.201 1665.81,782.223 1662.24,782.245 1658.67,782.267 1655.11,782.29 1651.54,782.313 1647.97,782.336 1644.4,782.36 1640.83,782.384 1637.26,782.408 1633.69,782.433 1630.13,782.458 1626.56,782.483 1622.99,782.509 1619.42,782.536 1615.85,782.562 1612.28,782.589 1608.72,782.617 1605.15,782.645 1601.58,782.673 1598.01,782.702 1594.44,782.732 1590.87,782.761 1587.3,782.792 1583.74,782.823 1580.17,782.854 1576.6,782.887 1573.03,782.919 1569.46,782.953 1565.89,782.987 1562.32,783.021 1558.76,783.056 1555.19,783.092 1551.62,783.129 1548.05,783.166 1544.48,783.205 1540.91,783.243 1537.34,783.283 1533.78,783.324 1530.21,783.365 1526.64,783.407 1523.07,783.45 1519.5,783.494 1515.93,783.54 1512.36,783.586 1508.8,783.633 1505.23,783.681 1501.66,783.73 1498.09,783.78 1494.52,783.831 1490.95,783.884 1487.38,783.938 1483.82,783.993 1480.25,784.049 1476.68,784.107 1473.11,784.166 1469.54,784.226 1465.97,784.288 1462.4,784.352 1458.84,784.417 1455.27,784.483 1451.7,784.551 1448.13,784.621 1444.56,784.693 1440.99,784.766 1437.43,784.841 1433.86,784.918 1430.29,784.997 1426.72,785.078 1423.15,785.161 1419.58,785.246 1416.01,785.334 1412.45,785.423 1408.88,785.515 1405.31,785.609 1401.74,785.705 1398.17,785.804 1394.6,785.906 1391.03,786.01 1387.47,786.117 1383.9,786.226 1380.33,786.338 1376.76,786.454 1373.19,786.572 1369.62,786.693 1366.05,786.817 1362.49,786.944 1358.92,787.074 1355.35,787.208 1351.78,787.345 1348.21,787.485 1344.64,787.629 1341.07,787.777 1337.51,787.928 1333.94,788.083 1330.37,788.242 1326.8,788.404 1323.23,788.57 1319.66,788.741 1316.09,788.915 1312.53,789.094 1308.96,789.277 1305.39,789.464 1301.82,789.656 1298.25,789.851 1294.68,790.052 1291.11,790.257 1287.55,790.466 1283.98,790.681 1280.41,790.9 1276.84,791.124 1273.27,791.353 1269.7,791.586 1266.14,791.825 1262.57,792.069 1259,792.318 1255.43,792.572 1251.86,792.832 1248.29,793.096 1244.72,793.367 1241.16,793.642 1237.59,793.923 1234.02,794.21 1230.45,794.502 1226.88,794.799 1223.31,795.103 1219.74,795.412 1216.18,795.727 1212.61,796.047 1209.04,796.373 1205.47,796.706 1201.9,797.044 1198.33,797.388 1194.76,797.738 1191.2,798.094 1187.63,798.456 1184.06,798.824 1180.49,799.198 1176.92,799.578 1173.35,799.965 1169.78,800.357 1166.22,800.756 1162.65,801.16 1159.08,801.572 1155.51,801.989 1151.94,802.412 1148.37,802.842 1144.8,803.278 1141.24,803.72 1137.67,804.169 1134.1,804.624 1130.53,805.085 1126.96,805.552 1123.39,806.026 1119.83,806.506 1116.26,806.993 1112.69,807.485 1109.12,807.985 1105.55,808.49 1101.98,809.002 1098.41,809.52 1094.85,810.044 1091.28,810.575 1087.71,811.113 1084.14,811.656 1080.57,812.206 1077,812.762 1073.43,813.325 1069.87,813.894 1066.3,814.469 1062.73,815.051 1059.16,815.639 1055.59,816.233 1052.02,816.833 1048.45,817.44 1044.89,818.054 1041.32,818.673 1037.75,819.299 1034.18,819.932 1030.61,820.57 1027.04,821.215 1023.47,821.866 1019.91,822.524 1016.34,823.188 1012.77,823.858 1009.2,824.535 1005.63,825.218 1002.06,825.907 998.495,826.603 994.926,827.305 991.358,828.013 987.789,828.728 984.22,829.449 980.652,830.177 977.083,830.911 973.515,831.651 969.946,832.398 966.378,833.152 962.809,833.911 959.241,834.678 955.672,835.45 952.104,836.23 948.535,837.015 944.967,837.808 941.398,838.607 937.829,839.412 934.261,840.225 930.692,841.043 927.124,841.869 923.555,842.701 919.987,843.541 916.418,844.387 912.85,845.239 909.281,846.099 905.713,846.966 902.144,847.839 898.575,848.72 895.007,849.608 891.438,850.502 887.87,851.404 884.301,852.314 880.733,853.23 877.164,854.154 873.596,855.086 870.027,856.025 866.459,856.971 862.89,857.925 859.322,858.887 855.753,859.857 852.184,860.834 848.616,861.82 845.047,862.813 841.479,863.815 837.91,864.825 834.342,865.843 830.773,866.87 827.205,867.905 823.636,868.949 820.068,870.001 816.499,871.063 812.93,872.133 809.362,873.213 805.793,874.302 802.225,875.4 798.656,876.508 795.088,877.625 791.519,878.752 787.951,879.889 784.382,881.036 780.814,882.194 777.245,883.362 773.677,884.54 770.108,885.729 766.539,886.929 762.971,888.14 759.402,889.362 755.834,890.596 752.265,891.841 748.697,893.099 745.128,894.368 741.56,895.65 737.991,896.944 734.423,898.25 730.854,899.57 727.286,900.903 723.717,902.249 720.148,903.609 716.58,904.983 713.011,906.371 709.443,907.774 705.874,909.191 702.306,910.623 698.737,912.071 695.169,913.534 691.6,915.013 688.032,916.508 684.463,918.02 680.894,919.548 677.326,921.094 673.757,922.658 670.189,924.239 666.62,925.839 663.052,927.457 659.483,929.094 655.915,930.751 652.346,932.428 648.778,934.125 645.209,935.843 641.641,937.582 638.072,939.343 634.503,941.126 630.935,942.931 627.366,944.76 623.798,946.612 620.229,948.488 616.661,950.389 613.092,952.316 609.524,954.268 605.955,956.247 602.387,958.253 598.818,960.286 595.249,962.348 591.681,964.439 588.112,966.56 584.544,968.711 580.975,970.893 577.407,973.107 573.838,975.354 570.27,977.635 566.701,979.949 563.133,982.3 559.564,984.686 555.996,987.109 552.427,989.571 548.858,992.071 545.29,994.611 541.721,997.193 538.153,999.816 534.584,1002.48 531.016,1005.19 527.447,1007.95 523.879,1010.76 520.31,1013.61 516.742,1016.51 513.173,1019.46 509.605,1022.47 506.036,1025.53 502.467,1028.64 498.899,1031.82 495.33,1035.05 491.762,1038.34 488.193,1041.69 484.625,1045.11 481.056,1048.6 477.488,1052.15 473.919,1055.78 470.351,1059.48 466.782,1063.25 463.213,1067.1 459.645,1071.03 456.076,1075.04 452.508,1079.14 448.939,1083.33 445.371,1087.61 441.802,1091.99 438.234,1096.46 434.665,1101.04 431.097,1105.72 427.528,1110.51 423.96,1115.41 420.391,1120.43 416.822,1125.57 413.254,1130.84 409.685,1136.24 406.117,1141.78 402.548,1147.46 398.98,1153.29 395.411,1159.27 391.843,1165.42 388.274,1171.73 384.706,1178.21 381.137,1184.88 377.568,1191.73 374,1198.79 370.431,1206.05 366.863,1213.53 363.294,1221.23 359.726,1229.18 356.157,1237.37 352.589,1245.82 349.02,1254.55 345.452,1263.56 341.883,1272.88 338.315,1282.52 334.746,1292.49 331.177,1302.81 "/>
<polyline clip-path="url(#clip241)" style="stroke:#e26f46; stroke-linecap:round; stroke-linejoin:round; stroke-width:4; stroke-opacity:1; fill:none" points="2290.31,820.157 2286.74,820.331 2283.17,820.505 2279.6,820.68 2276.03,820.855 2272.46,821.031 2268.9,821.207 2265.33,821.384 2261.76,821.562 2258.19,821.739 2254.62,821.918 2251.05,822.097 2247.48,822.276 2243.92,822.456 2240.35,822.637 2236.78,822.818 2233.21,822.999 2229.64,823.181 2226.07,823.364 2222.5,823.547 2218.94,823.731 2215.37,823.915 2211.8,824.1 2208.23,824.285 2204.66,824.471 2201.09,824.657 2197.52,824.844 2193.96,825.031 2190.39,825.219 2186.82,825.407 2183.25,825.596 2179.68,825.785 2176.11,825.975 2172.54,826.166 2168.98,826.357 2165.41,826.548 2161.84,826.741 2158.27,826.933 2154.7,827.126 2151.13,827.32 2147.56,827.514 2144,827.709 2140.43,827.904 2136.86,828.1 2133.29,828.297 2129.72,828.494 2126.15,828.691 2122.59,828.889 2119.02,829.088 2115.45,829.287 2111.88,829.486 2108.31,829.687 2104.74,829.887 2101.17,830.089 2097.61,830.291 2094.04,830.493 2090.47,830.696 2086.9,830.9 2083.33,831.104 2079.76,831.308 2076.19,831.514 2072.63,831.719 2069.06,831.926 2065.49,832.133 2061.92,832.34 2058.35,832.548 2054.78,832.757 2051.21,832.966 2047.65,833.175 2044.08,833.386 2040.51,833.597 2036.94,833.808 2033.37,834.02 2029.8,834.233 2026.23,834.446 2022.67,834.659 2019.1,834.874 2015.53,835.089 2011.96,835.304 2008.39,835.52 2004.82,835.737 2001.25,835.954 1997.69,836.172 1994.12,836.39 1990.55,836.609 1986.98,836.829 1983.41,837.049 1979.84,837.27 1976.27,837.491 1972.71,837.713 1969.14,837.935 1965.57,838.159 1962,838.382 1958.43,838.607 1954.86,838.832 1951.3,839.057 1947.73,839.283 1944.16,839.51 1940.59,839.737 1937.02,839.965 1933.45,840.194 1929.88,840.423 1926.32,840.653 1922.75,840.884 1919.18,841.115 1915.61,841.346 1912.04,841.579 1908.47,841.812 1904.9,842.045 1901.34,842.28 1897.77,842.514 1894.2,842.75 1890.63,842.986 1887.06,843.223 1883.49,843.46 1879.92,843.698 1876.36,843.937 1872.79,844.176 1869.22,844.416 1865.65,844.657 1862.08,844.898 1858.51,845.14 1854.94,845.383 1851.38,845.626 1847.81,845.87 1844.24,846.115 1840.67,846.36 1837.1,846.606 1833.53,846.853 1829.96,847.1 1826.4,847.348 1822.83,847.597 1819.26,847.846 1815.69,848.096 1812.12,848.347 1808.55,848.598 1804.98,848.85 1801.42,849.103 1797.85,849.356 1794.28,849.611 1790.71,849.866 1787.14,850.121 1783.57,850.378 1780.01,850.635 1776.44,850.892 1772.87,851.151 1769.3,851.41 1765.73,851.67 1762.16,851.931 1758.59,852.192 1755.03,852.454 1751.46,852.717 1747.89,852.981 1744.32,853.245 1740.75,853.51 1737.18,853.776 1733.61,854.043 1730.05,854.31 1726.48,854.578 1722.91,854.847 1719.34,855.117 1715.77,855.387 1712.2,855.658 1708.63,855.93 1705.07,856.203 1701.5,856.477 1697.93,856.751 1694.36,857.026 1690.79,857.302 1687.22,857.579 1683.65,857.857 1680.09,858.135 1676.52,858.414 1672.95,858.694 1669.38,858.975 1665.81,859.257 1662.24,859.539 1658.67,859.823 1655.11,860.107 1651.54,860.392 1647.97,860.678 1644.4,860.965 1640.83,861.252 1637.26,861.541 1633.69,861.83 1630.13,862.12 1626.56,862.411 1622.99,862.703 1619.42,862.996 1615.85,863.29 1612.28,863.585 1608.72,863.88 1605.15,864.177 1601.58,864.474 1598.01,864.773 1594.44,865.072 1590.87,865.372 1587.3,865.673 1583.74,865.975 1580.17,866.278 1576.6,866.582 1573.03,866.887 1569.46,867.193 1565.89,867.5 1562.32,867.808 1558.76,868.117 1555.19,868.426 1551.62,868.737 1548.05,869.049 1544.48,869.362 1540.91,869.676 1537.34,869.991 1533.78,870.306 1530.21,870.623 1526.64,870.941 1523.07,871.26 1519.5,871.58 1515.93,871.902 1512.36,872.224 1508.8,872.547 1505.23,872.871 1501.66,873.197 1498.09,873.523 1494.52,873.851 1490.95,874.18 1487.38,874.51 1483.82,874.841 1480.25,875.173 1476.68,875.506 1473.11,875.841 1469.54,876.176 1465.97,876.513 1462.4,876.851 1458.84,877.19 1455.27,877.531 1451.7,877.872 1448.13,878.215 1444.56,878.559 1440.99,878.905 1437.43,879.251 1433.86,879.599 1430.29,879.948 1426.72,880.298 1423.15,880.65 1419.58,881.002 1416.01,881.357 1412.45,881.712 1408.88,882.069 1405.31,882.427 1401.74,882.786 1398.17,883.147 1394.6,883.509 1391.03,883.873 1387.47,884.238 1383.9,884.604 1380.33,884.972 1376.76,885.341 1373.19,885.711 1369.62,886.083 1366.05,886.457 1362.49,886.832 1358.92,887.208 1355.35,887.586 1351.78,887.965 1348.21,888.346 1344.64,888.729 1341.07,889.112 1337.51,889.498 1333.94,889.885 1330.37,890.274 1326.8,890.664 1323.23,891.056 1319.66,891.449 1316.09,891.844 1312.53,892.241 1308.96,892.639 1305.39,893.039 1301.82,893.441 1298.25,893.844 1294.68,894.25 1291.11,894.656 1287.55,895.065 1283.98,895.475 1280.41,895.888 1276.84,896.302 1273.27,896.717 1269.7,897.135 1266.14,897.555 1262.57,897.976 1259,898.399 1255.43,898.824 1251.86,899.251 1248.29,899.68 1244.72,900.111 1241.16,900.544 1237.59,900.979 1234.02,901.416 1230.45,901.855 1226.88,902.296 1223.31,902.739 1219.74,903.184 1216.18,903.631 1212.61,904.081 1209.04,904.532 1205.47,904.986 1201.9,905.442 1198.33,905.9 1194.76,906.36 1191.2,906.823 1187.63,907.288 1184.06,907.755 1180.49,908.225 1176.92,908.696 1173.35,909.171 1169.78,909.647 1166.22,910.126 1162.65,910.608 1159.08,911.092 1155.51,911.579 1151.94,912.068 1148.37,912.559 1144.8,913.053 1141.24,913.55 1137.67,914.05 1134.1,914.552 1130.53,915.056 1126.96,915.564 1123.39,916.074 1119.83,916.587 1116.26,917.103 1112.69,917.622 1109.12,918.143 1105.55,918.668 1101.98,919.195 1098.41,919.726 1094.85,920.259 1091.28,920.796 1087.71,921.335 1084.14,921.878 1080.57,922.424 1077,922.973 1073.43,923.525 1069.87,924.08 1066.3,924.639 1062.73,925.201 1059.16,925.766 1055.59,926.335 1052.02,926.907 1048.45,927.483 1044.89,928.062 1041.32,928.645 1037.75,929.232 1034.18,929.822 1030.61,930.416 1027.04,931.013 1023.47,931.614 1019.91,932.22 1016.34,932.829 1012.77,933.442 1009.2,934.059 1005.63,934.68 1002.06,935.305 998.495,935.934 994.926,936.568 991.358,937.205 987.789,937.847 984.22,938.493 980.652,939.144 977.083,939.799 973.515,940.459 969.946,941.123 966.378,941.792 962.809,942.466 959.241,943.144 955.672,943.827 952.104,944.515 948.535,945.208 944.967,945.906 941.398,946.609 937.829,947.318 934.261,948.031 930.692,948.75 927.124,949.474 923.555,950.203 919.987,950.939 916.418,951.679 912.85,952.426 909.281,953.178 905.713,953.936 902.144,954.699 898.575,955.469 895.007,956.245 891.438,957.027 887.87,957.816 884.301,958.61 880.733,959.411 877.164,960.219 873.596,961.033 870.027,961.854 866.459,962.682 862.89,963.517 859.322,964.359 855.753,965.208 852.184,966.064 848.616,966.928 845.047,967.799 841.479,968.678 837.91,969.564 834.342,970.458 830.773,971.36 827.205,972.271 823.636,973.189 820.068,974.116 816.499,975.051 812.93,975.995 809.362,976.948 805.793,977.909 802.225,978.88 798.656,979.859 795.088,980.848 791.519,981.847 787.951,982.855 784.382,983.873 780.814,984.901 777.245,985.939 773.677,986.987 770.108,988.046 766.539,989.116 762.971,990.196 759.402,991.288 755.834,992.39 752.265,993.504 748.697,994.63 745.128,995.768 741.56,996.917 737.991,998.079 734.423,999.253 730.854,1000.44 727.286,1001.64 723.717,1002.85 720.148,1004.08 716.58,1005.32 713.011,1006.58 709.443,1007.84 705.874,1009.13 702.306,1010.42 698.737,1011.74 695.169,1013.07 691.6,1014.41 688.032,1015.77 684.463,1017.15 680.894,1018.54 677.326,1019.95 673.757,1021.37 670.189,1022.82 666.62,1024.28 663.052,1025.76 659.483,1027.26 655.915,1028.78 652.346,1030.32 648.778,1031.88 645.209,1033.45 641.641,1035.05 638.072,1036.67 634.503,1038.32 630.935,1039.98 627.366,1041.67 623.798,1043.38 620.229,1045.11 616.661,1046.87 613.092,1048.65 609.524,1050.46 605.955,1052.29 602.387,1054.15 598.818,1056.04 595.249,1057.95 591.681,1059.9 588.112,1061.87 584.544,1063.87 580.975,1065.9 577.407,1067.97 573.838,1070.07 570.27,1072.19 566.701,1074.36 563.133,1076.55 559.564,1078.79 555.996,1081.05 552.427,1083.36 548.858,1085.7 545.29,1088.09 541.721,1090.51 538.153,1092.98 534.584,1095.48 531.016,1098.03 527.447,1100.63 523.879,1103.27 520.31,1105.96 516.742,1108.7 513.173,1111.48 509.605,1114.32 506.036,1117.21 502.467,1120.16 498.899,1123.16 495.33,1126.22 491.762,1129.34 488.193,1132.52 484.625,1135.77 481.056,1139.08 477.488,1142.45 473.919,1145.9 470.351,1149.42 466.782,1153.01 463.213,1156.68 459.645,1160.43 456.076,1164.25 452.508,1168.17 448.939,1172.17 445.371,1176.26 441.802,1180.44 438.234,1184.72 434.665,1189.1 431.097,1193.58 427.528,1198.17 423.96,1202.87 420.391,1207.69 416.822,1212.63 413.254,1217.69 409.685,1222.89 406.117,1228.21 402.548,1233.68 398.98,1239.29 395.411,1245.05 391.843,1250.98 388.274,1257.06 384.706,1263.32 381.137,1269.75 377.568,1276.38 374,1283.2 370.431,1290.22 366.863,1297.45 363.294,1304.91 359.726,1312.6 356.157,1320.54 352.589,1328.73 349.02,1337.2 345.452,1345.94 341.883,1354.98 338.315,1364.34 334.746,1374.03 331.177,1384.06 "/>
<polyline clip-path="url(#clip241)" style="stroke:#3da44d; stroke-linecap:round; stroke-linejoin:round; stroke-width:4; stroke-opacity:1; fill:none" points="1822.83,782.28 1819.26,782.75 1815.69,783.157 1812.12,783.539 1808.55,783.91 1804.98,784.275 1801.42,784.638 1797.85,785.001 1794.28,785.366 1790.71,785.732 1787.14,786.1 1783.57,786.471 1780.01,786.846 1776.44,787.223 1772.87,787.603 1769.3,787.987 1765.73,788.374 1762.16,788.764 1758.59,789.158 1755.03,789.555 1751.46,789.955 1747.89,790.358 1744.32,790.765 1740.75,791.174 1737.18,791.586 1733.61,792.002 1730.05,792.42 1726.48,792.841 1722.91,793.265 1719.34,793.692 1715.77,794.121 1712.2,794.553 1708.63,794.987 1705.07,795.424 1701.5,795.864 1697.93,796.306 1694.36,796.75 1690.79,797.196 1687.22,797.645 1683.65,798.096 1680.09,798.549 1676.52,799.004 1672.95,799.462 1669.38,799.921 1665.81,800.382 1662.24,800.846 1658.67,801.311 1655.11,801.778 1651.54,802.247 1647.97,802.718 1644.4,803.19 1640.83,803.664 1637.26,804.14 1633.69,804.617 1630.13,805.097 1626.56,805.577 1622.99,806.06 1619.42,806.543 1615.85,807.029 1612.28,807.515 1608.72,808.004 1605.15,808.493 1601.58,808.984 1598.01,809.477 1594.44,809.97 1590.87,810.465 1587.3,810.962 1583.74,811.459 1580.17,811.958 1576.6,812.458 1573.03,812.959 1569.46,813.462 1565.89,813.966 1562.32,814.47 1558.76,814.976 1555.19,815.483 1551.62,815.992 1548.05,816.501 1544.48,817.011 1540.91,817.523 1537.34,818.035 1533.78,818.549 1530.21,819.063 1526.64,819.579 1523.07,820.096 1519.5,820.613 1515.93,821.132 1512.36,821.651 1508.8,822.172 1505.23,822.693 1501.66,823.216 1498.09,823.739 1494.52,824.263 1490.95,824.788 1487.38,825.315 1483.82,825.842 1480.25,826.37 1476.68,826.898 1473.11,827.428 1469.54,827.959 1465.97,828.49 1462.4,829.023 1458.84,829.556 1455.27,830.091 1451.7,830.626 1448.13,831.162 1444.56,831.699 1440.99,832.236 1437.43,832.775 1433.86,833.315 1430.29,833.855 1426.72,834.396 1423.15,834.939 1419.58,835.482 1416.01,836.026 1412.45,836.571 1408.88,837.117 1405.31,837.663 1401.74,838.211 1398.17,838.76 1394.6,839.309 1391.03,839.86 1387.47,840.411 1383.9,840.963 1380.33,841.517 1376.76,842.071 1373.19,842.626 1369.62,843.182 1366.05,843.739 1362.49,844.297 1358.92,844.857 1355.35,845.417 1351.78,845.978 1348.21,846.54 1344.64,847.103 1341.07,847.668 1337.51,848.233 1333.94,848.8 1330.37,849.367 1326.8,849.936 1323.23,850.505 1319.66,851.076 1316.09,851.648 1312.53,852.221 1308.96,852.796 1305.39,853.371 1301.82,853.948 1298.25,854.526 1294.68,855.105 1291.11,855.685 1287.55,856.267 1283.98,856.85 1280.41,857.434 1276.84,858.02 1273.27,858.607 1269.7,859.195 1266.14,859.784 1262.57,860.375 1259,860.968 1255.43,861.561 1251.86,862.157 1248.29,862.753 1244.72,863.352 1241.16,863.951 1237.59,864.553 1234.02,865.155 1230.45,865.76 1226.88,866.366 1223.31,866.973 1219.74,867.582 1216.18,868.193 1212.61,868.806 1209.04,869.42 1205.47,870.036 1201.9,870.654 1198.33,871.273 1194.76,871.895 1191.2,872.518 1187.63,873.143 1184.06,873.77 1180.49,874.399 1176.92,875.03 1173.35,875.662 1169.78,876.297 1166.22,876.934 1162.65,877.573 1159.08,878.214 1155.51,878.857 1151.94,879.502 1148.37,880.15 1144.8,880.8 1141.24,881.451 1137.67,882.106 1134.1,882.762 1130.53,883.421 1126.96,884.082 1123.39,884.746 1119.83,885.412 1116.26,886.081 1112.69,886.752 1109.12,887.425 1105.55,888.102 1101.98,888.78 1098.41,889.462 1094.85,890.146 1091.28,890.833 1087.71,891.523 1084.14,892.216 1080.57,892.911 1077,893.609 1073.43,894.311 1069.87,895.015 1066.3,895.722 1062.73,896.432 1059.16,897.146 1055.59,897.862 1052.02,898.582 1048.45,899.305 1044.89,900.032 1041.32,900.761 1037.75,901.494 1034.18,902.231 1030.61,902.971 1027.04,903.714 1023.47,904.461 1019.91,905.212 1016.34,905.966 1012.77,906.724 1009.2,907.486 1005.63,908.252 1002.06,909.021 998.495,909.795 994.926,910.572 991.358,911.354 987.789,912.14 984.22,912.929 980.652,913.724 977.083,914.522 973.515,915.325 969.946,916.132 966.378,916.943 962.809,917.76 959.241,918.58 955.672,919.406 952.104,920.236 948.535,921.071 944.967,921.911 941.398,922.755 937.829,923.605 934.261,924.46 930.692,925.32 927.124,926.186 923.555,927.056 919.987,927.932 916.418,928.814 912.85,929.701 909.281,930.593 905.713,931.492 902.144,932.396 898.575,933.306 895.007,934.222 891.438,935.144 887.87,936.073 884.301,937.007 880.733,937.948 877.164,938.896 873.596,939.85 870.027,940.81 866.459,941.777 862.89,942.752 859.322,943.733 855.753,944.721 852.184,945.716 848.616,946.719 845.047,947.729 841.479,948.746 837.91,949.772 834.342,950.805 830.773,951.845 827.205,952.894 823.636,953.951 820.068,955.017 816.499,956.09 812.93,957.172 809.362,958.263 805.793,959.363 802.225,960.472 798.656,961.59 795.088,962.717 791.519,963.853 787.951,964.999 784.382,966.155 780.814,967.321 777.245,968.497 773.677,969.683 770.108,970.88 766.539,972.087 762.971,973.305 759.402,974.534 755.834,975.774 752.265,977.026 748.697,978.289 745.128,979.564 741.56,980.851 737.991,982.151 734.423,983.462 730.854,984.787 727.286,986.124 723.717,987.475 720.148,988.839 716.58,990.217 713.011,991.608 709.443,993.014 705.874,994.434 702.306,995.869 698.737,997.32 695.169,998.785 691.6,1000.27 688.032,1001.76 684.463,1003.28 680.894,1004.81 677.326,1006.35 673.757,1007.92 670.189,1009.5 666.62,1011.1 663.052,1012.72 659.483,1014.35 655.915,1016.01 652.346,1017.68 648.778,1019.38 645.209,1021.09 641.641,1022.83 638.072,1024.59 634.503,1026.37 630.935,1028.17 627.366,1029.99 623.798,1031.84 620.229,1033.71 616.661,1035.61 613.092,1037.53 609.524,1039.47 605.955,1041.44 602.387,1043.44 598.818,1045.47 595.249,1047.52 591.681,1049.6 588.112,1051.71 584.544,1053.85 580.975,1056.02 577.407,1058.22 573.838,1060.46 570.27,1062.72 566.701,1065.03 563.133,1067.36 559.564,1069.73 555.996,1072.14 552.427,1074.58 548.858,1077.07 545.29,1079.59 541.721,1082.15 538.153,1084.75 534.584,1087.4 531.016,1090.09 527.447,1092.83 523.879,1095.61 520.31,1098.44 516.742,1101.31 513.173,1104.24 509.605,1107.22 506.036,1110.25 502.467,1113.34 498.899,1116.48 495.33,1119.68 491.762,1122.94 488.193,1126.26 484.625,1129.65 481.056,1133.1 477.488,1136.62 473.919,1140.21 470.351,1143.87 466.782,1147.6 463.213,1151.41 459.645,1155.3 456.076,1159.27 452.508,1163.33 448.939,1167.47 445.371,1171.7 441.802,1176.03 438.234,1180.46 434.665,1184.98 431.097,1189.61 427.528,1194.34 423.96,1199.19 420.391,1204.15 416.822,1209.24 413.254,1214.44 409.685,1219.78 406.117,1225.26 402.548,1230.87 398.98,1236.63 395.411,1242.54 391.843,1248.61 388.274,1254.84 384.706,1261.25 381.137,1267.83 377.568,1274.6 374,1281.57 370.431,1288.74 366.863,1296.12 363.294,1303.73 359.726,1311.57 356.157,1319.66 352.589,1328.01 349.02,1336.62 345.452,1345.52 341.883,1354.71 338.315,1364.22 334.746,1374.05 331.177,1384.24 "/>
<polyline clip-path="url(#clip241)" style="stroke:#c271d2; stroke-linecap:round; stroke-linejoin:round; stroke-width:4; stroke-opacity:1; fill:none" points="1822.83,780.676 1819.26,780.285 1815.69,779.956 1812.12,779.65 1808.55,779.353 1804.98,779.06 1801.42,778.767 1797.85,778.473 1794.28,778.176 1790.71,777.875 1787.14,777.57 1783.57,777.261 1780.01,776.947 1776.44,776.628 1772.87,776.304 1769.3,775.975 1765.73,775.641 1762.16,775.302 1758.59,774.958 1755.03,774.609 1751.46,774.255 1747.89,773.896 1744.32,773.532 1740.75,773.164 1737.18,772.79 1733.61,772.412 1730.05,772.029 1726.48,771.642 1722.91,771.25 1719.34,770.854 1715.77,770.453 1712.2,770.048 1708.63,769.639 1705.07,769.225 1701.5,768.807 1697.93,768.385 1694.36,767.958 1690.79,767.528 1687.22,767.094 1683.65,766.656 1680.09,766.213 1676.52,765.767 1672.95,765.317 1669.38,764.864 1665.81,764.406 1662.24,763.945 1658.67,763.481 1655.11,763.012 1651.54,762.54 1647.97,762.065 1644.4,761.586 1640.83,761.103 1637.26,760.617 1633.69,760.128 1630.13,759.636 1626.56,759.14 1622.99,758.64 1619.42,758.138 1615.85,757.632 1612.28,757.123 1608.72,756.611 1605.15,756.096 1601.58,755.578 1598.01,755.056 1594.44,754.532 1590.87,754.004 1587.3,753.474 1583.74,752.94 1580.17,752.403 1576.6,751.864 1573.03,751.322 1569.46,750.777 1565.89,750.228 1562.32,749.677 1558.76,749.124 1555.19,748.567 1551.62,748.008 1548.05,747.446 1544.48,746.881 1540.91,746.313 1537.34,745.743 1533.78,745.17 1530.21,744.594 1526.64,744.016 1523.07,743.435 1519.5,742.851 1515.93,742.265 1512.36,741.676 1508.8,741.084 1505.23,740.49 1501.66,739.894 1498.09,739.294 1494.52,738.693 1490.95,738.089 1487.38,737.482 1483.82,736.873 1480.25,736.261 1476.68,735.647 1473.11,735.03 1469.54,734.411 1465.97,733.789 1462.4,733.165 1458.84,732.538 1455.27,731.909 1451.7,731.278 1448.13,730.644 1444.56,730.008 1440.99,729.37 1437.43,728.729 1433.86,728.085 1430.29,727.44 1426.72,726.791 1423.15,726.141 1419.58,725.488 1416.01,724.833 1412.45,724.175 1408.88,723.515 1405.31,722.853 1401.74,722.189 1398.17,721.522 1394.6,720.852 1391.03,720.181 1387.47,719.507 1383.9,718.831 1380.33,718.152 1376.76,717.471 1373.19,716.788 1369.62,716.102 1366.05,715.414 1362.49,714.724 1358.92,714.032 1355.35,713.337 1351.78,712.639 1348.21,711.94 1344.64,711.238 1341.07,710.534 1337.51,709.827 1333.94,709.119 1330.37,708.407 1326.8,707.694 1323.23,706.978 1319.66,706.26 1316.09,705.539 1312.53,704.816 1308.96,704.091 1305.39,703.364 1301.82,702.634 1298.25,701.901 1294.68,701.167 1291.11,700.43 1287.55,699.69 1283.98,698.948 1280.41,698.204 1276.84,697.458 1273.27,696.709 1269.7,695.957 1266.14,695.203 1262.57,694.447 1259,693.688 1255.43,692.927 1251.86,692.164 1248.29,691.398 1244.72,690.629 1241.16,689.858 1237.59,689.085 1234.02,688.309 1230.45,687.53 1226.88,686.749 1223.31,685.966 1219.74,685.18 1216.18,684.391 1212.61,683.6 1209.04,682.807 1205.47,682.01 1201.9,681.211 1198.33,680.41 1194.76,679.606 1191.2,678.799 1187.63,677.99 1184.06,677.178 1180.49,676.363 1176.92,675.546 1173.35,674.726 1169.78,673.903 1166.22,673.077 1162.65,672.249 1159.08,671.418 1155.51,670.584 1151.94,669.748 1148.37,668.908 1144.8,668.066 1141.24,667.221 1137.67,666.373 1134.1,665.522 1130.53,664.668 1126.96,663.811 1123.39,662.952 1119.83,662.089 1116.26,661.223 1112.69,660.355 1109.12,659.483 1105.55,658.608 1101.98,657.73 1098.41,656.85 1094.85,655.966 1091.28,655.078 1087.71,654.188 1084.14,653.294 1080.57,652.398 1077,651.498 1073.43,650.594 1069.87,649.688 1066.3,648.778 1062.73,647.864 1059.16,646.948 1055.59,646.028 1052.02,645.104 1048.45,644.177 1044.89,643.246 1041.32,642.312 1037.75,641.375 1034.18,640.433 1030.61,639.488 1027.04,638.54 1023.47,637.587 1019.91,636.631 1016.34,635.671 1012.77,634.708 1009.2,633.74 1005.63,632.769 1002.06,631.793 998.495,630.814 994.926,629.831 991.358,628.843 987.789,627.852 984.22,626.856 980.652,625.856 977.083,624.852 973.515,623.843 969.946,622.831 966.378,621.814 962.809,620.792 959.241,619.766 955.672,618.735 952.104,617.7 948.535,616.66 944.967,615.616 941.398,614.567 937.829,613.513 934.261,612.454 930.692,611.39 927.124,610.321 923.555,609.247 919.987,608.168 916.418,607.084 912.85,605.995 909.281,604.9 905.713,603.8 902.144,602.694 898.575,601.583 895.007,600.467 891.438,599.344 887.87,598.216 884.301,597.082 880.733,595.943 877.164,594.797 873.596,593.645 870.027,592.487 866.459,591.323 862.89,590.152 859.322,588.975 855.753,587.791 852.184,586.601 848.616,585.404 845.047,584.201 841.479,582.99 837.91,581.772 834.342,580.547 830.773,579.315 827.205,578.076 823.636,576.829 820.068,575.574 816.499,574.312 812.93,573.042 809.362,571.764 805.793,570.478 802.225,569.183 798.656,567.88 795.088,566.569 791.519,565.249 787.951,563.92 784.382,562.582 780.814,561.235 777.245,559.879 773.677,558.513 770.108,557.138 766.539,555.753 762.971,554.358 759.402,552.953 755.834,551.537 752.265,550.111 748.697,548.674 745.128,547.226 741.56,545.767 737.991,544.297 734.423,542.815 730.854,541.321 727.286,539.816 723.717,538.298 720.148,536.767 716.58,535.224 713.011,533.667 709.443,532.098 705.874,530.514 702.306,528.917 698.737,527.306 695.169,525.68 691.6,524.04 688.032,522.384 684.463,520.713 680.894,519.026 677.326,517.323 673.757,515.604 670.189,513.868 666.62,512.115 663.052,510.344 659.483,508.555 655.915,506.747 652.346,504.921 648.778,503.076 645.209,501.211 641.641,499.325 638.072,497.419 634.503,495.492 630.935,493.543 627.366,491.571 623.798,489.577 620.229,487.559 616.661,485.518 613.092,483.452 609.524,481.36 605.955,479.243 602.387,477.099 598.818,474.928 595.249,472.729 591.681,470.501 588.112,468.243 584.544,465.955 580.975,463.636 577.407,461.285 573.838,458.901 570.27,456.482 566.701,454.029 563.133,451.54 559.564,449.014 555.996,446.45 552.427,443.847 548.858,441.204 545.29,438.519 541.721,435.79 538.153,433.018 534.584,430.2 531.016,427.336 527.447,424.422 523.879,421.459 520.31,418.444 516.742,415.375 513.173,412.251 509.605,409.071 506.036,405.831 502.467,402.53 498.899,399.166 495.33,395.737 491.762,392.24 488.193,388.674 484.625,385.035 481.056,381.32 477.488,377.528 473.919,373.655 470.351,369.697 466.782,365.653 463.213,361.518 459.645,357.29 456.076,352.963 452.508,348.535 448.939,344.002 445.371,339.358 441.802,334.6 438.234,329.722 434.665,324.72 431.097,319.588 427.528,314.32 423.96,308.911 420.391,303.354 416.822,297.643 413.254,291.771 409.685,285.729 406.117,279.51 402.548,273.106 398.98,266.507 395.411,259.705 391.843,252.688 388.274,245.445 384.706,237.967 381.137,230.239 377.568,222.249 374,213.982 370.431,205.424 366.863,196.559 363.294,187.368 359.726,177.833 356.157,167.935 352.589,157.65 349.02,146.957 345.452,135.829 341.883,124.24 338.315,112.159 334.746,99.555 331.177,86.3928 "/>
<polyline clip-path="url(#clip241)" style="stroke:#ac8d18; stroke-linecap:round; stroke-linejoin:round; stroke-width:4; stroke-opacity:1; fill:none" points="1169.78,756.76 1166.22,760.986 1162.65,763.364 1159.08,765.121 1155.51,766.534 1151.94,767.723 1148.37,768.751 1144.8,769.657 1141.24,770.467 1137.67,771.198 1134.1,771.866 1130.53,772.478 1126.96,773.044 1123.39,773.569 1119.83,774.059 1116.26,774.517 1112.69,774.948 1109.12,775.355 1105.55,775.739 1101.98,776.104 1098.41,776.451 1094.85,776.781 1091.28,777.097 1087.71,777.399 1084.14,777.689 1080.57,777.967 1077,778.236 1073.43,778.495 1069.87,778.745 1066.3,778.987 1062.73,779.222 1059.16,779.451 1055.59,779.673 1052.02,779.89 1048.45,780.101 1044.89,780.308 1041.32,780.511 1037.75,780.709 1034.18,780.905 1030.61,781.097 1027.04,781.286 1023.47,781.473 1019.91,781.658 1016.34,781.841 1012.77,782.022 1009.2,782.202 1005.63,782.381 1002.06,782.56 998.495,782.738 994.926,782.916 991.358,783.094 987.789,783.272 984.22,783.452 980.652,783.632 977.083,783.813 973.515,783.996 969.946,784.181 966.378,784.368 962.809,784.557 959.241,784.749 955.672,784.944 952.104,785.143 948.535,785.345 944.967,785.552 941.398,785.763 937.829,785.979 934.261,786.2 930.692,786.427 927.124,786.66 923.555,786.9 919.987,787.147 916.418,787.402 912.85,787.664 909.281,787.935 905.713,788.215 902.144,788.505 898.575,788.804 895.007,789.115 891.438,789.436 887.87,789.77 884.301,790.116 880.733,790.474 877.164,790.847 873.596,791.233 870.027,791.634 866.459,792.05 862.89,792.481 859.322,792.929 855.753,793.393 852.184,793.875 848.616,794.374 845.047,794.891 841.479,795.427 837.91,795.982 834.342,796.555 830.773,797.149 827.205,797.762 823.636,798.395 820.068,799.048 816.499,799.722 812.93,800.417 809.362,801.132 805.793,801.869 802.225,802.626 798.656,803.405 795.088,804.205 791.519,805.026 787.951,805.868 784.382,806.732 780.814,807.616 777.245,808.522 773.677,809.449 770.108,810.397 766.539,811.366 762.971,812.355 759.402,813.366 755.834,814.397 752.265,815.448 748.697,816.52 745.128,817.612 741.56,818.724 737.991,819.856 734.423,821.009 730.854,822.181 727.286,823.373 723.717,824.584 720.148,825.815 716.58,827.066 713.011,828.336 709.443,829.626 705.874,830.935 702.306,832.263 698.737,833.611 695.169,834.978 691.6,836.365 688.032,837.772 684.463,839.198 680.894,840.643 677.326,842.109 673.757,843.595 670.189,845.101 666.62,846.627 663.052,848.174 659.483,849.741 655.915,851.33 652.346,852.939 648.778,854.571 645.209,856.224 641.641,857.9 638.072,859.598 634.503,861.319 630.935,863.063 627.366,864.832 623.798,866.624 620.229,868.442 616.661,870.285 613.092,872.153 609.524,874.048 605.955,875.97 602.387,877.92 598.818,879.898 595.249,881.905 591.681,883.941 588.112,886.008 584.544,888.106 580.975,890.236 577.407,892.398 573.838,894.594 570.27,896.825 566.701,899.09 563.133,901.392 559.564,903.732 555.996,906.109 552.427,908.526 548.858,910.983 545.29,913.481 541.721,916.022 538.153,918.606 534.584,921.235 531.016,923.911 527.447,926.634 523.879,929.406 520.31,932.228 516.742,935.101 513.173,938.028 509.605,941.009 506.036,944.047 502.467,947.143 498.899,950.298 495.33,953.514 491.762,956.794 488.193,960.138 484.625,963.55 481.056,967.031 477.488,970.584 473.919,974.209 470.351,977.911 466.782,981.691 463.213,985.552 459.645,989.496 456.076,993.526 452.508,997.645 448.939,1001.86 445.371,1006.16 441.802,1010.57 438.234,1015.07 434.665,1019.68 431.097,1024.4 427.528,1029.24 423.96,1034.19 420.391,1039.26 416.822,1044.46 413.254,1049.79 409.685,1055.25 406.117,1060.85 402.548,1066.61 398.98,1072.51 395.411,1078.57 391.843,1084.8 388.274,1091.2 384.706,1097.77 381.137,1104.54 377.568,1111.5 374,1118.66 370.431,1126.03 366.863,1133.63 363.294,1141.46 359.726,1149.53 356.157,1157.86 352.589,1166.45 349.02,1175.33 345.452,1184.5 341.883,1193.98 338.315,1203.78 334.746,1213.93 331.177,1224.43 "/>
<polyline clip-path="url(#clip241)" style="stroke:#00a9ad; stroke-linecap:round; stroke-linejoin:round; stroke-width:4; stroke-opacity:1; fill:none" points="1169.78,748.585 1166.22,742.978 1162.65,739.231 1159.08,736.115 1155.51,733.352 1151.94,730.823 1148.37,728.464 1144.8,726.237 1141.24,724.114 1137.67,722.078 1134.1,720.114 1130.53,718.214 1126.96,716.368 1123.39,714.571 1119.83,712.816 1116.26,711.1 1112.69,709.418 1109.12,707.767 1105.55,706.145 1101.98,704.55 1098.41,702.979 1094.85,701.43 1091.28,699.901 1087.71,698.392 1084.14,696.9 1080.57,695.425 1077,693.965 1073.43,692.52 1069.87,691.088 1066.3,689.668 1062.73,688.261 1059.16,686.864 1055.59,685.478 1052.02,684.101 1048.45,682.733 1044.89,681.373 1041.32,680.022 1037.75,678.678 1034.18,677.34 1030.61,676.009 1027.04,674.684 1023.47,673.364 1019.91,672.05 1016.34,670.74 1012.77,669.434 1009.2,668.133 1005.63,666.834 1002.06,665.54 998.495,664.248 994.926,662.958 991.358,661.671 987.789,660.386 984.22,659.103 980.652,657.821 977.083,656.541 973.515,655.261 969.946,653.982 966.378,652.703 962.809,651.425 959.241,650.147 955.672,648.868 952.104,647.589 948.535,646.309 944.967,645.028 941.398,643.746 937.829,642.462 934.261,641.177 930.692,639.891 927.124,638.602 923.555,637.311 919.987,636.018 916.418,634.722 912.85,633.424 909.281,632.122 905.713,630.818 902.144,629.51 898.575,628.199 895.007,626.884 891.438,625.566 887.87,624.244 884.301,622.917 880.733,621.586 877.164,620.251 873.596,618.911 870.027,617.567 866.459,616.217 862.89,614.863 859.322,613.503 855.753,612.138 852.184,610.767 848.616,609.39 845.047,608.008 841.479,606.62 837.91,605.225 834.342,603.824 830.773,602.417 827.205,601.003 823.636,599.582 820.068,598.154 816.499,596.719 812.93,595.276 809.362,593.826 805.793,592.369 802.225,590.903 798.656,589.43 795.088,587.948 791.519,586.458 787.951,584.96 784.382,583.453 780.814,581.937 777.245,580.412 773.677,578.878 770.108,577.334 766.539,575.781 762.971,574.218 759.402,572.645 755.834,571.062 752.265,569.468 748.697,567.864 745.128,566.249 741.56,564.623 737.991,562.986 734.423,561.337 730.854,559.676 727.286,558.003 723.717,556.319 720.148,554.621 716.58,552.911 713.011,551.188 709.443,549.452 705.874,547.702 702.306,545.938 698.737,544.16 695.169,542.368 691.6,540.561 688.032,538.739 684.463,536.901 680.894,535.048 677.326,533.179 673.757,531.293 670.189,529.391 666.62,527.471 663.052,525.534 659.483,523.579 655.915,521.605 652.346,519.612 648.778,517.601 645.209,515.569 641.641,513.518 638.072,511.445 634.503,509.352 630.935,507.237 627.366,505.099 623.798,502.939 620.229,500.756 616.661,498.548 613.092,496.316 609.524,494.059 605.955,491.776 602.387,489.466 598.818,487.129 595.249,484.764 591.681,482.371 588.112,479.947 584.544,477.494 580.975,475.01 577.407,472.493 573.838,469.943 570.27,467.36 566.701,464.742 563.133,462.088 559.564,459.397 555.996,456.668 552.427,453.9 548.858,451.092 545.29,448.242 541.721,445.349 538.153,442.412 534.584,439.43 531.016,436.4 527.447,433.323 523.879,430.195 520.31,427.016 516.742,423.783 513.173,420.495 509.605,417.15 506.036,413.746 502.467,410.282 498.899,406.754 495.33,403.161 491.762,399.501 488.193,395.77 484.625,391.967 481.056,388.089 477.488,384.133 473.919,380.097 470.351,375.976 466.782,371.768 463.213,367.47 459.645,363.078 456.076,358.588 452.508,353.997 448.939,349.299 445.371,344.492 441.802,339.57 438.234,334.529 434.665,329.363 431.097,324.067 427.528,318.636 423.96,313.063 420.391,307.343 416.822,301.468 413.254,295.431 409.685,289.225 406.117,282.841 402.548,276.273 398.98,269.509 395.411,262.541 391.843,255.359 388.274,247.951 384.706,240.306 381.137,232.412 377.568,224.256 374,215.822 370.431,207.097 366.863,198.064 363.294,188.704 359.726,179.001 356.157,168.933 352.589,158.479 349.02,147.615 345.452,136.315 341.883,124.554 338.315,112.3 334.746,99.5227 331.177,86.1857 "/>
<polyline clip-path="url(#clip241)" style="stroke:#ed5d92; stroke-linecap:round; stroke-linejoin:round; stroke-width:4; stroke-opacity:1; fill:none" points="987.789,785.993 984.22,778.874 980.652,777.608 977.083,776.45 973.515,775.343 969.946,774.26 966.378,773.187 962.809,772.117 959.241,771.043 955.672,769.963 952.104,768.873 948.535,767.773 944.967,766.661 941.398,765.535 937.829,764.397 934.261,763.244 930.692,762.077 927.124,760.895 923.555,759.698 919.987,758.486 916.418,757.259 912.85,756.017 909.281,754.759 905.713,753.486 902.144,752.198 898.575,750.894 895.007,749.574 891.438,748.239 887.87,746.888 884.301,745.522 880.733,744.14 877.164,742.742 873.596,741.328 870.027,739.899 866.459,738.454 862.89,736.993 859.322,735.517 855.753,734.024 852.184,732.516 848.616,730.992 845.047,729.452 841.479,727.896 837.91,726.324 834.342,724.736 830.773,723.133 827.205,721.513 823.636,719.877 820.068,718.226 816.499,716.558 812.93,714.875 809.362,713.175 805.793,711.46 802.225,709.729 798.656,707.982 795.088,706.22 791.519,704.441 787.951,702.647 784.382,700.837 780.814,699.012 777.245,697.171 773.677,695.315 770.108,693.444 766.539,691.557 762.971,689.655 759.402,687.738 755.834,685.806 752.265,683.86 748.697,681.898 745.128,679.923 741.56,677.932 737.991,675.928 734.423,673.909 730.854,671.876 727.286,669.829 723.717,667.769 720.148,665.695 716.58,663.607 713.011,661.506 709.443,659.392 705.874,657.265 702.306,655.125 698.737,652.972 695.169,650.806 691.6,648.628 688.032,646.437 684.463,644.234 680.894,642.018 677.326,639.79 673.757,637.549 670.189,635.297 666.62,633.031 663.052,630.753 659.483,628.463 655.915,626.16 652.346,623.844 648.778,621.515 645.209,619.173 641.641,616.817 638.072,614.448 634.503,612.064 630.935,609.666 627.366,607.253 623.798,604.824 620.229,602.38 616.661,599.919 613.092,597.44 609.524,594.944 605.955,592.43 602.387,589.896 598.818,587.342 595.249,584.767 591.681,582.17 588.112,579.551 584.544,576.907 580.975,574.239 577.407,571.545 573.838,568.825 570.27,566.075 566.701,563.297 563.133,560.488 559.564,557.647 555.996,554.773 552.427,551.864 548.858,548.919 545.29,545.936 541.721,542.914 538.153,539.852 534.584,536.748 531.016,533.599 527.447,530.405 523.879,527.164 520.31,523.873 516.742,520.532 513.173,517.137 509.605,513.687 506.036,510.181 502.467,506.614 498.899,502.987 495.33,499.295 491.762,495.538 488.193,491.712 484.625,487.814 481.056,483.842 477.488,479.794 473.919,475.666 470.351,471.454 466.782,467.157 463.213,462.771 459.645,458.291 456.076,453.715 452.508,449.038 448.939,444.257 445.371,439.366 441.802,434.363 438.234,429.241 434.665,423.996 431.097,418.623 427.528,413.116 423.96,407.469 420.391,401.676 416.822,395.73 413.254,389.625 409.685,383.353 406.117,376.906 402.548,370.275 398.98,363.453 395.411,356.43 391.843,349.195 388.274,341.737 384.706,334.047 381.137,326.11 377.568,317.915 374,309.448 370.431,300.692 366.863,291.634 363.294,282.254 359.726,272.536 356.157,262.458 352.589,252 349.02,241.139 345.452,229.848 341.883,218.103 338.315,205.873 334.746,193.126 331.177,179.828 "/>
<polyline clip-path="url(#clip241)" style="stroke:#c68125; stroke-linecap:round; stroke-linejoin:round; stroke-width:4; stroke-opacity:1; fill:none" points="987.789,780.42 984.22,787.717 980.652,789.152 977.083,790.47 973.515,791.73 969.946,792.956 966.378,794.162 962.809,795.358 959.241,796.547 955.672,797.733 952.104,798.919 948.535,800.106 944.967,801.296 941.398,802.488 937.829,803.684 934.261,804.883 930.692,806.087 927.124,807.295 923.555,808.508 919.987,809.725 916.418,810.946 912.85,812.172 909.281,813.402 905.713,814.637 902.144,815.877 898.575,817.121 895.007,818.369 891.438,819.622 887.87,820.879 884.301,822.141 880.733,823.406 877.164,824.677 873.596,825.951 870.027,827.231 866.459,828.514 862.89,829.802 859.322,831.095 855.753,832.392 852.184,833.694 848.616,835.001 845.047,836.312 841.479,837.628 837.91,838.95 834.342,840.276 830.773,841.608 827.205,842.945 823.636,844.288 820.068,845.636 816.499,846.99 812.93,848.35 809.362,849.716 805.793,851.089 802.225,852.468 798.656,853.853 795.088,855.245 791.519,856.644 787.951,858.05 784.382,859.464 780.814,860.885 777.245,862.313 773.677,863.75 770.108,865.195 766.539,866.648 762.971,868.11 759.402,869.58 755.834,871.06 752.265,872.549 748.697,874.047 745.128,875.555 741.56,877.073 737.991,878.601 734.423,880.139 730.854,881.689 727.286,883.249 723.717,884.82 720.148,886.403 716.58,887.998 713.011,889.605 709.443,891.224 705.874,892.855 702.306,894.5 698.737,896.158 695.169,897.829 691.6,899.514 688.032,901.214 684.463,902.927 680.894,904.656 677.326,906.4 673.757,908.16 670.189,909.935 666.62,911.727 663.052,913.535 659.483,915.36 655.915,917.204 652.346,919.065 648.778,920.944 645.209,922.842 641.641,924.76 638.072,926.697 634.503,928.655 630.935,930.634 627.366,932.634 623.798,934.656 620.229,936.7 616.661,938.768 613.092,940.859 609.524,942.975 605.955,945.116 602.387,947.282 598.818,949.475 595.249,951.694 591.681,953.942 588.112,956.218 584.544,958.523 580.975,960.859 577.407,963.225 573.838,965.623 570.27,968.054 566.701,970.518 563.133,973.017 559.564,975.551 555.996,978.121 552.427,980.729 548.858,983.375 545.29,986.061 541.721,988.787 538.153,991.555 534.584,994.366 531.016,997.221 527.447,1000.12 523.879,1003.07 520.31,1006.06 516.742,1009.11 513.173,1012.2 509.605,1015.35 506.036,1018.55 502.467,1021.81 498.899,1025.13 495.33,1028.5 491.762,1031.93 488.193,1035.43 484.625,1038.99 481.056,1042.62 477.488,1046.32 473.919,1050.08 470.351,1053.92 466.782,1057.84 463.213,1061.83 459.645,1065.91 456.076,1070.06 452.508,1074.31 448.939,1078.64 445.371,1083.06 441.802,1087.58 438.234,1092.2 434.665,1096.92 431.097,1101.74 427.528,1106.68 423.96,1111.72 420.391,1116.89 416.822,1122.18 413.254,1127.59 409.685,1133.14 406.117,1138.83 402.548,1144.65 398.98,1150.63 395.411,1156.76 391.843,1163.05 388.274,1169.51 384.706,1176.14 381.137,1182.95 377.568,1189.96 374,1197.16 370.431,1204.57 366.863,1212.2 363.294,1220.06 359.726,1228.15 356.157,1236.49 352.589,1245.09 349.02,1253.97 345.452,1263.14 341.883,1272.61 338.315,1282.39 334.746,1292.52 331.177,1302.99 "/>
<polyline clip-path="url(#clip241)" style="stroke:#00a98d; stroke-linecap:round; stroke-linejoin:round; stroke-width:4; stroke-opacity:1; fill:none" points="762.971,765.365 759.402,768.931 755.834,771.384 752.265,773.295 748.697,774.877 745.128,776.237 741.56,777.438 737.991,778.52 734.423,779.511 730.854,780.431 727.286,781.296 723.717,782.118 720.148,782.907 716.58,783.67 713.011,784.415 709.443,785.147 705.874,785.872 702.306,786.595 698.737,787.319 695.169,788.051 691.6,788.792 688.032,789.547 684.463,790.32 680.894,791.114 677.326,791.931 673.757,792.776 670.189,793.651 666.62,794.559 663.052,795.502 659.483,796.482 655.915,797.502 652.346,798.564 648.778,799.668 645.209,800.816 641.641,802.008 638.072,803.247 634.503,804.531 630.935,805.862 627.366,807.238 623.798,808.661 620.229,810.128 616.661,811.641 613.092,813.197 609.524,814.797 605.955,816.44 602.387,818.124 598.818,819.848 595.249,821.613 591.681,823.417 588.112,825.259 584.544,827.138 580.975,829.055 577.407,831.008 573.838,832.998 570.27,835.023 566.701,837.084 563.133,839.181 559.564,841.314 555.996,843.484 552.427,845.69 548.858,847.933 545.29,850.215 541.721,852.535 538.153,854.896 534.584,857.298 531.016,859.741 527.447,862.229 523.879,864.762 520.31,867.341 516.742,869.969 513.173,872.647 509.605,875.377 506.036,878.161 502.467,881 498.899,883.898 495.33,886.857 491.762,889.878 488.193,892.963 484.625,896.117 481.056,899.34 477.488,902.635 473.919,906.006 470.351,909.454 466.782,912.984 463.213,916.596 459.645,920.296 456.076,924.084 452.508,927.966 448.939,931.944 445.371,936.022 441.802,940.203 438.234,944.49 434.665,948.888 431.097,953.401 427.528,958.032 423.96,962.787 420.391,967.669 416.822,972.683 413.254,977.834 409.685,983.128 406.117,988.57 402.548,994.164 398.98,999.919 395.411,1005.84 391.843,1011.93 388.274,1018.2 384.706,1024.66 381.137,1031.31 377.568,1038.17 374,1045.23 370.431,1052.52 366.863,1060.04 363.294,1067.8 359.726,1075.81 356.157,1084.08 352.589,1092.63 349.02,1101.47 345.452,1110.61 341.883,1120.07 338.315,1129.87 334.746,1140.02 331.177,1150.54 "/>
<polyline clip-path="url(#clip241)" style="stroke:#8e971d; stroke-linecap:round; stroke-linejoin:round; stroke-width:4; stroke-opacity:1; fill:none" points="762.971,743.337 759.402,736.961 755.834,731.738 752.265,727.094 748.697,722.816 745.128,718.797 741.56,714.974 737.991,711.306 734.423,707.764 730.854,704.328 727.286,700.982 723.717,697.715 720.148,694.516 716.58,691.378 713.011,688.293 709.443,685.257 705.874,682.263 702.306,679.309 698.737,676.39 695.169,673.503 691.6,670.645 688.032,667.813 684.463,665.004 680.894,662.217 677.326,659.449 673.757,656.697 670.189,653.961 666.62,651.237 663.052,648.525 659.483,645.823 655.915,643.128 652.346,640.44 648.778,637.757 645.209,635.077 641.641,632.399 638.072,629.721 634.503,627.042 630.935,624.361 627.366,621.676 623.798,618.986 620.229,616.289 616.661,613.584 613.092,610.871 609.524,608.146 605.955,605.409 602.387,602.659 598.818,599.895 595.249,597.114 591.681,594.316 588.112,591.499 584.544,588.662 580.975,585.803 577.407,582.921 573.838,580.015 570.27,577.083 566.701,574.124 563.133,571.136 559.564,568.118 555.996,565.068 552.427,561.985 548.858,558.866 545.29,555.712 541.721,552.519 538.153,549.286 534.584,546.012 531.016,542.695 527.447,539.332 523.879,535.923 520.31,532.465 516.742,528.957 513.173,525.396 509.605,521.78 506.036,518.107 502.467,514.376 498.899,510.583 495.33,506.726 491.762,502.804 488.193,498.813 484.625,494.751 481.056,490.615 477.488,486.403 473.919,482.11 470.351,477.735 466.782,473.274 463.213,468.724 459.645,464.08 456.076,459.341 452.508,454.5 448.939,449.555 445.371,444.501 441.802,439.334 438.234,434.049 434.665,428.64 431.097,423.103 427.528,417.432 423.96,411.621 420.391,405.664 416.822,399.555 413.254,393.285 409.685,386.848 406.117,380.237 402.548,373.442 398.98,366.455 395.411,359.266 391.843,351.866 388.274,344.243 384.706,336.386 381.137,328.284 377.568,319.922 374,311.288 370.431,302.365 366.863,293.139 363.294,283.591 359.726,273.703 356.157,263.456 352.589,252.828 349.02,241.796 345.452,230.335 341.883,218.417 338.315,206.014 334.746,193.093 331.177,179.621 "/>
<polyline clip-path="url(#clip241)" style="stroke:#00a8cb; stroke-linecap:round; stroke-linejoin:round; stroke-width:4; stroke-opacity:1; fill:none" points="713.011,786.42 709.443,791.655 705.874,794.949 702.306,797.804 698.737,800.455 695.169,802.99 691.6,805.452 688.032,807.864 684.463,810.24 680.894,812.589 677.326,814.917 673.757,817.229 670.189,819.527 666.62,821.814 663.052,824.092 659.483,826.362 655.915,828.626 652.346,830.885 648.778,833.141 645.209,835.395 641.641,837.648 638.072,839.902 634.503,842.159 630.935,844.42 627.366,846.686 623.798,848.959 620.229,851.24 616.661,853.531 613.092,855.834 609.524,858.149 605.955,860.479 602.387,862.824 598.818,865.187 595.249,867.568 591.681,869.969 588.112,872.391 584.544,874.836 580.975,877.304 577.407,879.798 573.838,882.317 570.27,884.863 566.701,887.437 563.133,890.041 559.564,892.675 555.996,895.341 552.427,898.039 548.858,900.771 545.29,903.538 541.721,906.341 538.153,909.181 534.584,912.059 531.016,914.977 527.447,917.936 523.879,920.938 520.31,923.983 516.742,927.074 513.173,930.212 509.605,933.4 506.036,936.637 502.467,939.928 498.899,943.273 495.33,946.674 491.762,950.134 488.193,953.656 484.625,957.24 481.056,960.89 477.488,964.609 473.919,968.398 470.351,972.26 466.782,976.198 463.213,980.215 459.645,984.313 456.076,988.496 452.508,992.767 448.939,997.129 445.371,1001.58 441.802,1006.14 438.234,1010.79 434.665,1015.55 431.097,1020.42 427.528,1025.4 423.96,1030.5 420.391,1035.71 416.822,1041.06 413.254,1046.53 409.685,1052.14 406.117,1057.9 402.548,1063.79 398.98,1069.85 395.411,1076.05 391.843,1082.43 388.274,1088.98 384.706,1095.7 381.137,1102.61 377.568,1109.72 374,1117.03 370.431,1124.56 366.863,1132.3 363.294,1140.28 359.726,1148.5 356.157,1156.98 352.589,1165.73 349.02,1174.75 345.452,1184.07 341.883,1193.7 338.315,1203.66 334.746,1213.95 331.177,1224.61 "/>
<polyline clip-path="url(#clip241)" style="stroke:#9b7fe8; stroke-linecap:round; stroke-linejoin:round; stroke-width:4; stroke-opacity:1; fill:none" points="713.011,782.289 709.443,777.319 705.874,774.267 702.306,771.633 698.737,769.179 695.169,766.816 691.6,764.5 688.032,762.208 684.463,759.925 680.894,757.64 677.326,755.346 673.757,753.039 670.189,750.715 666.62,748.37 663.052,746.002 659.483,743.609 655.915,741.188 652.346,738.739 648.778,736.258 645.209,733.745 641.641,731.198 638.072,728.615 634.503,725.996 630.935,723.339 627.366,720.643 623.798,717.907 620.229,715.13 616.661,712.311 613.092,709.45 609.524,706.547 605.955,703.6 602.387,700.611 598.818,697.578 595.249,694.503 591.681,691.385 588.112,688.224 584.544,685.022 580.975,681.78 577.407,678.497 573.838,675.175 570.27,671.816 566.701,668.419 563.133,664.987 559.564,661.521 555.996,658.021 552.427,654.489 548.858,650.926 545.29,647.334 541.721,643.713 538.153,640.064 534.584,636.388 531.016,632.685 527.447,628.955 523.879,625.198 520.31,621.414 516.742,617.602 513.173,613.761 509.605,609.889 506.036,605.985 502.467,602.047 498.899,598.071 495.33,594.056 491.762,589.997 488.193,585.892 484.625,581.738 481.056,577.529 477.488,573.262 473.919,568.933 470.351,564.537 466.782,560.07 463.213,555.527 459.645,550.903 456.076,546.193 452.508,541.393 448.939,536.496 445.371,531.497 441.802,526.392 438.234,521.174 434.665,515.837 431.097,510.377 427.528,504.786 423.96,499.058 420.391,493.186 416.822,487.164 413.254,480.984 409.685,474.639 406.117,468.12 402.548,461.42 398.98,454.528 395.411,447.437 391.843,440.135 388.274,432.613 384.706,424.858 381.137,416.859 377.568,408.603 374,400.075 370.431,391.263 366.863,382.149 363.294,372.716 359.726,362.947 356.157,352.822 352.589,342.319 349.02,331.417 345.452,320.089 341.883,308.31 338.315,296.051 334.746,283.28 331.177,269.964 "/>
<polyline clip-path="url(#clip241)" style="stroke:#608cf6; stroke-linecap:round; stroke-linejoin:round; stroke-width:4; stroke-opacity:1; fill:none" points="595.249,763.743 591.681,771.023 588.112,775.109 584.544,778.167 580.975,780.701 577.407,782.927 573.838,784.962 570.27,786.879 566.701,788.728 563.133,790.545 559.564,792.357 555.996,794.186 552.427,796.05 548.858,797.961 545.29,799.932 541.721,801.969 538.153,804.078 534.584,806.263 531.016,808.525 527.447,810.865 523.879,813.279 520.31,815.767 516.742,818.324 513.173,820.947 509.605,823.63 506.036,826.371 502.467,829.164 498.899,832.005 495.33,834.893 491.762,837.825 488.193,840.798 484.625,843.812 481.056,846.868 477.488,849.967 473.919,853.11 470.351,856.301 466.782,859.543 463.213,862.84 459.645,866.197 456.076,869.619 452.508,873.112 448.939,876.682 445.371,880.334 441.802,884.075 438.234,887.911 434.665,891.848 431.097,895.893 427.528,900.052 423.96,904.332 420.391,908.738 416.822,913.278 413.254,917.959 409.685,922.785 406.117,927.765 402.548,932.905 398.98,938.213 395.411,943.694 391.843,949.357 388.274,955.21 384.706,961.26 381.137,967.515 377.568,973.985 374,980.678 370.431,987.604 366.863,994.773 363.294,1002.2 359.726,1009.88 356.157,1017.85 352.589,1026.1 349.02,1034.66 345.452,1043.53 341.883,1052.74 338.315,1062.3 334.746,1072.23 331.177,1082.54 "/>
<polyline clip-path="url(#clip241)" style="stroke:#f05f73; stroke-linecap:round; stroke-linejoin:round; stroke-width:4; stroke-opacity:1; fill:none" points="595.249,747.189 591.681,735.6 588.112,727.323 584.544,720.193 580.975,713.708 577.407,707.654 573.838,701.917 570.27,696.426 566.701,691.135 563.133,686.011 559.564,681.028 555.996,676.168 552.427,671.414 548.858,666.753 545.29,662.173 541.721,657.664 538.153,653.218 534.584,648.824 531.016,644.476 527.447,640.165 523.879,635.885 520.31,631.629 516.742,627.389 513.173,623.159 509.605,618.933 506.036,614.703 502.467,610.465 498.899,606.212 495.33,601.937 491.762,597.636 488.193,593.301 484.625,588.928 481.056,584.51 477.488,580.042 473.919,575.518 470.351,570.933 466.782,566.281 463.213,561.557 459.645,556.755 456.076,551.87 452.508,546.896 448.939,541.827 445.371,536.659 441.802,531.384 438.234,525.998 434.665,520.495 431.097,514.868 427.528,509.11 423.96,503.217 420.391,497.18 416.822,490.992 413.254,484.647 409.685,478.137 406.117,471.453 402.548,464.588 398.98,457.531 395.411,450.274 391.843,442.807 388.274,435.119 384.706,427.198 381.137,419.032 377.568,410.61 374,401.916 370.431,392.935 366.863,383.654 363.294,374.053 359.726,364.115 356.157,353.82 352.589,343.148 349.02,332.074 345.452,320.576 341.883,308.625 338.315,296.193 334.746,283.248 331.177,269.756 "/>
<polyline clip-path="url(#clip241)" style="stroke:#dd64b5; stroke-linecap:round; stroke-linejoin:round; stroke-width:4; stroke-opacity:1; fill:none" points="573.838,787.61 570.27,796.821 566.701,767.939 563.133,763.392 559.564,759.16 555.996,755.096 552.427,751.129 548.858,747.22 545.29,743.343 541.721,739.481 538.153,735.62 534.584,731.749 531.016,727.857 527.447,723.933 523.879,719.969 520.31,715.956 516.742,711.885 513.173,707.749 509.605,703.541 506.036,699.257 502.467,694.892 498.899,690.444 495.33,685.911 491.762,681.293 488.193,676.59 484.625,671.806 481.056,666.943 477.488,662.005 473.919,656.996 470.351,651.921 466.782,646.785 463.213,641.592 459.645,636.347 456.076,631.051 452.508,625.709 448.939,620.319 445.371,614.881 441.802,609.393 438.234,603.849 434.665,598.244 431.097,592.57 427.528,586.818 423.96,580.978 420.391,575.038 416.822,568.988 413.254,562.814 409.685,556.505 406.117,550.048 402.548,543.431 398.98,536.641 395.411,529.664 391.843,522.488 388.274,515.1 384.706,507.487 381.137,499.634 377.568,491.528 374,483.153 370.431,474.495 366.863,465.536 363.294,456.259 359.726,446.646 356.157,436.678 352.589,426.332 349.02,415.587 345.452,404.417 341.883,392.797 338.315,380.698 334.746,368.088 331.177,354.935 "/>
<polyline clip-path="url(#clip241)" style="stroke:#e26f46; stroke-linecap:round; stroke-linejoin:round; stroke-width:4; stroke-opacity:1; fill:none" points="566.701,802.376 563.133,807.167 559.564,811.594 555.996,815.799 552.427,819.849 548.858,823.78 545.29,827.613 541.721,831.361 538.153,835.036 534.584,838.646 531.016,842.198 527.447,845.703 523.879,849.167 520.31,852.602 516.742,856.014 513.173,859.415 509.605,862.812 506.036,866.215 502.467,869.632 498.899,873.072 495.33,876.54 491.762,880.043 488.193,883.587 484.625,887.178 481.056,890.82 477.488,894.517 473.919,898.272 470.351,902.09 466.782,905.973 463.213,909.924 459.645,913.947 456.076,918.044 452.508,922.219 448.939,926.476 445.371,930.817 441.802,935.248 438.234,939.773 434.665,944.396 431.097,949.122 427.528,953.956 423.96,958.904 420.391,963.972 416.822,969.165 413.254,974.489 409.685,979.951 406.117,985.556 402.548,991.311 398.98,997.223 395.411,1003.3 391.843,1009.54 388.274,1015.97 384.706,1022.58 381.137,1029.38 377.568,1036.39 374,1043.6 370.431,1051.04 366.863,1058.71 363.294,1066.62 359.726,1074.78 356.157,1083.2 352.589,1091.9 349.02,1100.89 345.452,1110.19 341.883,1119.8 338.315,1129.75 334.746,1140.05 331.177,1150.72 "/>
<polyline clip-path="url(#clip241)" style="stroke:#3da44d; stroke-linecap:round; stroke-linejoin:round; stroke-width:4; stroke-opacity:1; fill:none" points="495.33,777.888 491.762,782.853 488.193,786.993 484.625,790.742 481.056,794.309 477.488,797.816 473.919,801.334 470.351,804.911 466.782,808.572 463.213,812.331 459.645,816.19 456.076,820.146 452.508,824.188 448.939,828.304 445.371,832.479 441.802,836.698 438.234,840.947 434.665,845.216 431.097,849.497 427.528,853.787 423.96,858.088 420.391,862.406 416.822,866.752 413.254,871.14 409.685,875.585 406.117,880.106 402.548,884.721 398.98,889.45 395.411,894.309 391.843,899.318 388.274,904.493 384.706,909.851 381.137,915.406 377.568,921.173 374,927.166 370.431,933.399 366.863,939.885 363.294,946.638 359.726,953.671 356.157,960.997 352.589,968.631 349.02,976.587 345.452,984.88 341.883,993.527 338.315,1002.54 334.746,1011.95 331.177,1021.76 "/>
<polyline clip-path="url(#clip241)" style="stroke:#c271d2; stroke-linecap:round; stroke-linejoin:round; stroke-width:4; stroke-opacity:1; fill:none" points="495.33,723.562 491.762,713.229 488.193,704.031 484.625,695.547 481.056,687.573 477.488,679.995 473.919,672.738 470.351,665.747 466.782,658.982 463.213,652.409 459.645,645.997 456.076,639.719 452.508,633.55 448.939,627.465 445.371,621.443 441.802,615.459 438.234,609.494 434.665,603.525 431.097,597.534 427.528,591.5 423.96,585.407 420.391,579.235 416.822,572.969 413.254,566.592 409.685,560.089 406.117,553.446 402.548,546.647 398.98,539.679 395.411,532.527 391.843,525.179 388.274,517.62 384.706,509.837 381.137,501.815 377.568,493.54 374,484.997 370.431,476.17 366.863,467.042 363.294,457.597 359.726,447.815 356.157,437.676 352.589,427.161 349.02,416.245 345.452,404.904 341.883,393.112 338.315,380.839 334.746,368.056 331.177,354.728 "/>
<polyline clip-path="url(#clip241)" style="stroke:#ac8d18; stroke-linecap:round; stroke-linejoin:round; stroke-width:4; stroke-opacity:1; fill:none" points="488.193,772.581 484.625,763.381 481.056,756.06 477.488,749.42 473.919,743.134 470.351,737.07 466.782,731.155 463.213,725.346 459.645,719.606 456.076,713.902 452.508,708.201 448.939,702.47 445.371,696.677 441.802,690.795 438.234,684.799 434.665,678.674 431.097,672.409 427.528,666.001 423.96,659.453 420.391,652.773 416.822,645.971 413.254,639.061 409.685,632.055 406.117,624.966 402.548,617.801 398.98,610.564 395.411,603.25 391.843,595.849 388.274,588.347 384.706,580.722 381.137,572.949 377.568,565 374,556.849 370.431,548.465 366.863,539.823 363.294,530.893 359.726,521.649 356.157,512.066 352.589,502.115 349.02,491.772 345.452,481.008 341.883,469.794 338.315,458.101 334.746,445.897 331.177,433.148 "/>
<polyline clip-path="url(#clip241)" style="stroke:#00a9ad; stroke-linecap:round; stroke-linejoin:round; stroke-width:4; stroke-opacity:1; fill:none" points="484.625,806.662 481.056,814.239 477.488,821.053 473.919,827.418 470.351,833.458 466.782,839.229 463.213,844.763 459.645,850.084 456.076,855.217 452.508,860.188 448.939,865.029 445.371,869.774 441.802,874.459 438.234,879.119 434.665,883.784 431.097,888.482 427.528,893.235 423.96,898.063 420.391,902.978 416.822,907.994 413.254,913.118 409.685,918.359 406.117,923.724 402.548,929.22 398.98,934.854 395.411,940.634 391.843,946.57 388.274,952.672 384.706,958.951 381.137,965.417 377.568,972.084 374,978.962 370.431,986.063 366.863,993.401 363.294,1000.99 359.726,1008.83 356.157,1016.96 352.589,1025.36 349.02,1034.08 345.452,1043.1 341.883,1052.46 338.315,1062.18 334.746,1072.25 331.177,1082.72 "/>
<polyline clip-path="url(#clip241)" style="stroke:#ed5d92; stroke-linecap:round; stroke-linejoin:round; stroke-width:4; stroke-opacity:1; fill:none" points="438.234,773.563 434.665,783.17 431.097,790.2 427.528,796.37 423.96,802.225 420.391,808.004 416.822,813.823 413.254,819.728 409.685,825.725 406.117,831.799 402.548,837.916 398.98,844.038 395.411,850.126 391.843,856.145 388.274,862.076 384.706,867.914 381.137,873.672 377.568,879.381 374,885.084 370.431,890.832 366.863,896.679 363.294,902.676 359.726,908.87 356.157,915.303 352.589,922.013 349.02,929.031 345.452,936.386 341.883,944.105 338.315,952.212 334.746,960.729 331.177,969.68 "/>
<polyline clip-path="url(#clip241)" style="stroke:#c68125; stroke-linecap:round; stroke-linejoin:round; stroke-width:4; stroke-opacity:1; fill:none" points="431.097,805.506 427.528,817.401 423.96,827.456 420.391,836.614 416.822,845.142 413.254,853.137 409.685,860.64 406.117,867.693 402.548,874.355 398.98,880.711 395.411,886.861 391.843,892.909 388.274,898.944 384.706,905.037 381.137,911.241 377.568,917.592 374,924.112 370.431,930.82 366.863,937.729 363.294,944.854 359.726,952.212 356.157,959.821 352.589,967.703 349.02,975.878 345.452,984.37 341.883,993.199 338.315,1002.39 334.746,1011.96 331.177,1021.93 "/>
<polyline clip-path="url(#clip241)" style="stroke:#00a98d; stroke-linecap:round; stroke-linejoin:round; stroke-width:4; stroke-opacity:1; fill:none" points="427.528,751.621 423.96,741.695 420.391,732.534 416.822,723.842 413.254,715.491 409.685,707.403 406.117,699.507 402.548,691.721 398.98,683.955 395.411,676.121 391.843,668.145 388.274,659.977 384.706,651.595 381.137,642.999 377.568,634.209 374,625.253 370.431,616.162 366.863,606.958 363.294,597.65 359.726,588.226 356.157,578.657 352.589,568.897 349.02,558.889 345.452,548.574 341.883,537.896 338.315,526.798 334.746,515.227 331.177,503.136 "/>
<polyline clip-path="url(#clip241)" style="stroke:#8e971d; stroke-linecap:round; stroke-linejoin:round; stroke-width:4; stroke-opacity:1; fill:none" points="423.96,678.061 420.391,667.81 416.822,658.128 413.254,648.912 409.685,640.08 406.117,631.559 402.548,623.284 398.98,615.189 395.411,607.213 391.843,599.296 388.274,591.383 384.706,583.424 381.137,575.368 377.568,567.174 374,558.802 370.431,550.215 366.863,541.379 363.294,532.264 359.726,522.84 356.157,513.079 352.589,502.954 349.02,492.436 345.452,481.498 341.883,470.111 338.315,458.244 334.746,445.866 331.177,432.942 "/>
<polyline clip-path="url(#clip241)" style="stroke:#00a8cb; stroke-linecap:round; stroke-linejoin:round; stroke-width:4; stroke-opacity:1; fill:none" points="391.843,701.612 388.274,684.997 384.706,670.221 381.137,656.708 377.568,644.173 374,632.424 370.431,621.304 366.863,610.662 363.294,600.35 359.726,590.227 356.157,580.16 352.589,570.029 349.02,559.73 345.452,549.171 341.883,538.276 338.315,526.978 334.746,515.218 331.177,502.942 "/>
<polyline clip-path="url(#clip241)" style="stroke:#9b7fe8; stroke-linecap:round; stroke-linejoin:round; stroke-width:4; stroke-opacity:1; fill:none" points="388.274,800.076 384.706,808.854 381.137,817.436 377.568,826.01 374,834.619 370.431,843.227 366.863,851.761 363.294,860.131 359.726,868.255 356.157,876.083 352.589,883.611 349.02,890.898 345.452,898.046 341.883,905.185 338.315,912.445 334.746,919.942 331.177,927.771 "/>
<polyline clip-path="url(#clip241)" style="stroke:#608cf6; stroke-linecap:round; stroke-linejoin:round; stroke-width:4; stroke-opacity:1; fill:none" points="384.706,836.711 381.137,848.87 377.568,860.032 374,870.282 370.431,879.654 366.863,888.239 363.294,896.22 359.726,903.844 356.157,911.349 352.589,918.914 349.02,926.654 345.452,934.634 341.883,942.891 338.315,951.453 334.746,960.347 331.177,969.606 "/>
<polyline clip-path="url(#clip241)" style="stroke:#f05f73; stroke-linecap:round; stroke-linejoin:round; stroke-width:4; stroke-opacity:1; fill:none" points="384.706,730.341 381.137,717.954 377.568,706.327 374,695.305 370.431,684.775 366.863,674.583 363.294,664.525 359.726,654.392 356.157,644.03 352.589,633.368 349.02,622.409 345.452,611.204 341.883,599.813 338.315,588.278 334.746,576.592 331.177,564.699 "/>
<polyline clip-path="url(#clip241)" style="stroke:#dd64b5; stroke-linecap:round; stroke-linejoin:round; stroke-width:4; stroke-opacity:1; fill:none" points="338.315,906.814 334.746,916.171 331.177,925.247 "/>
</svg>
