<?xml version="1.0" encoding="utf-8"?>
<svg xmlns="http://www.w3.org/2000/svg" xmlns:xlink="http://www.w3.org/1999/xlink" width="600" height="400" viewBox="0 0 2400 1600">
<defs>
  <clipPath id="clip390">
    <rect x="0" y="0" width="2400" height="1600"/>
  </clipPath>
</defs>
<path clip-path="url(#clip390)" d="M0 1600 L2400 1600 L2400 0 L0 0  Z" fill="#ffffff" fill-rule="evenodd" fill-opacity="1"/>
<defs>
  <clipPath id="clip391">
    <rect x="219" y="47" width="2134" height="1377"/>
  </clipPath>
</defs>
<path clip-path="url(#clip390)" d="M219.519 1423.18 L2352.76 1423.18 L2352.76 47.2441 L219.519 47.2441  Z" fill="#ffffff" fill-rule="evenodd" fill-opacity="1"/>
<polyline clip-path="url(#clip391)" style="stroke:#000000; stroke-linecap:round; stroke-linejoin:round; stroke-width:2; stroke-opacity:0.1; fill:none" points="494.185,1423.18 494.185,47.2441 "/>
<polyline clip-path="url(#clip391)" style="stroke:#000000; stroke-linecap:round; stroke-linejoin:round; stroke-width:2; stroke-opacity:0.1; fill:none" points="922.768,1423.18 922.768,47.2441 "/>
<polyline clip-path="url(#clip391)" style="stroke:#000000; stroke-linecap:round; stroke-linejoin:round; stroke-width:2; stroke-opacity:0.1; fill:none" points="1351.35,1423.18 1351.35,47.2441 "/>
<polyline clip-path="url(#clip391)" style="stroke:#000000; stroke-linecap:round; stroke-linejoin:round; stroke-width:2; stroke-opacity:0.1; fill:none" points="1779.93,1423.18 1779.93,47.2441 "/>
<polyline clip-path="url(#clip391)" style="stroke:#000000; stroke-linecap:round; stroke-linejoin:round; stroke-width:2; stroke-opacity:0.1; fill:none" points="2208.52,1423.18 2208.52,47.2441 "/>
<polyline clip-path="url(#clip391)" style="stroke:#000000; stroke-linecap:round; stroke-linejoin:round; stroke-width:2; stroke-opacity:0.1; fill:none" points="219.519,1325.54 2352.76,1325.54 "/>
<polyline clip-path="url(#clip391)" style="stroke:#000000; stroke-linecap:round; stroke-linejoin:round; stroke-width:2; stroke-opacity:0.1; fill:none" points="219.519,1142.87 2352.76,1142.87 "/>
<polyline clip-path="url(#clip391)" style="stroke:#000000; stroke-linecap:round; stroke-linejoin:round; stroke-width:2; stroke-opacity:0.1; fill:none" points="219.519,960.194 2352.76,960.194 "/>
<polyline clip-path="url(#clip391)" style="stroke:#000000; stroke-linecap:round; stroke-linejoin:round; stroke-width:2; stroke-opacity:0.1; fill:none" points="219.519,777.522 2352.76,777.522 "/>
<polyline clip-path="url(#clip391)" style="stroke:#000000; stroke-linecap:round; stroke-linejoin:round; stroke-width:2; stroke-opacity:0.1; fill:none" points="219.519,594.849 2352.76,594.849 "/>
<polyline clip-path="url(#clip391)" style="stroke:#000000; stroke-linecap:round; stroke-linejoin:round; stroke-width:2; stroke-opacity:0.1; fill:none" points="219.519,412.177 2352.76,412.177 "/>
<polyline clip-path="url(#clip391)" style="stroke:#000000; stroke-linecap:round; stroke-linejoin:round; stroke-width:2; stroke-opacity:0.1; fill:none" points="219.519,229.505 2352.76,229.505 "/>
<polyline clip-path="url(#clip390)" style="stroke:#000000; stroke-linecap:round; stroke-linejoin:round; stroke-width:4; stroke-opacity:1; fill:none" points="219.519,1423.18 2352.76,1423.18 "/>
<polyline clip-path="url(#clip390)" style="stroke:#000000; stroke-linecap:round; stroke-linejoin:round; stroke-width:4; stroke-opacity:1; fill:none" points="494.185,1423.18 494.185,1404.28 "/>
<polyline clip-path="url(#clip390)" style="stroke:#000000; stroke-linecap:round; stroke-linejoin:round; stroke-width:4; stroke-opacity:1; fill:none" points="922.768,1423.18 922.768,1404.28 "/>
<polyline clip-path="url(#clip390)" style="stroke:#000000; stroke-linecap:round; stroke-linejoin:round; stroke-width:4; stroke-opacity:1; fill:none" points="1351.35,1423.18 1351.35,1404.28 "/>
<polyline clip-path="url(#clip390)" style="stroke:#000000; stroke-linecap:round; stroke-linejoin:round; stroke-width:4; stroke-opacity:1; fill:none" points="1779.93,1423.18 1779.93,1404.28 "/>
<polyline clip-path="url(#clip390)" style="stroke:#000000; stroke-linecap:round; stroke-linejoin:round; stroke-width:4; stroke-opacity:1; fill:none" points="2208.52,1423.18 2208.52,1404.28 "/>
<path clip-path="url(#clip390)" d="M456.407 1454.1 Q452.796 1454.1 450.968 1457.66 Q449.162 1461.2 449.162 1468.33 Q449.162 1475.44 450.968 1479.01 Q452.796 1482.55 456.407 1482.55 Q460.042 1482.55 461.847 1479.01 Q463.676 1475.44 463.676 1468.33 Q463.676 1461.2 461.847 1457.66 Q460.042 1454.1 456.407 1454.1 M456.407 1450.39 Q462.218 1450.39 465.273 1455 Q468.352 1459.58 468.352 1468.33 Q468.352 1477.06 465.273 1481.67 Q462.218 1486.25 456.407 1486.25 Q450.597 1486.25 447.519 1481.67 Q444.463 1477.06 444.463 1468.33 Q444.463 1459.58 447.519 1455 Q450.597 1450.39 456.407 1450.39 Z" fill="#000000" fill-rule="nonzero" fill-opacity="1" /><path clip-path="url(#clip390)" d="M476.569 1479.7 L481.454 1479.7 L481.454 1485.58 L476.569 1485.58 L476.569 1479.7 Z" fill="#000000" fill-rule="nonzero" fill-opacity="1" /><path clip-path="url(#clip390)" d="M490.458 1451.02 L512.68 1451.02 L512.68 1453.01 L500.134 1485.58 L495.25 1485.58 L507.055 1454.96 L490.458 1454.96 L490.458 1451.02 Z" fill="#000000" fill-rule="nonzero" fill-opacity="1" /><path clip-path="url(#clip390)" d="M532.379 1466.44 Q529.231 1466.44 527.379 1468.59 Q525.551 1470.74 525.551 1474.49 Q525.551 1478.22 527.379 1480.39 Q529.231 1482.55 532.379 1482.55 Q535.527 1482.55 537.356 1480.39 Q539.208 1478.22 539.208 1474.49 Q539.208 1470.74 537.356 1468.59 Q535.527 1466.44 532.379 1466.44 M541.662 1451.78 L541.662 1456.04 Q539.902 1455.21 538.097 1454.77 Q536.314 1454.33 534.555 1454.33 Q529.926 1454.33 527.472 1457.45 Q525.041 1460.58 524.694 1466.9 Q526.06 1464.89 528.12 1463.82 Q530.18 1462.73 532.657 1462.73 Q537.865 1462.73 540.875 1465.9 Q543.907 1469.05 543.907 1474.49 Q543.907 1479.82 540.759 1483.03 Q537.611 1486.25 532.379 1486.25 Q526.384 1486.25 523.213 1481.67 Q520.041 1477.06 520.041 1468.33 Q520.041 1460.14 523.93 1455.28 Q527.819 1450.39 534.37 1450.39 Q536.129 1450.39 537.912 1450.74 Q539.717 1451.09 541.662 1451.78 Z" fill="#000000" fill-rule="nonzero" fill-opacity="1" /><path clip-path="url(#clip390)" d="M885.118 1454.1 Q881.506 1454.1 879.678 1457.66 Q877.872 1461.2 877.872 1468.33 Q877.872 1475.44 879.678 1479.01 Q881.506 1482.55 885.118 1482.55 Q888.752 1482.55 890.557 1479.01 Q892.386 1475.44 892.386 1468.33 Q892.386 1461.2 890.557 1457.66 Q888.752 1454.1 885.118 1454.1 M885.118 1450.39 Q890.928 1450.39 893.983 1455 Q897.062 1459.58 897.062 1468.33 Q897.062 1477.06 893.983 1481.67 Q890.928 1486.25 885.118 1486.25 Q879.307 1486.25 876.229 1481.67 Q873.173 1477.06 873.173 1468.33 Q873.173 1459.58 876.229 1455 Q879.307 1450.39 885.118 1450.39 Z" fill="#000000" fill-rule="nonzero" fill-opacity="1" /><path clip-path="url(#clip390)" d="M905.28 1479.7 L910.164 1479.7 L910.164 1485.58 L905.28 1485.58 L905.28 1479.7 Z" fill="#000000" fill-rule="nonzero" fill-opacity="1" /><path clip-path="url(#clip390)" d="M919.168 1451.02 L941.39 1451.02 L941.39 1453.01 L928.844 1485.58 L923.96 1485.58 L935.765 1454.96 L919.168 1454.96 L919.168 1451.02 Z" fill="#000000" fill-rule="nonzero" fill-opacity="1" /><path clip-path="url(#clip390)" d="M960.511 1469.17 Q957.177 1469.17 955.256 1470.95 Q953.358 1472.73 953.358 1475.86 Q953.358 1478.98 955.256 1480.77 Q957.177 1482.55 960.511 1482.55 Q963.844 1482.55 965.765 1480.77 Q967.687 1478.96 967.687 1475.86 Q967.687 1472.73 965.765 1470.95 Q963.867 1469.17 960.511 1469.17 M955.835 1467.18 Q952.826 1466.44 951.136 1464.38 Q949.469 1462.32 949.469 1459.35 Q949.469 1455.21 952.409 1452.8 Q955.372 1450.39 960.511 1450.39 Q965.673 1450.39 968.613 1452.8 Q971.552 1455.21 971.552 1459.35 Q971.552 1462.32 969.862 1464.38 Q968.196 1466.44 965.21 1467.18 Q968.589 1467.96 970.464 1470.26 Q972.362 1472.55 972.362 1475.86 Q972.362 1480.88 969.284 1483.57 Q966.228 1486.25 960.511 1486.25 Q954.793 1486.25 951.714 1483.57 Q948.659 1480.88 948.659 1475.86 Q948.659 1472.55 950.557 1470.26 Q952.455 1467.96 955.835 1467.18 M954.122 1459.79 Q954.122 1462.48 955.789 1463.98 Q957.478 1465.49 960.511 1465.49 Q963.52 1465.49 965.21 1463.98 Q966.923 1462.48 966.923 1459.79 Q966.923 1457.11 965.21 1455.6 Q963.52 1454.1 960.511 1454.1 Q957.478 1454.1 955.789 1455.6 Q954.122 1457.11 954.122 1459.79 Z" fill="#000000" fill-rule="nonzero" fill-opacity="1" /><path clip-path="url(#clip390)" d="M1313.65 1454.1 Q1310.04 1454.1 1308.21 1457.66 Q1306.41 1461.2 1306.41 1468.33 Q1306.41 1475.44 1308.21 1479.01 Q1310.04 1482.55 1313.65 1482.55 Q1317.29 1482.55 1319.09 1479.01 Q1320.92 1475.44 1320.92 1468.33 Q1320.92 1461.2 1319.09 1457.66 Q1317.29 1454.1 1313.65 1454.1 M1313.65 1450.39 Q1319.46 1450.39 1322.52 1455 Q1325.6 1459.58 1325.6 1468.33 Q1325.6 1477.06 1322.52 1481.67 Q1319.46 1486.25 1313.65 1486.25 Q1307.84 1486.25 1304.77 1481.67 Q1301.71 1477.06 1301.71 1468.33 Q1301.71 1459.58 1304.77 1455 Q1307.84 1450.39 1313.65 1450.39 Z" fill="#000000" fill-rule="nonzero" fill-opacity="1" /><path clip-path="url(#clip390)" d="M1333.82 1479.7 L1338.7 1479.7 L1338.7 1485.58 L1333.82 1485.58 L1333.82 1479.7 Z" fill="#000000" fill-rule="nonzero" fill-opacity="1" /><path clip-path="url(#clip390)" d="M1358.89 1469.17 Q1355.55 1469.17 1353.63 1470.95 Q1351.73 1472.73 1351.73 1475.86 Q1351.73 1478.98 1353.63 1480.77 Q1355.55 1482.55 1358.89 1482.55 Q1362.22 1482.55 1364.14 1480.77 Q1366.06 1478.96 1366.06 1475.86 Q1366.06 1472.73 1364.14 1470.95 Q1362.24 1469.17 1358.89 1469.17 M1354.21 1467.18 Q1351.2 1466.44 1349.51 1464.38 Q1347.84 1462.32 1347.84 1459.35 Q1347.84 1455.21 1350.78 1452.8 Q1353.75 1450.39 1358.89 1450.39 Q1364.05 1450.39 1366.99 1452.8 Q1369.93 1455.21 1369.93 1459.35 Q1369.93 1462.32 1368.24 1464.38 Q1366.57 1466.44 1363.58 1467.18 Q1366.96 1467.96 1368.84 1470.26 Q1370.74 1472.55 1370.74 1475.86 Q1370.74 1480.88 1367.66 1483.57 Q1364.6 1486.25 1358.89 1486.25 Q1353.17 1486.25 1350.09 1483.57 Q1347.03 1480.88 1347.03 1475.86 Q1347.03 1472.55 1348.93 1470.26 Q1350.83 1467.96 1354.21 1467.18 M1352.5 1459.79 Q1352.5 1462.48 1354.16 1463.98 Q1355.85 1465.49 1358.89 1465.49 Q1361.89 1465.49 1363.58 1463.98 Q1365.3 1462.48 1365.3 1459.79 Q1365.3 1457.11 1363.58 1455.6 Q1361.89 1454.1 1358.89 1454.1 Q1355.85 1454.1 1354.16 1455.6 Q1352.5 1457.11 1352.5 1459.79 Z" fill="#000000" fill-rule="nonzero" fill-opacity="1" /><path clip-path="url(#clip390)" d="M1389.05 1454.1 Q1385.44 1454.1 1383.61 1457.66 Q1381.8 1461.2 1381.8 1468.33 Q1381.8 1475.44 1383.61 1479.01 Q1385.44 1482.55 1389.05 1482.55 Q1392.68 1482.55 1394.49 1479.01 Q1396.32 1475.44 1396.32 1468.33 Q1396.32 1461.2 1394.49 1457.66 Q1392.68 1454.1 1389.05 1454.1 M1389.05 1450.39 Q1394.86 1450.39 1397.91 1455 Q1400.99 1459.58 1400.99 1468.33 Q1400.99 1477.06 1397.91 1481.67 Q1394.86 1486.25 1389.05 1486.25 Q1383.24 1486.25 1380.16 1481.67 Q1377.1 1477.06 1377.1 1468.33 Q1377.1 1459.58 1380.16 1455 Q1383.24 1450.39 1389.05 1450.39 Z" fill="#000000" fill-rule="nonzero" fill-opacity="1" /><path clip-path="url(#clip390)" d="M1743.04 1454.1 Q1739.42 1454.1 1737.6 1457.66 Q1735.79 1461.2 1735.79 1468.33 Q1735.79 1475.44 1737.6 1479.01 Q1739.42 1482.55 1743.04 1482.55 Q1746.67 1482.55 1748.48 1479.01 Q1750.3 1475.44 1750.3 1468.33 Q1750.3 1461.2 1748.48 1457.66 Q1746.67 1454.1 1743.04 1454.1 M1743.04 1450.39 Q1748.85 1450.39 1751.9 1455 Q1754.98 1459.58 1754.98 1468.33 Q1754.98 1477.06 1751.9 1481.67 Q1748.85 1486.25 1743.04 1486.25 Q1737.23 1486.25 1734.15 1481.67 Q1731.09 1477.06 1731.09 1468.33 Q1731.09 1459.58 1734.15 1455 Q1737.23 1450.39 1743.04 1450.39 Z" fill="#000000" fill-rule="nonzero" fill-opacity="1" /><path clip-path="url(#clip390)" d="M1763.2 1479.7 L1768.08 1479.7 L1768.08 1485.58 L1763.2 1485.58 L1763.2 1479.7 Z" fill="#000000" fill-rule="nonzero" fill-opacity="1" /><path clip-path="url(#clip390)" d="M1788.27 1469.17 Q1784.93 1469.17 1783.01 1470.95 Q1781.11 1472.73 1781.11 1475.86 Q1781.11 1478.98 1783.01 1480.77 Q1784.93 1482.55 1788.27 1482.55 Q1791.6 1482.55 1793.52 1480.77 Q1795.44 1478.96 1795.44 1475.86 Q1795.44 1472.73 1793.52 1470.95 Q1791.62 1469.17 1788.27 1469.17 M1783.59 1467.18 Q1780.58 1466.44 1778.89 1464.38 Q1777.23 1462.32 1777.23 1459.35 Q1777.23 1455.21 1780.16 1452.8 Q1783.13 1450.39 1788.27 1450.39 Q1793.43 1450.39 1796.37 1452.8 Q1799.31 1455.21 1799.31 1459.35 Q1799.31 1462.32 1797.62 1464.38 Q1795.95 1466.44 1792.97 1467.18 Q1796.35 1467.96 1798.22 1470.26 Q1800.12 1472.55 1800.12 1475.86 Q1800.12 1480.88 1797.04 1483.57 Q1793.98 1486.25 1788.27 1486.25 Q1782.55 1486.25 1779.47 1483.57 Q1776.41 1480.88 1776.41 1475.86 Q1776.41 1472.55 1778.31 1470.26 Q1780.21 1467.96 1783.59 1467.18 M1781.88 1459.79 Q1781.88 1462.48 1783.54 1463.98 Q1785.23 1465.49 1788.27 1465.49 Q1791.28 1465.49 1792.97 1463.98 Q1794.68 1462.48 1794.68 1459.79 Q1794.68 1457.11 1792.97 1455.6 Q1791.28 1454.1 1788.27 1454.1 Q1785.23 1454.1 1783.54 1455.6 Q1781.88 1457.11 1781.88 1459.79 Z" fill="#000000" fill-rule="nonzero" fill-opacity="1" /><path clip-path="url(#clip390)" d="M1812.46 1481.64 L1828.78 1481.64 L1828.78 1485.58 L1806.83 1485.58 L1806.83 1481.64 Q1809.49 1478.89 1814.08 1474.26 Q1818.68 1469.61 1819.86 1468.27 Q1822.11 1465.74 1822.99 1464.01 Q1823.89 1462.25 1823.89 1460.56 Q1823.89 1457.8 1821.95 1456.07 Q1820.03 1454.33 1816.92 1454.33 Q1814.72 1454.33 1812.27 1455.09 Q1809.84 1455.86 1807.06 1457.41 L1807.06 1452.69 Q1809.89 1451.55 1812.34 1450.97 Q1814.79 1450.39 1816.83 1450.39 Q1822.2 1450.39 1825.4 1453.08 Q1828.59 1455.77 1828.59 1460.26 Q1828.59 1462.39 1827.78 1464.31 Q1826.99 1466.2 1824.89 1468.8 Q1824.31 1469.47 1821.21 1472.69 Q1818.1 1475.88 1812.46 1481.64 Z" fill="#000000" fill-rule="nonzero" fill-opacity="1" /><path clip-path="url(#clip390)" d="M2170.58 1454.1 Q2166.97 1454.1 2165.14 1457.66 Q2163.33 1461.2 2163.33 1468.33 Q2163.33 1475.44 2165.14 1479.01 Q2166.97 1482.55 2170.58 1482.55 Q2174.21 1482.55 2176.02 1479.01 Q2177.85 1475.44 2177.85 1468.33 Q2177.85 1461.2 2176.02 1457.66 Q2174.21 1454.1 2170.58 1454.1 M2170.58 1450.39 Q2176.39 1450.39 2179.44 1455 Q2182.52 1459.58 2182.52 1468.33 Q2182.52 1477.06 2179.44 1481.67 Q2176.39 1486.25 2170.58 1486.25 Q2164.77 1486.25 2161.69 1481.67 Q2158.63 1477.06 2158.63 1468.33 Q2158.63 1459.58 2161.69 1455 Q2164.77 1450.39 2170.58 1450.39 Z" fill="#000000" fill-rule="nonzero" fill-opacity="1" /><path clip-path="url(#clip390)" d="M2190.74 1479.7 L2195.62 1479.7 L2195.62 1485.58 L2190.74 1485.58 L2190.74 1479.7 Z" fill="#000000" fill-rule="nonzero" fill-opacity="1" /><path clip-path="url(#clip390)" d="M2215.81 1469.17 Q2212.47 1469.17 2210.55 1470.95 Q2208.66 1472.73 2208.66 1475.86 Q2208.66 1478.98 2210.55 1480.77 Q2212.47 1482.55 2215.81 1482.55 Q2219.14 1482.55 2221.06 1480.77 Q2222.98 1478.96 2222.98 1475.86 Q2222.98 1472.73 2221.06 1470.95 Q2219.16 1469.17 2215.81 1469.17 M2211.13 1467.18 Q2208.12 1466.44 2206.43 1464.38 Q2204.77 1462.32 2204.77 1459.35 Q2204.77 1455.21 2207.71 1452.8 Q2210.67 1450.39 2215.81 1450.39 Q2220.97 1450.39 2223.91 1452.8 Q2226.85 1455.21 2226.85 1459.35 Q2226.85 1462.32 2225.16 1464.38 Q2223.49 1466.44 2220.51 1467.18 Q2223.89 1467.96 2225.76 1470.26 Q2227.66 1472.55 2227.66 1475.86 Q2227.66 1480.88 2224.58 1483.57 Q2221.53 1486.25 2215.81 1486.25 Q2210.09 1486.25 2207.01 1483.57 Q2203.96 1480.88 2203.96 1475.86 Q2203.96 1472.55 2205.85 1470.26 Q2207.75 1467.96 2211.13 1467.18 M2209.42 1459.79 Q2209.42 1462.48 2211.09 1463.98 Q2212.78 1465.49 2215.81 1465.49 Q2218.82 1465.49 2220.51 1463.98 Q2222.22 1462.48 2222.22 1459.79 Q2222.22 1457.11 2220.51 1455.6 Q2218.82 1454.1 2215.81 1454.1 Q2212.78 1454.1 2211.09 1455.6 Q2209.42 1457.11 2209.42 1459.79 Z" fill="#000000" fill-rule="nonzero" fill-opacity="1" /><path clip-path="url(#clip390)" d="M2248.82 1455.09 L2237.01 1473.54 L2248.82 1473.54 L2248.82 1455.09 M2247.59 1451.02 L2253.47 1451.02 L2253.47 1473.54 L2258.4 1473.54 L2258.4 1477.43 L2253.47 1477.43 L2253.47 1485.58 L2248.82 1485.58 L2248.82 1477.43 L2233.22 1477.43 L2233.22 1472.92 L2247.59 1451.02 Z" fill="#000000" fill-rule="nonzero" fill-opacity="1" /><path clip-path="url(#clip390)" d="M1251.71 1518.52 L1257.6 1518.52 L1257.6 1547.77 L1275.08 1532.4 L1282.56 1532.4 L1263.65 1549.07 L1283.35 1568.04 L1275.71 1568.04 L1257.6 1550.63 L1257.6 1568.04 L1251.71 1568.04 L1251.71 1518.52 Z" fill="#000000" fill-rule="nonzero" fill-opacity="1" /><path clip-path="url(#clip390)" d="M1304.26 1545.48 Q1299.68 1545.48 1297.04 1547.93 Q1294.43 1550.38 1294.43 1554.68 Q1294.43 1558.97 1297.04 1561.42 Q1299.68 1563.87 1304.26 1563.87 Q1308.85 1563.87 1311.49 1561.42 Q1314.13 1558.94 1314.13 1554.68 Q1314.13 1550.38 1311.49 1547.93 Q1308.88 1545.48 1304.26 1545.48 M1297.83 1542.74 Q1293.7 1541.72 1291.37 1538.89 Q1289.08 1536.06 1289.08 1531.98 Q1289.08 1526.28 1293.12 1522.97 Q1297.2 1519.66 1304.26 1519.66 Q1311.36 1519.66 1315.4 1522.97 Q1319.45 1526.28 1319.45 1531.98 Q1319.45 1536.06 1317.12 1538.89 Q1314.83 1541.72 1310.73 1542.74 Q1315.37 1543.82 1317.95 1546.97 Q1320.56 1550.12 1320.56 1554.68 Q1320.56 1561.58 1316.33 1565.27 Q1312.13 1568.97 1304.26 1568.97 Q1296.4 1568.97 1292.17 1565.27 Q1287.97 1561.58 1287.97 1554.68 Q1287.97 1550.12 1290.58 1546.97 Q1293.19 1543.82 1297.83 1542.74 M1295.48 1532.59 Q1295.48 1536.28 1297.77 1538.35 Q1300.09 1540.42 1304.26 1540.42 Q1308.4 1540.42 1310.73 1538.35 Q1313.08 1536.28 1313.08 1532.59 Q1313.08 1528.89 1310.73 1526.83 Q1308.4 1524.76 1304.26 1524.76 Q1300.09 1524.76 1297.77 1526.83 Q1295.48 1528.89 1295.48 1532.59 Z" fill="#000000" fill-rule="nonzero" fill-opacity="1" /><polyline clip-path="url(#clip390)" style="stroke:#000000; stroke-linecap:round; stroke-linejoin:round; stroke-width:4; stroke-opacity:1; fill:none" points="219.519,1423.18 219.519,47.2441 "/>
<polyline clip-path="url(#clip390)" style="stroke:#000000; stroke-linecap:round; stroke-linejoin:round; stroke-width:4; stroke-opacity:1; fill:none" points="219.519,1325.54 238.417,1325.54 "/>
<polyline clip-path="url(#clip390)" style="stroke:#000000; stroke-linecap:round; stroke-linejoin:round; stroke-width:4; stroke-opacity:1; fill:none" points="219.519,1142.87 238.417,1142.87 "/>
<polyline clip-path="url(#clip390)" style="stroke:#000000; stroke-linecap:round; stroke-linejoin:round; stroke-width:4; stroke-opacity:1; fill:none" points="219.519,960.194 238.417,960.194 "/>
<polyline clip-path="url(#clip390)" style="stroke:#000000; stroke-linecap:round; stroke-linejoin:round; stroke-width:4; stroke-opacity:1; fill:none" points="219.519,777.522 238.417,777.522 "/>
<polyline clip-path="url(#clip390)" style="stroke:#000000; stroke-linecap:round; stroke-linejoin:round; stroke-width:4; stroke-opacity:1; fill:none" points="219.519,594.849 238.417,594.849 "/>
<polyline clip-path="url(#clip390)" style="stroke:#000000; stroke-linecap:round; stroke-linejoin:round; stroke-width:4; stroke-opacity:1; fill:none" points="219.519,412.177 238.417,412.177 "/>
<polyline clip-path="url(#clip390)" style="stroke:#000000; stroke-linecap:round; stroke-linejoin:round; stroke-width:4; stroke-opacity:1; fill:none" points="219.519,229.505 238.417,229.505 "/>
<path clip-path="url(#clip390)" d="M127.917 1323.68 Q124.769 1323.68 122.918 1325.83 Q121.089 1327.98 121.089 1331.73 Q121.089 1335.46 122.918 1337.63 Q124.769 1339.79 127.917 1339.79 Q131.066 1339.79 132.894 1337.63 Q134.746 1335.46 134.746 1331.73 Q134.746 1327.98 132.894 1325.83 Q131.066 1323.68 127.917 1323.68 M137.2 1309.02 L137.2 1313.28 Q135.441 1312.45 133.635 1312.01 Q131.853 1311.57 130.093 1311.57 Q125.464 1311.57 123.01 1314.69 Q120.58 1317.82 120.232 1324.14 Q121.598 1322.12 123.658 1321.06 Q125.718 1319.97 128.195 1319.97 Q133.404 1319.97 136.413 1323.14 Q139.445 1326.29 139.445 1331.73 Q139.445 1337.05 136.297 1340.27 Q133.149 1343.49 127.917 1343.49 Q121.922 1343.49 118.751 1338.91 Q115.58 1334.3 115.58 1325.57 Q115.58 1317.38 119.468 1312.52 Q123.357 1307.63 129.908 1307.63 Q131.667 1307.63 133.45 1307.98 Q135.255 1308.33 137.2 1309.02 Z" fill="#000000" fill-rule="nonzero" fill-opacity="1" /><path clip-path="url(#clip390)" d="M147.501 1336.94 L152.385 1336.94 L152.385 1342.82 L147.501 1342.82 L147.501 1336.94 Z" fill="#000000" fill-rule="nonzero" fill-opacity="1" /><path clip-path="url(#clip390)" d="M162.616 1308.26 L180.973 1308.26 L180.973 1312.19 L166.899 1312.19 L166.899 1320.67 Q167.917 1320.32 168.936 1320.16 Q169.954 1319.97 170.973 1319.97 Q176.76 1319.97 180.139 1323.14 Q183.519 1326.31 183.519 1331.73 Q183.519 1337.31 180.047 1340.41 Q176.575 1343.49 170.255 1343.49 Q168.079 1343.49 165.811 1343.12 Q163.565 1342.75 161.158 1342.01 L161.158 1337.31 Q163.241 1338.44 165.464 1339 Q167.686 1339.55 170.163 1339.55 Q174.167 1339.55 176.505 1337.45 Q178.843 1335.34 178.843 1331.73 Q178.843 1328.12 176.505 1326.01 Q174.167 1323.91 170.163 1323.91 Q168.288 1323.91 166.413 1324.32 Q164.561 1324.74 162.616 1325.62 L162.616 1308.26 Z" fill="#000000" fill-rule="nonzero" fill-opacity="1" /><path clip-path="url(#clip390)" d="M115.163 1125.59 L137.385 1125.59 L137.385 1127.58 L124.839 1160.15 L119.955 1160.15 L131.76 1129.52 L115.163 1129.52 L115.163 1125.59 Z" fill="#000000" fill-rule="nonzero" fill-opacity="1" /><path clip-path="url(#clip390)" d="M146.505 1154.27 L151.39 1154.27 L151.39 1160.15 L146.505 1160.15 L146.505 1154.27 Z" fill="#000000" fill-rule="nonzero" fill-opacity="1" /><path clip-path="url(#clip390)" d="M171.575 1128.67 Q167.964 1128.67 166.135 1132.23 Q164.329 1135.77 164.329 1142.9 Q164.329 1150.01 166.135 1153.57 Q167.964 1157.11 171.575 1157.11 Q175.209 1157.11 177.014 1153.57 Q178.843 1150.01 178.843 1142.9 Q178.843 1135.77 177.014 1132.23 Q175.209 1128.67 171.575 1128.67 M171.575 1124.96 Q177.385 1124.96 180.44 1129.57 Q183.519 1134.15 183.519 1142.9 Q183.519 1151.63 180.44 1156.23 Q177.385 1160.82 171.575 1160.82 Q165.765 1160.82 162.686 1156.23 Q159.63 1151.63 159.63 1142.9 Q159.63 1134.15 162.686 1129.57 Q165.765 1124.96 171.575 1124.96 Z" fill="#000000" fill-rule="nonzero" fill-opacity="1" /><path clip-path="url(#clip390)" d="M116.158 942.914 L138.38 942.914 L138.38 944.905 L125.834 977.474 L120.95 977.474 L132.755 946.849 L116.158 946.849 L116.158 942.914 Z" fill="#000000" fill-rule="nonzero" fill-opacity="1" /><path clip-path="url(#clip390)" d="M147.501 971.594 L152.385 971.594 L152.385 977.474 L147.501 977.474 L147.501 971.594 Z" fill="#000000" fill-rule="nonzero" fill-opacity="1" /><path clip-path="url(#clip390)" d="M162.616 942.914 L180.973 942.914 L180.973 946.849 L166.899 946.849 L166.899 955.321 Q167.917 954.974 168.936 954.812 Q169.954 954.627 170.973 954.627 Q176.76 954.627 180.139 957.798 Q183.519 960.97 183.519 966.386 Q183.519 971.965 180.047 975.067 Q176.575 978.145 170.255 978.145 Q168.079 978.145 165.811 977.775 Q163.565 977.405 161.158 976.664 L161.158 971.965 Q163.241 973.099 165.464 973.655 Q167.686 974.21 170.163 974.21 Q174.167 974.21 176.505 972.104 Q178.843 969.997 178.843 966.386 Q178.843 962.775 176.505 960.669 Q174.167 958.562 170.163 958.562 Q168.288 958.562 166.413 958.979 Q164.561 959.395 162.616 960.275 L162.616 942.914 Z" fill="#000000" fill-rule="nonzero" fill-opacity="1" /><path clip-path="url(#clip390)" d="M126.343 778.39 Q123.01 778.39 121.089 780.172 Q119.191 781.955 119.191 785.08 Q119.191 788.205 121.089 789.987 Q123.01 791.769 126.343 791.769 Q129.677 791.769 131.598 789.987 Q133.519 788.181 133.519 785.08 Q133.519 781.955 131.598 780.172 Q129.7 778.39 126.343 778.39 M121.668 776.399 Q118.658 775.658 116.968 773.598 Q115.302 771.538 115.302 768.575 Q115.302 764.432 118.242 762.024 Q121.205 759.617 126.343 759.617 Q131.505 759.617 134.445 762.024 Q137.385 764.432 137.385 768.575 Q137.385 771.538 135.695 773.598 Q134.029 775.658 131.042 776.399 Q134.422 777.186 136.297 779.478 Q138.195 781.769 138.195 785.08 Q138.195 790.103 135.117 792.788 Q132.061 795.473 126.343 795.473 Q120.626 795.473 117.547 792.788 Q114.492 790.103 114.492 785.08 Q114.492 781.769 116.39 779.478 Q118.288 777.186 121.668 776.399 M119.955 769.015 Q119.955 771.7 121.621 773.205 Q123.311 774.709 126.343 774.709 Q129.353 774.709 131.042 773.205 Q132.755 771.7 132.755 769.015 Q132.755 766.33 131.042 764.825 Q129.353 763.32 126.343 763.32 Q123.311 763.32 121.621 764.825 Q119.955 766.33 119.955 769.015 Z" fill="#000000" fill-rule="nonzero" fill-opacity="1" /><path clip-path="url(#clip390)" d="M146.505 788.922 L151.39 788.922 L151.39 794.802 L146.505 794.802 L146.505 788.922 Z" fill="#000000" fill-rule="nonzero" fill-opacity="1" /><path clip-path="url(#clip390)" d="M171.575 763.32 Q167.964 763.32 166.135 766.885 Q164.329 770.427 164.329 777.556 Q164.329 784.663 166.135 788.228 Q167.964 791.769 171.575 791.769 Q175.209 791.769 177.014 788.228 Q178.843 784.663 178.843 777.556 Q178.843 770.427 177.014 766.885 Q175.209 763.32 171.575 763.32 M171.575 759.617 Q177.385 759.617 180.44 764.223 Q183.519 768.807 183.519 777.556 Q183.519 786.283 180.44 790.89 Q177.385 795.473 171.575 795.473 Q165.765 795.473 162.686 790.89 Q159.63 786.283 159.63 777.556 Q159.63 768.807 162.686 764.223 Q165.765 759.617 171.575 759.617 Z" fill="#000000" fill-rule="nonzero" fill-opacity="1" /><path clip-path="url(#clip390)" d="M127.339 595.718 Q124.005 595.718 122.084 597.5 Q120.186 599.282 120.186 602.407 Q120.186 605.532 122.084 607.315 Q124.005 609.097 127.339 609.097 Q130.672 609.097 132.593 607.315 Q134.515 605.509 134.515 602.407 Q134.515 599.282 132.593 597.5 Q130.695 595.718 127.339 595.718 M122.663 593.727 Q119.654 592.986 117.964 590.926 Q116.297 588.866 116.297 585.903 Q116.297 581.759 119.237 579.352 Q122.2 576.944 127.339 576.944 Q132.501 576.944 135.441 579.352 Q138.38 581.759 138.38 585.903 Q138.38 588.866 136.691 590.926 Q135.024 592.986 132.038 593.727 Q135.417 594.514 137.292 596.805 Q139.191 599.097 139.191 602.407 Q139.191 607.43 136.112 610.116 Q133.056 612.801 127.339 612.801 Q121.621 612.801 118.543 610.116 Q115.487 607.43 115.487 602.407 Q115.487 599.097 117.385 596.805 Q119.283 594.514 122.663 593.727 M120.95 586.343 Q120.95 589.028 122.617 590.532 Q124.306 592.037 127.339 592.037 Q130.348 592.037 132.038 590.532 Q133.751 589.028 133.751 586.343 Q133.751 583.657 132.038 582.153 Q130.348 580.648 127.339 580.648 Q124.306 580.648 122.617 582.153 Q120.95 583.657 120.95 586.343 Z" fill="#000000" fill-rule="nonzero" fill-opacity="1" /><path clip-path="url(#clip390)" d="M147.501 606.25 L152.385 606.25 L152.385 612.129 L147.501 612.129 L147.501 606.25 Z" fill="#000000" fill-rule="nonzero" fill-opacity="1" /><path clip-path="url(#clip390)" d="M162.616 577.569 L180.973 577.569 L180.973 581.505 L166.899 581.505 L166.899 589.977 Q167.917 589.63 168.936 589.468 Q169.954 589.282 170.973 589.282 Q176.76 589.282 180.139 592.454 Q183.519 595.625 183.519 601.042 Q183.519 606.62 180.047 609.722 Q176.575 612.801 170.255 612.801 Q168.079 612.801 165.811 612.43 Q163.565 612.06 161.158 611.319 L161.158 606.62 Q163.241 607.754 165.464 608.31 Q167.686 608.866 170.163 608.866 Q174.167 608.866 176.505 606.759 Q178.843 604.653 178.843 601.042 Q178.843 597.43 176.505 595.324 Q174.167 593.218 170.163 593.218 Q168.288 593.218 166.413 593.634 Q164.561 594.051 162.616 594.93 L162.616 577.569 Z" fill="#000000" fill-rule="nonzero" fill-opacity="1" /><path clip-path="url(#clip390)" d="M116.482 428.74 L116.482 424.48 Q118.242 425.314 120.047 425.753 Q121.853 426.193 123.589 426.193 Q128.218 426.193 130.649 423.091 Q133.103 419.966 133.45 413.624 Q132.107 415.615 130.047 416.679 Q127.987 417.744 125.487 417.744 Q120.302 417.744 117.269 414.619 Q114.26 411.471 114.26 406.031 Q114.26 400.707 117.408 397.49 Q120.556 394.272 125.788 394.272 Q131.783 394.272 134.931 398.879 Q138.103 403.462 138.103 412.212 Q138.103 420.383 134.214 425.267 Q130.348 430.128 123.797 430.128 Q122.038 430.128 120.232 429.781 Q118.427 429.434 116.482 428.74 M125.788 414.087 Q128.936 414.087 130.765 411.934 Q132.617 409.781 132.617 406.031 Q132.617 402.305 130.765 400.152 Q128.936 397.976 125.788 397.976 Q122.64 397.976 120.788 400.152 Q118.959 402.305 118.959 406.031 Q118.959 409.781 120.788 411.934 Q122.64 414.087 125.788 414.087 Z" fill="#000000" fill-rule="nonzero" fill-opacity="1" /><path clip-path="url(#clip390)" d="M146.505 423.578 L151.39 423.578 L151.39 429.457 L146.505 429.457 L146.505 423.578 Z" fill="#000000" fill-rule="nonzero" fill-opacity="1" /><path clip-path="url(#clip390)" d="M171.575 397.976 Q167.964 397.976 166.135 401.541 Q164.329 405.082 164.329 412.212 Q164.329 419.318 166.135 422.883 Q167.964 426.425 171.575 426.425 Q175.209 426.425 177.014 422.883 Q178.843 419.318 178.843 412.212 Q178.843 405.082 177.014 401.541 Q175.209 397.976 171.575 397.976 M171.575 394.272 Q177.385 394.272 180.44 398.879 Q183.519 403.462 183.519 412.212 Q183.519 420.939 180.44 425.545 Q177.385 430.128 171.575 430.128 Q165.765 430.128 162.686 425.545 Q159.63 420.939 159.63 412.212 Q159.63 403.462 162.686 398.879 Q165.765 394.272 171.575 394.272 Z" fill="#000000" fill-rule="nonzero" fill-opacity="1" /><path clip-path="url(#clip390)" d="M117.478 246.067 L117.478 241.808 Q119.237 242.641 121.043 243.081 Q122.848 243.521 124.584 243.521 Q129.214 243.521 131.644 240.419 Q134.098 237.294 134.445 230.952 Q133.103 232.942 131.042 234.007 Q128.982 235.072 126.482 235.072 Q121.297 235.072 118.265 231.947 Q115.256 228.799 115.256 223.359 Q115.256 218.035 118.404 214.817 Q121.552 211.6 126.783 211.6 Q132.779 211.6 135.927 216.206 Q139.098 220.79 139.098 229.54 Q139.098 237.711 135.209 242.595 Q131.343 247.456 124.793 247.456 Q123.033 247.456 121.228 247.109 Q119.422 246.762 117.478 246.067 M126.783 231.415 Q129.931 231.415 131.76 229.262 Q133.612 227.109 133.612 223.359 Q133.612 219.632 131.76 217.479 Q129.931 215.304 126.783 215.304 Q123.635 215.304 121.783 217.479 Q119.955 219.632 119.955 223.359 Q119.955 227.109 121.783 229.262 Q123.635 231.415 126.783 231.415 Z" fill="#000000" fill-rule="nonzero" fill-opacity="1" /><path clip-path="url(#clip390)" d="M147.501 240.905 L152.385 240.905 L152.385 246.785 L147.501 246.785 L147.501 240.905 Z" fill="#000000" fill-rule="nonzero" fill-opacity="1" /><path clip-path="url(#clip390)" d="M162.616 212.225 L180.973 212.225 L180.973 216.16 L166.899 216.16 L166.899 224.632 Q167.917 224.285 168.936 224.123 Q169.954 223.938 170.973 223.938 Q176.76 223.938 180.139 227.109 Q183.519 230.28 183.519 235.697 Q183.519 241.276 180.047 244.377 Q176.575 247.456 170.255 247.456 Q168.079 247.456 165.811 247.086 Q163.565 246.715 161.158 245.975 L161.158 241.276 Q163.241 242.41 165.464 242.965 Q167.686 243.521 170.163 243.521 Q174.167 243.521 176.505 241.415 Q178.843 239.308 178.843 235.697 Q178.843 232.086 176.505 229.979 Q174.167 227.873 170.163 227.873 Q168.288 227.873 166.413 228.29 Q164.561 228.706 162.616 229.586 L162.616 212.225 Z" fill="#000000" fill-rule="nonzero" fill-opacity="1" /><path clip-path="url(#clip390)" d="M35.1993 774.218 Q31.2526 772.022 29.3747 768.966 Q27.4968 765.911 27.4968 761.773 Q27.4968 756.203 31.4117 753.179 Q35.2948 750.155 42.4881 750.155 L64.0042 750.155 L64.0042 756.044 L42.679 756.044 Q37.5546 756.044 35.072 757.858 Q32.5894 759.672 32.5894 763.396 Q32.5894 767.948 35.6131 770.589 Q38.6368 773.231 43.8567 773.231 L64.0042 773.231 L64.0042 779.119 L42.679 779.119 Q37.5228 779.119 35.072 780.934 Q32.5894 782.748 32.5894 786.535 Q32.5894 791.023 35.6449 793.665 Q38.6686 796.307 43.8567 796.307 L64.0042 796.307 L64.0042 802.195 L28.3562 802.195 L28.3562 796.307 L33.8944 796.307 Q30.616 794.302 29.0564 791.501 Q27.4968 788.7 27.4968 784.849 Q27.4968 780.965 29.4702 778.26 Q31.4436 775.523 35.1993 774.218 Z" fill="#000000" fill-rule="nonzero" fill-opacity="1" /><path clip-path="url(#clip390)" d="M46.0847 722.274 Q46.0847 729.371 47.7079 732.109 Q49.3312 734.846 53.2461 734.846 Q56.3653 734.846 58.2114 732.809 Q60.0256 730.74 60.0256 727.207 Q60.0256 722.337 56.5881 719.409 Q53.1188 716.449 47.3897 716.449 L46.0847 716.449 L46.0847 722.274 M43.6657 710.593 L64.0042 710.593 L64.0042 716.449 L58.5933 716.449 Q61.8398 718.454 63.3994 721.446 Q64.9272 724.438 64.9272 728.767 Q64.9272 734.241 61.8716 737.488 Q58.7843 740.702 53.6281 740.702 Q47.6125 740.702 44.5569 736.692 Q41.5014 732.65 41.5014 724.661 L41.5014 716.449 L40.9285 716.449 Q36.8862 716.449 34.6901 719.123 Q32.4621 721.764 32.4621 726.571 Q32.4621 729.626 33.1941 732.522 Q33.9262 735.419 35.3903 738.092 L29.9795 738.092 Q28.7381 734.878 28.1334 731.854 Q27.4968 728.83 27.4968 725.966 Q27.4968 718.231 31.5072 714.412 Q35.5176 710.593 43.6657 710.593 Z" fill="#000000" fill-rule="nonzero" fill-opacity="1" /><path clip-path="url(#clip390)" d="M28.3562 668.897 L45.7028 681.788 L64.0042 668.229 L64.0042 675.136 L49.9996 685.512 L64.0042 695.888 L64.0042 702.795 L45.3526 688.949 L28.3562 701.617 L28.3562 694.71 L41.0558 685.257 L28.3562 675.804 L28.3562 668.897 Z" fill="#000000" fill-rule="nonzero" fill-opacity="1" /><polyline clip-path="url(#clip391)" style="stroke:#009af9; stroke-linecap:round; stroke-linejoin:round; stroke-width:8; stroke-opacity:1; fill:none" points="279.894,86.1857 287.345,87.0967 "/>
<polyline clip-path="url(#clip391)" style="stroke:#009af9; stroke-linecap:round; stroke-linejoin:round; stroke-width:8; stroke-opacity:1; fill:none" points="287.345,87.0967 297.177,88.2993 "/>
<polyline clip-path="url(#clip391)" style="stroke:#009af9; stroke-linecap:round; stroke-linejoin:round; stroke-width:8; stroke-opacity:1; fill:none" points="297.177,88.2993 310.147,89.8868 "/>
<polyline clip-path="url(#clip391)" style="stroke:#009af9; stroke-linecap:round; stroke-linejoin:round; stroke-width:8; stroke-opacity:1; fill:none" points="310.147,89.8868 327.254,91.9826 "/>
<polyline clip-path="url(#clip391)" style="stroke:#009af9; stroke-linecap:round; stroke-linejoin:round; stroke-width:8; stroke-opacity:1; fill:none" points="327.254,91.9826 349.811,94.7494 "/>
<polyline clip-path="url(#clip391)" style="stroke:#009af9; stroke-linecap:round; stroke-linejoin:round; stroke-width:8; stroke-opacity:1; fill:none" points="349.811,94.7494 379.546,98.4021 "/>
<polyline clip-path="url(#clip391)" style="stroke:#009af9; stroke-linecap:round; stroke-linejoin:round; stroke-width:8; stroke-opacity:1; fill:none" points="379.546,98.4021 418.723,103.225 "/>
<polyline clip-path="url(#clip391)" style="stroke:#009af9; stroke-linecap:round; stroke-linejoin:round; stroke-width:8; stroke-opacity:1; fill:none" points="418.723,103.225 470.306,109.592 "/>
<polyline clip-path="url(#clip391)" style="stroke:#009af9; stroke-linecap:round; stroke-linejoin:round; stroke-width:8; stroke-opacity:1; fill:none" points="470.306,109.592 538.167,117.997 "/>
<polyline clip-path="url(#clip391)" style="stroke:#009af9; stroke-linecap:round; stroke-linejoin:round; stroke-width:8; stroke-opacity:1; fill:none" points="538.167,117.997 627.33,129.093 "/>
<polyline clip-path="url(#clip391)" style="stroke:#009af9; stroke-linecap:round; stroke-linejoin:round; stroke-width:8; stroke-opacity:1; fill:none" points="627.33,129.093 744.283,143.745 "/>
<polyline clip-path="url(#clip391)" style="stroke:#009af9; stroke-linecap:round; stroke-linejoin:round; stroke-width:8; stroke-opacity:1; fill:none" points="744.283,143.745 888.657,161.996 "/>
<polyline clip-path="url(#clip391)" style="stroke:#009af9; stroke-linecap:round; stroke-linejoin:round; stroke-width:8; stroke-opacity:1; fill:none" points="888.657,161.996 1066.41,184.751 "/>
<polyline clip-path="url(#clip391)" style="stroke:#009af9; stroke-linecap:round; stroke-linejoin:round; stroke-width:8; stroke-opacity:1; fill:none" points="1066.41,184.751 1284.53,213.212 "/>
<polyline clip-path="url(#clip391)" style="stroke:#009af9; stroke-linecap:round; stroke-linejoin:round; stroke-width:8; stroke-opacity:1; fill:none" points="1284.53,213.212 1552.48,249.961 "/>
<polyline clip-path="url(#clip391)" style="stroke:#009af9; stroke-linecap:round; stroke-linejoin:round; stroke-width:8; stroke-opacity:1; fill:none" points="1552.48,249.961 1749.55,286.002 "/>
<polyline clip-path="url(#clip391)" style="stroke:#009af9; stroke-linecap:round; stroke-linejoin:round; stroke-width:8; stroke-opacity:1; fill:none" points="1749.55,286.002 1891.67,337.052 "/>
<polyline clip-path="url(#clip391)" style="stroke:#009af9; stroke-linecap:round; stroke-linejoin:round; stroke-width:4; stroke-opacity:1; fill:none" points="1891.67,337.052 1964.2,371.114 "/>
<polyline clip-path="url(#clip391)" style="stroke:#009af9; stroke-linecap:round; stroke-linejoin:round; stroke-width:4; stroke-opacity:1; fill:none" points="1964.2,371.114 2032.45,407.395 "/>
<polyline clip-path="url(#clip391)" style="stroke:#009af9; stroke-linecap:round; stroke-linejoin:round; stroke-width:4; stroke-opacity:1; fill:none" points="2032.45,407.395 2097.21,446.521 "/>
<polyline clip-path="url(#clip391)" style="stroke:#009af9; stroke-linecap:round; stroke-linejoin:round; stroke-width:4; stroke-opacity:1; fill:none" points="2097.21,446.521 2152.06,484.87 "/>
<polyline clip-path="url(#clip391)" style="stroke:#009af9; stroke-linecap:round; stroke-linejoin:round; stroke-width:4; stroke-opacity:1; fill:none" points="2152.06,484.87 2195.07,520.302 "/>
<polyline clip-path="url(#clip391)" style="stroke:#009af9; stroke-linecap:round; stroke-linejoin:round; stroke-width:4; stroke-opacity:1; fill:none" points="2195.07,520.302 2229.35,554.439 "/>
<polyline clip-path="url(#clip391)" style="stroke:#009af9; stroke-linecap:round; stroke-linejoin:round; stroke-width:4; stroke-opacity:1; fill:none" points="2229.35,554.439 2256.38,588.546 "/>
<polyline clip-path="url(#clip391)" style="stroke:#009af9; stroke-linecap:round; stroke-linejoin:round; stroke-width:4; stroke-opacity:1; fill:none" points="2256.38,588.546 2276.5,623.747 "/>
<polyline clip-path="url(#clip391)" style="stroke:#009af9; stroke-linecap:round; stroke-linejoin:round; stroke-width:4; stroke-opacity:1; fill:none" points="2276.5,623.747 2289.03,661.18 "/>
<polyline clip-path="url(#clip391)" style="stroke:#009af9; stroke-linecap:round; stroke-linejoin:round; stroke-width:4; stroke-opacity:1; fill:none" points="2289.03,661.18 2292.38,692.619 "/>
<polyline clip-path="url(#clip391)" style="stroke:#009af9; stroke-linecap:round; stroke-linejoin:round; stroke-width:4; stroke-opacity:1; fill:none" points="2292.38,692.619 2285.86,737.179 "/>
<polyline clip-path="url(#clip391)" style="stroke:#009af9; stroke-linecap:round; stroke-linejoin:round; stroke-width:4; stroke-opacity:1; fill:none" points="2285.86,737.179 2262.82,787.57 "/>
<polyline clip-path="url(#clip391)" style="stroke:#009af9; stroke-linecap:round; stroke-linejoin:round; stroke-width:4; stroke-opacity:1; fill:none" points="2262.82,787.57 2217.89,844.51 "/>
<polyline clip-path="url(#clip391)" style="stroke:#009af9; stroke-linecap:round; stroke-linejoin:round; stroke-width:4; stroke-opacity:1; fill:none" points="2217.89,844.51 2147.97,907.325 "/>
<polyline clip-path="url(#clip391)" style="stroke:#009af9; stroke-linecap:round; stroke-linejoin:round; stroke-width:4; stroke-opacity:1; fill:none" points="2147.97,907.325 2055.84,974.033 "/>
<polyline clip-path="url(#clip391)" style="stroke:#009af9; stroke-linecap:round; stroke-linejoin:round; stroke-width:4; stroke-opacity:1; fill:none" points="2055.84,974.033 1949.6,1042.87 "/>
<polyline clip-path="url(#clip391)" style="stroke:#009af9; stroke-linecap:round; stroke-linejoin:round; stroke-width:4; stroke-opacity:1; fill:none" points="1949.6,1042.87 1838.8,1113.25 "/>
<polyline clip-path="url(#clip391)" style="stroke:#009af9; stroke-linecap:round; stroke-linejoin:round; stroke-width:4; stroke-opacity:1; fill:none" points="1838.8,1113.25 1732.74,1185.13 "/>
<polyline clip-path="url(#clip391)" style="stroke:#009af9; stroke-linecap:round; stroke-linejoin:round; stroke-width:4; stroke-opacity:1; fill:none" points="1732.74,1185.13 1641.15,1257.01 "/>
<polyline clip-path="url(#clip391)" style="stroke:#009af9; stroke-linecap:round; stroke-linejoin:round; stroke-width:4; stroke-opacity:1; fill:none" points="1641.15,1257.01 1574.3,1322.44 "/>
<polyline clip-path="url(#clip391)" style="stroke:#009af9; stroke-linecap:round; stroke-linejoin:round; stroke-width:4; stroke-opacity:1; fill:none" points="1574.3,1322.44 1539.78,1365.55 "/>
<polyline clip-path="url(#clip391)" style="stroke:#009af9; stroke-linecap:round; stroke-linejoin:round; stroke-width:4; stroke-opacity:1; fill:none" points="1539.78,1365.55 1527.23,1384.24 "/>
<polyline clip-path="url(#clip391)" style="stroke:#009af9; stroke-linecap:round; stroke-linejoin:round; stroke-width:4; stroke-opacity:1; fill:none" points="1527.23,1384.24 1591.97,1303.41 "/>
<circle clip-path="url(#clip391)" cx="1891.67" cy="337.052" r="10.8" fill="#ffa500" fill-rule="evenodd" fill-opacity="1" stroke="none"/>
<circle clip-path="url(#clip391)" cx="2292.38" cy="692.619" r="10.8" fill="#0000ff" fill-rule="evenodd" fill-opacity="1" stroke="none"/>
<circle clip-path="url(#clip391)" cx="1891.67" cy="337.052" r="10.8" fill="#ffa500" fill-rule="evenodd" fill-opacity="1" stroke="none"/>
<circle clip-path="url(#clip391)" cx="2292.38" cy="692.619" r="10.8" fill="#0000ff" fill-rule="evenodd" fill-opacity="1" stroke="none"/>
<path clip-path="url(#clip390)" d="M290.627 1377.32 L557.237 1377.32 L557.237 1221.8 L290.627 1221.8  Z" fill="#ffffff" fill-rule="evenodd" fill-opacity="1"/>
<polyline clip-path="url(#clip390)" style="stroke:#000000; stroke-linecap:round; stroke-linejoin:round; stroke-width:4; stroke-opacity:1; fill:none" points="290.627,1377.32 557.237,1377.32 557.237,1221.8 290.627,1221.8 290.627,1377.32 "/>
<circle clip-path="url(#clip390)" cx="385.437" cy="1273.64" r="23.04" fill="#ffa500" fill-rule="evenodd" fill-opacity="1" stroke="none"/>
<path clip-path="url(#clip390)" d="M501.961 1275.27 L501.961 1290.92 L497.702 1290.92 L497.702 1275.41 Q497.702 1271.73 496.266 1269.9 Q494.831 1268.07 491.961 1268.07 Q488.512 1268.07 486.521 1270.27 Q484.53 1272.47 484.53 1276.26 L484.53 1290.92 L480.248 1290.92 L480.248 1264.99 L484.53 1264.99 L484.53 1269.02 Q486.058 1266.68 488.118 1265.52 Q490.202 1264.36 492.91 1264.36 Q497.378 1264.36 499.669 1267.14 Q501.961 1269.9 501.961 1275.27 Z" fill="#000000" fill-rule="nonzero" fill-opacity="1" /><path clip-path="url(#clip390)" d="M526.984 1265.75 L526.984 1269.78 Q525.178 1268.86 523.234 1268.39 Q521.289 1267.93 519.206 1267.93 Q516.035 1267.93 514.438 1268.9 Q512.864 1269.87 512.864 1271.82 Q512.864 1273.3 513.998 1274.16 Q515.132 1274.99 518.558 1275.75 L520.016 1276.08 Q524.553 1277.05 526.451 1278.83 Q528.373 1280.59 528.373 1283.76 Q528.373 1287.37 525.502 1289.48 Q522.655 1291.59 517.655 1291.59 Q515.572 1291.59 513.303 1291.17 Q511.058 1290.78 508.558 1289.97 L508.558 1285.57 Q510.919 1286.79 513.211 1287.42 Q515.502 1288.02 517.748 1288.02 Q520.757 1288.02 522.377 1287 Q523.998 1285.96 523.998 1284.09 Q523.998 1282.35 522.817 1281.42 Q521.66 1280.5 517.701 1279.64 L516.22 1279.3 Q512.262 1278.46 510.502 1276.75 Q508.743 1275.01 508.743 1272 Q508.743 1268.35 511.336 1266.36 Q513.928 1264.36 518.697 1264.36 Q521.058 1264.36 523.141 1264.71 Q525.225 1265.06 526.984 1265.75 Z" fill="#000000" fill-rule="nonzero" fill-opacity="1" /><circle clip-path="url(#clip390)" cx="385.437" cy="1325.48" r="23.04" fill="#0000ff" fill-rule="evenodd" fill-opacity="1" stroke="none"/>
<path clip-path="url(#clip390)" d="M499.021 1329.82 Q499.021 1325.12 497.077 1322.45 Q495.155 1319.77 491.776 1319.77 Q488.396 1319.77 486.452 1322.45 Q484.53 1325.12 484.53 1329.82 Q484.53 1334.51 486.452 1337.2 Q488.396 1339.86 491.776 1339.86 Q495.155 1339.86 497.077 1337.2 Q499.021 1334.51 499.021 1329.82 M484.53 1320.76 Q485.873 1318.45 487.91 1317.34 Q489.97 1316.2 492.817 1316.2 Q497.54 1316.2 500.479 1319.95 Q503.442 1323.7 503.442 1329.82 Q503.442 1335.93 500.479 1339.68 Q497.54 1343.43 492.817 1343.43 Q489.97 1343.43 487.91 1342.32 Q485.873 1341.18 484.53 1338.87 L484.53 1342.76 L480.248 1342.76 L480.248 1306.74 L484.53 1306.74 L484.53 1320.76 Z" fill="#000000" fill-rule="nonzero" fill-opacity="1" /><path clip-path="url(#clip390)" d="M514.623 1338.87 L514.623 1352.62 L510.34 1352.62 L510.34 1316.83 L514.623 1316.83 L514.623 1320.76 Q515.965 1318.45 518.002 1317.34 Q520.063 1316.2 522.91 1316.2 Q527.632 1316.2 530.572 1319.95 Q533.535 1323.7 533.535 1329.82 Q533.535 1335.93 530.572 1339.68 Q527.632 1343.43 522.91 1343.43 Q520.063 1343.43 518.002 1342.32 Q515.965 1341.18 514.623 1338.87 M529.113 1329.82 Q529.113 1325.12 527.169 1322.45 Q525.248 1319.77 521.868 1319.77 Q518.489 1319.77 516.544 1322.45 Q514.623 1325.12 514.623 1329.82 Q514.623 1334.51 516.544 1337.2 Q518.489 1339.86 521.868 1339.86 Q525.248 1339.86 527.169 1337.2 Q529.113 1334.51 529.113 1329.82 Z" fill="#000000" fill-rule="nonzero" fill-opacity="1" /></svg>
