<?xml version="1.0" encoding="utf-8"?>
<svg xmlns="http://www.w3.org/2000/svg" xmlns:xlink="http://www.w3.org/1999/xlink" width="600" height="400" viewBox="0 0 2400 1600">
<defs>
  <clipPath id="clip450">
    <rect x="0" y="0" width="2400" height="1600"/>
  </clipPath>
</defs>
<path clip-path="url(#clip450)" d="M0 1600 L2400 1600 L2400 0 L0 0  Z" fill="#ffffff" fill-rule="evenodd" fill-opacity="1"/>
<defs>
  <clipPath id="clip451">
    <rect x="250" y="47" width="2104" height="1377"/>
  </clipPath>
</defs>
<path clip-path="url(#clip450)" d="M250.028 1423.18 L2352.76 1423.18 L2352.76 47.2441 L250.028 47.2441  Z" fill="#ffffff" fill-rule="evenodd" fill-opacity="1"/>
<polyline clip-path="url(#clip451)" style="stroke:#000000; stroke-linecap:round; stroke-linejoin:round; stroke-width:2; stroke-opacity:0.1; fill:none" points="309.539,1423.18 309.539,47.2441 "/>
<polyline clip-path="url(#clip451)" style="stroke:#000000; stroke-linecap:round; stroke-linejoin:round; stroke-width:2; stroke-opacity:0.1; fill:none" points="861.2,1423.18 861.2,47.2441 "/>
<polyline clip-path="url(#clip451)" style="stroke:#000000; stroke-linecap:round; stroke-linejoin:round; stroke-width:2; stroke-opacity:0.1; fill:none" points="1412.86,1423.18 1412.86,47.2441 "/>
<polyline clip-path="url(#clip451)" style="stroke:#000000; stroke-linecap:round; stroke-linejoin:round; stroke-width:2; stroke-opacity:0.1; fill:none" points="1964.52,1423.18 1964.52,47.2441 "/>
<polyline clip-path="url(#clip451)" style="stroke:#000000; stroke-linecap:round; stroke-linejoin:round; stroke-width:2; stroke-opacity:0.1; fill:none" points="250.028,1202.07 2352.76,1202.07 "/>
<polyline clip-path="url(#clip451)" style="stroke:#000000; stroke-linecap:round; stroke-linejoin:round; stroke-width:2; stroke-opacity:0.1; fill:none" points="250.028,955.871 2352.76,955.871 "/>
<polyline clip-path="url(#clip451)" style="stroke:#000000; stroke-linecap:round; stroke-linejoin:round; stroke-width:2; stroke-opacity:0.1; fill:none" points="250.028,709.667 2352.76,709.667 "/>
<polyline clip-path="url(#clip451)" style="stroke:#000000; stroke-linecap:round; stroke-linejoin:round; stroke-width:2; stroke-opacity:0.1; fill:none" points="250.028,463.464 2352.76,463.464 "/>
<polyline clip-path="url(#clip451)" style="stroke:#000000; stroke-linecap:round; stroke-linejoin:round; stroke-width:2; stroke-opacity:0.1; fill:none" points="250.028,217.26 2352.76,217.26 "/>
<polyline clip-path="url(#clip450)" style="stroke:#000000; stroke-linecap:round; stroke-linejoin:round; stroke-width:4; stroke-opacity:1; fill:none" points="250.028,1423.18 2352.76,1423.18 "/>
<polyline clip-path="url(#clip450)" style="stroke:#000000; stroke-linecap:round; stroke-linejoin:round; stroke-width:4; stroke-opacity:1; fill:none" points="309.539,1423.18 309.539,1404.28 "/>
<polyline clip-path="url(#clip450)" style="stroke:#000000; stroke-linecap:round; stroke-linejoin:round; stroke-width:4; stroke-opacity:1; fill:none" points="861.2,1423.18 861.2,1404.28 "/>
<polyline clip-path="url(#clip450)" style="stroke:#000000; stroke-linecap:round; stroke-linejoin:round; stroke-width:4; stroke-opacity:1; fill:none" points="1412.86,1423.18 1412.86,1404.28 "/>
<polyline clip-path="url(#clip450)" style="stroke:#000000; stroke-linecap:round; stroke-linejoin:round; stroke-width:4; stroke-opacity:1; fill:none" points="1964.52,1423.18 1964.52,1404.28 "/>
<path clip-path="url(#clip450)" d="M277.19 1481.64 L284.829 1481.64 L284.829 1455.28 L276.519 1456.95 L276.519 1452.69 L284.782 1451.02 L289.458 1451.02 L289.458 1481.64 L297.097 1481.64 L297.097 1485.58 L277.19 1485.58 L277.19 1481.64 Z" fill="#000000" fill-rule="nonzero" fill-opacity="1" /><path clip-path="url(#clip450)" d="M306.542 1479.7 L311.426 1479.7 L311.426 1485.58 L306.542 1485.58 L306.542 1479.7 Z" fill="#000000" fill-rule="nonzero" fill-opacity="1" /><path clip-path="url(#clip450)" d="M321.657 1451.02 L340.014 1451.02 L340.014 1454.96 L325.94 1454.96 L325.94 1463.43 Q326.958 1463.08 327.977 1462.92 Q328.995 1462.73 330.014 1462.73 Q335.801 1462.73 339.18 1465.9 Q342.56 1469.08 342.56 1474.49 Q342.56 1480.07 339.088 1483.17 Q335.616 1486.25 329.296 1486.25 Q327.12 1486.25 324.852 1485.88 Q322.606 1485.51 320.199 1484.77 L320.199 1480.07 Q322.282 1481.2 324.505 1481.76 Q326.727 1482.32 329.204 1482.32 Q333.208 1482.32 335.546 1480.21 Q337.884 1478.1 337.884 1474.49 Q337.884 1470.88 335.546 1468.77 Q333.208 1466.67 329.204 1466.67 Q327.329 1466.67 325.454 1467.08 Q323.602 1467.5 321.657 1468.38 L321.657 1451.02 Z" fill="#000000" fill-rule="nonzero" fill-opacity="1" /><path clip-path="url(#clip450)" d="M828.272 1481.64 L835.911 1481.64 L835.911 1455.28 L827.601 1456.95 L827.601 1452.69 L835.865 1451.02 L840.541 1451.02 L840.541 1481.64 L848.18 1481.64 L848.18 1485.58 L828.272 1485.58 L828.272 1481.64 Z" fill="#000000" fill-rule="nonzero" fill-opacity="1" /><path clip-path="url(#clip450)" d="M857.624 1479.7 L862.508 1479.7 L862.508 1485.58 L857.624 1485.58 L857.624 1479.7 Z" fill="#000000" fill-rule="nonzero" fill-opacity="1" /><path clip-path="url(#clip450)" d="M883.272 1466.44 Q880.124 1466.44 878.272 1468.59 Q876.443 1470.74 876.443 1474.49 Q876.443 1478.22 878.272 1480.39 Q880.124 1482.55 883.272 1482.55 Q886.42 1482.55 888.249 1480.39 Q890.101 1478.22 890.101 1474.49 Q890.101 1470.74 888.249 1468.59 Q886.42 1466.44 883.272 1466.44 M892.554 1451.78 L892.554 1456.04 Q890.795 1455.21 888.99 1454.77 Q887.207 1454.33 885.448 1454.33 Q880.818 1454.33 878.365 1457.45 Q875.934 1460.58 875.587 1466.9 Q876.953 1464.89 879.013 1463.82 Q881.073 1462.73 883.55 1462.73 Q888.758 1462.73 891.767 1465.9 Q894.8 1469.05 894.8 1474.49 Q894.8 1479.82 891.652 1483.03 Q888.504 1486.25 883.272 1486.25 Q877.277 1486.25 874.105 1481.67 Q870.934 1477.06 870.934 1468.33 Q870.934 1460.14 874.823 1455.28 Q878.712 1450.39 885.263 1450.39 Q887.022 1450.39 888.804 1450.74 Q890.61 1451.09 892.554 1451.78 Z" fill="#000000" fill-rule="nonzero" fill-opacity="1" /><path clip-path="url(#clip450)" d="M1380.47 1481.64 L1388.1 1481.64 L1388.1 1455.28 L1379.79 1456.95 L1379.79 1452.69 L1388.06 1451.02 L1392.73 1451.02 L1392.73 1481.64 L1400.37 1481.64 L1400.37 1485.58 L1380.47 1485.58 L1380.47 1481.64 Z" fill="#000000" fill-rule="nonzero" fill-opacity="1" /><path clip-path="url(#clip450)" d="M1409.82 1479.7 L1414.7 1479.7 L1414.7 1485.58 L1409.82 1485.58 L1409.82 1479.7 Z" fill="#000000" fill-rule="nonzero" fill-opacity="1" /><path clip-path="url(#clip450)" d="M1423.71 1451.02 L1445.93 1451.02 L1445.93 1453.01 L1433.38 1485.58 L1428.5 1485.58 L1440.3 1454.96 L1423.71 1454.96 L1423.71 1451.02 Z" fill="#000000" fill-rule="nonzero" fill-opacity="1" /><path clip-path="url(#clip450)" d="M1931.72 1481.64 L1939.36 1481.64 L1939.36 1455.28 L1931.05 1456.95 L1931.05 1452.69 L1939.31 1451.02 L1943.99 1451.02 L1943.99 1481.64 L1951.63 1481.64 L1951.63 1485.58 L1931.72 1485.58 L1931.72 1481.64 Z" fill="#000000" fill-rule="nonzero" fill-opacity="1" /><path clip-path="url(#clip450)" d="M1961.07 1479.7 L1965.96 1479.7 L1965.96 1485.58 L1961.07 1485.58 L1961.07 1479.7 Z" fill="#000000" fill-rule="nonzero" fill-opacity="1" /><path clip-path="url(#clip450)" d="M1986.14 1469.17 Q1982.81 1469.17 1980.89 1470.95 Q1978.99 1472.73 1978.99 1475.86 Q1978.99 1478.98 1980.89 1480.77 Q1982.81 1482.55 1986.14 1482.55 Q1989.48 1482.55 1991.4 1480.77 Q1993.32 1478.96 1993.32 1475.86 Q1993.32 1472.73 1991.4 1470.95 Q1989.5 1469.17 1986.14 1469.17 M1981.47 1467.18 Q1978.46 1466.44 1976.77 1464.38 Q1975.1 1462.32 1975.1 1459.35 Q1975.1 1455.21 1978.04 1452.8 Q1981 1450.39 1986.14 1450.39 Q1991.31 1450.39 1994.24 1452.8 Q1997.18 1455.21 1997.18 1459.35 Q1997.18 1462.32 1995.49 1464.38 Q1993.83 1466.44 1990.84 1467.18 Q1994.22 1467.96 1996.1 1470.26 Q1997.99 1472.55 1997.99 1475.86 Q1997.99 1480.88 1994.92 1483.57 Q1991.86 1486.25 1986.14 1486.25 Q1980.43 1486.25 1977.35 1483.57 Q1974.29 1480.88 1974.29 1475.86 Q1974.29 1472.55 1976.19 1470.26 Q1978.09 1467.96 1981.47 1467.18 M1979.75 1459.79 Q1979.75 1462.48 1981.42 1463.98 Q1983.11 1465.49 1986.14 1465.49 Q1989.15 1465.49 1990.84 1463.98 Q1992.56 1462.48 1992.56 1459.79 Q1992.56 1457.11 1990.84 1455.6 Q1989.15 1454.1 1986.14 1454.1 Q1983.11 1454.1 1981.42 1455.6 Q1979.75 1457.11 1979.75 1459.79 Z" fill="#000000" fill-rule="nonzero" fill-opacity="1" /><path clip-path="url(#clip450)" d="M1267.53 1518.52 L1273.41 1518.52 L1273.41 1547.77 L1290.89 1532.4 L1298.37 1532.4 L1279.46 1549.07 L1299.16 1568.04 L1291.53 1568.04 L1273.41 1550.63 L1273.41 1568.04 L1267.53 1568.04 L1267.53 1518.52 Z" fill="#000000" fill-rule="nonzero" fill-opacity="1" /><path clip-path="url(#clip450)" d="M1304.7 1520.52 L1335.26 1520.52 L1335.26 1523.26 L1318.01 1568.04 L1311.29 1568.04 L1327.52 1525.93 L1304.7 1525.93 L1304.7 1520.52 Z" fill="#000000" fill-rule="nonzero" fill-opacity="1" /><polyline clip-path="url(#clip450)" style="stroke:#000000; stroke-linecap:round; stroke-linejoin:round; stroke-width:4; stroke-opacity:1; fill:none" points="250.028,1423.18 250.028,47.2441 "/>
<polyline clip-path="url(#clip450)" style="stroke:#000000; stroke-linecap:round; stroke-linejoin:round; stroke-width:4; stroke-opacity:1; fill:none" points="250.028,1202.07 268.926,1202.07 "/>
<polyline clip-path="url(#clip450)" style="stroke:#000000; stroke-linecap:round; stroke-linejoin:round; stroke-width:4; stroke-opacity:1; fill:none" points="250.028,955.871 268.926,955.871 "/>
<polyline clip-path="url(#clip450)" style="stroke:#000000; stroke-linecap:round; stroke-linejoin:round; stroke-width:4; stroke-opacity:1; fill:none" points="250.028,709.667 268.926,709.667 "/>
<polyline clip-path="url(#clip450)" style="stroke:#000000; stroke-linecap:round; stroke-linejoin:round; stroke-width:4; stroke-opacity:1; fill:none" points="250.028,463.464 268.926,463.464 "/>
<polyline clip-path="url(#clip450)" style="stroke:#000000; stroke-linecap:round; stroke-linejoin:round; stroke-width:4; stroke-opacity:1; fill:none" points="250.028,217.26 268.926,217.26 "/>
<path clip-path="url(#clip450)" d="M126.205 1187.87 Q122.593 1187.87 120.765 1191.44 Q118.959 1194.98 118.959 1202.11 Q118.959 1209.22 120.765 1212.78 Q122.593 1216.32 126.205 1216.32 Q129.839 1216.32 131.644 1212.78 Q133.473 1209.22 133.473 1202.11 Q133.473 1194.98 131.644 1191.44 Q129.839 1187.87 126.205 1187.87 M126.205 1184.17 Q132.015 1184.17 135.07 1188.78 Q138.149 1193.36 138.149 1202.11 Q138.149 1210.84 135.07 1215.44 Q132.015 1220.03 126.205 1220.03 Q120.394 1220.03 117.316 1215.44 Q114.26 1210.84 114.26 1202.11 Q114.26 1193.36 117.316 1188.78 Q120.394 1184.17 126.205 1184.17 Z" fill="#000000" fill-rule="nonzero" fill-opacity="1" /><path clip-path="url(#clip450)" d="M146.366 1213.48 L151.251 1213.48 L151.251 1219.35 L146.366 1219.35 L146.366 1213.48 Z" fill="#000000" fill-rule="nonzero" fill-opacity="1" /><path clip-path="url(#clip450)" d="M171.436 1202.94 Q168.102 1202.94 166.181 1204.73 Q164.283 1206.51 164.283 1209.63 Q164.283 1212.76 166.181 1214.54 Q168.102 1216.32 171.436 1216.32 Q174.769 1216.32 176.69 1214.54 Q178.612 1212.73 178.612 1209.63 Q178.612 1206.51 176.69 1204.73 Q174.792 1202.94 171.436 1202.94 M166.76 1200.95 Q163.751 1200.21 162.061 1198.15 Q160.394 1196.09 160.394 1193.13 Q160.394 1188.98 163.334 1186.58 Q166.297 1184.17 171.436 1184.17 Q176.598 1184.17 179.538 1186.58 Q182.477 1188.98 182.477 1193.13 Q182.477 1196.09 180.788 1198.15 Q179.121 1200.21 176.135 1200.95 Q179.514 1201.74 181.389 1204.03 Q183.288 1206.32 183.288 1209.63 Q183.288 1214.66 180.209 1217.34 Q177.153 1220.03 171.436 1220.03 Q165.718 1220.03 162.64 1217.34 Q159.584 1214.66 159.584 1209.63 Q159.584 1206.32 161.482 1204.03 Q163.38 1201.74 166.76 1200.95 M165.047 1193.57 Q165.047 1196.25 166.714 1197.76 Q168.403 1199.26 171.436 1199.26 Q174.445 1199.26 176.135 1197.76 Q177.848 1196.25 177.848 1193.57 Q177.848 1190.88 176.135 1189.38 Q174.445 1187.87 171.436 1187.87 Q168.403 1187.87 166.714 1189.38 Q165.047 1190.88 165.047 1193.57 Z" fill="#000000" fill-rule="nonzero" fill-opacity="1" /><path clip-path="url(#clip450)" d="M204.445 1188.87 L192.639 1207.32 L204.445 1207.32 L204.445 1188.87 M203.218 1184.79 L209.098 1184.79 L209.098 1207.32 L214.028 1207.32 L214.028 1211.21 L209.098 1211.21 L209.098 1219.35 L204.445 1219.35 L204.445 1211.21 L188.843 1211.21 L188.843 1206.69 L203.218 1184.79 Z" fill="#000000" fill-rule="nonzero" fill-opacity="1" /><path clip-path="url(#clip450)" d="M126.529 941.67 Q122.918 941.67 121.089 945.235 Q119.283 948.776 119.283 955.906 Q119.283 963.012 121.089 966.577 Q122.918 970.119 126.529 970.119 Q130.163 970.119 131.968 966.577 Q133.797 963.012 133.797 955.906 Q133.797 948.776 131.968 945.235 Q130.163 941.67 126.529 941.67 M126.529 937.966 Q132.339 937.966 135.394 942.573 Q138.473 947.156 138.473 955.906 Q138.473 964.633 135.394 969.239 Q132.339 973.822 126.529 973.822 Q120.718 973.822 117.64 969.239 Q114.584 964.633 114.584 955.906 Q114.584 947.156 117.64 942.573 Q120.718 937.966 126.529 937.966 Z" fill="#000000" fill-rule="nonzero" fill-opacity="1" /><path clip-path="url(#clip450)" d="M146.691 967.272 L151.575 967.272 L151.575 973.151 L146.691 973.151 L146.691 967.272 Z" fill="#000000" fill-rule="nonzero" fill-opacity="1" /><path clip-path="url(#clip450)" d="M171.76 956.739 Q168.427 956.739 166.505 958.522 Q164.607 960.304 164.607 963.429 Q164.607 966.554 166.505 968.336 Q168.427 970.119 171.76 970.119 Q175.093 970.119 177.014 968.336 Q178.936 966.531 178.936 963.429 Q178.936 960.304 177.014 958.522 Q175.116 956.739 171.76 956.739 M167.084 954.748 Q164.075 954.008 162.385 951.948 Q160.718 949.887 160.718 946.924 Q160.718 942.781 163.658 940.374 Q166.621 937.966 171.76 937.966 Q176.922 937.966 179.862 940.374 Q182.801 942.781 182.801 946.924 Q182.801 949.887 181.112 951.948 Q179.445 954.008 176.459 954.748 Q179.839 955.536 181.713 957.827 Q183.612 960.119 183.612 963.429 Q183.612 968.452 180.533 971.137 Q177.477 973.822 171.76 973.822 Q166.042 973.822 162.964 971.137 Q159.908 968.452 159.908 963.429 Q159.908 960.119 161.806 957.827 Q163.704 955.536 167.084 954.748 M165.371 947.364 Q165.371 950.049 167.038 951.554 Q168.727 953.059 171.76 953.059 Q174.769 953.059 176.459 951.554 Q178.172 950.049 178.172 947.364 Q178.172 944.679 176.459 943.174 Q174.769 941.67 171.76 941.67 Q168.727 941.67 167.038 943.174 Q165.371 944.679 165.371 947.364 Z" fill="#000000" fill-rule="nonzero" fill-opacity="1" /><path clip-path="url(#clip450)" d="M202.5 954.008 Q199.352 954.008 197.5 956.161 Q195.672 958.313 195.672 962.063 Q195.672 965.79 197.5 967.966 Q199.352 970.119 202.5 970.119 Q205.649 970.119 207.477 967.966 Q209.329 965.79 209.329 962.063 Q209.329 958.313 207.477 956.161 Q205.649 954.008 202.5 954.008 M211.783 939.355 L211.783 943.614 Q210.024 942.781 208.218 942.341 Q206.436 941.901 204.676 941.901 Q200.047 941.901 197.593 945.026 Q195.163 948.151 194.815 954.471 Q196.181 952.457 198.241 951.392 Q200.301 950.304 202.778 950.304 Q207.987 950.304 210.996 953.475 Q214.028 956.623 214.028 962.063 Q214.028 967.387 210.88 970.605 Q207.732 973.822 202.5 973.822 Q196.505 973.822 193.334 969.239 Q190.163 964.633 190.163 955.906 Q190.163 947.711 194.051 942.85 Q197.94 937.966 204.491 937.966 Q206.25 937.966 208.033 938.313 Q209.838 938.661 211.783 939.355 Z" fill="#000000" fill-rule="nonzero" fill-opacity="1" /><path clip-path="url(#clip450)" d="M126.783 695.466 Q123.172 695.466 121.343 699.031 Q119.538 702.572 119.538 709.702 Q119.538 716.808 121.343 720.373 Q123.172 723.915 126.783 723.915 Q130.417 723.915 132.223 720.373 Q134.052 716.808 134.052 709.702 Q134.052 702.572 132.223 699.031 Q130.417 695.466 126.783 695.466 M126.783 691.762 Q132.593 691.762 135.649 696.369 Q138.728 700.952 138.728 709.702 Q138.728 718.429 135.649 723.035 Q132.593 727.619 126.783 727.619 Q120.973 727.619 117.894 723.035 Q114.839 718.429 114.839 709.702 Q114.839 700.952 117.894 696.369 Q120.973 691.762 126.783 691.762 Z" fill="#000000" fill-rule="nonzero" fill-opacity="1" /><path clip-path="url(#clip450)" d="M146.945 721.068 L151.829 721.068 L151.829 726.947 L146.945 726.947 L146.945 721.068 Z" fill="#000000" fill-rule="nonzero" fill-opacity="1" /><path clip-path="url(#clip450)" d="M172.014 710.535 Q168.681 710.535 166.76 712.318 Q164.862 714.1 164.862 717.225 Q164.862 720.35 166.76 722.133 Q168.681 723.915 172.014 723.915 Q175.348 723.915 177.269 722.133 Q179.19 720.327 179.19 717.225 Q179.19 714.1 177.269 712.318 Q175.371 710.535 172.014 710.535 M167.339 708.545 Q164.329 707.804 162.64 705.744 Q160.973 703.684 160.973 700.721 Q160.973 696.577 163.913 694.17 Q166.876 691.762 172.014 691.762 Q177.176 691.762 180.116 694.17 Q183.056 696.577 183.056 700.721 Q183.056 703.684 181.366 705.744 Q179.7 707.804 176.714 708.545 Q180.093 709.332 181.968 711.623 Q183.866 713.915 183.866 717.225 Q183.866 722.248 180.788 724.933 Q177.732 727.619 172.014 727.619 Q166.297 727.619 163.218 724.933 Q160.163 722.248 160.163 717.225 Q160.163 713.915 162.061 711.623 Q163.959 709.332 167.339 708.545 M165.626 701.16 Q165.626 703.846 167.292 705.35 Q168.982 706.855 172.014 706.855 Q175.024 706.855 176.714 705.35 Q178.426 703.846 178.426 701.16 Q178.426 698.475 176.714 696.971 Q175.024 695.466 172.014 695.466 Q168.982 695.466 167.292 696.971 Q165.626 698.475 165.626 701.16 Z" fill="#000000" fill-rule="nonzero" fill-opacity="1" /><path clip-path="url(#clip450)" d="M202.176 710.535 Q198.843 710.535 196.922 712.318 Q195.024 714.1 195.024 717.225 Q195.024 720.35 196.922 722.133 Q198.843 723.915 202.176 723.915 Q205.51 723.915 207.431 722.133 Q209.352 720.327 209.352 717.225 Q209.352 714.1 207.431 712.318 Q205.533 710.535 202.176 710.535 M197.5 708.545 Q194.491 707.804 192.801 705.744 Q191.135 703.684 191.135 700.721 Q191.135 696.577 194.075 694.17 Q197.037 691.762 202.176 691.762 Q207.338 691.762 210.278 694.17 Q213.218 696.577 213.218 700.721 Q213.218 703.684 211.528 705.744 Q209.861 707.804 206.875 708.545 Q210.255 709.332 212.13 711.623 Q214.028 713.915 214.028 717.225 Q214.028 722.248 210.949 724.933 Q207.894 727.619 202.176 727.619 Q196.459 727.619 193.38 724.933 Q190.325 722.248 190.325 717.225 Q190.325 713.915 192.223 711.623 Q194.121 709.332 197.5 708.545 M195.787 701.16 Q195.787 703.846 197.454 705.35 Q199.144 706.855 202.176 706.855 Q205.186 706.855 206.875 705.35 Q208.588 703.846 208.588 701.16 Q208.588 698.475 206.875 696.971 Q205.186 695.466 202.176 695.466 Q199.144 695.466 197.454 696.971 Q195.787 698.475 195.787 701.16 Z" fill="#000000" fill-rule="nonzero" fill-opacity="1" /><path clip-path="url(#clip450)" d="M126.691 449.262 Q123.08 449.262 121.251 452.827 Q119.445 456.369 119.445 463.498 Q119.445 470.605 121.251 474.169 Q123.08 477.711 126.691 477.711 Q130.325 477.711 132.13 474.169 Q133.959 470.605 133.959 463.498 Q133.959 456.369 132.13 452.827 Q130.325 449.262 126.691 449.262 M126.691 445.559 Q132.501 445.559 135.556 450.165 Q138.635 454.748 138.635 463.498 Q138.635 472.225 135.556 476.831 Q132.501 481.415 126.691 481.415 Q120.88 481.415 117.802 476.831 Q114.746 472.225 114.746 463.498 Q114.746 454.748 117.802 450.165 Q120.88 445.559 126.691 445.559 Z" fill="#000000" fill-rule="nonzero" fill-opacity="1" /><path clip-path="url(#clip450)" d="M146.853 474.864 L151.737 474.864 L151.737 480.744 L146.853 480.744 L146.853 474.864 Z" fill="#000000" fill-rule="nonzero" fill-opacity="1" /><path clip-path="url(#clip450)" d="M162.061 480.026 L162.061 475.767 Q163.82 476.6 165.626 477.04 Q167.431 477.48 169.167 477.48 Q173.797 477.48 176.227 474.378 Q178.681 471.253 179.028 464.91 Q177.686 466.901 175.626 467.966 Q173.565 469.031 171.065 469.031 Q165.88 469.031 162.848 465.906 Q159.839 462.757 159.839 457.318 Q159.839 451.994 162.987 448.776 Q166.135 445.559 171.366 445.559 Q177.362 445.559 180.51 450.165 Q183.681 454.748 183.681 463.498 Q183.681 471.669 179.792 476.554 Q175.926 481.415 169.376 481.415 Q167.616 481.415 165.811 481.068 Q164.005 480.72 162.061 480.026 M171.366 465.373 Q174.514 465.373 176.343 463.22 Q178.195 461.068 178.195 457.318 Q178.195 453.591 176.343 451.438 Q174.514 449.262 171.366 449.262 Q168.218 449.262 166.366 451.438 Q164.538 453.591 164.538 457.318 Q164.538 461.068 166.366 463.22 Q168.218 465.373 171.366 465.373 Z" fill="#000000" fill-rule="nonzero" fill-opacity="1" /><path clip-path="url(#clip450)" d="M202.084 449.262 Q198.473 449.262 196.644 452.827 Q194.838 456.369 194.838 463.498 Q194.838 470.605 196.644 474.169 Q198.473 477.711 202.084 477.711 Q205.718 477.711 207.524 474.169 Q209.352 470.605 209.352 463.498 Q209.352 456.369 207.524 452.827 Q205.718 449.262 202.084 449.262 M202.084 445.559 Q207.894 445.559 210.949 450.165 Q214.028 454.748 214.028 463.498 Q214.028 472.225 210.949 476.831 Q207.894 481.415 202.084 481.415 Q196.274 481.415 193.195 476.831 Q190.139 472.225 190.139 463.498 Q190.139 454.748 193.195 450.165 Q196.274 445.559 202.084 445.559 Z" fill="#000000" fill-rule="nonzero" fill-opacity="1" /><path clip-path="url(#clip450)" d="M128.288 203.058 Q124.677 203.058 122.848 206.623 Q121.043 210.165 121.043 217.294 Q121.043 224.401 122.848 227.966 Q124.677 231.507 128.288 231.507 Q131.922 231.507 133.728 227.966 Q135.556 224.401 135.556 217.294 Q135.556 210.165 133.728 206.623 Q131.922 203.058 128.288 203.058 M128.288 199.355 Q134.098 199.355 137.154 203.961 Q140.232 208.544 140.232 217.294 Q140.232 226.021 137.154 230.628 Q134.098 235.211 128.288 235.211 Q122.478 235.211 119.399 230.628 Q116.343 226.021 116.343 217.294 Q116.343 208.544 119.399 203.961 Q122.478 199.355 128.288 199.355 Z" fill="#000000" fill-rule="nonzero" fill-opacity="1" /><path clip-path="url(#clip450)" d="M148.45 228.66 L153.334 228.66 L153.334 234.54 L148.45 234.54 L148.45 228.66 Z" fill="#000000" fill-rule="nonzero" fill-opacity="1" /><path clip-path="url(#clip450)" d="M163.658 233.822 L163.658 229.563 Q165.417 230.396 167.223 230.836 Q169.028 231.276 170.764 231.276 Q175.394 231.276 177.825 228.174 Q180.278 225.049 180.626 218.706 Q179.283 220.697 177.223 221.762 Q175.163 222.827 172.663 222.827 Q167.477 222.827 164.445 219.702 Q161.436 216.554 161.436 211.114 Q161.436 205.79 164.584 202.572 Q167.732 199.355 172.964 199.355 Q178.959 199.355 182.107 203.961 Q185.278 208.544 185.278 217.294 Q185.278 225.466 181.389 230.35 Q177.524 235.211 170.973 235.211 Q169.214 235.211 167.408 234.864 Q165.602 234.517 163.658 233.822 M172.964 219.169 Q176.112 219.169 177.94 217.017 Q179.792 214.864 179.792 211.114 Q179.792 207.387 177.94 205.234 Q176.112 203.058 172.964 203.058 Q169.815 203.058 167.964 205.234 Q166.135 207.387 166.135 211.114 Q166.135 214.864 167.964 217.017 Q169.815 219.169 172.964 219.169 Z" fill="#000000" fill-rule="nonzero" fill-opacity="1" /><path clip-path="url(#clip450)" d="M197.709 230.605 L214.028 230.605 L214.028 234.54 L192.084 234.54 L192.084 230.605 Q194.746 227.85 199.329 223.22 Q203.936 218.568 205.116 217.225 Q207.362 214.702 208.241 212.966 Q209.144 211.206 209.144 209.517 Q209.144 206.762 207.199 205.026 Q205.278 203.29 202.176 203.29 Q199.977 203.29 197.524 204.054 Q195.093 204.818 192.315 206.369 L192.315 201.646 Q195.139 200.512 197.593 199.933 Q200.047 199.355 202.084 199.355 Q207.454 199.355 210.649 202.04 Q213.843 204.725 213.843 209.216 Q213.843 211.345 213.033 213.267 Q212.246 215.165 210.139 217.757 Q209.561 218.429 206.459 221.646 Q203.357 224.841 197.709 230.605 Z" fill="#000000" fill-rule="nonzero" fill-opacity="1" /><path clip-path="url(#clip450)" d="M14.479 769.635 L14.479 763.746 L43.7294 763.746 L28.3562 746.272 L28.3562 738.793 L45.0344 757.699 L64.0042 737.997 L64.0042 745.636 L46.5939 763.746 L64.0042 763.746 L64.0042 769.635 L14.479 769.635 Z" fill="#000000" fill-rule="nonzero" fill-opacity="1" /><path clip-path="url(#clip450)" d="M41.4377 717.086 Q41.4377 721.669 43.8885 724.311 Q46.3393 726.921 50.6362 726.921 Q54.933 726.921 57.3838 724.311 Q59.8346 721.669 59.8346 717.086 Q59.8346 712.502 57.3838 709.861 Q54.9012 707.219 50.6362 707.219 Q46.3393 707.219 43.8885 709.861 Q41.4377 712.47 41.4377 717.086 M38.7005 723.515 Q37.682 727.653 34.8492 729.976 Q32.0165 732.268 27.9424 732.268 Q22.2451 732.268 18.935 728.226 Q15.6248 724.152 15.6248 717.086 Q15.6248 709.988 18.935 705.946 Q22.2451 701.903 27.9424 701.903 Q32.0165 701.903 34.8492 704.227 Q37.682 706.519 38.7005 710.624 Q39.7826 705.977 42.9337 703.399 Q46.0847 700.789 50.6362 700.789 Q57.543 700.789 61.2351 705.023 Q64.9272 709.224 64.9272 717.086 Q64.9272 724.947 61.2351 729.18 Q57.543 733.382 50.6362 733.382 Q46.0847 733.382 42.9337 730.772 Q39.7826 728.162 38.7005 723.515 M28.5472 725.87 Q32.2393 725.87 34.3081 723.579 Q36.377 721.255 36.377 717.086 Q36.377 712.948 34.3081 710.624 Q32.2393 708.269 28.5472 708.269 Q24.8551 708.269 22.7862 710.624 Q20.7174 712.948 20.7174 717.086 Q20.7174 721.255 22.7862 723.579 Q24.8551 725.87 28.5472 725.87 Z" fill="#000000" fill-rule="nonzero" fill-opacity="1" /><polyline clip-path="url(#clip451)" style="stroke:#009af9; stroke-linecap:round; stroke-linejoin:round; stroke-width:4; stroke-opacity:1; fill:none" points="309.539,1384.24 323.579,1371.07 343.391,1352.55 367.374,1330.23 399.124,1300.85 441.182,1262.24 496.928,1211.62 566.638,1149.24 640.993,1083.89 715.573,1019.63 790.325,956.571 865.232,894.814 940.303,834.423 1015.58,775.445 1091.13,717.915 1167.02,661.87 1243.33,607.356 1320.13,554.437 1397.45,503.207 1475.28,453.795 1553.57,406.361 1632.21,361.098 1669.13,340.688 1747.95,298.988 1826.6,259.967 1904.86,223.802 1982.46,190.636 2059.15,160.571 2134.59,133.696 2208.03,110.166 2275.09,90.9956 2280.36,89.5836 2282.89,88.9255 "/>
<circle clip-path="url(#clip451)" cx="1669.13" cy="340.688" r="10.8" fill="#cd0000" fill-rule="evenodd" fill-opacity="1" stroke="none"/>
<circle clip-path="url(#clip451)" cx="2282.89" cy="88.9255" r="10.8" fill="#b8860b" fill-rule="evenodd" fill-opacity="1" stroke="none"/>
<circle clip-path="url(#clip451)" cx="1669.13" cy="340.688" r="10.8" fill="#cd0000" fill-rule="evenodd" fill-opacity="1" stroke="none"/>
<circle clip-path="url(#clip451)" cx="2282.89" cy="88.9255" r="10.8" fill="#b8860b" fill-rule="evenodd" fill-opacity="1" stroke="none"/>
<polyline clip-path="url(#clip451)" style="stroke:#ac8d18; stroke-linecap:round; stroke-linejoin:round; stroke-width:4; stroke-opacity:1; fill:none" points="309.539,1153.9 309.541,1153.9 334.165,1135.96 362.147,1115.68 397.253,1090.39 441.376,1058.87 496.941,1019.59 567.06,970.691 639.064,921.271 711.9,872.125 785.386,823.425 859.29,775.369 933.341,728.174 1007.23,682.066 1080.63,637.265 1153.23,593.973 1155.62,592.562 1227,551.056 1297.12,511.296 1365.75,473.408 1432.76,437.414 1498.15,403.296 1561.92,371.005 1624.17,340.469 1684.99,311.607 1744.51,284.335 1802.86,258.573 1860.17,234.25 1916.56,211.305 1972.14,189.689 2027,169.363 2081.22,150.296 2134.88,132.463 2188.06,115.845 2240.82,100.425 2293.24,86.1857 "/>
<circle clip-path="url(#clip451)" cx="309.541" cy="1153.9" r="10.8" fill="#458b00" fill-rule="evenodd" fill-opacity="1" stroke="none"/>
<circle clip-path="url(#clip451)" cx="1155.62" cy="592.562" r="10.8" fill="#ffa500" fill-rule="evenodd" fill-opacity="1" stroke="none"/>
<circle clip-path="url(#clip451)" cx="309.541" cy="1153.9" r="10.8" fill="#458b00" fill-rule="evenodd" fill-opacity="1" stroke="none"/>
<circle clip-path="url(#clip451)" cx="1155.62" cy="592.562" r="10.8" fill="#ffa500" fill-rule="evenodd" fill-opacity="1" stroke="none"/>
<path clip-path="url(#clip450)" d="M320.119 352.309 L660.299 352.309 L660.299 93.1086 L320.119 93.1086  Z" fill="#ffffff" fill-rule="evenodd" fill-opacity="1"/>
<polyline clip-path="url(#clip450)" style="stroke:#000000; stroke-linecap:round; stroke-linejoin:round; stroke-width:4; stroke-opacity:1; fill:none" points="320.119,352.309 660.299,352.309 660.299,93.1086 320.119,93.1086 320.119,352.309 "/>
<circle clip-path="url(#clip450)" cx="413.574" cy="144.949" r="23.04" fill="#cd0000" fill-rule="evenodd" fill-opacity="1" stroke="none"/>
<path clip-path="url(#clip450)" d="M527.537 137.298 L527.537 141.28 Q525.732 140.284 523.903 139.798 Q522.098 139.289 520.246 139.289 Q516.102 139.289 513.811 141.928 Q511.519 144.544 511.519 149.289 Q511.519 154.034 513.811 156.673 Q516.102 159.289 520.246 159.289 Q522.098 159.289 523.903 158.803 Q525.732 158.293 527.537 157.298 L527.537 161.233 Q525.755 162.067 523.834 162.483 Q521.936 162.9 519.783 162.9 Q513.926 162.9 510.477 159.219 Q507.028 155.539 507.028 149.289 Q507.028 142.946 510.5 139.312 Q513.996 135.678 520.061 135.678 Q522.028 135.678 523.903 136.095 Q525.778 136.488 527.537 137.298 Z" fill="#000000" fill-rule="nonzero" fill-opacity="1" /><path clip-path="url(#clip450)" d="M556.496 146.581 L556.496 162.229 L552.236 162.229 L552.236 146.719 Q552.236 143.039 550.801 141.21 Q549.366 139.382 546.496 139.382 Q543.047 139.382 541.056 141.581 Q539.065 143.78 539.065 147.576 L539.065 162.229 L534.783 162.229 L534.783 126.21 L539.065 126.21 L539.065 140.331 Q540.593 137.993 542.653 136.835 Q544.736 135.678 547.445 135.678 Q551.912 135.678 554.204 138.456 Q556.496 141.21 556.496 146.581 Z" fill="#000000" fill-rule="nonzero" fill-opacity="1" /><circle clip-path="url(#clip450)" cx="413.574" cy="196.789" r="23.04" fill="#b8860b" fill-rule="evenodd" fill-opacity="1" stroke="none"/>
<path clip-path="url(#clip450)" d="M507.028 203.837 L507.028 188.143 L511.287 188.143 L511.287 203.675 Q511.287 207.356 512.723 209.208 Q514.158 211.036 517.028 211.036 Q520.477 211.036 522.468 208.837 Q524.482 206.638 524.482 202.842 L524.482 188.143 L528.741 188.143 L528.741 214.069 L524.482 214.069 L524.482 210.087 Q522.931 212.448 520.871 213.606 Q518.834 214.74 516.125 214.74 Q511.658 214.74 509.343 211.962 Q507.028 209.184 507.028 203.837 M517.746 187.518 L517.746 187.518 Z" fill="#000000" fill-rule="nonzero" fill-opacity="1" /><path clip-path="url(#clip450)" d="M554.042 188.907 L554.042 192.934 Q552.236 192.009 550.292 191.546 Q548.347 191.083 546.264 191.083 Q543.093 191.083 541.496 192.055 Q539.922 193.027 539.922 194.971 Q539.922 196.453 541.056 197.309 Q542.19 198.143 545.616 198.907 L547.074 199.231 Q551.611 200.203 553.509 201.985 Q555.431 203.745 555.431 206.916 Q555.431 210.527 552.56 212.633 Q549.713 214.74 544.713 214.74 Q542.63 214.74 540.361 214.323 Q538.116 213.93 535.616 213.12 L535.616 208.721 Q537.977 209.948 540.269 210.573 Q542.56 211.175 544.806 211.175 Q547.815 211.175 549.435 210.157 Q551.056 209.115 551.056 207.24 Q551.056 205.504 549.875 204.578 Q548.718 203.652 544.759 202.796 L543.278 202.448 Q539.32 201.615 537.56 199.902 Q535.801 198.166 535.801 195.157 Q535.801 191.499 538.394 189.509 Q540.986 187.518 545.755 187.518 Q548.116 187.518 550.199 187.865 Q552.283 188.212 554.042 188.907 Z" fill="#000000" fill-rule="nonzero" fill-opacity="1" /><path clip-path="url(#clip450)" d="M584.389 200.041 L584.389 202.124 L564.806 202.124 Q565.083 206.522 567.445 208.837 Q569.829 211.129 574.065 211.129 Q576.519 211.129 578.81 210.527 Q581.125 209.925 583.394 208.721 L583.394 212.749 Q581.102 213.721 578.694 214.231 Q576.287 214.74 573.81 214.74 Q567.607 214.74 563.972 211.129 Q560.361 207.518 560.361 201.36 Q560.361 194.995 563.787 191.268 Q567.236 187.518 573.07 187.518 Q578.301 187.518 581.333 190.897 Q584.389 194.254 584.389 200.041 M580.13 198.791 Q580.083 195.296 578.162 193.212 Q576.264 191.129 573.116 191.129 Q569.551 191.129 567.398 193.143 Q565.269 195.157 564.945 198.814 L580.13 198.791 Z" fill="#000000" fill-rule="nonzero" fill-opacity="1" /><path clip-path="url(#clip450)" d="M606.403 192.124 Q605.685 191.708 604.829 191.522 Q603.995 191.314 602.977 191.314 Q599.366 191.314 597.421 193.675 Q595.5 196.013 595.5 200.411 L595.5 214.069 L591.218 214.069 L591.218 188.143 L595.5 188.143 L595.5 192.171 Q596.843 189.809 598.995 188.675 Q601.148 187.518 604.227 187.518 Q604.667 187.518 605.199 187.587 Q605.731 187.634 606.38 187.749 L606.403 192.124 Z" fill="#000000" fill-rule="nonzero" fill-opacity="1" /><path clip-path="url(#clip450)" d="M636.935 182.171 L636.935 187.101 Q634.574 184.902 631.889 183.814 Q629.227 182.726 626.217 182.726 Q620.291 182.726 617.143 186.36 Q613.995 189.972 613.995 196.823 Q613.995 203.652 617.143 207.286 Q620.291 210.897 626.217 210.897 Q629.227 210.897 631.889 209.809 Q634.574 208.721 636.935 206.522 L636.935 211.407 Q634.481 213.073 631.727 213.907 Q628.995 214.74 625.94 214.74 Q618.092 214.74 613.579 209.948 Q609.065 205.133 609.065 196.823 Q609.065 188.49 613.579 183.698 Q618.092 178.884 625.94 178.884 Q629.041 178.884 631.773 179.717 Q634.528 180.527 636.935 182.171 Z" fill="#000000" fill-rule="nonzero" fill-opacity="1" /><circle clip-path="url(#clip450)" cx="413.574" cy="248.629" r="23.04" fill="#458b00" fill-rule="evenodd" fill-opacity="1" stroke="none"/>
<path clip-path="url(#clip450)" d="M523.417 249.705 Q524.922 250.214 526.334 251.881 Q527.769 253.548 529.204 256.464 L533.949 265.909 L528.926 265.909 L524.505 257.043 Q522.792 253.571 521.172 252.436 Q519.574 251.302 516.797 251.302 L511.704 251.302 L511.704 265.909 L507.028 265.909 L507.028 231.349 L517.584 231.349 Q523.51 231.349 526.426 233.825 Q529.343 236.302 529.343 241.302 Q529.343 244.566 527.815 246.719 Q526.311 248.872 523.417 249.705 M511.704 235.191 L511.704 247.46 L517.584 247.46 Q520.963 247.46 522.676 245.909 Q524.412 244.335 524.412 241.302 Q524.412 238.27 522.676 236.742 Q520.963 235.191 517.584 235.191 L511.704 235.191 Z" fill="#000000" fill-rule="nonzero" fill-opacity="1" /><path clip-path="url(#clip450)" d="M541.195 261.973 L548.834 261.973 L548.834 235.608 L540.523 237.275 L540.523 233.015 L548.787 231.349 L553.463 231.349 L553.463 261.973 L561.102 261.973 L561.102 265.909 L541.195 265.909 L541.195 261.973 Z" fill="#000000" fill-rule="nonzero" fill-opacity="1" /><circle clip-path="url(#clip450)" cx="413.574" cy="300.469" r="23.04" fill="#ffa500" fill-rule="evenodd" fill-opacity="1" stroke="none"/>
<path clip-path="url(#clip450)" d="M528.741 302.101 L528.741 317.749 L524.482 317.749 L524.482 302.239 Q524.482 298.559 523.047 296.73 Q521.611 294.902 518.741 294.902 Q515.292 294.902 513.301 297.101 Q511.311 299.3 511.311 303.096 L511.311 317.749 L507.028 317.749 L507.028 291.823 L511.311 291.823 L511.311 295.851 Q512.838 293.513 514.899 292.355 Q516.982 291.198 519.69 291.198 Q524.158 291.198 526.449 293.976 Q528.741 296.73 528.741 302.101 Z" fill="#000000" fill-rule="nonzero" fill-opacity="1" /><path clip-path="url(#clip450)" d="M553.764 292.587 L553.764 296.614 Q551.959 295.689 550.014 295.226 Q548.07 294.763 545.986 294.763 Q542.815 294.763 541.218 295.735 Q539.644 296.707 539.644 298.651 Q539.644 300.133 540.778 300.989 Q541.912 301.823 545.338 302.587 L546.797 302.911 Q551.334 303.883 553.232 305.665 Q555.153 307.425 555.153 310.596 Q555.153 314.207 552.283 316.313 Q549.435 318.42 544.435 318.42 Q542.352 318.42 540.084 318.003 Q537.838 317.61 535.338 316.8 L535.338 312.401 Q537.699 313.628 539.991 314.253 Q542.283 314.855 544.528 314.855 Q547.537 314.855 549.158 313.837 Q550.778 312.795 550.778 310.92 Q550.778 309.184 549.597 308.258 Q548.44 307.332 544.482 306.476 L543 306.128 Q539.042 305.295 537.283 303.582 Q535.523 301.846 535.523 298.837 Q535.523 295.179 538.116 293.189 Q540.709 291.198 545.477 291.198 Q547.838 291.198 549.921 291.545 Q552.005 291.892 553.764 292.587 Z" fill="#000000" fill-rule="nonzero" fill-opacity="1" /></svg>
