<?xml version="1.0" encoding="utf-8"?>
<svg xmlns="http://www.w3.org/2000/svg" xmlns:xlink="http://www.w3.org/1999/xlink" width="600" height="400" viewBox="0 0 2400 1600">
<defs>
  <clipPath id="clip420">
    <rect x="0" y="0" width="2400" height="1600"/>
  </clipPath>
</defs>
<path clip-path="url(#clip420)" d="M0 1600 L2400 1600 L2400 0 L0 0  Z" fill="#ffffff" fill-rule="evenodd" fill-opacity="1"/>
<defs>
  <clipPath id="clip421">
    <rect x="249" y="47" width="2104" height="1377"/>
  </clipPath>
</defs>
<path clip-path="url(#clip420)" d="M249.704 1423.18 L2352.76 1423.18 L2352.76 47.2441 L249.704 47.2441  Z" fill="#ffffff" fill-rule="evenodd" fill-opacity="1"/>
<polyline clip-path="url(#clip421)" style="stroke:#000000; stroke-linecap:round; stroke-linejoin:round; stroke-width:2; stroke-opacity:0.1; fill:none" points="309.224,1423.18 309.224,47.2441 "/>
<polyline clip-path="url(#clip421)" style="stroke:#000000; stroke-linecap:round; stroke-linejoin:round; stroke-width:2; stroke-opacity:0.1; fill:none" points="860.971,1423.18 860.971,47.2441 "/>
<polyline clip-path="url(#clip421)" style="stroke:#000000; stroke-linecap:round; stroke-linejoin:round; stroke-width:2; stroke-opacity:0.1; fill:none" points="1412.72,1423.18 1412.72,47.2441 "/>
<polyline clip-path="url(#clip421)" style="stroke:#000000; stroke-linecap:round; stroke-linejoin:round; stroke-width:2; stroke-opacity:0.1; fill:none" points="1964.46,1423.18 1964.46,47.2441 "/>
<polyline clip-path="url(#clip421)" style="stroke:#000000; stroke-linecap:round; stroke-linejoin:round; stroke-width:2; stroke-opacity:0.1; fill:none" points="249.704,1143.49 2352.76,1143.49 "/>
<polyline clip-path="url(#clip421)" style="stroke:#000000; stroke-linecap:round; stroke-linejoin:round; stroke-width:2; stroke-opacity:0.1; fill:none" points="249.704,844.173 2352.76,844.173 "/>
<polyline clip-path="url(#clip421)" style="stroke:#000000; stroke-linecap:round; stroke-linejoin:round; stroke-width:2; stroke-opacity:0.1; fill:none" points="249.704,544.855 2352.76,544.855 "/>
<polyline clip-path="url(#clip421)" style="stroke:#000000; stroke-linecap:round; stroke-linejoin:round; stroke-width:2; stroke-opacity:0.1; fill:none" points="249.704,245.537 2352.76,245.537 "/>
<polyline clip-path="url(#clip420)" style="stroke:#000000; stroke-linecap:round; stroke-linejoin:round; stroke-width:4; stroke-opacity:1; fill:none" points="249.704,1423.18 2352.76,1423.18 "/>
<polyline clip-path="url(#clip420)" style="stroke:#000000; stroke-linecap:round; stroke-linejoin:round; stroke-width:4; stroke-opacity:1; fill:none" points="309.224,1423.18 309.224,1404.28 "/>
<polyline clip-path="url(#clip420)" style="stroke:#000000; stroke-linecap:round; stroke-linejoin:round; stroke-width:4; stroke-opacity:1; fill:none" points="860.971,1423.18 860.971,1404.28 "/>
<polyline clip-path="url(#clip420)" style="stroke:#000000; stroke-linecap:round; stroke-linejoin:round; stroke-width:4; stroke-opacity:1; fill:none" points="1412.72,1423.18 1412.72,1404.28 "/>
<polyline clip-path="url(#clip420)" style="stroke:#000000; stroke-linecap:round; stroke-linejoin:round; stroke-width:4; stroke-opacity:1; fill:none" points="1964.46,1423.18 1964.46,1404.28 "/>
<path clip-path="url(#clip420)" d="M276.875 1481.64 L284.514 1481.64 L284.514 1455.28 L276.204 1456.95 L276.204 1452.69 L284.468 1451.02 L289.143 1451.02 L289.143 1481.64 L296.782 1481.64 L296.782 1485.58 L276.875 1485.58 L276.875 1481.64 Z" fill="#000000" fill-rule="nonzero" fill-opacity="1" /><path clip-path="url(#clip420)" d="M306.227 1479.7 L311.111 1479.7 L311.111 1485.58 L306.227 1485.58 L306.227 1479.7 Z" fill="#000000" fill-rule="nonzero" fill-opacity="1" /><path clip-path="url(#clip420)" d="M321.342 1451.02 L339.699 1451.02 L339.699 1454.96 L325.625 1454.96 L325.625 1463.43 Q326.643 1463.08 327.662 1462.92 Q328.68 1462.73 329.699 1462.73 Q335.486 1462.73 338.865 1465.9 Q342.245 1469.08 342.245 1474.49 Q342.245 1480.07 338.773 1483.17 Q335.301 1486.25 328.981 1486.25 Q326.805 1486.25 324.537 1485.88 Q322.291 1485.51 319.884 1484.77 L319.884 1480.07 Q321.967 1481.2 324.19 1481.76 Q326.412 1482.32 328.889 1482.32 Q332.893 1482.32 335.231 1480.21 Q337.569 1478.1 337.569 1474.49 Q337.569 1470.88 335.231 1468.77 Q332.893 1466.67 328.889 1466.67 Q327.014 1466.67 325.139 1467.08 Q323.287 1467.5 321.342 1468.38 L321.342 1451.02 Z" fill="#000000" fill-rule="nonzero" fill-opacity="1" /><path clip-path="url(#clip420)" d="M828.043 1481.64 L835.681 1481.64 L835.681 1455.28 L827.371 1456.95 L827.371 1452.69 L835.635 1451.02 L840.311 1451.02 L840.311 1481.64 L847.95 1481.64 L847.95 1485.58 L828.043 1485.58 L828.043 1481.64 Z" fill="#000000" fill-rule="nonzero" fill-opacity="1" /><path clip-path="url(#clip420)" d="M857.394 1479.7 L862.278 1479.7 L862.278 1485.58 L857.394 1485.58 L857.394 1479.7 Z" fill="#000000" fill-rule="nonzero" fill-opacity="1" /><path clip-path="url(#clip420)" d="M883.042 1466.44 Q879.894 1466.44 878.042 1468.59 Q876.214 1470.74 876.214 1474.49 Q876.214 1478.22 878.042 1480.39 Q879.894 1482.55 883.042 1482.55 Q886.19 1482.55 888.019 1480.39 Q889.871 1478.22 889.871 1474.49 Q889.871 1470.74 888.019 1468.59 Q886.19 1466.44 883.042 1466.44 M892.325 1451.78 L892.325 1456.04 Q890.565 1455.21 888.76 1454.77 Q886.977 1454.33 885.218 1454.33 Q880.589 1454.33 878.135 1457.45 Q875.704 1460.58 875.357 1466.9 Q876.723 1464.89 878.783 1463.82 Q880.843 1462.73 883.32 1462.73 Q888.528 1462.73 891.538 1465.9 Q894.57 1469.05 894.57 1474.49 Q894.57 1479.82 891.422 1483.03 Q888.274 1486.25 883.042 1486.25 Q877.047 1486.25 873.876 1481.67 Q870.704 1477.06 870.704 1468.33 Q870.704 1460.14 874.593 1455.28 Q878.482 1450.39 885.033 1450.39 Q886.792 1450.39 888.575 1450.74 Q890.38 1451.09 892.325 1451.78 Z" fill="#000000" fill-rule="nonzero" fill-opacity="1" /><path clip-path="url(#clip420)" d="M1380.32 1481.64 L1387.96 1481.64 L1387.96 1455.28 L1379.65 1456.95 L1379.65 1452.69 L1387.91 1451.02 L1392.59 1451.02 L1392.59 1481.64 L1400.23 1481.64 L1400.23 1485.58 L1380.32 1485.58 L1380.32 1481.64 Z" fill="#000000" fill-rule="nonzero" fill-opacity="1" /><path clip-path="url(#clip420)" d="M1409.67 1479.7 L1414.56 1479.7 L1414.56 1485.58 L1409.67 1485.58 L1409.67 1479.7 Z" fill="#000000" fill-rule="nonzero" fill-opacity="1" /><path clip-path="url(#clip420)" d="M1423.56 1451.02 L1445.78 1451.02 L1445.78 1453.01 L1433.24 1485.58 L1428.35 1485.58 L1440.16 1454.96 L1423.56 1454.96 L1423.56 1451.02 Z" fill="#000000" fill-rule="nonzero" fill-opacity="1" /><path clip-path="url(#clip420)" d="M1931.66 1481.64 L1939.3 1481.64 L1939.3 1455.28 L1930.99 1456.95 L1930.99 1452.69 L1939.25 1451.02 L1943.93 1451.02 L1943.93 1481.64 L1951.57 1481.64 L1951.57 1485.58 L1931.66 1485.58 L1931.66 1481.64 Z" fill="#000000" fill-rule="nonzero" fill-opacity="1" /><path clip-path="url(#clip420)" d="M1961.01 1479.7 L1965.9 1479.7 L1965.9 1485.58 L1961.01 1485.58 L1961.01 1479.7 Z" fill="#000000" fill-rule="nonzero" fill-opacity="1" /><path clip-path="url(#clip420)" d="M1986.08 1469.17 Q1982.75 1469.17 1980.83 1470.95 Q1978.93 1472.73 1978.93 1475.86 Q1978.93 1478.98 1980.83 1480.77 Q1982.75 1482.55 1986.08 1482.55 Q1989.42 1482.55 1991.34 1480.77 Q1993.26 1478.96 1993.26 1475.86 Q1993.26 1472.73 1991.34 1470.95 Q1989.44 1469.17 1986.08 1469.17 M1981.41 1467.18 Q1978.4 1466.44 1976.71 1464.38 Q1975.04 1462.32 1975.04 1459.35 Q1975.04 1455.21 1977.98 1452.8 Q1980.94 1450.39 1986.08 1450.39 Q1991.25 1450.39 1994.19 1452.8 Q1997.12 1455.21 1997.12 1459.35 Q1997.12 1462.32 1995.44 1464.38 Q1993.77 1466.44 1990.78 1467.18 Q1994.16 1467.96 1996.04 1470.26 Q1997.94 1472.55 1997.94 1475.86 Q1997.94 1480.88 1994.86 1483.57 Q1991.8 1486.25 1986.08 1486.25 Q1980.37 1486.25 1977.29 1483.57 Q1974.23 1480.88 1974.23 1475.86 Q1974.23 1472.55 1976.13 1470.26 Q1978.03 1467.96 1981.41 1467.18 M1979.69 1459.79 Q1979.69 1462.48 1981.36 1463.98 Q1983.05 1465.49 1986.08 1465.49 Q1989.09 1465.49 1990.78 1463.98 Q1992.5 1462.48 1992.5 1459.79 Q1992.5 1457.11 1990.78 1455.6 Q1989.09 1454.1 1986.08 1454.1 Q1983.05 1454.1 1981.36 1455.6 Q1979.69 1457.11 1979.69 1459.79 Z" fill="#000000" fill-rule="nonzero" fill-opacity="1" /><path clip-path="url(#clip420)" d="M1267.36 1518.52 L1273.25 1518.52 L1273.25 1547.77 L1290.73 1532.4 L1298.21 1532.4 L1279.3 1549.07 L1299 1568.04 L1291.36 1568.04 L1273.25 1550.63 L1273.25 1568.04 L1267.36 1568.04 L1267.36 1518.52 Z" fill="#000000" fill-rule="nonzero" fill-opacity="1" /><path clip-path="url(#clip420)" d="M1304.54 1520.52 L1335.1 1520.52 L1335.1 1523.26 L1317.84 1568.04 L1311.13 1568.04 L1327.36 1525.93 L1304.54 1525.93 L1304.54 1520.52 Z" fill="#000000" fill-rule="nonzero" fill-opacity="1" /><polyline clip-path="url(#clip420)" style="stroke:#000000; stroke-linecap:round; stroke-linejoin:round; stroke-width:4; stroke-opacity:1; fill:none" points="249.704,1423.18 249.704,47.2441 "/>
<polyline clip-path="url(#clip420)" style="stroke:#000000; stroke-linecap:round; stroke-linejoin:round; stroke-width:4; stroke-opacity:1; fill:none" points="249.704,1143.49 268.602,1143.49 "/>
<polyline clip-path="url(#clip420)" style="stroke:#000000; stroke-linecap:round; stroke-linejoin:round; stroke-width:4; stroke-opacity:1; fill:none" points="249.704,844.173 268.602,844.173 "/>
<polyline clip-path="url(#clip420)" style="stroke:#000000; stroke-linecap:round; stroke-linejoin:round; stroke-width:4; stroke-opacity:1; fill:none" points="249.704,544.855 268.602,544.855 "/>
<polyline clip-path="url(#clip420)" style="stroke:#000000; stroke-linecap:round; stroke-linejoin:round; stroke-width:4; stroke-opacity:1; fill:none" points="249.704,245.537 268.602,245.537 "/>
<path clip-path="url(#clip420)" d="M126.205 1129.29 Q122.593 1129.29 120.765 1132.85 Q118.959 1136.4 118.959 1143.53 Q118.959 1150.63 120.765 1154.2 Q122.593 1157.74 126.205 1157.74 Q129.839 1157.74 131.644 1154.2 Q133.473 1150.63 133.473 1143.53 Q133.473 1136.4 131.644 1132.85 Q129.839 1129.29 126.205 1129.29 M126.205 1125.59 Q132.015 1125.59 135.07 1130.19 Q138.149 1134.78 138.149 1143.53 Q138.149 1152.25 135.07 1156.86 Q132.015 1161.44 126.205 1161.44 Q120.394 1161.44 117.316 1156.86 Q114.26 1152.25 114.26 1143.53 Q114.26 1134.78 117.316 1130.19 Q120.394 1125.59 126.205 1125.59 Z" fill="#000000" fill-rule="nonzero" fill-opacity="1" /><path clip-path="url(#clip420)" d="M146.366 1154.89 L151.251 1154.89 L151.251 1160.77 L146.366 1160.77 L146.366 1154.89 Z" fill="#000000" fill-rule="nonzero" fill-opacity="1" /><path clip-path="url(#clip420)" d="M171.436 1144.36 Q168.102 1144.36 166.181 1146.14 Q164.283 1147.92 164.283 1151.05 Q164.283 1154.17 166.181 1155.96 Q168.102 1157.74 171.436 1157.74 Q174.769 1157.74 176.69 1155.96 Q178.612 1154.15 178.612 1151.05 Q178.612 1147.92 176.69 1146.14 Q174.792 1144.36 171.436 1144.36 M166.76 1142.37 Q163.751 1141.63 162.061 1139.57 Q160.394 1137.51 160.394 1134.54 Q160.394 1130.4 163.334 1127.99 Q166.297 1125.59 171.436 1125.59 Q176.598 1125.59 179.538 1127.99 Q182.477 1130.4 182.477 1134.54 Q182.477 1137.51 180.788 1139.57 Q179.121 1141.63 176.135 1142.37 Q179.514 1143.16 181.389 1145.45 Q183.288 1147.74 183.288 1151.05 Q183.288 1156.07 180.209 1158.76 Q177.153 1161.44 171.436 1161.44 Q165.718 1161.44 162.64 1158.76 Q159.584 1156.07 159.584 1151.05 Q159.584 1147.74 161.482 1145.45 Q163.38 1143.16 166.76 1142.37 M165.047 1134.98 Q165.047 1137.67 166.714 1139.17 Q168.403 1140.68 171.436 1140.68 Q174.445 1140.68 176.135 1139.17 Q177.848 1137.67 177.848 1134.98 Q177.848 1132.3 176.135 1130.79 Q174.445 1129.29 171.436 1129.29 Q168.403 1129.29 166.714 1130.79 Q165.047 1132.3 165.047 1134.98 Z" fill="#000000" fill-rule="nonzero" fill-opacity="1" /><path clip-path="url(#clip420)" d="M202.176 1141.63 Q199.028 1141.63 197.176 1143.78 Q195.348 1145.93 195.348 1149.68 Q195.348 1153.41 197.176 1155.59 Q199.028 1157.74 202.176 1157.74 Q205.324 1157.74 207.153 1155.59 Q209.005 1153.41 209.005 1149.68 Q209.005 1145.93 207.153 1143.78 Q205.324 1141.63 202.176 1141.63 M211.459 1126.97 L211.459 1131.23 Q209.699 1130.4 207.894 1129.96 Q206.112 1129.52 204.352 1129.52 Q199.723 1129.52 197.269 1132.65 Q194.838 1135.77 194.491 1142.09 Q195.857 1140.08 197.917 1139.01 Q199.977 1137.92 202.454 1137.92 Q207.662 1137.92 210.672 1141.1 Q213.704 1144.24 213.704 1149.68 Q213.704 1155.01 210.556 1158.22 Q207.408 1161.44 202.176 1161.44 Q196.181 1161.44 193.01 1156.86 Q189.838 1152.25 189.838 1143.53 Q189.838 1135.33 193.727 1130.47 Q197.616 1125.59 204.167 1125.59 Q205.926 1125.59 207.709 1125.93 Q209.514 1126.28 211.459 1126.97 Z" fill="#000000" fill-rule="nonzero" fill-opacity="1" /><path clip-path="url(#clip420)" d="M126.459 829.972 Q122.848 829.972 121.019 833.536 Q119.214 837.078 119.214 844.208 Q119.214 851.314 121.019 854.879 Q122.848 858.42 126.459 858.42 Q130.093 858.42 131.899 854.879 Q133.728 851.314 133.728 844.208 Q133.728 837.078 131.899 833.536 Q130.093 829.972 126.459 829.972 M126.459 826.268 Q132.269 826.268 135.325 830.874 Q138.404 835.458 138.404 844.208 Q138.404 852.934 135.325 857.541 Q132.269 862.124 126.459 862.124 Q120.649 862.124 117.57 857.541 Q114.515 852.934 114.515 844.208 Q114.515 835.458 117.57 830.874 Q120.649 826.268 126.459 826.268 Z" fill="#000000" fill-rule="nonzero" fill-opacity="1" /><path clip-path="url(#clip420)" d="M146.621 855.573 L151.505 855.573 L151.505 861.453 L146.621 861.453 L146.621 855.573 Z" fill="#000000" fill-rule="nonzero" fill-opacity="1" /><path clip-path="url(#clip420)" d="M171.69 845.041 Q168.357 845.041 166.436 846.823 Q164.538 848.606 164.538 851.731 Q164.538 854.856 166.436 856.638 Q168.357 858.42 171.69 858.42 Q175.024 858.42 176.945 856.638 Q178.866 854.832 178.866 851.731 Q178.866 848.606 176.945 846.823 Q175.047 845.041 171.69 845.041 M167.015 843.05 Q164.005 842.309 162.315 840.249 Q160.649 838.189 160.649 835.226 Q160.649 831.083 163.589 828.675 Q166.552 826.268 171.69 826.268 Q176.852 826.268 179.792 828.675 Q182.732 831.083 182.732 835.226 Q182.732 838.189 181.042 840.249 Q179.376 842.309 176.389 843.05 Q179.769 843.837 181.644 846.129 Q183.542 848.42 183.542 851.731 Q183.542 856.754 180.464 859.439 Q177.408 862.124 171.69 862.124 Q165.973 862.124 162.894 859.439 Q159.839 856.754 159.839 851.731 Q159.839 848.42 161.737 846.129 Q163.635 843.837 167.015 843.05 M165.302 835.666 Q165.302 838.351 166.968 839.856 Q168.658 841.36 171.69 841.36 Q174.7 841.36 176.389 839.856 Q178.102 838.351 178.102 835.666 Q178.102 832.981 176.389 831.476 Q174.7 829.972 171.69 829.972 Q168.658 829.972 166.968 831.476 Q165.302 832.981 165.302 835.666 Z" fill="#000000" fill-rule="nonzero" fill-opacity="1" /><path clip-path="url(#clip420)" d="M201.852 845.041 Q198.519 845.041 196.598 846.823 Q194.7 848.606 194.7 851.731 Q194.7 854.856 196.598 856.638 Q198.519 858.42 201.852 858.42 Q205.186 858.42 207.107 856.638 Q209.028 854.832 209.028 851.731 Q209.028 848.606 207.107 846.823 Q205.209 845.041 201.852 845.041 M197.176 843.05 Q194.167 842.309 192.477 840.249 Q190.811 838.189 190.811 835.226 Q190.811 831.083 193.75 828.675 Q196.713 826.268 201.852 826.268 Q207.014 826.268 209.954 828.675 Q212.894 831.083 212.894 835.226 Q212.894 838.189 211.204 840.249 Q209.537 842.309 206.551 843.05 Q209.931 843.837 211.806 846.129 Q213.704 848.42 213.704 851.731 Q213.704 856.754 210.625 859.439 Q207.57 862.124 201.852 862.124 Q196.135 862.124 193.056 859.439 Q190 856.754 190 851.731 Q190 848.42 191.899 846.129 Q193.797 843.837 197.176 843.05 M195.463 835.666 Q195.463 838.351 197.13 839.856 Q198.82 841.36 201.852 841.36 Q204.862 841.36 206.551 839.856 Q208.264 838.351 208.264 835.666 Q208.264 832.981 206.551 831.476 Q204.862 829.972 201.852 829.972 Q198.82 829.972 197.13 831.476 Q195.463 832.981 195.463 835.666 Z" fill="#000000" fill-rule="nonzero" fill-opacity="1" /><path clip-path="url(#clip420)" d="M126.367 530.653 Q122.755 530.653 120.927 534.218 Q119.121 537.76 119.121 544.889 Q119.121 551.996 120.927 555.561 Q122.755 559.102 126.367 559.102 Q130.001 559.102 131.806 555.561 Q133.635 551.996 133.635 544.889 Q133.635 537.76 131.806 534.218 Q130.001 530.653 126.367 530.653 M126.367 526.95 Q132.177 526.95 135.232 531.556 Q138.311 536.14 138.311 544.889 Q138.311 553.616 135.232 558.223 Q132.177 562.806 126.367 562.806 Q120.556 562.806 117.478 558.223 Q114.422 553.616 114.422 544.889 Q114.422 536.14 117.478 531.556 Q120.556 526.95 126.367 526.95 Z" fill="#000000" fill-rule="nonzero" fill-opacity="1" /><path clip-path="url(#clip420)" d="M146.529 556.255 L151.413 556.255 L151.413 562.135 L146.529 562.135 L146.529 556.255 Z" fill="#000000" fill-rule="nonzero" fill-opacity="1" /><path clip-path="url(#clip420)" d="M161.737 561.417 L161.737 557.158 Q163.496 557.991 165.302 558.431 Q167.107 558.871 168.843 558.871 Q173.473 558.871 175.903 555.769 Q178.357 552.644 178.704 546.301 Q177.362 548.292 175.301 549.357 Q173.241 550.422 170.741 550.422 Q165.556 550.422 162.524 547.297 Q159.515 544.149 159.515 538.709 Q159.515 533.385 162.663 530.167 Q165.811 526.95 171.042 526.95 Q177.038 526.95 180.186 531.556 Q183.357 536.14 183.357 544.889 Q183.357 553.061 179.468 557.945 Q175.602 562.806 169.052 562.806 Q167.292 562.806 165.487 562.459 Q163.681 562.112 161.737 561.417 M171.042 546.764 Q174.19 546.764 176.019 544.612 Q177.871 542.459 177.871 538.709 Q177.871 534.982 176.019 532.829 Q174.19 530.653 171.042 530.653 Q167.894 530.653 166.042 532.829 Q164.214 534.982 164.214 538.709 Q164.214 542.459 166.042 544.612 Q167.894 546.764 171.042 546.764 Z" fill="#000000" fill-rule="nonzero" fill-opacity="1" /><path clip-path="url(#clip420)" d="M201.76 530.653 Q198.149 530.653 196.32 534.218 Q194.514 537.76 194.514 544.889 Q194.514 551.996 196.32 555.561 Q198.149 559.102 201.76 559.102 Q205.394 559.102 207.199 555.561 Q209.028 551.996 209.028 544.889 Q209.028 537.76 207.199 534.218 Q205.394 530.653 201.76 530.653 M201.76 526.95 Q207.57 526.95 210.625 531.556 Q213.704 536.14 213.704 544.889 Q213.704 553.616 210.625 558.223 Q207.57 562.806 201.76 562.806 Q195.95 562.806 192.871 558.223 Q189.815 553.616 189.815 544.889 Q189.815 536.14 192.871 531.556 Q195.95 526.95 201.76 526.95 Z" fill="#000000" fill-rule="nonzero" fill-opacity="1" /><path clip-path="url(#clip420)" d="M127.964 231.335 Q124.353 231.335 122.524 234.9 Q120.718 238.442 120.718 245.571 Q120.718 252.678 122.524 256.243 Q124.353 259.784 127.964 259.784 Q131.598 259.784 133.404 256.243 Q135.232 252.678 135.232 245.571 Q135.232 238.442 133.404 234.9 Q131.598 231.335 127.964 231.335 M127.964 227.632 Q133.774 227.632 136.829 232.238 Q139.908 236.821 139.908 245.571 Q139.908 254.298 136.829 258.905 Q133.774 263.488 127.964 263.488 Q122.154 263.488 119.075 258.905 Q116.019 254.298 116.019 245.571 Q116.019 236.821 119.075 232.238 Q122.154 227.632 127.964 227.632 Z" fill="#000000" fill-rule="nonzero" fill-opacity="1" /><path clip-path="url(#clip420)" d="M148.126 256.937 L153.01 256.937 L153.01 262.817 L148.126 262.817 L148.126 256.937 Z" fill="#000000" fill-rule="nonzero" fill-opacity="1" /><path clip-path="url(#clip420)" d="M163.334 262.099 L163.334 257.84 Q165.093 258.673 166.899 259.113 Q168.704 259.553 170.44 259.553 Q175.07 259.553 177.501 256.451 Q179.954 253.326 180.301 246.983 Q178.959 248.974 176.899 250.039 Q174.839 251.104 172.339 251.104 Q167.153 251.104 164.121 247.979 Q161.112 244.831 161.112 239.391 Q161.112 234.067 164.26 230.849 Q167.408 227.632 172.639 227.632 Q178.635 227.632 181.783 232.238 Q184.954 236.821 184.954 245.571 Q184.954 253.743 181.065 258.627 Q177.2 263.488 170.649 263.488 Q168.889 263.488 167.084 263.141 Q165.278 262.794 163.334 262.099 M172.639 247.446 Q175.788 247.446 177.616 245.294 Q179.468 243.141 179.468 239.391 Q179.468 235.664 177.616 233.511 Q175.788 231.335 172.639 231.335 Q169.491 231.335 167.64 233.511 Q165.811 235.664 165.811 239.391 Q165.811 243.141 167.64 245.294 Q169.491 247.446 172.639 247.446 Z" fill="#000000" fill-rule="nonzero" fill-opacity="1" /><path clip-path="url(#clip420)" d="M197.385 258.881 L213.704 258.881 L213.704 262.817 L191.76 262.817 L191.76 258.881 Q194.422 256.127 199.005 251.497 Q203.612 246.845 204.792 245.502 Q207.037 242.979 207.917 241.243 Q208.82 239.483 208.82 237.794 Q208.82 235.039 206.875 233.303 Q204.954 231.567 201.852 231.567 Q199.653 231.567 197.2 232.331 Q194.769 233.095 191.991 234.646 L191.991 229.923 Q194.815 228.789 197.269 228.21 Q199.723 227.632 201.76 227.632 Q207.13 227.632 210.324 230.317 Q213.519 233.002 213.519 237.493 Q213.519 239.622 212.709 241.544 Q211.922 243.442 209.815 246.034 Q209.237 246.706 206.135 249.923 Q203.033 253.118 197.385 258.881 Z" fill="#000000" fill-rule="nonzero" fill-opacity="1" /><path clip-path="url(#clip420)" d="M14.479 769.635 L14.479 763.746 L43.7294 763.746 L28.3562 746.272 L28.3562 738.793 L45.0344 757.699 L64.0042 737.997 L64.0042 745.636 L46.5939 763.746 L64.0042 763.746 L64.0042 769.635 L14.479 769.635 Z" fill="#000000" fill-rule="nonzero" fill-opacity="1" /><path clip-path="url(#clip420)" d="M41.4377 717.086 Q41.4377 721.669 43.8885 724.311 Q46.3393 726.921 50.6362 726.921 Q54.933 726.921 57.3838 724.311 Q59.8346 721.669 59.8346 717.086 Q59.8346 712.502 57.3838 709.861 Q54.9012 707.219 50.6362 707.219 Q46.3393 707.219 43.8885 709.861 Q41.4377 712.47 41.4377 717.086 M38.7005 723.515 Q37.682 727.653 34.8492 729.976 Q32.0165 732.268 27.9424 732.268 Q22.2451 732.268 18.935 728.226 Q15.6248 724.152 15.6248 717.086 Q15.6248 709.988 18.935 705.946 Q22.2451 701.903 27.9424 701.903 Q32.0165 701.903 34.8492 704.227 Q37.682 706.519 38.7005 710.624 Q39.7826 705.977 42.9337 703.399 Q46.0847 700.789 50.6362 700.789 Q57.543 700.789 61.2351 705.023 Q64.9272 709.224 64.9272 717.086 Q64.9272 724.947 61.2351 729.18 Q57.543 733.382 50.6362 733.382 Q46.0847 733.382 42.9337 730.772 Q39.7826 728.162 38.7005 723.515 M28.5472 725.87 Q32.2393 725.87 34.3081 723.579 Q36.377 721.255 36.377 717.086 Q36.377 712.948 34.3081 710.624 Q32.2393 708.269 28.5472 708.269 Q24.8551 708.269 22.7862 710.624 Q20.7174 712.948 20.7174 717.086 Q20.7174 721.255 22.7862 723.579 Q24.8551 725.87 28.5472 725.87 Z" fill="#000000" fill-rule="nonzero" fill-opacity="1" /><polyline clip-path="url(#clip421)" style="stroke:#009af9; stroke-linecap:round; stroke-linejoin:round; stroke-width:4; stroke-opacity:1; fill:none" points="309.224,1384.24 309.226,1384.24 333.854,1362.43 361.84,1337.77 396.952,1307.04 441.082,1268.71 496.655,1220.96 566.785,1161.51 638.8,1101.43 711.647,1041.68 785.144,982.472 859.06,924.048 933.122,866.672 1007.02,810.617 1080.43,756.151 1153.04,703.52 1155.44,701.804 1226.82,651.344 1296.96,603.007 1365.59,556.944 1432.62,513.185 1498.01,471.707 1561.8,432.45 1624.06,395.326 1684.89,360.238 1744.42,327.083 1802.78,295.763 1860.1,266.193 1916.49,238.298 1972.08,212.019 2026.95,187.307 2081.18,164.126 2134.85,142.447 2188.04,122.244 2240.8,103.497 2293.24,86.1857 "/>
<circle clip-path="url(#clip421)" cx="309.226" cy="1384.24" r="10.8" fill="#458b00" fill-rule="evenodd" fill-opacity="1" stroke="none"/>
<circle clip-path="url(#clip421)" cx="1155.44" cy="701.804" r="10.8" fill="#ffa500" fill-rule="evenodd" fill-opacity="1" stroke="none"/>
<circle clip-path="url(#clip421)" cx="309.226" cy="1384.24" r="10.8" fill="#458b00" fill-rule="evenodd" fill-opacity="1" stroke="none"/>
<circle clip-path="url(#clip421)" cx="1155.44" cy="701.804" r="10.8" fill="#ffa500" fill-rule="evenodd" fill-opacity="1" stroke="none"/>
<path clip-path="url(#clip420)" d="M319.806 248.629 L584.185 248.629 L584.185 93.1086 L319.806 93.1086  Z" fill="#ffffff" fill-rule="evenodd" fill-opacity="1"/>
<polyline clip-path="url(#clip420)" style="stroke:#000000; stroke-linecap:round; stroke-linejoin:round; stroke-width:4; stroke-opacity:1; fill:none" points="319.806,248.629 584.185,248.629 584.185,93.1086 319.806,93.1086 319.806,248.629 "/>
<circle clip-path="url(#clip420)" cx="413.275" cy="144.949" r="23.04" fill="#458b00" fill-rule="evenodd" fill-opacity="1" stroke="none"/>
<path clip-path="url(#clip420)" d="M523.133 146.025 Q524.637 146.534 526.049 148.201 Q527.484 149.868 528.92 152.784 L533.665 162.229 L528.642 162.229 L524.22 153.363 Q522.508 149.891 520.887 148.756 Q519.29 147.622 516.512 147.622 L511.42 147.622 L511.42 162.229 L506.744 162.229 L506.744 127.669 L517.299 127.669 Q523.225 127.669 526.142 130.145 Q529.058 132.622 529.058 137.622 Q529.058 140.886 527.531 143.039 Q526.026 145.192 523.133 146.025 M511.42 131.511 L511.42 143.78 L517.299 143.78 Q520.679 143.78 522.392 142.229 Q524.128 140.655 524.128 137.622 Q524.128 134.59 522.392 133.062 Q520.679 131.511 517.299 131.511 L511.42 131.511 Z" fill="#000000" fill-rule="nonzero" fill-opacity="1" /><path clip-path="url(#clip420)" d="M540.91 158.293 L548.549 158.293 L548.549 131.928 L540.239 133.595 L540.239 129.335 L548.503 127.669 L553.179 127.669 L553.179 158.293 L560.818 158.293 L560.818 162.229 L540.91 162.229 L540.91 158.293 Z" fill="#000000" fill-rule="nonzero" fill-opacity="1" /><circle clip-path="url(#clip420)" cx="413.275" cy="196.789" r="23.04" fill="#ffa500" fill-rule="evenodd" fill-opacity="1" stroke="none"/>
<path clip-path="url(#clip420)" d="M528.457 198.421 L528.457 214.069 L524.197 214.069 L524.197 198.559 Q524.197 194.879 522.762 193.05 Q521.327 191.222 518.457 191.222 Q515.008 191.222 513.017 193.421 Q511.026 195.62 511.026 199.416 L511.026 214.069 L506.744 214.069 L506.744 188.143 L511.026 188.143 L511.026 192.171 Q512.554 189.833 514.614 188.675 Q516.697 187.518 519.406 187.518 Q523.873 187.518 526.165 190.296 Q528.457 193.05 528.457 198.421 Z" fill="#000000" fill-rule="nonzero" fill-opacity="1" /><path clip-path="url(#clip420)" d="M553.48 188.907 L553.48 192.934 Q551.674 192.009 549.73 191.546 Q547.785 191.083 545.702 191.083 Q542.531 191.083 540.933 192.055 Q539.359 193.027 539.359 194.971 Q539.359 196.453 540.494 197.309 Q541.628 198.143 545.054 198.907 L546.512 199.231 Q551.049 200.203 552.947 201.985 Q554.868 203.745 554.868 206.916 Q554.868 210.527 551.998 212.633 Q549.151 214.74 544.151 214.74 Q542.068 214.74 539.799 214.323 Q537.554 213.93 535.054 213.12 L535.054 208.721 Q537.415 209.948 539.707 210.573 Q541.998 211.175 544.244 211.175 Q547.253 211.175 548.873 210.157 Q550.494 209.115 550.494 207.24 Q550.494 205.504 549.313 204.578 Q548.156 203.652 544.197 202.796 L542.716 202.448 Q538.757 201.615 536.998 199.902 Q535.239 198.166 535.239 195.157 Q535.239 191.499 537.832 189.509 Q540.424 187.518 545.193 187.518 Q547.554 187.518 549.637 187.865 Q551.72 188.212 553.48 188.907 Z" fill="#000000" fill-rule="nonzero" fill-opacity="1" /></svg>
