<?xml version="1.0" encoding="utf-8"?>
<svg xmlns="http://www.w3.org/2000/svg" xmlns:xlink="http://www.w3.org/1999/xlink" width="600" height="400" viewBox="0 0 2400 1600">
<defs>
  <clipPath id="clip540">
    <rect x="0" y="0" width="2400" height="1600"/>
  </clipPath>
</defs>
<path clip-path="url(#clip540)" d="M0 1600 L2400 1600 L2400 0 L0 0  Z" fill="#ffffff" fill-rule="evenodd" fill-opacity="1"/>
<defs>
  <clipPath id="clip541">
    <rect x="250" y="47" width="2104" height="1377"/>
  </clipPath>
</defs>
<path clip-path="url(#clip540)" d="M250.028 1423.18 L2352.76 1423.18 L2352.76 47.2441 L250.028 47.2441  Z" fill="#ffffff" fill-rule="evenodd" fill-opacity="1"/>
<polyline clip-path="url(#clip541)" style="stroke:#000000; stroke-linecap:round; stroke-linejoin:round; stroke-width:2; stroke-opacity:0.1; fill:none" points="309.539,1423.18 309.539,47.2441 "/>
<polyline clip-path="url(#clip541)" style="stroke:#000000; stroke-linecap:round; stroke-linejoin:round; stroke-width:2; stroke-opacity:0.1; fill:none" points="867.724,1423.18 867.724,47.2441 "/>
<polyline clip-path="url(#clip541)" style="stroke:#000000; stroke-linecap:round; stroke-linejoin:round; stroke-width:2; stroke-opacity:0.1; fill:none" points="1425.91,1423.18 1425.91,47.2441 "/>
<polyline clip-path="url(#clip541)" style="stroke:#000000; stroke-linecap:round; stroke-linejoin:round; stroke-width:2; stroke-opacity:0.1; fill:none" points="1984.09,1423.18 1984.09,47.2441 "/>
<polyline clip-path="url(#clip541)" style="stroke:#000000; stroke-linecap:round; stroke-linejoin:round; stroke-width:2; stroke-opacity:0.1; fill:none" points="250.028,1201.2 2352.76,1201.2 "/>
<polyline clip-path="url(#clip541)" style="stroke:#000000; stroke-linecap:round; stroke-linejoin:round; stroke-width:2; stroke-opacity:0.1; fill:none" points="250.028,953.825 2352.76,953.825 "/>
<polyline clip-path="url(#clip541)" style="stroke:#000000; stroke-linecap:round; stroke-linejoin:round; stroke-width:2; stroke-opacity:0.1; fill:none" points="250.028,706.445 2352.76,706.445 "/>
<polyline clip-path="url(#clip541)" style="stroke:#000000; stroke-linecap:round; stroke-linejoin:round; stroke-width:2; stroke-opacity:0.1; fill:none" points="250.028,459.066 2352.76,459.066 "/>
<polyline clip-path="url(#clip541)" style="stroke:#000000; stroke-linecap:round; stroke-linejoin:round; stroke-width:2; stroke-opacity:0.1; fill:none" points="250.028,211.686 2352.76,211.686 "/>
<polyline clip-path="url(#clip540)" style="stroke:#000000; stroke-linecap:round; stroke-linejoin:round; stroke-width:4; stroke-opacity:1; fill:none" points="250.028,1423.18 2352.76,1423.18 "/>
<polyline clip-path="url(#clip540)" style="stroke:#000000; stroke-linecap:round; stroke-linejoin:round; stroke-width:4; stroke-opacity:1; fill:none" points="309.539,1423.18 309.539,1404.28 "/>
<polyline clip-path="url(#clip540)" style="stroke:#000000; stroke-linecap:round; stroke-linejoin:round; stroke-width:4; stroke-opacity:1; fill:none" points="867.724,1423.18 867.724,1404.28 "/>
<polyline clip-path="url(#clip540)" style="stroke:#000000; stroke-linecap:round; stroke-linejoin:round; stroke-width:4; stroke-opacity:1; fill:none" points="1425.91,1423.18 1425.91,1404.28 "/>
<polyline clip-path="url(#clip540)" style="stroke:#000000; stroke-linecap:round; stroke-linejoin:round; stroke-width:4; stroke-opacity:1; fill:none" points="1984.09,1423.18 1984.09,1404.28 "/>
<path clip-path="url(#clip540)" d="M277.19 1481.64 L284.829 1481.64 L284.829 1455.28 L276.519 1456.95 L276.519 1452.69 L284.782 1451.02 L289.458 1451.02 L289.458 1481.64 L297.097 1481.64 L297.097 1485.58 L277.19 1485.58 L277.19 1481.64 Z" fill="#000000" fill-rule="nonzero" fill-opacity="1" /><path clip-path="url(#clip540)" d="M306.542 1479.7 L311.426 1479.7 L311.426 1485.58 L306.542 1485.58 L306.542 1479.7 Z" fill="#000000" fill-rule="nonzero" fill-opacity="1" /><path clip-path="url(#clip540)" d="M321.657 1451.02 L340.014 1451.02 L340.014 1454.96 L325.94 1454.96 L325.94 1463.43 Q326.958 1463.08 327.977 1462.92 Q328.995 1462.73 330.014 1462.73 Q335.801 1462.73 339.18 1465.9 Q342.56 1469.08 342.56 1474.49 Q342.56 1480.07 339.088 1483.17 Q335.616 1486.25 329.296 1486.25 Q327.12 1486.25 324.852 1485.88 Q322.606 1485.51 320.199 1484.77 L320.199 1480.07 Q322.282 1481.2 324.505 1481.76 Q326.727 1482.32 329.204 1482.32 Q333.208 1482.32 335.546 1480.21 Q337.884 1478.1 337.884 1474.49 Q337.884 1470.88 335.546 1468.77 Q333.208 1466.67 329.204 1466.67 Q327.329 1466.67 325.454 1467.08 Q323.602 1467.5 321.657 1468.38 L321.657 1451.02 Z" fill="#000000" fill-rule="nonzero" fill-opacity="1" /><path clip-path="url(#clip540)" d="M834.796 1481.64 L842.435 1481.64 L842.435 1455.28 L834.125 1456.95 L834.125 1452.69 L842.388 1451.02 L847.064 1451.02 L847.064 1481.64 L854.703 1481.64 L854.703 1485.58 L834.796 1485.58 L834.796 1481.64 Z" fill="#000000" fill-rule="nonzero" fill-opacity="1" /><path clip-path="url(#clip540)" d="M864.148 1479.7 L869.032 1479.7 L869.032 1485.58 L864.148 1485.58 L864.148 1479.7 Z" fill="#000000" fill-rule="nonzero" fill-opacity="1" /><path clip-path="url(#clip540)" d="M889.796 1466.44 Q886.647 1466.44 884.796 1468.59 Q882.967 1470.74 882.967 1474.49 Q882.967 1478.22 884.796 1480.39 Q886.647 1482.55 889.796 1482.55 Q892.944 1482.55 894.772 1480.39 Q896.624 1478.22 896.624 1474.49 Q896.624 1470.74 894.772 1468.59 Q892.944 1466.44 889.796 1466.44 M899.078 1451.78 L899.078 1456.04 Q897.319 1455.21 895.513 1454.77 Q893.731 1454.33 891.971 1454.33 Q887.342 1454.33 884.888 1457.45 Q882.458 1460.58 882.11 1466.9 Q883.476 1464.89 885.536 1463.82 Q887.596 1462.73 890.073 1462.73 Q895.282 1462.73 898.291 1465.9 Q901.323 1469.05 901.323 1474.49 Q901.323 1479.82 898.175 1483.03 Q895.027 1486.25 889.796 1486.25 Q883.8 1486.25 880.629 1481.67 Q877.458 1477.06 877.458 1468.33 Q877.458 1460.14 881.346 1455.28 Q885.235 1450.39 891.786 1450.39 Q893.546 1450.39 895.328 1450.74 Q897.133 1451.09 899.078 1451.78 Z" fill="#000000" fill-rule="nonzero" fill-opacity="1" /><path clip-path="url(#clip540)" d="M1393.51 1481.64 L1401.15 1481.64 L1401.15 1455.28 L1392.84 1456.95 L1392.84 1452.69 L1401.11 1451.02 L1405.78 1451.02 L1405.78 1481.64 L1413.42 1481.64 L1413.42 1485.58 L1393.51 1485.58 L1393.51 1481.64 Z" fill="#000000" fill-rule="nonzero" fill-opacity="1" /><path clip-path="url(#clip540)" d="M1422.86 1479.7 L1427.75 1479.7 L1427.75 1485.58 L1422.86 1485.58 L1422.86 1479.7 Z" fill="#000000" fill-rule="nonzero" fill-opacity="1" /><path clip-path="url(#clip540)" d="M1436.75 1451.02 L1458.98 1451.02 L1458.98 1453.01 L1446.43 1485.58 L1441.54 1485.58 L1453.35 1454.96 L1436.75 1454.96 L1436.75 1451.02 Z" fill="#000000" fill-rule="nonzero" fill-opacity="1" /><path clip-path="url(#clip540)" d="M1951.29 1481.64 L1958.93 1481.64 L1958.93 1455.28 L1950.62 1456.95 L1950.62 1452.69 L1958.88 1451.02 L1963.56 1451.02 L1963.56 1481.64 L1971.2 1481.64 L1971.2 1485.58 L1951.29 1485.58 L1951.29 1481.64 Z" fill="#000000" fill-rule="nonzero" fill-opacity="1" /><path clip-path="url(#clip540)" d="M1980.64 1479.7 L1985.53 1479.7 L1985.53 1485.58 L1980.64 1485.58 L1980.64 1479.7 Z" fill="#000000" fill-rule="nonzero" fill-opacity="1" /><path clip-path="url(#clip540)" d="M2005.71 1469.17 Q2002.38 1469.17 2000.46 1470.95 Q1998.56 1472.73 1998.56 1475.86 Q1998.56 1478.98 2000.46 1480.77 Q2002.38 1482.55 2005.71 1482.55 Q2009.05 1482.55 2010.97 1480.77 Q2012.89 1478.96 2012.89 1475.86 Q2012.89 1472.73 2010.97 1470.95 Q2009.07 1469.17 2005.71 1469.17 M2001.04 1467.18 Q1998.03 1466.44 1996.34 1464.38 Q1994.67 1462.32 1994.67 1459.35 Q1994.67 1455.21 1997.61 1452.8 Q2000.57 1450.39 2005.71 1450.39 Q2010.88 1450.39 2013.82 1452.8 Q2016.75 1455.21 2016.75 1459.35 Q2016.75 1462.32 2015.07 1464.38 Q2013.4 1466.44 2010.41 1467.18 Q2013.79 1467.96 2015.67 1470.26 Q2017.57 1472.55 2017.57 1475.86 Q2017.57 1480.88 2014.49 1483.57 Q2011.43 1486.25 2005.71 1486.25 Q2000 1486.25 1996.92 1483.57 Q1993.86 1480.88 1993.86 1475.86 Q1993.86 1472.55 1995.76 1470.26 Q1997.66 1467.96 2001.04 1467.18 M1999.32 1459.79 Q1999.32 1462.48 2000.99 1463.98 Q2002.68 1465.49 2005.71 1465.49 Q2008.72 1465.49 2010.41 1463.98 Q2012.13 1462.48 2012.13 1459.79 Q2012.13 1457.11 2010.41 1455.6 Q2008.72 1454.1 2005.71 1454.1 Q2002.68 1454.1 2000.99 1455.6 Q1999.32 1457.11 1999.32 1459.79 Z" fill="#000000" fill-rule="nonzero" fill-opacity="1" /><path clip-path="url(#clip540)" d="M1267.53 1518.52 L1273.41 1518.52 L1273.41 1547.77 L1290.89 1532.4 L1298.37 1532.4 L1279.46 1549.07 L1299.16 1568.04 L1291.53 1568.04 L1273.41 1550.63 L1273.41 1568.04 L1267.53 1568.04 L1267.53 1518.52 Z" fill="#000000" fill-rule="nonzero" fill-opacity="1" /><path clip-path="url(#clip540)" d="M1304.7 1520.52 L1335.26 1520.52 L1335.26 1523.26 L1318.01 1568.04 L1311.29 1568.04 L1327.52 1525.93 L1304.7 1525.93 L1304.7 1520.52 Z" fill="#000000" fill-rule="nonzero" fill-opacity="1" /><polyline clip-path="url(#clip540)" style="stroke:#000000; stroke-linecap:round; stroke-linejoin:round; stroke-width:4; stroke-opacity:1; fill:none" points="250.028,1423.18 250.028,47.2441 "/>
<polyline clip-path="url(#clip540)" style="stroke:#000000; stroke-linecap:round; stroke-linejoin:round; stroke-width:4; stroke-opacity:1; fill:none" points="250.028,1201.2 268.926,1201.2 "/>
<polyline clip-path="url(#clip540)" style="stroke:#000000; stroke-linecap:round; stroke-linejoin:round; stroke-width:4; stroke-opacity:1; fill:none" points="250.028,953.825 268.926,953.825 "/>
<polyline clip-path="url(#clip540)" style="stroke:#000000; stroke-linecap:round; stroke-linejoin:round; stroke-width:4; stroke-opacity:1; fill:none" points="250.028,706.445 268.926,706.445 "/>
<polyline clip-path="url(#clip540)" style="stroke:#000000; stroke-linecap:round; stroke-linejoin:round; stroke-width:4; stroke-opacity:1; fill:none" points="250.028,459.066 268.926,459.066 "/>
<polyline clip-path="url(#clip540)" style="stroke:#000000; stroke-linecap:round; stroke-linejoin:round; stroke-width:4; stroke-opacity:1; fill:none" points="250.028,211.686 268.926,211.686 "/>
<path clip-path="url(#clip540)" d="M126.205 1187 Q122.593 1187 120.765 1190.57 Q118.959 1194.11 118.959 1201.24 Q118.959 1208.35 120.765 1211.91 Q122.593 1215.45 126.205 1215.45 Q129.839 1215.45 131.644 1211.91 Q133.473 1208.35 133.473 1201.24 Q133.473 1194.11 131.644 1190.57 Q129.839 1187 126.205 1187 M126.205 1183.3 Q132.015 1183.3 135.07 1187.91 Q138.149 1192.49 138.149 1201.24 Q138.149 1209.97 135.07 1214.57 Q132.015 1219.16 126.205 1219.16 Q120.394 1219.16 117.316 1214.57 Q114.26 1209.97 114.26 1201.24 Q114.26 1192.49 117.316 1187.91 Q120.394 1183.3 126.205 1183.3 Z" fill="#000000" fill-rule="nonzero" fill-opacity="1" /><path clip-path="url(#clip540)" d="M146.366 1212.61 L151.251 1212.61 L151.251 1218.48 L146.366 1218.48 L146.366 1212.61 Z" fill="#000000" fill-rule="nonzero" fill-opacity="1" /><path clip-path="url(#clip540)" d="M171.436 1202.07 Q168.102 1202.07 166.181 1203.86 Q164.283 1205.64 164.283 1208.76 Q164.283 1211.89 166.181 1213.67 Q168.102 1215.45 171.436 1215.45 Q174.769 1215.45 176.69 1213.67 Q178.612 1211.86 178.612 1208.76 Q178.612 1205.64 176.69 1203.86 Q174.792 1202.07 171.436 1202.07 M166.76 1200.08 Q163.751 1199.34 162.061 1197.28 Q160.394 1195.22 160.394 1192.26 Q160.394 1188.11 163.334 1185.71 Q166.297 1183.3 171.436 1183.3 Q176.598 1183.3 179.538 1185.71 Q182.477 1188.11 182.477 1192.26 Q182.477 1195.22 180.788 1197.28 Q179.121 1199.34 176.135 1200.08 Q179.514 1200.87 181.389 1203.16 Q183.288 1205.45 183.288 1208.76 Q183.288 1213.79 180.209 1216.47 Q177.153 1219.16 171.436 1219.16 Q165.718 1219.16 162.64 1216.47 Q159.584 1213.79 159.584 1208.76 Q159.584 1205.45 161.482 1203.16 Q163.38 1200.87 166.76 1200.08 M165.047 1192.7 Q165.047 1195.38 166.714 1196.89 Q168.403 1198.39 171.436 1198.39 Q174.445 1198.39 176.135 1196.89 Q177.848 1195.38 177.848 1192.7 Q177.848 1190.01 176.135 1188.51 Q174.445 1187 171.436 1187 Q168.403 1187 166.714 1188.51 Q165.047 1190.01 165.047 1192.7 Z" fill="#000000" fill-rule="nonzero" fill-opacity="1" /><path clip-path="url(#clip540)" d="M204.445 1188 L192.639 1206.45 L204.445 1206.45 L204.445 1188 M203.218 1183.92 L209.098 1183.92 L209.098 1206.45 L214.028 1206.45 L214.028 1210.34 L209.098 1210.34 L209.098 1218.48 L204.445 1218.48 L204.445 1210.34 L188.843 1210.34 L188.843 1205.82 L203.218 1183.92 Z" fill="#000000" fill-rule="nonzero" fill-opacity="1" /><path clip-path="url(#clip540)" d="M126.529 939.624 Q122.918 939.624 121.089 943.189 Q119.283 946.73 119.283 953.86 Q119.283 960.966 121.089 964.531 Q122.918 968.073 126.529 968.073 Q130.163 968.073 131.968 964.531 Q133.797 960.966 133.797 953.86 Q133.797 946.73 131.968 943.189 Q130.163 939.624 126.529 939.624 M126.529 935.92 Q132.339 935.92 135.394 940.527 Q138.473 945.11 138.473 953.86 Q138.473 962.587 135.394 967.193 Q132.339 971.777 126.529 971.777 Q120.718 971.777 117.64 967.193 Q114.584 962.587 114.584 953.86 Q114.584 945.11 117.64 940.527 Q120.718 935.92 126.529 935.92 Z" fill="#000000" fill-rule="nonzero" fill-opacity="1" /><path clip-path="url(#clip540)" d="M146.691 965.226 L151.575 965.226 L151.575 971.105 L146.691 971.105 L146.691 965.226 Z" fill="#000000" fill-rule="nonzero" fill-opacity="1" /><path clip-path="url(#clip540)" d="M171.76 954.693 Q168.427 954.693 166.505 956.476 Q164.607 958.258 164.607 961.383 Q164.607 964.508 166.505 966.29 Q168.427 968.073 171.76 968.073 Q175.093 968.073 177.014 966.29 Q178.936 964.485 178.936 961.383 Q178.936 958.258 177.014 956.476 Q175.116 954.693 171.76 954.693 M167.084 952.703 Q164.075 951.962 162.385 949.902 Q160.718 947.841 160.718 944.878 Q160.718 940.735 163.658 938.328 Q166.621 935.92 171.76 935.92 Q176.922 935.92 179.862 938.328 Q182.801 940.735 182.801 944.878 Q182.801 947.841 181.112 949.902 Q179.445 951.962 176.459 952.703 Q179.839 953.49 181.713 955.781 Q183.612 958.073 183.612 961.383 Q183.612 966.406 180.533 969.091 Q177.477 971.777 171.76 971.777 Q166.042 971.777 162.964 969.091 Q159.908 966.406 159.908 961.383 Q159.908 958.073 161.806 955.781 Q163.704 953.49 167.084 952.703 M165.371 945.318 Q165.371 948.003 167.038 949.508 Q168.727 951.013 171.76 951.013 Q174.769 951.013 176.459 949.508 Q178.172 948.003 178.172 945.318 Q178.172 942.633 176.459 941.129 Q174.769 939.624 171.76 939.624 Q168.727 939.624 167.038 941.129 Q165.371 942.633 165.371 945.318 Z" fill="#000000" fill-rule="nonzero" fill-opacity="1" /><path clip-path="url(#clip540)" d="M202.5 951.962 Q199.352 951.962 197.5 954.115 Q195.672 956.267 195.672 960.017 Q195.672 963.744 197.5 965.92 Q199.352 968.073 202.5 968.073 Q205.649 968.073 207.477 965.92 Q209.329 963.744 209.329 960.017 Q209.329 956.267 207.477 954.115 Q205.649 951.962 202.5 951.962 M211.783 937.309 L211.783 941.568 Q210.024 940.735 208.218 940.295 Q206.436 939.855 204.676 939.855 Q200.047 939.855 197.593 942.98 Q195.163 946.105 194.815 952.425 Q196.181 950.411 198.241 949.346 Q200.301 948.258 202.778 948.258 Q207.987 948.258 210.996 951.429 Q214.028 954.578 214.028 960.017 Q214.028 965.341 210.88 968.559 Q207.732 971.777 202.5 971.777 Q196.505 971.777 193.334 967.193 Q190.163 962.587 190.163 953.86 Q190.163 945.666 194.051 940.804 Q197.94 935.92 204.491 935.92 Q206.25 935.92 208.033 936.267 Q209.838 936.615 211.783 937.309 Z" fill="#000000" fill-rule="nonzero" fill-opacity="1" /><path clip-path="url(#clip540)" d="M126.783 692.244 Q123.172 692.244 121.343 695.809 Q119.538 699.351 119.538 706.48 Q119.538 713.587 121.343 717.151 Q123.172 720.693 126.783 720.693 Q130.417 720.693 132.223 717.151 Q134.052 713.587 134.052 706.48 Q134.052 699.351 132.223 695.809 Q130.417 692.244 126.783 692.244 M126.783 688.54 Q132.593 688.54 135.649 693.147 Q138.728 697.73 138.728 706.48 Q138.728 715.207 135.649 719.813 Q132.593 724.397 126.783 724.397 Q120.973 724.397 117.894 719.813 Q114.839 715.207 114.839 706.48 Q114.839 697.73 117.894 693.147 Q120.973 688.54 126.783 688.54 Z" fill="#000000" fill-rule="nonzero" fill-opacity="1" /><path clip-path="url(#clip540)" d="M146.945 717.846 L151.829 717.846 L151.829 723.725 L146.945 723.725 L146.945 717.846 Z" fill="#000000" fill-rule="nonzero" fill-opacity="1" /><path clip-path="url(#clip540)" d="M172.014 707.314 Q168.681 707.314 166.76 709.096 Q164.862 710.878 164.862 714.003 Q164.862 717.128 166.76 718.911 Q168.681 720.693 172.014 720.693 Q175.348 720.693 177.269 718.911 Q179.19 717.105 179.19 714.003 Q179.19 710.878 177.269 709.096 Q175.371 707.314 172.014 707.314 M167.339 705.323 Q164.329 704.582 162.64 702.522 Q160.973 700.462 160.973 697.499 Q160.973 693.355 163.913 690.948 Q166.876 688.54 172.014 688.54 Q177.176 688.54 180.116 690.948 Q183.056 693.355 183.056 697.499 Q183.056 700.462 181.366 702.522 Q179.7 704.582 176.714 705.323 Q180.093 706.11 181.968 708.401 Q183.866 710.693 183.866 714.003 Q183.866 719.026 180.788 721.712 Q177.732 724.397 172.014 724.397 Q166.297 724.397 163.218 721.712 Q160.163 719.026 160.163 714.003 Q160.163 710.693 162.061 708.401 Q163.959 706.11 167.339 705.323 M165.626 697.939 Q165.626 700.624 167.292 702.128 Q168.982 703.633 172.014 703.633 Q175.024 703.633 176.714 702.128 Q178.426 700.624 178.426 697.939 Q178.426 695.253 176.714 693.749 Q175.024 692.244 172.014 692.244 Q168.982 692.244 167.292 693.749 Q165.626 695.253 165.626 697.939 Z" fill="#000000" fill-rule="nonzero" fill-opacity="1" /><path clip-path="url(#clip540)" d="M202.176 707.314 Q198.843 707.314 196.922 709.096 Q195.024 710.878 195.024 714.003 Q195.024 717.128 196.922 718.911 Q198.843 720.693 202.176 720.693 Q205.51 720.693 207.431 718.911 Q209.352 717.105 209.352 714.003 Q209.352 710.878 207.431 709.096 Q205.533 707.314 202.176 707.314 M197.5 705.323 Q194.491 704.582 192.801 702.522 Q191.135 700.462 191.135 697.499 Q191.135 693.355 194.075 690.948 Q197.037 688.54 202.176 688.54 Q207.338 688.54 210.278 690.948 Q213.218 693.355 213.218 697.499 Q213.218 700.462 211.528 702.522 Q209.861 704.582 206.875 705.323 Q210.255 706.11 212.13 708.401 Q214.028 710.693 214.028 714.003 Q214.028 719.026 210.949 721.712 Q207.894 724.397 202.176 724.397 Q196.459 724.397 193.38 721.712 Q190.325 719.026 190.325 714.003 Q190.325 710.693 192.223 708.401 Q194.121 706.11 197.5 705.323 M195.787 697.939 Q195.787 700.624 197.454 702.128 Q199.144 703.633 202.176 703.633 Q205.186 703.633 206.875 702.128 Q208.588 700.624 208.588 697.939 Q208.588 695.253 206.875 693.749 Q205.186 692.244 202.176 692.244 Q199.144 692.244 197.454 693.749 Q195.787 695.253 195.787 697.939 Z" fill="#000000" fill-rule="nonzero" fill-opacity="1" /><path clip-path="url(#clip540)" d="M126.691 444.864 Q123.08 444.864 121.251 448.429 Q119.445 451.971 119.445 459.1 Q119.445 466.207 121.251 469.772 Q123.08 473.313 126.691 473.313 Q130.325 473.313 132.13 469.772 Q133.959 466.207 133.959 459.1 Q133.959 451.971 132.13 448.429 Q130.325 444.864 126.691 444.864 M126.691 441.161 Q132.501 441.161 135.556 445.767 Q138.635 450.351 138.635 459.1 Q138.635 467.827 135.556 472.434 Q132.501 477.017 126.691 477.017 Q120.88 477.017 117.802 472.434 Q114.746 467.827 114.746 459.1 Q114.746 450.351 117.802 445.767 Q120.88 441.161 126.691 441.161 Z" fill="#000000" fill-rule="nonzero" fill-opacity="1" /><path clip-path="url(#clip540)" d="M146.853 470.466 L151.737 470.466 L151.737 476.346 L146.853 476.346 L146.853 470.466 Z" fill="#000000" fill-rule="nonzero" fill-opacity="1" /><path clip-path="url(#clip540)" d="M162.061 475.628 L162.061 471.369 Q163.82 472.202 165.626 472.642 Q167.431 473.082 169.167 473.082 Q173.797 473.082 176.227 469.98 Q178.681 466.855 179.028 460.513 Q177.686 462.503 175.626 463.568 Q173.565 464.633 171.065 464.633 Q165.88 464.633 162.848 461.508 Q159.839 458.36 159.839 452.92 Q159.839 447.596 162.987 444.378 Q166.135 441.161 171.366 441.161 Q177.362 441.161 180.51 445.767 Q183.681 450.351 183.681 459.1 Q183.681 467.272 179.792 472.156 Q175.926 477.017 169.376 477.017 Q167.616 477.017 165.811 476.67 Q164.005 476.323 162.061 475.628 M171.366 460.975 Q174.514 460.975 176.343 458.823 Q178.195 456.67 178.195 452.92 Q178.195 449.193 176.343 447.04 Q174.514 444.864 171.366 444.864 Q168.218 444.864 166.366 447.04 Q164.538 449.193 164.538 452.92 Q164.538 456.67 166.366 458.823 Q168.218 460.975 171.366 460.975 Z" fill="#000000" fill-rule="nonzero" fill-opacity="1" /><path clip-path="url(#clip540)" d="M202.084 444.864 Q198.473 444.864 196.644 448.429 Q194.838 451.971 194.838 459.1 Q194.838 466.207 196.644 469.772 Q198.473 473.313 202.084 473.313 Q205.718 473.313 207.524 469.772 Q209.352 466.207 209.352 459.1 Q209.352 451.971 207.524 448.429 Q205.718 444.864 202.084 444.864 M202.084 441.161 Q207.894 441.161 210.949 445.767 Q214.028 450.351 214.028 459.1 Q214.028 467.827 210.949 472.434 Q207.894 477.017 202.084 477.017 Q196.274 477.017 193.195 472.434 Q190.139 467.827 190.139 459.1 Q190.139 450.351 193.195 445.767 Q196.274 441.161 202.084 441.161 Z" fill="#000000" fill-rule="nonzero" fill-opacity="1" /><path clip-path="url(#clip540)" d="M128.288 197.485 Q124.677 197.485 122.848 201.05 Q121.043 204.591 121.043 211.721 Q121.043 218.827 122.848 222.392 Q124.677 225.934 128.288 225.934 Q131.922 225.934 133.728 222.392 Q135.556 218.827 135.556 211.721 Q135.556 204.591 133.728 201.05 Q131.922 197.485 128.288 197.485 M128.288 193.781 Q134.098 193.781 137.154 198.387 Q140.232 202.971 140.232 211.721 Q140.232 220.448 137.154 225.054 Q134.098 229.637 128.288 229.637 Q122.478 229.637 119.399 225.054 Q116.343 220.448 116.343 211.721 Q116.343 202.971 119.399 198.387 Q122.478 193.781 128.288 193.781 Z" fill="#000000" fill-rule="nonzero" fill-opacity="1" /><path clip-path="url(#clip540)" d="M148.45 223.086 L153.334 223.086 L153.334 228.966 L148.45 228.966 L148.45 223.086 Z" fill="#000000" fill-rule="nonzero" fill-opacity="1" /><path clip-path="url(#clip540)" d="M163.658 228.248 L163.658 223.989 Q165.417 224.823 167.223 225.262 Q169.028 225.702 170.764 225.702 Q175.394 225.702 177.825 222.6 Q180.278 219.475 180.626 213.133 Q179.283 215.124 177.223 216.188 Q175.163 217.253 172.663 217.253 Q167.477 217.253 164.445 214.128 Q161.436 210.98 161.436 205.54 Q161.436 200.216 164.584 196.999 Q167.732 193.781 172.964 193.781 Q178.959 193.781 182.107 198.387 Q185.278 202.971 185.278 211.721 Q185.278 219.892 181.389 224.776 Q177.524 229.637 170.973 229.637 Q169.214 229.637 167.408 229.29 Q165.602 228.943 163.658 228.248 M172.964 213.596 Q176.112 213.596 177.94 211.443 Q179.792 209.29 179.792 205.54 Q179.792 201.813 177.94 199.661 Q176.112 197.485 172.964 197.485 Q169.815 197.485 167.964 199.661 Q166.135 201.813 166.135 205.54 Q166.135 209.29 167.964 211.443 Q169.815 213.596 172.964 213.596 Z" fill="#000000" fill-rule="nonzero" fill-opacity="1" /><path clip-path="url(#clip540)" d="M197.709 225.031 L214.028 225.031 L214.028 228.966 L192.084 228.966 L192.084 225.031 Q194.746 222.276 199.329 217.647 Q203.936 212.994 205.116 211.651 Q207.362 209.128 208.241 207.392 Q209.144 205.633 209.144 203.943 Q209.144 201.188 207.199 199.452 Q205.278 197.716 202.176 197.716 Q199.977 197.716 197.524 198.48 Q195.093 199.244 192.315 200.795 L192.315 196.073 Q195.139 194.938 197.593 194.36 Q200.047 193.781 202.084 193.781 Q207.454 193.781 210.649 196.466 Q213.843 199.151 213.843 203.642 Q213.843 205.772 213.033 207.693 Q212.246 209.591 210.139 212.184 Q209.561 212.855 206.459 216.073 Q203.357 219.267 197.709 225.031 Z" fill="#000000" fill-rule="nonzero" fill-opacity="1" /><path clip-path="url(#clip540)" d="M14.479 769.635 L14.479 763.746 L43.7294 763.746 L28.3562 746.272 L28.3562 738.793 L45.0344 757.699 L64.0042 737.997 L64.0042 745.636 L46.5939 763.746 L64.0042 763.746 L64.0042 769.635 L14.479 769.635 Z" fill="#000000" fill-rule="nonzero" fill-opacity="1" /><path clip-path="url(#clip540)" d="M41.4377 717.086 Q41.4377 721.669 43.8885 724.311 Q46.3393 726.921 50.6362 726.921 Q54.933 726.921 57.3838 724.311 Q59.8346 721.669 59.8346 717.086 Q59.8346 712.502 57.3838 709.861 Q54.9012 707.219 50.6362 707.219 Q46.3393 707.219 43.8885 709.861 Q41.4377 712.47 41.4377 717.086 M38.7005 723.515 Q37.682 727.653 34.8492 729.976 Q32.0165 732.268 27.9424 732.268 Q22.2451 732.268 18.935 728.226 Q15.6248 724.152 15.6248 717.086 Q15.6248 709.988 18.935 705.946 Q22.2451 701.903 27.9424 701.903 Q32.0165 701.903 34.8492 704.227 Q37.682 706.519 38.7005 710.624 Q39.7826 705.977 42.9337 703.399 Q46.0847 700.789 50.6362 700.789 Q57.543 700.789 61.2351 705.023 Q64.9272 709.224 64.9272 717.086 Q64.9272 724.947 61.2351 729.18 Q57.543 733.382 50.6362 733.382 Q46.0847 733.382 42.9337 730.772 Q39.7826 728.162 38.7005 723.515 M28.5472 725.87 Q32.2393 725.87 34.3081 723.579 Q36.377 721.255 36.377 717.086 Q36.377 712.948 34.3081 710.624 Q32.2393 708.269 28.5472 708.269 Q24.8551 708.269 22.7862 710.624 Q20.7174 712.948 20.7174 717.086 Q20.7174 721.255 22.7862 723.579 Q24.8551 725.87 28.5472 725.87 Z" fill="#000000" fill-rule="nonzero" fill-opacity="1" /><polyline clip-path="url(#clip541)" style="stroke:#009af9; stroke-linecap:round; stroke-linejoin:round; stroke-width:4; stroke-opacity:1; fill:none" points="309.539,1384.24 312.216,1381.74 316.127,1378.1 321.699,1372.91 329.636,1365.53 340.951,1355.03 357.089,1340.09 380.129,1318.86 413.063,1288.67 460.222,1245.82 515.233,1196.4 570.683,1147.23 626.561,1098.35 682.858,1049.82 739.561,1001.68 796.658,953.992 854.136,906.809 911.98,860.189 970.174,814.192 1028.7,768.878 1087.55,724.309 1146.69,680.55 1206.11,637.663 1265.78,595.714 1325.69,554.768 1385.82,514.89 1446.13,476.147 1506.6,438.601 1567.22,402.317 1627.95,367.357 1688.76,333.781 1749.64,301.649 1810.56,271.015 1871.48,241.933 1932.38,214.453 1993.23,188.62 2054.01,164.476 2114.69,142.061 2175.24,121.407 2235.61,102.547 2293.24,86.1857 "/>
<circle clip-path="url(#clip541)" cx="2293.24" cy="86.1857" r="10.8" fill="#cd0000" fill-rule="evenodd" fill-opacity="1" stroke="none"/>
<circle clip-path="url(#clip541)" cx="2293.24" cy="86.1857" r="10.8" fill="#cd0000" fill-rule="evenodd" fill-opacity="1" stroke="none"/>
<path clip-path="url(#clip540)" d="M320.119 196.789 L579.859 196.789 L579.859 93.1086 L320.119 93.1086  Z" fill="#ffffff" fill-rule="evenodd" fill-opacity="1"/>
<polyline clip-path="url(#clip540)" style="stroke:#000000; stroke-linecap:round; stroke-linejoin:round; stroke-width:4; stroke-opacity:1; fill:none" points="320.119,196.789 579.859,196.789 579.859,93.1086 320.119,93.1086 320.119,196.789 "/>
<circle clip-path="url(#clip540)" cx="413.574" cy="144.949" r="23.04" fill="#cd0000" fill-rule="evenodd" fill-opacity="1" stroke="none"/>
<path clip-path="url(#clip540)" d="M527.537 137.298 L527.537 141.28 Q525.732 140.284 523.903 139.798 Q522.098 139.289 520.246 139.289 Q516.102 139.289 513.811 141.928 Q511.519 144.544 511.519 149.289 Q511.519 154.034 513.811 156.673 Q516.102 159.289 520.246 159.289 Q522.098 159.289 523.903 158.803 Q525.732 158.293 527.537 157.298 L527.537 161.233 Q525.755 162.067 523.834 162.483 Q521.936 162.9 519.783 162.9 Q513.926 162.9 510.477 159.219 Q507.028 155.539 507.028 149.289 Q507.028 142.946 510.5 139.312 Q513.996 135.678 520.061 135.678 Q522.028 135.678 523.903 136.095 Q525.778 136.488 527.537 137.298 Z" fill="#000000" fill-rule="nonzero" fill-opacity="1" /><path clip-path="url(#clip540)" d="M556.496 146.581 L556.496 162.229 L552.236 162.229 L552.236 146.719 Q552.236 143.039 550.801 141.21 Q549.366 139.382 546.496 139.382 Q543.047 139.382 541.056 141.581 Q539.065 143.78 539.065 147.576 L539.065 162.229 L534.783 162.229 L534.783 126.21 L539.065 126.21 L539.065 140.331 Q540.593 137.993 542.653 136.835 Q544.736 135.678 547.445 135.678 Q551.912 135.678 554.204 138.456 Q556.496 141.21 556.496 146.581 Z" fill="#000000" fill-rule="nonzero" fill-opacity="1" /></svg>
