<?xml version="1.0" encoding="utf-8"?>
<svg xmlns="http://www.w3.org/2000/svg" xmlns:xlink="http://www.w3.org/1999/xlink" width="600" height="400" viewBox="0 0 2400 1600">
<defs>
  <clipPath id="clip380">
    <rect x="0" y="0" width="2400" height="1600"/>
  </clipPath>
</defs>
<path clip-path="url(#clip380)" d="M0 1600 L2400 1600 L2400 0 L0 0  Z" fill="#ffffff" fill-rule="evenodd" fill-opacity="1"/>
<defs>
  <clipPath id="clip381">
    <rect x="480" y="0" width="1681" height="1600"/>
  </clipPath>
</defs>
<path clip-path="url(#clip380)" d="M186.274 1486.45 L2352.76 1486.45 L2352.76 123.472 L186.274 123.472  Z" fill="#ffffff" fill-rule="evenodd" fill-opacity="1"/>
<defs>
  <clipPath id="clip382">
    <rect x="186" y="123" width="2167" height="1364"/>
  </clipPath>
</defs>
<polyline clip-path="url(#clip382)" style="stroke:#000000; stroke-linecap:round; stroke-linejoin:round; stroke-width:2; stroke-opacity:0.1; fill:none" points="237.37,1486.45 237.37,123.472 "/>
<polyline clip-path="url(#clip382)" style="stroke:#000000; stroke-linecap:round; stroke-linejoin:round; stroke-width:2; stroke-opacity:0.1; fill:none" points="748.333,1486.45 748.333,123.472 "/>
<polyline clip-path="url(#clip382)" style="stroke:#000000; stroke-linecap:round; stroke-linejoin:round; stroke-width:2; stroke-opacity:0.1; fill:none" points="1259.3,1486.45 1259.3,123.472 "/>
<polyline clip-path="url(#clip382)" style="stroke:#000000; stroke-linecap:round; stroke-linejoin:round; stroke-width:2; stroke-opacity:0.1; fill:none" points="1770.26,1486.45 1770.26,123.472 "/>
<polyline clip-path="url(#clip382)" style="stroke:#000000; stroke-linecap:round; stroke-linejoin:round; stroke-width:2; stroke-opacity:0.1; fill:none" points="2281.22,1486.45 2281.22,123.472 "/>
<polyline clip-path="url(#clip382)" style="stroke:#000000; stroke-linecap:round; stroke-linejoin:round; stroke-width:2; stroke-opacity:0.1; fill:none" points="186.274,1447.87 2352.76,1447.87 "/>
<polyline clip-path="url(#clip382)" style="stroke:#000000; stroke-linecap:round; stroke-linejoin:round; stroke-width:2; stroke-opacity:0.1; fill:none" points="186.274,1126.42 2352.76,1126.42 "/>
<polyline clip-path="url(#clip382)" style="stroke:#000000; stroke-linecap:round; stroke-linejoin:round; stroke-width:2; stroke-opacity:0.1; fill:none" points="186.274,804.96 2352.76,804.96 "/>
<polyline clip-path="url(#clip382)" style="stroke:#000000; stroke-linecap:round; stroke-linejoin:round; stroke-width:2; stroke-opacity:0.1; fill:none" points="186.274,483.503 2352.76,483.503 "/>
<polyline clip-path="url(#clip382)" style="stroke:#000000; stroke-linecap:round; stroke-linejoin:round; stroke-width:2; stroke-opacity:0.1; fill:none" points="186.274,162.047 2352.76,162.047 "/>
<polyline clip-path="url(#clip380)" style="stroke:#000000; stroke-linecap:round; stroke-linejoin:round; stroke-width:4; stroke-opacity:1; fill:none" points="186.274,1486.45 2352.76,1486.45 "/>
<polyline clip-path="url(#clip380)" style="stroke:#000000; stroke-linecap:round; stroke-linejoin:round; stroke-width:4; stroke-opacity:1; fill:none" points="237.37,1486.45 237.37,1467.55 "/>
<polyline clip-path="url(#clip380)" style="stroke:#000000; stroke-linecap:round; stroke-linejoin:round; stroke-width:4; stroke-opacity:1; fill:none" points="748.333,1486.45 748.333,1467.55 "/>
<polyline clip-path="url(#clip380)" style="stroke:#000000; stroke-linecap:round; stroke-linejoin:round; stroke-width:4; stroke-opacity:1; fill:none" points="1259.3,1486.45 1259.3,1467.55 "/>
<polyline clip-path="url(#clip380)" style="stroke:#000000; stroke-linecap:round; stroke-linejoin:round; stroke-width:4; stroke-opacity:1; fill:none" points="1770.26,1486.45 1770.26,1467.55 "/>
<polyline clip-path="url(#clip380)" style="stroke:#000000; stroke-linecap:round; stroke-linejoin:round; stroke-width:4; stroke-opacity:1; fill:none" points="2281.22,1486.45 2281.22,1467.55 "/>
<path clip-path="url(#clip380)" d="M237.37 1517.37 Q233.759 1517.37 231.93 1520.93 Q230.125 1524.47 230.125 1531.6 Q230.125 1538.71 231.93 1542.27 Q233.759 1545.82 237.37 1545.82 Q241.005 1545.82 242.81 1542.27 Q244.639 1538.71 244.639 1531.6 Q244.639 1524.47 242.81 1520.93 Q241.005 1517.37 237.37 1517.37 M237.37 1513.66 Q243.18 1513.66 246.236 1518.27 Q249.315 1522.85 249.315 1531.6 Q249.315 1540.33 246.236 1544.94 Q243.18 1549.52 237.37 1549.52 Q231.56 1549.52 228.481 1544.94 Q225.426 1540.33 225.426 1531.6 Q225.426 1522.85 228.481 1518.27 Q231.56 1513.66 237.37 1513.66 Z" fill="#000000" fill-rule="nonzero" fill-opacity="1" /><path clip-path="url(#clip380)" d="M723.032 1514.29 L741.389 1514.29 L741.389 1518.22 L727.315 1518.22 L727.315 1526.7 Q728.333 1526.35 729.352 1526.19 Q730.37 1526 731.389 1526 Q737.176 1526 740.555 1529.17 Q743.935 1532.34 743.935 1537.76 Q743.935 1543.34 740.463 1546.44 Q736.99 1549.52 730.671 1549.52 Q728.495 1549.52 726.227 1549.15 Q723.981 1548.78 721.574 1548.04 L721.574 1543.34 Q723.657 1544.47 725.879 1545.03 Q728.102 1545.58 730.578 1545.58 Q734.583 1545.58 736.921 1543.48 Q739.259 1541.37 739.259 1537.76 Q739.259 1534.15 736.921 1532.04 Q734.583 1529.94 730.578 1529.94 Q728.703 1529.94 726.828 1530.35 Q724.977 1530.77 723.032 1531.65 L723.032 1514.29 Z" fill="#000000" fill-rule="nonzero" fill-opacity="1" /><path clip-path="url(#clip380)" d="M763.148 1517.37 Q759.537 1517.37 757.708 1520.93 Q755.902 1524.47 755.902 1531.6 Q755.902 1538.71 757.708 1542.27 Q759.537 1545.82 763.148 1545.82 Q766.782 1545.82 768.588 1542.27 Q770.416 1538.71 770.416 1531.6 Q770.416 1524.47 768.588 1520.93 Q766.782 1517.37 763.148 1517.37 M763.148 1513.66 Q768.958 1513.66 772.013 1518.27 Q775.092 1522.85 775.092 1531.6 Q775.092 1540.33 772.013 1544.94 Q768.958 1549.52 763.148 1549.52 Q757.338 1549.52 754.259 1544.94 Q751.203 1540.33 751.203 1531.6 Q751.203 1522.85 754.259 1518.27 Q757.338 1513.66 763.148 1513.66 Z" fill="#000000" fill-rule="nonzero" fill-opacity="1" /><path clip-path="url(#clip380)" d="M1218.9 1544.91 L1226.54 1544.91 L1226.54 1518.55 L1218.23 1520.21 L1218.23 1515.95 L1226.49 1514.29 L1231.17 1514.29 L1231.17 1544.91 L1238.81 1544.91 L1238.81 1548.85 L1218.9 1548.85 L1218.9 1544.91 Z" fill="#000000" fill-rule="nonzero" fill-opacity="1" /><path clip-path="url(#clip380)" d="M1258.25 1517.37 Q1254.64 1517.37 1252.81 1520.93 Q1251.01 1524.47 1251.01 1531.6 Q1251.01 1538.71 1252.81 1542.27 Q1254.64 1545.82 1258.25 1545.82 Q1261.89 1545.82 1263.69 1542.27 Q1265.52 1538.71 1265.52 1531.6 Q1265.52 1524.47 1263.69 1520.93 Q1261.89 1517.37 1258.25 1517.37 M1258.25 1513.66 Q1264.06 1513.66 1267.12 1518.27 Q1270.2 1522.85 1270.2 1531.6 Q1270.2 1540.33 1267.12 1544.94 Q1264.06 1549.52 1258.25 1549.52 Q1252.44 1549.52 1249.37 1544.94 Q1246.31 1540.33 1246.31 1531.6 Q1246.31 1522.85 1249.37 1518.27 Q1252.44 1513.66 1258.25 1513.66 Z" fill="#000000" fill-rule="nonzero" fill-opacity="1" /><path clip-path="url(#clip380)" d="M1288.42 1517.37 Q1284.8 1517.37 1282.98 1520.93 Q1281.17 1524.47 1281.17 1531.6 Q1281.17 1538.71 1282.98 1542.27 Q1284.8 1545.82 1288.42 1545.82 Q1292.05 1545.82 1293.86 1542.27 Q1295.68 1538.71 1295.68 1531.6 Q1295.68 1524.47 1293.86 1520.93 Q1292.05 1517.37 1288.42 1517.37 M1288.42 1513.66 Q1294.23 1513.66 1297.28 1518.27 Q1300.36 1522.85 1300.36 1531.6 Q1300.36 1540.33 1297.28 1544.94 Q1294.23 1549.52 1288.42 1549.52 Q1282.61 1549.52 1279.53 1544.94 Q1276.47 1540.33 1276.47 1531.6 Q1276.47 1522.85 1279.53 1518.27 Q1282.61 1513.66 1288.42 1513.66 Z" fill="#000000" fill-rule="nonzero" fill-opacity="1" /><path clip-path="url(#clip380)" d="M1729.87 1544.91 L1737.5 1544.91 L1737.5 1518.55 L1729.19 1520.21 L1729.19 1515.95 L1737.46 1514.29 L1742.13 1514.29 L1742.13 1544.91 L1749.77 1544.91 L1749.77 1548.85 L1729.87 1548.85 L1729.87 1544.91 Z" fill="#000000" fill-rule="nonzero" fill-opacity="1" /><path clip-path="url(#clip380)" d="M1759.26 1514.29 L1777.62 1514.29 L1777.62 1518.22 L1763.55 1518.22 L1763.55 1526.7 Q1764.56 1526.35 1765.58 1526.19 Q1766.6 1526 1767.62 1526 Q1773.41 1526 1776.79 1529.17 Q1780.17 1532.34 1780.17 1537.76 Q1780.17 1543.34 1776.69 1546.44 Q1773.22 1549.52 1766.9 1549.52 Q1764.73 1549.52 1762.46 1549.15 Q1760.21 1548.78 1757.8 1548.04 L1757.8 1543.34 Q1759.89 1544.47 1762.11 1545.03 Q1764.33 1545.58 1766.81 1545.58 Q1770.81 1545.58 1773.15 1543.48 Q1775.49 1541.37 1775.49 1537.76 Q1775.49 1534.15 1773.15 1532.04 Q1770.81 1529.94 1766.81 1529.94 Q1764.93 1529.94 1763.06 1530.35 Q1761.21 1530.77 1759.26 1531.65 L1759.26 1514.29 Z" fill="#000000" fill-rule="nonzero" fill-opacity="1" /><path clip-path="url(#clip380)" d="M1799.38 1517.37 Q1795.77 1517.37 1793.94 1520.93 Q1792.13 1524.47 1792.13 1531.6 Q1792.13 1538.71 1793.94 1542.27 Q1795.77 1545.82 1799.38 1545.82 Q1803.01 1545.82 1804.82 1542.27 Q1806.65 1538.71 1806.65 1531.6 Q1806.65 1524.47 1804.82 1520.93 Q1803.01 1517.37 1799.38 1517.37 M1799.38 1513.66 Q1805.19 1513.66 1808.24 1518.27 Q1811.32 1522.85 1811.32 1531.6 Q1811.32 1540.33 1808.24 1544.94 Q1805.19 1549.52 1799.38 1549.52 Q1793.57 1549.52 1790.49 1544.94 Q1787.43 1540.33 1787.43 1531.6 Q1787.43 1522.85 1790.49 1518.27 Q1793.57 1513.66 1799.38 1513.66 Z" fill="#000000" fill-rule="nonzero" fill-opacity="1" /><path clip-path="url(#clip380)" d="M2244.91 1544.91 L2261.23 1544.91 L2261.23 1548.85 L2239.29 1548.85 L2239.29 1544.91 Q2241.95 1542.16 2246.53 1537.53 Q2251.14 1532.88 2252.32 1531.53 Q2254.57 1529.01 2255.45 1527.27 Q2256.35 1525.51 2256.35 1523.82 Q2256.35 1521.07 2254.4 1519.33 Q2252.48 1517.6 2249.38 1517.6 Q2247.18 1517.6 2244.73 1518.36 Q2242.3 1519.13 2239.52 1520.68 L2239.52 1515.95 Q2242.34 1514.82 2244.8 1514.24 Q2247.25 1513.66 2249.29 1513.66 Q2254.66 1513.66 2257.85 1516.35 Q2261.05 1519.03 2261.05 1523.52 Q2261.05 1525.65 2260.24 1527.57 Q2259.45 1529.47 2257.34 1532.07 Q2256.77 1532.74 2253.66 1535.95 Q2250.56 1539.15 2244.91 1544.91 Z" fill="#000000" fill-rule="nonzero" fill-opacity="1" /><path clip-path="url(#clip380)" d="M2281.05 1517.37 Q2277.44 1517.37 2275.61 1520.93 Q2273.8 1524.47 2273.8 1531.6 Q2273.8 1538.71 2275.61 1542.27 Q2277.44 1545.82 2281.05 1545.82 Q2284.68 1545.82 2286.49 1542.27 Q2288.32 1538.71 2288.32 1531.6 Q2288.32 1524.47 2286.49 1520.93 Q2284.68 1517.37 2281.05 1517.37 M2281.05 1513.66 Q2286.86 1513.66 2289.91 1518.27 Q2292.99 1522.85 2292.99 1531.6 Q2292.99 1540.33 2289.91 1544.94 Q2286.86 1549.52 2281.05 1549.52 Q2275.24 1549.52 2272.16 1544.94 Q2269.1 1540.33 2269.1 1531.6 Q2269.1 1522.85 2272.16 1518.27 Q2275.24 1513.66 2281.05 1513.66 Z" fill="#000000" fill-rule="nonzero" fill-opacity="1" /><path clip-path="url(#clip380)" d="M2311.21 1517.37 Q2307.6 1517.37 2305.77 1520.93 Q2303.96 1524.47 2303.96 1531.6 Q2303.96 1538.71 2305.77 1542.27 Q2307.6 1545.82 2311.21 1545.82 Q2314.84 1545.82 2316.65 1542.27 Q2318.48 1538.71 2318.48 1531.6 Q2318.48 1524.47 2316.65 1520.93 Q2314.84 1517.37 2311.21 1517.37 M2311.21 1513.66 Q2317.02 1513.66 2320.08 1518.27 Q2323.15 1522.85 2323.15 1531.6 Q2323.15 1540.33 2320.08 1544.94 Q2317.02 1549.52 2311.21 1549.52 Q2305.4 1549.52 2302.32 1544.94 Q2299.27 1540.33 2299.27 1531.6 Q2299.27 1522.85 2302.32 1518.27 Q2305.4 1513.66 2311.21 1513.66 Z" fill="#000000" fill-rule="nonzero" fill-opacity="1" /><polyline clip-path="url(#clip380)" style="stroke:#000000; stroke-linecap:round; stroke-linejoin:round; stroke-width:4; stroke-opacity:1; fill:none" points="186.274,1486.45 186.274,123.472 "/>
<polyline clip-path="url(#clip380)" style="stroke:#000000; stroke-linecap:round; stroke-linejoin:round; stroke-width:4; stroke-opacity:1; fill:none" points="186.274,1447.87 205.172,1447.87 "/>
<polyline clip-path="url(#clip380)" style="stroke:#000000; stroke-linecap:round; stroke-linejoin:round; stroke-width:4; stroke-opacity:1; fill:none" points="186.274,1126.42 205.172,1126.42 "/>
<polyline clip-path="url(#clip380)" style="stroke:#000000; stroke-linecap:round; stroke-linejoin:round; stroke-width:4; stroke-opacity:1; fill:none" points="186.274,804.96 205.172,804.96 "/>
<polyline clip-path="url(#clip380)" style="stroke:#000000; stroke-linecap:round; stroke-linejoin:round; stroke-width:4; stroke-opacity:1; fill:none" points="186.274,483.503 205.172,483.503 "/>
<polyline clip-path="url(#clip380)" style="stroke:#000000; stroke-linecap:round; stroke-linejoin:round; stroke-width:4; stroke-opacity:1; fill:none" points="186.274,162.047 205.172,162.047 "/>
<path clip-path="url(#clip380)" d="M62.9365 1433.67 Q59.3254 1433.67 57.4967 1437.24 Q55.6912 1440.78 55.6912 1447.91 Q55.6912 1455.01 57.4967 1458.58 Q59.3254 1462.12 62.9365 1462.12 Q66.5707 1462.12 68.3763 1458.58 Q70.205 1455.01 70.205 1447.91 Q70.205 1440.78 68.3763 1437.24 Q66.5707 1433.67 62.9365 1433.67 M62.9365 1429.97 Q68.7467 1429.97 71.8022 1434.57 Q74.8809 1439.16 74.8809 1447.91 Q74.8809 1456.63 71.8022 1461.24 Q68.7467 1465.82 62.9365 1465.82 Q57.1264 1465.82 54.0477 1461.24 Q50.9921 1456.63 50.9921 1447.91 Q50.9921 1439.16 54.0477 1434.57 Q57.1264 1429.97 62.9365 1429.97 Z" fill="#000000" fill-rule="nonzero" fill-opacity="1" /><path clip-path="url(#clip380)" d="M83.0984 1459.27 L87.9827 1459.27 L87.9827 1465.15 L83.0984 1465.15 L83.0984 1459.27 Z" fill="#000000" fill-rule="nonzero" fill-opacity="1" /><path clip-path="url(#clip380)" d="M108.168 1433.67 Q104.557 1433.67 102.728 1437.24 Q100.922 1440.78 100.922 1447.91 Q100.922 1455.01 102.728 1458.58 Q104.557 1462.12 108.168 1462.12 Q111.802 1462.12 113.608 1458.58 Q115.436 1455.01 115.436 1447.91 Q115.436 1440.78 113.608 1437.24 Q111.802 1433.67 108.168 1433.67 M108.168 1429.97 Q113.978 1429.97 117.033 1434.57 Q120.112 1439.16 120.112 1447.91 Q120.112 1456.63 117.033 1461.24 Q113.978 1465.82 108.168 1465.82 Q102.358 1465.82 99.2789 1461.24 Q96.2234 1456.63 96.2234 1447.91 Q96.2234 1439.16 99.2789 1434.57 Q102.358 1429.97 108.168 1429.97 Z" fill="#000000" fill-rule="nonzero" fill-opacity="1" /><path clip-path="url(#clip380)" d="M138.33 1433.67 Q134.719 1433.67 132.89 1437.24 Q131.084 1440.78 131.084 1447.91 Q131.084 1455.01 132.89 1458.58 Q134.719 1462.12 138.33 1462.12 Q141.964 1462.12 143.769 1458.58 Q145.598 1455.01 145.598 1447.91 Q145.598 1440.78 143.769 1437.24 Q141.964 1433.67 138.33 1433.67 M138.33 1429.97 Q144.14 1429.97 147.195 1434.57 Q150.274 1439.16 150.274 1447.91 Q150.274 1456.63 147.195 1461.24 Q144.14 1465.82 138.33 1465.82 Q132.519 1465.82 129.441 1461.24 Q126.385 1456.63 126.385 1447.91 Q126.385 1439.16 129.441 1434.57 Q132.519 1429.97 138.33 1429.97 Z" fill="#000000" fill-rule="nonzero" fill-opacity="1" /><path clip-path="url(#clip380)" d="M63.9319 1112.22 Q60.3208 1112.22 58.4921 1115.78 Q56.6865 1119.32 56.6865 1126.45 Q56.6865 1133.56 58.4921 1137.12 Q60.3208 1140.66 63.9319 1140.66 Q67.5661 1140.66 69.3717 1137.12 Q71.2004 1133.56 71.2004 1126.45 Q71.2004 1119.32 69.3717 1115.78 Q67.5661 1112.22 63.9319 1112.22 M63.9319 1108.51 Q69.742 1108.51 72.7976 1113.12 Q75.8763 1117.7 75.8763 1126.45 Q75.8763 1135.18 72.7976 1139.78 Q69.742 1144.37 63.9319 1144.37 Q58.1217 1144.37 55.043 1139.78 Q51.9875 1135.18 51.9875 1126.45 Q51.9875 1117.7 55.043 1113.12 Q58.1217 1108.51 63.9319 1108.51 Z" fill="#000000" fill-rule="nonzero" fill-opacity="1" /><path clip-path="url(#clip380)" d="M84.0938 1137.82 L88.978 1137.82 L88.978 1143.7 L84.0938 1143.7 L84.0938 1137.82 Z" fill="#000000" fill-rule="nonzero" fill-opacity="1" /><path clip-path="url(#clip380)" d="M103.191 1139.76 L119.51 1139.76 L119.51 1143.7 L97.566 1143.7 L97.566 1139.76 Q100.228 1137.01 104.811 1132.38 Q109.418 1127.72 110.598 1126.38 Q112.844 1123.86 113.723 1122.12 Q114.626 1120.36 114.626 1118.67 Q114.626 1115.92 112.682 1114.18 Q110.76 1112.45 107.658 1112.45 Q105.459 1112.45 103.006 1113.21 Q100.575 1113.97 97.7974 1115.53 L97.7974 1110.8 Q100.621 1109.67 103.075 1109.09 Q105.529 1108.51 107.566 1108.51 Q112.936 1108.51 116.131 1111.2 Q119.325 1113.88 119.325 1118.37 Q119.325 1120.5 118.515 1122.42 Q117.728 1124.32 115.621 1126.91 Q115.043 1127.59 111.941 1130.8 Q108.839 1134 103.191 1139.76 Z" fill="#000000" fill-rule="nonzero" fill-opacity="1" /><path clip-path="url(#clip380)" d="M129.371 1109.14 L147.728 1109.14 L147.728 1113.07 L133.654 1113.07 L133.654 1121.54 Q134.672 1121.2 135.691 1121.03 Q136.709 1120.85 137.728 1120.85 Q143.515 1120.85 146.894 1124.02 Q150.274 1127.19 150.274 1132.61 Q150.274 1138.19 146.802 1141.29 Q143.33 1144.37 137.01 1144.37 Q134.834 1144.37 132.566 1144 Q130.32 1143.63 127.913 1142.89 L127.913 1138.19 Q129.996 1139.32 132.219 1139.88 Q134.441 1140.43 136.918 1140.43 Q140.922 1140.43 143.26 1138.33 Q145.598 1136.22 145.598 1132.61 Q145.598 1129 143.26 1126.89 Q140.922 1124.78 136.918 1124.78 Q135.043 1124.78 133.168 1125.2 Q131.316 1125.62 129.371 1126.5 L129.371 1109.14 Z" fill="#000000" fill-rule="nonzero" fill-opacity="1" /><path clip-path="url(#clip380)" d="M62.9365 790.759 Q59.3254 790.759 57.4967 794.323 Q55.6912 797.865 55.6912 804.995 Q55.6912 812.101 57.4967 815.666 Q59.3254 819.208 62.9365 819.208 Q66.5707 819.208 68.3763 815.666 Q70.205 812.101 70.205 804.995 Q70.205 797.865 68.3763 794.323 Q66.5707 790.759 62.9365 790.759 M62.9365 787.055 Q68.7467 787.055 71.8022 791.661 Q74.8809 796.245 74.8809 804.995 Q74.8809 813.722 71.8022 818.328 Q68.7467 822.911 62.9365 822.911 Q57.1264 822.911 54.0477 818.328 Q50.9921 813.722 50.9921 804.995 Q50.9921 796.245 54.0477 791.661 Q57.1264 787.055 62.9365 787.055 Z" fill="#000000" fill-rule="nonzero" fill-opacity="1" /><path clip-path="url(#clip380)" d="M83.0984 816.36 L87.9827 816.36 L87.9827 822.24 L83.0984 822.24 L83.0984 816.36 Z" fill="#000000" fill-rule="nonzero" fill-opacity="1" /><path clip-path="url(#clip380)" d="M98.2141 787.68 L116.57 787.68 L116.57 791.615 L102.496 791.615 L102.496 800.087 Q103.515 799.74 104.534 799.578 Q105.552 799.393 106.571 799.393 Q112.358 799.393 115.737 802.564 Q119.117 805.735 119.117 811.152 Q119.117 816.731 115.645 819.833 Q112.172 822.911 105.853 822.911 Q103.677 822.911 101.409 822.541 Q99.1632 822.171 96.7558 821.43 L96.7558 816.731 Q98.8391 817.865 101.061 818.421 Q103.284 818.976 105.76 818.976 Q109.765 818.976 112.103 816.87 Q114.441 814.763 114.441 811.152 Q114.441 807.541 112.103 805.435 Q109.765 803.328 105.76 803.328 Q103.885 803.328 102.01 803.745 Q100.159 804.161 98.2141 805.041 L98.2141 787.68 Z" fill="#000000" fill-rule="nonzero" fill-opacity="1" /><path clip-path="url(#clip380)" d="M138.33 790.759 Q134.719 790.759 132.89 794.323 Q131.084 797.865 131.084 804.995 Q131.084 812.101 132.89 815.666 Q134.719 819.208 138.33 819.208 Q141.964 819.208 143.769 815.666 Q145.598 812.101 145.598 804.995 Q145.598 797.865 143.769 794.323 Q141.964 790.759 138.33 790.759 M138.33 787.055 Q144.14 787.055 147.195 791.661 Q150.274 796.245 150.274 804.995 Q150.274 813.722 147.195 818.328 Q144.14 822.911 138.33 822.911 Q132.519 822.911 129.441 818.328 Q126.385 813.722 126.385 804.995 Q126.385 796.245 129.441 791.661 Q132.519 787.055 138.33 787.055 Z" fill="#000000" fill-rule="nonzero" fill-opacity="1" /><path clip-path="url(#clip380)" d="M63.9319 469.302 Q60.3208 469.302 58.4921 472.867 Q56.6865 476.409 56.6865 483.538 Q56.6865 490.645 58.4921 494.209 Q60.3208 497.751 63.9319 497.751 Q67.5661 497.751 69.3717 494.209 Q71.2004 490.645 71.2004 483.538 Q71.2004 476.409 69.3717 472.867 Q67.5661 469.302 63.9319 469.302 M63.9319 465.598 Q69.742 465.598 72.7976 470.205 Q75.8763 474.788 75.8763 483.538 Q75.8763 492.265 72.7976 496.871 Q69.742 501.455 63.9319 501.455 Q58.1217 501.455 55.043 496.871 Q51.9875 492.265 51.9875 483.538 Q51.9875 474.788 55.043 470.205 Q58.1217 465.598 63.9319 465.598 Z" fill="#000000" fill-rule="nonzero" fill-opacity="1" /><path clip-path="url(#clip380)" d="M84.0938 494.904 L88.978 494.904 L88.978 500.783 L84.0938 500.783 L84.0938 494.904 Z" fill="#000000" fill-rule="nonzero" fill-opacity="1" /><path clip-path="url(#clip380)" d="M97.9826 466.223 L120.205 466.223 L120.205 468.214 L107.658 500.783 L102.774 500.783 L114.58 470.159 L97.9826 470.159 L97.9826 466.223 Z" fill="#000000" fill-rule="nonzero" fill-opacity="1" /><path clip-path="url(#clip380)" d="M129.371 466.223 L147.728 466.223 L147.728 470.159 L133.654 470.159 L133.654 478.631 Q134.672 478.284 135.691 478.122 Q136.709 477.936 137.728 477.936 Q143.515 477.936 146.894 481.108 Q150.274 484.279 150.274 489.696 Q150.274 495.274 146.802 498.376 Q143.33 501.455 137.01 501.455 Q134.834 501.455 132.566 501.084 Q130.32 500.714 127.913 499.973 L127.913 495.274 Q129.996 496.408 132.219 496.964 Q134.441 497.52 136.918 497.52 Q140.922 497.52 143.26 495.413 Q145.598 493.307 145.598 489.696 Q145.598 486.084 143.26 483.978 Q140.922 481.872 136.918 481.872 Q135.043 481.872 133.168 482.288 Q131.316 482.705 129.371 483.584 L129.371 466.223 Z" fill="#000000" fill-rule="nonzero" fill-opacity="1" /><path clip-path="url(#clip380)" d="M53.7467 175.392 L61.3856 175.392 L61.3856 149.026 L53.0754 150.693 L53.0754 146.434 L61.3393 144.767 L66.0152 144.767 L66.0152 175.392 L73.654 175.392 L73.654 179.327 L53.7467 179.327 L53.7467 175.392 Z" fill="#000000" fill-rule="nonzero" fill-opacity="1" /><path clip-path="url(#clip380)" d="M83.0984 173.447 L87.9827 173.447 L87.9827 179.327 L83.0984 179.327 L83.0984 173.447 Z" fill="#000000" fill-rule="nonzero" fill-opacity="1" /><path clip-path="url(#clip380)" d="M108.168 147.846 Q104.557 147.846 102.728 151.41 Q100.922 154.952 100.922 162.082 Q100.922 169.188 102.728 172.753 Q104.557 176.295 108.168 176.295 Q111.802 176.295 113.608 172.753 Q115.436 169.188 115.436 162.082 Q115.436 154.952 113.608 151.41 Q111.802 147.846 108.168 147.846 M108.168 144.142 Q113.978 144.142 117.033 148.748 Q120.112 153.332 120.112 162.082 Q120.112 170.808 117.033 175.415 Q113.978 179.998 108.168 179.998 Q102.358 179.998 99.2789 175.415 Q96.2234 170.808 96.2234 162.082 Q96.2234 153.332 99.2789 148.748 Q102.358 144.142 108.168 144.142 Z" fill="#000000" fill-rule="nonzero" fill-opacity="1" /><path clip-path="url(#clip380)" d="M138.33 147.846 Q134.719 147.846 132.89 151.41 Q131.084 154.952 131.084 162.082 Q131.084 169.188 132.89 172.753 Q134.719 176.295 138.33 176.295 Q141.964 176.295 143.769 172.753 Q145.598 169.188 145.598 162.082 Q145.598 154.952 143.769 151.41 Q141.964 147.846 138.33 147.846 M138.33 144.142 Q144.14 144.142 147.195 148.748 Q150.274 153.332 150.274 162.082 Q150.274 170.808 147.195 175.415 Q144.14 179.998 138.33 179.998 Q132.519 179.998 129.441 175.415 Q126.385 170.808 126.385 162.082 Q126.385 153.332 129.441 148.748 Q132.519 144.142 138.33 144.142 Z" fill="#000000" fill-rule="nonzero" fill-opacity="1" /><path clip-path="url(#clip380)" d="M1026.74 9.54393 L1026.74 15.7418 L1019.61 15.7418 Q1015.6 15.7418 1014.02 17.3622 Q1012.49 18.9825 1012.49 23.1955 L1012.49 27.2059 L1024.76 27.2059 L1024.76 32.9987 L1012.49 32.9987 L1012.49 72.576 L1004.99 72.576 L1004.99 32.9987 L997.861 32.9987 L997.861 27.2059 L1004.99 27.2059 L1004.99 24.0462 Q1004.99 16.471 1008.52 13.0277 Q1012.04 9.54393 1019.7 9.54393 L1026.74 9.54393 Z" fill="#000000" fill-rule="nonzero" fill-opacity="1" /><path clip-path="url(#clip380)" d="M1059.27 34.1734 Q1058.02 33.4443 1056.52 33.1202 Q1055.06 32.7556 1053.28 32.7556 Q1046.96 32.7556 1043.56 36.8875 Q1040.19 40.9789 1040.19 48.6757 L1040.19 72.576 L1032.7 72.576 L1032.7 27.2059 L1040.19 27.2059 L1040.19 34.2544 Q1042.54 30.1225 1046.31 28.1376 Q1050.08 26.1121 1055.47 26.1121 Q1056.23 26.1121 1057.17 26.2337 Q1058.1 26.3147 1059.23 26.5172 L1059.27 34.1734 Z" fill="#000000" fill-rule="nonzero" fill-opacity="1" /><path clip-path="url(#clip380)" d="M1082.85 32.4315 Q1076.85 32.4315 1073.37 37.1306 Q1069.89 41.7891 1069.89 49.9314 Q1069.89 58.0738 1073.33 62.7728 Q1076.81 67.4314 1082.85 67.4314 Q1088.8 67.4314 1092.29 62.7323 Q1095.77 58.0333 1095.77 49.9314 Q1095.77 41.8701 1092.29 37.1711 Q1088.8 32.4315 1082.85 32.4315 M1082.85 26.1121 Q1092.57 26.1121 1098.12 32.4315 Q1103.67 38.7509 1103.67 49.9314 Q1103.67 61.0714 1098.12 67.4314 Q1092.57 73.7508 1082.85 73.7508 Q1073.09 73.7508 1067.54 67.4314 Q1062.03 61.0714 1062.03 49.9314 Q1062.03 38.7509 1067.54 32.4315 Q1073.09 26.1121 1082.85 26.1121 Z" fill="#000000" fill-rule="nonzero" fill-opacity="1" /><path clip-path="url(#clip380)" d="M1153.74 45.1919 L1153.74 72.576 L1146.29 72.576 L1146.29 45.4349 Q1146.29 38.994 1143.77 35.7938 Q1141.26 32.5936 1136.24 32.5936 Q1130.2 32.5936 1126.72 36.4419 Q1123.24 40.2903 1123.24 46.9338 L1123.24 72.576 L1115.74 72.576 L1115.74 27.2059 L1123.24 27.2059 L1123.24 34.2544 Q1125.91 30.163 1129.52 28.1376 Q1133.16 26.1121 1137.9 26.1121 Q1145.72 26.1121 1149.73 30.9732 Q1153.74 35.7938 1153.74 45.1919 Z" fill="#000000" fill-rule="nonzero" fill-opacity="1" /><path clip-path="url(#clip380)" d="M1175.98 14.324 L1175.98 27.2059 L1191.33 27.2059 L1191.33 32.9987 L1175.98 32.9987 L1175.98 57.6282 Q1175.98 63.1779 1177.48 64.7578 Q1179.02 66.3376 1183.68 66.3376 L1191.33 66.3376 L1191.33 72.576 L1183.68 72.576 Q1175.05 72.576 1171.77 69.3758 Q1168.49 66.1351 1168.49 57.6282 L1168.49 32.9987 L1163.02 32.9987 L1163.02 27.2059 L1168.49 27.2059 L1168.49 14.324 L1175.98 14.324 Z" fill="#000000" fill-rule="nonzero" fill-opacity="1" /><path clip-path="url(#clip380)" d="M1256.43 28.5427 L1256.43 35.5912 Q1253.27 33.9709 1249.87 33.1607 Q1246.47 32.3505 1242.82 32.3505 Q1237.27 32.3505 1234.47 34.0519 Q1231.72 35.7533 1231.72 39.156 Q1231.72 41.7486 1233.7 43.2475 Q1235.69 44.7058 1241.69 46.0426 L1244.24 46.6097 Q1252.18 48.3111 1255.5 51.4303 Q1258.86 54.509 1258.86 60.0587 Q1258.86 66.3781 1253.84 70.0644 Q1248.86 73.7508 1240.11 73.7508 Q1236.46 73.7508 1232.49 73.0216 Q1228.56 72.3329 1224.19 70.9151 L1224.19 63.2184 Q1228.32 65.3654 1232.33 66.4591 Q1236.34 67.5124 1240.27 67.5124 Q1245.53 67.5124 1248.37 65.73 Q1251.2 63.9071 1251.2 60.6258 Q1251.2 57.5877 1249.14 55.9673 Q1247.11 54.3469 1240.19 52.8481 L1237.59 52.2405 Q1230.67 50.7821 1227.59 47.7845 Q1224.51 44.7463 1224.51 39.4801 Q1224.51 33.0797 1229.05 29.5959 Q1233.58 26.1121 1241.93 26.1121 Q1246.06 26.1121 1249.71 26.7198 Q1253.35 27.3274 1256.43 28.5427 Z" fill="#000000" fill-rule="nonzero" fill-opacity="1" /><path clip-path="url(#clip380)" d="M1288.31 32.4315 Q1282.32 32.4315 1278.83 37.1306 Q1275.35 41.7891 1275.35 49.9314 Q1275.35 58.0738 1278.79 62.7728 Q1282.28 67.4314 1288.31 67.4314 Q1294.27 67.4314 1297.75 62.7323 Q1301.23 58.0333 1301.23 49.9314 Q1301.23 41.8701 1297.75 37.1711 Q1294.27 32.4315 1288.31 32.4315 M1288.31 26.1121 Q1298.03 26.1121 1303.58 32.4315 Q1309.13 38.7509 1309.13 49.9314 Q1309.13 61.0714 1303.58 67.4314 Q1298.03 73.7508 1288.31 73.7508 Q1278.55 73.7508 1273 67.4314 Q1267.49 61.0714 1267.49 49.9314 Q1267.49 38.7509 1273 32.4315 Q1278.55 26.1121 1288.31 26.1121 Z" fill="#000000" fill-rule="nonzero" fill-opacity="1" /><path clip-path="url(#clip380)" d="M1321.49 9.54393 L1328.94 9.54393 L1328.94 72.576 L1321.49 72.576 L1321.49 9.54393 Z" fill="#000000" fill-rule="nonzero" fill-opacity="1" /><path clip-path="url(#clip380)" d="M1343.77 54.671 L1343.77 27.2059 L1351.22 27.2059 L1351.22 54.3874 Q1351.22 60.8284 1353.73 64.0691 Q1356.24 67.2693 1361.27 67.2693 Q1367.3 67.2693 1370.79 63.421 Q1374.31 59.5726 1374.31 52.9291 L1374.31 27.2059 L1381.77 27.2059 L1381.77 72.576 L1374.31 72.576 L1374.31 65.6084 Q1371.6 69.7404 1367.99 71.7658 Q1364.43 73.7508 1359.69 73.7508 Q1351.87 73.7508 1347.82 68.8897 Q1343.77 64.0286 1343.77 54.671 M1362.52 26.1121 L1362.52 26.1121 Z" fill="#000000" fill-rule="nonzero" fill-opacity="1" /><path clip-path="url(#clip380)" d="M1404.49 14.324 L1404.49 27.2059 L1419.84 27.2059 L1419.84 32.9987 L1404.49 32.9987 L1404.49 57.6282 Q1404.49 63.1779 1405.99 64.7578 Q1407.53 66.3376 1412.19 66.3376 L1419.84 66.3376 L1419.84 72.576 L1412.19 72.576 Q1403.56 72.576 1400.28 69.3758 Q1397 66.1351 1397 57.6282 L1397 32.9987 L1391.53 32.9987 L1391.53 27.2059 L1397 27.2059 L1397 14.324 L1404.49 14.324 Z" fill="#000000" fill-rule="nonzero" fill-opacity="1" /><path clip-path="url(#clip380)" d="M1429.65 27.2059 L1437.1 27.2059 L1437.1 72.576 L1429.65 72.576 L1429.65 27.2059 M1429.65 9.54393 L1437.1 9.54393 L1437.1 18.9825 L1429.65 18.9825 L1429.65 9.54393 Z" fill="#000000" fill-rule="nonzero" fill-opacity="1" /><path clip-path="url(#clip380)" d="M1470.28 32.4315 Q1464.28 32.4315 1460.8 37.1306 Q1457.31 41.7891 1457.31 49.9314 Q1457.31 58.0738 1460.76 62.7728 Q1464.24 67.4314 1470.28 67.4314 Q1476.23 67.4314 1479.72 62.7323 Q1483.2 58.0333 1483.2 49.9314 Q1483.2 41.8701 1479.72 37.1711 Q1476.23 32.4315 1470.28 32.4315 M1470.28 26.1121 Q1480 26.1121 1485.55 32.4315 Q1491.1 38.7509 1491.1 49.9314 Q1491.1 61.0714 1485.55 67.4314 Q1480 73.7508 1470.28 73.7508 Q1460.52 73.7508 1454.97 67.4314 Q1449.46 61.0714 1449.46 49.9314 Q1449.46 38.7509 1454.97 32.4315 Q1460.52 26.1121 1470.28 26.1121 Z" fill="#000000" fill-rule="nonzero" fill-opacity="1" /><path clip-path="url(#clip380)" d="M1541.17 45.1919 L1541.17 72.576 L1533.71 72.576 L1533.71 45.4349 Q1533.71 38.994 1531.2 35.7938 Q1528.69 32.5936 1523.67 32.5936 Q1517.63 32.5936 1514.15 36.4419 Q1510.67 40.2903 1510.67 46.9338 L1510.67 72.576 L1503.17 72.576 L1503.17 27.2059 L1510.67 27.2059 L1510.67 34.2544 Q1513.34 30.163 1516.94 28.1376 Q1520.59 26.1121 1525.33 26.1121 Q1533.15 26.1121 1537.16 30.9732 Q1541.17 35.7938 1541.17 45.1919 Z" fill="#000000" fill-rule="nonzero" fill-opacity="1" /><polyline clip-path="url(#clip382)" style="stroke:#009af9; stroke-linecap:round; stroke-linejoin:round; stroke-width:4; stroke-opacity:1; fill:none" points="247.59,1447.87 257.809,1447.87 268.028,1447.87 278.247,1447.87 288.467,1447.87 298.686,1447.87 308.905,1447.87 319.124,1447.87 329.344,1447.87 339.563,1447.87 349.782,1447.87 360.001,1447.87 370.221,1447.87 380.44,1447.87 390.659,1447.87 400.878,1447.87 411.098,1447.87 421.317,1447.87 431.536,1447.87 441.755,1447.87 451.975,1447.87 462.194,1447.87 472.413,1447.87 482.632,1447.87 492.852,1447.87 503.071,1447.87 513.29,1447.87 523.509,1447.87 533.729,1447.87 543.948,1447.87 554.167,1447.87 564.386,1447.87 574.606,1447.87 584.825,1447.87 595.044,1447.87 605.263,1447.87 615.483,1447.87 625.702,1447.87 635.921,1447.87 646.14,1447.87 656.36,1447.87 666.579,1447.87 676.798,1447.87 687.017,1447.87 697.237,1447.87 707.456,1447.87 717.675,1447.87 727.894,1447.87 738.114,1447.87 748.333,1447.87 758.552,1447.87 768.771,1447.87 778.991,1447.87 789.21,1447.87 799.429,1447.87 809.649,1447.87 819.868,1447.87 830.087,1447.87 840.306,1447.87 850.526,1447.87 860.745,1447.87 870.964,1447.87 881.183,1447.87 891.403,1447.87 901.622,1447.87 911.841,1447.87 922.06,1447.87 932.28,1447.87 942.499,1447.87 952.718,1447.86 962.937,1447.86 973.157,1447.85 983.376,1447.83 993.595,1447.81 1003.81,1447.78 1014.03,1447.73 1024.25,1447.66 1034.47,1447.55 1044.69,1447.38 1054.91,1447.11 1065.13,1446.71 1075.35,1446.09 1085.57,1445.15 1095.79,1443.7 1106.01,1441.5 1116.23,1438.15 1126.45,1433.06 1136.66,1425.36 1146.88,1413.78 1157.1,1396.53 1167.32,1371.15 1177.54,1334.58 1187.76,1283.31 1197.98,1214.16 1208.2,1125.51 1218.42,1018.77 1228.64,899.212 1238.86,775.136 1249.08,655.608 1259.3,547.939 1269.51,456.33 1279.73,381.914 1289.95,323.632 1300.17,279.26 1310.39,246.206 1320.61,221.99 1330.83,204.474 1341.05,191.929 1351.27,183.012 1361.49,176.712 1371.71,172.28 1381.93,169.174 1392.15,167.003 1402.37,165.49 1412.58,164.436 1422.8,163.704 1433.02,163.195 1443.24,162.842 1453.46,162.598 1463.68,162.428 1473.9,162.311 1484.12,162.229 1494.34,162.173 1504.56,162.134 1514.78,162.107 1525,162.089 1535.22,162.076 1545.43,162.067 1555.65,162.061 1565.87,162.056 1576.09,162.054 1586.31,162.051 1596.53,162.05 1606.75,162.049 1616.97,162.048 1627.19,162.048 1637.41,162.048 1647.63,162.047 1657.85,162.047 1668.07,162.047 1678.29,162.047 1688.5,162.047 1698.72,162.047 1708.94,162.047 1719.16,162.047 1729.38,162.047 1739.6,162.047 1749.82,162.047 1760.04,162.047 1770.26,162.047 1780.48,162.047 1790.7,162.047 1800.92,162.047 1811.14,162.047 1821.35,162.047 1831.57,162.047 1841.79,162.047 1852.01,162.047 1862.23,162.047 1872.45,162.047 1882.67,162.047 1892.89,162.047 1903.11,162.047 1913.33,162.047 1923.55,162.047 1933.77,162.047 1943.99,162.047 1954.2,162.047 1964.42,162.047 1974.64,162.047 1984.86,162.047 1995.08,162.047 2005.3,162.047 2015.52,162.047 2025.74,162.047 2035.96,162.047 2046.18,162.047 2056.4,162.047 2066.62,162.047 2076.84,162.047 2087.06,162.047 2097.27,162.047 2107.49,162.047 2117.71,162.047 2127.93,162.047 2138.15,162.047 2148.37,162.047 2158.59,162.047 2168.81,162.047 2179.03,162.047 2189.25,162.047 2199.47,162.047 2209.69,162.047 2219.91,162.047 2230.12,162.047 2240.34,162.047 2250.56,162.047 2260.78,162.047 2271,162.047 2281.22,162.047 "/>
<polyline clip-path="url(#clip382)" style="stroke:#e26f46; stroke-linecap:round; stroke-linejoin:round; stroke-width:4; stroke-opacity:1; fill:none" points="247.59,162.047 257.809,162.128 268.028,162.203 278.247,162.274 288.467,162.34 298.686,162.402 308.905,162.46 319.124,162.514 329.344,162.565 339.563,162.613 349.782,162.658 360.001,162.699 370.221,162.739 380.44,162.775 390.659,162.81 400.878,162.842 411.098,162.872 421.317,162.9 431.536,162.926 441.755,162.951 451.975,162.974 462.194,162.996 472.413,163.016 482.632,163.035 492.852,163.053 503.071,163.07 513.29,163.085 523.509,163.1 533.729,163.114 543.948,163.126 554.167,163.138 564.386,163.15 574.606,163.16 584.825,163.17 595.044,163.179 605.263,163.188 615.483,163.196 625.702,163.203 635.921,163.211 646.14,163.217 656.36,163.223 666.579,163.229 676.798,163.235 687.017,163.24 697.237,163.245 707.456,163.249 717.675,163.253 727.894,163.257 738.114,163.261 748.333,163.264 758.552,163.268 768.771,163.271 778.991,163.273 789.21,163.276 799.429,163.278 809.649,163.281 819.868,163.283 830.087,163.285 840.306,163.287 850.526,163.289 860.745,163.29 870.964,163.292 881.183,163.294 891.403,163.295 901.622,163.296 911.841,163.298 922.06,163.299 932.28,163.3 942.499,163.302 952.718,163.303 962.937,163.305 973.157,163.308 983.376,163.311 993.595,163.316 1003.81,163.322 1014.03,163.332 1024.25,163.347 1034.47,163.369 1044.69,163.402 1054.91,163.453 1065.13,163.53 1075.35,163.648 1085.57,163.828 1095.79,164.103 1106.01,164.524 1116.23,165.165 1126.45,166.143 1136.66,167.63 1146.88,169.884 1157.1,173.284 1167.32,178.374 1177.54,185.91 1187.76,196.889 1197.98,212.524 1208.2,234.109 1218.42,262.738 1228.64,298.91 1238.86,342.212 1249.08,391.294 1259.3,444.207 1269.51,498.913 1279.73,553.677 1289.95,607.241 1300.17,658.806 1310.39,707.932 1320.61,754.424 1330.83,798.239 1341.05,839.428 1351.27,878.087 1361.49,914.337 1371.71,948.311 1381.93,980.139 1392.15,1009.95 1402.37,1037.87 1412.58,1064.02 1422.8,1088.51 1433.02,1111.44 1443.24,1132.92 1453.46,1153.02 1463.68,1171.85 1473.9,1189.49 1484.12,1206 1494.34,1221.46 1504.56,1235.94 1514.78,1249.5 1525,1262.19 1535.22,1274.08 1545.43,1285.21 1555.65,1295.64 1565.87,1305.4 1576.09,1314.54 1586.31,1323.1 1596.53,1331.11 1606.75,1338.62 1616.97,1345.65 1627.19,1352.23 1637.41,1358.39 1647.63,1364.16 1657.85,1369.56 1668.07,1374.62 1678.29,1379.36 1688.5,1383.8 1698.72,1387.96 1708.94,1391.85 1719.16,1395.49 1729.38,1398.9 1739.6,1402.1 1749.82,1405.09 1760.04,1407.89 1770.26,1410.51 1780.48,1412.97 1790.7,1415.27 1800.92,1417.42 1811.14,1419.44 1821.35,1421.33 1831.57,1423.1 1841.79,1424.75 1852.01,1426.3 1862.23,1427.76 1872.45,1429.12 1882.67,1430.39 1892.89,1431.58 1903.11,1432.7 1913.33,1433.74 1923.55,1434.72 1933.77,1435.64 1943.99,1436.5 1954.2,1437.3 1964.42,1438.06 1974.64,1438.76 1984.86,1439.42 1995.08,1440.04 2005.3,1440.62 2015.52,1441.16 2025.74,1441.67 2035.96,1442.14 2046.18,1442.59 2056.4,1443 2066.62,1443.39 2076.84,1443.76 2087.06,1444.1 2097.27,1444.42 2107.49,1444.72 2117.71,1445 2127.93,1445.27 2138.15,1445.51 2148.37,1445.74 2158.59,1445.96 2168.81,1446.16 2179.03,1446.35 2189.25,1446.53 2199.47,1446.69 2209.69,1446.85 2219.91,1447 2230.12,1447.13 2240.34,1447.26 2250.56,1447.38 2260.78,1447.49 2271,1447.6 2281.22,1447.7 2291.44,1447.79 "/>
<path clip-path="url(#clip380)" d="M2038.66 324.425 L2280.54 324.425 L2280.54 168.905 L2038.66 168.905  Z" fill="#ffffff" fill-rule="evenodd" fill-opacity="1"/>
<polyline clip-path="url(#clip380)" style="stroke:#000000; stroke-linecap:round; stroke-linejoin:round; stroke-width:4; stroke-opacity:1; fill:none" points="2038.66,324.425 2280.54,324.425 2280.54,168.905 2038.66,168.905 2038.66,324.425 "/>
<polyline clip-path="url(#clip380)" style="stroke:#009af9; stroke-linecap:round; stroke-linejoin:round; stroke-width:4; stroke-opacity:1; fill:none" points="2062.73,220.745 2207.16,220.745 "/>
<path clip-path="url(#clip380)" d="M2231.24 227.793 L2231.24 212.099 L2235.5 212.099 L2235.5 227.631 Q2235.5 231.312 2236.93 233.164 Q2238.37 234.992 2241.24 234.992 Q2244.69 234.992 2246.68 232.793 Q2248.69 230.594 2248.69 226.798 L2248.69 212.099 L2252.95 212.099 L2252.95 238.025 L2248.69 238.025 L2248.69 234.043 Q2247.14 236.404 2245.08 237.562 Q2243.04 238.696 2240.33 238.696 Q2235.87 238.696 2233.55 235.918 Q2231.24 233.14 2231.24 227.793 M2241.95 211.474 L2241.95 211.474 Z" fill="#000000" fill-rule="nonzero" fill-opacity="1" /><polyline clip-path="url(#clip380)" style="stroke:#e26f46; stroke-linecap:round; stroke-linejoin:round; stroke-width:4; stroke-opacity:1; fill:none" points="2062.73,272.585 2207.16,272.585 "/>
<path clip-path="url(#clip380)" d="M2231.24 263.939 L2235.75 263.939 L2243.85 285.698 L2251.95 263.939 L2256.47 263.939 L2246.75 289.865 L2240.96 289.865 L2231.24 263.939 Z" fill="#000000" fill-rule="nonzero" fill-opacity="1" /></svg>
