<?xml version="1.0" encoding="utf-8"?>
<svg xmlns="http://www.w3.org/2000/svg" xmlns:xlink="http://www.w3.org/1999/xlink" width="600" height="400" viewBox="0 0 2400 1600">
<defs>
  <clipPath id="clip050">
    <rect x="0" y="0" width="2400" height="1600"/>
  </clipPath>
</defs>
<path clip-path="url(#clip050)" d="M0 1600 L2400 1600 L2400 0 L0 0  Z" fill="#ffffff" fill-rule="evenodd" fill-opacity="1"/>
<defs>
  <clipPath id="clip051">
    <rect x="279" y="47" width="2074" height="1377"/>
  </clipPath>
</defs>
<path clip-path="url(#clip050)" d="M279.704 1423.18 L2352.76 1423.18 L2352.76 47.2441 L279.704 47.2441  Z" fill="#ffffff" fill-rule="evenodd" fill-opacity="1"/>
<polyline clip-path="url(#clip051)" style="stroke:#000000; stroke-linecap:round; stroke-linejoin:round; stroke-width:2; stroke-opacity:0.1; fill:none" points="399.324,1423.18 399.324,47.2441 "/>
<polyline clip-path="url(#clip051)" style="stroke:#000000; stroke-linecap:round; stroke-linejoin:round; stroke-width:2; stroke-opacity:0.1; fill:none" points="811.258,1423.18 811.258,47.2441 "/>
<polyline clip-path="url(#clip051)" style="stroke:#000000; stroke-linecap:round; stroke-linejoin:round; stroke-width:2; stroke-opacity:0.1; fill:none" points="1223.19,1423.18 1223.19,47.2441 "/>
<polyline clip-path="url(#clip051)" style="stroke:#000000; stroke-linecap:round; stroke-linejoin:round; stroke-width:2; stroke-opacity:0.1; fill:none" points="1635.13,1423.18 1635.13,47.2441 "/>
<polyline clip-path="url(#clip051)" style="stroke:#000000; stroke-linecap:round; stroke-linejoin:round; stroke-width:2; stroke-opacity:0.1; fill:none" points="2047.06,1423.18 2047.06,47.2441 "/>
<polyline clip-path="url(#clip051)" style="stroke:#000000; stroke-linecap:round; stroke-linejoin:round; stroke-width:2; stroke-opacity:0.1; fill:none" points="279.704,1164.26 2352.76,1164.26 "/>
<polyline clip-path="url(#clip051)" style="stroke:#000000; stroke-linecap:round; stroke-linejoin:round; stroke-width:2; stroke-opacity:0.1; fill:none" points="279.704,887.457 2352.76,887.457 "/>
<polyline clip-path="url(#clip051)" style="stroke:#000000; stroke-linecap:round; stroke-linejoin:round; stroke-width:2; stroke-opacity:0.1; fill:none" points="279.704,610.654 2352.76,610.654 "/>
<polyline clip-path="url(#clip051)" style="stroke:#000000; stroke-linecap:round; stroke-linejoin:round; stroke-width:2; stroke-opacity:0.1; fill:none" points="279.704,333.851 2352.76,333.851 "/>
<polyline clip-path="url(#clip051)" style="stroke:#000000; stroke-linecap:round; stroke-linejoin:round; stroke-width:2; stroke-opacity:0.1; fill:none" points="279.704,57.0476 2352.76,57.0476 "/>
<polyline clip-path="url(#clip050)" style="stroke:#000000; stroke-linecap:round; stroke-linejoin:round; stroke-width:4; stroke-opacity:1; fill:none" points="279.704,1423.18 2352.76,1423.18 "/>
<polyline clip-path="url(#clip050)" style="stroke:#000000; stroke-linecap:round; stroke-linejoin:round; stroke-width:4; stroke-opacity:1; fill:none" points="399.324,1423.18 399.324,1404.28 "/>
<polyline clip-path="url(#clip050)" style="stroke:#000000; stroke-linecap:round; stroke-linejoin:round; stroke-width:4; stroke-opacity:1; fill:none" points="811.258,1423.18 811.258,1404.28 "/>
<polyline clip-path="url(#clip050)" style="stroke:#000000; stroke-linecap:round; stroke-linejoin:round; stroke-width:4; stroke-opacity:1; fill:none" points="1223.19,1423.18 1223.19,1404.28 "/>
<polyline clip-path="url(#clip050)" style="stroke:#000000; stroke-linecap:round; stroke-linejoin:round; stroke-width:4; stroke-opacity:1; fill:none" points="1635.13,1423.18 1635.13,1404.28 "/>
<polyline clip-path="url(#clip050)" style="stroke:#000000; stroke-linecap:round; stroke-linejoin:round; stroke-width:4; stroke-opacity:1; fill:none" points="2047.06,1423.18 2047.06,1404.28 "/>
<path clip-path="url(#clip050)" d="M347.044 1454.1 Q343.433 1454.1 341.604 1457.66 Q339.799 1461.2 339.799 1468.33 Q339.799 1475.44 341.604 1479.01 Q343.433 1482.55 347.044 1482.55 Q350.679 1482.55 352.484 1479.01 Q354.313 1475.44 354.313 1468.33 Q354.313 1461.2 352.484 1457.66 Q350.679 1454.1 347.044 1454.1 M347.044 1450.39 Q352.854 1450.39 355.91 1455 Q358.989 1459.58 358.989 1468.33 Q358.989 1477.06 355.91 1481.67 Q352.854 1486.25 347.044 1486.25 Q341.234 1486.25 338.155 1481.67 Q335.1 1477.06 335.1 1468.33 Q335.1 1459.58 338.155 1455 Q341.234 1450.39 347.044 1450.39 Z" fill="#000000" fill-rule="nonzero" fill-opacity="1" /><path clip-path="url(#clip050)" d="M367.206 1479.7 L372.09 1479.7 L372.09 1485.58 L367.206 1485.58 L367.206 1479.7 Z" fill="#000000" fill-rule="nonzero" fill-opacity="1" /><path clip-path="url(#clip050)" d="M386.303 1481.64 L402.623 1481.64 L402.623 1485.58 L380.678 1485.58 L380.678 1481.64 Q383.34 1478.89 387.924 1474.26 Q392.53 1469.61 393.711 1468.27 Q395.956 1465.74 396.836 1464.01 Q397.738 1462.25 397.738 1460.56 Q397.738 1457.8 395.794 1456.07 Q393.873 1454.33 390.771 1454.33 Q388.572 1454.33 386.118 1455.09 Q383.688 1455.86 380.91 1457.41 L380.91 1452.69 Q383.734 1451.55 386.188 1450.97 Q388.641 1450.39 390.678 1450.39 Q396.049 1450.39 399.243 1453.08 Q402.437 1455.77 402.437 1460.26 Q402.437 1462.39 401.627 1464.31 Q400.84 1466.2 398.734 1468.8 Q398.155 1469.47 395.053 1472.69 Q391.951 1475.88 386.303 1481.64 Z" fill="#000000" fill-rule="nonzero" fill-opacity="1" /><path clip-path="url(#clip050)" d="M416.465 1481.64 L432.785 1481.64 L432.785 1485.58 L410.84 1485.58 L410.84 1481.64 Q413.502 1478.89 418.086 1474.26 Q422.692 1469.61 423.873 1468.27 Q426.118 1465.74 426.998 1464.01 Q427.9 1462.25 427.9 1460.56 Q427.9 1457.8 425.956 1456.07 Q424.035 1454.33 420.933 1454.33 Q418.734 1454.33 416.28 1455.09 Q413.849 1455.86 411.072 1457.41 L411.072 1452.69 Q413.896 1451.55 416.349 1450.97 Q418.803 1450.39 420.84 1450.39 Q426.211 1450.39 429.405 1453.08 Q432.599 1455.77 432.599 1460.26 Q432.599 1462.39 431.789 1464.31 Q431.002 1466.2 428.896 1468.8 Q428.317 1469.47 425.215 1472.69 Q422.113 1475.88 416.465 1481.64 Z" fill="#000000" fill-rule="nonzero" fill-opacity="1" /><path clip-path="url(#clip050)" d="M442.646 1451.02 L461.002 1451.02 L461.002 1454.96 L446.928 1454.96 L446.928 1463.43 Q447.947 1463.08 448.965 1462.92 Q449.984 1462.73 451.002 1462.73 Q456.789 1462.73 460.169 1465.9 Q463.548 1469.08 463.548 1474.49 Q463.548 1480.07 460.076 1483.17 Q456.604 1486.25 450.284 1486.25 Q448.109 1486.25 445.84 1485.88 Q443.595 1485.51 441.187 1484.77 L441.187 1480.07 Q443.271 1481.2 445.493 1481.76 Q447.715 1482.32 450.192 1482.32 Q454.196 1482.32 456.534 1480.21 Q458.872 1478.1 458.872 1474.49 Q458.872 1470.88 456.534 1468.77 Q454.196 1466.67 450.192 1466.67 Q448.317 1466.67 446.442 1467.08 Q444.59 1467.5 442.646 1468.38 L442.646 1451.02 Z" fill="#000000" fill-rule="nonzero" fill-opacity="1" /><path clip-path="url(#clip050)" d="M758.481 1454.1 Q754.87 1454.1 753.041 1457.66 Q751.235 1461.2 751.235 1468.33 Q751.235 1475.44 753.041 1479.01 Q754.87 1482.55 758.481 1482.55 Q762.115 1482.55 763.921 1479.01 Q765.749 1475.44 765.749 1468.33 Q765.749 1461.2 763.921 1457.66 Q762.115 1454.1 758.481 1454.1 M758.481 1450.39 Q764.291 1450.39 767.346 1455 Q770.425 1459.58 770.425 1468.33 Q770.425 1477.06 767.346 1481.67 Q764.291 1486.25 758.481 1486.25 Q752.671 1486.25 749.592 1481.67 Q746.536 1477.06 746.536 1468.33 Q746.536 1459.58 749.592 1455 Q752.671 1450.39 758.481 1450.39 Z" fill="#000000" fill-rule="nonzero" fill-opacity="1" /><path clip-path="url(#clip050)" d="M778.643 1479.7 L783.527 1479.7 L783.527 1485.58 L778.643 1485.58 L778.643 1479.7 Z" fill="#000000" fill-rule="nonzero" fill-opacity="1" /><path clip-path="url(#clip050)" d="M797.74 1481.64 L814.059 1481.64 L814.059 1485.58 L792.115 1485.58 L792.115 1481.64 Q794.777 1478.89 799.36 1474.26 Q803.967 1469.61 805.147 1468.27 Q807.393 1465.74 808.272 1464.01 Q809.175 1462.25 809.175 1460.56 Q809.175 1457.8 807.231 1456.07 Q805.309 1454.33 802.207 1454.33 Q800.008 1454.33 797.555 1455.09 Q795.124 1455.86 792.346 1457.41 L792.346 1452.69 Q795.17 1451.55 797.624 1450.97 Q800.078 1450.39 802.115 1450.39 Q807.485 1450.39 810.68 1453.08 Q813.874 1455.77 813.874 1460.26 Q813.874 1462.39 813.064 1464.31 Q812.277 1466.2 810.17 1468.8 Q809.592 1469.47 806.49 1472.69 Q803.388 1475.88 797.74 1481.64 Z" fill="#000000" fill-rule="nonzero" fill-opacity="1" /><path clip-path="url(#clip050)" d="M823.92 1451.02 L842.277 1451.02 L842.277 1454.96 L828.203 1454.96 L828.203 1463.43 Q829.221 1463.08 830.24 1462.92 Q831.258 1462.73 832.277 1462.73 Q838.064 1462.73 841.443 1465.9 Q844.823 1469.08 844.823 1474.49 Q844.823 1480.07 841.351 1483.17 Q837.879 1486.25 831.559 1486.25 Q829.383 1486.25 827.115 1485.88 Q824.869 1485.51 822.462 1484.77 L822.462 1480.07 Q824.545 1481.2 826.767 1481.76 Q828.99 1482.32 831.467 1482.32 Q835.471 1482.32 837.809 1480.21 Q840.147 1478.1 840.147 1474.49 Q840.147 1470.88 837.809 1468.77 Q835.471 1466.67 831.467 1466.67 Q829.592 1466.67 827.717 1467.08 Q825.865 1467.5 823.92 1468.38 L823.92 1451.02 Z" fill="#000000" fill-rule="nonzero" fill-opacity="1" /><path clip-path="url(#clip050)" d="M864.036 1454.1 Q860.425 1454.1 858.596 1457.66 Q856.79 1461.2 856.79 1468.33 Q856.79 1475.44 858.596 1479.01 Q860.425 1482.55 864.036 1482.55 Q867.67 1482.55 869.476 1479.01 Q871.304 1475.44 871.304 1468.33 Q871.304 1461.2 869.476 1457.66 Q867.67 1454.1 864.036 1454.1 M864.036 1450.39 Q869.846 1450.39 872.901 1455 Q875.98 1459.58 875.98 1468.33 Q875.98 1477.06 872.901 1481.67 Q869.846 1486.25 864.036 1486.25 Q858.226 1486.25 855.147 1481.67 Q852.091 1477.06 852.091 1468.33 Q852.091 1459.58 855.147 1455 Q858.226 1450.39 864.036 1450.39 Z" fill="#000000" fill-rule="nonzero" fill-opacity="1" /><path clip-path="url(#clip050)" d="M1170.91 1454.1 Q1167.3 1454.1 1165.47 1457.66 Q1163.67 1461.2 1163.67 1468.33 Q1163.67 1475.44 1165.47 1479.01 Q1167.3 1482.55 1170.91 1482.55 Q1174.55 1482.55 1176.35 1479.01 Q1178.18 1475.44 1178.18 1468.33 Q1178.18 1461.2 1176.35 1457.66 Q1174.55 1454.1 1170.91 1454.1 M1170.91 1450.39 Q1176.72 1450.39 1179.78 1455 Q1182.86 1459.58 1182.86 1468.33 Q1182.86 1477.06 1179.78 1481.67 Q1176.72 1486.25 1170.91 1486.25 Q1165.1 1486.25 1162.02 1481.67 Q1158.97 1477.06 1158.97 1468.33 Q1158.97 1459.58 1162.02 1455 Q1165.1 1450.39 1170.91 1450.39 Z" fill="#000000" fill-rule="nonzero" fill-opacity="1" /><path clip-path="url(#clip050)" d="M1191.07 1479.7 L1195.96 1479.7 L1195.96 1485.58 L1191.07 1485.58 L1191.07 1479.7 Z" fill="#000000" fill-rule="nonzero" fill-opacity="1" /><path clip-path="url(#clip050)" d="M1210.17 1481.64 L1226.49 1481.64 L1226.49 1485.58 L1204.55 1485.58 L1204.55 1481.64 Q1207.21 1478.89 1211.79 1474.26 Q1216.4 1469.61 1217.58 1468.27 Q1219.82 1465.74 1220.7 1464.01 Q1221.61 1462.25 1221.61 1460.56 Q1221.61 1457.8 1219.66 1456.07 Q1217.74 1454.33 1214.64 1454.33 Q1212.44 1454.33 1209.99 1455.09 Q1207.56 1455.86 1204.78 1457.41 L1204.78 1452.69 Q1207.6 1451.55 1210.06 1450.97 Q1212.51 1450.39 1214.55 1450.39 Q1219.92 1450.39 1223.11 1453.08 Q1226.31 1455.77 1226.31 1460.26 Q1226.31 1462.39 1225.5 1464.31 Q1224.71 1466.2 1222.6 1468.8 Q1222.02 1469.47 1218.92 1472.69 Q1215.82 1475.88 1210.17 1481.64 Z" fill="#000000" fill-rule="nonzero" fill-opacity="1" /><path clip-path="url(#clip050)" d="M1235.13 1451.02 L1257.35 1451.02 L1257.35 1453.01 L1244.8 1485.58 L1239.92 1485.58 L1251.72 1454.96 L1235.13 1454.96 L1235.13 1451.02 Z" fill="#000000" fill-rule="nonzero" fill-opacity="1" /><path clip-path="url(#clip050)" d="M1266.51 1451.02 L1284.87 1451.02 L1284.87 1454.96 L1270.8 1454.96 L1270.8 1463.43 Q1271.81 1463.08 1272.83 1462.92 Q1273.85 1462.73 1274.87 1462.73 Q1280.66 1462.73 1284.04 1465.9 Q1287.42 1469.08 1287.42 1474.49 Q1287.42 1480.07 1283.94 1483.17 Q1280.47 1486.25 1274.15 1486.25 Q1271.98 1486.25 1269.71 1485.88 Q1267.46 1485.51 1265.06 1484.77 L1265.06 1480.07 Q1267.14 1481.2 1269.36 1481.76 Q1271.58 1482.32 1274.06 1482.32 Q1278.06 1482.32 1280.4 1480.21 Q1282.74 1478.1 1282.74 1474.49 Q1282.74 1470.88 1280.4 1468.77 Q1278.06 1466.67 1274.06 1466.67 Q1272.19 1466.67 1270.31 1467.08 Q1268.46 1467.5 1266.51 1468.38 L1266.51 1451.02 Z" fill="#000000" fill-rule="nonzero" fill-opacity="1" /><path clip-path="url(#clip050)" d="M1582.35 1454.1 Q1578.74 1454.1 1576.91 1457.66 Q1575.1 1461.2 1575.1 1468.33 Q1575.1 1475.44 1576.91 1479.01 Q1578.74 1482.55 1582.35 1482.55 Q1585.98 1482.55 1587.79 1479.01 Q1589.62 1475.44 1589.62 1468.33 Q1589.62 1461.2 1587.79 1457.66 Q1585.98 1454.1 1582.35 1454.1 M1582.35 1450.39 Q1588.16 1450.39 1591.21 1455 Q1594.29 1459.58 1594.29 1468.33 Q1594.29 1477.06 1591.21 1481.67 Q1588.16 1486.25 1582.35 1486.25 Q1576.54 1486.25 1573.46 1481.67 Q1570.4 1477.06 1570.4 1468.33 Q1570.4 1459.58 1573.46 1455 Q1576.54 1450.39 1582.35 1450.39 Z" fill="#000000" fill-rule="nonzero" fill-opacity="1" /><path clip-path="url(#clip050)" d="M1602.51 1479.7 L1607.4 1479.7 L1607.4 1485.58 L1602.51 1485.58 L1602.51 1479.7 Z" fill="#000000" fill-rule="nonzero" fill-opacity="1" /><path clip-path="url(#clip050)" d="M1631.75 1466.95 Q1635.1 1467.66 1636.98 1469.93 Q1638.88 1472.2 1638.88 1475.53 Q1638.88 1480.65 1635.36 1483.45 Q1631.84 1486.25 1625.36 1486.25 Q1623.18 1486.25 1620.87 1485.81 Q1618.58 1485.39 1616.12 1484.54 L1616.12 1480.02 Q1618.07 1481.16 1620.38 1481.74 Q1622.7 1482.32 1625.22 1482.32 Q1629.62 1482.32 1631.91 1480.58 Q1634.22 1478.84 1634.22 1475.53 Q1634.22 1472.48 1632.07 1470.77 Q1629.94 1469.03 1626.12 1469.03 L1622.09 1469.03 L1622.09 1465.19 L1626.31 1465.19 Q1629.76 1465.19 1631.59 1463.82 Q1633.41 1462.43 1633.41 1459.84 Q1633.41 1457.18 1631.52 1455.77 Q1629.64 1454.33 1626.12 1454.33 Q1624.2 1454.33 1622 1454.75 Q1619.8 1455.16 1617.16 1456.04 L1617.16 1451.88 Q1619.83 1451.14 1622.14 1450.77 Q1624.48 1450.39 1626.54 1450.39 Q1631.86 1450.39 1634.96 1452.83 Q1638.07 1455.23 1638.07 1459.35 Q1638.07 1462.22 1636.42 1464.21 Q1634.78 1466.18 1631.75 1466.95 Z" fill="#000000" fill-rule="nonzero" fill-opacity="1" /><path clip-path="url(#clip050)" d="M1657.74 1454.1 Q1654.13 1454.1 1652.3 1457.66 Q1650.5 1461.2 1650.5 1468.33 Q1650.5 1475.44 1652.3 1479.01 Q1654.13 1482.55 1657.74 1482.55 Q1661.38 1482.55 1663.18 1479.01 Q1665.01 1475.44 1665.01 1468.33 Q1665.01 1461.2 1663.18 1457.66 Q1661.38 1454.1 1657.74 1454.1 M1657.74 1450.39 Q1663.55 1450.39 1666.61 1455 Q1669.69 1459.58 1669.69 1468.33 Q1669.69 1477.06 1666.61 1481.67 Q1663.55 1486.25 1657.74 1486.25 Q1651.93 1486.25 1648.85 1481.67 Q1645.8 1477.06 1645.8 1468.33 Q1645.8 1459.58 1648.85 1455 Q1651.93 1450.39 1657.74 1450.39 Z" fill="#000000" fill-rule="nonzero" fill-opacity="1" /><path clip-path="url(#clip050)" d="M1687.9 1454.1 Q1684.29 1454.1 1682.46 1457.66 Q1680.66 1461.2 1680.66 1468.33 Q1680.66 1475.44 1682.46 1479.01 Q1684.29 1482.55 1687.9 1482.55 Q1691.54 1482.55 1693.34 1479.01 Q1695.17 1475.44 1695.17 1468.33 Q1695.17 1461.2 1693.34 1457.66 Q1691.54 1454.1 1687.9 1454.1 M1687.9 1450.39 Q1693.71 1450.39 1696.77 1455 Q1699.85 1459.58 1699.85 1468.33 Q1699.85 1477.06 1696.77 1481.67 Q1693.71 1486.25 1687.9 1486.25 Q1682.09 1486.25 1679.02 1481.67 Q1675.96 1477.06 1675.96 1468.33 Q1675.96 1459.58 1679.02 1455 Q1682.09 1450.39 1687.9 1450.39 Z" fill="#000000" fill-rule="nonzero" fill-opacity="1" /><path clip-path="url(#clip050)" d="M1994.78 1454.1 Q1991.17 1454.1 1989.34 1457.66 Q1987.54 1461.2 1987.54 1468.33 Q1987.54 1475.44 1989.34 1479.01 Q1991.17 1482.55 1994.78 1482.55 Q1998.42 1482.55 2000.22 1479.01 Q2002.05 1475.44 2002.05 1468.33 Q2002.05 1461.2 2000.22 1457.66 Q1998.42 1454.1 1994.78 1454.1 M1994.78 1450.39 Q2000.59 1450.39 2003.65 1455 Q2006.73 1459.58 2006.73 1468.33 Q2006.73 1477.06 2003.65 1481.67 Q2000.59 1486.25 1994.78 1486.25 Q1988.97 1486.25 1985.89 1481.67 Q1982.84 1477.06 1982.84 1468.33 Q1982.84 1459.58 1985.89 1455 Q1988.97 1450.39 1994.78 1450.39 Z" fill="#000000" fill-rule="nonzero" fill-opacity="1" /><path clip-path="url(#clip050)" d="M2014.94 1479.7 L2019.83 1479.7 L2019.83 1485.58 L2014.94 1485.58 L2014.94 1479.7 Z" fill="#000000" fill-rule="nonzero" fill-opacity="1" /><path clip-path="url(#clip050)" d="M2044.18 1466.95 Q2047.54 1467.66 2049.41 1469.93 Q2051.31 1472.2 2051.31 1475.53 Q2051.31 1480.65 2047.79 1483.45 Q2044.27 1486.25 2037.79 1486.25 Q2035.61 1486.25 2033.3 1485.81 Q2031.01 1485.39 2028.55 1484.54 L2028.55 1480.02 Q2030.5 1481.16 2032.81 1481.74 Q2035.13 1482.32 2037.65 1482.32 Q2042.05 1482.32 2044.34 1480.58 Q2046.66 1478.84 2046.66 1475.53 Q2046.66 1472.48 2044.5 1470.77 Q2042.37 1469.03 2038.55 1469.03 L2034.53 1469.03 L2034.53 1465.19 L2038.74 1465.19 Q2042.19 1465.19 2044.02 1463.82 Q2045.85 1462.43 2045.85 1459.84 Q2045.85 1457.18 2043.95 1455.77 Q2042.07 1454.33 2038.55 1454.33 Q2036.63 1454.33 2034.43 1454.75 Q2032.23 1455.16 2029.6 1456.04 L2029.6 1451.88 Q2032.26 1451.14 2034.57 1450.77 Q2036.91 1450.39 2038.97 1450.39 Q2044.29 1450.39 2047.4 1452.83 Q2050.5 1455.23 2050.5 1459.35 Q2050.5 1462.22 2048.85 1464.21 Q2047.21 1466.18 2044.18 1466.95 Z" fill="#000000" fill-rule="nonzero" fill-opacity="1" /><path clip-path="url(#clip050)" d="M2064.2 1481.64 L2080.52 1481.64 L2080.52 1485.58 L2058.58 1485.58 L2058.58 1481.64 Q2061.24 1478.89 2065.82 1474.26 Q2070.43 1469.61 2071.61 1468.27 Q2073.85 1465.74 2074.73 1464.01 Q2075.64 1462.25 2075.64 1460.56 Q2075.64 1457.8 2073.69 1456.07 Q2071.77 1454.33 2068.67 1454.33 Q2066.47 1454.33 2064.02 1455.09 Q2061.59 1455.86 2058.81 1457.41 L2058.81 1452.69 Q2061.63 1451.55 2064.09 1450.97 Q2066.54 1450.39 2068.58 1450.39 Q2073.95 1450.39 2077.14 1453.08 Q2080.34 1455.77 2080.34 1460.26 Q2080.34 1462.39 2079.53 1464.31 Q2078.74 1466.2 2076.63 1468.8 Q2076.05 1469.47 2072.95 1472.69 Q2069.85 1475.88 2064.2 1481.64 Z" fill="#000000" fill-rule="nonzero" fill-opacity="1" /><path clip-path="url(#clip050)" d="M2090.38 1451.02 L2108.74 1451.02 L2108.74 1454.96 L2094.66 1454.96 L2094.66 1463.43 Q2095.68 1463.08 2096.7 1462.92 Q2097.72 1462.73 2098.74 1462.73 Q2104.53 1462.73 2107.91 1465.9 Q2111.29 1469.08 2111.29 1474.49 Q2111.29 1480.07 2107.81 1483.17 Q2104.34 1486.25 2098.02 1486.25 Q2095.85 1486.25 2093.58 1485.88 Q2091.33 1485.51 2088.92 1484.77 L2088.92 1480.07 Q2091.01 1481.2 2093.23 1481.76 Q2095.45 1482.32 2097.93 1482.32 Q2101.93 1482.32 2104.27 1480.21 Q2106.61 1478.1 2106.61 1474.49 Q2106.61 1470.88 2104.27 1468.77 Q2101.93 1466.67 2097.93 1466.67 Q2096.05 1466.67 2094.18 1467.08 Q2092.33 1467.5 2090.38 1468.38 L2090.38 1451.02 Z" fill="#000000" fill-rule="nonzero" fill-opacity="1" /><path clip-path="url(#clip050)" d="M1305.74 1550.25 Q1305.74 1543.79 1303.07 1540.13 Q1300.43 1536.44 1295.78 1536.44 Q1291.13 1536.44 1288.46 1540.13 Q1285.82 1543.79 1285.82 1550.25 Q1285.82 1556.71 1288.46 1560.4 Q1291.13 1564.07 1295.78 1564.07 Q1300.43 1564.07 1303.07 1560.4 Q1305.74 1556.71 1305.74 1550.25 M1285.82 1537.81 Q1287.66 1534.62 1290.46 1533.1 Q1293.3 1531.54 1297.21 1531.54 Q1303.71 1531.54 1307.75 1536.69 Q1311.82 1541.85 1311.82 1550.25 Q1311.82 1558.65 1307.75 1563.81 Q1303.71 1568.97 1297.21 1568.97 Q1293.3 1568.97 1290.46 1567.44 Q1287.66 1565.88 1285.82 1562.7 L1285.82 1568.04 L1279.93 1568.04 L1279.93 1518.52 L1285.82 1518.52 L1285.82 1537.81 Z" fill="#000000" fill-rule="nonzero" fill-opacity="1" /><path clip-path="url(#clip050)" d="M1336.11 1524.76 Q1331.14 1524.76 1328.63 1529.66 Q1326.14 1534.53 1326.14 1544.33 Q1326.14 1554.1 1328.63 1559 Q1331.14 1563.87 1336.11 1563.87 Q1341.1 1563.87 1343.59 1559 Q1346.1 1554.1 1346.1 1544.33 Q1346.1 1534.53 1343.59 1529.66 Q1341.1 1524.76 1336.11 1524.76 M1336.11 1519.66 Q1344.1 1519.66 1348.3 1526 Q1352.53 1532.3 1352.53 1544.33 Q1352.53 1556.33 1348.3 1562.66 Q1344.1 1568.97 1336.11 1568.97 Q1328.12 1568.97 1323.88 1562.66 Q1319.68 1556.33 1319.68 1544.33 Q1319.68 1532.3 1323.88 1526 Q1328.12 1519.66 1336.11 1519.66 Z" fill="#000000" fill-rule="nonzero" fill-opacity="1" /><polyline clip-path="url(#clip050)" style="stroke:#000000; stroke-linecap:round; stroke-linejoin:round; stroke-width:4; stroke-opacity:1; fill:none" points="279.704,1423.18 279.704,47.2441 "/>
<polyline clip-path="url(#clip050)" style="stroke:#000000; stroke-linecap:round; stroke-linejoin:round; stroke-width:4; stroke-opacity:1; fill:none" points="279.704,1164.26 298.602,1164.26 "/>
<polyline clip-path="url(#clip050)" style="stroke:#000000; stroke-linecap:round; stroke-linejoin:round; stroke-width:4; stroke-opacity:1; fill:none" points="279.704,887.457 298.602,887.457 "/>
<polyline clip-path="url(#clip050)" style="stroke:#000000; stroke-linecap:round; stroke-linejoin:round; stroke-width:4; stroke-opacity:1; fill:none" points="279.704,610.654 298.602,610.654 "/>
<polyline clip-path="url(#clip050)" style="stroke:#000000; stroke-linecap:round; stroke-linejoin:round; stroke-width:4; stroke-opacity:1; fill:none" points="279.704,333.851 298.602,333.851 "/>
<polyline clip-path="url(#clip050)" style="stroke:#000000; stroke-linecap:round; stroke-linejoin:round; stroke-width:4; stroke-opacity:1; fill:none" points="279.704,57.0476 298.602,57.0476 "/>
<path clip-path="url(#clip050)" d="M127.2 1150.06 Q123.589 1150.06 121.76 1153.62 Q119.955 1157.17 119.955 1164.29 Q119.955 1171.4 121.76 1174.97 Q123.589 1178.51 127.2 1178.51 Q130.834 1178.51 132.64 1174.97 Q134.468 1171.4 134.468 1164.29 Q134.468 1157.17 132.64 1153.62 Q130.834 1150.06 127.2 1150.06 M127.2 1146.36 Q133.01 1146.36 136.066 1150.96 Q139.144 1155.54 139.144 1164.29 Q139.144 1173.02 136.066 1177.63 Q133.01 1182.21 127.2 1182.21 Q121.39 1182.21 118.311 1177.63 Q115.256 1173.02 115.256 1164.29 Q115.256 1155.54 118.311 1150.96 Q121.39 1146.36 127.2 1146.36 Z" fill="#000000" fill-rule="nonzero" fill-opacity="1" /><path clip-path="url(#clip050)" d="M147.362 1175.66 L152.246 1175.66 L152.246 1181.54 L147.362 1181.54 L147.362 1175.66 Z" fill="#000000" fill-rule="nonzero" fill-opacity="1" /><path clip-path="url(#clip050)" d="M173.01 1162.4 Q169.862 1162.4 168.01 1164.55 Q166.181 1166.7 166.181 1170.45 Q166.181 1174.18 168.01 1176.36 Q169.862 1178.51 173.01 1178.51 Q176.158 1178.51 177.987 1176.36 Q179.839 1174.18 179.839 1170.45 Q179.839 1166.7 177.987 1164.55 Q176.158 1162.4 173.01 1162.4 M182.292 1147.74 L182.292 1152 Q180.533 1151.17 178.727 1150.73 Q176.945 1150.29 175.186 1150.29 Q170.556 1150.29 168.102 1153.42 Q165.672 1156.54 165.325 1162.86 Q166.69 1160.85 168.751 1159.78 Q170.811 1158.69 173.288 1158.69 Q178.496 1158.69 181.505 1161.86 Q184.538 1165.01 184.538 1170.45 Q184.538 1175.78 181.389 1178.99 Q178.241 1182.21 173.01 1182.21 Q167.015 1182.21 163.843 1177.63 Q160.672 1173.02 160.672 1164.29 Q160.672 1156.1 164.561 1151.24 Q168.45 1146.36 175.001 1146.36 Q176.76 1146.36 178.542 1146.7 Q180.348 1147.05 182.292 1147.74 Z" fill="#000000" fill-rule="nonzero" fill-opacity="1" /><path clip-path="url(#clip050)" d="M191.413 1146.98 L213.635 1146.98 L213.635 1148.97 L201.088 1181.54 L196.204 1181.54 L208.01 1150.92 L191.413 1150.92 L191.413 1146.98 Z" fill="#000000" fill-rule="nonzero" fill-opacity="1" /><path clip-path="url(#clip050)" d="M222.801 1146.98 L241.158 1146.98 L241.158 1150.92 L227.084 1150.92 L227.084 1159.39 Q228.102 1159.04 229.121 1158.88 Q230.139 1158.69 231.158 1158.69 Q236.945 1158.69 240.324 1161.86 Q243.704 1165.04 243.704 1170.45 Q243.704 1176.03 240.232 1179.13 Q236.76 1182.21 230.44 1182.21 Q228.264 1182.21 225.996 1181.84 Q223.75 1181.47 221.343 1180.73 L221.343 1176.03 Q223.426 1177.17 225.648 1177.72 Q227.871 1178.28 230.347 1178.28 Q234.352 1178.28 236.69 1176.17 Q239.028 1174.06 239.028 1170.45 Q239.028 1166.84 236.69 1164.73 Q234.352 1162.63 230.347 1162.63 Q228.473 1162.63 226.598 1163.04 Q224.746 1163.46 222.801 1164.34 L222.801 1146.98 Z" fill="#000000" fill-rule="nonzero" fill-opacity="1" /><path clip-path="url(#clip050)" d="M126.205 873.256 Q122.593 873.256 120.765 876.821 Q118.959 880.362 118.959 887.492 Q118.959 894.598 120.765 898.163 Q122.593 901.705 126.205 901.705 Q129.839 901.705 131.644 898.163 Q133.473 894.598 133.473 887.492 Q133.473 880.362 131.644 876.821 Q129.839 873.256 126.205 873.256 M126.205 869.552 Q132.015 869.552 135.07 874.159 Q138.149 878.742 138.149 887.492 Q138.149 896.219 135.07 900.825 Q132.015 905.408 126.205 905.408 Q120.394 905.408 117.316 900.825 Q114.26 896.219 114.26 887.492 Q114.26 878.742 117.316 874.159 Q120.394 869.552 126.205 869.552 Z" fill="#000000" fill-rule="nonzero" fill-opacity="1" /><path clip-path="url(#clip050)" d="M146.366 898.857 L151.251 898.857 L151.251 904.737 L146.366 904.737 L146.366 898.857 Z" fill="#000000" fill-rule="nonzero" fill-opacity="1" /><path clip-path="url(#clip050)" d="M160.255 870.177 L182.477 870.177 L182.477 872.168 L169.931 904.737 L165.047 904.737 L176.852 874.112 L160.255 874.112 L160.255 870.177 Z" fill="#000000" fill-rule="nonzero" fill-opacity="1" /><path clip-path="url(#clip050)" d="M201.598 873.256 Q197.987 873.256 196.158 876.821 Q194.352 880.362 194.352 887.492 Q194.352 894.598 196.158 898.163 Q197.987 901.705 201.598 901.705 Q205.232 901.705 207.037 898.163 Q208.866 894.598 208.866 887.492 Q208.866 880.362 207.037 876.821 Q205.232 873.256 201.598 873.256 M201.598 869.552 Q207.408 869.552 210.463 874.159 Q213.542 878.742 213.542 887.492 Q213.542 896.219 210.463 900.825 Q207.408 905.408 201.598 905.408 Q195.787 905.408 192.709 900.825 Q189.653 896.219 189.653 887.492 Q189.653 878.742 192.709 874.159 Q195.787 869.552 201.598 869.552 Z" fill="#000000" fill-rule="nonzero" fill-opacity="1" /><path clip-path="url(#clip050)" d="M231.76 873.256 Q228.148 873.256 226.32 876.821 Q224.514 880.362 224.514 887.492 Q224.514 894.598 226.32 898.163 Q228.148 901.705 231.76 901.705 Q235.394 901.705 237.199 898.163 Q239.028 894.598 239.028 887.492 Q239.028 880.362 237.199 876.821 Q235.394 873.256 231.76 873.256 M231.76 869.552 Q237.57 869.552 240.625 874.159 Q243.704 878.742 243.704 887.492 Q243.704 896.219 240.625 900.825 Q237.57 905.408 231.76 905.408 Q225.949 905.408 222.871 900.825 Q219.815 896.219 219.815 887.492 Q219.815 878.742 222.871 874.159 Q225.949 869.552 231.76 869.552 Z" fill="#000000" fill-rule="nonzero" fill-opacity="1" /><path clip-path="url(#clip050)" d="M127.2 596.453 Q123.589 596.453 121.76 600.017 Q119.955 603.559 119.955 610.689 Q119.955 617.795 121.76 621.36 Q123.589 624.902 127.2 624.902 Q130.834 624.902 132.64 621.36 Q134.468 617.795 134.468 610.689 Q134.468 603.559 132.64 600.017 Q130.834 596.453 127.2 596.453 M127.2 592.749 Q133.01 592.749 136.066 597.355 Q139.144 601.939 139.144 610.689 Q139.144 619.415 136.066 624.022 Q133.01 628.605 127.2 628.605 Q121.39 628.605 118.311 624.022 Q115.256 619.415 115.256 610.689 Q115.256 601.939 118.311 597.355 Q121.39 592.749 127.2 592.749 Z" fill="#000000" fill-rule="nonzero" fill-opacity="1" /><path clip-path="url(#clip050)" d="M147.362 622.054 L152.246 622.054 L152.246 627.934 L147.362 627.934 L147.362 622.054 Z" fill="#000000" fill-rule="nonzero" fill-opacity="1" /><path clip-path="url(#clip050)" d="M161.251 593.374 L183.473 593.374 L183.473 595.365 L170.927 627.934 L166.042 627.934 L177.848 597.309 L161.251 597.309 L161.251 593.374 Z" fill="#000000" fill-rule="nonzero" fill-opacity="1" /><path clip-path="url(#clip050)" d="M196.621 623.999 L212.94 623.999 L212.94 627.934 L190.996 627.934 L190.996 623.999 Q193.658 621.244 198.241 616.615 Q202.848 611.962 204.028 610.619 Q206.274 608.096 207.153 606.36 Q208.056 604.601 208.056 602.911 Q208.056 600.156 206.112 598.42 Q204.19 596.684 201.088 596.684 Q198.889 596.684 196.436 597.448 Q194.005 598.212 191.227 599.763 L191.227 595.041 Q194.051 593.906 196.505 593.328 Q198.959 592.749 200.996 592.749 Q206.366 592.749 209.561 595.434 Q212.755 598.119 212.755 602.61 Q212.755 604.74 211.945 606.661 Q211.158 608.559 209.051 611.152 Q208.473 611.823 205.371 615.04 Q202.269 618.235 196.621 623.999 Z" fill="#000000" fill-rule="nonzero" fill-opacity="1" /><path clip-path="url(#clip050)" d="M222.801 593.374 L241.158 593.374 L241.158 597.309 L227.084 597.309 L227.084 605.781 Q228.102 605.434 229.121 605.272 Q230.139 605.087 231.158 605.087 Q236.945 605.087 240.324 608.258 Q243.704 611.429 243.704 616.846 Q243.704 622.425 240.232 625.526 Q236.76 628.605 230.44 628.605 Q228.264 628.605 225.996 628.235 Q223.75 627.864 221.343 627.124 L221.343 622.425 Q223.426 623.559 225.648 624.114 Q227.871 624.67 230.347 624.67 Q234.352 624.67 236.69 622.564 Q239.028 620.457 239.028 616.846 Q239.028 613.235 236.69 611.128 Q234.352 609.022 230.347 609.022 Q228.473 609.022 226.598 609.439 Q224.746 609.855 222.801 610.735 L222.801 593.374 Z" fill="#000000" fill-rule="nonzero" fill-opacity="1" /><path clip-path="url(#clip050)" d="M126.205 319.649 Q122.593 319.649 120.765 323.214 Q118.959 326.756 118.959 333.885 Q118.959 340.992 120.765 344.557 Q122.593 348.098 126.205 348.098 Q129.839 348.098 131.644 344.557 Q133.473 340.992 133.473 333.885 Q133.473 326.756 131.644 323.214 Q129.839 319.649 126.205 319.649 M126.205 315.946 Q132.015 315.946 135.07 320.552 Q138.149 325.136 138.149 333.885 Q138.149 342.612 135.07 347.219 Q132.015 351.802 126.205 351.802 Q120.394 351.802 117.316 347.219 Q114.26 342.612 114.26 333.885 Q114.26 325.136 117.316 320.552 Q120.394 315.946 126.205 315.946 Z" fill="#000000" fill-rule="nonzero" fill-opacity="1" /><path clip-path="url(#clip050)" d="M146.366 345.251 L151.251 345.251 L151.251 351.131 L146.366 351.131 L146.366 345.251 Z" fill="#000000" fill-rule="nonzero" fill-opacity="1" /><path clip-path="url(#clip050)" d="M160.255 316.571 L182.477 316.571 L182.477 318.561 L169.931 351.131 L165.047 351.131 L176.852 320.506 L160.255 320.506 L160.255 316.571 Z" fill="#000000" fill-rule="nonzero" fill-opacity="1" /><path clip-path="url(#clip050)" d="M191.644 316.571 L210 316.571 L210 320.506 L195.926 320.506 L195.926 328.978 Q196.945 328.631 197.963 328.469 Q198.982 328.284 200 328.284 Q205.787 328.284 209.167 331.455 Q212.547 334.626 212.547 340.043 Q212.547 345.622 209.074 348.723 Q205.602 351.802 199.283 351.802 Q197.107 351.802 194.838 351.432 Q192.593 351.061 190.186 350.321 L190.186 345.622 Q192.269 346.756 194.491 347.311 Q196.713 347.867 199.19 347.867 Q203.195 347.867 205.533 345.76 Q207.871 343.654 207.871 340.043 Q207.871 336.432 205.533 334.325 Q203.195 332.219 199.19 332.219 Q197.315 332.219 195.44 332.635 Q193.588 333.052 191.644 333.932 L191.644 316.571 Z" fill="#000000" fill-rule="nonzero" fill-opacity="1" /><path clip-path="url(#clip050)" d="M231.76 319.649 Q228.148 319.649 226.32 323.214 Q224.514 326.756 224.514 333.885 Q224.514 340.992 226.32 344.557 Q228.148 348.098 231.76 348.098 Q235.394 348.098 237.199 344.557 Q239.028 340.992 239.028 333.885 Q239.028 326.756 237.199 323.214 Q235.394 319.649 231.76 319.649 M231.76 315.946 Q237.57 315.946 240.625 320.552 Q243.704 325.136 243.704 333.885 Q243.704 342.612 240.625 347.219 Q237.57 351.802 231.76 351.802 Q225.949 351.802 222.871 347.219 Q219.815 342.612 219.815 333.885 Q219.815 325.136 222.871 320.552 Q225.949 315.946 231.76 315.946 Z" fill="#000000" fill-rule="nonzero" fill-opacity="1" /><path clip-path="url(#clip050)" d="M127.2 42.8463 Q123.589 42.8463 121.76 46.4111 Q119.955 49.9527 119.955 57.0823 Q119.955 64.1887 121.76 67.7535 Q123.589 71.2952 127.2 71.2952 Q130.834 71.2952 132.64 67.7535 Q134.468 64.1887 134.468 57.0823 Q134.468 49.9527 132.64 46.4111 Q130.834 42.8463 127.2 42.8463 M127.2 39.1426 Q133.01 39.1426 136.066 43.749 Q139.144 48.3323 139.144 57.0823 Q139.144 65.8091 136.066 70.4156 Q133.01 74.9989 127.2 74.9989 Q121.39 74.9989 118.311 70.4156 Q115.256 65.8091 115.256 57.0823 Q115.256 48.3323 118.311 43.749 Q121.39 39.1426 127.2 39.1426 Z" fill="#000000" fill-rule="nonzero" fill-opacity="1" /><path clip-path="url(#clip050)" d="M147.362 68.448 L152.246 68.448 L152.246 74.3276 L147.362 74.3276 L147.362 68.448 Z" fill="#000000" fill-rule="nonzero" fill-opacity="1" /><path clip-path="url(#clip050)" d="M161.251 39.7676 L183.473 39.7676 L183.473 41.7583 L170.927 74.3276 L166.042 74.3276 L177.848 43.7027 L161.251 43.7027 L161.251 39.7676 Z" fill="#000000" fill-rule="nonzero" fill-opacity="1" /><path clip-path="url(#clip050)" d="M191.413 39.7676 L213.635 39.7676 L213.635 41.7583 L201.088 74.3276 L196.204 74.3276 L208.01 43.7027 L191.413 43.7027 L191.413 39.7676 Z" fill="#000000" fill-rule="nonzero" fill-opacity="1" /><path clip-path="url(#clip050)" d="M222.801 39.7676 L241.158 39.7676 L241.158 43.7027 L227.084 43.7027 L227.084 52.1749 Q228.102 51.8277 229.121 51.6657 Q230.139 51.4805 231.158 51.4805 Q236.945 51.4805 240.324 54.6517 Q243.704 57.823 243.704 63.2397 Q243.704 68.8183 240.232 71.9202 Q236.76 74.9989 230.44 74.9989 Q228.264 74.9989 225.996 74.6285 Q223.75 74.2581 221.343 73.5174 L221.343 68.8183 Q223.426 69.9526 225.648 70.5081 Q227.871 71.0637 230.347 71.0637 Q234.352 71.0637 236.69 68.9572 Q239.028 66.8508 239.028 63.2397 Q239.028 59.6286 236.69 57.5221 Q234.352 55.4156 230.347 55.4156 Q228.473 55.4156 226.598 55.8323 Q224.746 56.249 222.801 57.1286 L222.801 39.7676 Z" fill="#000000" fill-rule="nonzero" fill-opacity="1" /><path clip-path="url(#clip050)" d="M35.1993 774.218 Q31.2526 772.022 29.3747 768.966 Q27.4968 765.911 27.4968 761.773 Q27.4968 756.203 31.4117 753.179 Q35.2948 750.155 42.4881 750.155 L64.0042 750.155 L64.0042 756.044 L42.679 756.044 Q37.5546 756.044 35.072 757.858 Q32.5894 759.672 32.5894 763.396 Q32.5894 767.948 35.6131 770.589 Q38.6368 773.231 43.8567 773.231 L64.0042 773.231 L64.0042 779.119 L42.679 779.119 Q37.5228 779.119 35.072 780.934 Q32.5894 782.748 32.5894 786.535 Q32.5894 791.023 35.6449 793.665 Q38.6686 796.307 43.8567 796.307 L64.0042 796.307 L64.0042 802.195 L28.3562 802.195 L28.3562 796.307 L33.8944 796.307 Q30.616 794.302 29.0564 791.501 Q27.4968 788.7 27.4968 784.849 Q27.4968 780.965 29.4702 778.26 Q31.4436 775.523 35.1993 774.218 Z" fill="#000000" fill-rule="nonzero" fill-opacity="1" /><path clip-path="url(#clip050)" d="M46.0847 722.274 Q46.0847 729.371 47.7079 732.109 Q49.3312 734.846 53.2461 734.846 Q56.3653 734.846 58.2114 732.809 Q60.0256 730.74 60.0256 727.207 Q60.0256 722.337 56.5881 719.409 Q53.1188 716.449 47.3897 716.449 L46.0847 716.449 L46.0847 722.274 M43.6657 710.593 L64.0042 710.593 L64.0042 716.449 L58.5933 716.449 Q61.8398 718.454 63.3994 721.446 Q64.9272 724.438 64.9272 728.767 Q64.9272 734.241 61.8716 737.488 Q58.7843 740.702 53.6281 740.702 Q47.6125 740.702 44.5569 736.692 Q41.5014 732.65 41.5014 724.661 L41.5014 716.449 L40.9285 716.449 Q36.8862 716.449 34.6901 719.123 Q32.4621 721.764 32.4621 726.571 Q32.4621 729.626 33.1941 732.522 Q33.9262 735.419 35.3903 738.092 L29.9795 738.092 Q28.7381 734.878 28.1334 731.854 Q27.4968 728.83 27.4968 725.966 Q27.4968 718.231 31.5072 714.412 Q35.5176 710.593 43.6657 710.593 Z" fill="#000000" fill-rule="nonzero" fill-opacity="1" /><path clip-path="url(#clip050)" d="M28.3562 668.897 L45.7028 681.788 L64.0042 668.229 L64.0042 675.136 L49.9996 685.512 L64.0042 695.888 L64.0042 702.795 L45.3526 688.949 L28.3562 701.617 L28.3562 694.71 L41.0558 685.257 L28.3562 675.804 L28.3562 668.897 Z" fill="#000000" fill-rule="nonzero" fill-opacity="1" /><polyline clip-path="url(#clip051)" style="stroke:#009af9; stroke-linecap:round; stroke-linejoin:round; stroke-width:8; stroke-opacity:1; fill:none" points="811.258,97.2928 832.438,99.0339 "/>
<polyline clip-path="url(#clip051)" style="stroke:#009af9; stroke-linecap:round; stroke-linejoin:round; stroke-width:8; stroke-opacity:1; fill:none" points="832.438,99.0339 863.044,103.668 "/>
<polyline clip-path="url(#clip051)" style="stroke:#009af9; stroke-linecap:round; stroke-linejoin:round; stroke-width:8; stroke-opacity:1; fill:none" points="863.044,103.668 907.483,111.045 "/>
<polyline clip-path="url(#clip051)" style="stroke:#009af9; stroke-linecap:round; stroke-linejoin:round; stroke-width:8; stroke-opacity:1; fill:none" points="907.483,111.045 970.72,124.234 "/>
<polyline clip-path="url(#clip051)" style="stroke:#009af9; stroke-linecap:round; stroke-linejoin:round; stroke-width:8; stroke-opacity:1; fill:none" points="970.72,124.234 1061.19,147.089 "/>
<polyline clip-path="url(#clip051)" style="stroke:#009af9; stroke-linecap:round; stroke-linejoin:round; stroke-width:8; stroke-opacity:1; fill:none" points="1061.19,147.089 1181.21,185.286 "/>
<polyline clip-path="url(#clip051)" style="stroke:#009af9; stroke-linecap:round; stroke-linejoin:round; stroke-width:8; stroke-opacity:1; fill:none" points="1181.21,185.286 1304.56,234.093 "/>
<polyline clip-path="url(#clip051)" style="stroke:#009af9; stroke-linecap:round; stroke-linejoin:round; stroke-width:8; stroke-opacity:1; fill:none" points="1304.56,234.093 1430.01,292.585 "/>
<polyline clip-path="url(#clip051)" style="stroke:#009af9; stroke-linecap:round; stroke-linejoin:round; stroke-width:8; stroke-opacity:1; fill:none" points="1430.01,292.585 1556.42,361.877 "/>
<polyline clip-path="url(#clip051)" style="stroke:#009af9; stroke-linecap:round; stroke-linejoin:round; stroke-width:8; stroke-opacity:1; fill:none" points="1556.42,361.877 1682.47,442.66 "/>
<polyline clip-path="url(#clip051)" style="stroke:#009af9; stroke-linecap:round; stroke-linejoin:round; stroke-width:8; stroke-opacity:1; fill:none" points="1682.47,442.66 1806.58,534.74 "/>
<polyline clip-path="url(#clip051)" style="stroke:#009af9; stroke-linecap:round; stroke-linejoin:round; stroke-width:8; stroke-opacity:1; fill:none" points="1806.58,534.74 1926.67,637.076 "/>
<polyline clip-path="url(#clip051)" style="stroke:#009af9; stroke-linecap:round; stroke-linejoin:round; stroke-width:8; stroke-opacity:1; fill:none" points="1926.67,637.076 2039.9,751.095 "/>
<polyline clip-path="url(#clip051)" style="stroke:#009af9; stroke-linecap:round; stroke-linejoin:round; stroke-width:8; stroke-opacity:1; fill:none" points="2039.9,751.095 2142.05,873.876 "/>
<polyline clip-path="url(#clip051)" style="stroke:#009af9; stroke-linecap:round; stroke-linejoin:round; stroke-width:8; stroke-opacity:1; fill:none" points="2142.05,873.876 2226.48,1005.78 "/>
<polyline clip-path="url(#clip051)" style="stroke:#009af9; stroke-linecap:round; stroke-linejoin:round; stroke-width:8; stroke-opacity:1; fill:none" points="2226.48,1005.78 2282.03,1141.66 "/>
<polyline clip-path="url(#clip051)" style="stroke:#009af9; stroke-linecap:round; stroke-linejoin:round; stroke-width:8; stroke-opacity:1; fill:none" points="2282.03,1141.66 2294.08,1226.57 "/>
<polyline clip-path="url(#clip051)" style="stroke:#009af9; stroke-linecap:round; stroke-linejoin:round; stroke-width:4; stroke-opacity:1; fill:none" points="2294.08,1226.57 2260.16,1334.54 "/>
<polyline clip-path="url(#clip051)" style="stroke:#009af9; stroke-linecap:round; stroke-linejoin:round; stroke-width:4; stroke-opacity:1; fill:none" points="2260.16,1334.54 2152.74,1384.24 "/>
<polyline clip-path="url(#clip051)" style="stroke:#009af9; stroke-linecap:round; stroke-linejoin:round; stroke-width:4; stroke-opacity:1; fill:none" points="2152.74,1384.24 2002.89,1365.09 "/>
<polyline clip-path="url(#clip051)" style="stroke:#009af9; stroke-linecap:round; stroke-linejoin:round; stroke-width:4; stroke-opacity:1; fill:none" points="2002.89,1365.09 1839.37,1300.95 "/>
<polyline clip-path="url(#clip051)" style="stroke:#009af9; stroke-linecap:round; stroke-linejoin:round; stroke-width:4; stroke-opacity:1; fill:none" points="1839.37,1300.95 1671,1212.73 "/>
<polyline clip-path="url(#clip051)" style="stroke:#009af9; stroke-linecap:round; stroke-linejoin:round; stroke-width:4; stroke-opacity:1; fill:none" points="1671,1212.73 1501.16,1112.98 "/>
<polyline clip-path="url(#clip051)" style="stroke:#009af9; stroke-linecap:round; stroke-linejoin:round; stroke-width:4; stroke-opacity:1; fill:none" points="1501.16,1112.98 1331.96,1005.2 "/>
<polyline clip-path="url(#clip051)" style="stroke:#009af9; stroke-linecap:round; stroke-linejoin:round; stroke-width:4; stroke-opacity:1; fill:none" points="1331.96,1005.2 1165.33,896.578 "/>
<polyline clip-path="url(#clip051)" style="stroke:#009af9; stroke-linecap:round; stroke-linejoin:round; stroke-width:4; stroke-opacity:1; fill:none" points="1165.33,896.578 1003.6,790.759 "/>
<polyline clip-path="url(#clip051)" style="stroke:#009af9; stroke-linecap:round; stroke-linejoin:round; stroke-width:4; stroke-opacity:1; fill:none" points="1003.6,790.759 849.824,687.811 "/>
<polyline clip-path="url(#clip051)" style="stroke:#009af9; stroke-linecap:round; stroke-linejoin:round; stroke-width:4; stroke-opacity:1; fill:none" points="849.824,687.811 708.051,590.214 "/>
<polyline clip-path="url(#clip051)" style="stroke:#009af9; stroke-linecap:round; stroke-linejoin:round; stroke-width:4; stroke-opacity:1; fill:none" points="708.051,590.214 583.259,500.494 "/>
<polyline clip-path="url(#clip051)" style="stroke:#009af9; stroke-linecap:round; stroke-linejoin:round; stroke-width:4; stroke-opacity:1; fill:none" points="583.259,500.494 480.76,419.937 "/>
<polyline clip-path="url(#clip051)" style="stroke:#009af9; stroke-linecap:round; stroke-linejoin:round; stroke-width:4; stroke-opacity:1; fill:none" points="480.76,419.937 404.932,346.508 "/>
<polyline clip-path="url(#clip051)" style="stroke:#009af9; stroke-linecap:round; stroke-linejoin:round; stroke-width:4; stroke-opacity:1; fill:none" points="404.932,346.508 357.877,284.001 "/>
<polyline clip-path="url(#clip051)" style="stroke:#009af9; stroke-linecap:round; stroke-linejoin:round; stroke-width:4; stroke-opacity:1; fill:none" points="357.877,284.001 338.984,231.887 "/>
<polyline clip-path="url(#clip051)" style="stroke:#009af9; stroke-linecap:round; stroke-linejoin:round; stroke-width:4; stroke-opacity:1; fill:none" points="338.984,231.887 338.375,220.393 "/>
<polyline clip-path="url(#clip051)" style="stroke:#009af9; stroke-linecap:round; stroke-linejoin:round; stroke-width:8; stroke-opacity:1; fill:none" points="338.375,220.393 349.965,179.662 "/>
<polyline clip-path="url(#clip051)" style="stroke:#009af9; stroke-linecap:round; stroke-linejoin:round; stroke-width:8; stroke-opacity:1; fill:none" points="349.965,179.662 383.042,144.547 "/>
<polyline clip-path="url(#clip051)" style="stroke:#009af9; stroke-linecap:round; stroke-linejoin:round; stroke-width:8; stroke-opacity:1; fill:none" points="383.042,144.547 434.304,119.394 "/>
<polyline clip-path="url(#clip051)" style="stroke:#009af9; stroke-linecap:round; stroke-linejoin:round; stroke-width:8; stroke-opacity:1; fill:none" points="434.304,119.394 500.832,99.7446 "/>
<polyline clip-path="url(#clip051)" style="stroke:#009af9; stroke-linecap:round; stroke-linejoin:round; stroke-width:8; stroke-opacity:1; fill:none" points="500.832,99.7446 580.156,90.4614 "/>
<polyline clip-path="url(#clip051)" style="stroke:#009af9; stroke-linecap:round; stroke-linejoin:round; stroke-width:8; stroke-opacity:1; fill:none" points="580.156,90.4614 670.2,86.1857 "/>
<polyline clip-path="url(#clip051)" style="stroke:#009af9; stroke-linecap:round; stroke-linejoin:round; stroke-width:8; stroke-opacity:1; fill:none" points="670.2,86.1857 769.215,92.25 "/>
<polyline clip-path="url(#clip051)" style="stroke:#009af9; stroke-linecap:round; stroke-linejoin:round; stroke-width:8; stroke-opacity:1; fill:none" points="769.215,92.25 875.696,105.671 "/>
<polyline clip-path="url(#clip051)" style="stroke:#009af9; stroke-linecap:round; stroke-linejoin:round; stroke-width:8; stroke-opacity:1; fill:none" points="875.696,105.671 988.329,128.237 "/>
<polyline clip-path="url(#clip051)" style="stroke:#009af9; stroke-linecap:round; stroke-linejoin:round; stroke-width:8; stroke-opacity:1; fill:none" points="988.329,128.237 1105.93,161.249 "/>
<polyline clip-path="url(#clip051)" style="stroke:#009af9; stroke-linecap:round; stroke-linejoin:round; stroke-width:8; stroke-opacity:1; fill:none" points="1105.93,161.249 1227.38,202.349 "/>
<polyline clip-path="url(#clip051)" style="stroke:#009af9; stroke-linecap:round; stroke-linejoin:round; stroke-width:8; stroke-opacity:1; fill:none" points="1227.38,202.349 1351.61,254.105 "/>
<polyline clip-path="url(#clip051)" style="stroke:#009af9; stroke-linecap:round; stroke-linejoin:round; stroke-width:8; stroke-opacity:1; fill:none" points="1351.61,254.105 1477.5,316.794 "/>
<polyline clip-path="url(#clip051)" style="stroke:#009af9; stroke-linecap:round; stroke-linejoin:round; stroke-width:8; stroke-opacity:1; fill:none" points="1477.5,316.794 1603.84,390.443 "/>
<polyline clip-path="url(#clip051)" style="stroke:#009af9; stroke-linecap:round; stroke-linejoin:round; stroke-width:8; stroke-opacity:1; fill:none" points="1603.84,390.443 1729.21,475.18 "/>
<polyline clip-path="url(#clip051)" style="stroke:#009af9; stroke-linecap:round; stroke-linejoin:round; stroke-width:8; stroke-opacity:1; fill:none" points="1729.21,475.18 1851.88,571.257 "/>
<circle clip-path="url(#clip051)" cx="2294.08" cy="1226.57" r="10.8" fill="#0000ff" fill-rule="evenodd" fill-opacity="1" stroke="none"/>
<circle clip-path="url(#clip051)" cx="338.375" cy="220.393" r="10.8" fill="#0000ff" fill-rule="evenodd" fill-opacity="1" stroke="none"/>
<circle clip-path="url(#clip051)" cx="2294.08" cy="1226.57" r="10.8" fill="#0000ff" fill-rule="evenodd" fill-opacity="1" stroke="none"/>
<path clip-path="url(#clip050)" d="M2023.06 196.789 L2283.65 196.789 L2283.65 93.1086 L2023.06 93.1086  Z" fill="#ffffff" fill-rule="evenodd" fill-opacity="1"/>
<polyline clip-path="url(#clip050)" style="stroke:#000000; stroke-linecap:round; stroke-linejoin:round; stroke-width:4; stroke-opacity:1; fill:none" points="2023.06,196.789 2283.65,196.789 2283.65,93.1086 2023.06,93.1086 2023.06,196.789 "/>
<circle clip-path="url(#clip050)" cx="2115.2" cy="144.949" r="23.04" fill="#0000ff" fill-rule="evenodd" fill-opacity="1" stroke="none"/>
<path clip-path="url(#clip050)" d="M2226.11 149.289 Q2226.11 144.59 2224.16 141.928 Q2222.24 139.243 2218.86 139.243 Q2215.48 139.243 2213.54 141.928 Q2211.62 144.59 2211.62 149.289 Q2211.62 153.988 2213.54 156.673 Q2215.48 159.335 2218.86 159.335 Q2222.24 159.335 2224.16 156.673 Q2226.11 153.988 2226.11 149.289 M2211.62 140.238 Q2212.96 137.923 2215 136.812 Q2217.06 135.678 2219.9 135.678 Q2224.63 135.678 2227.56 139.428 Q2230.53 143.178 2230.53 149.289 Q2230.53 155.4 2227.56 159.15 Q2224.63 162.9 2219.9 162.9 Q2217.06 162.9 2215 161.789 Q2212.96 160.655 2211.62 158.34 L2211.62 162.229 L2207.33 162.229 L2207.33 126.21 L2211.62 126.21 L2211.62 140.238 Z" fill="#000000" fill-rule="nonzero" fill-opacity="1" /><path clip-path="url(#clip050)" d="M2241.71 158.34 L2241.71 172.09 L2237.43 172.09 L2237.43 136.303 L2241.71 136.303 L2241.71 140.238 Q2243.05 137.923 2245.09 136.812 Q2247.15 135.678 2250 135.678 Q2254.72 135.678 2257.66 139.428 Q2260.62 143.178 2260.62 149.289 Q2260.62 155.4 2257.66 159.15 Q2254.72 162.9 2250 162.9 Q2247.15 162.9 2245.09 161.789 Q2243.05 160.655 2241.71 158.34 M2256.2 149.289 Q2256.2 144.59 2254.25 141.928 Q2252.33 139.243 2248.95 139.243 Q2245.57 139.243 2243.63 141.928 Q2241.71 144.59 2241.71 149.289 Q2241.71 153.988 2243.63 156.673 Q2245.57 159.335 2248.95 159.335 Q2252.33 159.335 2254.25 156.673 Q2256.2 153.988 2256.2 149.289 Z" fill="#000000" fill-rule="nonzero" fill-opacity="1" /></svg>
