<?xml version="1.0" encoding="utf-8"?>
<svg xmlns="http://www.w3.org/2000/svg" xmlns:xlink="http://www.w3.org/1999/xlink" width="600" height="400" viewBox="0 0 2400 1600">
<defs>
  <clipPath id="clip960">
    <rect x="0" y="0" width="2400" height="1600"/>
  </clipPath>
</defs>
<path clip-path="url(#clip960)" d="M0 1600 L2400 1600 L2400 0 L0 0  Z" fill="#ffffff" fill-rule="evenodd" fill-opacity="1"/>
<defs>
  <clipPath id="clip961">
    <rect x="279" y="47" width="2074" height="1377"/>
  </clipPath>
</defs>
<path clip-path="url(#clip960)" d="M279.704 1423.18 L2352.76 1423.18 L2352.76 47.2441 L279.704 47.2441  Z" fill="#ffffff" fill-rule="evenodd" fill-opacity="1"/>
<polyline clip-path="url(#clip961)" style="stroke:#000000; stroke-linecap:round; stroke-linejoin:round; stroke-width:2; stroke-opacity:0.1; fill:none" points="338.375,1423.18 338.375,47.2441 "/>
<polyline clip-path="url(#clip961)" style="stroke:#000000; stroke-linecap:round; stroke-linejoin:round; stroke-width:2; stroke-opacity:0.1; fill:none" points="632.035,1423.18 632.035,47.2441 "/>
<polyline clip-path="url(#clip961)" style="stroke:#000000; stroke-linecap:round; stroke-linejoin:round; stroke-width:2; stroke-opacity:0.1; fill:none" points="925.694,1423.18 925.694,47.2441 "/>
<polyline clip-path="url(#clip961)" style="stroke:#000000; stroke-linecap:round; stroke-linejoin:round; stroke-width:2; stroke-opacity:0.1; fill:none" points="1219.35,1423.18 1219.35,47.2441 "/>
<polyline clip-path="url(#clip961)" style="stroke:#000000; stroke-linecap:round; stroke-linejoin:round; stroke-width:2; stroke-opacity:0.1; fill:none" points="1513.01,1423.18 1513.01,47.2441 "/>
<polyline clip-path="url(#clip961)" style="stroke:#000000; stroke-linecap:round; stroke-linejoin:round; stroke-width:2; stroke-opacity:0.1; fill:none" points="1806.67,1423.18 1806.67,47.2441 "/>
<polyline clip-path="url(#clip961)" style="stroke:#000000; stroke-linecap:round; stroke-linejoin:round; stroke-width:2; stroke-opacity:0.1; fill:none" points="2100.33,1423.18 2100.33,47.2441 "/>
<polyline clip-path="url(#clip961)" style="stroke:#000000; stroke-linecap:round; stroke-linejoin:round; stroke-width:2; stroke-opacity:0.1; fill:none" points="279.704,1265.11 2352.76,1265.11 "/>
<polyline clip-path="url(#clip961)" style="stroke:#000000; stroke-linecap:round; stroke-linejoin:round; stroke-width:2; stroke-opacity:0.1; fill:none" points="279.704,1071 2352.76,1071 "/>
<polyline clip-path="url(#clip961)" style="stroke:#000000; stroke-linecap:round; stroke-linejoin:round; stroke-width:2; stroke-opacity:0.1; fill:none" points="279.704,876.884 2352.76,876.884 "/>
<polyline clip-path="url(#clip961)" style="stroke:#000000; stroke-linecap:round; stroke-linejoin:round; stroke-width:2; stroke-opacity:0.1; fill:none" points="279.704,682.769 2352.76,682.769 "/>
<polyline clip-path="url(#clip961)" style="stroke:#000000; stroke-linecap:round; stroke-linejoin:round; stroke-width:2; stroke-opacity:0.1; fill:none" points="279.704,488.655 2352.76,488.655 "/>
<polyline clip-path="url(#clip961)" style="stroke:#000000; stroke-linecap:round; stroke-linejoin:round; stroke-width:2; stroke-opacity:0.1; fill:none" points="279.704,294.54 2352.76,294.54 "/>
<polyline clip-path="url(#clip961)" style="stroke:#000000; stroke-linecap:round; stroke-linejoin:round; stroke-width:2; stroke-opacity:0.1; fill:none" points="279.704,100.425 2352.76,100.425 "/>
<polyline clip-path="url(#clip960)" style="stroke:#000000; stroke-linecap:round; stroke-linejoin:round; stroke-width:4; stroke-opacity:1; fill:none" points="279.704,1423.18 2352.76,1423.18 "/>
<polyline clip-path="url(#clip960)" style="stroke:#000000; stroke-linecap:round; stroke-linejoin:round; stroke-width:4; stroke-opacity:1; fill:none" points="338.375,1423.18 338.375,1404.28 "/>
<polyline clip-path="url(#clip960)" style="stroke:#000000; stroke-linecap:round; stroke-linejoin:round; stroke-width:4; stroke-opacity:1; fill:none" points="632.035,1423.18 632.035,1404.28 "/>
<polyline clip-path="url(#clip960)" style="stroke:#000000; stroke-linecap:round; stroke-linejoin:round; stroke-width:4; stroke-opacity:1; fill:none" points="925.694,1423.18 925.694,1404.28 "/>
<polyline clip-path="url(#clip960)" style="stroke:#000000; stroke-linecap:round; stroke-linejoin:round; stroke-width:4; stroke-opacity:1; fill:none" points="1219.35,1423.18 1219.35,1404.28 "/>
<polyline clip-path="url(#clip960)" style="stroke:#000000; stroke-linecap:round; stroke-linejoin:round; stroke-width:4; stroke-opacity:1; fill:none" points="1513.01,1423.18 1513.01,1404.28 "/>
<polyline clip-path="url(#clip960)" style="stroke:#000000; stroke-linecap:round; stroke-linejoin:round; stroke-width:4; stroke-opacity:1; fill:none" points="1806.67,1423.18 1806.67,1404.28 "/>
<polyline clip-path="url(#clip960)" style="stroke:#000000; stroke-linecap:round; stroke-linejoin:round; stroke-width:4; stroke-opacity:1; fill:none" points="2100.33,1423.18 2100.33,1404.28 "/>
<path clip-path="url(#clip960)" d="M316.558 1454.1 Q312.947 1454.1 311.118 1457.66 Q309.313 1461.2 309.313 1468.33 Q309.313 1475.44 311.118 1479.01 Q312.947 1482.55 316.558 1482.55 Q320.192 1482.55 321.998 1479.01 Q323.827 1475.44 323.827 1468.33 Q323.827 1461.2 321.998 1457.66 Q320.192 1454.1 316.558 1454.1 M316.558 1450.39 Q322.368 1450.39 325.424 1455 Q328.503 1459.58 328.503 1468.33 Q328.503 1477.06 325.424 1481.67 Q322.368 1486.25 316.558 1486.25 Q310.748 1486.25 307.669 1481.67 Q304.614 1477.06 304.614 1468.33 Q304.614 1459.58 307.669 1455 Q310.748 1450.39 316.558 1450.39 Z" fill="#000000" fill-rule="nonzero" fill-opacity="1" /><path clip-path="url(#clip960)" d="M336.72 1479.7 L341.604 1479.7 L341.604 1485.58 L336.72 1485.58 L336.72 1479.7 Z" fill="#000000" fill-rule="nonzero" fill-opacity="1" /><path clip-path="url(#clip960)" d="M355.817 1481.64 L372.137 1481.64 L372.137 1485.58 L350.192 1485.58 L350.192 1481.64 Q352.854 1478.89 357.438 1474.26 Q362.044 1469.61 363.225 1468.27 Q365.47 1465.74 366.35 1464.01 Q367.252 1462.25 367.252 1460.56 Q367.252 1457.8 365.308 1456.07 Q363.387 1454.33 360.285 1454.33 Q358.086 1454.33 355.632 1455.09 Q353.202 1455.86 350.424 1457.41 L350.424 1452.69 Q353.248 1451.55 355.701 1450.97 Q358.155 1450.39 360.192 1450.39 Q365.563 1450.39 368.757 1453.08 Q371.951 1455.77 371.951 1460.26 Q371.951 1462.39 371.141 1464.31 Q370.354 1466.2 368.248 1468.8 Q367.669 1469.47 364.567 1472.69 Q361.465 1475.88 355.817 1481.64 Z" fill="#000000" fill-rule="nonzero" fill-opacity="1" /><path clip-path="url(#clip960)" d="M609.743 1454.1 Q606.132 1454.1 604.303 1457.66 Q602.498 1461.2 602.498 1468.33 Q602.498 1475.44 604.303 1479.01 Q606.132 1482.55 609.743 1482.55 Q613.377 1482.55 615.183 1479.01 Q617.012 1475.44 617.012 1468.33 Q617.012 1461.2 615.183 1457.66 Q613.377 1454.1 609.743 1454.1 M609.743 1450.39 Q615.553 1450.39 618.609 1455 Q621.687 1459.58 621.687 1468.33 Q621.687 1477.06 618.609 1481.67 Q615.553 1486.25 609.743 1486.25 Q603.933 1486.25 600.854 1481.67 Q597.799 1477.06 597.799 1468.33 Q597.799 1459.58 600.854 1455 Q603.933 1450.39 609.743 1450.39 Z" fill="#000000" fill-rule="nonzero" fill-opacity="1" /><path clip-path="url(#clip960)" d="M629.905 1479.7 L634.789 1479.7 L634.789 1485.58 L629.905 1485.58 L629.905 1479.7 Z" fill="#000000" fill-rule="nonzero" fill-opacity="1" /><path clip-path="url(#clip960)" d="M659.141 1466.95 Q662.497 1467.66 664.372 1469.93 Q666.271 1472.2 666.271 1475.53 Q666.271 1480.65 662.752 1483.45 Q659.234 1486.25 652.752 1486.25 Q650.576 1486.25 648.261 1485.81 Q645.97 1485.39 643.516 1484.54 L643.516 1480.02 Q645.461 1481.16 647.775 1481.74 Q650.09 1482.32 652.613 1482.32 Q657.011 1482.32 659.303 1480.58 Q661.618 1478.84 661.618 1475.53 Q661.618 1472.48 659.465 1470.77 Q657.335 1469.03 653.516 1469.03 L649.488 1469.03 L649.488 1465.19 L653.701 1465.19 Q657.15 1465.19 658.979 1463.82 Q660.808 1462.43 660.808 1459.84 Q660.808 1457.18 658.91 1455.77 Q657.035 1454.33 653.516 1454.33 Q651.595 1454.33 649.396 1454.75 Q647.197 1455.16 644.558 1456.04 L644.558 1451.88 Q647.22 1451.14 649.535 1450.77 Q651.873 1450.39 653.933 1450.39 Q659.257 1450.39 662.359 1452.83 Q665.46 1455.23 665.46 1459.35 Q665.46 1462.22 663.817 1464.21 Q662.173 1466.18 659.141 1466.95 Z" fill="#000000" fill-rule="nonzero" fill-opacity="1" /><path clip-path="url(#clip960)" d="M902.835 1454.1 Q899.224 1454.1 897.396 1457.66 Q895.59 1461.2 895.59 1468.33 Q895.59 1475.44 897.396 1479.01 Q899.224 1482.55 902.835 1482.55 Q906.47 1482.55 908.275 1479.01 Q910.104 1475.44 910.104 1468.33 Q910.104 1461.2 908.275 1457.66 Q906.47 1454.1 902.835 1454.1 M902.835 1450.39 Q908.646 1450.39 911.701 1455 Q914.78 1459.58 914.78 1468.33 Q914.78 1477.06 911.701 1481.67 Q908.646 1486.25 902.835 1486.25 Q897.025 1486.25 893.947 1481.67 Q890.891 1477.06 890.891 1468.33 Q890.891 1459.58 893.947 1455 Q897.025 1450.39 902.835 1450.39 Z" fill="#000000" fill-rule="nonzero" fill-opacity="1" /><path clip-path="url(#clip960)" d="M922.997 1479.7 L927.882 1479.7 L927.882 1485.58 L922.997 1485.58 L922.997 1479.7 Z" fill="#000000" fill-rule="nonzero" fill-opacity="1" /><path clip-path="url(#clip960)" d="M950.914 1455.09 L939.108 1473.54 L950.914 1473.54 L950.914 1455.09 M949.687 1451.02 L955.567 1451.02 L955.567 1473.54 L960.497 1473.54 L960.497 1477.43 L955.567 1477.43 L955.567 1485.58 L950.914 1485.58 L950.914 1477.43 L935.312 1477.43 L935.312 1472.92 L949.687 1451.02 Z" fill="#000000" fill-rule="nonzero" fill-opacity="1" /><path clip-path="url(#clip960)" d="M1197.24 1454.1 Q1193.62 1454.1 1191.8 1457.66 Q1189.99 1461.2 1189.99 1468.33 Q1189.99 1475.44 1191.8 1479.01 Q1193.62 1482.55 1197.24 1482.55 Q1200.87 1482.55 1202.68 1479.01 Q1204.5 1475.44 1204.5 1468.33 Q1204.5 1461.2 1202.68 1457.66 Q1200.87 1454.1 1197.24 1454.1 M1197.24 1450.39 Q1203.05 1450.39 1206.1 1455 Q1209.18 1459.58 1209.18 1468.33 Q1209.18 1477.06 1206.1 1481.67 Q1203.05 1486.25 1197.24 1486.25 Q1191.43 1486.25 1188.35 1481.67 Q1185.29 1477.06 1185.29 1468.33 Q1185.29 1459.58 1188.35 1455 Q1191.43 1450.39 1197.24 1450.39 Z" fill="#000000" fill-rule="nonzero" fill-opacity="1" /><path clip-path="url(#clip960)" d="M1217.4 1479.7 L1222.28 1479.7 L1222.28 1485.58 L1217.4 1485.58 L1217.4 1479.7 Z" fill="#000000" fill-rule="nonzero" fill-opacity="1" /><path clip-path="url(#clip960)" d="M1232.51 1451.02 L1250.87 1451.02 L1250.87 1454.96 L1236.8 1454.96 L1236.8 1463.43 Q1237.81 1463.08 1238.83 1462.92 Q1239.85 1462.73 1240.87 1462.73 Q1246.66 1462.73 1250.04 1465.9 Q1253.42 1469.08 1253.42 1474.49 Q1253.42 1480.07 1249.94 1483.17 Q1246.47 1486.25 1240.15 1486.25 Q1237.98 1486.25 1235.71 1485.88 Q1233.46 1485.51 1231.05 1484.77 L1231.05 1480.07 Q1233.14 1481.2 1235.36 1481.76 Q1237.58 1482.32 1240.06 1482.32 Q1244.06 1482.32 1246.4 1480.21 Q1248.74 1478.1 1248.74 1474.49 Q1248.74 1470.88 1246.4 1468.77 Q1244.06 1466.67 1240.06 1466.67 Q1238.18 1466.67 1236.31 1467.08 Q1234.46 1467.5 1232.51 1468.38 L1232.51 1451.02 Z" fill="#000000" fill-rule="nonzero" fill-opacity="1" /><path clip-path="url(#clip960)" d="M1490.32 1454.1 Q1486.71 1454.1 1484.88 1457.66 Q1483.07 1461.2 1483.07 1468.33 Q1483.07 1475.44 1484.88 1479.01 Q1486.71 1482.55 1490.32 1482.55 Q1493.95 1482.55 1495.76 1479.01 Q1497.58 1475.44 1497.58 1468.33 Q1497.58 1461.2 1495.76 1457.66 Q1493.95 1454.1 1490.32 1454.1 M1490.32 1450.39 Q1496.13 1450.39 1499.18 1455 Q1502.26 1459.58 1502.26 1468.33 Q1502.26 1477.06 1499.18 1481.67 Q1496.13 1486.25 1490.32 1486.25 Q1484.51 1486.25 1481.43 1481.67 Q1478.37 1477.06 1478.37 1468.33 Q1478.37 1459.58 1481.43 1455 Q1484.51 1450.39 1490.32 1450.39 Z" fill="#000000" fill-rule="nonzero" fill-opacity="1" /><path clip-path="url(#clip960)" d="M1510.48 1479.7 L1515.36 1479.7 L1515.36 1485.58 L1510.48 1485.58 L1510.48 1479.7 Z" fill="#000000" fill-rule="nonzero" fill-opacity="1" /><path clip-path="url(#clip960)" d="M1536.13 1466.44 Q1532.98 1466.44 1531.13 1468.59 Q1529.3 1470.74 1529.3 1474.49 Q1529.3 1478.22 1531.13 1480.39 Q1532.98 1482.55 1536.13 1482.55 Q1539.27 1482.55 1541.1 1480.39 Q1542.96 1478.22 1542.96 1474.49 Q1542.96 1470.74 1541.1 1468.59 Q1539.27 1466.44 1536.13 1466.44 M1545.41 1451.78 L1545.41 1456.04 Q1543.65 1455.21 1541.84 1454.77 Q1540.06 1454.33 1538.3 1454.33 Q1533.67 1454.33 1531.22 1457.45 Q1528.79 1460.58 1528.44 1466.9 Q1529.81 1464.89 1531.87 1463.82 Q1533.93 1462.73 1536.4 1462.73 Q1541.61 1462.73 1544.62 1465.9 Q1547.65 1469.05 1547.65 1474.49 Q1547.65 1479.82 1544.51 1483.03 Q1541.36 1486.25 1536.13 1486.25 Q1530.13 1486.25 1526.96 1481.67 Q1523.79 1477.06 1523.79 1468.33 Q1523.79 1460.14 1527.68 1455.28 Q1531.57 1450.39 1538.12 1450.39 Q1539.88 1450.39 1541.66 1450.74 Q1543.46 1451.09 1545.41 1451.78 Z" fill="#000000" fill-rule="nonzero" fill-opacity="1" /><path clip-path="url(#clip960)" d="M1784.51 1454.1 Q1780.9 1454.1 1779.07 1457.66 Q1777.26 1461.2 1777.26 1468.33 Q1777.26 1475.44 1779.07 1479.01 Q1780.9 1482.55 1784.51 1482.55 Q1788.14 1482.55 1789.95 1479.01 Q1791.78 1475.44 1791.78 1468.33 Q1791.78 1461.2 1789.95 1457.66 Q1788.14 1454.1 1784.51 1454.1 M1784.51 1450.39 Q1790.32 1450.39 1793.37 1455 Q1796.45 1459.58 1796.45 1468.33 Q1796.45 1477.06 1793.37 1481.67 Q1790.32 1486.25 1784.51 1486.25 Q1778.7 1486.25 1775.62 1481.67 Q1772.56 1477.06 1772.56 1468.33 Q1772.56 1459.58 1775.62 1455 Q1778.7 1450.39 1784.51 1450.39 Z" fill="#000000" fill-rule="nonzero" fill-opacity="1" /><path clip-path="url(#clip960)" d="M1804.67 1479.7 L1809.55 1479.7 L1809.55 1485.58 L1804.67 1485.58 L1804.67 1479.7 Z" fill="#000000" fill-rule="nonzero" fill-opacity="1" /><path clip-path="url(#clip960)" d="M1818.56 1451.02 L1840.78 1451.02 L1840.78 1453.01 L1828.23 1485.58 L1823.35 1485.58 L1835.16 1454.96 L1818.56 1454.96 L1818.56 1451.02 Z" fill="#000000" fill-rule="nonzero" fill-opacity="1" /><path clip-path="url(#clip960)" d="M2077.76 1454.1 Q2074.15 1454.1 2072.32 1457.66 Q2070.52 1461.2 2070.52 1468.33 Q2070.52 1475.44 2072.32 1479.01 Q2074.15 1482.55 2077.76 1482.55 Q2081.4 1482.55 2083.2 1479.01 Q2085.03 1475.44 2085.03 1468.33 Q2085.03 1461.2 2083.2 1457.66 Q2081.4 1454.1 2077.76 1454.1 M2077.76 1450.39 Q2083.57 1450.39 2086.63 1455 Q2089.71 1459.58 2089.71 1468.33 Q2089.71 1477.06 2086.63 1481.67 Q2083.57 1486.25 2077.76 1486.25 Q2071.95 1486.25 2068.87 1481.67 Q2065.82 1477.06 2065.82 1468.33 Q2065.82 1459.58 2068.87 1455 Q2071.95 1450.39 2077.76 1450.39 Z" fill="#000000" fill-rule="nonzero" fill-opacity="1" /><path clip-path="url(#clip960)" d="M2097.92 1479.7 L2102.81 1479.7 L2102.81 1485.58 L2097.92 1485.58 L2097.92 1479.7 Z" fill="#000000" fill-rule="nonzero" fill-opacity="1" /><path clip-path="url(#clip960)" d="M2122.99 1469.17 Q2119.66 1469.17 2117.74 1470.95 Q2115.84 1472.73 2115.84 1475.86 Q2115.84 1478.98 2117.74 1480.77 Q2119.66 1482.55 2122.99 1482.55 Q2126.33 1482.55 2128.25 1480.77 Q2130.17 1478.96 2130.17 1475.86 Q2130.17 1472.73 2128.25 1470.95 Q2126.35 1469.17 2122.99 1469.17 M2118.32 1467.18 Q2115.31 1466.44 2113.62 1464.38 Q2111.95 1462.32 2111.95 1459.35 Q2111.95 1455.21 2114.89 1452.8 Q2117.86 1450.39 2122.99 1450.39 Q2128.16 1450.39 2131.1 1452.8 Q2134.04 1455.21 2134.04 1459.35 Q2134.04 1462.32 2132.35 1464.38 Q2130.68 1466.44 2127.69 1467.18 Q2131.07 1467.96 2132.95 1470.26 Q2134.85 1472.55 2134.85 1475.86 Q2134.85 1480.88 2131.77 1483.57 Q2128.71 1486.25 2122.99 1486.25 Q2117.28 1486.25 2114.2 1483.57 Q2111.14 1480.88 2111.14 1475.86 Q2111.14 1472.55 2113.04 1470.26 Q2114.94 1467.96 2118.32 1467.18 M2116.61 1459.79 Q2116.61 1462.48 2118.27 1463.98 Q2119.96 1465.49 2122.99 1465.49 Q2126 1465.49 2127.69 1463.98 Q2129.41 1462.48 2129.41 1459.79 Q2129.41 1457.11 2127.69 1455.6 Q2126 1454.1 2122.99 1454.1 Q2119.96 1454.1 2118.27 1455.6 Q2116.61 1457.11 2116.61 1459.79 Z" fill="#000000" fill-rule="nonzero" fill-opacity="1" /><path clip-path="url(#clip960)" d="M1330.09 1538.06 Q1328.91 1537.65 1327.74 1537.33 Q1324.58 1536.5 1321.21 1536.5 Q1315.39 1536.5 1312.14 1539.65 Q1309.12 1542.58 1308.54 1547.96 L1330.09 1547.96 L1330.09 1552.54 L1308.54 1552.54 Q1309.12 1557.92 1312.14 1560.85 Q1315.39 1564 1321.21 1564 Q1325.29 1564 1327.74 1563.17 L1330.09 1562.38 L1330.09 1567.69 L1327.58 1568.27 Q1324.27 1568.97 1320.86 1568.97 Q1312.33 1568.97 1307.37 1564 Q1302.37 1559.04 1302.37 1550.25 Q1302.37 1541.47 1307.37 1536.5 Q1312.33 1531.54 1320.86 1531.54 Q1324.08 1531.54 1327.58 1532.24 Q1328.85 1532.49 1330.09 1532.87 L1330.09 1538.06 Z" fill="#000000" fill-rule="nonzero" fill-opacity="1" /><polyline clip-path="url(#clip960)" style="stroke:#000000; stroke-linecap:round; stroke-linejoin:round; stroke-width:4; stroke-opacity:1; fill:none" points="279.704,1423.18 279.704,47.2441 "/>
<polyline clip-path="url(#clip960)" style="stroke:#000000; stroke-linecap:round; stroke-linejoin:round; stroke-width:4; stroke-opacity:1; fill:none" points="279.704,1265.11 298.602,1265.11 "/>
<polyline clip-path="url(#clip960)" style="stroke:#000000; stroke-linecap:round; stroke-linejoin:round; stroke-width:4; stroke-opacity:1; fill:none" points="279.704,1071 298.602,1071 "/>
<polyline clip-path="url(#clip960)" style="stroke:#000000; stroke-linecap:round; stroke-linejoin:round; stroke-width:4; stroke-opacity:1; fill:none" points="279.704,876.884 298.602,876.884 "/>
<polyline clip-path="url(#clip960)" style="stroke:#000000; stroke-linecap:round; stroke-linejoin:round; stroke-width:4; stroke-opacity:1; fill:none" points="279.704,682.769 298.602,682.769 "/>
<polyline clip-path="url(#clip960)" style="stroke:#000000; stroke-linecap:round; stroke-linejoin:round; stroke-width:4; stroke-opacity:1; fill:none" points="279.704,488.655 298.602,488.655 "/>
<polyline clip-path="url(#clip960)" style="stroke:#000000; stroke-linecap:round; stroke-linejoin:round; stroke-width:4; stroke-opacity:1; fill:none" points="279.704,294.54 298.602,294.54 "/>
<polyline clip-path="url(#clip960)" style="stroke:#000000; stroke-linecap:round; stroke-linejoin:round; stroke-width:4; stroke-opacity:1; fill:none" points="279.704,100.425 298.602,100.425 "/>
<path clip-path="url(#clip960)" d="M127.2 1250.91 Q123.589 1250.91 121.76 1254.48 Q119.955 1258.02 119.955 1265.15 Q119.955 1272.26 121.76 1275.82 Q123.589 1279.36 127.2 1279.36 Q130.834 1279.36 132.64 1275.82 Q134.468 1272.26 134.468 1265.15 Q134.468 1258.02 132.64 1254.48 Q130.834 1250.91 127.2 1250.91 M127.2 1247.21 Q133.01 1247.21 136.066 1251.82 Q139.144 1256.4 139.144 1265.15 Q139.144 1273.88 136.066 1278.48 Q133.01 1283.07 127.2 1283.07 Q121.39 1283.07 118.311 1278.48 Q115.256 1273.88 115.256 1265.15 Q115.256 1256.4 118.311 1251.82 Q121.39 1247.21 127.2 1247.21 Z" fill="#000000" fill-rule="nonzero" fill-opacity="1" /><path clip-path="url(#clip960)" d="M147.362 1276.51 L152.246 1276.51 L152.246 1282.39 L147.362 1282.39 L147.362 1276.51 Z" fill="#000000" fill-rule="nonzero" fill-opacity="1" /><path clip-path="url(#clip960)" d="M161.251 1247.83 L183.473 1247.83 L183.473 1249.82 L170.927 1282.39 L166.042 1282.39 L177.848 1251.77 L161.251 1251.77 L161.251 1247.83 Z" fill="#000000" fill-rule="nonzero" fill-opacity="1" /><path clip-path="url(#clip960)" d="M191.413 1247.83 L213.635 1247.83 L213.635 1249.82 L201.088 1282.39 L196.204 1282.39 L208.01 1251.77 L191.413 1251.77 L191.413 1247.83 Z" fill="#000000" fill-rule="nonzero" fill-opacity="1" /><path clip-path="url(#clip960)" d="M222.801 1247.83 L241.158 1247.83 L241.158 1251.77 L227.084 1251.77 L227.084 1260.24 Q228.102 1259.89 229.121 1259.73 Q230.139 1259.55 231.158 1259.55 Q236.945 1259.55 240.324 1262.72 Q243.704 1265.89 243.704 1271.31 Q243.704 1276.88 240.232 1279.99 Q236.76 1283.07 230.44 1283.07 Q228.264 1283.07 225.996 1282.69 Q223.75 1282.32 221.343 1281.58 L221.343 1276.88 Q223.426 1278.02 225.648 1278.57 Q227.871 1279.13 230.347 1279.13 Q234.352 1279.13 236.69 1277.02 Q239.028 1274.92 239.028 1271.31 Q239.028 1267.69 236.69 1265.59 Q234.352 1263.48 230.347 1263.48 Q228.473 1263.48 226.598 1263.9 Q224.746 1264.32 222.801 1265.19 L222.801 1247.83 Z" fill="#000000" fill-rule="nonzero" fill-opacity="1" /><path clip-path="url(#clip960)" d="M126.205 1056.8 Q122.593 1056.8 120.765 1060.36 Q118.959 1063.9 118.959 1071.03 Q118.959 1078.14 120.765 1081.71 Q122.593 1085.25 126.205 1085.25 Q129.839 1085.25 131.644 1081.71 Q133.473 1078.14 133.473 1071.03 Q133.473 1063.9 131.644 1060.36 Q129.839 1056.8 126.205 1056.8 M126.205 1053.09 Q132.015 1053.09 135.07 1057.7 Q138.149 1062.28 138.149 1071.03 Q138.149 1079.76 135.07 1084.37 Q132.015 1088.95 126.205 1088.95 Q120.394 1088.95 117.316 1084.37 Q114.26 1079.76 114.26 1071.03 Q114.26 1062.28 117.316 1057.7 Q120.394 1053.09 126.205 1053.09 Z" fill="#000000" fill-rule="nonzero" fill-opacity="1" /><path clip-path="url(#clip960)" d="M146.366 1082.4 L151.251 1082.4 L151.251 1088.28 L146.366 1088.28 L146.366 1082.4 Z" fill="#000000" fill-rule="nonzero" fill-opacity="1" /><path clip-path="url(#clip960)" d="M160.255 1053.72 L182.477 1053.72 L182.477 1055.71 L169.931 1088.28 L165.047 1088.28 L176.852 1057.65 L160.255 1057.65 L160.255 1053.72 Z" fill="#000000" fill-rule="nonzero" fill-opacity="1" /><path clip-path="url(#clip960)" d="M201.598 1071.87 Q198.264 1071.87 196.343 1073.65 Q194.445 1075.43 194.445 1078.56 Q194.445 1081.68 196.343 1083.46 Q198.264 1085.25 201.598 1085.25 Q204.931 1085.25 206.852 1083.46 Q208.774 1081.66 208.774 1078.56 Q208.774 1075.43 206.852 1073.65 Q204.954 1071.87 201.598 1071.87 M196.922 1069.88 Q193.913 1069.14 192.223 1067.08 Q190.556 1065.02 190.556 1062.05 Q190.556 1057.91 193.496 1055.5 Q196.459 1053.09 201.598 1053.09 Q206.76 1053.09 209.699 1055.5 Q212.639 1057.91 212.639 1062.05 Q212.639 1065.02 210.949 1067.08 Q209.283 1069.14 206.297 1069.88 Q209.676 1070.66 211.551 1072.96 Q213.449 1075.25 213.449 1078.56 Q213.449 1083.58 210.371 1086.27 Q207.315 1088.95 201.598 1088.95 Q195.88 1088.95 192.801 1086.27 Q189.746 1083.58 189.746 1078.56 Q189.746 1075.25 191.644 1072.96 Q193.542 1070.66 196.922 1069.88 M195.209 1062.49 Q195.209 1065.18 196.875 1066.68 Q198.565 1068.19 201.598 1068.19 Q204.607 1068.19 206.297 1066.68 Q208.01 1065.18 208.01 1062.49 Q208.01 1059.81 206.297 1058.3 Q204.607 1056.8 201.598 1056.8 Q198.565 1056.8 196.875 1058.3 Q195.209 1059.81 195.209 1062.49 Z" fill="#000000" fill-rule="nonzero" fill-opacity="1" /><path clip-path="url(#clip960)" d="M231.76 1056.8 Q228.148 1056.8 226.32 1060.36 Q224.514 1063.9 224.514 1071.03 Q224.514 1078.14 226.32 1081.71 Q228.148 1085.25 231.76 1085.25 Q235.394 1085.25 237.199 1081.71 Q239.028 1078.14 239.028 1071.03 Q239.028 1063.9 237.199 1060.36 Q235.394 1056.8 231.76 1056.8 M231.76 1053.09 Q237.57 1053.09 240.625 1057.7 Q243.704 1062.28 243.704 1071.03 Q243.704 1079.76 240.625 1084.37 Q237.57 1088.95 231.76 1088.95 Q225.949 1088.95 222.871 1084.37 Q219.815 1079.76 219.815 1071.03 Q219.815 1062.28 222.871 1057.7 Q225.949 1053.09 231.76 1053.09 Z" fill="#000000" fill-rule="nonzero" fill-opacity="1" /><path clip-path="url(#clip960)" d="M127.2 862.683 Q123.589 862.683 121.76 866.248 Q119.955 869.789 119.955 876.919 Q119.955 884.025 121.76 887.59 Q123.589 891.132 127.2 891.132 Q130.834 891.132 132.64 887.59 Q134.468 884.025 134.468 876.919 Q134.468 869.789 132.64 866.248 Q130.834 862.683 127.2 862.683 M127.2 858.979 Q133.01 858.979 136.066 863.586 Q139.144 868.169 139.144 876.919 Q139.144 885.646 136.066 890.252 Q133.01 894.836 127.2 894.836 Q121.39 894.836 118.311 890.252 Q115.256 885.646 115.256 876.919 Q115.256 868.169 118.311 863.586 Q121.39 858.979 127.2 858.979 Z" fill="#000000" fill-rule="nonzero" fill-opacity="1" /><path clip-path="url(#clip960)" d="M147.362 888.285 L152.246 888.285 L152.246 894.164 L147.362 894.164 L147.362 888.285 Z" fill="#000000" fill-rule="nonzero" fill-opacity="1" /><path clip-path="url(#clip960)" d="M161.251 859.604 L183.473 859.604 L183.473 861.595 L170.927 894.164 L166.042 894.164 L177.848 863.539 L161.251 863.539 L161.251 859.604 Z" fill="#000000" fill-rule="nonzero" fill-opacity="1" /><path clip-path="url(#clip960)" d="M202.593 877.752 Q199.26 877.752 197.338 879.535 Q195.44 881.317 195.44 884.442 Q195.44 887.567 197.338 889.349 Q199.26 891.132 202.593 891.132 Q205.926 891.132 207.848 889.349 Q209.769 887.544 209.769 884.442 Q209.769 881.317 207.848 879.535 Q205.949 877.752 202.593 877.752 M197.917 875.762 Q194.908 875.021 193.218 872.961 Q191.551 870.9 191.551 867.938 Q191.551 863.794 194.491 861.387 Q197.454 858.979 202.593 858.979 Q207.755 858.979 210.695 861.387 Q213.635 863.794 213.635 867.938 Q213.635 870.9 211.945 872.961 Q210.278 875.021 207.292 875.762 Q210.672 876.549 212.547 878.84 Q214.445 881.132 214.445 884.442 Q214.445 889.465 211.366 892.15 Q208.311 894.836 202.593 894.836 Q196.875 894.836 193.797 892.15 Q190.741 889.465 190.741 884.442 Q190.741 881.132 192.639 878.84 Q194.538 876.549 197.917 875.762 M196.204 868.377 Q196.204 871.062 197.871 872.567 Q199.561 874.072 202.593 874.072 Q205.602 874.072 207.292 872.567 Q209.005 871.062 209.005 868.377 Q209.005 865.692 207.292 864.188 Q205.602 862.683 202.593 862.683 Q199.561 862.683 197.871 864.188 Q196.204 865.692 196.204 868.377 Z" fill="#000000" fill-rule="nonzero" fill-opacity="1" /><path clip-path="url(#clip960)" d="M222.801 859.604 L241.158 859.604 L241.158 863.539 L227.084 863.539 L227.084 872.012 Q228.102 871.664 229.121 871.502 Q230.139 871.317 231.158 871.317 Q236.945 871.317 240.324 874.488 Q243.704 877.66 243.704 883.076 Q243.704 888.655 240.232 891.757 Q236.76 894.836 230.44 894.836 Q228.264 894.836 225.996 894.465 Q223.75 894.095 221.343 893.354 L221.343 888.655 Q223.426 889.789 225.648 890.345 Q227.871 890.9 230.347 890.9 Q234.352 890.9 236.69 888.794 Q239.028 886.687 239.028 883.076 Q239.028 879.465 236.69 877.359 Q234.352 875.252 230.347 875.252 Q228.473 875.252 226.598 875.669 Q224.746 876.086 222.801 876.965 L222.801 859.604 Z" fill="#000000" fill-rule="nonzero" fill-opacity="1" /><path clip-path="url(#clip960)" d="M126.205 668.568 Q122.593 668.568 120.765 672.133 Q118.959 675.675 118.959 682.804 Q118.959 689.911 120.765 693.475 Q122.593 697.017 126.205 697.017 Q129.839 697.017 131.644 693.475 Q133.473 689.911 133.473 682.804 Q133.473 675.675 131.644 672.133 Q129.839 668.568 126.205 668.568 M126.205 664.864 Q132.015 664.864 135.07 669.471 Q138.149 674.054 138.149 682.804 Q138.149 691.531 135.07 696.137 Q132.015 700.721 126.205 700.721 Q120.394 700.721 117.316 696.137 Q114.26 691.531 114.26 682.804 Q114.26 674.054 117.316 669.471 Q120.394 664.864 126.205 664.864 Z" fill="#000000" fill-rule="nonzero" fill-opacity="1" /><path clip-path="url(#clip960)" d="M146.366 694.17 L151.251 694.17 L151.251 700.049 L146.366 700.049 L146.366 694.17 Z" fill="#000000" fill-rule="nonzero" fill-opacity="1" /><path clip-path="url(#clip960)" d="M160.255 665.489 L182.477 665.489 L182.477 667.48 L169.931 700.049 L165.047 700.049 L176.852 669.425 L160.255 669.425 L160.255 665.489 Z" fill="#000000" fill-rule="nonzero" fill-opacity="1" /><path clip-path="url(#clip960)" d="M191.737 699.332 L191.737 695.073 Q193.496 695.906 195.301 696.346 Q197.107 696.786 198.843 696.786 Q203.473 696.786 205.903 693.684 Q208.357 690.559 208.704 684.216 Q207.362 686.207 205.301 687.272 Q203.241 688.336 200.741 688.336 Q195.556 688.336 192.524 685.212 Q189.514 682.063 189.514 676.624 Q189.514 671.3 192.663 668.082 Q195.811 664.864 201.042 664.864 Q207.037 664.864 210.186 669.471 Q213.357 674.054 213.357 682.804 Q213.357 690.975 209.468 695.86 Q205.602 700.721 199.051 700.721 Q197.292 700.721 195.487 700.373 Q193.681 700.026 191.737 699.332 M201.042 684.679 Q204.19 684.679 206.019 682.526 Q207.871 680.374 207.871 676.624 Q207.871 672.897 206.019 670.744 Q204.19 668.568 201.042 668.568 Q197.894 668.568 196.042 670.744 Q194.213 672.897 194.213 676.624 Q194.213 680.374 196.042 682.526 Q197.894 684.679 201.042 684.679 Z" fill="#000000" fill-rule="nonzero" fill-opacity="1" /><path clip-path="url(#clip960)" d="M231.76 668.568 Q228.148 668.568 226.32 672.133 Q224.514 675.675 224.514 682.804 Q224.514 689.911 226.32 693.475 Q228.148 697.017 231.76 697.017 Q235.394 697.017 237.199 693.475 Q239.028 689.911 239.028 682.804 Q239.028 675.675 237.199 672.133 Q235.394 668.568 231.76 668.568 M231.76 664.864 Q237.57 664.864 240.625 669.471 Q243.704 674.054 243.704 682.804 Q243.704 691.531 240.625 696.137 Q237.57 700.721 231.76 700.721 Q225.949 700.721 222.871 696.137 Q219.815 691.531 219.815 682.804 Q219.815 674.054 222.871 669.471 Q225.949 664.864 231.76 664.864 Z" fill="#000000" fill-rule="nonzero" fill-opacity="1" /><path clip-path="url(#clip960)" d="M127.2 474.453 Q123.589 474.453 121.76 478.018 Q119.955 481.56 119.955 488.689 Q119.955 495.796 121.76 499.361 Q123.589 502.902 127.2 502.902 Q130.834 502.902 132.64 499.361 Q134.468 495.796 134.468 488.689 Q134.468 481.56 132.64 478.018 Q130.834 474.453 127.2 474.453 M127.2 470.75 Q133.01 470.75 136.066 475.356 Q139.144 479.939 139.144 488.689 Q139.144 497.416 136.066 502.023 Q133.01 506.606 127.2 506.606 Q121.39 506.606 118.311 502.023 Q115.256 497.416 115.256 488.689 Q115.256 479.939 118.311 475.356 Q121.39 470.75 127.2 470.75 Z" fill="#000000" fill-rule="nonzero" fill-opacity="1" /><path clip-path="url(#clip960)" d="M147.362 500.055 L152.246 500.055 L152.246 505.935 L147.362 505.935 L147.362 500.055 Z" fill="#000000" fill-rule="nonzero" fill-opacity="1" /><path clip-path="url(#clip960)" d="M161.251 471.375 L183.473 471.375 L183.473 473.365 L170.927 505.935 L166.042 505.935 L177.848 475.31 L161.251 475.31 L161.251 471.375 Z" fill="#000000" fill-rule="nonzero" fill-opacity="1" /><path clip-path="url(#clip960)" d="M192.732 505.217 L192.732 500.958 Q194.491 501.791 196.297 502.231 Q198.102 502.671 199.838 502.671 Q204.468 502.671 206.899 499.569 Q209.352 496.444 209.699 490.101 Q208.357 492.092 206.297 493.157 Q204.237 494.222 201.737 494.222 Q196.551 494.222 193.519 491.097 Q190.51 487.949 190.51 482.509 Q190.51 477.185 193.658 473.967 Q196.806 470.75 202.037 470.75 Q208.033 470.75 211.181 475.356 Q214.352 479.939 214.352 488.689 Q214.352 496.861 210.463 501.745 Q206.598 506.606 200.047 506.606 Q198.287 506.606 196.482 506.259 Q194.676 505.911 192.732 505.217 M202.037 490.564 Q205.186 490.564 207.014 488.411 Q208.866 486.259 208.866 482.509 Q208.866 478.782 207.014 476.629 Q205.186 474.453 202.037 474.453 Q198.889 474.453 197.037 476.629 Q195.209 478.782 195.209 482.509 Q195.209 486.259 197.037 488.411 Q198.889 490.564 202.037 490.564 Z" fill="#000000" fill-rule="nonzero" fill-opacity="1" /><path clip-path="url(#clip960)" d="M222.801 471.375 L241.158 471.375 L241.158 475.31 L227.084 475.31 L227.084 483.782 Q228.102 483.435 229.121 483.273 Q230.139 483.087 231.158 483.087 Q236.945 483.087 240.324 486.259 Q243.704 489.43 243.704 494.847 Q243.704 500.425 240.232 503.527 Q236.76 506.606 230.44 506.606 Q228.264 506.606 225.996 506.235 Q223.75 505.865 221.343 505.124 L221.343 500.425 Q223.426 501.56 225.648 502.115 Q227.871 502.671 230.347 502.671 Q234.352 502.671 236.69 500.564 Q239.028 498.458 239.028 494.847 Q239.028 491.236 236.69 489.129 Q234.352 487.023 230.347 487.023 Q228.473 487.023 226.598 487.439 Q224.746 487.856 222.801 488.736 L222.801 471.375 Z" fill="#000000" fill-rule="nonzero" fill-opacity="1" /><path clip-path="url(#clip960)" d="M126.205 280.338 Q122.593 280.338 120.765 283.903 Q118.959 287.445 118.959 294.574 Q118.959 301.681 120.765 305.246 Q122.593 308.787 126.205 308.787 Q129.839 308.787 131.644 305.246 Q133.473 301.681 133.473 294.574 Q133.473 287.445 131.644 283.903 Q129.839 280.338 126.205 280.338 M126.205 276.635 Q132.015 276.635 135.07 281.241 Q138.149 285.824 138.149 294.574 Q138.149 303.301 135.07 307.908 Q132.015 312.491 126.205 312.491 Q120.394 312.491 117.316 307.908 Q114.26 303.301 114.26 294.574 Q114.26 285.824 117.316 281.241 Q120.394 276.635 126.205 276.635 Z" fill="#000000" fill-rule="nonzero" fill-opacity="1" /><path clip-path="url(#clip960)" d="M146.366 305.94 L151.251 305.94 L151.251 311.82 L146.366 311.82 L146.366 305.94 Z" fill="#000000" fill-rule="nonzero" fill-opacity="1" /><path clip-path="url(#clip960)" d="M171.436 295.408 Q168.102 295.408 166.181 297.19 Q164.283 298.973 164.283 302.098 Q164.283 305.223 166.181 307.005 Q168.102 308.787 171.436 308.787 Q174.769 308.787 176.69 307.005 Q178.612 305.199 178.612 302.098 Q178.612 298.973 176.69 297.19 Q174.792 295.408 171.436 295.408 M166.76 293.417 Q163.751 292.676 162.061 290.616 Q160.394 288.556 160.394 285.593 Q160.394 281.45 163.334 279.042 Q166.297 276.635 171.436 276.635 Q176.598 276.635 179.538 279.042 Q182.477 281.45 182.477 285.593 Q182.477 288.556 180.788 290.616 Q179.121 292.676 176.135 293.417 Q179.514 294.204 181.389 296.496 Q183.288 298.787 183.288 302.098 Q183.288 307.121 180.209 309.806 Q177.153 312.491 171.436 312.491 Q165.718 312.491 162.64 309.806 Q159.584 307.121 159.584 302.098 Q159.584 298.787 161.482 296.496 Q163.38 294.204 166.76 293.417 M165.047 286.033 Q165.047 288.718 166.714 290.223 Q168.403 291.727 171.436 291.727 Q174.445 291.727 176.135 290.223 Q177.848 288.718 177.848 286.033 Q177.848 283.348 176.135 281.843 Q174.445 280.338 171.436 280.338 Q168.403 280.338 166.714 281.843 Q165.047 283.348 165.047 286.033 Z" fill="#000000" fill-rule="nonzero" fill-opacity="1" /><path clip-path="url(#clip960)" d="M201.598 280.338 Q197.987 280.338 196.158 283.903 Q194.352 287.445 194.352 294.574 Q194.352 301.681 196.158 305.246 Q197.987 308.787 201.598 308.787 Q205.232 308.787 207.037 305.246 Q208.866 301.681 208.866 294.574 Q208.866 287.445 207.037 283.903 Q205.232 280.338 201.598 280.338 M201.598 276.635 Q207.408 276.635 210.463 281.241 Q213.542 285.824 213.542 294.574 Q213.542 303.301 210.463 307.908 Q207.408 312.491 201.598 312.491 Q195.787 312.491 192.709 307.908 Q189.653 303.301 189.653 294.574 Q189.653 285.824 192.709 281.241 Q195.787 276.635 201.598 276.635 Z" fill="#000000" fill-rule="nonzero" fill-opacity="1" /><path clip-path="url(#clip960)" d="M231.76 280.338 Q228.148 280.338 226.32 283.903 Q224.514 287.445 224.514 294.574 Q224.514 301.681 226.32 305.246 Q228.148 308.787 231.76 308.787 Q235.394 308.787 237.199 305.246 Q239.028 301.681 239.028 294.574 Q239.028 287.445 237.199 283.903 Q235.394 280.338 231.76 280.338 M231.76 276.635 Q237.57 276.635 240.625 281.241 Q243.704 285.824 243.704 294.574 Q243.704 303.301 240.625 307.908 Q237.57 312.491 231.76 312.491 Q225.949 312.491 222.871 307.908 Q219.815 303.301 219.815 294.574 Q219.815 285.824 222.871 281.241 Q225.949 276.635 231.76 276.635 Z" fill="#000000" fill-rule="nonzero" fill-opacity="1" /><path clip-path="url(#clip960)" d="M127.2 86.2236 Q123.589 86.2236 121.76 89.7884 Q119.955 93.33 119.955 100.46 Q119.955 107.566 121.76 111.131 Q123.589 114.672 127.2 114.672 Q130.834 114.672 132.64 111.131 Q134.468 107.566 134.468 100.46 Q134.468 93.33 132.64 89.7884 Q130.834 86.2236 127.2 86.2236 M127.2 82.5199 Q133.01 82.5199 136.066 87.1263 Q139.144 91.7096 139.144 100.46 Q139.144 109.186 136.066 113.793 Q133.01 118.376 127.2 118.376 Q121.39 118.376 118.311 113.793 Q115.256 109.186 115.256 100.46 Q115.256 91.7096 118.311 87.1263 Q121.39 82.5199 127.2 82.5199 Z" fill="#000000" fill-rule="nonzero" fill-opacity="1" /><path clip-path="url(#clip960)" d="M147.362 111.825 L152.246 111.825 L152.246 117.705 L147.362 117.705 L147.362 111.825 Z" fill="#000000" fill-rule="nonzero" fill-opacity="1" /><path clip-path="url(#clip960)" d="M172.431 101.293 Q169.098 101.293 167.177 103.075 Q165.278 104.858 165.278 107.983 Q165.278 111.108 167.177 112.89 Q169.098 114.672 172.431 114.672 Q175.764 114.672 177.686 112.89 Q179.607 111.085 179.607 107.983 Q179.607 104.858 177.686 103.075 Q175.788 101.293 172.431 101.293 M167.755 99.3022 Q164.746 98.5615 163.056 96.5013 Q161.39 94.4411 161.39 91.4782 Q161.39 87.3347 164.329 84.9273 Q167.292 82.5199 172.431 82.5199 Q177.593 82.5199 180.533 84.9273 Q183.473 87.3347 183.473 91.4782 Q183.473 94.4411 181.783 96.5013 Q180.116 98.5615 177.13 99.3022 Q180.51 100.089 182.385 102.381 Q184.283 104.673 184.283 107.983 Q184.283 113.006 181.204 115.691 Q178.149 118.376 172.431 118.376 Q166.714 118.376 163.635 115.691 Q160.579 113.006 160.579 107.983 Q160.579 104.673 162.477 102.381 Q164.376 100.089 167.755 99.3022 M166.042 91.918 Q166.042 94.6031 167.709 96.1078 Q169.399 97.6124 172.431 97.6124 Q175.44 97.6124 177.13 96.1078 Q178.843 94.6031 178.843 91.918 Q178.843 89.2328 177.13 87.7282 Q175.44 86.2236 172.431 86.2236 Q169.399 86.2236 167.709 87.7282 Q166.042 89.2328 166.042 91.918 Z" fill="#000000" fill-rule="nonzero" fill-opacity="1" /><path clip-path="url(#clip960)" d="M202.593 86.2236 Q198.982 86.2236 197.153 89.7884 Q195.348 93.33 195.348 100.46 Q195.348 107.566 197.153 111.131 Q198.982 114.672 202.593 114.672 Q206.227 114.672 208.033 111.131 Q209.861 107.566 209.861 100.46 Q209.861 93.33 208.033 89.7884 Q206.227 86.2236 202.593 86.2236 M202.593 82.5199 Q208.403 82.5199 211.459 87.1263 Q214.537 91.7096 214.537 100.46 Q214.537 109.186 211.459 113.793 Q208.403 118.376 202.593 118.376 Q196.783 118.376 193.704 113.793 Q190.649 109.186 190.649 100.46 Q190.649 91.7096 193.704 87.1263 Q196.783 82.5199 202.593 82.5199 Z" fill="#000000" fill-rule="nonzero" fill-opacity="1" /><path clip-path="url(#clip960)" d="M222.801 83.1449 L241.158 83.1449 L241.158 87.08 L227.084 87.08 L227.084 95.5522 Q228.102 95.205 229.121 95.043 Q230.139 94.8578 231.158 94.8578 Q236.945 94.8578 240.324 98.0291 Q243.704 101.2 243.704 106.617 Q243.704 112.196 240.232 115.297 Q236.76 118.376 230.44 118.376 Q228.264 118.376 225.996 118.006 Q223.75 117.635 221.343 116.895 L221.343 112.196 Q223.426 113.33 225.648 113.885 Q227.871 114.441 230.347 114.441 Q234.352 114.441 236.69 112.335 Q239.028 110.228 239.028 106.617 Q239.028 103.006 236.69 100.899 Q234.352 98.7929 230.347 98.7929 Q228.473 98.7929 226.598 99.2096 Q224.746 99.6263 222.801 100.506 L222.801 83.1449 Z" fill="#000000" fill-rule="nonzero" fill-opacity="1" /><path clip-path="url(#clip960)" d="M35.1993 774.218 Q31.2526 772.022 29.3747 768.966 Q27.4968 765.911 27.4968 761.773 Q27.4968 756.203 31.4117 753.179 Q35.2948 750.155 42.4881 750.155 L64.0042 750.155 L64.0042 756.044 L42.679 756.044 Q37.5546 756.044 35.072 757.858 Q32.5894 759.672 32.5894 763.396 Q32.5894 767.948 35.6131 770.589 Q38.6368 773.231 43.8567 773.231 L64.0042 773.231 L64.0042 779.119 L42.679 779.119 Q37.5228 779.119 35.072 780.934 Q32.5894 782.748 32.5894 786.535 Q32.5894 791.023 35.6449 793.665 Q38.6686 796.307 43.8567 796.307 L64.0042 796.307 L64.0042 802.195 L28.3562 802.195 L28.3562 796.307 L33.8944 796.307 Q30.616 794.302 29.0564 791.501 Q27.4968 788.7 27.4968 784.849 Q27.4968 780.965 29.4702 778.26 Q31.4436 775.523 35.1993 774.218 Z" fill="#000000" fill-rule="nonzero" fill-opacity="1" /><path clip-path="url(#clip960)" d="M46.0847 722.274 Q46.0847 729.371 47.7079 732.109 Q49.3312 734.846 53.2461 734.846 Q56.3653 734.846 58.2114 732.809 Q60.0256 730.74 60.0256 727.207 Q60.0256 722.337 56.5881 719.409 Q53.1188 716.449 47.3897 716.449 L46.0847 716.449 L46.0847 722.274 M43.6657 710.593 L64.0042 710.593 L64.0042 716.449 L58.5933 716.449 Q61.8398 718.454 63.3994 721.446 Q64.9272 724.438 64.9272 728.767 Q64.9272 734.241 61.8716 737.488 Q58.7843 740.702 53.6281 740.702 Q47.6125 740.702 44.5569 736.692 Q41.5014 732.65 41.5014 724.661 L41.5014 716.449 L40.9285 716.449 Q36.8862 716.449 34.6901 719.123 Q32.4621 721.764 32.4621 726.571 Q32.4621 729.626 33.1941 732.522 Q33.9262 735.419 35.3903 738.092 L29.9795 738.092 Q28.7381 734.878 28.1334 731.854 Q27.4968 728.83 27.4968 725.966 Q27.4968 718.231 31.5072 714.412 Q35.5176 710.593 43.6657 710.593 Z" fill="#000000" fill-rule="nonzero" fill-opacity="1" /><path clip-path="url(#clip960)" d="M28.3562 668.897 L45.7028 681.788 L64.0042 668.229 L64.0042 675.136 L49.9996 685.512 L64.0042 695.888 L64.0042 702.795 L45.3526 688.949 L28.3562 701.617 L28.3562 694.71 L41.0558 685.257 L28.3562 675.804 L28.3562 668.897 Z" fill="#000000" fill-rule="nonzero" fill-opacity="1" /><polyline clip-path="url(#clip961)" style="stroke:#009af9; stroke-linecap:round; stroke-linejoin:round; stroke-width:8; stroke-opacity:1; fill:none" points="338.375,1384.24 346.653,1373.07 "/>
<polyline clip-path="url(#clip961)" style="stroke:#009af9; stroke-linecap:round; stroke-linejoin:round; stroke-width:8; stroke-opacity:1; fill:none" points="346.653,1373.07 358.439,1357.24 "/>
<polyline clip-path="url(#clip961)" style="stroke:#009af9; stroke-linecap:round; stroke-linejoin:round; stroke-width:8; stroke-opacity:1; fill:none" points="358.439,1357.24 375.216,1334.85 "/>
<polyline clip-path="url(#clip961)" style="stroke:#009af9; stroke-linecap:round; stroke-linejoin:round; stroke-width:8; stroke-opacity:1; fill:none" points="375.216,1334.85 399.1,1303.29 "/>
<polyline clip-path="url(#clip961)" style="stroke:#009af9; stroke-linecap:round; stroke-linejoin:round; stroke-width:8; stroke-opacity:1; fill:none" points="399.1,1303.29 433.104,1259.02 "/>
<polyline clip-path="url(#clip961)" style="stroke:#009af9; stroke-linecap:round; stroke-linejoin:round; stroke-width:8; stroke-opacity:1; fill:none" points="433.104,1259.02 474.557,1206.16 "/>
<polyline clip-path="url(#clip961)" style="stroke:#009af9; stroke-linecap:round; stroke-linejoin:round; stroke-width:8; stroke-opacity:1; fill:none" points="474.557,1206.16 516.017,1154.61 "/>
<polyline clip-path="url(#clip961)" style="stroke:#009af9; stroke-linecap:round; stroke-linejoin:round; stroke-width:8; stroke-opacity:1; fill:none" points="516.017,1154.61 557.479,1104.5 "/>
<polyline clip-path="url(#clip961)" style="stroke:#009af9; stroke-linecap:round; stroke-linejoin:round; stroke-width:8; stroke-opacity:1; fill:none" points="557.479,1104.5 598.941,1055.93 "/>
<polyline clip-path="url(#clip961)" style="stroke:#009af9; stroke-linecap:round; stroke-linejoin:round; stroke-width:8; stroke-opacity:1; fill:none" points="598.941,1055.93 640.402,1007.46 "/>
<polyline clip-path="url(#clip961)" style="stroke:#009af9; stroke-linecap:round; stroke-linejoin:round; stroke-width:8; stroke-opacity:1; fill:none" points="640.402,1007.46 681.861,958.052 "/>
<polyline clip-path="url(#clip961)" style="stroke:#009af9; stroke-linecap:round; stroke-linejoin:round; stroke-width:8; stroke-opacity:1; fill:none" points="681.861,958.052 723.317,910.272 "/>
<polyline clip-path="url(#clip961)" style="stroke:#009af9; stroke-linecap:round; stroke-linejoin:round; stroke-width:8; stroke-opacity:1; fill:none" points="723.317,910.272 764.77,864.232 "/>
<polyline clip-path="url(#clip961)" style="stroke:#009af9; stroke-linecap:round; stroke-linejoin:round; stroke-width:4; stroke-opacity:1; fill:none" points="764.77,864.232 806.219,820.034 "/>
<polyline clip-path="url(#clip961)" style="stroke:#009af9; stroke-linecap:round; stroke-linejoin:round; stroke-width:4; stroke-opacity:1; fill:none" points="806.219,820.034 847.665,777.39 "/>
<polyline clip-path="url(#clip961)" style="stroke:#009af9; stroke-linecap:round; stroke-linejoin:round; stroke-width:4; stroke-opacity:1; fill:none" points="847.665,777.39 889.107,732.1 "/>
<polyline clip-path="url(#clip961)" style="stroke:#009af9; stroke-linecap:round; stroke-linejoin:round; stroke-width:4; stroke-opacity:1; fill:none" points="889.107,732.1 930.545,688.808 "/>
<polyline clip-path="url(#clip961)" style="stroke:#009af9; stroke-linecap:round; stroke-linejoin:round; stroke-width:4; stroke-opacity:1; fill:none" points="930.545,688.808 971.98,647.608 "/>
<polyline clip-path="url(#clip961)" style="stroke:#009af9; stroke-linecap:round; stroke-linejoin:round; stroke-width:4; stroke-opacity:1; fill:none" points="971.98,647.608 1013.41,608.592 "/>
<polyline clip-path="url(#clip961)" style="stroke:#009af9; stroke-linecap:round; stroke-linejoin:round; stroke-width:4; stroke-opacity:1; fill:none" points="1013.41,608.592 1054.84,569.509 "/>
<polyline clip-path="url(#clip961)" style="stroke:#009af9; stroke-linecap:round; stroke-linejoin:round; stroke-width:4; stroke-opacity:1; fill:none" points="1054.84,569.509 1096.26,529.544 "/>
<polyline clip-path="url(#clip961)" style="stroke:#009af9; stroke-linecap:round; stroke-linejoin:round; stroke-width:4; stroke-opacity:1; fill:none" points="1096.26,529.544 1137.68,491.944 "/>
<polyline clip-path="url(#clip961)" style="stroke:#009af9; stroke-linecap:round; stroke-linejoin:round; stroke-width:4; stroke-opacity:1; fill:none" points="1137.68,491.944 1179.09,456.805 "/>
<polyline clip-path="url(#clip961)" style="stroke:#009af9; stroke-linecap:round; stroke-linejoin:round; stroke-width:4; stroke-opacity:1; fill:none" points="1179.09,456.805 1220.5,424.023 "/>
<polyline clip-path="url(#clip961)" style="stroke:#009af9; stroke-linecap:round; stroke-linejoin:round; stroke-width:4; stroke-opacity:1; fill:none" points="1220.5,424.023 1261.91,388.169 "/>
<polyline clip-path="url(#clip961)" style="stroke:#009af9; stroke-linecap:round; stroke-linejoin:round; stroke-width:4; stroke-opacity:1; fill:none" points="1261.91,388.169 1303.31,354.993 "/>
<polyline clip-path="url(#clip961)" style="stroke:#009af9; stroke-linecap:round; stroke-linejoin:round; stroke-width:4; stroke-opacity:1; fill:none" points="1303.31,354.993 1344.71,324.606 "/>
<polyline clip-path="url(#clip961)" style="stroke:#009af9; stroke-linecap:round; stroke-linejoin:round; stroke-width:4; stroke-opacity:1; fill:none" points="1344.71,324.606 1386.1,297.127 "/>
<polyline clip-path="url(#clip961)" style="stroke:#009af9; stroke-linecap:round; stroke-linejoin:round; stroke-width:4; stroke-opacity:1; fill:none" points="1386.1,297.127 1427.49,267.706 "/>
<polyline clip-path="url(#clip961)" style="stroke:#009af9; stroke-linecap:round; stroke-linejoin:round; stroke-width:4; stroke-opacity:1; fill:none" points="1427.49,267.706 1468.87,240.04 "/>
<polyline clip-path="url(#clip961)" style="stroke:#009af9; stroke-linecap:round; stroke-linejoin:round; stroke-width:4; stroke-opacity:1; fill:none" points="1468.87,240.04 1510.24,215.58 "/>
<polyline clip-path="url(#clip961)" style="stroke:#009af9; stroke-linecap:round; stroke-linejoin:round; stroke-width:4; stroke-opacity:1; fill:none" points="1510.24,215.58 1551.61,194.48 "/>
<polyline clip-path="url(#clip961)" style="stroke:#009af9; stroke-linecap:round; stroke-linejoin:round; stroke-width:4; stroke-opacity:1; fill:none" points="1551.61,194.48 1592.97,172.54 "/>
<polyline clip-path="url(#clip961)" style="stroke:#009af9; stroke-linecap:round; stroke-linejoin:round; stroke-width:4; stroke-opacity:1; fill:none" points="1592.97,172.54 1634.33,151.867 "/>
<polyline clip-path="url(#clip961)" style="stroke:#009af9; stroke-linecap:round; stroke-linejoin:round; stroke-width:4; stroke-opacity:1; fill:none" points="1634.33,151.867 1675.67,134.967 "/>
<polyline clip-path="url(#clip961)" style="stroke:#009af9; stroke-linecap:round; stroke-linejoin:round; stroke-width:4; stroke-opacity:1; fill:none" points="1675.67,134.967 1717.01,122.054 "/>
<polyline clip-path="url(#clip961)" style="stroke:#009af9; stroke-linecap:round; stroke-linejoin:round; stroke-width:4; stroke-opacity:1; fill:none" points="1717.01,122.054 1758.34,108.939 "/>
<polyline clip-path="url(#clip961)" style="stroke:#009af9; stroke-linecap:round; stroke-linejoin:round; stroke-width:4; stroke-opacity:1; fill:none" points="1758.34,108.939 1799.66,97.3945 "/>
<polyline clip-path="url(#clip961)" style="stroke:#009af9; stroke-linecap:round; stroke-linejoin:round; stroke-width:4; stroke-opacity:1; fill:none" points="1799.66,97.3945 1840.97,90.4489 "/>
<polyline clip-path="url(#clip961)" style="stroke:#009af9; stroke-linecap:round; stroke-linejoin:round; stroke-width:4; stroke-opacity:1; fill:none" points="1840.97,90.4489 1882.26,88.4199 "/>
<polyline clip-path="url(#clip961)" style="stroke:#009af9; stroke-linecap:round; stroke-linejoin:round; stroke-width:4; stroke-opacity:1; fill:none" points="1882.26,88.4199 1923.54,86.1857 "/>
<polyline clip-path="url(#clip961)" style="stroke:#009af9; stroke-linecap:round; stroke-linejoin:round; stroke-width:4; stroke-opacity:1; fill:none" points="1923.54,86.1857 1964.81,87.0462 "/>
<polyline clip-path="url(#clip961)" style="stroke:#009af9; stroke-linecap:round; stroke-linejoin:round; stroke-width:4; stroke-opacity:1; fill:none" points="1964.81,87.0462 2006.06,93.7976 "/>
<polyline clip-path="url(#clip961)" style="stroke:#009af9; stroke-linecap:round; stroke-linejoin:round; stroke-width:4; stroke-opacity:1; fill:none" points="2006.06,93.7976 2047.29,106.947 "/>
<polyline clip-path="url(#clip961)" style="stroke:#009af9; stroke-linecap:round; stroke-linejoin:round; stroke-width:4; stroke-opacity:1; fill:none" points="2047.29,106.947 2088.5,118.886 "/>
<polyline clip-path="url(#clip961)" style="stroke:#009af9; stroke-linecap:round; stroke-linejoin:round; stroke-width:4; stroke-opacity:1; fill:none" points="2088.5,118.886 2129.68,137.569 "/>
<polyline clip-path="url(#clip961)" style="stroke:#009af9; stroke-linecap:round; stroke-linejoin:round; stroke-width:4; stroke-opacity:1; fill:none" points="2129.68,137.569 2170.84,164.33 "/>
<polyline clip-path="url(#clip961)" style="stroke:#009af9; stroke-linecap:round; stroke-linejoin:round; stroke-width:4; stroke-opacity:1; fill:none" points="2170.84,164.33 2211.96,196.424 "/>
<polyline clip-path="url(#clip961)" style="stroke:#009af9; stroke-linecap:round; stroke-linejoin:round; stroke-width:4; stroke-opacity:1; fill:none" points="2211.96,196.424 2253.05,231.962 "/>
<polyline clip-path="url(#clip961)" style="stroke:#009af9; stroke-linecap:round; stroke-linejoin:round; stroke-width:4; stroke-opacity:1; fill:none" points="2253.05,231.962 2294.08,278.235 "/>
<circle clip-path="url(#clip961)" cx="764.77" cy="864.232" r="10.8" fill="#008000" fill-rule="evenodd" fill-opacity="1" stroke="none"/>
<circle clip-path="url(#clip961)" cx="764.77" cy="864.232" r="10.8" fill="#008000" fill-rule="evenodd" fill-opacity="1" stroke="none"/>
<path clip-path="url(#clip960)" d="M348.806 196.789 L607.685 196.789 L607.685 93.1086 L348.806 93.1086  Z" fill="#ffffff" fill-rule="evenodd" fill-opacity="1"/>
<polyline clip-path="url(#clip960)" style="stroke:#000000; stroke-linecap:round; stroke-linejoin:round; stroke-width:4; stroke-opacity:1; fill:none" points="348.806,196.789 607.685,196.789 607.685,93.1086 348.806,93.1086 348.806,196.789 "/>
<circle clip-path="url(#clip960)" cx="440.941" cy="144.949" r="23.04" fill="#008000" fill-rule="evenodd" fill-opacity="1" stroke="none"/>
<path clip-path="url(#clip960)" d="M537.359 158.34 L537.359 172.09 L533.077 172.09 L533.077 136.303 L537.359 136.303 L537.359 140.238 Q538.702 137.923 540.739 136.812 Q542.799 135.678 545.646 135.678 Q550.369 135.678 553.308 139.428 Q556.271 143.178 556.271 149.289 Q556.271 155.4 553.308 159.15 Q550.369 162.9 545.646 162.9 Q542.799 162.9 540.739 161.789 Q538.702 160.655 537.359 158.34 M551.85 149.289 Q551.85 144.59 549.906 141.928 Q547.984 139.243 544.605 139.243 Q541.225 139.243 539.281 141.928 Q537.359 144.59 537.359 149.289 Q537.359 153.988 539.281 156.673 Q541.225 159.335 544.605 159.335 Q547.984 159.335 549.906 156.673 Q551.85 153.988 551.85 149.289 Z" fill="#000000" fill-rule="nonzero" fill-opacity="1" /><path clip-path="url(#clip960)" d="M580.391 140.238 L580.391 126.21 L584.651 126.21 L584.651 162.229 L580.391 162.229 L580.391 158.34 Q579.049 160.655 576.989 161.789 Q574.952 162.9 572.081 162.9 Q567.382 162.9 564.419 159.15 Q561.48 155.4 561.48 149.289 Q561.48 143.178 564.419 139.428 Q567.382 135.678 572.081 135.678 Q574.952 135.678 576.989 136.812 Q579.049 137.923 580.391 140.238 M565.878 149.289 Q565.878 153.988 567.799 156.673 Q569.743 159.335 573.123 159.335 Q576.503 159.335 578.447 156.673 Q580.391 153.988 580.391 149.289 Q580.391 144.59 578.447 141.928 Q576.503 139.243 573.123 139.243 Q569.743 139.243 567.799 141.928 Q565.878 144.59 565.878 149.289 Z" fill="#000000" fill-rule="nonzero" fill-opacity="1" /></svg>
