<?xml version="1.0" encoding="utf-8"?>
<svg xmlns="http://www.w3.org/2000/svg" xmlns:xlink="http://www.w3.org/1999/xlink" width="600" height="400" viewBox="0 0 2400 1600">
<defs>
  <clipPath id="clip750">
    <rect x="0" y="0" width="2400" height="1600"/>
  </clipPath>
</defs>
<path clip-path="url(#clip750)" d="M0 1600 L2400 1600 L2400 0 L0 0  Z" fill="#ffffff" fill-rule="evenodd" fill-opacity="1"/>
<defs>
  <clipPath id="clip751">
    <rect x="480" y="0" width="1681" height="1600"/>
  </clipPath>
</defs>
<path clip-path="url(#clip750)" d="M250.352 1423.18 L2352.76 1423.18 L2352.76 47.2441 L250.352 47.2441  Z" fill="#ffffff" fill-rule="evenodd" fill-opacity="1"/>
<defs>
  <clipPath id="clip752">
    <rect x="250" y="47" width="2103" height="1377"/>
  </clipPath>
</defs>
<polyline clip-path="url(#clip752)" style="stroke:#000000; stroke-linecap:round; stroke-linejoin:round; stroke-width:2; stroke-opacity:0.1; fill:none" points="309.854,1423.18 309.854,47.2441 "/>
<polyline clip-path="url(#clip752)" style="stroke:#000000; stroke-linecap:round; stroke-linejoin:round; stroke-width:2; stroke-opacity:0.1; fill:none" points="662.56,1423.18 662.56,47.2441 "/>
<polyline clip-path="url(#clip752)" style="stroke:#000000; stroke-linecap:round; stroke-linejoin:round; stroke-width:2; stroke-opacity:0.1; fill:none" points="1015.27,1423.18 1015.27,47.2441 "/>
<polyline clip-path="url(#clip752)" style="stroke:#000000; stroke-linecap:round; stroke-linejoin:round; stroke-width:2; stroke-opacity:0.1; fill:none" points="1367.97,1423.18 1367.97,47.2441 "/>
<polyline clip-path="url(#clip752)" style="stroke:#000000; stroke-linecap:round; stroke-linejoin:round; stroke-width:2; stroke-opacity:0.1; fill:none" points="1720.68,1423.18 1720.68,47.2441 "/>
<polyline clip-path="url(#clip752)" style="stroke:#000000; stroke-linecap:round; stroke-linejoin:round; stroke-width:2; stroke-opacity:0.1; fill:none" points="2073.38,1423.18 2073.38,47.2441 "/>
<polyline clip-path="url(#clip752)" style="stroke:#000000; stroke-linecap:round; stroke-linejoin:round; stroke-width:2; stroke-opacity:0.1; fill:none" points="250.352,1265.74 2352.76,1265.74 "/>
<polyline clip-path="url(#clip752)" style="stroke:#000000; stroke-linecap:round; stroke-linejoin:round; stroke-width:2; stroke-opacity:0.1; fill:none" points="250.352,951.738 2352.76,951.738 "/>
<polyline clip-path="url(#clip752)" style="stroke:#000000; stroke-linecap:round; stroke-linejoin:round; stroke-width:2; stroke-opacity:0.1; fill:none" points="250.352,637.741 2352.76,637.741 "/>
<polyline clip-path="url(#clip752)" style="stroke:#000000; stroke-linecap:round; stroke-linejoin:round; stroke-width:2; stroke-opacity:0.1; fill:none" points="250.352,323.743 2352.76,323.743 "/>
<polyline clip-path="url(#clip750)" style="stroke:#000000; stroke-linecap:round; stroke-linejoin:round; stroke-width:4; stroke-opacity:1; fill:none" points="250.352,1423.18 2352.76,1423.18 "/>
<polyline clip-path="url(#clip750)" style="stroke:#000000; stroke-linecap:round; stroke-linejoin:round; stroke-width:4; stroke-opacity:1; fill:none" points="309.854,1423.18 309.854,1404.28 "/>
<polyline clip-path="url(#clip750)" style="stroke:#000000; stroke-linecap:round; stroke-linejoin:round; stroke-width:4; stroke-opacity:1; fill:none" points="662.56,1423.18 662.56,1404.28 "/>
<polyline clip-path="url(#clip750)" style="stroke:#000000; stroke-linecap:round; stroke-linejoin:round; stroke-width:4; stroke-opacity:1; fill:none" points="1015.27,1423.18 1015.27,1404.28 "/>
<polyline clip-path="url(#clip750)" style="stroke:#000000; stroke-linecap:round; stroke-linejoin:round; stroke-width:4; stroke-opacity:1; fill:none" points="1367.97,1423.18 1367.97,1404.28 "/>
<polyline clip-path="url(#clip750)" style="stroke:#000000; stroke-linecap:round; stroke-linejoin:round; stroke-width:4; stroke-opacity:1; fill:none" points="1720.68,1423.18 1720.68,1404.28 "/>
<polyline clip-path="url(#clip750)" style="stroke:#000000; stroke-linecap:round; stroke-linejoin:round; stroke-width:4; stroke-opacity:1; fill:none" points="2073.38,1423.18 2073.38,1404.28 "/>
<path clip-path="url(#clip750)" d="M257.077 1454.1 Q253.466 1454.1 251.637 1457.66 Q249.831 1461.2 249.831 1468.33 Q249.831 1475.44 251.637 1479.01 Q253.466 1482.55 257.077 1482.55 Q260.711 1482.55 262.516 1479.01 Q264.345 1475.44 264.345 1468.33 Q264.345 1461.2 262.516 1457.66 Q260.711 1454.1 257.077 1454.1 M257.077 1450.39 Q262.887 1450.39 265.942 1455 Q269.021 1459.58 269.021 1468.33 Q269.021 1477.06 265.942 1481.67 Q262.887 1486.25 257.077 1486.25 Q251.267 1486.25 248.188 1481.67 Q245.132 1477.06 245.132 1468.33 Q245.132 1459.58 248.188 1455 Q251.267 1450.39 257.077 1450.39 Z" fill="#000000" fill-rule="nonzero" fill-opacity="1" /><path clip-path="url(#clip750)" d="M277.239 1479.7 L282.123 1479.7 L282.123 1485.58 L277.239 1485.58 L277.239 1479.7 Z" fill="#000000" fill-rule="nonzero" fill-opacity="1" /><path clip-path="url(#clip750)" d="M302.308 1454.1 Q298.697 1454.1 296.868 1457.66 Q295.063 1461.2 295.063 1468.33 Q295.063 1475.44 296.868 1479.01 Q298.697 1482.55 302.308 1482.55 Q305.942 1482.55 307.748 1479.01 Q309.576 1475.44 309.576 1468.33 Q309.576 1461.2 307.748 1457.66 Q305.942 1454.1 302.308 1454.1 M302.308 1450.39 Q308.118 1450.39 311.174 1455 Q314.252 1459.58 314.252 1468.33 Q314.252 1477.06 311.174 1481.67 Q308.118 1486.25 302.308 1486.25 Q296.498 1486.25 293.419 1481.67 Q290.364 1477.06 290.364 1468.33 Q290.364 1459.58 293.419 1455 Q296.498 1450.39 302.308 1450.39 Z" fill="#000000" fill-rule="nonzero" fill-opacity="1" /><path clip-path="url(#clip750)" d="M332.47 1454.1 Q328.859 1454.1 327.03 1457.66 Q325.224 1461.2 325.224 1468.33 Q325.224 1475.44 327.03 1479.01 Q328.859 1482.55 332.47 1482.55 Q336.104 1482.55 337.91 1479.01 Q339.738 1475.44 339.738 1468.33 Q339.738 1461.2 337.91 1457.66 Q336.104 1454.1 332.47 1454.1 M332.47 1450.39 Q338.28 1450.39 341.336 1455 Q344.414 1459.58 344.414 1468.33 Q344.414 1477.06 341.336 1481.67 Q338.28 1486.25 332.47 1486.25 Q326.66 1486.25 323.581 1481.67 Q320.525 1477.06 320.525 1468.33 Q320.525 1459.58 323.581 1455 Q326.66 1450.39 332.47 1450.39 Z" fill="#000000" fill-rule="nonzero" fill-opacity="1" /><path clip-path="url(#clip750)" d="M362.632 1454.1 Q359.021 1454.1 357.192 1457.66 Q355.386 1461.2 355.386 1468.33 Q355.386 1475.44 357.192 1479.01 Q359.021 1482.55 362.632 1482.55 Q366.266 1482.55 368.071 1479.01 Q369.9 1475.44 369.9 1468.33 Q369.9 1461.2 368.071 1457.66 Q366.266 1454.1 362.632 1454.1 M362.632 1450.39 Q368.442 1450.39 371.497 1455 Q374.576 1459.58 374.576 1468.33 Q374.576 1477.06 371.497 1481.67 Q368.442 1486.25 362.632 1486.25 Q356.822 1486.25 353.743 1481.67 Q350.687 1477.06 350.687 1468.33 Q350.687 1459.58 353.743 1455 Q356.822 1450.39 362.632 1450.39 Z" fill="#000000" fill-rule="nonzero" fill-opacity="1" /><path clip-path="url(#clip750)" d="M610.28 1454.1 Q606.669 1454.1 604.84 1457.66 Q603.035 1461.2 603.035 1468.33 Q603.035 1475.44 604.84 1479.01 Q606.669 1482.55 610.28 1482.55 Q613.914 1482.55 615.72 1479.01 Q617.548 1475.44 617.548 1468.33 Q617.548 1461.2 615.72 1457.66 Q613.914 1454.1 610.28 1454.1 M610.28 1450.39 Q616.09 1450.39 619.146 1455 Q622.224 1459.58 622.224 1468.33 Q622.224 1477.06 619.146 1481.67 Q616.09 1486.25 610.28 1486.25 Q604.47 1486.25 601.391 1481.67 Q598.335 1477.06 598.335 1468.33 Q598.335 1459.58 601.391 1455 Q604.47 1450.39 610.28 1450.39 Z" fill="#000000" fill-rule="nonzero" fill-opacity="1" /><path clip-path="url(#clip750)" d="M630.442 1479.7 L635.326 1479.7 L635.326 1485.58 L630.442 1485.58 L630.442 1479.7 Z" fill="#000000" fill-rule="nonzero" fill-opacity="1" /><path clip-path="url(#clip750)" d="M655.511 1454.1 Q651.9 1454.1 650.071 1457.66 Q648.266 1461.2 648.266 1468.33 Q648.266 1475.44 650.071 1479.01 Q651.9 1482.55 655.511 1482.55 Q659.145 1482.55 660.951 1479.01 Q662.78 1475.44 662.78 1468.33 Q662.78 1461.2 660.951 1457.66 Q659.145 1454.1 655.511 1454.1 M655.511 1450.39 Q661.321 1450.39 664.377 1455 Q667.455 1459.58 667.455 1468.33 Q667.455 1477.06 664.377 1481.67 Q661.321 1486.25 655.511 1486.25 Q649.701 1486.25 646.622 1481.67 Q643.567 1477.06 643.567 1468.33 Q643.567 1459.58 646.622 1455 Q649.701 1450.39 655.511 1450.39 Z" fill="#000000" fill-rule="nonzero" fill-opacity="1" /><path clip-path="url(#clip750)" d="M685.673 1454.1 Q682.062 1454.1 680.233 1457.66 Q678.428 1461.2 678.428 1468.33 Q678.428 1475.44 680.233 1479.01 Q682.062 1482.55 685.673 1482.55 Q689.307 1482.55 691.113 1479.01 Q692.941 1475.44 692.941 1468.33 Q692.941 1461.2 691.113 1457.66 Q689.307 1454.1 685.673 1454.1 M685.673 1450.39 Q691.483 1450.39 694.539 1455 Q697.617 1459.58 697.617 1468.33 Q697.617 1477.06 694.539 1481.67 Q691.483 1486.25 685.673 1486.25 Q679.863 1486.25 676.784 1481.67 Q673.729 1477.06 673.729 1468.33 Q673.729 1459.58 676.784 1455 Q679.863 1450.39 685.673 1450.39 Z" fill="#000000" fill-rule="nonzero" fill-opacity="1" /><path clip-path="url(#clip750)" d="M705.881 1451.02 L724.238 1451.02 L724.238 1454.96 L710.164 1454.96 L710.164 1463.43 Q711.182 1463.08 712.201 1462.92 Q713.219 1462.73 714.238 1462.73 Q720.025 1462.73 723.404 1465.9 Q726.784 1469.08 726.784 1474.49 Q726.784 1480.07 723.312 1483.17 Q719.839 1486.25 713.52 1486.25 Q711.344 1486.25 709.076 1485.88 Q706.83 1485.51 704.423 1484.77 L704.423 1480.07 Q706.506 1481.2 708.728 1481.76 Q710.951 1482.32 713.427 1482.32 Q717.432 1482.32 719.77 1480.21 Q722.108 1478.1 722.108 1474.49 Q722.108 1470.88 719.77 1468.77 Q717.432 1466.67 713.427 1466.67 Q711.552 1466.67 709.677 1467.08 Q707.826 1467.5 705.881 1468.38 L705.881 1451.02 Z" fill="#000000" fill-rule="nonzero" fill-opacity="1" /><path clip-path="url(#clip750)" d="M962.488 1454.1 Q958.877 1454.1 957.048 1457.66 Q955.242 1461.2 955.242 1468.33 Q955.242 1475.44 957.048 1479.01 Q958.877 1482.55 962.488 1482.55 Q966.122 1482.55 967.927 1479.01 Q969.756 1475.44 969.756 1468.33 Q969.756 1461.2 967.927 1457.66 Q966.122 1454.1 962.488 1454.1 M962.488 1450.39 Q968.298 1450.39 971.353 1455 Q974.432 1459.58 974.432 1468.33 Q974.432 1477.06 971.353 1481.67 Q968.298 1486.25 962.488 1486.25 Q956.677 1486.25 953.599 1481.67 Q950.543 1477.06 950.543 1468.33 Q950.543 1459.58 953.599 1455 Q956.677 1450.39 962.488 1450.39 Z" fill="#000000" fill-rule="nonzero" fill-opacity="1" /><path clip-path="url(#clip750)" d="M982.65 1479.7 L987.534 1479.7 L987.534 1485.58 L982.65 1485.58 L982.65 1479.7 Z" fill="#000000" fill-rule="nonzero" fill-opacity="1" /><path clip-path="url(#clip750)" d="M1007.72 1454.1 Q1004.11 1454.1 1002.28 1457.66 Q1000.47 1461.2 1000.47 1468.33 Q1000.47 1475.44 1002.28 1479.01 Q1004.11 1482.55 1007.72 1482.55 Q1011.35 1482.55 1013.16 1479.01 Q1014.99 1475.44 1014.99 1468.33 Q1014.99 1461.2 1013.16 1457.66 Q1011.35 1454.1 1007.72 1454.1 M1007.72 1450.39 Q1013.53 1450.39 1016.58 1455 Q1019.66 1459.58 1019.66 1468.33 Q1019.66 1477.06 1016.58 1481.67 Q1013.53 1486.25 1007.72 1486.25 Q1001.91 1486.25 998.83 1481.67 Q995.774 1477.06 995.774 1468.33 Q995.774 1459.58 998.83 1455 Q1001.91 1450.39 1007.72 1450.39 Z" fill="#000000" fill-rule="nonzero" fill-opacity="1" /><path clip-path="url(#clip750)" d="M1028.69 1481.64 L1036.33 1481.64 L1036.33 1455.28 L1028.02 1456.95 L1028.02 1452.69 L1036.28 1451.02 L1040.96 1451.02 L1040.96 1481.64 L1048.6 1481.64 L1048.6 1485.58 L1028.69 1485.58 L1028.69 1481.64 Z" fill="#000000" fill-rule="nonzero" fill-opacity="1" /><path clip-path="url(#clip750)" d="M1068.04 1454.1 Q1064.43 1454.1 1062.6 1457.66 Q1060.8 1461.2 1060.8 1468.33 Q1060.8 1475.44 1062.6 1479.01 Q1064.43 1482.55 1068.04 1482.55 Q1071.68 1482.55 1073.48 1479.01 Q1075.31 1475.44 1075.31 1468.33 Q1075.31 1461.2 1073.48 1457.66 Q1071.68 1454.1 1068.04 1454.1 M1068.04 1450.39 Q1073.85 1450.39 1076.91 1455 Q1079.99 1459.58 1079.99 1468.33 Q1079.99 1477.06 1076.91 1481.67 Q1073.85 1486.25 1068.04 1486.25 Q1062.23 1486.25 1059.15 1481.67 Q1056.1 1477.06 1056.1 1468.33 Q1056.1 1459.58 1059.15 1455 Q1062.23 1450.39 1068.04 1450.39 Z" fill="#000000" fill-rule="nonzero" fill-opacity="1" /><path clip-path="url(#clip750)" d="M1315.69 1454.1 Q1312.08 1454.1 1310.25 1457.66 Q1308.45 1461.2 1308.45 1468.33 Q1308.45 1475.44 1310.25 1479.01 Q1312.08 1482.55 1315.69 1482.55 Q1319.32 1482.55 1321.13 1479.01 Q1322.96 1475.44 1322.96 1468.33 Q1322.96 1461.2 1321.13 1457.66 Q1319.32 1454.1 1315.69 1454.1 M1315.69 1450.39 Q1321.5 1450.39 1324.56 1455 Q1327.64 1459.58 1327.64 1468.33 Q1327.64 1477.06 1324.56 1481.67 Q1321.5 1486.25 1315.69 1486.25 Q1309.88 1486.25 1306.8 1481.67 Q1303.75 1477.06 1303.75 1468.33 Q1303.75 1459.58 1306.8 1455 Q1309.88 1450.39 1315.69 1450.39 Z" fill="#000000" fill-rule="nonzero" fill-opacity="1" /><path clip-path="url(#clip750)" d="M1335.85 1479.7 L1340.74 1479.7 L1340.74 1485.58 L1335.85 1485.58 L1335.85 1479.7 Z" fill="#000000" fill-rule="nonzero" fill-opacity="1" /><path clip-path="url(#clip750)" d="M1360.92 1454.1 Q1357.31 1454.1 1355.48 1457.66 Q1353.68 1461.2 1353.68 1468.33 Q1353.68 1475.44 1355.48 1479.01 Q1357.31 1482.55 1360.92 1482.55 Q1364.56 1482.55 1366.36 1479.01 Q1368.19 1475.44 1368.19 1468.33 Q1368.19 1461.2 1366.36 1457.66 Q1364.56 1454.1 1360.92 1454.1 M1360.92 1450.39 Q1366.73 1450.39 1369.79 1455 Q1372.87 1459.58 1372.87 1468.33 Q1372.87 1477.06 1369.79 1481.67 Q1366.73 1486.25 1360.92 1486.25 Q1355.11 1486.25 1352.03 1481.67 Q1348.98 1477.06 1348.98 1468.33 Q1348.98 1459.58 1352.03 1455 Q1355.11 1450.39 1360.92 1450.39 Z" fill="#000000" fill-rule="nonzero" fill-opacity="1" /><path clip-path="url(#clip750)" d="M1381.89 1481.64 L1389.53 1481.64 L1389.53 1455.28 L1381.22 1456.95 L1381.22 1452.69 L1389.49 1451.02 L1394.16 1451.02 L1394.16 1481.64 L1401.8 1481.64 L1401.8 1485.58 L1381.89 1485.58 L1381.89 1481.64 Z" fill="#000000" fill-rule="nonzero" fill-opacity="1" /><path clip-path="url(#clip750)" d="M1411.29 1451.02 L1429.65 1451.02 L1429.65 1454.96 L1415.57 1454.96 L1415.57 1463.43 Q1416.59 1463.08 1417.61 1462.92 Q1418.63 1462.73 1419.65 1462.73 Q1425.44 1462.73 1428.82 1465.9 Q1432.19 1469.08 1432.19 1474.49 Q1432.19 1480.07 1428.72 1483.17 Q1425.25 1486.25 1418.93 1486.25 Q1416.76 1486.25 1414.49 1485.88 Q1412.24 1485.51 1409.83 1484.77 L1409.83 1480.07 Q1411.92 1481.2 1414.14 1481.76 Q1416.36 1482.32 1418.84 1482.32 Q1422.84 1482.32 1425.18 1480.21 Q1427.52 1478.1 1427.52 1474.49 Q1427.52 1470.88 1425.18 1468.77 Q1422.84 1466.67 1418.84 1466.67 Q1416.96 1466.67 1415.09 1467.08 Q1413.24 1467.5 1411.29 1468.38 L1411.29 1451.02 Z" fill="#000000" fill-rule="nonzero" fill-opacity="1" /><path clip-path="url(#clip750)" d="M1667.9 1454.1 Q1664.29 1454.1 1662.46 1457.66 Q1660.65 1461.2 1660.65 1468.33 Q1660.65 1475.44 1662.46 1479.01 Q1664.29 1482.55 1667.9 1482.55 Q1671.53 1482.55 1673.34 1479.01 Q1675.17 1475.44 1675.17 1468.33 Q1675.17 1461.2 1673.34 1457.66 Q1671.53 1454.1 1667.9 1454.1 M1667.9 1450.39 Q1673.71 1450.39 1676.76 1455 Q1679.84 1459.58 1679.84 1468.33 Q1679.84 1477.06 1676.76 1481.67 Q1673.71 1486.25 1667.9 1486.25 Q1662.09 1486.25 1659.01 1481.67 Q1655.95 1477.06 1655.95 1468.33 Q1655.95 1459.58 1659.01 1455 Q1662.09 1450.39 1667.9 1450.39 Z" fill="#000000" fill-rule="nonzero" fill-opacity="1" /><path clip-path="url(#clip750)" d="M1688.06 1479.7 L1692.94 1479.7 L1692.94 1485.58 L1688.06 1485.58 L1688.06 1479.7 Z" fill="#000000" fill-rule="nonzero" fill-opacity="1" /><path clip-path="url(#clip750)" d="M1713.13 1454.1 Q1709.52 1454.1 1707.69 1457.66 Q1705.88 1461.2 1705.88 1468.33 Q1705.88 1475.44 1707.69 1479.01 Q1709.52 1482.55 1713.13 1482.55 Q1716.76 1482.55 1718.57 1479.01 Q1720.4 1475.44 1720.4 1468.33 Q1720.4 1461.2 1718.57 1457.66 Q1716.76 1454.1 1713.13 1454.1 M1713.13 1450.39 Q1718.94 1450.39 1722 1455 Q1725.07 1459.58 1725.07 1468.33 Q1725.07 1477.06 1722 1481.67 Q1718.94 1486.25 1713.13 1486.25 Q1707.32 1486.25 1704.24 1481.67 Q1701.19 1477.06 1701.19 1468.33 Q1701.19 1459.58 1704.24 1455 Q1707.32 1450.39 1713.13 1450.39 Z" fill="#000000" fill-rule="nonzero" fill-opacity="1" /><path clip-path="url(#clip750)" d="M1737.32 1481.64 L1753.64 1481.64 L1753.64 1485.58 L1731.69 1485.58 L1731.69 1481.64 Q1734.36 1478.89 1738.94 1474.26 Q1743.55 1469.61 1744.73 1468.27 Q1746.97 1465.74 1747.85 1464.01 Q1748.75 1462.25 1748.75 1460.56 Q1748.75 1457.8 1746.81 1456.07 Q1744.89 1454.33 1741.79 1454.33 Q1739.59 1454.33 1737.13 1455.09 Q1734.7 1455.86 1731.93 1457.41 L1731.93 1452.69 Q1734.75 1451.55 1737.2 1450.97 Q1739.66 1450.39 1741.69 1450.39 Q1747.06 1450.39 1750.26 1453.08 Q1753.45 1455.77 1753.45 1460.26 Q1753.45 1462.39 1752.64 1464.31 Q1751.86 1466.2 1749.75 1468.8 Q1749.17 1469.47 1746.07 1472.69 Q1742.97 1475.88 1737.32 1481.64 Z" fill="#000000" fill-rule="nonzero" fill-opacity="1" /><path clip-path="url(#clip750)" d="M1773.45 1454.1 Q1769.84 1454.1 1768.01 1457.66 Q1766.21 1461.2 1766.21 1468.33 Q1766.21 1475.44 1768.01 1479.01 Q1769.84 1482.55 1773.45 1482.55 Q1777.09 1482.55 1778.89 1479.01 Q1780.72 1475.44 1780.72 1468.33 Q1780.72 1461.2 1778.89 1457.66 Q1777.09 1454.1 1773.45 1454.1 M1773.45 1450.39 Q1779.26 1450.39 1782.32 1455 Q1785.4 1459.58 1785.4 1468.33 Q1785.4 1477.06 1782.32 1481.67 Q1779.26 1486.25 1773.45 1486.25 Q1767.64 1486.25 1764.56 1481.67 Q1761.51 1477.06 1761.51 1468.33 Q1761.51 1459.58 1764.56 1455 Q1767.64 1450.39 1773.45 1450.39 Z" fill="#000000" fill-rule="nonzero" fill-opacity="1" /><path clip-path="url(#clip750)" d="M2021.1 1454.1 Q2017.49 1454.1 2015.66 1457.66 Q2013.86 1461.2 2013.86 1468.33 Q2013.86 1475.44 2015.66 1479.01 Q2017.49 1482.55 2021.1 1482.55 Q2024.74 1482.55 2026.54 1479.01 Q2028.37 1475.44 2028.37 1468.33 Q2028.37 1461.2 2026.54 1457.66 Q2024.74 1454.1 2021.1 1454.1 M2021.1 1450.39 Q2026.91 1450.39 2029.97 1455 Q2033.05 1459.58 2033.05 1468.33 Q2033.05 1477.06 2029.97 1481.67 Q2026.91 1486.25 2021.1 1486.25 Q2015.29 1486.25 2012.21 1481.67 Q2009.16 1477.06 2009.16 1468.33 Q2009.16 1459.58 2012.21 1455 Q2015.29 1450.39 2021.1 1450.39 Z" fill="#000000" fill-rule="nonzero" fill-opacity="1" /><path clip-path="url(#clip750)" d="M2041.26 1479.7 L2046.15 1479.7 L2046.15 1485.58 L2041.26 1485.58 L2041.26 1479.7 Z" fill="#000000" fill-rule="nonzero" fill-opacity="1" /><path clip-path="url(#clip750)" d="M2066.33 1454.1 Q2062.72 1454.1 2060.89 1457.66 Q2059.09 1461.2 2059.09 1468.33 Q2059.09 1475.44 2060.89 1479.01 Q2062.72 1482.55 2066.33 1482.55 Q2069.97 1482.55 2071.77 1479.01 Q2073.6 1475.44 2073.6 1468.33 Q2073.6 1461.2 2071.77 1457.66 Q2069.97 1454.1 2066.33 1454.1 M2066.33 1450.39 Q2072.14 1450.39 2075.2 1455 Q2078.28 1459.58 2078.28 1468.33 Q2078.28 1477.06 2075.2 1481.67 Q2072.14 1486.25 2066.33 1486.25 Q2060.52 1486.25 2057.44 1481.67 Q2054.39 1477.06 2054.39 1468.33 Q2054.39 1459.58 2057.44 1455 Q2060.52 1450.39 2066.33 1450.39 Z" fill="#000000" fill-rule="nonzero" fill-opacity="1" /><path clip-path="url(#clip750)" d="M2090.52 1481.64 L2106.84 1481.64 L2106.84 1485.58 L2084.9 1485.58 L2084.9 1481.64 Q2087.56 1478.89 2092.14 1474.26 Q2096.75 1469.61 2097.93 1468.27 Q2100.18 1465.74 2101.05 1464.01 Q2101.96 1462.25 2101.96 1460.56 Q2101.96 1457.8 2100.01 1456.07 Q2098.09 1454.33 2094.99 1454.33 Q2092.79 1454.33 2090.34 1455.09 Q2087.91 1455.86 2085.13 1457.41 L2085.13 1452.69 Q2087.95 1451.55 2090.41 1450.97 Q2092.86 1450.39 2094.9 1450.39 Q2100.27 1450.39 2103.46 1453.08 Q2106.66 1455.77 2106.66 1460.26 Q2106.66 1462.39 2105.85 1464.31 Q2105.06 1466.2 2102.95 1468.8 Q2102.37 1469.47 2099.27 1472.69 Q2096.17 1475.88 2090.52 1481.64 Z" fill="#000000" fill-rule="nonzero" fill-opacity="1" /><path clip-path="url(#clip750)" d="M2116.7 1451.02 L2135.06 1451.02 L2135.06 1454.96 L2120.99 1454.96 L2120.99 1463.43 Q2122 1463.08 2123.02 1462.92 Q2124.04 1462.73 2125.06 1462.73 Q2130.85 1462.73 2134.23 1465.9 Q2137.61 1469.08 2137.61 1474.49 Q2137.61 1480.07 2134.13 1483.17 Q2130.66 1486.25 2124.34 1486.25 Q2122.17 1486.25 2119.9 1485.88 Q2117.65 1485.51 2115.24 1484.77 L2115.24 1480.07 Q2117.33 1481.2 2119.55 1481.76 Q2121.77 1482.32 2124.25 1482.32 Q2128.25 1482.32 2130.59 1480.21 Q2132.93 1478.1 2132.93 1474.49 Q2132.93 1470.88 2130.59 1468.77 Q2128.25 1466.67 2124.25 1466.67 Q2122.37 1466.67 2120.5 1467.08 Q2118.65 1467.5 2116.7 1468.38 L2116.7 1451.02 Z" fill="#000000" fill-rule="nonzero" fill-opacity="1" /><path clip-path="url(#clip750)" d="M1292.04 1565.85 L1292.04 1581.6 L1286.15 1581.6 L1286.15 1532.62 Q1286.15 1518.1 1299.71 1518.1 Q1313.52 1518.1 1313.52 1530.36 Q1313.52 1539.08 1308.05 1542.26 Q1316.96 1545.13 1316.96 1553.63 Q1316.96 1568.71 1301.62 1568.71 Q1294.87 1568.71 1292.04 1565.85 M1292.04 1558.21 Q1295.57 1563.72 1301.84 1563.72 Q1311.01 1563.72 1311.01 1553.72 Q1311.01 1544.75 1296.24 1545.45 L1296.24 1540.03 Q1307.79 1540.03 1307.79 1529.85 Q1307.79 1522.88 1300.34 1522.88 Q1292.04 1522.88 1292.04 1532.81 L1292.04 1558.21 Z" fill="#000000" fill-rule="nonzero" fill-opacity="1" /><polyline clip-path="url(#clip750)" style="stroke:#000000; stroke-linecap:round; stroke-linejoin:round; stroke-width:4; stroke-opacity:1; fill:none" points="250.352,1423.18 250.352,47.2441 "/>
<polyline clip-path="url(#clip750)" style="stroke:#000000; stroke-linecap:round; stroke-linejoin:round; stroke-width:4; stroke-opacity:1; fill:none" points="250.352,1265.74 269.25,1265.74 "/>
<polyline clip-path="url(#clip750)" style="stroke:#000000; stroke-linecap:round; stroke-linejoin:round; stroke-width:4; stroke-opacity:1; fill:none" points="250.352,951.738 269.25,951.738 "/>
<polyline clip-path="url(#clip750)" style="stroke:#000000; stroke-linecap:round; stroke-linejoin:round; stroke-width:4; stroke-opacity:1; fill:none" points="250.352,637.741 269.25,637.741 "/>
<polyline clip-path="url(#clip750)" style="stroke:#000000; stroke-linecap:round; stroke-linejoin:round; stroke-width:4; stroke-opacity:1; fill:none" points="250.352,323.743 269.25,323.743 "/>
<path clip-path="url(#clip750)" d="M132.177 1264.38 Q135.533 1265.1 137.408 1267.37 Q139.306 1269.64 139.306 1272.97 Q139.306 1278.09 135.788 1280.89 Q132.269 1283.69 125.788 1283.69 Q123.612 1283.69 121.297 1283.25 Q119.006 1282.83 116.552 1281.97 L116.552 1277.46 Q118.496 1278.6 120.811 1279.17 Q123.126 1279.75 125.649 1279.75 Q130.047 1279.75 132.339 1278.02 Q134.654 1276.28 134.654 1272.97 Q134.654 1269.91 132.501 1268.2 Q130.371 1266.47 126.552 1266.47 L122.524 1266.47 L122.524 1262.62 L126.737 1262.62 Q130.186 1262.62 132.015 1261.26 Q133.843 1259.87 133.843 1257.28 Q133.843 1254.61 131.945 1253.2 Q130.07 1251.77 126.552 1251.77 Q124.63 1251.77 122.431 1252.18 Q120.232 1252.6 117.593 1253.48 L117.593 1249.31 Q120.255 1248.57 122.57 1248.2 Q124.908 1247.83 126.968 1247.83 Q132.292 1247.83 135.394 1250.26 Q138.496 1252.67 138.496 1256.79 Q138.496 1259.66 136.853 1261.65 Q135.209 1263.62 132.177 1264.38 Z" fill="#000000" fill-rule="nonzero" fill-opacity="1" /><path clip-path="url(#clip750)" d="M148.172 1277.14 L153.056 1277.14 L153.056 1283.02 L148.172 1283.02 L148.172 1277.14 Z" fill="#000000" fill-rule="nonzero" fill-opacity="1" /><path clip-path="url(#clip750)" d="M167.269 1279.08 L183.588 1279.08 L183.588 1283.02 L161.644 1283.02 L161.644 1279.08 Q164.306 1276.33 168.889 1271.7 Q173.496 1267.04 174.677 1265.7 Q176.922 1263.18 177.801 1261.44 Q178.704 1259.68 178.704 1257.99 Q178.704 1255.24 176.76 1253.5 Q174.839 1251.77 171.737 1251.77 Q169.538 1251.77 167.084 1252.53 Q164.653 1253.29 161.876 1254.85 L161.876 1250.12 Q164.7 1248.99 167.153 1248.41 Q169.607 1247.83 171.644 1247.83 Q177.014 1247.83 180.209 1250.52 Q183.403 1253.2 183.403 1257.69 Q183.403 1259.82 182.593 1261.74 Q181.806 1263.64 179.7 1266.23 Q179.121 1266.91 176.019 1270.12 Q172.917 1273.32 167.269 1279.08 Z" fill="#000000" fill-rule="nonzero" fill-opacity="1" /><path clip-path="url(#clip750)" d="M193.45 1248.46 L211.806 1248.46 L211.806 1252.39 L197.732 1252.39 L197.732 1260.86 Q198.75 1260.52 199.769 1260.35 Q200.787 1260.17 201.806 1260.17 Q207.593 1260.17 210.973 1263.34 Q214.352 1266.51 214.352 1271.93 Q214.352 1277.51 210.88 1280.61 Q207.408 1283.69 201.088 1283.69 Q198.912 1283.69 196.644 1283.32 Q194.399 1282.95 191.991 1282.21 L191.991 1277.51 Q194.075 1278.64 196.297 1279.2 Q198.519 1279.75 200.996 1279.75 Q205 1279.75 207.338 1277.65 Q209.676 1275.54 209.676 1271.93 Q209.676 1268.32 207.338 1266.21 Q205 1264.1 200.996 1264.1 Q199.121 1264.1 197.246 1264.52 Q195.394 1264.94 193.45 1265.82 L193.45 1248.46 Z" fill="#000000" fill-rule="nonzero" fill-opacity="1" /><path clip-path="url(#clip750)" d="M131.181 950.384 Q134.538 951.102 136.413 953.37 Q138.311 955.639 138.311 958.972 Q138.311 964.088 134.792 966.889 Q131.274 969.69 124.793 969.69 Q122.617 969.69 120.302 969.25 Q118.01 968.833 115.556 967.977 L115.556 963.463 Q117.501 964.597 119.816 965.176 Q122.13 965.755 124.654 965.755 Q129.052 965.755 131.343 964.018 Q133.658 962.282 133.658 958.972 Q133.658 955.917 131.505 954.204 Q129.376 952.468 125.556 952.468 L121.529 952.468 L121.529 948.625 L125.742 948.625 Q129.191 948.625 131.019 947.259 Q132.848 945.87 132.848 943.278 Q132.848 940.616 130.95 939.204 Q129.075 937.769 125.556 937.769 Q123.635 937.769 121.436 938.185 Q119.237 938.602 116.598 939.482 L116.598 935.315 Q119.26 934.574 121.575 934.204 Q123.913 933.833 125.973 933.833 Q131.297 933.833 134.399 936.264 Q137.501 938.671 137.501 942.792 Q137.501 945.662 135.857 947.653 Q134.214 949.62 131.181 950.384 Z" fill="#000000" fill-rule="nonzero" fill-opacity="1" /><path clip-path="url(#clip750)" d="M147.177 963.139 L152.061 963.139 L152.061 969.018 L147.177 969.018 L147.177 963.139 Z" fill="#000000" fill-rule="nonzero" fill-opacity="1" /><path clip-path="url(#clip750)" d="M162.292 934.458 L180.649 934.458 L180.649 938.394 L166.575 938.394 L166.575 946.866 Q167.593 946.519 168.612 946.357 Q169.63 946.171 170.649 946.171 Q176.436 946.171 179.815 949.343 Q183.195 952.514 183.195 957.931 Q183.195 963.509 179.723 966.611 Q176.251 969.69 169.931 969.69 Q167.755 969.69 165.487 969.319 Q163.241 968.949 160.834 968.208 L160.834 963.509 Q162.917 964.643 165.14 965.199 Q167.362 965.755 169.839 965.755 Q173.843 965.755 176.181 963.648 Q178.519 961.542 178.519 957.931 Q178.519 954.319 176.181 952.213 Q173.843 950.107 169.839 950.107 Q167.964 950.107 166.089 950.523 Q164.237 950.94 162.292 951.819 L162.292 934.458 Z" fill="#000000" fill-rule="nonzero" fill-opacity="1" /><path clip-path="url(#clip750)" d="M202.408 937.537 Q198.797 937.537 196.968 941.102 Q195.163 944.644 195.163 951.773 Q195.163 958.88 196.968 962.444 Q198.797 965.986 202.408 965.986 Q206.042 965.986 207.848 962.444 Q209.676 958.88 209.676 951.773 Q209.676 944.644 207.848 941.102 Q206.042 937.537 202.408 937.537 M202.408 933.833 Q208.218 933.833 211.274 938.44 Q214.352 943.023 214.352 951.773 Q214.352 960.5 211.274 965.106 Q208.218 969.69 202.408 969.69 Q196.598 969.69 193.519 965.106 Q190.463 960.5 190.463 951.773 Q190.463 943.023 193.519 938.44 Q196.598 933.833 202.408 933.833 Z" fill="#000000" fill-rule="nonzero" fill-opacity="1" /><path clip-path="url(#clip750)" d="M132.177 636.386 Q135.533 637.104 137.408 639.372 Q139.306 641.641 139.306 644.974 Q139.306 650.09 135.788 652.891 Q132.269 655.692 125.788 655.692 Q123.612 655.692 121.297 655.252 Q119.006 654.835 116.552 653.979 L116.552 649.465 Q118.496 650.599 120.811 651.178 Q123.126 651.757 125.649 651.757 Q130.047 651.757 132.339 650.021 Q134.654 648.284 134.654 644.974 Q134.654 641.919 132.501 640.206 Q130.371 638.47 126.552 638.47 L122.524 638.47 L122.524 634.627 L126.737 634.627 Q130.186 634.627 132.015 633.261 Q133.843 631.873 133.843 629.28 Q133.843 626.618 131.945 625.206 Q130.07 623.771 126.552 623.771 Q124.63 623.771 122.431 624.187 Q120.232 624.604 117.593 625.484 L117.593 621.317 Q120.255 620.576 122.57 620.206 Q124.908 619.836 126.968 619.836 Q132.292 619.836 135.394 622.266 Q138.496 624.673 138.496 628.794 Q138.496 631.664 136.853 633.655 Q135.209 635.622 132.177 636.386 Z" fill="#000000" fill-rule="nonzero" fill-opacity="1" /><path clip-path="url(#clip750)" d="M148.172 649.141 L153.056 649.141 L153.056 655.021 L148.172 655.021 L148.172 649.141 Z" fill="#000000" fill-rule="nonzero" fill-opacity="1" /><path clip-path="url(#clip750)" d="M162.061 620.461 L184.283 620.461 L184.283 622.451 L171.737 655.021 L166.852 655.021 L178.658 624.396 L162.061 624.396 L162.061 620.461 Z" fill="#000000" fill-rule="nonzero" fill-opacity="1" /><path clip-path="url(#clip750)" d="M193.45 620.461 L211.806 620.461 L211.806 624.396 L197.732 624.396 L197.732 632.868 Q198.75 632.521 199.769 632.359 Q200.787 632.173 201.806 632.173 Q207.593 632.173 210.973 635.345 Q214.352 638.516 214.352 643.933 Q214.352 649.511 210.88 652.613 Q207.408 655.692 201.088 655.692 Q198.912 655.692 196.644 655.321 Q194.399 654.951 191.991 654.21 L191.991 649.511 Q194.075 650.646 196.297 651.201 Q198.519 651.757 200.996 651.757 Q205 651.757 207.338 649.65 Q209.676 647.544 209.676 643.933 Q209.676 640.322 207.338 638.215 Q205 636.109 200.996 636.109 Q199.121 636.109 197.246 636.525 Q195.394 636.942 193.45 637.822 L193.45 620.461 Z" fill="#000000" fill-rule="nonzero" fill-opacity="1" /><path clip-path="url(#clip750)" d="M129.862 310.537 L118.056 328.986 L129.862 328.986 L129.862 310.537 M128.635 306.463 L134.515 306.463 L134.515 328.986 L139.445 328.986 L139.445 332.875 L134.515 332.875 L134.515 341.023 L129.862 341.023 L129.862 332.875 L114.26 332.875 L114.26 328.361 L128.635 306.463 Z" fill="#000000" fill-rule="nonzero" fill-opacity="1" /><path clip-path="url(#clip750)" d="M147.177 335.143 L152.061 335.143 L152.061 341.023 L147.177 341.023 L147.177 335.143 Z" fill="#000000" fill-rule="nonzero" fill-opacity="1" /><path clip-path="url(#clip750)" d="M172.246 309.541 Q168.635 309.541 166.806 313.106 Q165.001 316.648 165.001 323.777 Q165.001 330.884 166.806 334.449 Q168.635 337.99 172.246 337.99 Q175.88 337.99 177.686 334.449 Q179.514 330.884 179.514 323.777 Q179.514 316.648 177.686 313.106 Q175.88 309.541 172.246 309.541 M172.246 305.838 Q178.056 305.838 181.112 310.444 Q184.19 315.027 184.19 323.777 Q184.19 332.504 181.112 337.111 Q178.056 341.694 172.246 341.694 Q166.436 341.694 163.357 337.111 Q160.302 332.504 160.302 323.777 Q160.302 315.027 163.357 310.444 Q166.436 305.838 172.246 305.838 Z" fill="#000000" fill-rule="nonzero" fill-opacity="1" /><path clip-path="url(#clip750)" d="M202.408 309.541 Q198.797 309.541 196.968 313.106 Q195.163 316.648 195.163 323.777 Q195.163 330.884 196.968 334.449 Q198.797 337.99 202.408 337.99 Q206.042 337.99 207.848 334.449 Q209.676 330.884 209.676 323.777 Q209.676 316.648 207.848 313.106 Q206.042 309.541 202.408 309.541 M202.408 305.838 Q208.218 305.838 211.274 310.444 Q214.352 315.027 214.352 323.777 Q214.352 332.504 211.274 337.111 Q208.218 341.694 202.408 341.694 Q196.598 341.694 193.519 337.111 Q190.463 332.504 190.463 323.777 Q190.463 315.027 193.519 310.444 Q196.598 305.838 202.408 305.838 Z" fill="#000000" fill-rule="nonzero" fill-opacity="1" /><path clip-path="url(#clip750)" d="M47.4215 730.008 L40.0691 731.408 Q32.5257 732.841 32.5257 738.506 Q32.5257 742.771 36.0269 744.713 Q40.4192 747.164 46.212 747.164 Q53.2143 747.164 56.5563 744.776 Q59.9619 742.357 59.9619 738.506 Q59.9619 734.241 53.1825 731.95 L47.4215 730.008 M37.682 726.73 L28.3562 723.579 L28.3562 718.359 L47.6761 724.884 L54.6466 723.61 Q56.2062 723.324 57.5111 722.21 Q59.0389 720.905 59.0389 719.887 L59.0389 717.086 L64.0042 717.086 L64.0042 720.587 Q64.0042 723.579 61.3306 726.252 Q59.9938 727.557 57.1929 728.098 Q60.7258 729.562 63.4949 732.554 Q64.7999 733.955 64.7999 738.506 Q64.7999 745.986 59.9619 749.614 Q54.9649 753.338 46.212 753.338 Q36.8544 753.338 32.4621 749.296 Q27.5605 744.808 27.5605 738.506 Q27.5605 728.608 37.682 726.73 Z" fill="#000000" fill-rule="nonzero" fill-opacity="1" /><polyline clip-path="url(#clip752)" style="stroke:#009af9; stroke-linecap:round; stroke-linejoin:round; stroke-width:4; stroke-opacity:1; fill:none" points="1015.27,1384.24 1038.92,1338.39 1071.92,1276.75 1118.83,1193.45 1177.85,1095.25 1243.07,994.511 1315.23,891.594 1395.11,787.038 1483.5,681.619 1581.11,576.441 1688.36,473.053 1805.05,373.607 1929.63,281.079 2057.79,199.557 2179.65,134.604 2273.63,93.6468 2293.25,86.1857 2136.6,123.038 1572.86,212.036 991.275,274.237 309.854,326.658 "/>
<circle clip-path="url(#clip752)" cx="2293.25" cy="86.1857" r="10.8" fill="#ff8247" fill-rule="evenodd" fill-opacity="1" stroke="none"/>
<circle clip-path="url(#clip752)" cx="2293.25" cy="86.1857" r="10.8" fill="#ff8247" fill-rule="evenodd" fill-opacity="1" stroke="none"/>
<path clip-path="url(#clip750)" d="M1966.74 1377.32 L2282.68 1377.32 L2282.68 1273.64 L1966.74 1273.64  Z" fill="#ffffff" fill-rule="evenodd" fill-opacity="1"/>
<polyline clip-path="url(#clip750)" style="stroke:#000000; stroke-linecap:round; stroke-linejoin:round; stroke-width:4; stroke-opacity:1; fill:none" points="1966.74,1377.32 2282.68,1377.32 2282.68,1273.64 1966.74,1273.64 1966.74,1377.32 "/>
<circle clip-path="url(#clip750)" cx="2060.18" cy="1325.48" r="23.04" fill="#ff8247" fill-rule="evenodd" fill-opacity="1" stroke="none"/>
<path clip-path="url(#clip750)" d="M2174.13 1317.82 L2174.13 1321.81 Q2172.33 1320.81 2170.5 1320.32 Q2168.69 1319.82 2166.84 1319.82 Q2162.7 1319.82 2160.4 1322.45 Q2158.11 1325.07 2158.11 1329.82 Q2158.11 1334.56 2160.4 1337.2 Q2162.7 1339.82 2166.84 1339.82 Q2168.69 1339.82 2170.5 1339.33 Q2172.33 1338.82 2174.13 1337.82 L2174.13 1341.76 Q2172.35 1342.59 2170.43 1343.01 Q2168.53 1343.43 2166.38 1343.43 Q2160.52 1343.43 2157.07 1339.75 Q2153.62 1336.07 2153.62 1329.82 Q2153.62 1323.47 2157.09 1319.84 Q2160.59 1316.2 2166.65 1316.2 Q2168.62 1316.2 2170.5 1316.62 Q2172.37 1317.01 2174.13 1317.82 Z" fill="#000000" fill-rule="nonzero" fill-opacity="1" /><path clip-path="url(#clip750)" d="M2181.1 1332.52 L2181.1 1316.83 L2185.36 1316.83 L2185.36 1332.36 Q2185.36 1336.04 2186.79 1337.89 Q2188.23 1339.72 2191.1 1339.72 Q2194.55 1339.72 2196.54 1337.52 Q2198.55 1335.32 2198.55 1331.53 L2198.55 1316.83 L2202.81 1316.83 L2202.81 1342.76 L2198.55 1342.76 L2198.55 1338.77 Q2197 1341.13 2194.94 1342.29 Q2192.9 1343.43 2190.2 1343.43 Q2185.73 1343.43 2183.41 1340.65 Q2181.1 1337.87 2181.1 1332.52 M2191.82 1316.2 L2191.82 1316.2 Z" fill="#000000" fill-rule="nonzero" fill-opacity="1" /><path clip-path="url(#clip750)" d="M2228.11 1317.59 L2228.11 1321.62 Q2226.31 1320.7 2224.36 1320.23 Q2222.42 1319.77 2220.33 1319.77 Q2217.16 1319.77 2215.57 1320.74 Q2213.99 1321.71 2213.99 1323.66 Q2213.99 1325.14 2215.13 1326 Q2216.26 1326.83 2219.69 1327.59 L2221.14 1327.92 Q2225.68 1328.89 2227.58 1330.67 Q2229.5 1332.43 2229.5 1335.6 Q2229.5 1339.21 2226.63 1341.32 Q2223.78 1343.43 2218.78 1343.43 Q2216.7 1343.43 2214.43 1343.01 Q2212.19 1342.62 2209.69 1341.81 L2209.69 1337.41 Q2212.05 1338.63 2214.34 1339.26 Q2216.63 1339.86 2218.88 1339.86 Q2221.89 1339.86 2223.51 1338.84 Q2225.13 1337.8 2225.13 1335.93 Q2225.13 1334.19 2223.95 1333.26 Q2222.79 1332.34 2218.83 1331.48 L2217.35 1331.14 Q2213.39 1330.3 2211.63 1328.59 Q2209.87 1326.85 2209.87 1323.84 Q2209.87 1320.19 2212.46 1318.2 Q2215.06 1316.2 2219.83 1316.2 Q2222.19 1316.2 2224.27 1316.55 Q2226.35 1316.9 2228.11 1317.59 Z" fill="#000000" fill-rule="nonzero" fill-opacity="1" /><path clip-path="url(#clip750)" d="M2240.4 1338.87 L2240.4 1352.62 L2236.12 1352.62 L2236.12 1316.83 L2240.4 1316.83 L2240.4 1320.76 Q2241.75 1318.45 2243.78 1317.34 Q2245.84 1316.2 2248.69 1316.2 Q2253.41 1316.2 2256.35 1319.95 Q2259.32 1323.7 2259.32 1329.82 Q2259.32 1335.93 2256.35 1339.68 Q2253.41 1343.43 2248.69 1343.43 Q2245.84 1343.43 2243.78 1342.32 Q2241.75 1341.18 2240.4 1338.87 M2254.89 1329.82 Q2254.89 1325.12 2252.95 1322.45 Q2251.03 1319.77 2247.65 1319.77 Q2244.27 1319.77 2242.33 1322.45 Q2240.4 1325.12 2240.4 1329.82 Q2240.4 1334.51 2242.33 1337.2 Q2244.27 1339.86 2247.65 1339.86 Q2251.03 1339.86 2252.95 1337.2 Q2254.89 1334.51 2254.89 1329.82 Z" fill="#000000" fill-rule="nonzero" fill-opacity="1" /></svg>
