<?xml version="1.0" encoding="utf-8"?>
<svg xmlns="http://www.w3.org/2000/svg" xmlns:xlink="http://www.w3.org/1999/xlink" width="600" height="400" viewBox="0 0 2400 1600">
<defs>
  <clipPath id="clip760">
    <rect x="0" y="0" width="2400" height="1600"/>
  </clipPath>
</defs>
<path clip-path="url(#clip760)" d="M0 1600 L2400 1600 L2400 0 L0 0  Z" fill="#ffffff" fill-rule="evenodd" fill-opacity="1"/>
<defs>
  <clipPath id="clip761">
    <rect x="249" y="47" width="2104" height="1377"/>
  </clipPath>
</defs>
<path clip-path="url(#clip760)" d="M249.542 1423.18 L2352.76 1423.18 L2352.76 47.2441 L249.542 47.2441  Z" fill="#ffffff" fill-rule="evenodd" fill-opacity="1"/>
<polyline clip-path="url(#clip761)" style="stroke:#000000; stroke-linecap:round; stroke-linejoin:round; stroke-width:2; stroke-opacity:0.1; fill:none" points="290.743,1423.18 290.743,47.2441 "/>
<polyline clip-path="url(#clip761)" style="stroke:#000000; stroke-linecap:round; stroke-linejoin:round; stroke-width:2; stroke-opacity:0.1; fill:none" points="748.831,1423.18 748.831,47.2441 "/>
<polyline clip-path="url(#clip761)" style="stroke:#000000; stroke-linecap:round; stroke-linejoin:round; stroke-width:2; stroke-opacity:0.1; fill:none" points="1206.92,1423.18 1206.92,47.2441 "/>
<polyline clip-path="url(#clip761)" style="stroke:#000000; stroke-linecap:round; stroke-linejoin:round; stroke-width:2; stroke-opacity:0.1; fill:none" points="1665.01,1423.18 1665.01,47.2441 "/>
<polyline clip-path="url(#clip761)" style="stroke:#000000; stroke-linecap:round; stroke-linejoin:round; stroke-width:2; stroke-opacity:0.1; fill:none" points="2123.09,1423.18 2123.09,47.2441 "/>
<polyline clip-path="url(#clip761)" style="stroke:#000000; stroke-linecap:round; stroke-linejoin:round; stroke-width:2; stroke-opacity:0.1; fill:none" points="249.542,1237.85 2352.76,1237.85 "/>
<polyline clip-path="url(#clip761)" style="stroke:#000000; stroke-linecap:round; stroke-linejoin:round; stroke-width:2; stroke-opacity:0.1; fill:none" points="249.542,966.688 2352.76,966.688 "/>
<polyline clip-path="url(#clip761)" style="stroke:#000000; stroke-linecap:round; stroke-linejoin:round; stroke-width:2; stroke-opacity:0.1; fill:none" points="249.542,695.524 2352.76,695.524 "/>
<polyline clip-path="url(#clip761)" style="stroke:#000000; stroke-linecap:round; stroke-linejoin:round; stroke-width:2; stroke-opacity:0.1; fill:none" points="249.542,424.36 2352.76,424.36 "/>
<polyline clip-path="url(#clip761)" style="stroke:#000000; stroke-linecap:round; stroke-linejoin:round; stroke-width:2; stroke-opacity:0.1; fill:none" points="249.542,153.196 2352.76,153.196 "/>
<polyline clip-path="url(#clip760)" style="stroke:#000000; stroke-linecap:round; stroke-linejoin:round; stroke-width:4; stroke-opacity:1; fill:none" points="249.542,1423.18 2352.76,1423.18 "/>
<polyline clip-path="url(#clip760)" style="stroke:#000000; stroke-linecap:round; stroke-linejoin:round; stroke-width:4; stroke-opacity:1; fill:none" points="290.743,1423.18 290.743,1404.28 "/>
<polyline clip-path="url(#clip760)" style="stroke:#000000; stroke-linecap:round; stroke-linejoin:round; stroke-width:4; stroke-opacity:1; fill:none" points="748.831,1423.18 748.831,1404.28 "/>
<polyline clip-path="url(#clip760)" style="stroke:#000000; stroke-linecap:round; stroke-linejoin:round; stroke-width:4; stroke-opacity:1; fill:none" points="1206.92,1423.18 1206.92,1404.28 "/>
<polyline clip-path="url(#clip760)" style="stroke:#000000; stroke-linecap:round; stroke-linejoin:round; stroke-width:4; stroke-opacity:1; fill:none" points="1665.01,1423.18 1665.01,1404.28 "/>
<polyline clip-path="url(#clip760)" style="stroke:#000000; stroke-linecap:round; stroke-linejoin:round; stroke-width:4; stroke-opacity:1; fill:none" points="2123.09,1423.18 2123.09,1404.28 "/>
<path clip-path="url(#clip760)" d="M253.047 1454.1 Q249.436 1454.1 247.607 1457.66 Q245.802 1461.2 245.802 1468.33 Q245.802 1475.44 247.607 1479.01 Q249.436 1482.55 253.047 1482.55 Q256.681 1482.55 258.487 1479.01 Q260.315 1475.44 260.315 1468.33 Q260.315 1461.2 258.487 1457.66 Q256.681 1454.1 253.047 1454.1 M253.047 1450.39 Q258.857 1450.39 261.913 1455 Q264.991 1459.58 264.991 1468.33 Q264.991 1477.06 261.913 1481.67 Q258.857 1486.25 253.047 1486.25 Q247.237 1486.25 244.158 1481.67 Q241.103 1477.06 241.103 1468.33 Q241.103 1459.58 244.158 1455 Q247.237 1450.39 253.047 1450.39 Z" fill="#000000" fill-rule="nonzero" fill-opacity="1" /><path clip-path="url(#clip760)" d="M273.209 1479.7 L278.093 1479.7 L278.093 1485.58 L273.209 1485.58 L273.209 1479.7 Z" fill="#000000" fill-rule="nonzero" fill-opacity="1" /><path clip-path="url(#clip760)" d="M298.278 1454.1 Q294.667 1454.1 292.838 1457.66 Q291.033 1461.2 291.033 1468.33 Q291.033 1475.44 292.838 1479.01 Q294.667 1482.55 298.278 1482.55 Q301.912 1482.55 303.718 1479.01 Q305.547 1475.44 305.547 1468.33 Q305.547 1461.2 303.718 1457.66 Q301.912 1454.1 298.278 1454.1 M298.278 1450.39 Q304.088 1450.39 307.144 1455 Q310.223 1459.58 310.223 1468.33 Q310.223 1477.06 307.144 1481.67 Q304.088 1486.25 298.278 1486.25 Q292.468 1486.25 289.389 1481.67 Q286.334 1477.06 286.334 1468.33 Q286.334 1459.58 289.389 1455 Q292.468 1450.39 298.278 1450.39 Z" fill="#000000" fill-rule="nonzero" fill-opacity="1" /><path clip-path="url(#clip760)" d="M328.44 1454.1 Q324.829 1454.1 323 1457.66 Q321.195 1461.2 321.195 1468.33 Q321.195 1475.44 323 1479.01 Q324.829 1482.55 328.44 1482.55 Q332.074 1482.55 333.88 1479.01 Q335.708 1475.44 335.708 1468.33 Q335.708 1461.2 333.88 1457.66 Q332.074 1454.1 328.44 1454.1 M328.44 1450.39 Q334.25 1450.39 337.306 1455 Q340.384 1459.58 340.384 1468.33 Q340.384 1477.06 337.306 1481.67 Q334.25 1486.25 328.44 1486.25 Q322.63 1486.25 319.551 1481.67 Q316.496 1477.06 316.496 1468.33 Q316.496 1459.58 319.551 1455 Q322.63 1450.39 328.44 1450.39 Z" fill="#000000" fill-rule="nonzero" fill-opacity="1" /><path clip-path="url(#clip760)" d="M711.632 1454.1 Q708.021 1454.1 706.192 1457.66 Q704.387 1461.2 704.387 1468.33 Q704.387 1475.44 706.192 1479.01 Q708.021 1482.55 711.632 1482.55 Q715.266 1482.55 717.072 1479.01 Q718.901 1475.44 718.901 1468.33 Q718.901 1461.2 717.072 1457.66 Q715.266 1454.1 711.632 1454.1 M711.632 1450.39 Q717.442 1450.39 720.498 1455 Q723.576 1459.58 723.576 1468.33 Q723.576 1477.06 720.498 1481.67 Q717.442 1486.25 711.632 1486.25 Q705.822 1486.25 702.743 1481.67 Q699.688 1477.06 699.688 1468.33 Q699.688 1459.58 702.743 1455 Q705.822 1450.39 711.632 1450.39 Z" fill="#000000" fill-rule="nonzero" fill-opacity="1" /><path clip-path="url(#clip760)" d="M731.794 1479.7 L736.678 1479.7 L736.678 1485.58 L731.794 1485.58 L731.794 1479.7 Z" fill="#000000" fill-rule="nonzero" fill-opacity="1" /><path clip-path="url(#clip760)" d="M750.891 1481.64 L767.21 1481.64 L767.21 1485.58 L745.266 1485.58 L745.266 1481.64 Q747.928 1478.89 752.511 1474.26 Q757.118 1469.61 758.298 1468.27 Q760.544 1465.74 761.423 1464.01 Q762.326 1462.25 762.326 1460.56 Q762.326 1457.8 760.382 1456.07 Q758.461 1454.33 755.359 1454.33 Q753.16 1454.33 750.706 1455.09 Q748.275 1455.86 745.498 1457.41 L745.498 1452.69 Q748.322 1451.55 750.775 1450.97 Q753.229 1450.39 755.266 1450.39 Q760.636 1450.39 763.831 1453.08 Q767.025 1455.77 767.025 1460.26 Q767.025 1462.39 766.215 1464.31 Q765.428 1466.2 763.322 1468.8 Q762.743 1469.47 759.641 1472.69 Q756.539 1475.88 750.891 1481.64 Z" fill="#000000" fill-rule="nonzero" fill-opacity="1" /><path clip-path="url(#clip760)" d="M777.072 1451.02 L795.428 1451.02 L795.428 1454.96 L781.354 1454.96 L781.354 1463.43 Q782.372 1463.08 783.391 1462.92 Q784.409 1462.73 785.428 1462.73 Q791.215 1462.73 794.595 1465.9 Q797.974 1469.08 797.974 1474.49 Q797.974 1480.07 794.502 1483.17 Q791.03 1486.25 784.71 1486.25 Q782.534 1486.25 780.266 1485.88 Q778.021 1485.51 775.613 1484.77 L775.613 1480.07 Q777.697 1481.2 779.919 1481.76 Q782.141 1482.32 784.618 1482.32 Q788.622 1482.32 790.96 1480.21 Q793.298 1478.1 793.298 1474.49 Q793.298 1470.88 790.96 1468.77 Q788.622 1466.67 784.618 1466.67 Q782.743 1466.67 780.868 1467.08 Q779.016 1467.5 777.072 1468.38 L777.072 1451.02 Z" fill="#000000" fill-rule="nonzero" fill-opacity="1" /><path clip-path="url(#clip760)" d="M1169.22 1454.1 Q1165.61 1454.1 1163.78 1457.66 Q1161.98 1461.2 1161.98 1468.33 Q1161.98 1475.44 1163.78 1479.01 Q1165.61 1482.55 1169.22 1482.55 Q1172.86 1482.55 1174.66 1479.01 Q1176.49 1475.44 1176.49 1468.33 Q1176.49 1461.2 1174.66 1457.66 Q1172.86 1454.1 1169.22 1454.1 M1169.22 1450.39 Q1175.03 1450.39 1178.09 1455 Q1181.17 1459.58 1181.17 1468.33 Q1181.17 1477.06 1178.09 1481.67 Q1175.03 1486.25 1169.22 1486.25 Q1163.41 1486.25 1160.33 1481.67 Q1157.28 1477.06 1157.28 1468.33 Q1157.28 1459.58 1160.33 1455 Q1163.41 1450.39 1169.22 1450.39 Z" fill="#000000" fill-rule="nonzero" fill-opacity="1" /><path clip-path="url(#clip760)" d="M1189.38 1479.7 L1194.27 1479.7 L1194.27 1485.58 L1189.38 1485.58 L1189.38 1479.7 Z" fill="#000000" fill-rule="nonzero" fill-opacity="1" /><path clip-path="url(#clip760)" d="M1204.5 1451.02 L1222.86 1451.02 L1222.86 1454.96 L1208.78 1454.96 L1208.78 1463.43 Q1209.8 1463.08 1210.82 1462.92 Q1211.84 1462.73 1212.86 1462.73 Q1218.64 1462.73 1222.02 1465.9 Q1225.4 1469.08 1225.4 1474.49 Q1225.4 1480.07 1221.93 1483.17 Q1218.46 1486.25 1212.14 1486.25 Q1209.96 1486.25 1207.69 1485.88 Q1205.45 1485.51 1203.04 1484.77 L1203.04 1480.07 Q1205.12 1481.2 1207.35 1481.76 Q1209.57 1482.32 1212.05 1482.32 Q1216.05 1482.32 1218.39 1480.21 Q1220.73 1478.1 1220.73 1474.49 Q1220.73 1470.88 1218.39 1468.77 Q1216.05 1466.67 1212.05 1466.67 Q1210.17 1466.67 1208.3 1467.08 Q1206.44 1467.5 1204.5 1468.38 L1204.5 1451.02 Z" fill="#000000" fill-rule="nonzero" fill-opacity="1" /><path clip-path="url(#clip760)" d="M1244.62 1454.1 Q1241 1454.1 1239.18 1457.66 Q1237.37 1461.2 1237.37 1468.33 Q1237.37 1475.44 1239.18 1479.01 Q1241 1482.55 1244.62 1482.55 Q1248.25 1482.55 1250.05 1479.01 Q1251.88 1475.44 1251.88 1468.33 Q1251.88 1461.2 1250.05 1457.66 Q1248.25 1454.1 1244.62 1454.1 M1244.62 1450.39 Q1250.43 1450.39 1253.48 1455 Q1256.56 1459.58 1256.56 1468.33 Q1256.56 1477.06 1253.48 1481.67 Q1250.43 1486.25 1244.62 1486.25 Q1238.8 1486.25 1235.73 1481.67 Q1232.67 1477.06 1232.67 1468.33 Q1232.67 1459.58 1235.73 1455 Q1238.8 1450.39 1244.62 1450.39 Z" fill="#000000" fill-rule="nonzero" fill-opacity="1" /><path clip-path="url(#clip760)" d="M1627.81 1454.1 Q1624.2 1454.1 1622.37 1457.66 Q1620.56 1461.2 1620.56 1468.33 Q1620.56 1475.44 1622.37 1479.01 Q1624.2 1482.55 1627.81 1482.55 Q1631.44 1482.55 1633.25 1479.01 Q1635.08 1475.44 1635.08 1468.33 Q1635.08 1461.2 1633.25 1457.66 Q1631.44 1454.1 1627.81 1454.1 M1627.81 1450.39 Q1633.62 1450.39 1636.67 1455 Q1639.75 1459.58 1639.75 1468.33 Q1639.75 1477.06 1636.67 1481.67 Q1633.62 1486.25 1627.81 1486.25 Q1622 1486.25 1618.92 1481.67 Q1615.86 1477.06 1615.86 1468.33 Q1615.86 1459.58 1618.92 1455 Q1622 1450.39 1627.81 1450.39 Z" fill="#000000" fill-rule="nonzero" fill-opacity="1" /><path clip-path="url(#clip760)" d="M1647.97 1479.7 L1652.85 1479.7 L1652.85 1485.58 L1647.97 1485.58 L1647.97 1479.7 Z" fill="#000000" fill-rule="nonzero" fill-opacity="1" /><path clip-path="url(#clip760)" d="M1661.86 1451.02 L1684.08 1451.02 L1684.08 1453.01 L1671.53 1485.58 L1666.65 1485.58 L1678.45 1454.96 L1661.86 1454.96 L1661.86 1451.02 Z" fill="#000000" fill-rule="nonzero" fill-opacity="1" /><path clip-path="url(#clip760)" d="M1693.25 1451.02 L1711.6 1451.02 L1711.6 1454.96 L1697.53 1454.96 L1697.53 1463.43 Q1698.55 1463.08 1699.57 1462.92 Q1700.58 1462.73 1701.6 1462.73 Q1707.39 1462.73 1710.77 1465.9 Q1714.15 1469.08 1714.15 1474.49 Q1714.15 1480.07 1710.68 1483.17 Q1707.2 1486.25 1700.89 1486.25 Q1698.71 1486.25 1696.44 1485.88 Q1694.2 1485.51 1691.79 1484.77 L1691.79 1480.07 Q1693.87 1481.2 1696.09 1481.76 Q1698.32 1482.32 1700.79 1482.32 Q1704.8 1482.32 1707.14 1480.21 Q1709.47 1478.1 1709.47 1474.49 Q1709.47 1470.88 1707.14 1468.77 Q1704.8 1466.67 1700.79 1466.67 Q1698.92 1466.67 1697.04 1467.08 Q1695.19 1467.5 1693.25 1468.38 L1693.25 1451.02 Z" fill="#000000" fill-rule="nonzero" fill-opacity="1" /><path clip-path="url(#clip760)" d="M2075.17 1481.64 L2082.8 1481.64 L2082.8 1455.28 L2074.49 1456.95 L2074.49 1452.69 L2082.76 1451.02 L2087.43 1451.02 L2087.43 1481.64 L2095.07 1481.64 L2095.07 1485.58 L2075.17 1485.58 L2075.17 1481.64 Z" fill="#000000" fill-rule="nonzero" fill-opacity="1" /><path clip-path="url(#clip760)" d="M2104.52 1479.7 L2109.4 1479.7 L2109.4 1485.58 L2104.52 1485.58 L2104.52 1479.7 Z" fill="#000000" fill-rule="nonzero" fill-opacity="1" /><path clip-path="url(#clip760)" d="M2129.59 1454.1 Q2125.98 1454.1 2124.15 1457.66 Q2122.34 1461.2 2122.34 1468.33 Q2122.34 1475.44 2124.15 1479.01 Q2125.98 1482.55 2129.59 1482.55 Q2133.22 1482.55 2135.03 1479.01 Q2136.85 1475.44 2136.85 1468.33 Q2136.85 1461.2 2135.03 1457.66 Q2133.22 1454.1 2129.59 1454.1 M2129.59 1450.39 Q2135.4 1450.39 2138.45 1455 Q2141.53 1459.58 2141.53 1468.33 Q2141.53 1477.06 2138.45 1481.67 Q2135.4 1486.25 2129.59 1486.25 Q2123.78 1486.25 2120.7 1481.67 Q2117.64 1477.06 2117.64 1468.33 Q2117.64 1459.58 2120.7 1455 Q2123.78 1450.39 2129.59 1450.39 Z" fill="#000000" fill-rule="nonzero" fill-opacity="1" /><path clip-path="url(#clip760)" d="M2159.75 1454.1 Q2156.14 1454.1 2154.31 1457.66 Q2152.5 1461.2 2152.5 1468.33 Q2152.5 1475.44 2154.31 1479.01 Q2156.14 1482.55 2159.75 1482.55 Q2163.38 1482.55 2165.19 1479.01 Q2167.02 1475.44 2167.02 1468.33 Q2167.02 1461.2 2165.19 1457.66 Q2163.38 1454.1 2159.75 1454.1 M2159.75 1450.39 Q2165.56 1450.39 2168.61 1455 Q2171.69 1459.58 2171.69 1468.33 Q2171.69 1477.06 2168.61 1481.67 Q2165.56 1486.25 2159.75 1486.25 Q2153.94 1486.25 2150.86 1481.67 Q2147.8 1477.06 2147.8 1468.33 Q2147.8 1459.58 2150.86 1455 Q2153.94 1450.39 2159.75 1450.39 Z" fill="#000000" fill-rule="nonzero" fill-opacity="1" /><path clip-path="url(#clip760)" d="M1315.01 1538.06 Q1313.83 1537.65 1312.65 1537.33 Q1309.5 1536.5 1306.13 1536.5 Q1300.31 1536.5 1297.06 1539.65 Q1294.04 1542.58 1293.46 1547.96 L1315.01 1547.96 L1315.01 1552.54 L1293.46 1552.54 Q1294.04 1557.92 1297.06 1560.85 Q1300.31 1564 1306.13 1564 Q1310.2 1564 1312.65 1563.17 L1315.01 1562.38 L1315.01 1567.69 L1312.5 1568.27 Q1309.19 1568.97 1305.78 1568.97 Q1297.25 1568.97 1292.28 1564 Q1287.29 1559.04 1287.29 1550.25 Q1287.29 1541.47 1292.28 1536.5 Q1297.25 1531.54 1305.78 1531.54 Q1308.99 1531.54 1312.5 1532.24 Q1313.77 1532.49 1315.01 1532.87 L1315.01 1538.06 Z" fill="#000000" fill-rule="nonzero" fill-opacity="1" /><polyline clip-path="url(#clip760)" style="stroke:#000000; stroke-linecap:round; stroke-linejoin:round; stroke-width:4; stroke-opacity:1; fill:none" points="249.542,1423.18 249.542,47.2441 "/>
<polyline clip-path="url(#clip760)" style="stroke:#000000; stroke-linecap:round; stroke-linejoin:round; stroke-width:4; stroke-opacity:1; fill:none" points="249.542,1237.85 268.44,1237.85 "/>
<polyline clip-path="url(#clip760)" style="stroke:#000000; stroke-linecap:round; stroke-linejoin:round; stroke-width:4; stroke-opacity:1; fill:none" points="249.542,966.688 268.44,966.688 "/>
<polyline clip-path="url(#clip760)" style="stroke:#000000; stroke-linecap:round; stroke-linejoin:round; stroke-width:4; stroke-opacity:1; fill:none" points="249.542,695.524 268.44,695.524 "/>
<polyline clip-path="url(#clip760)" style="stroke:#000000; stroke-linecap:round; stroke-linejoin:round; stroke-width:4; stroke-opacity:1; fill:none" points="249.542,424.36 268.44,424.36 "/>
<polyline clip-path="url(#clip760)" style="stroke:#000000; stroke-linecap:round; stroke-linejoin:round; stroke-width:4; stroke-opacity:1; fill:none" points="249.542,153.196 268.44,153.196 "/>
<path clip-path="url(#clip760)" d="M126.205 1223.65 Q122.593 1223.65 120.765 1227.22 Q118.959 1230.76 118.959 1237.89 Q118.959 1244.99 120.765 1248.56 Q122.593 1252.1 126.205 1252.1 Q129.839 1252.1 131.644 1248.56 Q133.473 1244.99 133.473 1237.89 Q133.473 1230.76 131.644 1227.22 Q129.839 1223.65 126.205 1223.65 M126.205 1219.95 Q132.015 1219.95 135.07 1224.55 Q138.149 1229.14 138.149 1237.89 Q138.149 1246.61 135.07 1251.22 Q132.015 1255.8 126.205 1255.8 Q120.394 1255.8 117.316 1251.22 Q114.26 1246.61 114.26 1237.89 Q114.26 1229.14 117.316 1224.55 Q120.394 1219.95 126.205 1219.95 Z" fill="#000000" fill-rule="nonzero" fill-opacity="1" /><path clip-path="url(#clip760)" d="M146.366 1249.25 L151.251 1249.25 L151.251 1255.13 L146.366 1255.13 L146.366 1249.25 Z" fill="#000000" fill-rule="nonzero" fill-opacity="1" /><path clip-path="url(#clip760)" d="M165.464 1251.2 L181.783 1251.2 L181.783 1255.13 L159.839 1255.13 L159.839 1251.2 Q162.501 1248.44 167.084 1243.81 Q171.69 1239.16 172.871 1237.82 Q175.116 1235.29 175.996 1233.56 Q176.899 1231.8 176.899 1230.11 Q176.899 1227.35 174.954 1225.62 Q173.033 1223.88 169.931 1223.88 Q167.732 1223.88 165.278 1224.65 Q162.848 1225.41 160.07 1226.96 L160.07 1222.24 Q162.894 1221.1 165.348 1220.53 Q167.802 1219.95 169.839 1219.95 Q175.209 1219.95 178.403 1222.63 Q181.598 1225.32 181.598 1229.81 Q181.598 1231.94 180.788 1233.86 Q180.001 1235.76 177.894 1238.35 Q177.315 1239.02 174.214 1242.24 Q171.112 1245.43 165.464 1251.2 Z" fill="#000000" fill-rule="nonzero" fill-opacity="1" /><path clip-path="url(#clip760)" d="M201.598 1223.65 Q197.987 1223.65 196.158 1227.22 Q194.352 1230.76 194.352 1237.89 Q194.352 1244.99 196.158 1248.56 Q197.987 1252.1 201.598 1252.1 Q205.232 1252.1 207.037 1248.56 Q208.866 1244.99 208.866 1237.89 Q208.866 1230.76 207.037 1227.22 Q205.232 1223.65 201.598 1223.65 M201.598 1219.95 Q207.408 1219.95 210.463 1224.55 Q213.542 1229.14 213.542 1237.89 Q213.542 1246.61 210.463 1251.22 Q207.408 1255.8 201.598 1255.8 Q195.787 1255.8 192.709 1251.22 Q189.653 1246.61 189.653 1237.89 Q189.653 1229.14 192.709 1224.55 Q195.787 1219.95 201.598 1219.95 Z" fill="#000000" fill-rule="nonzero" fill-opacity="1" /><path clip-path="url(#clip760)" d="M127.2 952.487 Q123.589 952.487 121.76 956.051 Q119.955 959.593 119.955 966.723 Q119.955 973.829 121.76 977.394 Q123.589 980.935 127.2 980.935 Q130.834 980.935 132.64 977.394 Q134.468 973.829 134.468 966.723 Q134.468 959.593 132.64 956.051 Q130.834 952.487 127.2 952.487 M127.2 948.783 Q133.01 948.783 136.066 953.389 Q139.144 957.973 139.144 966.723 Q139.144 975.449 136.066 980.056 Q133.01 984.639 127.2 984.639 Q121.39 984.639 118.311 980.056 Q115.256 975.449 115.256 966.723 Q115.256 957.973 118.311 953.389 Q121.39 948.783 127.2 948.783 Z" fill="#000000" fill-rule="nonzero" fill-opacity="1" /><path clip-path="url(#clip760)" d="M147.362 978.088 L152.246 978.088 L152.246 983.968 L147.362 983.968 L147.362 978.088 Z" fill="#000000" fill-rule="nonzero" fill-opacity="1" /><path clip-path="url(#clip760)" d="M166.459 980.033 L182.778 980.033 L182.778 983.968 L160.834 983.968 L160.834 980.033 Q163.496 977.278 168.079 972.648 Q172.686 967.996 173.866 966.653 Q176.112 964.13 176.991 962.394 Q177.894 960.635 177.894 958.945 Q177.894 956.19 175.95 954.454 Q174.028 952.718 170.927 952.718 Q168.727 952.718 166.274 953.482 Q163.843 954.246 161.065 955.797 L161.065 951.075 Q163.89 949.94 166.343 949.362 Q168.797 948.783 170.834 948.783 Q176.204 948.783 179.399 951.468 Q182.593 954.153 182.593 958.644 Q182.593 960.774 181.783 962.695 Q180.996 964.593 178.889 967.186 Q178.311 967.857 175.209 971.074 Q172.107 974.269 166.459 980.033 Z" fill="#000000" fill-rule="nonzero" fill-opacity="1" /><path clip-path="url(#clip760)" d="M192.639 949.408 L210.996 949.408 L210.996 953.343 L196.922 953.343 L196.922 961.815 Q197.94 961.468 198.959 961.306 Q199.977 961.121 200.996 961.121 Q206.783 961.121 210.162 964.292 Q213.542 967.463 213.542 972.88 Q213.542 978.459 210.07 981.56 Q206.598 984.639 200.278 984.639 Q198.102 984.639 195.834 984.269 Q193.588 983.898 191.181 983.158 L191.181 978.459 Q193.264 979.593 195.487 980.148 Q197.709 980.704 200.186 980.704 Q204.19 980.704 206.528 978.598 Q208.866 976.491 208.866 972.88 Q208.866 969.269 206.528 967.162 Q204.19 965.056 200.186 965.056 Q198.311 965.056 196.436 965.473 Q194.584 965.889 192.639 966.769 L192.639 949.408 Z" fill="#000000" fill-rule="nonzero" fill-opacity="1" /><path clip-path="url(#clip760)" d="M126.205 681.323 Q122.593 681.323 120.765 684.888 Q118.959 688.429 118.959 695.559 Q118.959 702.665 120.765 706.23 Q122.593 709.772 126.205 709.772 Q129.839 709.772 131.644 706.23 Q133.473 702.665 133.473 695.559 Q133.473 688.429 131.644 684.888 Q129.839 681.323 126.205 681.323 M126.205 677.619 Q132.015 677.619 135.07 682.225 Q138.149 686.809 138.149 695.559 Q138.149 704.286 135.07 708.892 Q132.015 713.475 126.205 713.475 Q120.394 713.475 117.316 708.892 Q114.26 704.286 114.26 695.559 Q114.26 686.809 117.316 682.225 Q120.394 677.619 126.205 677.619 Z" fill="#000000" fill-rule="nonzero" fill-opacity="1" /><path clip-path="url(#clip760)" d="M146.366 706.924 L151.251 706.924 L151.251 712.804 L146.366 712.804 L146.366 706.924 Z" fill="#000000" fill-rule="nonzero" fill-opacity="1" /><path clip-path="url(#clip760)" d="M175.602 694.17 Q178.959 694.887 180.834 697.156 Q182.732 699.424 182.732 702.758 Q182.732 707.874 179.214 710.674 Q175.695 713.475 169.214 713.475 Q167.038 713.475 164.723 713.036 Q162.431 712.619 159.978 711.762 L159.978 707.249 Q161.922 708.383 164.237 708.961 Q166.552 709.54 169.075 709.54 Q173.473 709.54 175.764 707.804 Q178.079 706.068 178.079 702.758 Q178.079 699.702 175.926 697.989 Q173.797 696.253 169.977 696.253 L165.95 696.253 L165.95 692.411 L170.163 692.411 Q173.612 692.411 175.44 691.045 Q177.269 689.656 177.269 687.063 Q177.269 684.401 175.371 682.989 Q173.496 681.554 169.977 681.554 Q168.056 681.554 165.857 681.971 Q163.658 682.388 161.019 683.267 L161.019 679.101 Q163.681 678.36 165.996 677.989 Q168.334 677.619 170.394 677.619 Q175.718 677.619 178.82 680.05 Q181.922 682.457 181.922 686.577 Q181.922 689.448 180.278 691.438 Q178.635 693.406 175.602 694.17 Z" fill="#000000" fill-rule="nonzero" fill-opacity="1" /><path clip-path="url(#clip760)" d="M201.598 681.323 Q197.987 681.323 196.158 684.888 Q194.352 688.429 194.352 695.559 Q194.352 702.665 196.158 706.23 Q197.987 709.772 201.598 709.772 Q205.232 709.772 207.037 706.23 Q208.866 702.665 208.866 695.559 Q208.866 688.429 207.037 684.888 Q205.232 681.323 201.598 681.323 M201.598 677.619 Q207.408 677.619 210.463 682.225 Q213.542 686.809 213.542 695.559 Q213.542 704.286 210.463 708.892 Q207.408 713.475 201.598 713.475 Q195.787 713.475 192.709 708.892 Q189.653 704.286 189.653 695.559 Q189.653 686.809 192.709 682.225 Q195.787 677.619 201.598 677.619 Z" fill="#000000" fill-rule="nonzero" fill-opacity="1" /><path clip-path="url(#clip760)" d="M127.2 410.159 Q123.589 410.159 121.76 413.724 Q119.955 417.265 119.955 424.395 Q119.955 431.501 121.76 435.066 Q123.589 438.608 127.2 438.608 Q130.834 438.608 132.64 435.066 Q134.468 431.501 134.468 424.395 Q134.468 417.265 132.64 413.724 Q130.834 410.159 127.2 410.159 M127.2 406.455 Q133.01 406.455 136.066 411.062 Q139.144 415.645 139.144 424.395 Q139.144 433.122 136.066 437.728 Q133.01 442.311 127.2 442.311 Q121.39 442.311 118.311 437.728 Q115.256 433.122 115.256 424.395 Q115.256 415.645 118.311 411.062 Q121.39 406.455 127.2 406.455 Z" fill="#000000" fill-rule="nonzero" fill-opacity="1" /><path clip-path="url(#clip760)" d="M147.362 435.761 L152.246 435.761 L152.246 441.64 L147.362 441.64 L147.362 435.761 Z" fill="#000000" fill-rule="nonzero" fill-opacity="1" /><path clip-path="url(#clip760)" d="M176.598 423.006 Q179.954 423.724 181.829 425.992 Q183.727 428.261 183.727 431.594 Q183.727 436.71 180.209 439.511 Q176.69 442.311 170.209 442.311 Q168.033 442.311 165.718 441.872 Q163.427 441.455 160.973 440.599 L160.973 436.085 Q162.917 437.219 165.232 437.798 Q167.547 438.376 170.07 438.376 Q174.468 438.376 176.76 436.64 Q179.075 434.904 179.075 431.594 Q179.075 428.538 176.922 426.825 Q174.792 425.089 170.973 425.089 L166.945 425.089 L166.945 421.247 L171.158 421.247 Q174.607 421.247 176.436 419.881 Q178.264 418.492 178.264 415.9 Q178.264 413.238 176.366 411.826 Q174.491 410.39 170.973 410.39 Q169.052 410.39 166.852 410.807 Q164.653 411.224 162.015 412.103 L162.015 407.937 Q164.677 407.196 166.991 406.826 Q169.329 406.455 171.389 406.455 Q176.714 406.455 179.815 408.886 Q182.917 411.293 182.917 415.413 Q182.917 418.284 181.274 420.275 Q179.63 422.242 176.598 423.006 Z" fill="#000000" fill-rule="nonzero" fill-opacity="1" /><path clip-path="url(#clip760)" d="M192.639 407.08 L210.996 407.08 L210.996 411.015 L196.922 411.015 L196.922 419.488 Q197.94 419.14 198.959 418.978 Q199.977 418.793 200.996 418.793 Q206.783 418.793 210.162 421.964 Q213.542 425.136 213.542 430.552 Q213.542 436.131 210.07 439.233 Q206.598 442.311 200.278 442.311 Q198.102 442.311 195.834 441.941 Q193.588 441.571 191.181 440.83 L191.181 436.131 Q193.264 437.265 195.487 437.821 Q197.709 438.376 200.186 438.376 Q204.19 438.376 206.528 436.27 Q208.866 434.163 208.866 430.552 Q208.866 426.941 206.528 424.835 Q204.19 422.728 200.186 422.728 Q198.311 422.728 196.436 423.145 Q194.584 423.562 192.639 424.441 L192.639 407.08 Z" fill="#000000" fill-rule="nonzero" fill-opacity="1" /><path clip-path="url(#clip760)" d="M126.205 138.995 Q122.593 138.995 120.765 142.56 Q118.959 146.101 118.959 153.231 Q118.959 160.337 120.765 163.902 Q122.593 167.444 126.205 167.444 Q129.839 167.444 131.644 163.902 Q133.473 160.337 133.473 153.231 Q133.473 146.101 131.644 142.56 Q129.839 138.995 126.205 138.995 M126.205 135.291 Q132.015 135.291 135.07 139.898 Q138.149 144.481 138.149 153.231 Q138.149 161.958 135.07 166.564 Q132.015 171.148 126.205 171.148 Q120.394 171.148 117.316 166.564 Q114.26 161.958 114.26 153.231 Q114.26 144.481 117.316 139.898 Q120.394 135.291 126.205 135.291 Z" fill="#000000" fill-rule="nonzero" fill-opacity="1" /><path clip-path="url(#clip760)" d="M146.366 164.597 L151.251 164.597 L151.251 170.476 L146.366 170.476 L146.366 164.597 Z" fill="#000000" fill-rule="nonzero" fill-opacity="1" /><path clip-path="url(#clip760)" d="M174.283 139.99 L162.477 158.439 L174.283 158.439 L174.283 139.99 M173.056 135.916 L178.936 135.916 L178.936 158.439 L183.866 158.439 L183.866 162.328 L178.936 162.328 L178.936 170.476 L174.283 170.476 L174.283 162.328 L158.681 162.328 L158.681 157.814 L173.056 135.916 Z" fill="#000000" fill-rule="nonzero" fill-opacity="1" /><path clip-path="url(#clip760)" d="M201.598 138.995 Q197.987 138.995 196.158 142.56 Q194.352 146.101 194.352 153.231 Q194.352 160.337 196.158 163.902 Q197.987 167.444 201.598 167.444 Q205.232 167.444 207.037 163.902 Q208.866 160.337 208.866 153.231 Q208.866 146.101 207.037 142.56 Q205.232 138.995 201.598 138.995 M201.598 135.291 Q207.408 135.291 210.463 139.898 Q213.542 144.481 213.542 153.231 Q213.542 161.958 210.463 166.564 Q207.408 171.148 201.598 171.148 Q195.787 171.148 192.709 166.564 Q189.653 161.958 189.653 153.231 Q189.653 144.481 192.709 139.898 Q195.787 135.291 201.598 135.291 Z" fill="#000000" fill-rule="nonzero" fill-opacity="1" /><path clip-path="url(#clip760)" d="M46.212 745.699 Q39.7508 745.699 36.0905 748.373 Q32.3984 751.015 32.3984 755.662 Q32.3984 760.309 36.0905 762.982 Q39.7508 765.624 46.212 765.624 Q52.6732 765.624 56.3653 762.982 Q60.0256 760.309 60.0256 755.662 Q60.0256 751.015 56.3653 748.373 Q52.6732 745.699 46.212 745.699 M33.7671 765.624 Q30.5842 763.778 29.0564 760.977 Q27.4968 758.144 27.4968 754.23 Q27.4968 747.736 32.6531 743.694 Q37.8093 739.62 46.212 739.62 Q54.6147 739.62 59.771 743.694 Q64.9272 747.736 64.9272 754.23 Q64.9272 758.144 63.3994 760.977 Q61.8398 763.778 58.657 765.624 L64.0042 765.624 L64.0042 771.512 L14.479 771.512 L14.479 765.624 L33.7671 765.624 Z" fill="#000000" fill-rule="nonzero" fill-opacity="1" /><path clip-path="url(#clip760)" d="M20.7174 715.335 Q20.7174 720.3 25.6189 722.815 Q30.4887 725.297 40.2919 725.297 Q50.0633 725.297 54.9649 722.815 Q59.8346 720.3 59.8346 715.335 Q59.8346 710.338 54.9649 707.855 Q50.0633 705.341 40.2919 705.341 Q30.4887 705.341 25.6189 707.855 Q20.7174 710.338 20.7174 715.335 M15.6248 715.335 Q15.6248 707.346 21.9587 703.145 Q28.2607 698.912 40.2919 698.912 Q52.2913 698.912 58.6251 703.145 Q64.9272 707.346 64.9272 715.335 Q64.9272 723.324 58.6251 727.557 Q52.2913 731.759 40.2919 731.759 Q28.2607 731.759 21.9587 727.557 Q15.6248 723.324 15.6248 715.335 Z" fill="#000000" fill-rule="nonzero" fill-opacity="1" /><circle clip-path="url(#clip761)" cx="1329.1" cy="1349.89" r="10.8" fill="#458b00" fill-rule="evenodd" fill-opacity="1" stroke="none"/>
<circle clip-path="url(#clip761)" cx="2293.23" cy="1138.34" r="10.8" fill="#ff8247" fill-rule="evenodd" fill-opacity="1" stroke="none"/>
<polyline clip-path="url(#clip761)" style="stroke:#3da44d; stroke-linecap:round; stroke-linejoin:round; stroke-width:4; stroke-opacity:1; fill:none" points="309.067,898.91 315.795,904.291 341.404,924.315 367.033,943.654 392.681,962.338 418.344,980.393 444.022,997.848 469.714,1014.73 495.416,1031.05 521.13,1046.85 546.853,1062.13 572.585,1076.93 598.325,1091.25 619.451,1102.67 634.298,1110.51 644.731,1115.93 652.062,1119.7 657.213,1122.33 662.365,1124.94 669.697,1128.63 680.134,1133.82 694.989,1141.1 716.132,1151.22 741.905,1163.21 767.682,1174.83 793.463,1186.08 819.248,1196.98 845.035,1207.54 870.825,1217.77 896.618,1227.67 922.413,1237.25 948.209,1246.52 974.007,1255.49 999.806,1264.16 1025.61,1272.54 1051.41,1280.63 1077.21,1288.43 1103.01,1295.95 1128.81,1303.19 1154.61,1310.16 1180.4,1316.84 1206.2,1323.24 1232,1329.37 1257.79,1335.22 1283.58,1340.78 1309.37,1346.05 1329.1,1349.89 1354.88,1354.64 1380.66,1359.09 1406.43,1363.23 1432.19,1367.04 1457.95,1370.52 1483.7,1373.65 1509.45,1376.42 1535.18,1378.8 1560.91,1380.79 1586.62,1382.35 1612.32,1383.46 1638.01,1384.1 1663.69,1384.23 1689.35,1383.81 1715,1382.82 1740.62,1381.21 1766.23,1378.94 1791.82,1375.96 1817.39,1372.22 1842.93,1367.67 1868.44,1362.27 1893.92,1355.95 1919.36,1348.69 1944.75,1340.43 1970.08,1331.16 1995.34,1320.84 2020.49,1309.51 2045.5,1297.18 2070.33,1283.94 2094.91,1269.9 2119.17,1255.23 2143.01,1240.13 2166.31,1224.84 2188.93,1209.63 2210.7,1194.77 2231.37,1180.56 2250.55,1167.37 2267.63,1155.68 2281.59,1146.19 2290.8,1139.97 2292.97,1138.51 2293.02,1138.48 2293.23,1138.34 2288.15,1141.76 2276.81,1149.43 2261.37,1159.96 2243.28,1172.36 2223.41,1186.04 2202.23,1200.57 2180.06,1215.63 2157.12,1230.93 2133.57,1246.18 2109.53,1261.15 2085.11,1275.6 2060.41,1289.35 2035.49,1302.24 2010.4,1314.18 1985.2,1325.11 1959.91,1335.01 1934.55,1343.88 1909.13,1351.73 1883.67,1358.61 1858.18,1364.55 1832.65,1369.6 1807.1,1373.82 1781.52,1377.25 1755.92,1379.94 1730.31,1381.94 1704.67,1383.29 1679.02,1384.05 1653.35,1384.24 "/>
<circle clip-path="url(#clip761)" cx="1329.1" cy="1349.89" r="10.8" fill="#458b00" fill-rule="evenodd" fill-opacity="1" stroke="none"/>
<circle clip-path="url(#clip761)" cx="2293.23" cy="1138.34" r="10.8" fill="#ff8247" fill-rule="evenodd" fill-opacity="1" stroke="none"/>
<polyline clip-path="url(#clip761)" style="stroke:#ac8d18; stroke-linecap:round; stroke-linejoin:round; stroke-width:4; stroke-opacity:1; fill:none" points="309.067,868.68 323.759,856.107 349.285,833.616 374.776,810.296 400.228,786.112 425.634,761.024 450.987,734.994 476.279,707.984 501.499,679.955 526.633,650.871 551.667,620.699 576.579,589.412 601.343,556.993 621.528,529.547 635.624,509.81 645.494,495.704 652.385,485.711 657.213,478.638 662.03,471.523 668.863,461.326 678.571,446.626 692.268,425.457 711.528,394.808 734.555,356.759 756.958,318.203 778.549,279.54 799.082,241.34 818.228,204.411 835.551,169.872 850.482,139.211 862.327,114.29 866.821,104.692 871.209,95.2453 873.003,91.3613 875.4,86.1857 873.685,89.8822 870.519,96.7348 862.672,113.556 850.897,138.347 835.997,168.967 818.689,203.507 799.55,240.452 779.023,278.673 757.439,317.357 735.044,355.934 712.021,394.01 688.507,431.32 664.606,467.692 640.397,503.018 615.941,537.239 591.283,570.326 566.46,602.276 541.502,633.099 516.431,662.818 491.266,691.463 466.021,719.069 440.707,745.671 415.336,771.31 389.915,796.023 364.45,819.849 338.947,842.826 313.412,864.989 309.067,868.68 "/>
<circle clip-path="url(#clip761)" cx="873.685" cy="89.8822" r="10.8" fill="#ff8247" fill-rule="evenodd" fill-opacity="1" stroke="none"/>
<path clip-path="url(#clip760)" d="M1923.69 352.309 L2282.65 352.309 L2282.65 93.1086 L1923.69 93.1086  Z" fill="#ffffff" fill-rule="evenodd" fill-opacity="1"/>
<polyline clip-path="url(#clip760)" style="stroke:#000000; stroke-linecap:round; stroke-linejoin:round; stroke-width:4; stroke-opacity:1; fill:none" points="1923.69,352.309 2282.65,352.309 2282.65,93.1086 1923.69,93.1086 1923.69,352.309 "/>
<circle clip-path="url(#clip760)" cx="2017.17" cy="144.949" r="23.04" fill="#458b00" fill-rule="evenodd" fill-opacity="1" stroke="none"/>
<path clip-path="url(#clip760)" d="M2127.04 146.025 Q2128.54 146.534 2129.95 148.201 Q2131.39 149.868 2132.82 152.784 L2137.57 162.229 L2132.54 162.229 L2128.12 153.363 Q2126.41 149.891 2124.79 148.756 Q2123.19 147.622 2120.41 147.622 L2115.32 147.622 L2115.32 162.229 L2110.65 162.229 L2110.65 127.669 L2121.2 127.669 Q2127.13 127.669 2130.04 130.145 Q2132.96 132.622 2132.96 137.622 Q2132.96 140.886 2131.43 143.039 Q2129.93 145.192 2127.04 146.025 M2115.32 131.511 L2115.32 143.78 L2121.2 143.78 Q2124.58 143.78 2126.29 142.229 Q2128.03 140.655 2128.03 137.622 Q2128.03 134.59 2126.29 133.062 Q2124.58 131.511 2121.2 131.511 L2115.32 131.511 Z" fill="#000000" fill-rule="nonzero" fill-opacity="1" /><path clip-path="url(#clip760)" d="M2144.81 158.293 L2152.45 158.293 L2152.45 131.928 L2144.14 133.595 L2144.14 129.335 L2152.41 127.669 L2157.08 127.669 L2157.08 158.293 L2164.72 158.293 L2164.72 162.229 L2144.81 162.229 L2144.81 158.293 Z" fill="#000000" fill-rule="nonzero" fill-opacity="1" /><circle clip-path="url(#clip760)" cx="2017.17" cy="196.789" r="23.04" fill="#ff8247" fill-rule="evenodd" fill-opacity="1" stroke="none"/>
<path clip-path="url(#clip760)" d="M2131.16 189.138 L2131.16 193.12 Q2129.35 192.124 2127.52 191.638 Q2125.72 191.129 2123.86 191.129 Q2119.72 191.129 2117.43 193.768 Q2115.14 196.384 2115.14 201.129 Q2115.14 205.874 2117.43 208.513 Q2119.72 211.129 2123.86 211.129 Q2125.72 211.129 2127.52 210.643 Q2129.35 210.133 2131.16 209.138 L2131.16 213.073 Q2129.37 213.907 2127.45 214.323 Q2125.55 214.74 2123.4 214.74 Q2117.54 214.74 2114.1 211.059 Q2110.65 207.379 2110.65 201.129 Q2110.65 194.786 2114.12 191.152 Q2117.61 187.518 2123.68 187.518 Q2125.65 187.518 2127.52 187.935 Q2129.4 188.328 2131.16 189.138 Z" fill="#000000" fill-rule="nonzero" fill-opacity="1" /><path clip-path="url(#clip760)" d="M2138.12 203.837 L2138.12 188.143 L2142.38 188.143 L2142.38 203.675 Q2142.38 207.356 2143.82 209.208 Q2145.25 211.036 2148.12 211.036 Q2151.57 211.036 2153.56 208.837 Q2155.58 206.638 2155.58 202.842 L2155.58 188.143 L2159.84 188.143 L2159.84 214.069 L2155.58 214.069 L2155.58 210.087 Q2154.03 212.448 2151.97 213.606 Q2149.93 214.74 2147.22 214.74 Q2142.75 214.74 2140.44 211.962 Q2138.12 209.184 2138.12 203.837 M2148.84 187.518 L2148.84 187.518 Z" fill="#000000" fill-rule="nonzero" fill-opacity="1" /><path clip-path="url(#clip760)" d="M2185.14 188.907 L2185.14 192.934 Q2183.33 192.009 2181.39 191.546 Q2179.44 191.083 2177.36 191.083 Q2174.19 191.083 2172.59 192.055 Q2171.02 193.027 2171.02 194.971 Q2171.02 196.453 2172.15 197.309 Q2173.28 198.143 2176.71 198.907 L2178.17 199.231 Q2182.71 200.203 2184.6 201.985 Q2186.53 203.745 2186.53 206.916 Q2186.53 210.527 2183.66 212.633 Q2180.81 214.74 2175.81 214.74 Q2173.72 214.74 2171.46 214.323 Q2169.21 213.93 2166.71 213.12 L2166.71 208.721 Q2169.07 209.948 2171.36 210.573 Q2173.66 211.175 2175.9 211.175 Q2178.91 211.175 2180.53 210.157 Q2182.15 209.115 2182.15 207.24 Q2182.15 205.504 2180.97 204.578 Q2179.81 203.652 2175.85 202.796 L2174.37 202.448 Q2170.41 201.615 2168.66 199.902 Q2166.9 198.166 2166.9 195.157 Q2166.9 191.499 2169.49 189.509 Q2172.08 187.518 2176.85 187.518 Q2179.21 187.518 2181.29 187.865 Q2183.38 188.212 2185.14 188.907 Z" fill="#000000" fill-rule="nonzero" fill-opacity="1" /><path clip-path="url(#clip760)" d="M2197.43 210.18 L2197.43 223.93 L2193.15 223.93 L2193.15 188.143 L2197.43 188.143 L2197.43 192.078 Q2198.77 189.763 2200.81 188.652 Q2202.87 187.518 2205.72 187.518 Q2210.44 187.518 2213.38 191.268 Q2216.34 195.018 2216.34 201.129 Q2216.34 207.24 2213.38 210.99 Q2210.44 214.74 2205.72 214.74 Q2202.87 214.74 2200.81 213.629 Q2198.77 212.495 2197.43 210.18 M2211.92 201.129 Q2211.92 196.43 2209.97 193.768 Q2208.05 191.083 2204.67 191.083 Q2201.29 191.083 2199.35 193.768 Q2197.43 196.43 2197.43 201.129 Q2197.43 205.828 2199.35 208.513 Q2201.29 211.175 2204.67 211.175 Q2208.05 211.175 2209.97 208.513 Q2211.92 205.828 2211.92 201.129 Z" fill="#000000" fill-rule="nonzero" fill-opacity="1" /><polyline clip-path="url(#clip760)" style="stroke:#3da44d; stroke-linecap:round; stroke-linejoin:round; stroke-width:4; stroke-opacity:1; fill:none" points="1947.06,248.629 2087.28,248.629 "/>
<path clip-path="url(#clip760)" d="M2110.65 231.349 L2130.51 231.349 L2130.51 235.284 L2115.32 235.284 L2115.32 245.469 L2129.03 245.469 L2129.03 249.404 L2115.32 249.404 L2115.32 265.909 L2110.65 265.909 L2110.65 231.349 Z" fill="#000000" fill-rule="nonzero" fill-opacity="1" /><path clip-path="url(#clip760)" d="M2151.94 234.52 Q2146.85 234.52 2143.84 238.316 Q2140.85 242.112 2140.85 248.663 Q2140.85 255.191 2143.84 258.987 Q2146.85 262.784 2151.94 262.784 Q2157.03 262.784 2160 258.987 Q2162.98 255.191 2162.98 248.663 Q2162.98 242.112 2160 238.316 Q2157.03 234.52 2151.94 234.52 M2151.94 230.724 Q2159.21 230.724 2163.56 235.608 Q2167.91 240.469 2167.91 248.663 Q2167.91 256.835 2163.56 261.719 Q2159.21 266.58 2151.94 266.58 Q2144.65 266.58 2140.28 261.719 Q2135.92 256.858 2135.92 248.663 Q2135.92 240.469 2140.28 235.608 Q2144.65 230.724 2151.94 230.724 Z" fill="#000000" fill-rule="nonzero" fill-opacity="1" /><path clip-path="url(#clip760)" d="M2175.23 231.349 L2179.91 231.349 L2179.91 261.973 L2196.73 261.973 L2196.73 265.909 L2175.23 265.909 L2175.23 231.349 Z" fill="#000000" fill-rule="nonzero" fill-opacity="1" /><path clip-path="url(#clip760)" d="M2206.32 235.191 L2206.32 262.066 L2211.97 262.066 Q2219.12 262.066 2222.43 258.825 Q2225.76 255.585 2225.76 248.594 Q2225.76 241.649 2222.43 238.432 Q2219.12 235.191 2211.97 235.191 L2206.32 235.191 M2201.64 231.349 L2211.25 231.349 Q2221.29 231.349 2225.99 235.538 Q2230.69 239.705 2230.69 248.594 Q2230.69 257.529 2225.97 261.719 Q2221.25 265.909 2211.25 265.909 L2201.64 265.909 L2201.64 231.349 Z" fill="#000000" fill-rule="nonzero" fill-opacity="1" /><path clip-path="url(#clip760)" d="M2239.37 261.973 L2247.01 261.973 L2247.01 235.608 L2238.7 237.275 L2238.7 233.015 L2246.96 231.349 L2251.64 231.349 L2251.64 261.973 L2259.28 261.973 L2259.28 265.909 L2239.37 265.909 L2239.37 261.973 Z" fill="#000000" fill-rule="nonzero" fill-opacity="1" /><polyline clip-path="url(#clip760)" style="stroke:#ac8d18; stroke-linecap:round; stroke-linejoin:round; stroke-width:4; stroke-opacity:1; fill:none" points="1947.06,300.469 2087.28,300.469 "/>
<path clip-path="url(#clip760)" d="M2110.65 283.189 L2130.51 283.189 L2130.51 287.124 L2115.32 287.124 L2115.32 297.309 L2129.03 297.309 L2129.03 301.244 L2115.32 301.244 L2115.32 317.749 L2110.65 317.749 L2110.65 283.189 Z" fill="#000000" fill-rule="nonzero" fill-opacity="1" /><path clip-path="url(#clip760)" d="M2151.94 286.36 Q2146.85 286.36 2143.84 290.156 Q2140.85 293.952 2140.85 300.503 Q2140.85 307.031 2143.84 310.827 Q2146.85 314.624 2151.94 314.624 Q2157.03 314.624 2160 310.827 Q2162.98 307.031 2162.98 300.503 Q2162.98 293.952 2160 290.156 Q2157.03 286.36 2151.94 286.36 M2151.94 282.564 Q2159.21 282.564 2163.56 287.448 Q2167.91 292.309 2167.91 300.503 Q2167.91 308.675 2163.56 313.559 Q2159.21 318.42 2151.94 318.42 Q2144.65 318.42 2140.28 313.559 Q2135.92 308.698 2135.92 300.503 Q2135.92 292.309 2140.28 287.448 Q2144.65 282.564 2151.94 282.564 Z" fill="#000000" fill-rule="nonzero" fill-opacity="1" /><path clip-path="url(#clip760)" d="M2175.23 283.189 L2179.91 283.189 L2179.91 313.813 L2196.73 313.813 L2196.73 317.749 L2175.23 317.749 L2175.23 283.189 Z" fill="#000000" fill-rule="nonzero" fill-opacity="1" /><path clip-path="url(#clip760)" d="M2206.32 287.031 L2206.32 313.906 L2211.97 313.906 Q2219.12 313.906 2222.43 310.665 Q2225.76 307.425 2225.76 300.434 Q2225.76 293.489 2222.43 290.272 Q2219.12 287.031 2211.97 287.031 L2206.32 287.031 M2201.64 283.189 L2211.25 283.189 Q2221.29 283.189 2225.99 287.378 Q2230.69 291.545 2230.69 300.434 Q2230.69 309.369 2225.97 313.559 Q2221.25 317.749 2211.25 317.749 L2201.64 317.749 L2201.64 283.189 Z" fill="#000000" fill-rule="nonzero" fill-opacity="1" /><path clip-path="url(#clip760)" d="M2242.59 313.813 L2258.91 313.813 L2258.91 317.749 L2236.97 317.749 L2236.97 313.813 Q2239.63 311.059 2244.21 306.429 Q2248.82 301.776 2250 300.434 Q2252.24 297.911 2253.12 296.175 Q2254.03 294.415 2254.03 292.726 Q2254.03 289.971 2252.08 288.235 Q2250.16 286.499 2247.06 286.499 Q2244.86 286.499 2242.4 287.263 Q2239.97 288.027 2237.2 289.577 L2237.2 284.855 Q2240.02 283.721 2242.47 283.142 Q2244.93 282.564 2246.96 282.564 Q2252.34 282.564 2255.53 285.249 Q2258.72 287.934 2258.72 292.425 Q2258.72 294.554 2257.91 296.476 Q2257.13 298.374 2255.02 300.966 Q2254.44 301.638 2251.34 304.855 Q2248.24 308.05 2242.59 313.813 Z" fill="#000000" fill-rule="nonzero" fill-opacity="1" /></svg>
