<?xml version="1.0" encoding="utf-8"?>
<svg xmlns="http://www.w3.org/2000/svg" xmlns:xlink="http://www.w3.org/1999/xlink" width="600" height="400" viewBox="0 0 2400 1600">
<defs>
  <clipPath id="clip020">
    <rect x="0" y="0" width="2400" height="1600"/>
  </clipPath>
</defs>
<path clip-path="url(#clip020)" d="M0 1600 L2400 1600 L2400 0 L0 0  Z" fill="#ffffff" fill-rule="evenodd" fill-opacity="1"/>
<defs>
  <clipPath id="clip021">
    <rect x="480" y="0" width="1681" height="1600"/>
  </clipPath>
</defs>
<path clip-path="url(#clip020)" d="M307.034 1486.45 L2352.76 1486.45 L2352.76 47.2441 L307.034 47.2441  Z" fill="#ffffff" fill-rule="evenodd" fill-opacity="1"/>
<defs>
  <clipPath id="clip022">
    <rect x="307" y="47" width="2047" height="1440"/>
  </clipPath>
</defs>
<polyline clip-path="url(#clip022)" style="stroke:#000000; stroke-linecap:round; stroke-linejoin:round; stroke-width:2; stroke-opacity:0.1; fill:none" points="364.932,1486.45 364.932,47.2441 "/>
<polyline clip-path="url(#clip022)" style="stroke:#000000; stroke-linecap:round; stroke-linejoin:round; stroke-width:2; stroke-opacity:0.1; fill:none" points="889.662,1486.45 889.662,47.2441 "/>
<polyline clip-path="url(#clip022)" style="stroke:#000000; stroke-linecap:round; stroke-linejoin:round; stroke-width:2; stroke-opacity:0.1; fill:none" points="1414.39,1486.45 1414.39,47.2441 "/>
<polyline clip-path="url(#clip022)" style="stroke:#000000; stroke-linecap:round; stroke-linejoin:round; stroke-width:2; stroke-opacity:0.1; fill:none" points="1939.12,1486.45 1939.12,47.2441 "/>
<polyline clip-path="url(#clip022)" style="stroke:#000000; stroke-linecap:round; stroke-linejoin:round; stroke-width:2; stroke-opacity:0.1; fill:none" points="307.034,1445.72 2352.76,1445.72 "/>
<polyline clip-path="url(#clip022)" style="stroke:#000000; stroke-linecap:round; stroke-linejoin:round; stroke-width:2; stroke-opacity:0.1; fill:none" points="307.034,1133.07 2352.76,1133.07 "/>
<polyline clip-path="url(#clip022)" style="stroke:#000000; stroke-linecap:round; stroke-linejoin:round; stroke-width:2; stroke-opacity:0.1; fill:none" points="307.034,820.42 2352.76,820.42 "/>
<polyline clip-path="url(#clip022)" style="stroke:#000000; stroke-linecap:round; stroke-linejoin:round; stroke-width:2; stroke-opacity:0.1; fill:none" points="307.034,507.772 2352.76,507.772 "/>
<polyline clip-path="url(#clip022)" style="stroke:#000000; stroke-linecap:round; stroke-linejoin:round; stroke-width:2; stroke-opacity:0.1; fill:none" points="307.034,195.124 2352.76,195.124 "/>
<polyline clip-path="url(#clip020)" style="stroke:#000000; stroke-linecap:round; stroke-linejoin:round; stroke-width:4; stroke-opacity:1; fill:none" points="307.034,1486.45 2352.76,1486.45 "/>
<polyline clip-path="url(#clip020)" style="stroke:#000000; stroke-linecap:round; stroke-linejoin:round; stroke-width:4; stroke-opacity:1; fill:none" points="364.932,1486.45 364.932,1467.55 "/>
<polyline clip-path="url(#clip020)" style="stroke:#000000; stroke-linecap:round; stroke-linejoin:round; stroke-width:4; stroke-opacity:1; fill:none" points="889.662,1486.45 889.662,1467.55 "/>
<polyline clip-path="url(#clip020)" style="stroke:#000000; stroke-linecap:round; stroke-linejoin:round; stroke-width:4; stroke-opacity:1; fill:none" points="1414.39,1486.45 1414.39,1467.55 "/>
<polyline clip-path="url(#clip020)" style="stroke:#000000; stroke-linecap:round; stroke-linejoin:round; stroke-width:4; stroke-opacity:1; fill:none" points="1939.12,1486.45 1939.12,1467.55 "/>
<path clip-path="url(#clip020)" d="M342.317 1517.37 Q338.705 1517.37 336.877 1520.93 Q335.071 1524.47 335.071 1531.6 Q335.071 1538.71 336.877 1542.27 Q338.705 1545.82 342.317 1545.82 Q345.951 1545.82 347.756 1542.27 Q349.585 1538.71 349.585 1531.6 Q349.585 1524.47 347.756 1520.93 Q345.951 1517.37 342.317 1517.37 M342.317 1513.66 Q348.127 1513.66 351.182 1518.27 Q354.261 1522.85 354.261 1531.6 Q354.261 1540.33 351.182 1544.94 Q348.127 1549.52 342.317 1549.52 Q336.506 1549.52 333.428 1544.94 Q330.372 1540.33 330.372 1531.6 Q330.372 1522.85 333.428 1518.27 Q336.506 1513.66 342.317 1513.66 Z" fill="#000000" fill-rule="nonzero" fill-opacity="1" /><path clip-path="url(#clip020)" d="M362.478 1542.97 L367.363 1542.97 L367.363 1548.85 L362.478 1548.85 L362.478 1542.97 Z" fill="#000000" fill-rule="nonzero" fill-opacity="1" /><path clip-path="url(#clip020)" d="M387.548 1517.37 Q383.937 1517.37 382.108 1520.93 Q380.302 1524.47 380.302 1531.6 Q380.302 1538.71 382.108 1542.27 Q383.937 1545.82 387.548 1545.82 Q391.182 1545.82 392.988 1542.27 Q394.816 1538.71 394.816 1531.6 Q394.816 1524.47 392.988 1520.93 Q391.182 1517.37 387.548 1517.37 M387.548 1513.66 Q393.358 1513.66 396.413 1518.27 Q399.492 1522.85 399.492 1531.6 Q399.492 1540.33 396.413 1544.94 Q393.358 1549.52 387.548 1549.52 Q381.738 1549.52 378.659 1544.94 Q375.603 1540.33 375.603 1531.6 Q375.603 1522.85 378.659 1518.27 Q381.738 1513.66 387.548 1513.66 Z" fill="#000000" fill-rule="nonzero" fill-opacity="1" /><path clip-path="url(#clip020)" d="M867.66 1517.37 Q864.049 1517.37 862.22 1520.93 Q860.415 1524.47 860.415 1531.6 Q860.415 1538.71 862.22 1542.27 Q864.049 1545.82 867.66 1545.82 Q871.295 1545.82 873.1 1542.27 Q874.929 1538.71 874.929 1531.6 Q874.929 1524.47 873.1 1520.93 Q871.295 1517.37 867.66 1517.37 M867.66 1513.66 Q873.47 1513.66 876.526 1518.27 Q879.605 1522.85 879.605 1531.6 Q879.605 1540.33 876.526 1544.94 Q873.47 1549.52 867.66 1549.52 Q861.85 1549.52 858.771 1544.94 Q855.716 1540.33 855.716 1531.6 Q855.716 1522.85 858.771 1518.27 Q861.85 1513.66 867.66 1513.66 Z" fill="#000000" fill-rule="nonzero" fill-opacity="1" /><path clip-path="url(#clip020)" d="M887.822 1542.97 L892.706 1542.97 L892.706 1548.85 L887.822 1548.85 L887.822 1542.97 Z" fill="#000000" fill-rule="nonzero" fill-opacity="1" /><path clip-path="url(#clip020)" d="M903.702 1544.91 L911.341 1544.91 L911.341 1518.55 L903.03 1520.21 L903.03 1515.95 L911.294 1514.29 L915.97 1514.29 L915.97 1544.91 L923.609 1544.91 L923.609 1548.85 L903.702 1548.85 L903.702 1544.91 Z" fill="#000000" fill-rule="nonzero" fill-opacity="1" /><path clip-path="url(#clip020)" d="M1392.58 1517.37 Q1388.96 1517.37 1387.14 1520.93 Q1385.33 1524.47 1385.33 1531.6 Q1385.33 1538.71 1387.14 1542.27 Q1388.96 1545.82 1392.58 1545.82 Q1396.21 1545.82 1398.02 1542.27 Q1399.84 1538.71 1399.84 1531.6 Q1399.84 1524.47 1398.02 1520.93 Q1396.21 1517.37 1392.58 1517.37 M1392.58 1513.66 Q1398.39 1513.66 1401.44 1518.27 Q1404.52 1522.85 1404.52 1531.6 Q1404.52 1540.33 1401.44 1544.94 Q1398.39 1549.52 1392.58 1549.52 Q1386.77 1549.52 1383.69 1544.94 Q1380.63 1540.33 1380.63 1531.6 Q1380.63 1522.85 1383.69 1518.27 Q1386.77 1513.66 1392.58 1513.66 Z" fill="#000000" fill-rule="nonzero" fill-opacity="1" /><path clip-path="url(#clip020)" d="M1412.74 1542.97 L1417.62 1542.97 L1417.62 1548.85 L1412.74 1548.85 L1412.74 1542.97 Z" fill="#000000" fill-rule="nonzero" fill-opacity="1" /><path clip-path="url(#clip020)" d="M1431.83 1544.91 L1448.15 1544.91 L1448.15 1548.85 L1426.21 1548.85 L1426.21 1544.91 Q1428.87 1542.16 1433.46 1537.53 Q1438.06 1532.88 1439.24 1531.53 Q1441.49 1529.01 1442.37 1527.27 Q1443.27 1525.51 1443.27 1523.82 Q1443.27 1521.07 1441.33 1519.33 Q1439.4 1517.6 1436.3 1517.6 Q1434.1 1517.6 1431.65 1518.36 Q1429.22 1519.13 1426.44 1520.68 L1426.44 1515.95 Q1429.27 1514.82 1431.72 1514.24 Q1434.17 1513.66 1436.21 1513.66 Q1441.58 1513.66 1444.77 1516.35 Q1447.97 1519.03 1447.97 1523.52 Q1447.97 1525.65 1447.16 1527.57 Q1446.37 1529.47 1444.27 1532.07 Q1443.69 1532.74 1440.58 1535.95 Q1437.48 1539.15 1431.83 1544.91 Z" fill="#000000" fill-rule="nonzero" fill-opacity="1" /><path clip-path="url(#clip020)" d="M1916.83 1517.37 Q1913.22 1517.37 1911.39 1520.93 Q1909.59 1524.47 1909.59 1531.6 Q1909.59 1538.71 1911.39 1542.27 Q1913.22 1545.82 1916.83 1545.82 Q1920.47 1545.82 1922.27 1542.27 Q1924.1 1538.71 1924.1 1531.6 Q1924.1 1524.47 1922.27 1520.93 Q1920.47 1517.37 1916.83 1517.37 M1916.83 1513.66 Q1922.64 1513.66 1925.7 1518.27 Q1928.78 1522.85 1928.78 1531.6 Q1928.78 1540.33 1925.7 1544.94 Q1922.64 1549.52 1916.83 1549.52 Q1911.02 1549.52 1907.94 1544.94 Q1904.89 1540.33 1904.89 1531.6 Q1904.89 1522.85 1907.94 1518.27 Q1911.02 1513.66 1916.83 1513.66 Z" fill="#000000" fill-rule="nonzero" fill-opacity="1" /><path clip-path="url(#clip020)" d="M1936.99 1542.97 L1941.88 1542.97 L1941.88 1548.85 L1936.99 1548.85 L1936.99 1542.97 Z" fill="#000000" fill-rule="nonzero" fill-opacity="1" /><path clip-path="url(#clip020)" d="M1966.23 1530.21 Q1969.59 1530.93 1971.46 1533.2 Q1973.36 1535.47 1973.36 1538.8 Q1973.36 1543.92 1969.84 1546.72 Q1966.32 1549.52 1959.84 1549.52 Q1957.66 1549.52 1955.35 1549.08 Q1953.06 1548.66 1950.6 1547.81 L1950.6 1543.29 Q1952.55 1544.43 1954.86 1545.01 Q1957.18 1545.58 1959.7 1545.58 Q1964.1 1545.58 1966.39 1543.85 Q1968.71 1542.11 1968.71 1538.8 Q1968.71 1535.75 1966.55 1534.03 Q1964.42 1532.3 1960.6 1532.3 L1956.58 1532.3 L1956.58 1528.45 L1960.79 1528.45 Q1964.24 1528.45 1966.07 1527.09 Q1967.9 1525.7 1967.9 1523.11 Q1967.9 1520.45 1966 1519.03 Q1964.12 1517.6 1960.6 1517.6 Q1958.68 1517.6 1956.48 1518.01 Q1954.29 1518.43 1951.65 1519.31 L1951.65 1515.14 Q1954.31 1514.4 1956.62 1514.03 Q1958.96 1513.66 1961.02 1513.66 Q1966.35 1513.66 1969.45 1516.09 Q1972.55 1518.5 1972.55 1522.62 Q1972.55 1525.49 1970.91 1527.48 Q1969.26 1529.45 1966.23 1530.21 Z" fill="#000000" fill-rule="nonzero" fill-opacity="1" /><polyline clip-path="url(#clip020)" style="stroke:#000000; stroke-linecap:round; stroke-linejoin:round; stroke-width:4; stroke-opacity:1; fill:none" points="307.034,1486.45 307.034,47.2441 "/>
<polyline clip-path="url(#clip020)" style="stroke:#000000; stroke-linecap:round; stroke-linejoin:round; stroke-width:4; stroke-opacity:1; fill:none" points="307.034,1445.72 325.932,1445.72 "/>
<polyline clip-path="url(#clip020)" style="stroke:#000000; stroke-linecap:round; stroke-linejoin:round; stroke-width:4; stroke-opacity:1; fill:none" points="307.034,1133.07 325.932,1133.07 "/>
<polyline clip-path="url(#clip020)" style="stroke:#000000; stroke-linecap:round; stroke-linejoin:round; stroke-width:4; stroke-opacity:1; fill:none" points="307.034,820.42 325.932,820.42 "/>
<polyline clip-path="url(#clip020)" style="stroke:#000000; stroke-linecap:round; stroke-linejoin:round; stroke-width:4; stroke-opacity:1; fill:none" points="307.034,507.772 325.932,507.772 "/>
<polyline clip-path="url(#clip020)" style="stroke:#000000; stroke-linecap:round; stroke-linejoin:round; stroke-width:4; stroke-opacity:1; fill:none" points="307.034,195.124 325.932,195.124 "/>
<path clip-path="url(#clip020)" d="M259.09 1431.51 Q255.479 1431.51 253.65 1435.08 Q251.845 1438.62 251.845 1445.75 Q251.845 1452.86 253.65 1456.42 Q255.479 1459.96 259.09 1459.96 Q262.724 1459.96 264.53 1456.42 Q266.358 1452.86 266.358 1445.75 Q266.358 1438.62 264.53 1435.08 Q262.724 1431.51 259.09 1431.51 M259.09 1427.81 Q264.9 1427.81 267.956 1432.42 Q271.034 1437 271.034 1445.75 Q271.034 1454.48 267.956 1459.08 Q264.9 1463.67 259.09 1463.67 Q253.28 1463.67 250.201 1459.08 Q247.146 1454.48 247.146 1445.75 Q247.146 1437 250.201 1432.42 Q253.28 1427.81 259.09 1427.81 Z" fill="#000000" fill-rule="nonzero" fill-opacity="1" /><path clip-path="url(#clip020)" d="M54.5569 1152.86 L62.1958 1152.86 L62.1958 1126.49 L53.8856 1128.16 L53.8856 1123.9 L62.1495 1122.24 L66.8254 1122.24 L66.8254 1152.86 L74.4642 1152.86 L74.4642 1156.8 L54.5569 1156.8 L54.5569 1152.86 Z" fill="#000000" fill-rule="nonzero" fill-opacity="1" /><path clip-path="url(#clip020)" d="M83.9086 1150.92 L88.7928 1150.92 L88.7928 1156.8 L83.9086 1156.8 L83.9086 1150.92 Z" fill="#000000" fill-rule="nonzero" fill-opacity="1" /><path clip-path="url(#clip020)" d="M108.978 1125.31 Q105.367 1125.31 103.538 1128.88 Q101.733 1132.42 101.733 1139.55 Q101.733 1146.66 103.538 1150.22 Q105.367 1153.76 108.978 1153.76 Q112.612 1153.76 114.418 1150.22 Q116.246 1146.66 116.246 1139.55 Q116.246 1132.42 114.418 1128.88 Q112.612 1125.31 108.978 1125.31 M108.978 1121.61 Q114.788 1121.61 117.844 1126.22 Q120.922 1130.8 120.922 1139.55 Q120.922 1148.28 117.844 1152.88 Q114.788 1157.47 108.978 1157.47 Q103.168 1157.47 100.089 1152.88 Q97.0335 1148.28 97.0335 1139.55 Q97.0335 1130.8 100.089 1126.22 Q103.168 1121.61 108.978 1121.61 Z" fill="#000000" fill-rule="nonzero" fill-opacity="1" /><path clip-path="url(#clip020)" d="M157.311 1131.33 L146.732 1141.96 L157.311 1152.54 L154.556 1155.34 L143.931 1144.71 L133.306 1155.34 L130.575 1152.54 L141.131 1141.96 L130.575 1131.33 L133.306 1128.53 L143.931 1139.16 L154.556 1128.53 L157.311 1131.33 Z" fill="#000000" fill-rule="nonzero" fill-opacity="1" /><path clip-path="url(#clip020)" d="M169.672 1152.86 L177.311 1152.86 L177.311 1126.49 L169.001 1128.16 L169.001 1123.9 L177.265 1122.24 L181.94 1122.24 L181.94 1152.86 L189.579 1152.86 L189.579 1156.8 L169.672 1156.8 L169.672 1152.86 Z" fill="#000000" fill-rule="nonzero" fill-opacity="1" /><path clip-path="url(#clip020)" d="M209.024 1125.31 Q205.413 1125.31 203.584 1128.88 Q201.778 1132.42 201.778 1139.55 Q201.778 1146.66 203.584 1150.22 Q205.413 1153.76 209.024 1153.76 Q212.658 1153.76 214.463 1150.22 Q216.292 1146.66 216.292 1139.55 Q216.292 1132.42 214.463 1128.88 Q212.658 1125.31 209.024 1125.31 M209.024 1121.61 Q214.834 1121.61 217.889 1126.22 Q220.968 1130.8 220.968 1139.55 Q220.968 1148.28 217.889 1152.88 Q214.834 1157.47 209.024 1157.47 Q203.214 1157.47 200.135 1152.88 Q197.079 1148.28 197.079 1139.55 Q197.079 1130.8 200.135 1126.22 Q203.214 1121.61 209.024 1121.61 Z" fill="#000000" fill-rule="nonzero" fill-opacity="1" /><path clip-path="url(#clip020)" d="M220.968 1115.71 L245.08 1115.71 L245.08 1118.91 L220.968 1118.91 L220.968 1115.71 Z" fill="#000000" fill-rule="nonzero" fill-opacity="1" /><path clip-path="url(#clip020)" d="M261.405 1116.05 Q258.696 1116.05 257.135 1117.5 Q255.593 1118.95 255.593 1121.49 Q255.593 1124.02 257.135 1125.47 Q258.696 1126.92 261.405 1126.92 Q264.113 1126.92 265.674 1125.47 Q267.235 1124.01 267.235 1121.49 Q267.235 1118.95 265.674 1117.5 Q264.132 1116.05 261.405 1116.05 M257.606 1114.43 Q255.161 1113.83 253.788 1112.16 Q252.433 1110.48 252.433 1108.08 Q252.433 1104.71 254.822 1102.75 Q257.229 1100.8 261.405 1100.8 Q265.599 1100.8 267.987 1102.75 Q270.376 1104.71 270.376 1108.08 Q270.376 1110.48 269.003 1112.16 Q267.649 1113.83 265.223 1114.43 Q267.969 1115.07 269.492 1116.93 Q271.034 1118.8 271.034 1121.49 Q271.034 1125.57 268.533 1127.75 Q266.05 1129.93 261.405 1129.93 Q256.759 1129.93 254.258 1127.75 Q251.775 1125.57 251.775 1121.49 Q251.775 1118.8 253.317 1116.93 Q254.86 1115.07 257.606 1114.43 M256.214 1108.43 Q256.214 1110.61 257.568 1111.84 Q258.941 1113.06 261.405 1113.06 Q263.85 1113.06 265.223 1111.84 Q266.615 1110.61 266.615 1108.43 Q266.615 1106.25 265.223 1105.03 Q263.85 1103.81 261.405 1103.81 Q258.941 1103.81 257.568 1105.03 Q256.214 1106.25 256.214 1108.43 Z" fill="#000000" fill-rule="nonzero" fill-opacity="1" /><path clip-path="url(#clip020)" d="M57.7745 840.212 L74.0939 840.212 L74.0939 844.147 L52.1495 844.147 L52.1495 840.212 Q54.8115 837.458 59.3949 832.828 Q64.0013 828.175 65.1819 826.833 Q67.4272 824.309 68.3068 822.573 Q69.2096 820.814 69.2096 819.124 Q69.2096 816.37 67.2652 814.634 Q65.3439 812.897 62.2421 812.897 Q60.043 812.897 57.5893 813.661 Q55.1588 814.425 52.381 815.976 L52.381 811.254 Q55.2051 810.12 57.6588 809.541 Q60.1124 808.962 62.1495 808.962 Q67.5198 808.962 70.7142 811.648 Q73.9087 814.333 73.9087 818.823 Q73.9087 820.953 73.0985 822.874 Q72.3115 824.772 70.205 827.365 Q69.6263 828.036 66.5245 831.254 Q63.4226 834.448 57.7745 840.212 Z" fill="#000000" fill-rule="nonzero" fill-opacity="1" /><path clip-path="url(#clip020)" d="M83.9086 838.268 L88.7928 838.268 L88.7928 844.147 L83.9086 844.147 L83.9086 838.268 Z" fill="#000000" fill-rule="nonzero" fill-opacity="1" /><path clip-path="url(#clip020)" d="M108.978 812.666 Q105.367 812.666 103.538 816.231 Q101.733 819.772 101.733 826.902 Q101.733 834.008 103.538 837.573 Q105.367 841.115 108.978 841.115 Q112.612 841.115 114.418 837.573 Q116.246 834.008 116.246 826.902 Q116.246 819.772 114.418 816.231 Q112.612 812.666 108.978 812.666 M108.978 808.962 Q114.788 808.962 117.844 813.569 Q120.922 818.152 120.922 826.902 Q120.922 835.629 117.844 840.235 Q114.788 844.819 108.978 844.819 Q103.168 844.819 100.089 840.235 Q97.0335 835.629 97.0335 826.902 Q97.0335 818.152 100.089 813.569 Q103.168 808.962 108.978 808.962 Z" fill="#000000" fill-rule="nonzero" fill-opacity="1" /><path clip-path="url(#clip020)" d="M157.311 818.684 L146.732 829.309 L157.311 839.888 L154.556 842.689 L143.931 832.064 L133.306 842.689 L130.575 839.888 L141.131 829.309 L130.575 818.684 L133.306 815.884 L143.931 826.509 L154.556 815.884 L157.311 818.684 Z" fill="#000000" fill-rule="nonzero" fill-opacity="1" /><path clip-path="url(#clip020)" d="M169.672 840.212 L177.311 840.212 L177.311 813.847 L169.001 815.513 L169.001 811.254 L177.265 809.587 L181.94 809.587 L181.94 840.212 L189.579 840.212 L189.579 844.147 L169.672 844.147 L169.672 840.212 Z" fill="#000000" fill-rule="nonzero" fill-opacity="1" /><path clip-path="url(#clip020)" d="M209.024 812.666 Q205.413 812.666 203.584 816.231 Q201.778 819.772 201.778 826.902 Q201.778 834.008 203.584 837.573 Q205.413 841.115 209.024 841.115 Q212.658 841.115 214.463 837.573 Q216.292 834.008 216.292 826.902 Q216.292 819.772 214.463 816.231 Q212.658 812.666 209.024 812.666 M209.024 808.962 Q214.834 808.962 217.889 813.569 Q220.968 818.152 220.968 826.902 Q220.968 835.629 217.889 840.235 Q214.834 844.819 209.024 844.819 Q203.214 844.819 200.135 840.235 Q197.079 835.629 197.079 826.902 Q197.079 818.152 200.135 813.569 Q203.214 808.962 209.024 808.962 Z" fill="#000000" fill-rule="nonzero" fill-opacity="1" /><path clip-path="url(#clip020)" d="M220.968 803.064 L245.08 803.064 L245.08 806.261 L220.968 806.261 L220.968 803.064 Z" fill="#000000" fill-rule="nonzero" fill-opacity="1" /><path clip-path="url(#clip020)" d="M261.405 803.402 Q258.696 803.402 257.135 804.85 Q255.593 806.299 255.593 808.838 Q255.593 811.377 257.135 812.825 Q258.696 814.273 261.405 814.273 Q264.113 814.273 265.674 812.825 Q267.235 811.358 267.235 808.838 Q267.235 806.299 265.674 804.85 Q264.132 803.402 261.405 803.402 M257.606 801.785 Q255.161 801.183 253.788 799.509 Q252.433 797.835 252.433 795.428 Q252.433 792.061 254.822 790.105 Q257.229 788.149 261.405 788.149 Q265.599 788.149 267.987 790.105 Q270.376 792.061 270.376 795.428 Q270.376 797.835 269.003 799.509 Q267.649 801.183 265.223 801.785 Q267.969 802.424 269.492 804.286 Q271.034 806.148 271.034 808.838 Q271.034 812.919 268.533 815.101 Q266.05 817.282 261.405 817.282 Q256.759 817.282 254.258 815.101 Q251.775 812.919 251.775 808.838 Q251.775 806.148 253.317 804.286 Q254.86 802.424 257.606 801.785 M256.214 795.785 Q256.214 797.967 257.568 799.189 Q258.941 800.412 261.405 800.412 Q263.85 800.412 265.223 799.189 Q266.615 797.967 266.615 795.785 Q266.615 793.603 265.223 792.381 Q263.85 791.158 261.405 791.158 Q258.941 791.158 257.568 792.381 Q256.214 793.603 256.214 795.785 Z" fill="#000000" fill-rule="nonzero" fill-opacity="1" /><path clip-path="url(#clip020)" d="M67.9133 512.865 Q71.2698 513.583 73.1448 515.851 Q75.0429 518.12 75.0429 521.453 Q75.0429 526.569 71.5244 529.37 Q68.0059 532.171 61.5245 532.171 Q59.3486 532.171 57.0338 531.731 Q54.7421 531.314 52.2884 530.458 L52.2884 525.944 Q54.2328 527.078 56.5477 527.657 Q58.8625 528.235 61.3856 528.235 Q65.7837 528.235 68.0754 526.499 Q70.3902 524.763 70.3902 521.453 Q70.3902 518.398 68.2374 516.685 Q66.1078 514.949 62.2884 514.949 L58.2606 514.949 L58.2606 511.106 L62.4735 511.106 Q65.9226 511.106 67.7513 509.74 Q69.58 508.351 69.58 505.759 Q69.58 503.097 67.6819 501.685 Q65.8069 500.25 62.2884 500.25 Q60.3671 500.25 58.168 500.666 Q55.969 501.083 53.3301 501.962 L53.3301 497.796 Q55.9921 497.055 58.3069 496.685 Q60.6449 496.314 62.705 496.314 Q68.0291 496.314 71.1309 498.745 Q74.2327 501.152 74.2327 505.273 Q74.2327 508.143 72.5892 510.134 Q70.9457 512.101 67.9133 512.865 Z" fill="#000000" fill-rule="nonzero" fill-opacity="1" /><path clip-path="url(#clip020)" d="M83.9086 525.62 L88.7928 525.62 L88.7928 531.499 L83.9086 531.499 L83.9086 525.62 Z" fill="#000000" fill-rule="nonzero" fill-opacity="1" /><path clip-path="url(#clip020)" d="M108.978 500.018 Q105.367 500.018 103.538 503.583 Q101.733 507.124 101.733 514.254 Q101.733 521.361 103.538 524.925 Q105.367 528.467 108.978 528.467 Q112.612 528.467 114.418 524.925 Q116.246 521.361 116.246 514.254 Q116.246 507.124 114.418 503.583 Q112.612 500.018 108.978 500.018 M108.978 496.314 Q114.788 496.314 117.844 500.921 Q120.922 505.504 120.922 514.254 Q120.922 522.981 117.844 527.587 Q114.788 532.171 108.978 532.171 Q103.168 532.171 100.089 527.587 Q97.0335 522.981 97.0335 514.254 Q97.0335 505.504 100.089 500.921 Q103.168 496.314 108.978 496.314 Z" fill="#000000" fill-rule="nonzero" fill-opacity="1" /><path clip-path="url(#clip020)" d="M157.311 506.037 L146.732 516.661 L157.311 527.24 L154.556 530.041 L143.931 519.416 L133.306 530.041 L130.575 527.24 L141.131 516.661 L130.575 506.037 L133.306 503.236 L143.931 513.861 L154.556 503.236 L157.311 506.037 Z" fill="#000000" fill-rule="nonzero" fill-opacity="1" /><path clip-path="url(#clip020)" d="M169.672 527.564 L177.311 527.564 L177.311 501.199 L169.001 502.865 L169.001 498.606 L177.265 496.939 L181.94 496.939 L181.94 527.564 L189.579 527.564 L189.579 531.499 L169.672 531.499 L169.672 527.564 Z" fill="#000000" fill-rule="nonzero" fill-opacity="1" /><path clip-path="url(#clip020)" d="M209.024 500.018 Q205.413 500.018 203.584 503.583 Q201.778 507.124 201.778 514.254 Q201.778 521.361 203.584 524.925 Q205.413 528.467 209.024 528.467 Q212.658 528.467 214.463 524.925 Q216.292 521.361 216.292 514.254 Q216.292 507.124 214.463 503.583 Q212.658 500.018 209.024 500.018 M209.024 496.314 Q214.834 496.314 217.889 500.921 Q220.968 505.504 220.968 514.254 Q220.968 522.981 217.889 527.587 Q214.834 532.171 209.024 532.171 Q203.214 532.171 200.135 527.587 Q197.079 522.981 197.079 514.254 Q197.079 505.504 200.135 500.921 Q203.214 496.314 209.024 496.314 Z" fill="#000000" fill-rule="nonzero" fill-opacity="1" /><path clip-path="url(#clip020)" d="M220.968 490.416 L245.08 490.416 L245.08 493.613 L220.968 493.613 L220.968 490.416 Z" fill="#000000" fill-rule="nonzero" fill-opacity="1" /><path clip-path="url(#clip020)" d="M261.405 490.754 Q258.696 490.754 257.135 492.202 Q255.593 493.651 255.593 496.19 Q255.593 498.729 257.135 500.177 Q258.696 501.625 261.405 501.625 Q264.113 501.625 265.674 500.177 Q267.235 498.71 267.235 496.19 Q267.235 493.651 265.674 492.202 Q264.132 490.754 261.405 490.754 M257.606 489.137 Q255.161 488.535 253.788 486.861 Q252.433 485.187 252.433 482.78 Q252.433 479.413 254.822 477.457 Q257.229 475.501 261.405 475.501 Q265.599 475.501 267.987 477.457 Q270.376 479.413 270.376 482.78 Q270.376 485.187 269.003 486.861 Q267.649 488.535 265.223 489.137 Q267.969 489.776 269.492 491.638 Q271.034 493.5 271.034 496.19 Q271.034 500.271 268.533 502.453 Q266.05 504.634 261.405 504.634 Q256.759 504.634 254.258 502.453 Q251.775 500.271 251.775 496.19 Q251.775 493.5 253.317 491.638 Q254.86 489.776 257.606 489.137 M256.214 483.137 Q256.214 485.319 257.568 486.541 Q258.941 487.764 261.405 487.764 Q263.85 487.764 265.223 486.541 Q266.615 485.319 266.615 483.137 Q266.615 480.955 265.223 479.733 Q263.85 478.51 261.405 478.51 Q258.941 478.51 257.568 479.733 Q256.214 480.955 256.214 483.137 Z" fill="#000000" fill-rule="nonzero" fill-opacity="1" /><path clip-path="url(#clip020)" d="M66.5939 188.365 L54.7884 206.814 L66.5939 206.814 L66.5939 188.365 M65.367 184.291 L71.2466 184.291 L71.2466 206.814 L76.1772 206.814 L76.1772 210.703 L71.2466 210.703 L71.2466 218.851 L66.5939 218.851 L66.5939 210.703 L50.9921 210.703 L50.9921 206.189 L65.367 184.291 Z" fill="#000000" fill-rule="nonzero" fill-opacity="1" /><path clip-path="url(#clip020)" d="M83.9086 212.972 L88.7928 212.972 L88.7928 218.851 L83.9086 218.851 L83.9086 212.972 Z" fill="#000000" fill-rule="nonzero" fill-opacity="1" /><path clip-path="url(#clip020)" d="M108.978 187.37 Q105.367 187.37 103.538 190.935 Q101.733 194.476 101.733 201.606 Q101.733 208.713 103.538 212.277 Q105.367 215.819 108.978 215.819 Q112.612 215.819 114.418 212.277 Q116.246 208.713 116.246 201.606 Q116.246 194.476 114.418 190.935 Q112.612 187.37 108.978 187.37 M108.978 183.666 Q114.788 183.666 117.844 188.273 Q120.922 192.856 120.922 201.606 Q120.922 210.333 117.844 214.939 Q114.788 219.523 108.978 219.523 Q103.168 219.523 100.089 214.939 Q97.0335 210.333 97.0335 201.606 Q97.0335 192.856 100.089 188.273 Q103.168 183.666 108.978 183.666 Z" fill="#000000" fill-rule="nonzero" fill-opacity="1" /><path clip-path="url(#clip020)" d="M157.311 193.389 L146.732 204.013 L157.311 214.592 L154.556 217.393 L143.931 206.768 L133.306 217.393 L130.575 214.592 L141.131 204.013 L130.575 193.389 L133.306 190.588 L143.931 201.213 L154.556 190.588 L157.311 193.389 Z" fill="#000000" fill-rule="nonzero" fill-opacity="1" /><path clip-path="url(#clip020)" d="M169.672 214.916 L177.311 214.916 L177.311 188.551 L169.001 190.217 L169.001 185.958 L177.265 184.291 L181.94 184.291 L181.94 214.916 L189.579 214.916 L189.579 218.851 L169.672 218.851 L169.672 214.916 Z" fill="#000000" fill-rule="nonzero" fill-opacity="1" /><path clip-path="url(#clip020)" d="M209.024 187.37 Q205.413 187.37 203.584 190.935 Q201.778 194.476 201.778 201.606 Q201.778 208.713 203.584 212.277 Q205.413 215.819 209.024 215.819 Q212.658 215.819 214.463 212.277 Q216.292 208.713 216.292 201.606 Q216.292 194.476 214.463 190.935 Q212.658 187.37 209.024 187.37 M209.024 183.666 Q214.834 183.666 217.889 188.273 Q220.968 192.856 220.968 201.606 Q220.968 210.333 217.889 214.939 Q214.834 219.523 209.024 219.523 Q203.214 219.523 200.135 214.939 Q197.079 210.333 197.079 201.606 Q197.079 192.856 200.135 188.273 Q203.214 183.666 209.024 183.666 Z" fill="#000000" fill-rule="nonzero" fill-opacity="1" /><path clip-path="url(#clip020)" d="M220.968 177.768 L245.08 177.768 L245.08 180.965 L220.968 180.965 L220.968 177.768 Z" fill="#000000" fill-rule="nonzero" fill-opacity="1" /><path clip-path="url(#clip020)" d="M261.405 178.106 Q258.696 178.106 257.135 179.554 Q255.593 181.003 255.593 183.542 Q255.593 186.081 257.135 187.529 Q258.696 188.977 261.405 188.977 Q264.113 188.977 265.674 187.529 Q267.235 186.062 267.235 183.542 Q267.235 181.003 265.674 179.554 Q264.132 178.106 261.405 178.106 M257.606 176.489 Q255.161 175.887 253.788 174.213 Q252.433 172.539 252.433 170.132 Q252.433 166.765 254.822 164.809 Q257.229 162.853 261.405 162.853 Q265.599 162.853 267.987 164.809 Q270.376 166.765 270.376 170.132 Q270.376 172.539 269.003 174.213 Q267.649 175.887 265.223 176.489 Q267.969 177.128 269.492 178.99 Q271.034 180.852 271.034 183.542 Q271.034 187.623 268.533 189.805 Q266.05 191.986 261.405 191.986 Q256.759 191.986 254.258 189.805 Q251.775 187.623 251.775 183.542 Q251.775 180.852 253.317 178.99 Q254.86 177.128 257.606 176.489 M256.214 170.489 Q256.214 172.671 257.568 173.893 Q258.941 175.116 261.405 175.116 Q263.85 175.116 265.223 173.893 Q266.615 172.671 266.615 170.489 Q266.615 168.307 265.223 167.085 Q263.85 165.862 261.405 165.862 Q258.941 165.862 257.568 167.085 Q256.214 168.307 256.214 170.489 Z" fill="#000000" fill-rule="nonzero" fill-opacity="1" /><polyline clip-path="url(#clip022)" style="stroke:#009af9; stroke-linecap:round; stroke-linejoin:round; stroke-width:20; stroke-opacity:1; fill:none" points="364.932,1445.72 520.386,1445.72 669.35,1445.72 811.742,1445.72 947.489,1445.72 1076.53,1445.72 1198.81,1445.72 1314.29,1445.72 1422.97,1445.72 1524.82,1445.72 1619.86,1445.72 1708.13,1445.72 1789.67,1445.72 1864.54,1445.71 1932.84,1445.7 1994.66,1445.6 2050.14,1445.12 2099.41,1442.96 2142.64,1434.38 2180,1403.27 "/>
<polyline clip-path="url(#clip022)" style="stroke:#e26f46; stroke-linecap:round; stroke-linejoin:round; stroke-width:20; stroke-opacity:1; fill:none" points="2180,1445.72 2221.73,1445.4 2253.16,1445.16 2275.23,1444.99 2288.85,1444.89 2294.86,1444.84 2294.03,1444.85 2287.08,1444.9 2274.7,1445 2257.49,1445.13 2236.05,1445.29 2210.88,1445.48 2182.49,1445.68 2151.3,1445.61 2117.74,1445.66 2082.17,1444.17 2044.92,1437.67 2006.31,1414.02 1966.61,1335.59 1926.08,1093.22 "/>
<polyline clip-path="url(#clip022)" style="stroke:#3da44d; stroke-linecap:round; stroke-linejoin:round; stroke-width:20; stroke-opacity:1; fill:none" points="1926.08,1445.72 1883.42,1444.96 1840.34,1444.2 1797.04,1443.43 1753.69,1442.66 1710.45,1441.9 1667.46,1441.14 1624.84,1440.38 1582.69,1439.64 1541.11,1438.9 1500.17,1438.18 1459.95,1437.46 1420.51,1436.75 1381.89,1436.01 1344.13,1435.06 1307.26,1433.17 1271.32,1427.66 1236.32,1409.35 1202.27,1348.88 1169.19,1158.38 "/>
<polyline clip-path="url(#clip022)" style="stroke:#c271d2; stroke-linecap:round; stroke-linejoin:round; stroke-width:20; stroke-opacity:1; fill:none" points="1169.19,1445.72 1166.71,1445.46 1164.23,1445.21 1161.76,1444.96 1159.29,1444.71 1156.83,1444.46 1154.38,1444.22 1151.93,1443.97 1149.49,1443.72 1147.05,1443.47 1144.62,1443.23 1142.19,1442.97 1139.77,1442.69 1137.35,1442.25 1134.94,1441.08 1132.54,1437.03 1130.14,1422.45 1127.75,1372.54 1125.36,1212.19 1122.98,727.992 "/>
<polyline clip-path="url(#clip022)" style="stroke:#ac8d18; stroke-linecap:round; stroke-linejoin:round; stroke-width:20; stroke-opacity:1; fill:none" points="1122.98,1445.71 1119.86,1445.16 1116.75,1444.59 1113.65,1444.03 1110.56,1443.46 1107.48,1442.9 1104.4,1442.34 1101.34,1441.78 1098.29,1441.23 1095.25,1440.67 1092.22,1440.12 1089.19,1439.56 1086.18,1438.97 1083.18,1438.22 1080.18,1436.73 1077.2,1432.27 1074.22,1417.02 1071.26,1365.51 1068.3,1200.66 1065.36,703.483 "/>
<polyline clip-path="url(#clip022)" style="stroke:#00a9ad; stroke-linecap:round; stroke-linejoin:round; stroke-width:20; stroke-opacity:1; fill:none" points="1065.36,1445.71 1055.55,1444.08 1045.85,1442.47 1036.25,1440.88 1026.77,1439.3 1017.39,1437.74 1008.11,1436.2 998.949,1434.67 989.889,1433.16 980.935,1431.67 972.086,1430.2 963.342,1428.74 954.701,1427.26 946.163,1425.64 937.728,1423.28 929.395,1417.97 921.164,1401.82 913.033,1349.25 905.002,1182.82 897.07,682.457 "/>
<polyline clip-path="url(#clip022)" style="stroke:#ed5d92; stroke-linecap:round; stroke-linejoin:round; stroke-width:20; stroke-opacity:1; fill:none" points="897.07,1445.72 884.63,1443.28 872.437,1440.89 860.49,1438.55 848.783,1436.25 837.316,1434 826.083,1431.8 815.083,1429.65 804.312,1427.53 793.766,1425.47 783.442,1423.44 773.337,1421.47 763.448,1419.55 753.771,1417.75 744.302,1416.34 735.039,1416.4 725.978,1421.65 717.116,1424.21 708.449,1346.25 699.974,1109.37 "/>
<polyline clip-path="url(#clip022)" style="stroke:#c68125; stroke-linecap:round; stroke-linejoin:round; stroke-width:20; stroke-opacity:1; fill:none" points="699.974,1445.72 673.931,1435.48 649.737,1425.97 627.283,1417.14 606.464,1408.96 587.178,1401.38 569.328,1394.36 552.819,1387.87 537.563,1381.87 523.475,1376.34 510.474,1371.23 498.483,1366.51 487.432,1362.15 477.253,1358.06 467.882,1353.91 459.259,1348.4 451.329,1336.54 444.04,1300.28 437.343,1179.09 431.192,781.908 "/>
<polyline clip-path="url(#clip022)" style="stroke:#00a98d; stroke-linecap:round; stroke-linejoin:round; stroke-width:20; stroke-opacity:1; fill:none" points="431.192,1445.72 424.088,1445.22 417.722,1444.78 412.02,1444.38 406.916,1444.03 402.351,1443.71 398.269,1443.43 394.621,1443.17 391.363,1442.95 388.455,1442.74 385.859,1442.56 383.544,1442.4 381.48,1442.23 379.641,1441.97 378.002,1441.17 376.542,1437.82 375.243,1423.89 374.087,1369.32 373.058,1169.73 372.143,484.545 "/>
<polyline clip-path="url(#clip022)" style="stroke:#8e971d; stroke-linecap:round; stroke-linejoin:round; stroke-width:20; stroke-opacity:1; fill:none" points="372.143,1445.72 371.221,1445.25 370.415,1444.83 369.711,1444.47 369.096,1444.16 368.559,1443.89 368.091,1443.65 367.682,1443.44 367.326,1443.26 367.015,1443.1 366.744,1442.96 366.509,1442.84 366.303,1442.76 366.124,1442.76 365.968,1443.18 365.833,1445.53 365.715,1435.35 365.612,1392.56 365.523,1231.72 365.445,665.125 "/>
<polyline clip-path="url(#clip022)" style="stroke:#00a8cb; stroke-linecap:round; stroke-linejoin:round; stroke-width:20; stroke-opacity:1; fill:none" points="365.445,1445.72 365.376,1445.7 365.317,1445.69 365.266,1445.67 365.221,1445.66 365.182,1445.66 365.149,1445.65 365.12,1445.64 365.094,1445.63 365.073,1445.63 365.054,1445.63 365.037,1445.62 365.023,1445.64 365.011,1445.7 365,1445.16 364.991,1442.58 364.983,1431.24 364.976,1385.33 364.97,1212.48 364.965,602.401 "/>
<polyline clip-path="url(#clip022)" style="stroke:#9b7fe8; stroke-linecap:round; stroke-linejoin:round; stroke-width:20; stroke-opacity:1; fill:none" points="364.965,1445.72 364.96,1445.71 364.957,1445.71 364.953,1445.71 364.95,1445.71 364.948,1445.71 364.946,1445.71 364.944,1445.7 364.942,1445.7 364.941,1445.7 364.939,1445.7 364.938,1445.7 364.938,1445.71 364.937,1445.6 364.936,1444.99 364.936,1442.06 364.935,1429.14 364.935,1376.71 364.934,1178.72 364.934,477.617 "/>
<polyline clip-path="url(#clip022)" style="stroke:#608cf6; stroke-linecap:round; stroke-linejoin:round; stroke-width:20; stroke-opacity:1; fill:none" points="364.934,1445.71 364.934,1445.72 364.934,1445.72 364.933,1445.72 364.933,1445.71 364.933,1445.71 364.933,1445.71 364.933,1445.71 364.933,1445.72 364.933,1445.71 364.933,1445.72 364.932,1445.71 364.932,1445.69 364.932,1445.54 364.932,1444.71 364.932,1440.68 364.932,1422.85 364.932,1350.02 364.932,1073.37 364.932,87.9763 "/>
<polyline clip-path="url(#clip022)" style="stroke:#f05f73; stroke-linecap:round; stroke-linejoin:round; stroke-width:20; stroke-opacity:1; fill:none" points="364.932,1445.71 364.932,1445.71 364.932,1445.71 364.932,1445.71 364.932,1445.71 364.932,1445.71 364.932,1445.71 364.932,1445.71 364.932,1445.71 364.932,1445.71 364.932,1445.71 364.932,1445.71 364.932,1445.71 364.932,1445.71 364.932,1445.69 364.932,1445.64 364.932,1445.54 364.932,1445.59 364.932,1443.85 364.932,1430.44 "/>
<polyline clip-path="url(#clip022)" style="stroke:#dd64b5; stroke-linecap:round; stroke-linejoin:round; stroke-width:20; stroke-opacity:1; fill:none" points="364.932,1430.44 364.932,1430.44 364.932,1430.44 364.932,1430.44 364.932,1430.44 364.932,1430.44 364.932,1430.44 364.932,1430.44 364.932,1430.44 364.932,1430.44 364.932,1430.44 364.932,1430.44 364.932,1430.43 364.932,1430.35 364.932,1429.93 364.932,1427.88 364.932,1418.79 364.932,1381.72 364.932,1241.08 364.932,740.762 "/>
</svg>
