<?xml version="1.0" encoding="utf-8"?>
<svg xmlns="http://www.w3.org/2000/svg" xmlns:xlink="http://www.w3.org/1999/xlink" width="600" height="400" viewBox="0 0 2400 1600">
<defs>
  <clipPath id="clip490">
    <rect x="0" y="0" width="2400" height="1600"/>
  </clipPath>
</defs>
<path clip-path="url(#clip490)" d="M0 1600 L2400 1600 L2400 0 L0 0  Z" fill="#ffffff" fill-rule="evenodd" fill-opacity="1"/>
<defs>
  <clipPath id="clip491">
    <rect x="335" y="47" width="2018" height="1440"/>
  </clipPath>
</defs>
<path clip-path="url(#clip490)" d="M335.854 1486.45 L2352.76 1486.45 L2352.76 47.2441 L335.854 47.2441  Z" fill="#ffffff" fill-rule="evenodd" fill-opacity="1"/>
<polyline clip-path="url(#clip491)" style="stroke:#000000; stroke-linecap:round; stroke-linejoin:round; stroke-width:2; stroke-opacity:0.1; fill:none" points="392.936,1486.45 392.936,47.2441 "/>
<polyline clip-path="url(#clip491)" style="stroke:#000000; stroke-linecap:round; stroke-linejoin:round; stroke-width:2; stroke-opacity:0.1; fill:none" points="910.274,1486.45 910.274,47.2441 "/>
<polyline clip-path="url(#clip491)" style="stroke:#000000; stroke-linecap:round; stroke-linejoin:round; stroke-width:2; stroke-opacity:0.1; fill:none" points="1427.61,1486.45 1427.61,47.2441 "/>
<polyline clip-path="url(#clip491)" style="stroke:#000000; stroke-linecap:round; stroke-linejoin:round; stroke-width:2; stroke-opacity:0.1; fill:none" points="1944.95,1486.45 1944.95,47.2441 "/>
<polyline clip-path="url(#clip491)" style="stroke:#000000; stroke-linecap:round; stroke-linejoin:round; stroke-width:2; stroke-opacity:0.1; fill:none" points="335.854,1445.72 2352.76,1445.72 "/>
<polyline clip-path="url(#clip491)" style="stroke:#000000; stroke-linecap:round; stroke-linejoin:round; stroke-width:2; stroke-opacity:0.1; fill:none" points="335.854,1014.12 2352.76,1014.12 "/>
<polyline clip-path="url(#clip491)" style="stroke:#000000; stroke-linecap:round; stroke-linejoin:round; stroke-width:2; stroke-opacity:0.1; fill:none" points="335.854,582.515 2352.76,582.515 "/>
<polyline clip-path="url(#clip491)" style="stroke:#000000; stroke-linecap:round; stroke-linejoin:round; stroke-width:2; stroke-opacity:0.1; fill:none" points="335.854,150.915 2352.76,150.915 "/>
<polyline clip-path="url(#clip490)" style="stroke:#000000; stroke-linecap:round; stroke-linejoin:round; stroke-width:4; stroke-opacity:1; fill:none" points="335.854,1486.45 2352.76,1486.45 "/>
<polyline clip-path="url(#clip490)" style="stroke:#000000; stroke-linecap:round; stroke-linejoin:round; stroke-width:4; stroke-opacity:1; fill:none" points="392.936,1486.45 392.936,1467.55 "/>
<polyline clip-path="url(#clip490)" style="stroke:#000000; stroke-linecap:round; stroke-linejoin:round; stroke-width:4; stroke-opacity:1; fill:none" points="910.274,1486.45 910.274,1467.55 "/>
<polyline clip-path="url(#clip490)" style="stroke:#000000; stroke-linecap:round; stroke-linejoin:round; stroke-width:4; stroke-opacity:1; fill:none" points="1427.61,1486.45 1427.61,1467.55 "/>
<polyline clip-path="url(#clip490)" style="stroke:#000000; stroke-linecap:round; stroke-linejoin:round; stroke-width:4; stroke-opacity:1; fill:none" points="1944.95,1486.45 1944.95,1467.55 "/>
<path clip-path="url(#clip490)" d="M370.32 1517.37 Q366.709 1517.37 364.88 1520.93 Q363.075 1524.47 363.075 1531.6 Q363.075 1538.71 364.88 1542.27 Q366.709 1545.82 370.32 1545.82 Q373.954 1545.82 375.76 1542.27 Q377.589 1538.71 377.589 1531.6 Q377.589 1524.47 375.76 1520.93 Q373.954 1517.37 370.32 1517.37 M370.32 1513.66 Q376.13 1513.66 379.186 1518.27 Q382.265 1522.85 382.265 1531.6 Q382.265 1540.33 379.186 1544.94 Q376.13 1549.52 370.32 1549.52 Q364.51 1549.52 361.431 1544.94 Q358.376 1540.33 358.376 1531.6 Q358.376 1522.85 361.431 1518.27 Q364.51 1513.66 370.32 1513.66 Z" fill="#000000" fill-rule="nonzero" fill-opacity="1" /><path clip-path="url(#clip490)" d="M390.482 1542.97 L395.366 1542.97 L395.366 1548.85 L390.482 1548.85 L390.482 1542.97 Z" fill="#000000" fill-rule="nonzero" fill-opacity="1" /><path clip-path="url(#clip490)" d="M415.551 1517.37 Q411.94 1517.37 410.112 1520.93 Q408.306 1524.47 408.306 1531.6 Q408.306 1538.71 410.112 1542.27 Q411.94 1545.82 415.551 1545.82 Q419.186 1545.82 420.991 1542.27 Q422.82 1538.71 422.82 1531.6 Q422.82 1524.47 420.991 1520.93 Q419.186 1517.37 415.551 1517.37 M415.551 1513.66 Q421.362 1513.66 424.417 1518.27 Q427.496 1522.85 427.496 1531.6 Q427.496 1540.33 424.417 1544.94 Q421.362 1549.52 415.551 1549.52 Q409.741 1549.52 406.663 1544.94 Q403.607 1540.33 403.607 1531.6 Q403.607 1522.85 406.663 1518.27 Q409.741 1513.66 415.551 1513.66 Z" fill="#000000" fill-rule="nonzero" fill-opacity="1" /><path clip-path="url(#clip490)" d="M888.272 1517.37 Q884.661 1517.37 882.832 1520.93 Q881.026 1524.47 881.026 1531.6 Q881.026 1538.71 882.832 1542.27 Q884.661 1545.82 888.272 1545.82 Q891.906 1545.82 893.712 1542.27 Q895.54 1538.71 895.54 1531.6 Q895.54 1524.47 893.712 1520.93 Q891.906 1517.37 888.272 1517.37 M888.272 1513.66 Q894.082 1513.66 897.137 1518.27 Q900.216 1522.85 900.216 1531.6 Q900.216 1540.33 897.137 1544.94 Q894.082 1549.52 888.272 1549.52 Q882.462 1549.52 879.383 1544.94 Q876.327 1540.33 876.327 1531.6 Q876.327 1522.85 879.383 1518.27 Q882.462 1513.66 888.272 1513.66 Z" fill="#000000" fill-rule="nonzero" fill-opacity="1" /><path clip-path="url(#clip490)" d="M908.434 1542.97 L913.318 1542.97 L913.318 1548.85 L908.434 1548.85 L908.434 1542.97 Z" fill="#000000" fill-rule="nonzero" fill-opacity="1" /><path clip-path="url(#clip490)" d="M924.313 1544.91 L931.952 1544.91 L931.952 1518.55 L923.642 1520.21 L923.642 1515.95 L931.906 1514.29 L936.582 1514.29 L936.582 1544.91 L944.221 1544.91 L944.221 1548.85 L924.313 1548.85 L924.313 1544.91 Z" fill="#000000" fill-rule="nonzero" fill-opacity="1" /><path clip-path="url(#clip490)" d="M1405.8 1517.37 Q1402.18 1517.37 1400.36 1520.93 Q1398.55 1524.47 1398.55 1531.6 Q1398.55 1538.71 1400.36 1542.27 Q1402.18 1545.82 1405.8 1545.82 Q1409.43 1545.82 1411.23 1542.27 Q1413.06 1538.71 1413.06 1531.6 Q1413.06 1524.47 1411.23 1520.93 Q1409.43 1517.37 1405.8 1517.37 M1405.8 1513.66 Q1411.61 1513.66 1414.66 1518.27 Q1417.74 1522.85 1417.74 1531.6 Q1417.74 1540.33 1414.66 1544.94 Q1411.61 1549.52 1405.8 1549.52 Q1399.98 1549.52 1396.91 1544.94 Q1393.85 1540.33 1393.85 1531.6 Q1393.85 1522.85 1396.91 1518.27 Q1399.98 1513.66 1405.8 1513.66 Z" fill="#000000" fill-rule="nonzero" fill-opacity="1" /><path clip-path="url(#clip490)" d="M1425.96 1542.97 L1430.84 1542.97 L1430.84 1548.85 L1425.96 1548.85 L1425.96 1542.97 Z" fill="#000000" fill-rule="nonzero" fill-opacity="1" /><path clip-path="url(#clip490)" d="M1445.05 1544.91 L1461.37 1544.91 L1461.37 1548.85 L1439.43 1548.85 L1439.43 1544.91 Q1442.09 1542.16 1446.67 1537.53 Q1451.28 1532.88 1452.46 1531.53 Q1454.71 1529.01 1455.59 1527.27 Q1456.49 1525.51 1456.49 1523.82 Q1456.49 1521.07 1454.54 1519.33 Q1452.62 1517.6 1449.52 1517.6 Q1447.32 1517.6 1444.87 1518.36 Q1442.44 1519.13 1439.66 1520.68 L1439.66 1515.95 Q1442.48 1514.82 1444.94 1514.24 Q1447.39 1513.66 1449.43 1513.66 Q1454.8 1513.66 1457.99 1516.35 Q1461.19 1519.03 1461.19 1523.52 Q1461.19 1525.65 1460.38 1527.57 Q1459.59 1529.47 1457.48 1532.07 Q1456.91 1532.74 1453.8 1535.95 Q1450.7 1539.15 1445.05 1544.91 Z" fill="#000000" fill-rule="nonzero" fill-opacity="1" /><path clip-path="url(#clip490)" d="M1922.66 1517.37 Q1919.05 1517.37 1917.22 1520.93 Q1915.41 1524.47 1915.41 1531.6 Q1915.41 1538.71 1917.22 1542.27 Q1919.05 1545.82 1922.66 1545.82 Q1926.29 1545.82 1928.1 1542.27 Q1929.93 1538.71 1929.93 1531.6 Q1929.93 1524.47 1928.1 1520.93 Q1926.29 1517.37 1922.66 1517.37 M1922.66 1513.66 Q1928.47 1513.66 1931.52 1518.27 Q1934.6 1522.85 1934.6 1531.6 Q1934.6 1540.33 1931.52 1544.94 Q1928.47 1549.52 1922.66 1549.52 Q1916.85 1549.52 1913.77 1544.94 Q1910.71 1540.33 1910.71 1531.6 Q1910.71 1522.85 1913.77 1518.27 Q1916.85 1513.66 1922.66 1513.66 Z" fill="#000000" fill-rule="nonzero" fill-opacity="1" /><path clip-path="url(#clip490)" d="M1942.82 1542.97 L1947.7 1542.97 L1947.7 1548.85 L1942.82 1548.85 L1942.82 1542.97 Z" fill="#000000" fill-rule="nonzero" fill-opacity="1" /><path clip-path="url(#clip490)" d="M1972.06 1530.21 Q1975.41 1530.93 1977.29 1533.2 Q1979.19 1535.47 1979.19 1538.8 Q1979.19 1543.92 1975.67 1546.72 Q1972.15 1549.52 1965.67 1549.52 Q1963.49 1549.52 1961.18 1549.08 Q1958.89 1548.66 1956.43 1547.81 L1956.43 1543.29 Q1958.38 1544.43 1960.69 1545.01 Q1963.01 1545.58 1965.53 1545.58 Q1969.93 1545.58 1972.22 1543.85 Q1974.53 1542.11 1974.53 1538.8 Q1974.53 1535.75 1972.38 1534.03 Q1970.25 1532.3 1966.43 1532.3 L1962.4 1532.3 L1962.4 1528.45 L1966.62 1528.45 Q1970.07 1528.45 1971.89 1527.09 Q1973.72 1525.7 1973.72 1523.11 Q1973.72 1520.45 1971.83 1519.03 Q1969.95 1517.6 1966.43 1517.6 Q1964.51 1517.6 1962.31 1518.01 Q1960.11 1518.43 1957.47 1519.31 L1957.47 1515.14 Q1960.14 1514.4 1962.45 1514.03 Q1964.79 1513.66 1966.85 1513.66 Q1972.17 1513.66 1975.27 1516.09 Q1978.38 1518.5 1978.38 1522.62 Q1978.38 1525.49 1976.73 1527.48 Q1975.09 1529.45 1972.06 1530.21 Z" fill="#000000" fill-rule="nonzero" fill-opacity="1" /><polyline clip-path="url(#clip490)" style="stroke:#000000; stroke-linecap:round; stroke-linejoin:round; stroke-width:4; stroke-opacity:1; fill:none" points="335.854,1486.45 335.854,47.2441 "/>
<polyline clip-path="url(#clip490)" style="stroke:#000000; stroke-linecap:round; stroke-linejoin:round; stroke-width:4; stroke-opacity:1; fill:none" points="335.854,1445.72 354.751,1445.72 "/>
<polyline clip-path="url(#clip490)" style="stroke:#000000; stroke-linecap:round; stroke-linejoin:round; stroke-width:4; stroke-opacity:1; fill:none" points="335.854,1014.12 354.751,1014.12 "/>
<polyline clip-path="url(#clip490)" style="stroke:#000000; stroke-linecap:round; stroke-linejoin:round; stroke-width:4; stroke-opacity:1; fill:none" points="335.854,582.515 354.751,582.515 "/>
<polyline clip-path="url(#clip490)" style="stroke:#000000; stroke-linecap:round; stroke-linejoin:round; stroke-width:4; stroke-opacity:1; fill:none" points="335.854,150.915 354.751,150.915 "/>
<path clip-path="url(#clip490)" d="M287.909 1431.51 Q284.298 1431.51 282.469 1435.08 Q280.664 1438.62 280.664 1445.75 Q280.664 1452.86 282.469 1456.42 Q284.298 1459.96 287.909 1459.96 Q291.543 1459.96 293.349 1456.42 Q295.178 1452.86 295.178 1445.75 Q295.178 1438.62 293.349 1435.08 Q291.543 1431.51 287.909 1431.51 M287.909 1427.81 Q293.719 1427.81 296.775 1432.42 Q299.854 1437 299.854 1445.75 Q299.854 1454.48 296.775 1459.08 Q293.719 1463.67 287.909 1463.67 Q282.099 1463.67 279.02 1459.08 Q275.965 1454.48 275.965 1445.75 Q275.965 1437 279.02 1432.42 Q282.099 1427.81 287.909 1427.81 Z" fill="#000000" fill-rule="nonzero" fill-opacity="1" /><path clip-path="url(#clip490)" d="M52.4505 1003.28 L70.8068 1003.28 L70.8068 1007.22 L56.7328 1007.22 L56.7328 1015.69 Q57.7513 1015.34 58.7699 1015.18 Q59.7884 1015 60.8069 1015 Q66.5939 1015 69.9735 1018.17 Q73.3531 1021.34 73.3531 1026.76 Q73.3531 1032.33 69.8809 1035.44 Q66.4087 1038.51 60.0893 1038.51 Q57.9134 1038.51 55.6449 1038.14 Q53.3995 1037.77 50.9921 1037.03 L50.9921 1032.33 Q53.0754 1033.47 55.2977 1034.02 Q57.5199 1034.58 59.9967 1034.58 Q64.0013 1034.58 66.3393 1032.47 Q68.6772 1030.37 68.6772 1026.76 Q68.6772 1023.14 66.3393 1021.04 Q64.0013 1018.93 59.9967 1018.93 Q58.1217 1018.93 56.2467 1019.35 Q54.3949 1019.76 52.4505 1020.64 L52.4505 1003.28 Z" fill="#000000" fill-rule="nonzero" fill-opacity="1" /><path clip-path="url(#clip490)" d="M82.566 1031.96 L87.4503 1031.96 L87.4503 1037.84 L82.566 1037.84 L82.566 1031.96 Z" fill="#000000" fill-rule="nonzero" fill-opacity="1" /><path clip-path="url(#clip490)" d="M107.635 1006.36 Q104.024 1006.36 102.196 1009.93 Q100.39 1013.47 100.39 1020.6 Q100.39 1027.7 102.196 1031.27 Q104.024 1034.81 107.635 1034.81 Q111.27 1034.81 113.075 1031.27 Q114.904 1027.7 114.904 1020.6 Q114.904 1013.47 113.075 1009.93 Q111.27 1006.36 107.635 1006.36 M107.635 1002.66 Q113.445 1002.66 116.501 1007.26 Q119.58 1011.85 119.58 1020.6 Q119.58 1029.32 116.501 1033.93 Q113.445 1038.51 107.635 1038.51 Q101.825 1038.51 98.7465 1033.93 Q95.691 1029.32 95.691 1020.6 Q95.691 1011.85 98.7465 1007.26 Q101.825 1002.66 107.635 1002.66 Z" fill="#000000" fill-rule="nonzero" fill-opacity="1" /><path clip-path="url(#clip490)" d="M137.797 1006.36 Q134.186 1006.36 132.357 1009.93 Q130.552 1013.47 130.552 1020.6 Q130.552 1027.7 132.357 1031.27 Q134.186 1034.81 137.797 1034.81 Q141.431 1034.81 143.237 1031.27 Q145.066 1027.7 145.066 1020.6 Q145.066 1013.47 143.237 1009.93 Q141.431 1006.36 137.797 1006.36 M137.797 1002.66 Q143.607 1002.66 146.663 1007.26 Q149.742 1011.85 149.742 1020.6 Q149.742 1029.32 146.663 1033.93 Q143.607 1038.51 137.797 1038.51 Q131.987 1038.51 128.908 1033.93 Q125.853 1029.32 125.853 1020.6 Q125.853 1011.85 128.908 1007.26 Q131.987 1002.66 137.797 1002.66 Z" fill="#000000" fill-rule="nonzero" fill-opacity="1" /><path clip-path="url(#clip490)" d="M186.13 1012.38 L175.552 1023.01 L186.13 1033.58 L183.376 1036.38 L172.751 1025.76 L162.126 1036.38 L159.394 1033.58 L169.95 1023.01 L159.394 1012.38 L162.126 1009.58 L172.751 1020.2 L183.376 1009.58 L186.13 1012.38 Z" fill="#000000" fill-rule="nonzero" fill-opacity="1" /><path clip-path="url(#clip490)" d="M198.491 1033.91 L206.13 1033.91 L206.13 1007.54 L197.82 1009.21 L197.82 1004.95 L206.084 1003.28 L210.76 1003.28 L210.76 1033.91 L218.399 1033.91 L218.399 1037.84 L198.491 1037.84 L198.491 1033.91 Z" fill="#000000" fill-rule="nonzero" fill-opacity="1" /><path clip-path="url(#clip490)" d="M237.843 1006.36 Q234.232 1006.36 232.403 1009.93 Q230.598 1013.47 230.598 1020.6 Q230.598 1027.7 232.403 1031.27 Q234.232 1034.81 237.843 1034.81 Q241.477 1034.81 243.283 1031.27 Q245.111 1027.7 245.111 1020.6 Q245.111 1013.47 243.283 1009.93 Q241.477 1006.36 237.843 1006.36 M237.843 1002.66 Q243.653 1002.66 246.709 1007.26 Q249.787 1011.85 249.787 1020.6 Q249.787 1029.32 246.709 1033.93 Q243.653 1038.51 237.843 1038.51 Q232.033 1038.51 228.954 1033.93 Q225.899 1029.32 225.899 1020.6 Q225.899 1011.85 228.954 1007.26 Q232.033 1002.66 237.843 1002.66 Z" fill="#000000" fill-rule="nonzero" fill-opacity="1" /><path clip-path="url(#clip490)" d="M249.787 996.759 L273.899 996.759 L273.899 999.957 L249.787 999.957 L249.787 996.759 Z" fill="#000000" fill-rule="nonzero" fill-opacity="1" /><path clip-path="url(#clip490)" d="M290.224 997.098 Q287.516 997.098 285.955 998.546 Q284.412 999.994 284.412 1002.53 Q284.412 1005.07 285.955 1006.52 Q287.516 1007.97 290.224 1007.97 Q292.932 1007.97 294.493 1006.52 Q296.054 1005.05 296.054 1002.53 Q296.054 999.994 294.493 998.546 Q292.951 997.098 290.224 997.098 M286.425 995.48 Q283.98 994.879 282.607 993.205 Q281.253 991.531 281.253 989.123 Q281.253 985.757 283.641 983.801 Q286.049 981.845 290.224 981.845 Q294.418 981.845 296.807 983.801 Q299.195 985.757 299.195 989.123 Q299.195 991.531 297.822 993.205 Q296.468 994.879 294.042 995.48 Q296.788 996.12 298.311 997.982 Q299.854 999.844 299.854 1002.53 Q299.854 1006.61 297.352 1008.8 Q294.87 1010.98 290.224 1010.98 Q285.579 1010.98 283.077 1008.8 Q280.594 1006.61 280.594 1002.53 Q280.594 999.844 282.137 997.982 Q283.679 996.12 286.425 995.48 M285.033 989.481 Q285.033 991.663 286.387 992.885 Q287.76 994.108 290.224 994.108 Q292.669 994.108 294.042 992.885 Q295.434 991.663 295.434 989.481 Q295.434 987.299 294.042 986.077 Q292.669 984.854 290.224 984.854 Q287.76 984.854 286.387 986.077 Q285.033 987.299 285.033 989.481 Z" fill="#000000" fill-rule="nonzero" fill-opacity="1" /><path clip-path="url(#clip490)" d="M53.8726 602.308 L61.5115 602.308 L61.5115 575.942 L53.2013 577.609 L53.2013 573.35 L61.4652 571.683 L66.1411 571.683 L66.1411 602.308 L73.7799 602.308 L73.7799 606.243 L53.8726 606.243 L53.8726 602.308 Z" fill="#000000" fill-rule="nonzero" fill-opacity="1" /><path clip-path="url(#clip490)" d="M83.2243 600.363 L88.1085 600.363 L88.1085 606.243 L83.2243 606.243 L83.2243 600.363 Z" fill="#000000" fill-rule="nonzero" fill-opacity="1" /><path clip-path="url(#clip490)" d="M108.294 574.762 Q104.683 574.762 102.854 578.326 Q101.048 581.868 101.048 588.998 Q101.048 596.104 102.854 599.669 Q104.683 603.21 108.294 603.21 Q111.928 603.21 113.733 599.669 Q115.562 596.104 115.562 588.998 Q115.562 581.868 113.733 578.326 Q111.928 574.762 108.294 574.762 M108.294 571.058 Q114.104 571.058 117.159 575.664 Q120.238 580.248 120.238 588.998 Q120.238 597.724 117.159 602.331 Q114.104 606.914 108.294 606.914 Q102.483 606.914 99.4048 602.331 Q96.3492 597.724 96.3492 588.998 Q96.3492 580.248 99.4048 575.664 Q102.483 571.058 108.294 571.058 Z" fill="#000000" fill-rule="nonzero" fill-opacity="1" /><path clip-path="url(#clip490)" d="M138.455 574.762 Q134.844 574.762 133.016 578.326 Q131.21 581.868 131.21 588.998 Q131.21 596.104 133.016 599.669 Q134.844 603.21 138.455 603.21 Q142.09 603.21 143.895 599.669 Q145.724 596.104 145.724 588.998 Q145.724 581.868 143.895 578.326 Q142.09 574.762 138.455 574.762 M138.455 571.058 Q144.266 571.058 147.321 575.664 Q150.4 580.248 150.4 588.998 Q150.4 597.724 147.321 602.331 Q144.266 606.914 138.455 606.914 Q132.645 606.914 129.567 602.331 Q126.511 597.724 126.511 588.998 Q126.511 580.248 129.567 575.664 Q132.645 571.058 138.455 571.058 Z" fill="#000000" fill-rule="nonzero" fill-opacity="1" /><path clip-path="url(#clip490)" d="M186.789 580.78 L176.21 591.405 L186.789 601.984 L184.034 604.785 L173.409 594.16 L162.784 604.785 L160.053 601.984 L170.608 591.405 L160.053 580.78 L162.784 577.979 L173.409 588.604 L184.034 577.979 L186.789 580.78 Z" fill="#000000" fill-rule="nonzero" fill-opacity="1" /><path clip-path="url(#clip490)" d="M199.15 602.308 L206.788 602.308 L206.788 575.942 L198.478 577.609 L198.478 573.35 L206.742 571.683 L211.418 571.683 L211.418 602.308 L219.057 602.308 L219.057 606.243 L199.15 606.243 L199.15 602.308 Z" fill="#000000" fill-rule="nonzero" fill-opacity="1" /><path clip-path="url(#clip490)" d="M238.501 574.762 Q234.89 574.762 233.061 578.326 Q231.256 581.868 231.256 588.998 Q231.256 596.104 233.061 599.669 Q234.89 603.21 238.501 603.21 Q242.135 603.21 243.941 599.669 Q245.77 596.104 245.77 588.998 Q245.77 581.868 243.941 578.326 Q242.135 574.762 238.501 574.762 M238.501 571.058 Q244.311 571.058 247.367 575.664 Q250.446 580.248 250.446 588.998 Q250.446 597.724 247.367 602.331 Q244.311 606.914 238.501 606.914 Q232.691 606.914 229.612 602.331 Q226.557 597.724 226.557 588.998 Q226.557 580.248 229.612 575.664 Q232.691 571.058 238.501 571.058 Z" fill="#000000" fill-rule="nonzero" fill-opacity="1" /><path clip-path="url(#clip490)" d="M250.446 565.159 L274.557 565.159 L274.557 568.357 L250.446 568.357 L250.446 565.159 Z" fill="#000000" fill-rule="nonzero" fill-opacity="1" /><path clip-path="url(#clip490)" d="M281.798 550.752 L299.854 550.752 L299.854 552.37 L289.66 578.832 L285.691 578.832 L295.283 553.95 L281.798 553.95 L281.798 550.752 Z" fill="#000000" fill-rule="nonzero" fill-opacity="1" /><path clip-path="url(#clip490)" d="M53.8726 170.707 L61.5115 170.707 L61.5115 144.342 L53.2013 146.009 L53.2013 141.749 L61.4652 140.083 L66.1411 140.083 L66.1411 170.707 L73.7799 170.707 L73.7799 174.643 L53.8726 174.643 L53.8726 170.707 Z" fill="#000000" fill-rule="nonzero" fill-opacity="1" /><path clip-path="url(#clip490)" d="M83.2243 168.763 L88.1085 168.763 L88.1085 174.643 L83.2243 174.643 L83.2243 168.763 Z" fill="#000000" fill-rule="nonzero" fill-opacity="1" /><path clip-path="url(#clip490)" d="M98.34 140.083 L116.696 140.083 L116.696 144.018 L102.622 144.018 L102.622 152.49 Q103.641 152.143 104.659 151.981 Q105.678 151.796 106.696 151.796 Q112.483 151.796 115.863 154.967 Q119.243 158.138 119.243 163.555 Q119.243 169.133 115.77 172.235 Q112.298 175.314 105.979 175.314 Q103.803 175.314 101.534 174.944 Q99.289 174.573 96.8816 173.832 L96.8816 169.133 Q98.965 170.268 101.187 170.823 Q103.409 171.379 105.886 171.379 Q109.891 171.379 112.229 169.272 Q114.567 167.166 114.567 163.555 Q114.567 159.944 112.229 157.837 Q109.891 155.731 105.886 155.731 Q104.011 155.731 102.136 156.147 Q100.284 156.564 98.34 157.444 L98.34 140.083 Z" fill="#000000" fill-rule="nonzero" fill-opacity="1" /><path clip-path="url(#clip490)" d="M138.455 143.161 Q134.844 143.161 133.016 146.726 Q131.21 150.268 131.21 157.397 Q131.21 164.504 133.016 168.069 Q134.844 171.61 138.455 171.61 Q142.09 171.61 143.895 168.069 Q145.724 164.504 145.724 157.397 Q145.724 150.268 143.895 146.726 Q142.09 143.161 138.455 143.161 M138.455 139.458 Q144.266 139.458 147.321 144.064 Q150.4 148.647 150.4 157.397 Q150.4 166.124 147.321 170.731 Q144.266 175.314 138.455 175.314 Q132.645 175.314 129.567 170.731 Q126.511 166.124 126.511 157.397 Q126.511 148.647 129.567 144.064 Q132.645 139.458 138.455 139.458 Z" fill="#000000" fill-rule="nonzero" fill-opacity="1" /><path clip-path="url(#clip490)" d="M186.789 149.18 L176.21 159.805 L186.789 170.383 L184.034 173.184 L173.409 162.559 L162.784 173.184 L160.053 170.383 L170.608 159.805 L160.053 149.18 L162.784 146.379 L173.409 157.004 L184.034 146.379 L186.789 149.18 Z" fill="#000000" fill-rule="nonzero" fill-opacity="1" /><path clip-path="url(#clip490)" d="M199.15 170.707 L206.788 170.707 L206.788 144.342 L198.478 146.009 L198.478 141.749 L206.742 140.083 L211.418 140.083 L211.418 170.707 L219.057 170.707 L219.057 174.643 L199.15 174.643 L199.15 170.707 Z" fill="#000000" fill-rule="nonzero" fill-opacity="1" /><path clip-path="url(#clip490)" d="M238.501 143.161 Q234.89 143.161 233.061 146.726 Q231.256 150.268 231.256 157.397 Q231.256 164.504 233.061 168.069 Q234.89 171.61 238.501 171.61 Q242.135 171.61 243.941 168.069 Q245.77 164.504 245.77 157.397 Q245.77 150.268 243.941 146.726 Q242.135 143.161 238.501 143.161 M238.501 139.458 Q244.311 139.458 247.367 144.064 Q250.446 148.647 250.446 157.397 Q250.446 166.124 247.367 170.731 Q244.311 175.314 238.501 175.314 Q232.691 175.314 229.612 170.731 Q226.557 166.124 226.557 157.397 Q226.557 148.647 229.612 144.064 Q232.691 139.458 238.501 139.458 Z" fill="#000000" fill-rule="nonzero" fill-opacity="1" /><path clip-path="url(#clip490)" d="M250.446 133.559 L274.557 133.559 L274.557 136.756 L250.446 136.756 L250.446 133.559 Z" fill="#000000" fill-rule="nonzero" fill-opacity="1" /><path clip-path="url(#clip490)" d="M281.798 119.152 L299.854 119.152 L299.854 120.77 L289.66 147.232 L285.691 147.232 L295.283 122.35 L281.798 122.35 L281.798 119.152 Z" fill="#000000" fill-rule="nonzero" fill-opacity="1" /><polyline clip-path="url(#clip491)" style="stroke:#009af9; stroke-linecap:round; stroke-linejoin:round; stroke-width:20; stroke-opacity:1; fill:none" points="392.936,1445.72 546.199,1445.72 693.065,1445.72 833.452,1445.72 967.285,1445.72 1094.51,1445.72 1215.06,1445.72 1328.92,1445.72 1436.07,1445.72 1536.48,1445.72 1630.19,1445.72 1717.21,1445.72 1797.6,1445.72 1871.42,1445.72 1938.75,1445.71 1999.71,1445.68 2054.4,1445.55 2102.98,1444.95 2145.6,1442.59 2182.43,1434 "/>
<polyline clip-path="url(#clip491)" style="stroke:#e26f46; stroke-linecap:round; stroke-linejoin:round; stroke-width:20; stroke-opacity:1; fill:none" points="2182.43,1445.72 2223.58,1445.7 2254.56,1445.69 2276.33,1445.69 2289.75,1445.68 2295.67,1445.68 2294.85,1445.68 2288.01,1445.68 2275.8,1445.69 2258.84,1445.69 2237.69,1445.7 2212.88,1445.7 2184.89,1445.71 2154.14,1445.69 2121.05,1445.59 2085.98,1445.11 2049.26,1443.25 2011.19,1436.65 1972.05,1414.93 1932.09,1347.94 "/>
<polyline clip-path="url(#clip491)" style="stroke:#3da44d; stroke-linecap:round; stroke-linejoin:round; stroke-width:20; stroke-opacity:1; fill:none" points="1932.09,1445.72 1890.15,1445.09 1847.79,1444.47 1805.22,1443.84 1762.6,1443.21 1720.09,1442.58 1677.81,1441.95 1635.9,1441.33 1594.45,1440.71 1553.56,1440.11 1513.29,1439.51 1473.73,1438.93 1434.92,1438.35 1396.92,1437.77 1359.76,1437.15 1323.48,1436.32 1288.11,1434.62 1253.65,1429.82 1220.13,1414.78 1187.56,1368.01 "/>
<polyline clip-path="url(#clip491)" style="stroke:#c271d2; stroke-linecap:round; stroke-linejoin:round; stroke-width:20; stroke-opacity:1; fill:none" points="1187.56,1445.72 1184.68,1445.71 1181.81,1445.71 1178.95,1445.7 1176.09,1445.7 1173.24,1445.7 1170.4,1445.69 1167.57,1445.69 1164.74,1445.68 1161.93,1445.68 1159.12,1445.67 1156.31,1445.67 1153.52,1445.65 1150.73,1445.59 1147.95,1445.31 1145.18,1444.16 1142.42,1439.87 1139.66,1424.99 1136.91,1377.05 1134.17,1232.14 "/>
<polyline clip-path="url(#clip491)" style="stroke:#ac8d18; stroke-linecap:round; stroke-linejoin:round; stroke-width:20; stroke-opacity:1; fill:none" points="1134.17,1445.71 1130.39,1445.66 1126.62,1445.6 1122.86,1445.54 1119.12,1445.49 1115.39,1445.43 1111.68,1445.37 1107.98,1445.32 1104.3,1445.26 1100.63,1445.2 1096.98,1445.15 1093.34,1445.09 1089.71,1445.02 1086.1,1444.91 1082.51,1444.59 1078.93,1443.47 1075.36,1439.37 1071.81,1425.32 1068.28,1380.15 1064.76,1243.73 "/>
<polyline clip-path="url(#clip491)" style="stroke:#00a9ad; stroke-linecap:round; stroke-linejoin:round; stroke-width:20; stroke-opacity:1; fill:none" points="1064.76,1445.72 1048.74,1445.57 1033.03,1445.42 1017.62,1445.28 1002.51,1445.13 987.708,1445 973.199,1444.86 958.983,1444.73 945.057,1444.6 931.419,1444.47 918.064,1444.34 904.991,1444.22 892.194,1444.09 879.672,1443.89 867.419,1443.42 855.432,1441.82 843.708,1436.12 832.242,1416.65 821.03,1354.12 810.07,1165.34 "/>
<polyline clip-path="url(#clip491)" style="stroke:#ed5d92; stroke-linecap:round; stroke-linejoin:round; stroke-width:20; stroke-opacity:1; fill:none" points="810.07,1445.72 780.707,1445.43 753.188,1445.17 727.425,1444.92 703.33,1444.68 680.817,1444.46 659.8,1444.26 640.196,1444.07 621.925,1443.89 604.909,1443.73 589.073,1443.58 574.344,1443.43 560.656,1443.29 547.94,1443.14 536.136,1442.86 525.184,1442.05 515.029,1439.18 505.616,1429.09 496.895,1395.28 488.82,1288.34 "/>
<polyline clip-path="url(#clip491)" style="stroke:#c68125; stroke-linecap:round; stroke-linejoin:round; stroke-width:20; stroke-opacity:1; fill:none" points="488.82,1445.72 479.168,1445.07 470.45,1444.49 462.582,1443.97 455.484,1443.49 449.087,1443.07 443.323,1442.68 438.133,1442.34 433.463,1442.02 429.262,1441.74 425.485,1441.49 422.091,1441.27 419.043,1441.07 416.306,1440.92 413.85,1440.92 411.646,1441.55 409.67,1444.69 407.899,1434.04 406.311,1387.51 404.889,1228.47 "/>
<polyline clip-path="url(#clip491)" style="stroke:#00a98d; stroke-linecap:round; stroke-linejoin:round; stroke-width:20; stroke-opacity:1; fill:none" points="404.889,1445.72 403.378,1445.5 402.056,1445.32 400.898,1445.16 399.885,1445.02 398.999,1444.89 398.224,1444.78 397.547,1444.69 396.956,1444.61 396.439,1444.54 395.988,1444.47 395.595,1444.42 395.251,1444.36 394.952,1444.3 394.691,1444.11 394.463,1443.37 394.265,1440.25 394.092,1427.76 393.941,1381 393.81,1216.65 "/>
<polyline clip-path="url(#clip491)" style="stroke:#8e971d; stroke-linecap:round; stroke-linejoin:round; stroke-width:20; stroke-opacity:1; fill:none" points="393.81,1445.72 393.694,1445.71 393.594,1445.7 393.506,1445.7 393.431,1445.69 393.365,1445.69 393.308,1445.69 393.258,1445.68 393.215,1445.68 393.178,1445.68 393.145,1445.68 393.117,1445.67 393.093,1445.67 393.072,1445.64 393.054,1445.49 393.038,1444.79 393.024,1441.72 393.012,1429.28 393.002,1382.5 392.993,1217.44 "/>
<polyline clip-path="url(#clip491)" style="stroke:#00a8cb; stroke-linecap:round; stroke-linejoin:round; stroke-width:20; stroke-opacity:1; fill:none" points="392.993,1445.72 392.985,1445.72 392.978,1445.71 392.972,1445.71 392.967,1445.71 392.963,1445.71 392.959,1445.71 392.956,1445.71 392.953,1445.71 392.951,1445.71 392.949,1445.71 392.947,1445.71 392.945,1445.71 392.944,1445.68 392.943,1445.51 392.942,1444.73 392.941,1441.28 392.94,1427.3 392.94,1374.52 392.939,1187.8 "/>
<polyline clip-path="url(#clip491)" style="stroke:#9b7fe8; stroke-linecap:round; stroke-linejoin:round; stroke-width:20; stroke-opacity:1; fill:none" points="392.939,1445.72 392.939,1445.72 392.938,1445.72 392.938,1445.72 392.938,1445.72 392.937,1445.72 392.937,1445.72 392.937,1445.72 392.937,1445.71 392.937,1445.72 392.936,1445.71 392.936,1445.71 392.936,1445.71 392.936,1445.67 392.936,1445.46 392.936,1444.46 392.936,1440.03 392.936,1421.95 392.936,1353.41 392.936,1109.67 "/>
<polyline clip-path="url(#clip491)" style="stroke:#608cf6; stroke-linecap:round; stroke-linejoin:round; stroke-width:20; stroke-opacity:1; fill:none" points="392.936,1445.72 392.936,1445.72 392.936,1445.72 392.936,1445.72 392.936,1445.72 392.936,1445.72 392.936,1445.72 392.936,1445.72 392.936,1445.72 392.936,1445.72 392.936,1445.72 392.936,1445.71 392.936,1445.69 392.936,1445.55 392.936,1444.76 392.936,1440.92 392.936,1423.66 392.936,1352.31 392.936,1077.87 392.936,87.9763 "/>
<polyline clip-path="url(#clip491)" style="stroke:#f05f73; stroke-linecap:round; stroke-linejoin:round; stroke-width:20; stroke-opacity:1; fill:none" points="392.936,1445.72 392.936,1445.72 392.936,1445.72 392.936,1445.72 392.936,1445.71 392.936,1445.72 392.936,1445.72 392.936,1445.72 392.936,1445.72 392.936,1445.72 392.936,1445.72 392.936,1445.71 392.936,1445.71 392.936,1445.69 392.936,1445.58 392.936,1445.01 392.936,1442.53 392.936,1432.41 392.936,1393.94 392.936,1256.93 "/>
<polyline clip-path="url(#clip491)" style="stroke:#dd64b5; stroke-linecap:round; stroke-linejoin:round; stroke-width:20; stroke-opacity:1; fill:none" points="392.936,1445.72 392.936,1445.72 392.936,1445.72 392.936,1445.72 392.936,1445.72 392.936,1445.72 392.936,1445.72 392.936,1445.72 392.936,1445.72 392.936,1445.72 392.936,1445.72 392.936,1445.71 392.936,1445.71 392.936,1445.69 392.936,1445.57 392.936,1444.99 392.936,1442.45 392.936,1432.13 392.936,1393.17 392.936,1255.19 "/>
</svg>
