<?xml version="1.0" encoding="utf-8"?>
<svg xmlns="http://www.w3.org/2000/svg" xmlns:xlink="http://www.w3.org/1999/xlink" width="600" height="400" viewBox="0 0 2400 1600">
<defs>
  <clipPath id="clip950">
    <rect x="0" y="0" width="2400" height="1600"/>
  </clipPath>
</defs>
<path clip-path="url(#clip950)" d="M0 1600 L2400 1600 L2400 0 L0 0  Z" fill="#ffffff" fill-rule="evenodd" fill-opacity="1"/>
<defs>
  <clipPath id="clip951">
    <rect x="480" y="0" width="1681" height="1600"/>
  </clipPath>
</defs>
<path clip-path="url(#clip950)" d="M279.704 1423.18 L2352.76 1423.18 L2352.76 47.2441 L279.704 47.2441  Z" fill="#ffffff" fill-rule="evenodd" fill-opacity="1"/>
<defs>
  <clipPath id="clip952">
    <rect x="279" y="47" width="2074" height="1377"/>
  </clipPath>
</defs>
<polyline clip-path="url(#clip952)" style="stroke:#000000; stroke-linecap:round; stroke-linejoin:round; stroke-width:2; stroke-opacity:0.1; fill:none" points="399.324,1423.18 399.324,47.2441 "/>
<polyline clip-path="url(#clip952)" style="stroke:#000000; stroke-linecap:round; stroke-linejoin:round; stroke-width:2; stroke-opacity:0.1; fill:none" points="811.258,1423.18 811.258,47.2441 "/>
<polyline clip-path="url(#clip952)" style="stroke:#000000; stroke-linecap:round; stroke-linejoin:round; stroke-width:2; stroke-opacity:0.1; fill:none" points="1223.19,1423.18 1223.19,47.2441 "/>
<polyline clip-path="url(#clip952)" style="stroke:#000000; stroke-linecap:round; stroke-linejoin:round; stroke-width:2; stroke-opacity:0.1; fill:none" points="1635.13,1423.18 1635.13,47.2441 "/>
<polyline clip-path="url(#clip952)" style="stroke:#000000; stroke-linecap:round; stroke-linejoin:round; stroke-width:2; stroke-opacity:0.1; fill:none" points="2047.06,1423.18 2047.06,47.2441 "/>
<polyline clip-path="url(#clip950)" style="stroke:#000000; stroke-linecap:round; stroke-linejoin:round; stroke-width:4; stroke-opacity:1; fill:none" points="279.704,1423.18 2352.76,1423.18 "/>
<polyline clip-path="url(#clip950)" style="stroke:#000000; stroke-linecap:round; stroke-linejoin:round; stroke-width:4; stroke-opacity:1; fill:none" points="399.324,1423.18 399.324,1404.28 "/>
<polyline clip-path="url(#clip950)" style="stroke:#000000; stroke-linecap:round; stroke-linejoin:round; stroke-width:4; stroke-opacity:1; fill:none" points="811.258,1423.18 811.258,1404.28 "/>
<polyline clip-path="url(#clip950)" style="stroke:#000000; stroke-linecap:round; stroke-linejoin:round; stroke-width:4; stroke-opacity:1; fill:none" points="1223.19,1423.18 1223.19,1404.28 "/>
<polyline clip-path="url(#clip950)" style="stroke:#000000; stroke-linecap:round; stroke-linejoin:round; stroke-width:4; stroke-opacity:1; fill:none" points="1635.13,1423.18 1635.13,1404.28 "/>
<polyline clip-path="url(#clip950)" style="stroke:#000000; stroke-linecap:round; stroke-linejoin:round; stroke-width:4; stroke-opacity:1; fill:none" points="2047.06,1423.18 2047.06,1404.28 "/>
<path clip-path="url(#clip950)" d="M347.044 1454.1 Q343.433 1454.1 341.604 1457.66 Q339.799 1461.2 339.799 1468.33 Q339.799 1475.44 341.604 1479.01 Q343.433 1482.55 347.044 1482.55 Q350.678 1482.55 352.484 1479.01 Q354.313 1475.44 354.313 1468.33 Q354.313 1461.2 352.484 1457.66 Q350.678 1454.1 347.044 1454.1 M347.044 1450.39 Q352.854 1450.39 355.91 1455 Q358.989 1459.58 358.989 1468.33 Q358.989 1477.06 355.91 1481.67 Q352.854 1486.25 347.044 1486.25 Q341.234 1486.25 338.155 1481.67 Q335.1 1477.06 335.1 1468.33 Q335.1 1459.58 338.155 1455 Q341.234 1450.39 347.044 1450.39 Z" fill="#000000" fill-rule="nonzero" fill-opacity="1" /><path clip-path="url(#clip950)" d="M367.206 1479.7 L372.09 1479.7 L372.09 1485.58 L367.206 1485.58 L367.206 1479.7 Z" fill="#000000" fill-rule="nonzero" fill-opacity="1" /><path clip-path="url(#clip950)" d="M386.303 1481.64 L402.623 1481.64 L402.623 1485.58 L380.678 1485.58 L380.678 1481.64 Q383.34 1478.89 387.924 1474.26 Q392.53 1469.61 393.711 1468.27 Q395.956 1465.74 396.836 1464.01 Q397.738 1462.25 397.738 1460.56 Q397.738 1457.8 395.794 1456.07 Q393.873 1454.33 390.771 1454.33 Q388.572 1454.33 386.118 1455.09 Q383.688 1455.86 380.91 1457.41 L380.91 1452.69 Q383.734 1451.55 386.188 1450.97 Q388.641 1450.39 390.678 1450.39 Q396.049 1450.39 399.243 1453.08 Q402.437 1455.77 402.437 1460.26 Q402.437 1462.39 401.627 1464.31 Q400.84 1466.2 398.734 1468.8 Q398.155 1469.47 395.053 1472.69 Q391.951 1475.88 386.303 1481.64 Z" fill="#000000" fill-rule="nonzero" fill-opacity="1" /><path clip-path="url(#clip950)" d="M416.465 1481.64 L432.785 1481.64 L432.785 1485.58 L410.84 1485.58 L410.84 1481.64 Q413.502 1478.89 418.086 1474.26 Q422.692 1469.61 423.873 1468.27 Q426.118 1465.74 426.998 1464.01 Q427.9 1462.25 427.9 1460.56 Q427.9 1457.8 425.956 1456.07 Q424.035 1454.33 420.933 1454.33 Q418.734 1454.33 416.28 1455.09 Q413.849 1455.86 411.072 1457.41 L411.072 1452.69 Q413.896 1451.55 416.349 1450.97 Q418.803 1450.39 420.84 1450.39 Q426.21 1450.39 429.405 1453.08 Q432.599 1455.77 432.599 1460.26 Q432.599 1462.39 431.789 1464.31 Q431.002 1466.2 428.896 1468.8 Q428.317 1469.47 425.215 1472.69 Q422.113 1475.88 416.465 1481.64 Z" fill="#000000" fill-rule="nonzero" fill-opacity="1" /><path clip-path="url(#clip950)" d="M442.646 1451.02 L461.002 1451.02 L461.002 1454.96 L446.928 1454.96 L446.928 1463.43 Q447.946 1463.08 448.965 1462.92 Q449.984 1462.73 451.002 1462.73 Q456.789 1462.73 460.169 1465.9 Q463.548 1469.08 463.548 1474.49 Q463.548 1480.07 460.076 1483.17 Q456.604 1486.25 450.284 1486.25 Q448.109 1486.25 445.84 1485.88 Q443.595 1485.51 441.187 1484.77 L441.187 1480.07 Q443.271 1481.2 445.493 1481.76 Q447.715 1482.32 450.192 1482.32 Q454.196 1482.32 456.534 1480.21 Q458.872 1478.1 458.872 1474.49 Q458.872 1470.88 456.534 1468.77 Q454.196 1466.67 450.192 1466.67 Q448.317 1466.67 446.442 1467.08 Q444.59 1467.5 442.646 1468.38 L442.646 1451.02 Z" fill="#000000" fill-rule="nonzero" fill-opacity="1" /><path clip-path="url(#clip950)" d="M758.481 1454.1 Q754.87 1454.1 753.041 1457.66 Q751.235 1461.2 751.235 1468.33 Q751.235 1475.44 753.041 1479.01 Q754.87 1482.55 758.481 1482.55 Q762.115 1482.55 763.921 1479.01 Q765.749 1475.44 765.749 1468.33 Q765.749 1461.2 763.921 1457.66 Q762.115 1454.1 758.481 1454.1 M758.481 1450.39 Q764.291 1450.39 767.346 1455 Q770.425 1459.58 770.425 1468.33 Q770.425 1477.06 767.346 1481.67 Q764.291 1486.25 758.481 1486.25 Q752.671 1486.25 749.592 1481.67 Q746.536 1477.06 746.536 1468.33 Q746.536 1459.58 749.592 1455 Q752.671 1450.39 758.481 1450.39 Z" fill="#000000" fill-rule="nonzero" fill-opacity="1" /><path clip-path="url(#clip950)" d="M778.643 1479.7 L783.527 1479.7 L783.527 1485.58 L778.643 1485.58 L778.643 1479.7 Z" fill="#000000" fill-rule="nonzero" fill-opacity="1" /><path clip-path="url(#clip950)" d="M797.74 1481.64 L814.059 1481.64 L814.059 1485.58 L792.115 1485.58 L792.115 1481.64 Q794.777 1478.89 799.36 1474.26 Q803.967 1469.61 805.147 1468.27 Q807.393 1465.74 808.272 1464.01 Q809.175 1462.25 809.175 1460.56 Q809.175 1457.8 807.231 1456.07 Q805.309 1454.33 802.207 1454.33 Q800.008 1454.33 797.555 1455.09 Q795.124 1455.86 792.346 1457.41 L792.346 1452.69 Q795.17 1451.55 797.624 1450.97 Q800.078 1450.39 802.115 1450.39 Q807.485 1450.39 810.68 1453.08 Q813.874 1455.77 813.874 1460.26 Q813.874 1462.39 813.064 1464.31 Q812.277 1466.2 810.17 1468.8 Q809.592 1469.47 806.49 1472.69 Q803.388 1475.88 797.74 1481.64 Z" fill="#000000" fill-rule="nonzero" fill-opacity="1" /><path clip-path="url(#clip950)" d="M823.92 1451.02 L842.277 1451.02 L842.277 1454.96 L828.203 1454.96 L828.203 1463.43 Q829.221 1463.08 830.24 1462.92 Q831.258 1462.73 832.277 1462.73 Q838.064 1462.73 841.443 1465.9 Q844.823 1469.08 844.823 1474.49 Q844.823 1480.07 841.351 1483.17 Q837.878 1486.25 831.559 1486.25 Q829.383 1486.25 827.115 1485.88 Q824.869 1485.51 822.462 1484.77 L822.462 1480.07 Q824.545 1481.2 826.767 1481.76 Q828.99 1482.32 831.466 1482.32 Q835.471 1482.32 837.809 1480.21 Q840.147 1478.1 840.147 1474.49 Q840.147 1470.88 837.809 1468.77 Q835.471 1466.67 831.466 1466.67 Q829.591 1466.67 827.717 1467.08 Q825.865 1467.5 823.92 1468.38 L823.92 1451.02 Z" fill="#000000" fill-rule="nonzero" fill-opacity="1" /><path clip-path="url(#clip950)" d="M864.036 1454.1 Q860.425 1454.1 858.596 1457.66 Q856.79 1461.2 856.79 1468.33 Q856.79 1475.44 858.596 1479.01 Q860.425 1482.55 864.036 1482.55 Q867.67 1482.55 869.476 1479.01 Q871.304 1475.44 871.304 1468.33 Q871.304 1461.2 869.476 1457.66 Q867.67 1454.1 864.036 1454.1 M864.036 1450.39 Q869.846 1450.39 872.901 1455 Q875.98 1459.58 875.98 1468.33 Q875.98 1477.06 872.901 1481.67 Q869.846 1486.25 864.036 1486.25 Q858.226 1486.25 855.147 1481.67 Q852.091 1477.06 852.091 1468.33 Q852.091 1459.58 855.147 1455 Q858.226 1450.39 864.036 1450.39 Z" fill="#000000" fill-rule="nonzero" fill-opacity="1" /><path clip-path="url(#clip950)" d="M1170.91 1454.1 Q1167.3 1454.1 1165.47 1457.66 Q1163.67 1461.2 1163.67 1468.33 Q1163.67 1475.44 1165.47 1479.01 Q1167.3 1482.55 1170.91 1482.55 Q1174.55 1482.55 1176.35 1479.01 Q1178.18 1475.44 1178.18 1468.33 Q1178.18 1461.2 1176.35 1457.66 Q1174.55 1454.1 1170.91 1454.1 M1170.91 1450.39 Q1176.72 1450.39 1179.78 1455 Q1182.86 1459.58 1182.86 1468.33 Q1182.86 1477.06 1179.78 1481.67 Q1176.72 1486.25 1170.91 1486.25 Q1165.1 1486.25 1162.02 1481.67 Q1158.97 1477.06 1158.97 1468.33 Q1158.97 1459.58 1162.02 1455 Q1165.1 1450.39 1170.91 1450.39 Z" fill="#000000" fill-rule="nonzero" fill-opacity="1" /><path clip-path="url(#clip950)" d="M1191.07 1479.7 L1195.96 1479.7 L1195.96 1485.58 L1191.07 1485.58 L1191.07 1479.7 Z" fill="#000000" fill-rule="nonzero" fill-opacity="1" /><path clip-path="url(#clip950)" d="M1210.17 1481.64 L1226.49 1481.64 L1226.49 1485.58 L1204.55 1485.58 L1204.55 1481.64 Q1207.21 1478.89 1211.79 1474.26 Q1216.4 1469.61 1217.58 1468.27 Q1219.82 1465.74 1220.7 1464.01 Q1221.61 1462.25 1221.61 1460.56 Q1221.61 1457.8 1219.66 1456.07 Q1217.74 1454.33 1214.64 1454.33 Q1212.44 1454.33 1209.99 1455.09 Q1207.56 1455.86 1204.78 1457.41 L1204.78 1452.69 Q1207.6 1451.55 1210.06 1450.97 Q1212.51 1450.39 1214.55 1450.39 Q1219.92 1450.39 1223.11 1453.08 Q1226.31 1455.77 1226.31 1460.26 Q1226.31 1462.39 1225.5 1464.31 Q1224.71 1466.2 1222.6 1468.8 Q1222.02 1469.47 1218.92 1472.69 Q1215.82 1475.88 1210.17 1481.64 Z" fill="#000000" fill-rule="nonzero" fill-opacity="1" /><path clip-path="url(#clip950)" d="M1235.13 1451.02 L1257.35 1451.02 L1257.35 1453.01 L1244.8 1485.58 L1239.92 1485.58 L1251.72 1454.96 L1235.13 1454.96 L1235.13 1451.02 Z" fill="#000000" fill-rule="nonzero" fill-opacity="1" /><path clip-path="url(#clip950)" d="M1266.51 1451.02 L1284.87 1451.02 L1284.87 1454.96 L1270.8 1454.96 L1270.8 1463.43 Q1271.81 1463.08 1272.83 1462.92 Q1273.85 1462.73 1274.87 1462.73 Q1280.66 1462.73 1284.04 1465.9 Q1287.42 1469.08 1287.42 1474.49 Q1287.42 1480.07 1283.94 1483.17 Q1280.47 1486.25 1274.15 1486.25 Q1271.98 1486.25 1269.71 1485.88 Q1267.46 1485.51 1265.06 1484.77 L1265.06 1480.07 Q1267.14 1481.2 1269.36 1481.76 Q1271.58 1482.32 1274.06 1482.32 Q1278.06 1482.32 1280.4 1480.21 Q1282.74 1478.1 1282.74 1474.49 Q1282.74 1470.88 1280.4 1468.77 Q1278.06 1466.67 1274.06 1466.67 Q1272.19 1466.67 1270.31 1467.08 Q1268.46 1467.5 1266.51 1468.38 L1266.51 1451.02 Z" fill="#000000" fill-rule="nonzero" fill-opacity="1" /><path clip-path="url(#clip950)" d="M1582.35 1454.1 Q1578.74 1454.1 1576.91 1457.66 Q1575.1 1461.2 1575.1 1468.33 Q1575.1 1475.44 1576.91 1479.01 Q1578.74 1482.55 1582.35 1482.55 Q1585.98 1482.55 1587.79 1479.01 Q1589.62 1475.44 1589.62 1468.33 Q1589.62 1461.2 1587.79 1457.66 Q1585.98 1454.1 1582.35 1454.1 M1582.35 1450.39 Q1588.16 1450.39 1591.21 1455 Q1594.29 1459.58 1594.29 1468.33 Q1594.29 1477.06 1591.21 1481.67 Q1588.16 1486.25 1582.35 1486.25 Q1576.54 1486.25 1573.46 1481.67 Q1570.4 1477.06 1570.4 1468.33 Q1570.4 1459.58 1573.46 1455 Q1576.54 1450.39 1582.35 1450.39 Z" fill="#000000" fill-rule="nonzero" fill-opacity="1" /><path clip-path="url(#clip950)" d="M1602.51 1479.7 L1607.4 1479.7 L1607.4 1485.58 L1602.51 1485.58 L1602.51 1479.7 Z" fill="#000000" fill-rule="nonzero" fill-opacity="1" /><path clip-path="url(#clip950)" d="M1631.75 1466.95 Q1635.1 1467.66 1636.98 1469.93 Q1638.88 1472.2 1638.88 1475.53 Q1638.88 1480.65 1635.36 1483.45 Q1631.84 1486.25 1625.36 1486.25 Q1623.18 1486.25 1620.87 1485.81 Q1618.58 1485.39 1616.12 1484.54 L1616.12 1480.02 Q1618.07 1481.16 1620.38 1481.74 Q1622.7 1482.32 1625.22 1482.32 Q1629.62 1482.32 1631.91 1480.58 Q1634.22 1478.84 1634.22 1475.53 Q1634.22 1472.48 1632.07 1470.77 Q1629.94 1469.03 1626.12 1469.03 L1622.09 1469.03 L1622.09 1465.19 L1626.31 1465.19 Q1629.76 1465.19 1631.59 1463.82 Q1633.41 1462.43 1633.41 1459.84 Q1633.41 1457.18 1631.52 1455.77 Q1629.64 1454.33 1626.12 1454.33 Q1624.2 1454.33 1622 1454.75 Q1619.8 1455.16 1617.16 1456.04 L1617.16 1451.88 Q1619.83 1451.14 1622.14 1450.77 Q1624.48 1450.39 1626.54 1450.39 Q1631.86 1450.39 1634.96 1452.83 Q1638.07 1455.23 1638.07 1459.35 Q1638.07 1462.22 1636.42 1464.21 Q1634.78 1466.18 1631.75 1466.95 Z" fill="#000000" fill-rule="nonzero" fill-opacity="1" /><path clip-path="url(#clip950)" d="M1657.74 1454.1 Q1654.13 1454.1 1652.3 1457.66 Q1650.5 1461.2 1650.5 1468.33 Q1650.5 1475.44 1652.3 1479.01 Q1654.13 1482.55 1657.74 1482.55 Q1661.38 1482.55 1663.18 1479.01 Q1665.01 1475.44 1665.01 1468.33 Q1665.01 1461.2 1663.18 1457.66 Q1661.38 1454.1 1657.74 1454.1 M1657.74 1450.39 Q1663.55 1450.39 1666.61 1455 Q1669.69 1459.58 1669.69 1468.33 Q1669.69 1477.06 1666.61 1481.67 Q1663.55 1486.25 1657.74 1486.25 Q1651.93 1486.25 1648.85 1481.67 Q1645.8 1477.06 1645.8 1468.33 Q1645.8 1459.58 1648.85 1455 Q1651.93 1450.39 1657.74 1450.39 Z" fill="#000000" fill-rule="nonzero" fill-opacity="1" /><path clip-path="url(#clip950)" d="M1687.9 1454.1 Q1684.29 1454.1 1682.46 1457.66 Q1680.66 1461.2 1680.66 1468.33 Q1680.66 1475.44 1682.46 1479.01 Q1684.29 1482.55 1687.9 1482.55 Q1691.54 1482.55 1693.34 1479.01 Q1695.17 1475.44 1695.17 1468.33 Q1695.17 1461.2 1693.34 1457.66 Q1691.54 1454.1 1687.9 1454.1 M1687.9 1450.39 Q1693.71 1450.39 1696.77 1455 Q1699.85 1459.58 1699.85 1468.33 Q1699.85 1477.06 1696.77 1481.67 Q1693.71 1486.25 1687.9 1486.25 Q1682.09 1486.25 1679.02 1481.67 Q1675.96 1477.06 1675.96 1468.33 Q1675.96 1459.58 1679.02 1455 Q1682.09 1450.39 1687.9 1450.39 Z" fill="#000000" fill-rule="nonzero" fill-opacity="1" /><path clip-path="url(#clip950)" d="M1994.78 1454.1 Q1991.17 1454.1 1989.34 1457.66 Q1987.54 1461.2 1987.54 1468.33 Q1987.54 1475.44 1989.34 1479.01 Q1991.17 1482.55 1994.78 1482.55 Q1998.42 1482.55 2000.22 1479.01 Q2002.05 1475.44 2002.05 1468.33 Q2002.05 1461.2 2000.22 1457.66 Q1998.42 1454.1 1994.78 1454.1 M1994.78 1450.39 Q2000.59 1450.39 2003.65 1455 Q2006.73 1459.58 2006.73 1468.33 Q2006.73 1477.06 2003.65 1481.67 Q2000.59 1486.25 1994.78 1486.25 Q1988.97 1486.25 1985.89 1481.67 Q1982.84 1477.06 1982.84 1468.33 Q1982.84 1459.58 1985.89 1455 Q1988.97 1450.39 1994.78 1450.39 Z" fill="#000000" fill-rule="nonzero" fill-opacity="1" /><path clip-path="url(#clip950)" d="M2014.94 1479.7 L2019.83 1479.7 L2019.83 1485.58 L2014.94 1485.58 L2014.94 1479.7 Z" fill="#000000" fill-rule="nonzero" fill-opacity="1" /><path clip-path="url(#clip950)" d="M2044.18 1466.95 Q2047.54 1467.66 2049.41 1469.93 Q2051.31 1472.2 2051.31 1475.53 Q2051.31 1480.65 2047.79 1483.45 Q2044.27 1486.25 2037.79 1486.25 Q2035.61 1486.25 2033.3 1485.81 Q2031.01 1485.39 2028.55 1484.54 L2028.55 1480.02 Q2030.5 1481.16 2032.81 1481.74 Q2035.13 1482.32 2037.65 1482.32 Q2042.05 1482.32 2044.34 1480.58 Q2046.66 1478.84 2046.66 1475.53 Q2046.66 1472.48 2044.5 1470.77 Q2042.37 1469.03 2038.55 1469.03 L2034.53 1469.03 L2034.53 1465.19 L2038.74 1465.19 Q2042.19 1465.19 2044.02 1463.82 Q2045.85 1462.43 2045.85 1459.84 Q2045.85 1457.18 2043.95 1455.77 Q2042.07 1454.33 2038.55 1454.33 Q2036.63 1454.33 2034.43 1454.75 Q2032.23 1455.16 2029.6 1456.04 L2029.6 1451.88 Q2032.26 1451.14 2034.57 1450.77 Q2036.91 1450.39 2038.97 1450.39 Q2044.29 1450.39 2047.4 1452.83 Q2050.5 1455.23 2050.5 1459.35 Q2050.5 1462.22 2048.85 1464.21 Q2047.21 1466.18 2044.18 1466.95 Z" fill="#000000" fill-rule="nonzero" fill-opacity="1" /><path clip-path="url(#clip950)" d="M2064.2 1481.64 L2080.52 1481.64 L2080.52 1485.58 L2058.58 1485.58 L2058.58 1481.64 Q2061.24 1478.89 2065.82 1474.26 Q2070.43 1469.61 2071.61 1468.27 Q2073.85 1465.74 2074.73 1464.01 Q2075.64 1462.25 2075.64 1460.56 Q2075.64 1457.8 2073.69 1456.07 Q2071.77 1454.33 2068.67 1454.33 Q2066.47 1454.33 2064.02 1455.09 Q2061.59 1455.86 2058.81 1457.41 L2058.81 1452.69 Q2061.63 1451.55 2064.09 1450.97 Q2066.54 1450.39 2068.58 1450.39 Q2073.95 1450.39 2077.14 1453.08 Q2080.34 1455.77 2080.34 1460.26 Q2080.34 1462.39 2079.53 1464.31 Q2078.74 1466.2 2076.63 1468.8 Q2076.05 1469.47 2072.95 1472.69 Q2069.85 1475.88 2064.2 1481.64 Z" fill="#000000" fill-rule="nonzero" fill-opacity="1" /><path clip-path="url(#clip950)" d="M2090.38 1451.02 L2108.74 1451.02 L2108.74 1454.96 L2094.66 1454.96 L2094.66 1463.43 Q2095.68 1463.08 2096.7 1462.92 Q2097.72 1462.73 2098.74 1462.73 Q2104.53 1462.73 2107.91 1465.9 Q2111.29 1469.08 2111.29 1474.49 Q2111.29 1480.07 2107.81 1483.17 Q2104.34 1486.25 2098.02 1486.25 Q2095.85 1486.25 2093.58 1485.88 Q2091.33 1485.51 2088.92 1484.77 L2088.92 1480.07 Q2091.01 1481.2 2093.23 1481.76 Q2095.45 1482.32 2097.93 1482.32 Q2101.93 1482.32 2104.27 1480.21 Q2106.61 1478.1 2106.61 1474.49 Q2106.61 1470.88 2104.27 1468.77 Q2101.93 1466.67 2097.93 1466.67 Q2096.05 1466.67 2094.18 1467.08 Q2092.33 1467.5 2090.38 1468.38 L2090.38 1451.02 Z" fill="#000000" fill-rule="nonzero" fill-opacity="1" /><path clip-path="url(#clip950)" d="M1305.74 1550.25 Q1305.74 1543.79 1303.07 1540.13 Q1300.43 1536.44 1295.78 1536.44 Q1291.13 1536.44 1288.46 1540.13 Q1285.82 1543.79 1285.82 1550.25 Q1285.82 1556.71 1288.46 1560.4 Q1291.13 1564.07 1295.78 1564.07 Q1300.43 1564.07 1303.07 1560.4 Q1305.74 1556.71 1305.74 1550.25 M1285.82 1537.81 Q1287.66 1534.62 1290.46 1533.1 Q1293.3 1531.54 1297.21 1531.54 Q1303.71 1531.54 1307.75 1536.69 Q1311.82 1541.85 1311.82 1550.25 Q1311.82 1558.65 1307.75 1563.81 Q1303.71 1568.97 1297.21 1568.97 Q1293.3 1568.97 1290.46 1567.44 Q1287.66 1565.88 1285.82 1562.7 L1285.82 1568.04 L1279.93 1568.04 L1279.93 1518.52 L1285.82 1518.52 L1285.82 1537.81 Z" fill="#000000" fill-rule="nonzero" fill-opacity="1" /><path clip-path="url(#clip950)" d="M1336.11 1524.76 Q1331.14 1524.76 1328.63 1529.66 Q1326.14 1534.53 1326.14 1544.33 Q1326.14 1554.1 1328.63 1559 Q1331.14 1563.87 1336.11 1563.87 Q1341.1 1563.87 1343.59 1559 Q1346.1 1554.1 1346.1 1544.33 Q1346.1 1534.53 1343.59 1529.66 Q1341.1 1524.76 1336.11 1524.76 M1336.11 1519.66 Q1344.1 1519.66 1348.3 1526 Q1352.53 1532.3 1352.53 1544.33 Q1352.53 1556.33 1348.3 1562.66 Q1344.1 1568.97 1336.11 1568.97 Q1328.12 1568.97 1323.88 1562.66 Q1319.68 1556.33 1319.68 1544.33 Q1319.68 1532.3 1323.88 1526 Q1328.12 1519.66 1336.11 1519.66 Z" fill="#000000" fill-rule="nonzero" fill-opacity="1" /><polyline clip-path="url(#clip952)" style="stroke:#000000; stroke-linecap:round; stroke-linejoin:round; stroke-width:2; stroke-opacity:0.1; fill:none" points="279.704,1163.96 2352.76,1163.96 "/>
<polyline clip-path="url(#clip952)" style="stroke:#000000; stroke-linecap:round; stroke-linejoin:round; stroke-width:2; stroke-opacity:0.1; fill:none" points="279.704,887.178 2352.76,887.178 "/>
<polyline clip-path="url(#clip952)" style="stroke:#000000; stroke-linecap:round; stroke-linejoin:round; stroke-width:2; stroke-opacity:0.1; fill:none" points="279.704,610.39 2352.76,610.39 "/>
<polyline clip-path="url(#clip952)" style="stroke:#000000; stroke-linecap:round; stroke-linejoin:round; stroke-width:2; stroke-opacity:0.1; fill:none" points="279.704,333.603 2352.76,333.603 "/>
<polyline clip-path="url(#clip952)" style="stroke:#000000; stroke-linecap:round; stroke-linejoin:round; stroke-width:2; stroke-opacity:0.1; fill:none" points="279.704,56.8159 2352.76,56.8159 "/>
<polyline clip-path="url(#clip950)" style="stroke:#000000; stroke-linecap:round; stroke-linejoin:round; stroke-width:4; stroke-opacity:1; fill:none" points="279.704,1423.18 279.704,47.2441 "/>
<polyline clip-path="url(#clip950)" style="stroke:#000000; stroke-linecap:round; stroke-linejoin:round; stroke-width:4; stroke-opacity:1; fill:none" points="279.704,1163.96 298.602,1163.96 "/>
<polyline clip-path="url(#clip950)" style="stroke:#000000; stroke-linecap:round; stroke-linejoin:round; stroke-width:4; stroke-opacity:1; fill:none" points="279.704,887.178 298.602,887.178 "/>
<polyline clip-path="url(#clip950)" style="stroke:#000000; stroke-linecap:round; stroke-linejoin:round; stroke-width:4; stroke-opacity:1; fill:none" points="279.704,610.39 298.602,610.39 "/>
<polyline clip-path="url(#clip950)" style="stroke:#000000; stroke-linecap:round; stroke-linejoin:round; stroke-width:4; stroke-opacity:1; fill:none" points="279.704,333.603 298.602,333.603 "/>
<polyline clip-path="url(#clip950)" style="stroke:#000000; stroke-linecap:round; stroke-linejoin:round; stroke-width:4; stroke-opacity:1; fill:none" points="279.704,56.8159 298.602,56.8159 "/>
<path clip-path="url(#clip950)" d="M127.2 1149.76 Q123.589 1149.76 121.76 1153.33 Q119.955 1156.87 119.955 1164 Q119.955 1171.11 121.76 1174.67 Q123.589 1178.21 127.2 1178.21 Q130.834 1178.21 132.64 1174.67 Q134.468 1171.11 134.468 1164 Q134.468 1156.87 132.64 1153.33 Q130.834 1149.76 127.2 1149.76 M127.2 1146.06 Q133.01 1146.06 136.066 1150.67 Q139.144 1155.25 139.144 1164 Q139.144 1172.73 136.066 1177.33 Q133.01 1181.92 127.2 1181.92 Q121.39 1181.92 118.311 1177.33 Q115.256 1172.73 115.256 1164 Q115.256 1155.25 118.311 1150.67 Q121.39 1146.06 127.2 1146.06 Z" fill="#000000" fill-rule="nonzero" fill-opacity="1" /><path clip-path="url(#clip950)" d="M147.362 1175.37 L152.246 1175.37 L152.246 1181.24 L147.362 1181.24 L147.362 1175.37 Z" fill="#000000" fill-rule="nonzero" fill-opacity="1" /><path clip-path="url(#clip950)" d="M173.01 1162.1 Q169.862 1162.1 168.01 1164.25 Q166.181 1166.41 166.181 1170.16 Q166.181 1173.88 168.01 1176.06 Q169.862 1178.21 173.01 1178.21 Q176.158 1178.21 177.987 1176.06 Q179.839 1173.88 179.839 1170.16 Q179.839 1166.41 177.987 1164.25 Q176.158 1162.1 173.01 1162.1 M182.292 1147.45 L182.292 1151.71 Q180.533 1150.87 178.727 1150.43 Q176.945 1149.99 175.186 1149.99 Q170.556 1149.99 168.102 1153.12 Q165.672 1156.24 165.325 1162.56 Q166.69 1160.55 168.751 1159.49 Q170.811 1158.4 173.288 1158.4 Q178.496 1158.4 181.505 1161.57 Q184.538 1164.72 184.538 1170.16 Q184.538 1175.48 181.389 1178.7 Q178.241 1181.92 173.01 1181.92 Q167.015 1181.92 163.843 1177.33 Q160.672 1172.73 160.672 1164 Q160.672 1155.81 164.561 1150.94 Q168.45 1146.06 175.001 1146.06 Q176.76 1146.06 178.542 1146.41 Q180.348 1146.75 182.292 1147.45 Z" fill="#000000" fill-rule="nonzero" fill-opacity="1" /><path clip-path="url(#clip950)" d="M191.413 1146.68 L213.635 1146.68 L213.635 1148.68 L201.088 1181.24 L196.204 1181.24 L208.01 1150.62 L191.413 1150.62 L191.413 1146.68 Z" fill="#000000" fill-rule="nonzero" fill-opacity="1" /><path clip-path="url(#clip950)" d="M222.801 1146.68 L241.158 1146.68 L241.158 1150.62 L227.084 1150.62 L227.084 1159.09 Q228.102 1158.74 229.121 1158.58 Q230.139 1158.4 231.158 1158.4 Q236.945 1158.4 240.324 1161.57 Q243.704 1164.74 243.704 1170.16 Q243.704 1175.74 240.232 1178.84 Q236.76 1181.92 230.44 1181.92 Q228.264 1181.92 225.996 1181.55 Q223.75 1181.18 221.343 1180.43 L221.343 1175.74 Q223.426 1176.87 225.648 1177.43 Q227.871 1177.98 230.347 1177.98 Q234.352 1177.98 236.69 1175.87 Q239.028 1173.77 239.028 1170.16 Q239.028 1166.55 236.69 1164.44 Q234.352 1162.33 230.347 1162.33 Q228.473 1162.33 226.598 1162.75 Q224.746 1163.17 222.801 1164.05 L222.801 1146.68 Z" fill="#000000" fill-rule="nonzero" fill-opacity="1" /><path clip-path="url(#clip950)" d="M126.205 872.976 Q122.593 872.976 120.765 876.541 Q118.959 880.083 118.959 887.212 Q118.959 894.319 120.765 897.883 Q122.593 901.425 126.205 901.425 Q129.839 901.425 131.644 897.883 Q133.473 894.319 133.473 887.212 Q133.473 880.083 131.644 876.541 Q129.839 872.976 126.205 872.976 M126.205 869.273 Q132.015 869.273 135.07 873.879 Q138.149 878.462 138.149 887.212 Q138.149 895.939 135.07 900.545 Q132.015 905.129 126.205 905.129 Q120.394 905.129 117.316 900.545 Q114.26 895.939 114.26 887.212 Q114.26 878.462 117.316 873.879 Q120.394 869.273 126.205 869.273 Z" fill="#000000" fill-rule="nonzero" fill-opacity="1" /><path clip-path="url(#clip950)" d="M146.366 898.578 L151.251 898.578 L151.251 904.458 L146.366 904.458 L146.366 898.578 Z" fill="#000000" fill-rule="nonzero" fill-opacity="1" /><path clip-path="url(#clip950)" d="M160.255 869.898 L182.477 869.898 L182.477 871.888 L169.931 904.458 L165.047 904.458 L176.852 873.833 L160.255 873.833 L160.255 869.898 Z" fill="#000000" fill-rule="nonzero" fill-opacity="1" /><path clip-path="url(#clip950)" d="M201.598 872.976 Q197.987 872.976 196.158 876.541 Q194.352 880.083 194.352 887.212 Q194.352 894.319 196.158 897.883 Q197.987 901.425 201.598 901.425 Q205.232 901.425 207.037 897.883 Q208.866 894.319 208.866 887.212 Q208.866 880.083 207.037 876.541 Q205.232 872.976 201.598 872.976 M201.598 869.273 Q207.408 869.273 210.463 873.879 Q213.542 878.462 213.542 887.212 Q213.542 895.939 210.463 900.545 Q207.408 905.129 201.598 905.129 Q195.787 905.129 192.709 900.545 Q189.653 895.939 189.653 887.212 Q189.653 878.462 192.709 873.879 Q195.787 869.273 201.598 869.273 Z" fill="#000000" fill-rule="nonzero" fill-opacity="1" /><path clip-path="url(#clip950)" d="M231.76 872.976 Q228.148 872.976 226.32 876.541 Q224.514 880.083 224.514 887.212 Q224.514 894.319 226.32 897.883 Q228.148 901.425 231.76 901.425 Q235.394 901.425 237.199 897.883 Q239.028 894.319 239.028 887.212 Q239.028 880.083 237.199 876.541 Q235.394 872.976 231.76 872.976 M231.76 869.273 Q237.57 869.273 240.625 873.879 Q243.704 878.462 243.704 887.212 Q243.704 895.939 240.625 900.545 Q237.57 905.129 231.76 905.129 Q225.949 905.129 222.871 900.545 Q219.815 895.939 219.815 887.212 Q219.815 878.462 222.871 873.879 Q225.949 869.273 231.76 869.273 Z" fill="#000000" fill-rule="nonzero" fill-opacity="1" /><path clip-path="url(#clip950)" d="M127.2 596.189 Q123.589 596.189 121.76 599.754 Q119.955 603.295 119.955 610.425 Q119.955 617.531 121.76 621.096 Q123.589 624.638 127.2 624.638 Q130.834 624.638 132.64 621.096 Q134.468 617.531 134.468 610.425 Q134.468 603.295 132.64 599.754 Q130.834 596.189 127.2 596.189 M127.2 592.485 Q133.01 592.485 136.066 597.092 Q139.144 601.675 139.144 610.425 Q139.144 619.152 136.066 623.758 Q133.01 628.342 127.2 628.342 Q121.39 628.342 118.311 623.758 Q115.256 619.152 115.256 610.425 Q115.256 601.675 118.311 597.092 Q121.39 592.485 127.2 592.485 Z" fill="#000000" fill-rule="nonzero" fill-opacity="1" /><path clip-path="url(#clip950)" d="M147.362 621.791 L152.246 621.791 L152.246 627.67 L147.362 627.67 L147.362 621.791 Z" fill="#000000" fill-rule="nonzero" fill-opacity="1" /><path clip-path="url(#clip950)" d="M161.251 593.11 L183.473 593.11 L183.473 595.101 L170.927 627.67 L166.042 627.67 L177.848 597.045 L161.251 597.045 L161.251 593.11 Z" fill="#000000" fill-rule="nonzero" fill-opacity="1" /><path clip-path="url(#clip950)" d="M196.621 623.735 L212.94 623.735 L212.94 627.67 L190.996 627.67 L190.996 623.735 Q193.658 620.981 198.241 616.351 Q202.848 611.698 204.028 610.356 Q206.274 607.832 207.153 606.096 Q208.056 604.337 208.056 602.647 Q208.056 599.893 206.112 598.157 Q204.19 596.42 201.088 596.42 Q198.889 596.42 196.436 597.184 Q194.005 597.948 191.227 599.499 L191.227 594.777 Q194.051 593.643 196.505 593.064 Q198.959 592.485 200.996 592.485 Q206.366 592.485 209.561 595.17 Q212.755 597.856 212.755 602.346 Q212.755 604.476 211.945 606.397 Q211.158 608.295 209.051 610.888 Q208.473 611.559 205.371 614.777 Q202.269 617.971 196.621 623.735 Z" fill="#000000" fill-rule="nonzero" fill-opacity="1" /><path clip-path="url(#clip950)" d="M222.801 593.11 L241.158 593.11 L241.158 597.045 L227.084 597.045 L227.084 605.518 Q228.102 605.17 229.121 605.008 Q230.139 604.823 231.158 604.823 Q236.945 604.823 240.324 607.994 Q243.704 611.166 243.704 616.582 Q243.704 622.161 240.232 625.263 Q236.76 628.342 230.44 628.342 Q228.264 628.342 225.996 627.971 Q223.75 627.601 221.343 626.86 L221.343 622.161 Q223.426 623.295 225.648 623.851 Q227.871 624.406 230.347 624.406 Q234.352 624.406 236.69 622.3 Q239.028 620.194 239.028 616.582 Q239.028 612.971 236.69 610.865 Q234.352 608.758 230.347 608.758 Q228.473 608.758 226.598 609.175 Q224.746 609.592 222.801 610.471 L222.801 593.11 Z" fill="#000000" fill-rule="nonzero" fill-opacity="1" /><path clip-path="url(#clip950)" d="M126.205 319.402 Q122.593 319.402 120.765 322.967 Q118.959 326.508 118.959 333.638 Q118.959 340.744 120.765 344.309 Q122.593 347.851 126.205 347.851 Q129.839 347.851 131.644 344.309 Q133.473 340.744 133.473 333.638 Q133.473 326.508 131.644 322.967 Q129.839 319.402 126.205 319.402 M126.205 315.698 Q132.015 315.698 135.07 320.305 Q138.149 324.888 138.149 333.638 Q138.149 342.365 135.07 346.971 Q132.015 351.554 126.205 351.554 Q120.394 351.554 117.316 346.971 Q114.26 342.365 114.26 333.638 Q114.26 324.888 117.316 320.305 Q120.394 315.698 126.205 315.698 Z" fill="#000000" fill-rule="nonzero" fill-opacity="1" /><path clip-path="url(#clip950)" d="M146.366 345.004 L151.251 345.004 L151.251 350.883 L146.366 350.883 L146.366 345.004 Z" fill="#000000" fill-rule="nonzero" fill-opacity="1" /><path clip-path="url(#clip950)" d="M160.255 316.323 L182.477 316.323 L182.477 318.314 L169.931 350.883 L165.047 350.883 L176.852 320.258 L160.255 320.258 L160.255 316.323 Z" fill="#000000" fill-rule="nonzero" fill-opacity="1" /><path clip-path="url(#clip950)" d="M191.644 316.323 L210 316.323 L210 320.258 L195.926 320.258 L195.926 328.73 Q196.945 328.383 197.963 328.221 Q198.982 328.036 200 328.036 Q205.787 328.036 209.167 331.207 Q212.547 334.379 212.547 339.795 Q212.547 345.374 209.074 348.476 Q205.602 351.554 199.283 351.554 Q197.107 351.554 194.838 351.184 Q192.593 350.814 190.186 350.073 L190.186 345.374 Q192.269 346.508 194.491 347.064 Q196.713 347.619 199.19 347.619 Q203.195 347.619 205.533 345.513 Q207.871 343.406 207.871 339.795 Q207.871 336.184 205.533 334.078 Q203.195 331.971 199.19 331.971 Q197.315 331.971 195.44 332.388 Q193.588 332.805 191.644 333.684 L191.644 316.323 Z" fill="#000000" fill-rule="nonzero" fill-opacity="1" /><path clip-path="url(#clip950)" d="M231.76 319.402 Q228.148 319.402 226.32 322.967 Q224.514 326.508 224.514 333.638 Q224.514 340.744 226.32 344.309 Q228.148 347.851 231.76 347.851 Q235.394 347.851 237.199 344.309 Q239.028 340.744 239.028 333.638 Q239.028 326.508 237.199 322.967 Q235.394 319.402 231.76 319.402 M231.76 315.698 Q237.57 315.698 240.625 320.305 Q243.704 324.888 243.704 333.638 Q243.704 342.365 240.625 346.971 Q237.57 351.554 231.76 351.554 Q225.949 351.554 222.871 346.971 Q219.815 342.365 219.815 333.638 Q219.815 324.888 222.871 320.305 Q225.949 315.698 231.76 315.698 Z" fill="#000000" fill-rule="nonzero" fill-opacity="1" /><path clip-path="url(#clip950)" d="M127.2 42.6146 Q123.589 42.6146 121.76 46.1794 Q119.955 49.7211 119.955 56.8506 Q119.955 63.9571 121.76 67.5219 Q123.589 71.0635 127.2 71.0635 Q130.834 71.0635 132.64 67.5219 Q134.468 63.9571 134.468 56.8506 Q134.468 49.7211 132.64 46.1794 Q130.834 42.6146 127.2 42.6146 M127.2 38.9109 Q133.01 38.9109 136.066 43.5174 Q139.144 48.1007 139.144 56.8506 Q139.144 65.5775 136.066 70.1839 Q133.01 74.7672 127.2 74.7672 Q121.39 74.7672 118.311 70.1839 Q115.256 65.5775 115.256 56.8506 Q115.256 48.1007 118.311 43.5174 Q121.39 38.9109 127.2 38.9109 Z" fill="#000000" fill-rule="nonzero" fill-opacity="1" /><path clip-path="url(#clip950)" d="M147.362 68.2163 L152.246 68.2163 L152.246 74.0959 L147.362 74.0959 L147.362 68.2163 Z" fill="#000000" fill-rule="nonzero" fill-opacity="1" /><path clip-path="url(#clip950)" d="M161.251 39.5359 L183.473 39.5359 L183.473 41.5267 L170.927 74.0959 L166.042 74.0959 L177.848 43.4711 L161.251 43.4711 L161.251 39.5359 Z" fill="#000000" fill-rule="nonzero" fill-opacity="1" /><path clip-path="url(#clip950)" d="M191.413 39.5359 L213.635 39.5359 L213.635 41.5267 L201.088 74.0959 L196.204 74.0959 L208.01 43.4711 L191.413 43.4711 L191.413 39.5359 Z" fill="#000000" fill-rule="nonzero" fill-opacity="1" /><path clip-path="url(#clip950)" d="M222.801 39.5359 L241.158 39.5359 L241.158 43.4711 L227.084 43.4711 L227.084 51.9433 Q228.102 51.596 229.121 51.434 Q230.139 51.2488 231.158 51.2488 Q236.945 51.2488 240.324 54.4201 Q243.704 57.5914 243.704 63.008 Q243.704 68.5867 240.232 71.6885 Q236.76 74.7672 230.44 74.7672 Q228.264 74.7672 225.996 74.3969 Q223.75 74.0265 221.343 73.2857 L221.343 68.5867 Q223.426 69.7209 225.648 70.2765 Q227.871 70.8321 230.347 70.8321 Q234.352 70.8321 236.69 68.7256 Q239.028 66.6191 239.028 63.008 Q239.028 59.3969 236.69 57.2905 Q234.352 55.184 230.347 55.184 Q228.473 55.184 226.598 55.6007 Q224.746 56.0173 222.801 56.8969 L222.801 39.5359 Z" fill="#000000" fill-rule="nonzero" fill-opacity="1" /><path clip-path="url(#clip950)" d="M35.1993 774.218 Q31.2526 772.022 29.3747 768.966 Q27.4968 765.911 27.4968 761.773 Q27.4968 756.203 31.4117 753.179 Q35.2948 750.155 42.4881 750.155 L64.0042 750.155 L64.0042 756.044 L42.679 756.044 Q37.5546 756.044 35.072 757.858 Q32.5894 759.672 32.5894 763.396 Q32.5894 767.948 35.6131 770.589 Q38.6368 773.231 43.8567 773.231 L64.0042 773.231 L64.0042 779.119 L42.679 779.119 Q37.5228 779.119 35.072 780.934 Q32.5894 782.748 32.5894 786.535 Q32.5894 791.023 35.6449 793.665 Q38.6686 796.307 43.8567 796.307 L64.0042 796.307 L64.0042 802.195 L28.3562 802.195 L28.3562 796.307 L33.8944 796.307 Q30.616 794.302 29.0564 791.501 Q27.4968 788.7 27.4968 784.849 Q27.4968 780.965 29.4702 778.26 Q31.4436 775.523 35.1993 774.218 Z" fill="#000000" fill-rule="nonzero" fill-opacity="1" /><path clip-path="url(#clip950)" d="M46.0847 722.274 Q46.0847 729.371 47.7079 732.109 Q49.3312 734.846 53.2461 734.846 Q56.3653 734.846 58.2114 732.809 Q60.0256 730.74 60.0256 727.207 Q60.0256 722.337 56.5881 719.409 Q53.1188 716.449 47.3897 716.449 L46.0847 716.449 L46.0847 722.274 M43.6657 710.593 L64.0042 710.593 L64.0042 716.449 L58.5933 716.449 Q61.8398 718.454 63.3994 721.446 Q64.9272 724.438 64.9272 728.767 Q64.9272 734.241 61.8716 737.488 Q58.7843 740.702 53.6281 740.702 Q47.6125 740.702 44.5569 736.692 Q41.5014 732.65 41.5014 724.661 L41.5014 716.449 L40.9285 716.449 Q36.8862 716.449 34.6901 719.123 Q32.4621 721.764 32.4621 726.571 Q32.4621 729.626 33.1941 732.522 Q33.9262 735.419 35.3903 738.092 L29.9795 738.092 Q28.7381 734.878 28.1334 731.854 Q27.4968 728.83 27.4968 725.966 Q27.4968 718.231 31.5072 714.412 Q35.5176 710.593 43.6657 710.593 Z" fill="#000000" fill-rule="nonzero" fill-opacity="1" /><path clip-path="url(#clip950)" d="M28.3562 668.897 L45.7028 681.788 L64.0042 668.229 L64.0042 675.136 L49.9996 685.512 L64.0042 695.888 L64.0042 702.795 L45.3526 688.949 L28.3562 701.617 L28.3562 694.71 L41.0558 685.257 L28.3562 675.804 L28.3562 668.897 Z" fill="#000000" fill-rule="nonzero" fill-opacity="1" /><polyline clip-path="url(#clip952)" style="stroke:#009af9; stroke-linecap:round; stroke-linejoin:round; stroke-width:8; stroke-opacity:1; fill:none" points="811.258,96.571 832.439,98.5975 "/>
<polyline clip-path="url(#clip952)" style="stroke:#009af9; stroke-linecap:round; stroke-linejoin:round; stroke-width:8; stroke-opacity:1; fill:none" points="832.439,98.5975 863.044,103.938 "/>
<polyline clip-path="url(#clip952)" style="stroke:#009af9; stroke-linecap:round; stroke-linejoin:round; stroke-width:8; stroke-opacity:1; fill:none" points="863.044,103.938 907.484,110.775 "/>
<polyline clip-path="url(#clip952)" style="stroke:#009af9; stroke-linecap:round; stroke-linejoin:round; stroke-width:8; stroke-opacity:1; fill:none" points="907.484,110.775 970.722,123.836 "/>
<polyline clip-path="url(#clip952)" style="stroke:#009af9; stroke-linecap:round; stroke-linejoin:round; stroke-width:8; stroke-opacity:1; fill:none" points="970.722,123.836 1061.19,147.107 "/>
<polyline clip-path="url(#clip952)" style="stroke:#009af9; stroke-linecap:round; stroke-linejoin:round; stroke-width:8; stroke-opacity:1; fill:none" points="1061.19,147.107 1181.21,184.882 "/>
<polyline clip-path="url(#clip952)" style="stroke:#009af9; stroke-linecap:round; stroke-linejoin:round; stroke-width:8; stroke-opacity:1; fill:none" points="1181.21,184.882 1304.56,233.387 "/>
<polyline clip-path="url(#clip952)" style="stroke:#009af9; stroke-linecap:round; stroke-linejoin:round; stroke-width:8; stroke-opacity:1; fill:none" points="1304.56,233.387 1430.01,292.51 "/>
<polyline clip-path="url(#clip952)" style="stroke:#009af9; stroke-linecap:round; stroke-linejoin:round; stroke-width:8; stroke-opacity:1; fill:none" points="1430.01,292.51 1556.42,362.103 "/>
<polyline clip-path="url(#clip952)" style="stroke:#009af9; stroke-linecap:round; stroke-linejoin:round; stroke-width:8; stroke-opacity:1; fill:none" points="1556.42,362.103 1682.47,442.703 "/>
<polyline clip-path="url(#clip952)" style="stroke:#009af9; stroke-linecap:round; stroke-linejoin:round; stroke-width:8; stroke-opacity:1; fill:none" points="1682.47,442.703 1806.58,534.085 "/>
<polyline clip-path="url(#clip952)" style="stroke:#009af9; stroke-linecap:round; stroke-linejoin:round; stroke-width:8; stroke-opacity:1; fill:none" points="1806.58,534.085 1926.67,636.771 "/>
<polyline clip-path="url(#clip952)" style="stroke:#009af9; stroke-linecap:round; stroke-linejoin:round; stroke-width:8; stroke-opacity:1; fill:none" points="1926.67,636.771 2039.89,751.166 "/>
<polyline clip-path="url(#clip952)" style="stroke:#009af9; stroke-linecap:round; stroke-linejoin:round; stroke-width:8; stroke-opacity:1; fill:none" points="2039.89,751.166 2142.04,873.64 "/>
<polyline clip-path="url(#clip952)" style="stroke:#009af9; stroke-linecap:round; stroke-linejoin:round; stroke-width:8; stroke-opacity:1; fill:none" points="2142.04,873.64 2226.48,1005.16 "/>
<polyline clip-path="url(#clip952)" style="stroke:#009af9; stroke-linecap:round; stroke-linejoin:round; stroke-width:8; stroke-opacity:1; fill:none" points="2226.48,1005.16 2282.03,1141.84 "/>
<polyline clip-path="url(#clip952)" style="stroke:#009af9; stroke-linecap:round; stroke-linejoin:round; stroke-width:8; stroke-opacity:1; fill:none" points="2282.03,1141.84 2294.08,1226.28 "/>
<polyline clip-path="url(#clip952)" style="stroke:#009af9; stroke-linecap:round; stroke-linejoin:round; stroke-width:4; stroke-opacity:1; fill:none" points="2294.08,1226.28 2260.2,1334.72 "/>
<polyline clip-path="url(#clip952)" style="stroke:#009af9; stroke-linecap:round; stroke-linejoin:round; stroke-width:4; stroke-opacity:1; fill:none" points="2260.2,1334.72 2152.8,1384.24 "/>
<polyline clip-path="url(#clip952)" style="stroke:#009af9; stroke-linecap:round; stroke-linejoin:round; stroke-width:4; stroke-opacity:1; fill:none" points="2152.8,1384.24 2002.97,1365.44 "/>
<polyline clip-path="url(#clip952)" style="stroke:#009af9; stroke-linecap:round; stroke-linejoin:round; stroke-width:4; stroke-opacity:1; fill:none" points="2002.97,1365.44 1839.45,1301.22 "/>
<polyline clip-path="url(#clip952)" style="stroke:#009af9; stroke-linecap:round; stroke-linejoin:round; stroke-width:4; stroke-opacity:1; fill:none" points="1839.45,1301.22 1671.09,1212.5 "/>
<polyline clip-path="url(#clip952)" style="stroke:#009af9; stroke-linecap:round; stroke-linejoin:round; stroke-width:4; stroke-opacity:1; fill:none" points="1671.09,1212.5 1501.25,1112.08 "/>
<polyline clip-path="url(#clip952)" style="stroke:#009af9; stroke-linecap:round; stroke-linejoin:round; stroke-width:4; stroke-opacity:1; fill:none" points="1501.25,1112.08 1332.05,1005.52 "/>
<polyline clip-path="url(#clip952)" style="stroke:#009af9; stroke-linecap:round; stroke-linejoin:round; stroke-width:4; stroke-opacity:1; fill:none" points="1332.05,1005.52 1165.42,896.247 "/>
<polyline clip-path="url(#clip952)" style="stroke:#009af9; stroke-linecap:round; stroke-linejoin:round; stroke-width:4; stroke-opacity:1; fill:none" points="1165.42,896.247 1003.69,789.867 "/>
<polyline clip-path="url(#clip952)" style="stroke:#009af9; stroke-linecap:round; stroke-linejoin:round; stroke-width:4; stroke-opacity:1; fill:none" points="1003.69,789.867 849.909,687.92 "/>
<polyline clip-path="url(#clip952)" style="stroke:#009af9; stroke-linecap:round; stroke-linejoin:round; stroke-width:4; stroke-opacity:1; fill:none" points="849.909,687.92 708.131,590.814 "/>
<polyline clip-path="url(#clip952)" style="stroke:#009af9; stroke-linecap:round; stroke-linejoin:round; stroke-width:4; stroke-opacity:1; fill:none" points="708.131,590.814 583.331,501.178 "/>
<polyline clip-path="url(#clip952)" style="stroke:#009af9; stroke-linecap:round; stroke-linejoin:round; stroke-width:4; stroke-opacity:1; fill:none" points="583.331,501.178 480.819,418.866 "/>
<polyline clip-path="url(#clip952)" style="stroke:#009af9; stroke-linecap:round; stroke-linejoin:round; stroke-width:4; stroke-opacity:1; fill:none" points="480.819,418.866 404.974,346.026 "/>
<polyline clip-path="url(#clip952)" style="stroke:#009af9; stroke-linecap:round; stroke-linejoin:round; stroke-width:4; stroke-opacity:1; fill:none" points="404.974,346.026 357.899,284.293 "/>
<polyline clip-path="url(#clip952)" style="stroke:#009af9; stroke-linecap:round; stroke-linejoin:round; stroke-width:4; stroke-opacity:1; fill:none" points="357.899,284.293 338.988,231.026 "/>
<polyline clip-path="url(#clip952)" style="stroke:#009af9; stroke-linecap:round; stroke-linejoin:round; stroke-width:4; stroke-opacity:1; fill:none" points="338.988,231.026 338.375,220.089 "/>
<polyline clip-path="url(#clip952)" style="stroke:#009af9; stroke-linecap:round; stroke-linejoin:round; stroke-width:8; stroke-opacity:1; fill:none" points="338.375,220.089 350.001,179.704 "/>
<polyline clip-path="url(#clip952)" style="stroke:#009af9; stroke-linecap:round; stroke-linejoin:round; stroke-width:8; stroke-opacity:1; fill:none" points="350.001,179.704 383.11,144.218 "/>
<polyline clip-path="url(#clip952)" style="stroke:#009af9; stroke-linecap:round; stroke-linejoin:round; stroke-width:8; stroke-opacity:1; fill:none" points="383.11,144.218 434.404,119.119 "/>
<polyline clip-path="url(#clip952)" style="stroke:#009af9; stroke-linecap:round; stroke-linejoin:round; stroke-width:8; stroke-opacity:1; fill:none" points="434.404,119.119 500.961,99.5456 "/>
<polyline clip-path="url(#clip952)" style="stroke:#009af9; stroke-linecap:round; stroke-linejoin:round; stroke-width:8; stroke-opacity:1; fill:none" points="500.961,99.5456 580.311,89.4612 "/>
<polyline clip-path="url(#clip952)" style="stroke:#009af9; stroke-linecap:round; stroke-linejoin:round; stroke-width:8; stroke-opacity:1; fill:none" points="580.311,89.4612 670.38,86.1857 "/>
<polyline clip-path="url(#clip952)" style="stroke:#009af9; stroke-linecap:round; stroke-linejoin:round; stroke-width:8; stroke-opacity:1; fill:none" points="670.38,86.1857 769.415,91.5581 "/>
<polyline clip-path="url(#clip952)" style="stroke:#009af9; stroke-linecap:round; stroke-linejoin:round; stroke-width:8; stroke-opacity:1; fill:none" points="769.415,91.5581 875.914,105.959 "/>
<polyline clip-path="url(#clip952)" style="stroke:#009af9; stroke-linecap:round; stroke-linejoin:round; stroke-width:8; stroke-opacity:1; fill:none" points="875.914,105.959 988.561,127.965 "/>
<polyline clip-path="url(#clip952)" style="stroke:#009af9; stroke-linecap:round; stroke-linejoin:round; stroke-width:8; stroke-opacity:1; fill:none" points="988.561,127.965 1106.17,160.527 "/>
<polyline clip-path="url(#clip952)" style="stroke:#009af9; stroke-linecap:round; stroke-linejoin:round; stroke-width:8; stroke-opacity:1; fill:none" points="1106.17,160.527 1227.63,202.654 "/>
<polyline clip-path="url(#clip952)" style="stroke:#009af9; stroke-linecap:round; stroke-linejoin:round; stroke-width:8; stroke-opacity:1; fill:none" points="1227.63,202.654 1351.86,254.131 "/>
<polyline clip-path="url(#clip952)" style="stroke:#009af9; stroke-linecap:round; stroke-linejoin:round; stroke-width:8; stroke-opacity:1; fill:none" points="1351.86,254.131 1477.75,316.669 "/>
<polyline clip-path="url(#clip952)" style="stroke:#009af9; stroke-linecap:round; stroke-linejoin:round; stroke-width:8; stroke-opacity:1; fill:none" points="1477.75,316.669 1604.09,390.301 "/>
<polyline clip-path="url(#clip952)" style="stroke:#009af9; stroke-linecap:round; stroke-linejoin:round; stroke-width:8; stroke-opacity:1; fill:none" points="1604.09,390.301 1729.46,475.159 "/>
<polyline clip-path="url(#clip952)" style="stroke:#009af9; stroke-linecap:round; stroke-linejoin:round; stroke-width:8; stroke-opacity:1; fill:none" points="1729.46,475.159 1852.11,571.5 "/>
<circle clip-path="url(#clip952)" cx="2294.08" cy="1226.28" r="10.8" fill="#0000ff" fill-rule="evenodd" fill-opacity="1" stroke="none"/>
<circle clip-path="url(#clip952)" cx="338.375" cy="220.089" r="10.8" fill="#0000ff" fill-rule="evenodd" fill-opacity="1" stroke="none"/>
<circle clip-path="url(#clip952)" cx="2294.08" cy="1226.28" r="10.8" fill="#0000ff" fill-rule="evenodd" fill-opacity="1" stroke="none"/>
<path clip-path="url(#clip950)" d="M2023.06 196.789 L2283.65 196.789 L2283.65 93.1086 L2023.06 93.1086  Z" fill="#ffffff" fill-rule="evenodd" fill-opacity="1"/>
<polyline clip-path="url(#clip950)" style="stroke:#000000; stroke-linecap:round; stroke-linejoin:round; stroke-width:4; stroke-opacity:1; fill:none" points="2023.06,196.789 2283.65,196.789 2283.65,93.1086 2023.06,93.1086 2023.06,196.789 "/>
<circle clip-path="url(#clip950)" cx="2115.2" cy="144.949" r="23.04" fill="#0000ff" fill-rule="evenodd" fill-opacity="1" stroke="none"/>
<path clip-path="url(#clip950)" d="M2226.11 149.289 Q2226.11 144.59 2224.16 141.928 Q2222.24 139.243 2218.86 139.243 Q2215.48 139.243 2213.54 141.928 Q2211.62 144.59 2211.62 149.289 Q2211.62 153.988 2213.54 156.673 Q2215.48 159.335 2218.86 159.335 Q2222.24 159.335 2224.16 156.673 Q2226.11 153.988 2226.11 149.289 M2211.62 140.238 Q2212.96 137.923 2215 136.812 Q2217.06 135.678 2219.9 135.678 Q2224.63 135.678 2227.56 139.428 Q2230.53 143.178 2230.53 149.289 Q2230.53 155.4 2227.56 159.15 Q2224.63 162.9 2219.9 162.9 Q2217.06 162.9 2215 161.789 Q2212.96 160.655 2211.62 158.34 L2211.62 162.229 L2207.33 162.229 L2207.33 126.21 L2211.62 126.21 L2211.62 140.238 Z" fill="#000000" fill-rule="nonzero" fill-opacity="1" /><path clip-path="url(#clip950)" d="M2241.71 158.34 L2241.71 172.09 L2237.43 172.09 L2237.43 136.303 L2241.71 136.303 L2241.71 140.238 Q2243.05 137.923 2245.09 136.812 Q2247.15 135.678 2250 135.678 Q2254.72 135.678 2257.66 139.428 Q2260.62 143.178 2260.62 149.289 Q2260.62 155.4 2257.66 159.15 Q2254.72 162.9 2250 162.9 Q2247.15 162.9 2245.09 161.789 Q2243.05 160.655 2241.71 158.34 M2256.2 149.289 Q2256.2 144.59 2254.25 141.928 Q2252.33 139.243 2248.95 139.243 Q2245.57 139.243 2243.63 141.928 Q2241.71 144.59 2241.71 149.289 Q2241.71 153.988 2243.63 156.673 Q2245.57 159.335 2248.95 159.335 Q2252.33 159.335 2254.25 156.673 Q2256.2 153.988 2256.2 149.289 Z" fill="#000000" fill-rule="nonzero" fill-opacity="1" /></svg>
