<?xml version="1.0" encoding="utf-8"?>
<svg xmlns="http://www.w3.org/2000/svg" xmlns:xlink="http://www.w3.org/1999/xlink" width="600" height="400" viewBox="0 0 2400 1600">
<defs>
  <clipPath id="clip710">
    <rect x="0" y="0" width="2400" height="1600"/>
  </clipPath>
</defs>
<path clip-path="url(#clip710)" d="M0 1600 L2400 1600 L2400 0 L0 0  Z" fill="#ffffff" fill-rule="evenodd" fill-opacity="1"/>
<defs>
  <clipPath id="clip711">
    <rect x="480" y="0" width="1681" height="1600"/>
  </clipPath>
</defs>
<path clip-path="url(#clip710)" d="M279.704 1423.18 L2352.76 1423.18 L2352.76 47.2441 L279.704 47.2441  Z" fill="#ffffff" fill-rule="evenodd" fill-opacity="1"/>
<defs>
  <clipPath id="clip712">
    <rect x="279" y="47" width="2074" height="1377"/>
  </clipPath>
</defs>
<polyline clip-path="url(#clip712)" style="stroke:#000000; stroke-linecap:round; stroke-linejoin:round; stroke-width:2; stroke-opacity:0.1; fill:none" points="400.135,1423.18 400.135,47.2441 "/>
<polyline clip-path="url(#clip712)" style="stroke:#000000; stroke-linecap:round; stroke-linejoin:round; stroke-width:2; stroke-opacity:0.1; fill:none" points="812.678,1423.18 812.678,47.2441 "/>
<polyline clip-path="url(#clip712)" style="stroke:#000000; stroke-linecap:round; stroke-linejoin:round; stroke-width:2; stroke-opacity:0.1; fill:none" points="1225.22,1423.18 1225.22,47.2441 "/>
<polyline clip-path="url(#clip712)" style="stroke:#000000; stroke-linecap:round; stroke-linejoin:round; stroke-width:2; stroke-opacity:0.1; fill:none" points="1637.77,1423.18 1637.77,47.2441 "/>
<polyline clip-path="url(#clip712)" style="stroke:#000000; stroke-linecap:round; stroke-linejoin:round; stroke-width:2; stroke-opacity:0.1; fill:none" points="2050.31,1423.18 2050.31,47.2441 "/>
<polyline clip-path="url(#clip710)" style="stroke:#000000; stroke-linecap:round; stroke-linejoin:round; stroke-width:4; stroke-opacity:1; fill:none" points="279.704,1423.18 2352.76,1423.18 "/>
<polyline clip-path="url(#clip710)" style="stroke:#000000; stroke-linecap:round; stroke-linejoin:round; stroke-width:4; stroke-opacity:1; fill:none" points="400.135,1423.18 400.135,1404.28 "/>
<polyline clip-path="url(#clip710)" style="stroke:#000000; stroke-linecap:round; stroke-linejoin:round; stroke-width:4; stroke-opacity:1; fill:none" points="812.678,1423.18 812.678,1404.28 "/>
<polyline clip-path="url(#clip710)" style="stroke:#000000; stroke-linecap:round; stroke-linejoin:round; stroke-width:4; stroke-opacity:1; fill:none" points="1225.22,1423.18 1225.22,1404.28 "/>
<polyline clip-path="url(#clip710)" style="stroke:#000000; stroke-linecap:round; stroke-linejoin:round; stroke-width:4; stroke-opacity:1; fill:none" points="1637.77,1423.18 1637.77,1404.28 "/>
<polyline clip-path="url(#clip710)" style="stroke:#000000; stroke-linecap:round; stroke-linejoin:round; stroke-width:4; stroke-opacity:1; fill:none" points="2050.31,1423.18 2050.31,1404.28 "/>
<path clip-path="url(#clip710)" d="M347.855 1454.1 Q344.244 1454.1 342.415 1457.66 Q340.61 1461.2 340.61 1468.33 Q340.61 1475.44 342.415 1479.01 Q344.244 1482.55 347.855 1482.55 Q351.489 1482.55 353.295 1479.01 Q355.124 1475.44 355.124 1468.33 Q355.124 1461.2 353.295 1457.66 Q351.489 1454.1 347.855 1454.1 M347.855 1450.39 Q353.665 1450.39 356.721 1455 Q359.8 1459.58 359.8 1468.33 Q359.8 1477.06 356.721 1481.67 Q353.665 1486.25 347.855 1486.25 Q342.045 1486.25 338.966 1481.67 Q335.911 1477.06 335.911 1468.33 Q335.911 1459.58 338.966 1455 Q342.045 1450.39 347.855 1450.39 Z" fill="#000000" fill-rule="nonzero" fill-opacity="1" /><path clip-path="url(#clip710)" d="M368.017 1479.7 L372.901 1479.7 L372.901 1485.58 L368.017 1485.58 L368.017 1479.7 Z" fill="#000000" fill-rule="nonzero" fill-opacity="1" /><path clip-path="url(#clip710)" d="M387.114 1481.64 L403.434 1481.64 L403.434 1485.58 L381.489 1485.58 L381.489 1481.64 Q384.151 1478.89 388.735 1474.26 Q393.341 1469.61 394.522 1468.27 Q396.767 1465.74 397.647 1464.01 Q398.549 1462.25 398.549 1460.56 Q398.549 1457.8 396.605 1456.07 Q394.684 1454.33 391.582 1454.33 Q389.383 1454.33 386.929 1455.09 Q384.498 1455.86 381.721 1457.41 L381.721 1452.69 Q384.545 1451.55 386.998 1450.97 Q389.452 1450.39 391.489 1450.39 Q396.86 1450.39 400.054 1453.08 Q403.248 1455.77 403.248 1460.26 Q403.248 1462.39 402.438 1464.31 Q401.651 1466.2 399.545 1468.8 Q398.966 1469.47 395.864 1472.69 Q392.762 1475.88 387.114 1481.64 Z" fill="#000000" fill-rule="nonzero" fill-opacity="1" /><path clip-path="url(#clip710)" d="M417.276 1481.64 L433.595 1481.64 L433.595 1485.58 L411.651 1485.58 L411.651 1481.64 Q414.313 1478.89 418.896 1474.26 Q423.503 1469.61 424.683 1468.27 Q426.929 1465.74 427.808 1464.01 Q428.711 1462.25 428.711 1460.56 Q428.711 1457.8 426.767 1456.07 Q424.845 1454.33 421.744 1454.33 Q419.545 1454.33 417.091 1455.09 Q414.66 1455.86 411.883 1457.41 L411.883 1452.69 Q414.707 1451.55 417.16 1450.97 Q419.614 1450.39 421.651 1450.39 Q427.021 1450.39 430.216 1453.08 Q433.41 1455.77 433.41 1460.26 Q433.41 1462.39 432.6 1464.31 Q431.813 1466.2 429.707 1468.8 Q429.128 1469.47 426.026 1472.69 Q422.924 1475.88 417.276 1481.64 Z" fill="#000000" fill-rule="nonzero" fill-opacity="1" /><path clip-path="url(#clip710)" d="M443.457 1451.02 L461.813 1451.02 L461.813 1454.96 L447.739 1454.96 L447.739 1463.43 Q448.757 1463.08 449.776 1462.92 Q450.794 1462.73 451.813 1462.73 Q457.6 1462.73 460.98 1465.9 Q464.359 1469.08 464.359 1474.49 Q464.359 1480.07 460.887 1483.17 Q457.415 1486.25 451.095 1486.25 Q448.919 1486.25 446.651 1485.88 Q444.406 1485.51 441.998 1484.77 L441.998 1480.07 Q444.082 1481.2 446.304 1481.76 Q448.526 1482.32 451.003 1482.32 Q455.007 1482.32 457.345 1480.21 Q459.683 1478.1 459.683 1474.49 Q459.683 1470.88 457.345 1468.77 Q455.007 1466.67 451.003 1466.67 Q449.128 1466.67 447.253 1467.08 Q445.401 1467.5 443.457 1468.38 L443.457 1451.02 Z" fill="#000000" fill-rule="nonzero" fill-opacity="1" /><path clip-path="url(#clip710)" d="M759.901 1454.1 Q756.29 1454.1 754.461 1457.66 Q752.656 1461.2 752.656 1468.33 Q752.656 1475.44 754.461 1479.01 Q756.29 1482.55 759.901 1482.55 Q763.535 1482.55 765.341 1479.01 Q767.169 1475.44 767.169 1468.33 Q767.169 1461.2 765.341 1457.66 Q763.535 1454.1 759.901 1454.1 M759.901 1450.39 Q765.711 1450.39 768.767 1455 Q771.845 1459.58 771.845 1468.33 Q771.845 1477.06 768.767 1481.67 Q765.711 1486.25 759.901 1486.25 Q754.091 1486.25 751.012 1481.67 Q747.956 1477.06 747.956 1468.33 Q747.956 1459.58 751.012 1455 Q754.091 1450.39 759.901 1450.39 Z" fill="#000000" fill-rule="nonzero" fill-opacity="1" /><path clip-path="url(#clip710)" d="M780.063 1479.7 L784.947 1479.7 L784.947 1485.58 L780.063 1485.58 L780.063 1479.7 Z" fill="#000000" fill-rule="nonzero" fill-opacity="1" /><path clip-path="url(#clip710)" d="M799.16 1481.64 L815.479 1481.64 L815.479 1485.58 L793.535 1485.58 L793.535 1481.64 Q796.197 1478.89 800.78 1474.26 Q805.387 1469.61 806.567 1468.27 Q808.813 1465.74 809.692 1464.01 Q810.595 1462.25 810.595 1460.56 Q810.595 1457.8 808.651 1456.07 Q806.729 1454.33 803.627 1454.33 Q801.428 1454.33 798.975 1455.09 Q796.544 1455.86 793.766 1457.41 L793.766 1452.69 Q796.59 1451.55 799.044 1450.97 Q801.498 1450.39 803.535 1450.39 Q808.905 1450.39 812.1 1453.08 Q815.294 1455.77 815.294 1460.26 Q815.294 1462.39 814.484 1464.31 Q813.697 1466.2 811.59 1468.8 Q811.012 1469.47 807.91 1472.69 Q804.808 1475.88 799.16 1481.64 Z" fill="#000000" fill-rule="nonzero" fill-opacity="1" /><path clip-path="url(#clip710)" d="M825.34 1451.02 L843.697 1451.02 L843.697 1454.96 L829.623 1454.96 L829.623 1463.43 Q830.641 1463.08 831.66 1462.92 Q832.678 1462.73 833.697 1462.73 Q839.484 1462.73 842.863 1465.9 Q846.243 1469.08 846.243 1474.49 Q846.243 1480.07 842.771 1483.17 Q839.299 1486.25 832.979 1486.25 Q830.803 1486.25 828.535 1485.88 Q826.289 1485.51 823.882 1484.77 L823.882 1480.07 Q825.965 1481.2 828.188 1481.76 Q830.41 1482.32 832.887 1482.32 Q836.891 1482.32 839.229 1480.21 Q841.567 1478.1 841.567 1474.49 Q841.567 1470.88 839.229 1468.77 Q836.891 1466.67 832.887 1466.67 Q831.012 1466.67 829.137 1467.08 Q827.285 1467.5 825.34 1468.38 L825.34 1451.02 Z" fill="#000000" fill-rule="nonzero" fill-opacity="1" /><path clip-path="url(#clip710)" d="M865.456 1454.1 Q861.845 1454.1 860.016 1457.66 Q858.21 1461.2 858.21 1468.33 Q858.21 1475.44 860.016 1479.01 Q861.845 1482.55 865.456 1482.55 Q869.09 1482.55 870.896 1479.01 Q872.724 1475.44 872.724 1468.33 Q872.724 1461.2 870.896 1457.66 Q869.09 1454.1 865.456 1454.1 M865.456 1450.39 Q871.266 1450.39 874.322 1455 Q877.4 1459.58 877.4 1468.33 Q877.4 1477.06 874.322 1481.67 Q871.266 1486.25 865.456 1486.25 Q859.646 1486.25 856.567 1481.67 Q853.511 1477.06 853.511 1468.33 Q853.511 1459.58 856.567 1455 Q859.646 1450.39 865.456 1450.39 Z" fill="#000000" fill-rule="nonzero" fill-opacity="1" /><path clip-path="url(#clip710)" d="M1172.94 1454.1 Q1169.33 1454.1 1167.5 1457.66 Q1165.7 1461.2 1165.7 1468.33 Q1165.7 1475.44 1167.5 1479.01 Q1169.33 1482.55 1172.94 1482.55 Q1176.58 1482.55 1178.38 1479.01 Q1180.21 1475.44 1180.21 1468.33 Q1180.21 1461.2 1178.38 1457.66 Q1176.58 1454.1 1172.94 1454.1 M1172.94 1450.39 Q1178.75 1450.39 1181.81 1455 Q1184.89 1459.58 1184.89 1468.33 Q1184.89 1477.06 1181.81 1481.67 Q1178.75 1486.25 1172.94 1486.25 Q1167.13 1486.25 1164.05 1481.67 Q1161 1477.06 1161 1468.33 Q1161 1459.58 1164.05 1455 Q1167.13 1450.39 1172.94 1450.39 Z" fill="#000000" fill-rule="nonzero" fill-opacity="1" /><path clip-path="url(#clip710)" d="M1193.1 1479.7 L1197.99 1479.7 L1197.99 1485.58 L1193.1 1485.58 L1193.1 1479.7 Z" fill="#000000" fill-rule="nonzero" fill-opacity="1" /><path clip-path="url(#clip710)" d="M1212.2 1481.64 L1228.52 1481.64 L1228.52 1485.58 L1206.58 1485.58 L1206.58 1481.64 Q1209.24 1478.89 1213.82 1474.26 Q1218.43 1469.61 1219.61 1468.27 Q1221.85 1465.74 1222.73 1464.01 Q1223.64 1462.25 1223.64 1460.56 Q1223.64 1457.8 1221.69 1456.07 Q1219.77 1454.33 1216.67 1454.33 Q1214.47 1454.33 1212.02 1455.09 Q1209.59 1455.86 1206.81 1457.41 L1206.81 1452.69 Q1209.63 1451.55 1212.09 1450.97 Q1214.54 1450.39 1216.58 1450.39 Q1221.95 1450.39 1225.14 1453.08 Q1228.34 1455.77 1228.34 1460.26 Q1228.34 1462.39 1227.52 1464.31 Q1226.74 1466.2 1224.63 1468.8 Q1224.05 1469.47 1220.95 1472.69 Q1217.85 1475.88 1212.2 1481.64 Z" fill="#000000" fill-rule="nonzero" fill-opacity="1" /><path clip-path="url(#clip710)" d="M1237.15 1451.02 L1259.38 1451.02 L1259.38 1453.01 L1246.83 1485.58 L1241.95 1485.58 L1253.75 1454.96 L1237.15 1454.96 L1237.15 1451.02 Z" fill="#000000" fill-rule="nonzero" fill-opacity="1" /><path clip-path="url(#clip710)" d="M1268.54 1451.02 L1286.9 1451.02 L1286.9 1454.96 L1272.83 1454.96 L1272.83 1463.43 Q1273.84 1463.08 1274.86 1462.92 Q1275.88 1462.73 1276.9 1462.73 Q1282.69 1462.73 1286.07 1465.9 Q1289.45 1469.08 1289.45 1474.49 Q1289.45 1480.07 1285.97 1483.17 Q1282.5 1486.25 1276.18 1486.25 Q1274.01 1486.25 1271.74 1485.88 Q1269.49 1485.51 1267.08 1484.77 L1267.08 1480.07 Q1269.17 1481.2 1271.39 1481.76 Q1273.61 1482.32 1276.09 1482.32 Q1280.09 1482.32 1282.43 1480.21 Q1284.77 1478.1 1284.77 1474.49 Q1284.77 1470.88 1282.43 1468.77 Q1280.09 1466.67 1276.09 1466.67 Q1274.21 1466.67 1272.34 1467.08 Q1270.49 1467.5 1268.54 1468.38 L1268.54 1451.02 Z" fill="#000000" fill-rule="nonzero" fill-opacity="1" /><path clip-path="url(#clip710)" d="M1584.99 1454.1 Q1581.38 1454.1 1579.55 1457.66 Q1577.74 1461.2 1577.74 1468.33 Q1577.74 1475.44 1579.55 1479.01 Q1581.38 1482.55 1584.99 1482.55 Q1588.62 1482.55 1590.43 1479.01 Q1592.26 1475.44 1592.26 1468.33 Q1592.26 1461.2 1590.43 1457.66 Q1588.62 1454.1 1584.99 1454.1 M1584.99 1450.39 Q1590.8 1450.39 1593.85 1455 Q1596.93 1459.58 1596.93 1468.33 Q1596.93 1477.06 1593.85 1481.67 Q1590.8 1486.25 1584.99 1486.25 Q1579.18 1486.25 1576.1 1481.67 Q1573.04 1477.06 1573.04 1468.33 Q1573.04 1459.58 1576.1 1455 Q1579.18 1450.39 1584.99 1450.39 Z" fill="#000000" fill-rule="nonzero" fill-opacity="1" /><path clip-path="url(#clip710)" d="M1605.15 1479.7 L1610.03 1479.7 L1610.03 1485.58 L1605.15 1485.58 L1605.15 1479.7 Z" fill="#000000" fill-rule="nonzero" fill-opacity="1" /><path clip-path="url(#clip710)" d="M1634.39 1466.95 Q1637.74 1467.66 1639.62 1469.93 Q1641.52 1472.2 1641.52 1475.53 Q1641.52 1480.65 1638 1483.45 Q1634.48 1486.25 1628 1486.25 Q1625.82 1486.25 1623.51 1485.81 Q1621.21 1485.39 1618.76 1484.54 L1618.76 1480.02 Q1620.7 1481.16 1623.02 1481.74 Q1625.33 1482.32 1627.86 1482.32 Q1632.26 1482.32 1634.55 1480.58 Q1636.86 1478.84 1636.86 1475.53 Q1636.86 1472.48 1634.71 1470.77 Q1632.58 1469.03 1628.76 1469.03 L1624.73 1469.03 L1624.73 1465.19 L1628.95 1465.19 Q1632.39 1465.19 1634.22 1463.82 Q1636.05 1462.43 1636.05 1459.84 Q1636.05 1457.18 1634.15 1455.77 Q1632.28 1454.33 1628.76 1454.33 Q1626.84 1454.33 1624.64 1454.75 Q1622.44 1455.16 1619.8 1456.04 L1619.8 1451.88 Q1622.46 1451.14 1624.78 1450.77 Q1627.12 1450.39 1629.18 1450.39 Q1634.5 1450.39 1637.6 1452.83 Q1640.7 1455.23 1640.7 1459.35 Q1640.7 1462.22 1639.06 1464.21 Q1637.42 1466.18 1634.39 1466.95 Z" fill="#000000" fill-rule="nonzero" fill-opacity="1" /><path clip-path="url(#clip710)" d="M1660.38 1454.1 Q1656.77 1454.1 1654.94 1457.66 Q1653.14 1461.2 1653.14 1468.33 Q1653.14 1475.44 1654.94 1479.01 Q1656.77 1482.55 1660.38 1482.55 Q1664.01 1482.55 1665.82 1479.01 Q1667.65 1475.44 1667.65 1468.33 Q1667.65 1461.2 1665.82 1457.66 Q1664.01 1454.1 1660.38 1454.1 M1660.38 1450.39 Q1666.19 1450.39 1669.25 1455 Q1672.33 1459.58 1672.33 1468.33 Q1672.33 1477.06 1669.25 1481.67 Q1666.19 1486.25 1660.38 1486.25 Q1654.57 1486.25 1651.49 1481.67 Q1648.44 1477.06 1648.44 1468.33 Q1648.44 1459.58 1651.49 1455 Q1654.57 1450.39 1660.38 1450.39 Z" fill="#000000" fill-rule="nonzero" fill-opacity="1" /><path clip-path="url(#clip710)" d="M1690.54 1454.1 Q1686.93 1454.1 1685.1 1457.66 Q1683.3 1461.2 1683.3 1468.33 Q1683.3 1475.44 1685.1 1479.01 Q1686.93 1482.55 1690.54 1482.55 Q1694.18 1482.55 1695.98 1479.01 Q1697.81 1475.44 1697.81 1468.33 Q1697.81 1461.2 1695.98 1457.66 Q1694.18 1454.1 1690.54 1454.1 M1690.54 1450.39 Q1696.35 1450.39 1699.41 1455 Q1702.49 1459.58 1702.49 1468.33 Q1702.49 1477.06 1699.41 1481.67 Q1696.35 1486.25 1690.54 1486.25 Q1684.73 1486.25 1681.65 1481.67 Q1678.6 1477.06 1678.6 1468.33 Q1678.6 1459.58 1681.65 1455 Q1684.73 1450.39 1690.54 1450.39 Z" fill="#000000" fill-rule="nonzero" fill-opacity="1" /><path clip-path="url(#clip710)" d="M1998.03 1454.1 Q1994.42 1454.1 1992.59 1457.66 Q1990.78 1461.2 1990.78 1468.33 Q1990.78 1475.44 1992.59 1479.01 Q1994.42 1482.55 1998.03 1482.55 Q2001.66 1482.55 2003.47 1479.01 Q2005.3 1475.44 2005.3 1468.33 Q2005.3 1461.2 2003.47 1457.66 Q2001.66 1454.1 1998.03 1454.1 M1998.03 1450.39 Q2003.84 1450.39 2006.89 1455 Q2009.97 1459.58 2009.97 1468.33 Q2009.97 1477.06 2006.89 1481.67 Q2003.84 1486.25 1998.03 1486.25 Q1992.22 1486.25 1989.14 1481.67 Q1986.08 1477.06 1986.08 1468.33 Q1986.08 1459.58 1989.14 1455 Q1992.22 1450.39 1998.03 1450.39 Z" fill="#000000" fill-rule="nonzero" fill-opacity="1" /><path clip-path="url(#clip710)" d="M2018.19 1479.7 L2023.07 1479.7 L2023.07 1485.58 L2018.19 1485.58 L2018.19 1479.7 Z" fill="#000000" fill-rule="nonzero" fill-opacity="1" /><path clip-path="url(#clip710)" d="M2047.43 1466.95 Q2050.78 1467.66 2052.66 1469.93 Q2054.56 1472.2 2054.56 1475.53 Q2054.56 1480.65 2051.04 1483.45 Q2047.52 1486.25 2041.04 1486.25 Q2038.86 1486.25 2036.55 1485.81 Q2034.26 1485.39 2031.8 1484.54 L2031.8 1480.02 Q2033.75 1481.16 2036.06 1481.74 Q2038.38 1482.32 2040.9 1482.32 Q2045.3 1482.32 2047.59 1480.58 Q2049.9 1478.84 2049.9 1475.53 Q2049.9 1472.48 2047.75 1470.77 Q2045.62 1469.03 2041.8 1469.03 L2037.77 1469.03 L2037.77 1465.19 L2041.99 1465.19 Q2045.44 1465.19 2047.26 1463.82 Q2049.09 1462.43 2049.09 1459.84 Q2049.09 1457.18 2047.19 1455.77 Q2045.32 1454.33 2041.8 1454.33 Q2039.88 1454.33 2037.68 1454.75 Q2035.48 1455.16 2032.84 1456.04 L2032.84 1451.88 Q2035.51 1451.14 2037.82 1450.77 Q2040.16 1450.39 2042.22 1450.39 Q2047.54 1450.39 2050.64 1452.83 Q2053.75 1455.23 2053.75 1459.35 Q2053.75 1462.22 2052.1 1464.21 Q2050.46 1466.18 2047.43 1466.95 Z" fill="#000000" fill-rule="nonzero" fill-opacity="1" /><path clip-path="url(#clip710)" d="M2067.45 1481.64 L2083.77 1481.64 L2083.77 1485.58 L2061.82 1485.58 L2061.82 1481.64 Q2064.49 1478.89 2069.07 1474.26 Q2073.68 1469.61 2074.86 1468.27 Q2077.1 1465.74 2077.98 1464.01 Q2078.88 1462.25 2078.88 1460.56 Q2078.88 1457.8 2076.94 1456.07 Q2075.02 1454.33 2071.92 1454.33 Q2069.72 1454.33 2067.26 1455.09 Q2064.83 1455.86 2062.06 1457.41 L2062.06 1452.69 Q2064.88 1451.55 2067.33 1450.97 Q2069.79 1450.39 2071.82 1450.39 Q2077.19 1450.39 2080.39 1453.08 Q2083.58 1455.77 2083.58 1460.26 Q2083.58 1462.39 2082.77 1464.31 Q2081.99 1466.2 2079.88 1468.8 Q2079.3 1469.47 2076.2 1472.69 Q2073.1 1475.88 2067.45 1481.64 Z" fill="#000000" fill-rule="nonzero" fill-opacity="1" /><path clip-path="url(#clip710)" d="M2093.63 1451.02 L2111.99 1451.02 L2111.99 1454.96 L2097.91 1454.96 L2097.91 1463.43 Q2098.93 1463.08 2099.95 1462.92 Q2100.97 1462.73 2101.99 1462.73 Q2107.77 1462.73 2111.15 1465.9 Q2114.53 1469.08 2114.53 1474.49 Q2114.53 1480.07 2111.06 1483.17 Q2107.59 1486.25 2101.27 1486.25 Q2099.09 1486.25 2096.82 1485.88 Q2094.58 1485.51 2092.17 1484.77 L2092.17 1480.07 Q2094.25 1481.2 2096.48 1481.76 Q2098.7 1482.32 2101.18 1482.32 Q2105.18 1482.32 2107.52 1480.21 Q2109.86 1478.1 2109.86 1474.49 Q2109.86 1470.88 2107.52 1468.77 Q2105.18 1466.67 2101.18 1466.67 Q2099.3 1466.67 2097.43 1467.08 Q2095.57 1467.5 2093.63 1468.38 L2093.63 1451.02 Z" fill="#000000" fill-rule="nonzero" fill-opacity="1" /><path clip-path="url(#clip710)" d="M1305.74 1550.25 Q1305.74 1543.79 1303.07 1540.13 Q1300.43 1536.44 1295.78 1536.44 Q1291.13 1536.44 1288.46 1540.13 Q1285.82 1543.79 1285.82 1550.25 Q1285.82 1556.71 1288.46 1560.4 Q1291.13 1564.07 1295.78 1564.07 Q1300.43 1564.07 1303.07 1560.4 Q1305.74 1556.71 1305.74 1550.25 M1285.82 1537.81 Q1287.66 1534.62 1290.46 1533.1 Q1293.3 1531.54 1297.21 1531.54 Q1303.71 1531.54 1307.75 1536.69 Q1311.82 1541.85 1311.82 1550.25 Q1311.82 1558.65 1307.75 1563.81 Q1303.71 1568.97 1297.21 1568.97 Q1293.3 1568.97 1290.46 1567.44 Q1287.66 1565.88 1285.82 1562.7 L1285.82 1568.04 L1279.93 1568.04 L1279.93 1518.52 L1285.82 1518.52 L1285.82 1537.81 Z" fill="#000000" fill-rule="nonzero" fill-opacity="1" /><path clip-path="url(#clip710)" d="M1336.11 1524.76 Q1331.14 1524.76 1328.63 1529.66 Q1326.14 1534.53 1326.14 1544.33 Q1326.14 1554.1 1328.63 1559 Q1331.14 1563.87 1336.11 1563.87 Q1341.1 1563.87 1343.59 1559 Q1346.1 1554.1 1346.1 1544.33 Q1346.1 1534.53 1343.59 1529.66 Q1341.1 1524.76 1336.11 1524.76 M1336.11 1519.66 Q1344.1 1519.66 1348.3 1526 Q1352.53 1532.3 1352.53 1544.33 Q1352.53 1556.33 1348.3 1562.66 Q1344.1 1568.97 1336.11 1568.97 Q1328.12 1568.97 1323.88 1562.66 Q1319.68 1556.33 1319.68 1544.33 Q1319.68 1532.3 1323.88 1526 Q1328.12 1519.66 1336.11 1519.66 Z" fill="#000000" fill-rule="nonzero" fill-opacity="1" /><polyline clip-path="url(#clip712)" style="stroke:#000000; stroke-linecap:round; stroke-linejoin:round; stroke-width:2; stroke-opacity:0.1; fill:none" points="279.704,1173.97 2352.76,1173.97 "/>
<polyline clip-path="url(#clip712)" style="stroke:#000000; stroke-linecap:round; stroke-linejoin:round; stroke-width:2; stroke-opacity:0.1; fill:none" points="279.704,896.04 2352.76,896.04 "/>
<polyline clip-path="url(#clip712)" style="stroke:#000000; stroke-linecap:round; stroke-linejoin:round; stroke-width:2; stroke-opacity:0.1; fill:none" points="279.704,618.113 2352.76,618.113 "/>
<polyline clip-path="url(#clip712)" style="stroke:#000000; stroke-linecap:round; stroke-linejoin:round; stroke-width:2; stroke-opacity:0.1; fill:none" points="279.704,340.186 2352.76,340.186 "/>
<polyline clip-path="url(#clip712)" style="stroke:#000000; stroke-linecap:round; stroke-linejoin:round; stroke-width:2; stroke-opacity:0.1; fill:none" points="279.704,62.2593 2352.76,62.2593 "/>
<polyline clip-path="url(#clip710)" style="stroke:#000000; stroke-linecap:round; stroke-linejoin:round; stroke-width:4; stroke-opacity:1; fill:none" points="279.704,1423.18 279.704,47.2441 "/>
<polyline clip-path="url(#clip710)" style="stroke:#000000; stroke-linecap:round; stroke-linejoin:round; stroke-width:4; stroke-opacity:1; fill:none" points="279.704,1173.97 298.602,1173.97 "/>
<polyline clip-path="url(#clip710)" style="stroke:#000000; stroke-linecap:round; stroke-linejoin:round; stroke-width:4; stroke-opacity:1; fill:none" points="279.704,896.04 298.602,896.04 "/>
<polyline clip-path="url(#clip710)" style="stroke:#000000; stroke-linecap:round; stroke-linejoin:round; stroke-width:4; stroke-opacity:1; fill:none" points="279.704,618.113 298.602,618.113 "/>
<polyline clip-path="url(#clip710)" style="stroke:#000000; stroke-linecap:round; stroke-linejoin:round; stroke-width:4; stroke-opacity:1; fill:none" points="279.704,340.186 298.602,340.186 "/>
<polyline clip-path="url(#clip710)" style="stroke:#000000; stroke-linecap:round; stroke-linejoin:round; stroke-width:4; stroke-opacity:1; fill:none" points="279.704,62.2593 298.602,62.2593 "/>
<path clip-path="url(#clip710)" d="M127.2 1159.77 Q123.589 1159.77 121.76 1163.33 Q119.955 1166.87 119.955 1174 Q119.955 1181.11 121.76 1184.67 Q123.589 1188.22 127.2 1188.22 Q130.834 1188.22 132.64 1184.67 Q134.468 1181.11 134.468 1174 Q134.468 1166.87 132.64 1163.33 Q130.834 1159.77 127.2 1159.77 M127.2 1156.06 Q133.01 1156.06 136.066 1160.67 Q139.144 1165.25 139.144 1174 Q139.144 1182.73 136.066 1187.34 Q133.01 1191.92 127.2 1191.92 Q121.39 1191.92 118.311 1187.34 Q115.256 1182.73 115.256 1174 Q115.256 1165.25 118.311 1160.67 Q121.39 1156.06 127.2 1156.06 Z" fill="#000000" fill-rule="nonzero" fill-opacity="1" /><path clip-path="url(#clip710)" d="M147.362 1185.37 L152.246 1185.37 L152.246 1191.25 L147.362 1191.25 L147.362 1185.37 Z" fill="#000000" fill-rule="nonzero" fill-opacity="1" /><path clip-path="url(#clip710)" d="M173.01 1172.1 Q169.862 1172.1 168.01 1174.26 Q166.181 1176.41 166.181 1180.16 Q166.181 1183.89 168.01 1186.06 Q169.862 1188.22 173.01 1188.22 Q176.158 1188.22 177.987 1186.06 Q179.839 1183.89 179.839 1180.16 Q179.839 1176.41 177.987 1174.26 Q176.158 1172.1 173.01 1172.1 M182.292 1157.45 L182.292 1161.71 Q180.533 1160.88 178.727 1160.44 Q176.945 1160 175.186 1160 Q170.556 1160 168.102 1163.12 Q165.672 1166.25 165.325 1172.57 Q166.69 1170.55 168.751 1169.49 Q170.811 1168.4 173.288 1168.4 Q178.496 1168.4 181.505 1171.57 Q184.538 1174.72 184.538 1180.16 Q184.538 1185.48 181.389 1188.7 Q178.241 1191.92 173.01 1191.92 Q167.015 1191.92 163.843 1187.34 Q160.672 1182.73 160.672 1174 Q160.672 1165.81 164.561 1160.95 Q168.45 1156.06 175.001 1156.06 Q176.76 1156.06 178.542 1156.41 Q180.348 1156.76 182.292 1157.45 Z" fill="#000000" fill-rule="nonzero" fill-opacity="1" /><path clip-path="url(#clip710)" d="M191.413 1156.69 L213.635 1156.69 L213.635 1158.68 L201.088 1191.25 L196.204 1191.25 L208.01 1160.62 L191.413 1160.62 L191.413 1156.69 Z" fill="#000000" fill-rule="nonzero" fill-opacity="1" /><path clip-path="url(#clip710)" d="M222.801 1156.69 L241.158 1156.69 L241.158 1160.62 L227.084 1160.62 L227.084 1169.09 Q228.102 1168.75 229.121 1168.59 Q230.139 1168.4 231.158 1168.4 Q236.945 1168.4 240.324 1171.57 Q243.704 1174.74 243.704 1180.16 Q243.704 1185.74 240.232 1188.84 Q236.76 1191.92 230.44 1191.92 Q228.264 1191.92 225.996 1191.55 Q223.75 1191.18 221.343 1190.44 L221.343 1185.74 Q223.426 1186.87 225.648 1187.43 Q227.871 1187.98 230.347 1187.98 Q234.352 1187.98 236.69 1185.88 Q239.028 1183.77 239.028 1180.16 Q239.028 1176.55 236.69 1174.44 Q234.352 1172.34 230.347 1172.34 Q228.473 1172.34 226.598 1172.75 Q224.746 1173.17 222.801 1174.05 L222.801 1156.69 Z" fill="#000000" fill-rule="nonzero" fill-opacity="1" /><path clip-path="url(#clip710)" d="M126.205 881.839 Q122.593 881.839 120.765 885.404 Q118.959 888.946 118.959 896.075 Q118.959 903.182 120.765 906.746 Q122.593 910.288 126.205 910.288 Q129.839 910.288 131.644 906.746 Q133.473 903.182 133.473 896.075 Q133.473 888.946 131.644 885.404 Q129.839 881.839 126.205 881.839 M126.205 878.136 Q132.015 878.136 135.07 882.742 Q138.149 887.325 138.149 896.075 Q138.149 904.802 135.07 909.408 Q132.015 913.992 126.205 913.992 Q120.394 913.992 117.316 909.408 Q114.26 904.802 114.26 896.075 Q114.26 887.325 117.316 882.742 Q120.394 878.136 126.205 878.136 Z" fill="#000000" fill-rule="nonzero" fill-opacity="1" /><path clip-path="url(#clip710)" d="M146.366 907.441 L151.251 907.441 L151.251 913.32 L146.366 913.32 L146.366 907.441 Z" fill="#000000" fill-rule="nonzero" fill-opacity="1" /><path clip-path="url(#clip710)" d="M160.255 878.76 L182.477 878.76 L182.477 880.751 L169.931 913.32 L165.047 913.32 L176.852 882.696 L160.255 882.696 L160.255 878.76 Z" fill="#000000" fill-rule="nonzero" fill-opacity="1" /><path clip-path="url(#clip710)" d="M201.598 881.839 Q197.987 881.839 196.158 885.404 Q194.352 888.946 194.352 896.075 Q194.352 903.182 196.158 906.746 Q197.987 910.288 201.598 910.288 Q205.232 910.288 207.037 906.746 Q208.866 903.182 208.866 896.075 Q208.866 888.946 207.037 885.404 Q205.232 881.839 201.598 881.839 M201.598 878.136 Q207.408 878.136 210.463 882.742 Q213.542 887.325 213.542 896.075 Q213.542 904.802 210.463 909.408 Q207.408 913.992 201.598 913.992 Q195.787 913.992 192.709 909.408 Q189.653 904.802 189.653 896.075 Q189.653 887.325 192.709 882.742 Q195.787 878.136 201.598 878.136 Z" fill="#000000" fill-rule="nonzero" fill-opacity="1" /><path clip-path="url(#clip710)" d="M231.76 881.839 Q228.148 881.839 226.32 885.404 Q224.514 888.946 224.514 896.075 Q224.514 903.182 226.32 906.746 Q228.148 910.288 231.76 910.288 Q235.394 910.288 237.199 906.746 Q239.028 903.182 239.028 896.075 Q239.028 888.946 237.199 885.404 Q235.394 881.839 231.76 881.839 M231.76 878.136 Q237.57 878.136 240.625 882.742 Q243.704 887.325 243.704 896.075 Q243.704 904.802 240.625 909.408 Q237.57 913.992 231.76 913.992 Q225.949 913.992 222.871 909.408 Q219.815 904.802 219.815 896.075 Q219.815 887.325 222.871 882.742 Q225.949 878.136 231.76 878.136 Z" fill="#000000" fill-rule="nonzero" fill-opacity="1" /><path clip-path="url(#clip710)" d="M127.2 603.912 Q123.589 603.912 121.76 607.477 Q119.955 611.019 119.955 618.148 Q119.955 625.255 121.76 628.819 Q123.589 632.361 127.2 632.361 Q130.834 632.361 132.64 628.819 Q134.468 625.255 134.468 618.148 Q134.468 611.019 132.64 607.477 Q130.834 603.912 127.2 603.912 M127.2 600.208 Q133.01 600.208 136.066 604.815 Q139.144 609.398 139.144 618.148 Q139.144 626.875 136.066 631.481 Q133.01 636.065 127.2 636.065 Q121.39 636.065 118.311 631.481 Q115.256 626.875 115.256 618.148 Q115.256 609.398 118.311 604.815 Q121.39 600.208 127.2 600.208 Z" fill="#000000" fill-rule="nonzero" fill-opacity="1" /><path clip-path="url(#clip710)" d="M147.362 629.514 L152.246 629.514 L152.246 635.393 L147.362 635.393 L147.362 629.514 Z" fill="#000000" fill-rule="nonzero" fill-opacity="1" /><path clip-path="url(#clip710)" d="M161.251 600.833 L183.473 600.833 L183.473 602.824 L170.927 635.393 L166.042 635.393 L177.848 604.769 L161.251 604.769 L161.251 600.833 Z" fill="#000000" fill-rule="nonzero" fill-opacity="1" /><path clip-path="url(#clip710)" d="M196.621 631.458 L212.94 631.458 L212.94 635.393 L190.996 635.393 L190.996 631.458 Q193.658 628.704 198.241 624.074 Q202.848 619.421 204.028 618.079 Q206.274 615.556 207.153 613.819 Q208.056 612.06 208.056 610.37 Q208.056 607.616 206.112 605.88 Q204.19 604.144 201.088 604.144 Q198.889 604.144 196.436 604.907 Q194.005 605.671 191.227 607.222 L191.227 602.5 Q194.051 601.366 196.505 600.787 Q198.959 600.208 200.996 600.208 Q206.366 600.208 209.561 602.894 Q212.755 605.579 212.755 610.069 Q212.755 612.199 211.945 614.12 Q211.158 616.019 209.051 618.611 Q208.473 619.282 205.371 622.5 Q202.269 625.694 196.621 631.458 Z" fill="#000000" fill-rule="nonzero" fill-opacity="1" /><path clip-path="url(#clip710)" d="M222.801 600.833 L241.158 600.833 L241.158 604.769 L227.084 604.769 L227.084 613.241 Q228.102 612.894 229.121 612.732 Q230.139 612.546 231.158 612.546 Q236.945 612.546 240.324 615.718 Q243.704 618.889 243.704 624.306 Q243.704 629.884 240.232 632.986 Q236.76 636.065 230.44 636.065 Q228.264 636.065 225.996 635.694 Q223.75 635.324 221.343 634.583 L221.343 629.884 Q223.426 631.018 225.648 631.574 Q227.871 632.13 230.347 632.13 Q234.352 632.13 236.69 630.023 Q239.028 627.917 239.028 624.306 Q239.028 620.694 236.69 618.588 Q234.352 616.481 230.347 616.481 Q228.473 616.481 226.598 616.898 Q224.746 617.315 222.801 618.194 L222.801 600.833 Z" fill="#000000" fill-rule="nonzero" fill-opacity="1" /><path clip-path="url(#clip710)" d="M126.205 325.985 Q122.593 325.985 120.765 329.55 Q118.959 333.091 118.959 340.221 Q118.959 347.328 120.765 350.892 Q122.593 354.434 126.205 354.434 Q129.839 354.434 131.644 350.892 Q133.473 347.328 133.473 340.221 Q133.473 333.091 131.644 329.55 Q129.839 325.985 126.205 325.985 M126.205 322.281 Q132.015 322.281 135.07 326.888 Q138.149 331.471 138.149 340.221 Q138.149 348.948 135.07 353.554 Q132.015 358.138 126.205 358.138 Q120.394 358.138 117.316 353.554 Q114.26 348.948 114.26 340.221 Q114.26 331.471 117.316 326.888 Q120.394 322.281 126.205 322.281 Z" fill="#000000" fill-rule="nonzero" fill-opacity="1" /><path clip-path="url(#clip710)" d="M146.366 351.587 L151.251 351.587 L151.251 357.466 L146.366 357.466 L146.366 351.587 Z" fill="#000000" fill-rule="nonzero" fill-opacity="1" /><path clip-path="url(#clip710)" d="M160.255 322.906 L182.477 322.906 L182.477 324.897 L169.931 357.466 L165.047 357.466 L176.852 326.842 L160.255 326.842 L160.255 322.906 Z" fill="#000000" fill-rule="nonzero" fill-opacity="1" /><path clip-path="url(#clip710)" d="M191.644 322.906 L210 322.906 L210 326.842 L195.926 326.842 L195.926 335.314 Q196.945 334.966 197.963 334.804 Q198.982 334.619 200 334.619 Q205.787 334.619 209.167 337.791 Q212.547 340.962 212.547 346.378 Q212.547 351.957 209.074 355.059 Q205.602 358.138 199.283 358.138 Q197.107 358.138 194.838 357.767 Q192.593 357.397 190.186 356.656 L190.186 351.957 Q192.269 353.091 194.491 353.647 Q196.713 354.202 199.19 354.202 Q203.195 354.202 205.533 352.096 Q207.871 349.99 207.871 346.378 Q207.871 342.767 205.533 340.661 Q203.195 338.554 199.19 338.554 Q197.315 338.554 195.44 338.971 Q193.588 339.388 191.644 340.267 L191.644 322.906 Z" fill="#000000" fill-rule="nonzero" fill-opacity="1" /><path clip-path="url(#clip710)" d="M231.76 325.985 Q228.148 325.985 226.32 329.55 Q224.514 333.091 224.514 340.221 Q224.514 347.328 226.32 350.892 Q228.148 354.434 231.76 354.434 Q235.394 354.434 237.199 350.892 Q239.028 347.328 239.028 340.221 Q239.028 333.091 237.199 329.55 Q235.394 325.985 231.76 325.985 M231.76 322.281 Q237.57 322.281 240.625 326.888 Q243.704 331.471 243.704 340.221 Q243.704 348.948 240.625 353.554 Q237.57 358.138 231.76 358.138 Q225.949 358.138 222.871 353.554 Q219.815 348.948 219.815 340.221 Q219.815 331.471 222.871 326.888 Q225.949 322.281 231.76 322.281 Z" fill="#000000" fill-rule="nonzero" fill-opacity="1" /><path clip-path="url(#clip710)" d="M127.2 48.058 Q123.589 48.058 121.76 51.6228 Q119.955 55.1644 119.955 62.294 Q119.955 69.4005 121.76 72.9653 Q123.589 76.5069 127.2 76.5069 Q130.834 76.5069 132.64 72.9653 Q134.468 69.4005 134.468 62.294 Q134.468 55.1644 132.64 51.6228 Q130.834 48.058 127.2 48.058 M127.2 44.3543 Q133.01 44.3543 136.066 48.9608 Q139.144 53.5441 139.144 62.294 Q139.144 71.0208 136.066 75.6273 Q133.01 80.2106 127.2 80.2106 Q121.39 80.2106 118.311 75.6273 Q115.256 71.0208 115.256 62.294 Q115.256 53.5441 118.311 48.9608 Q121.39 44.3543 127.2 44.3543 Z" fill="#000000" fill-rule="nonzero" fill-opacity="1" /><path clip-path="url(#clip710)" d="M147.362 73.6597 L152.246 73.6597 L152.246 79.5393 L147.362 79.5393 L147.362 73.6597 Z" fill="#000000" fill-rule="nonzero" fill-opacity="1" /><path clip-path="url(#clip710)" d="M161.251 44.9793 L183.473 44.9793 L183.473 46.97 L170.927 79.5393 L166.042 79.5393 L177.848 48.9145 L161.251 48.9145 L161.251 44.9793 Z" fill="#000000" fill-rule="nonzero" fill-opacity="1" /><path clip-path="url(#clip710)" d="M191.413 44.9793 L213.635 44.9793 L213.635 46.97 L201.088 79.5393 L196.204 79.5393 L208.01 48.9145 L191.413 48.9145 L191.413 44.9793 Z" fill="#000000" fill-rule="nonzero" fill-opacity="1" /><path clip-path="url(#clip710)" d="M222.801 44.9793 L241.158 44.9793 L241.158 48.9145 L227.084 48.9145 L227.084 57.3866 Q228.102 57.0394 229.121 56.8774 Q230.139 56.6922 231.158 56.6922 Q236.945 56.6922 240.324 59.8635 Q243.704 63.0348 243.704 68.4514 Q243.704 74.0301 240.232 77.1319 Q236.76 80.2106 230.44 80.2106 Q228.264 80.2106 225.996 79.8402 Q223.75 79.4699 221.343 78.7291 L221.343 74.0301 Q223.426 75.1643 225.648 75.7199 Q227.871 76.2754 230.347 76.2754 Q234.352 76.2754 236.69 74.169 Q239.028 72.0625 239.028 68.4514 Q239.028 64.8403 236.69 62.7338 Q234.352 60.6274 230.347 60.6274 Q228.473 60.6274 226.598 61.044 Q224.746 61.4607 222.801 62.3403 L222.801 44.9793 Z" fill="#000000" fill-rule="nonzero" fill-opacity="1" /><path clip-path="url(#clip710)" d="M35.1993 774.218 Q31.2526 772.022 29.3747 768.966 Q27.4968 765.911 27.4968 761.773 Q27.4968 756.203 31.4117 753.179 Q35.2948 750.155 42.4881 750.155 L64.0042 750.155 L64.0042 756.044 L42.679 756.044 Q37.5546 756.044 35.072 757.858 Q32.5894 759.672 32.5894 763.396 Q32.5894 767.948 35.6131 770.589 Q38.6368 773.231 43.8567 773.231 L64.0042 773.231 L64.0042 779.119 L42.679 779.119 Q37.5228 779.119 35.072 780.934 Q32.5894 782.748 32.5894 786.535 Q32.5894 791.023 35.6449 793.665 Q38.6686 796.307 43.8567 796.307 L64.0042 796.307 L64.0042 802.195 L28.3562 802.195 L28.3562 796.307 L33.8944 796.307 Q30.616 794.302 29.0564 791.501 Q27.4968 788.7 27.4968 784.849 Q27.4968 780.965 29.4702 778.26 Q31.4436 775.523 35.1993 774.218 Z" fill="#000000" fill-rule="nonzero" fill-opacity="1" /><path clip-path="url(#clip710)" d="M46.0847 722.274 Q46.0847 729.371 47.7079 732.109 Q49.3312 734.846 53.2461 734.846 Q56.3653 734.846 58.2114 732.809 Q60.0256 730.74 60.0256 727.207 Q60.0256 722.337 56.5881 719.409 Q53.1188 716.449 47.3897 716.449 L46.0847 716.449 L46.0847 722.274 M43.6657 710.593 L64.0042 710.593 L64.0042 716.449 L58.5933 716.449 Q61.8398 718.454 63.3994 721.446 Q64.9272 724.438 64.9272 728.767 Q64.9272 734.241 61.8716 737.488 Q58.7843 740.702 53.6281 740.702 Q47.6125 740.702 44.5569 736.692 Q41.5014 732.65 41.5014 724.661 L41.5014 716.449 L40.9285 716.449 Q36.8862 716.449 34.6901 719.123 Q32.4621 721.764 32.4621 726.571 Q32.4621 729.626 33.1941 732.522 Q33.9262 735.419 35.3903 738.092 L29.9795 738.092 Q28.7381 734.878 28.1334 731.854 Q27.4968 728.83 27.4968 725.966 Q27.4968 718.231 31.5072 714.412 Q35.5176 710.593 43.6657 710.593 Z" fill="#000000" fill-rule="nonzero" fill-opacity="1" /><path clip-path="url(#clip710)" d="M28.3562 668.897 L45.7028 681.788 L64.0042 668.229 L64.0042 675.136 L49.9996 685.512 L64.0042 695.888 L64.0042 702.795 L45.3526 688.949 L28.3562 701.617 L28.3562 694.71 L41.0558 685.257 L28.3562 675.804 L28.3562 668.897 Z" fill="#000000" fill-rule="nonzero" fill-opacity="1" /><polyline clip-path="url(#clip712)" style="stroke:#009af9; stroke-linecap:round; stroke-linejoin:round; stroke-width:8; stroke-opacity:1; fill:none" points="812.678,96.6362 833.858,98.8833 "/>
<polyline clip-path="url(#clip712)" style="stroke:#009af9; stroke-linecap:round; stroke-linejoin:round; stroke-width:8; stroke-opacity:1; fill:none" points="833.858,98.8833 864.46,104.052 "/>
<polyline clip-path="url(#clip712)" style="stroke:#009af9; stroke-linecap:round; stroke-linejoin:round; stroke-width:8; stroke-opacity:1; fill:none" points="864.46,104.052 908.89,111.591 "/>
<polyline clip-path="url(#clip712)" style="stroke:#009af9; stroke-linecap:round; stroke-linejoin:round; stroke-width:8; stroke-opacity:1; fill:none" points="908.89,111.591 972.109,124.994 "/>
<polyline clip-path="url(#clip712)" style="stroke:#009af9; stroke-linecap:round; stroke-linejoin:round; stroke-width:8; stroke-opacity:1; fill:none" points="972.109,124.994 1062.54,147.275 "/>
<polyline clip-path="url(#clip712)" style="stroke:#009af9; stroke-linecap:round; stroke-linejoin:round; stroke-width:8; stroke-opacity:1; fill:none" points="1062.54,147.275 1182.49,185.513 "/>
<polyline clip-path="url(#clip712)" style="stroke:#009af9; stroke-linecap:round; stroke-linejoin:round; stroke-width:8; stroke-opacity:1; fill:none" points="1182.49,185.513 1305.75,234.048 "/>
<polyline clip-path="url(#clip712)" style="stroke:#009af9; stroke-linecap:round; stroke-linejoin:round; stroke-width:8; stroke-opacity:1; fill:none" points="1305.75,234.048 1431.11,292.554 "/>
<polyline clip-path="url(#clip712)" style="stroke:#009af9; stroke-linecap:round; stroke-linejoin:round; stroke-width:8; stroke-opacity:1; fill:none" points="1431.11,292.554 1557.4,361.86 "/>
<polyline clip-path="url(#clip712)" style="stroke:#009af9; stroke-linecap:round; stroke-linejoin:round; stroke-width:8; stroke-opacity:1; fill:none" points="1557.4,361.86 1683.33,442.914 "/>
<polyline clip-path="url(#clip712)" style="stroke:#009af9; stroke-linecap:round; stroke-linejoin:round; stroke-width:8; stroke-opacity:1; fill:none" points="1683.33,442.914 1807.31,534.73 "/>
<polyline clip-path="url(#clip712)" style="stroke:#009af9; stroke-linecap:round; stroke-linejoin:round; stroke-width:8; stroke-opacity:1; fill:none" points="1807.31,534.73 1927.26,637.579 "/>
<polyline clip-path="url(#clip712)" style="stroke:#009af9; stroke-linecap:round; stroke-linejoin:round; stroke-width:8; stroke-opacity:1; fill:none" points="1927.26,637.579 2040.34,751.201 "/>
<polyline clip-path="url(#clip712)" style="stroke:#009af9; stroke-linecap:round; stroke-linejoin:round; stroke-width:8; stroke-opacity:1; fill:none" points="2040.34,751.201 2142.33,874.811 "/>
<polyline clip-path="url(#clip712)" style="stroke:#009af9; stroke-linecap:round; stroke-linejoin:round; stroke-width:8; stroke-opacity:1; fill:none" points="2142.33,874.811 2226.61,1005.59 "/>
<polyline clip-path="url(#clip712)" style="stroke:#009af9; stroke-linecap:round; stroke-linejoin:round; stroke-width:8; stroke-opacity:1; fill:none" points="2226.61,1005.59 2282.04,1141.2 "/>
<polyline clip-path="url(#clip712)" style="stroke:#009af9; stroke-linecap:round; stroke-linejoin:round; stroke-width:8; stroke-opacity:1; fill:none" points="2282.04,1141.2 2294.08,1227.36 "/>
<polyline clip-path="url(#clip712)" style="stroke:#009af9; stroke-linecap:round; stroke-linejoin:round; stroke-width:4; stroke-opacity:1; fill:none" points="2294.08,1227.36 2259.93,1334.14 "/>
<polyline clip-path="url(#clip712)" style="stroke:#009af9; stroke-linecap:round; stroke-linejoin:round; stroke-width:4; stroke-opacity:1; fill:none" points="2259.93,1334.14 2152.78,1384.24 "/>
<polyline clip-path="url(#clip712)" style="stroke:#009af9; stroke-linecap:round; stroke-linejoin:round; stroke-width:4; stroke-opacity:1; fill:none" points="2152.78,1384.24 2003.3,1364.34 "/>
<polyline clip-path="url(#clip712)" style="stroke:#009af9; stroke-linecap:round; stroke-linejoin:round; stroke-width:4; stroke-opacity:1; fill:none" points="2003.3,1364.34 1839.93,1300.92 "/>
<polyline clip-path="url(#clip712)" style="stroke:#009af9; stroke-linecap:round; stroke-linejoin:round; stroke-width:4; stroke-opacity:1; fill:none" points="1839.93,1300.92 1671.59,1213.39 "/>
<polyline clip-path="url(#clip712)" style="stroke:#009af9; stroke-linecap:round; stroke-linejoin:round; stroke-width:4; stroke-opacity:1; fill:none" points="1671.59,1213.39 1501.72,1113.18 "/>
<polyline clip-path="url(#clip712)" style="stroke:#009af9; stroke-linecap:round; stroke-linejoin:round; stroke-width:4; stroke-opacity:1; fill:none" points="1501.72,1113.18 1332.47,1006.7 "/>
<polyline clip-path="url(#clip712)" style="stroke:#009af9; stroke-linecap:round; stroke-linejoin:round; stroke-width:4; stroke-opacity:1; fill:none" points="1332.47,1006.7 1165.79,897.848 "/>
<polyline clip-path="url(#clip712)" style="stroke:#009af9; stroke-linecap:round; stroke-linejoin:round; stroke-width:4; stroke-opacity:1; fill:none" points="1165.79,897.848 1004,790.869 "/>
<polyline clip-path="url(#clip712)" style="stroke:#009af9; stroke-linecap:round; stroke-linejoin:round; stroke-width:4; stroke-opacity:1; fill:none" points="1004,790.869 850.181,687.952 "/>
<polyline clip-path="url(#clip712)" style="stroke:#009af9; stroke-linecap:round; stroke-linejoin:round; stroke-width:4; stroke-opacity:1; fill:none" points="850.181,687.952 708.365,591.027 "/>
<polyline clip-path="url(#clip712)" style="stroke:#009af9; stroke-linecap:round; stroke-linejoin:round; stroke-width:4; stroke-opacity:1; fill:none" points="708.365,591.027 583.527,501.499 "/>
<polyline clip-path="url(#clip712)" style="stroke:#009af9; stroke-linecap:round; stroke-linejoin:round; stroke-width:4; stroke-opacity:1; fill:none" points="583.527,501.499 480.969,419.192 "/>
<polyline clip-path="url(#clip712)" style="stroke:#009af9; stroke-linecap:round; stroke-linejoin:round; stroke-width:4; stroke-opacity:1; fill:none" points="480.969,419.192 405.07,347.733 "/>
<polyline clip-path="url(#clip712)" style="stroke:#009af9; stroke-linecap:round; stroke-linejoin:round; stroke-width:4; stroke-opacity:1; fill:none" points="405.07,347.733 357.938,284.961 "/>
<polyline clip-path="url(#clip712)" style="stroke:#009af9; stroke-linecap:round; stroke-linejoin:round; stroke-width:4; stroke-opacity:1; fill:none" points="357.938,284.961 338.977,231.417 "/>
<polyline clip-path="url(#clip712)" style="stroke:#009af9; stroke-linecap:round; stroke-linejoin:round; stroke-width:4; stroke-opacity:1; fill:none" points="338.977,231.417 338.375,219.709 "/>
<polyline clip-path="url(#clip712)" style="stroke:#009af9; stroke-linecap:round; stroke-linejoin:round; stroke-width:8; stroke-opacity:1; fill:none" points="338.375,219.709 350.845,178.158 "/>
<polyline clip-path="url(#clip712)" style="stroke:#009af9; stroke-linecap:round; stroke-linejoin:round; stroke-width:8; stroke-opacity:1; fill:none" points="350.845,178.158 384.683,143.865 "/>
<polyline clip-path="url(#clip712)" style="stroke:#009af9; stroke-linecap:round; stroke-linejoin:round; stroke-width:8; stroke-opacity:1; fill:none" points="384.683,143.865 436.579,117.631 "/>
<polyline clip-path="url(#clip712)" style="stroke:#009af9; stroke-linecap:round; stroke-linejoin:round; stroke-width:8; stroke-opacity:1; fill:none" points="436.579,117.631 503.623,99.2586 "/>
<polyline clip-path="url(#clip712)" style="stroke:#009af9; stroke-linecap:round; stroke-linejoin:round; stroke-width:8; stroke-opacity:1; fill:none" points="503.623,99.2586 583.356,88.7355 "/>
<polyline clip-path="url(#clip712)" style="stroke:#009af9; stroke-linecap:round; stroke-linejoin:round; stroke-width:8; stroke-opacity:1; fill:none" points="583.356,88.7355 673.715,86.1857 "/>
<polyline clip-path="url(#clip712)" style="stroke:#009af9; stroke-linecap:round; stroke-linejoin:round; stroke-width:8; stroke-opacity:1; fill:none" points="673.715,86.1857 772.961,91.8319 "/>
<polyline clip-path="url(#clip712)" style="stroke:#009af9; stroke-linecap:round; stroke-linejoin:round; stroke-width:8; stroke-opacity:1; fill:none" points="772.961,91.8319 879.603,105.974 "/>
<polyline clip-path="url(#clip712)" style="stroke:#009af9; stroke-linecap:round; stroke-linejoin:round; stroke-width:8; stroke-opacity:1; fill:none" points="879.603,105.974 992.335,128.983 "/>
<polyline clip-path="url(#clip712)" style="stroke:#009af9; stroke-linecap:round; stroke-linejoin:round; stroke-width:8; stroke-opacity:1; fill:none" points="992.335,128.983 1109.98,161.296 "/>
<polyline clip-path="url(#clip712)" style="stroke:#009af9; stroke-linecap:round; stroke-linejoin:round; stroke-width:8; stroke-opacity:1; fill:none" points="1109.98,161.296 1231.44,203.434 "/>
<polyline clip-path="url(#clip712)" style="stroke:#009af9; stroke-linecap:round; stroke-linejoin:round; stroke-width:8; stroke-opacity:1; fill:none" points="1231.44,203.434 1355.64,256.01 "/>
<polyline clip-path="url(#clip712)" style="stroke:#009af9; stroke-linecap:round; stroke-linejoin:round; stroke-width:8; stroke-opacity:1; fill:none" points="1355.64,256.01 1481.46,319.091 "/>
<polyline clip-path="url(#clip712)" style="stroke:#009af9; stroke-linecap:round; stroke-linejoin:round; stroke-width:8; stroke-opacity:1; fill:none" points="1481.46,319.091 1607.7,392.668 "/>
<polyline clip-path="url(#clip712)" style="stroke:#009af9; stroke-linecap:round; stroke-linejoin:round; stroke-width:8; stroke-opacity:1; fill:none" points="1607.7,392.668 1732.95,478.01 "/>
<polyline clip-path="url(#clip712)" style="stroke:#009af9; stroke-linecap:round; stroke-linejoin:round; stroke-width:8; stroke-opacity:1; fill:none" points="1732.95,478.01 1855.43,574.441 "/>
<circle clip-path="url(#clip712)" cx="2294.08" cy="1227.36" r="10.8" fill="#0000ff" fill-rule="evenodd" fill-opacity="1" stroke="none"/>
<circle clip-path="url(#clip712)" cx="338.375" cy="219.709" r="10.8" fill="#0000ff" fill-rule="evenodd" fill-opacity="1" stroke="none"/>
<circle clip-path="url(#clip712)" cx="2294.08" cy="1227.36" r="10.8" fill="#0000ff" fill-rule="evenodd" fill-opacity="1" stroke="none"/>
<path clip-path="url(#clip710)" d="M2023.06 196.789 L2283.65 196.789 L2283.65 93.1086 L2023.06 93.1086  Z" fill="#ffffff" fill-rule="evenodd" fill-opacity="1"/>
<polyline clip-path="url(#clip710)" style="stroke:#000000; stroke-linecap:round; stroke-linejoin:round; stroke-width:4; stroke-opacity:1; fill:none" points="2023.06,196.789 2283.65,196.789 2283.65,93.1086 2023.06,93.1086 2023.06,196.789 "/>
<circle clip-path="url(#clip710)" cx="2115.2" cy="144.949" r="23.04" fill="#0000ff" fill-rule="evenodd" fill-opacity="1" stroke="none"/>
<path clip-path="url(#clip710)" d="M2226.11 149.289 Q2226.11 144.59 2224.16 141.928 Q2222.24 139.243 2218.86 139.243 Q2215.48 139.243 2213.54 141.928 Q2211.62 144.59 2211.62 149.289 Q2211.62 153.988 2213.54 156.673 Q2215.48 159.335 2218.86 159.335 Q2222.24 159.335 2224.16 156.673 Q2226.11 153.988 2226.11 149.289 M2211.62 140.238 Q2212.96 137.923 2215 136.812 Q2217.06 135.678 2219.9 135.678 Q2224.63 135.678 2227.56 139.428 Q2230.53 143.178 2230.53 149.289 Q2230.53 155.4 2227.56 159.15 Q2224.63 162.9 2219.9 162.9 Q2217.06 162.9 2215 161.789 Q2212.96 160.655 2211.62 158.34 L2211.62 162.229 L2207.33 162.229 L2207.33 126.21 L2211.62 126.21 L2211.62 140.238 Z" fill="#000000" fill-rule="nonzero" fill-opacity="1" /><path clip-path="url(#clip710)" d="M2241.71 158.34 L2241.71 172.09 L2237.43 172.09 L2237.43 136.303 L2241.71 136.303 L2241.71 140.238 Q2243.05 137.923 2245.09 136.812 Q2247.15 135.678 2250 135.678 Q2254.72 135.678 2257.66 139.428 Q2260.62 143.178 2260.62 149.289 Q2260.62 155.4 2257.66 159.15 Q2254.72 162.9 2250 162.9 Q2247.15 162.9 2245.09 161.789 Q2243.05 160.655 2241.71 158.34 M2256.2 149.289 Q2256.2 144.59 2254.25 141.928 Q2252.33 139.243 2248.95 139.243 Q2245.57 139.243 2243.63 141.928 Q2241.71 144.59 2241.71 149.289 Q2241.71 153.988 2243.63 156.673 Q2245.57 159.335 2248.95 159.335 Q2252.33 159.335 2254.25 156.673 Q2256.2 153.988 2256.2 149.289 Z" fill="#000000" fill-rule="nonzero" fill-opacity="1" /></svg>
