<?xml version="1.0" encoding="utf-8"?>
<svg xmlns="http://www.w3.org/2000/svg" xmlns:xlink="http://www.w3.org/1999/xlink" width="600" height="400" viewBox="0 0 2400 1600">
<defs>
  <clipPath id="clip740">
    <rect x="0" y="0" width="2400" height="1600"/>
  </clipPath>
</defs>
<path clip-path="url(#clip740)" d="M0 1600 L2400 1600 L2400 0 L0 0  Z" fill="#ffffff" fill-rule="evenodd" fill-opacity="1"/>
<defs>
  <clipPath id="clip741">
    <rect x="480" y="0" width="1681" height="1600"/>
  </clipPath>
</defs>
<path clip-path="url(#clip740)" d="M250.028 1423.18 L2352.76 1423.18 L2352.76 47.2441 L250.028 47.2441  Z" fill="#ffffff" fill-rule="evenodd" fill-opacity="1"/>
<defs>
  <clipPath id="clip742">
    <rect x="250" y="47" width="2104" height="1377"/>
  </clipPath>
</defs>
<polyline clip-path="url(#clip742)" style="stroke:#000000; stroke-linecap:round; stroke-linejoin:round; stroke-width:2; stroke-opacity:0.1; fill:none" points="309.539,1423.18 309.539,47.2441 "/>
<polyline clip-path="url(#clip742)" style="stroke:#000000; stroke-linecap:round; stroke-linejoin:round; stroke-width:2; stroke-opacity:0.1; fill:none" points="864.323,1423.18 864.323,47.2441 "/>
<polyline clip-path="url(#clip742)" style="stroke:#000000; stroke-linecap:round; stroke-linejoin:round; stroke-width:2; stroke-opacity:0.1; fill:none" points="1419.11,1423.18 1419.11,47.2441 "/>
<polyline clip-path="url(#clip742)" style="stroke:#000000; stroke-linecap:round; stroke-linejoin:round; stroke-width:2; stroke-opacity:0.1; fill:none" points="1973.89,1423.18 1973.89,47.2441 "/>
<polyline clip-path="url(#clip742)" style="stroke:#000000; stroke-linecap:round; stroke-linejoin:round; stroke-width:2; stroke-opacity:0.1; fill:none" points="250.028,1201.66 2352.76,1201.66 "/>
<polyline clip-path="url(#clip742)" style="stroke:#000000; stroke-linecap:round; stroke-linejoin:round; stroke-width:2; stroke-opacity:0.1; fill:none" points="250.028,954.898 2352.76,954.898 "/>
<polyline clip-path="url(#clip742)" style="stroke:#000000; stroke-linecap:round; stroke-linejoin:round; stroke-width:2; stroke-opacity:0.1; fill:none" points="250.028,708.135 2352.76,708.135 "/>
<polyline clip-path="url(#clip742)" style="stroke:#000000; stroke-linecap:round; stroke-linejoin:round; stroke-width:2; stroke-opacity:0.1; fill:none" points="250.028,461.372 2352.76,461.372 "/>
<polyline clip-path="url(#clip742)" style="stroke:#000000; stroke-linecap:round; stroke-linejoin:round; stroke-width:2; stroke-opacity:0.1; fill:none" points="250.028,214.609 2352.76,214.609 "/>
<polyline clip-path="url(#clip740)" style="stroke:#000000; stroke-linecap:round; stroke-linejoin:round; stroke-width:4; stroke-opacity:1; fill:none" points="250.028,1423.18 2352.76,1423.18 "/>
<polyline clip-path="url(#clip740)" style="stroke:#000000; stroke-linecap:round; stroke-linejoin:round; stroke-width:4; stroke-opacity:1; fill:none" points="309.539,1423.18 309.539,1404.28 "/>
<polyline clip-path="url(#clip740)" style="stroke:#000000; stroke-linecap:round; stroke-linejoin:round; stroke-width:4; stroke-opacity:1; fill:none" points="864.323,1423.18 864.323,1404.28 "/>
<polyline clip-path="url(#clip740)" style="stroke:#000000; stroke-linecap:round; stroke-linejoin:round; stroke-width:4; stroke-opacity:1; fill:none" points="1419.11,1423.18 1419.11,1404.28 "/>
<polyline clip-path="url(#clip740)" style="stroke:#000000; stroke-linecap:round; stroke-linejoin:round; stroke-width:4; stroke-opacity:1; fill:none" points="1973.89,1423.18 1973.89,1404.28 "/>
<path clip-path="url(#clip740)" d="M277.19 1481.64 L284.829 1481.64 L284.829 1455.28 L276.519 1456.95 L276.519 1452.69 L284.782 1451.02 L289.458 1451.02 L289.458 1481.64 L297.097 1481.64 L297.097 1485.58 L277.19 1485.58 L277.19 1481.64 Z" fill="#000000" fill-rule="nonzero" fill-opacity="1" /><path clip-path="url(#clip740)" d="M306.542 1479.7 L311.426 1479.7 L311.426 1485.58 L306.542 1485.58 L306.542 1479.7 Z" fill="#000000" fill-rule="nonzero" fill-opacity="1" /><path clip-path="url(#clip740)" d="M321.657 1451.02 L340.014 1451.02 L340.014 1454.96 L325.94 1454.96 L325.94 1463.43 Q326.958 1463.08 327.977 1462.92 Q328.995 1462.73 330.014 1462.73 Q335.801 1462.73 339.18 1465.9 Q342.56 1469.08 342.56 1474.49 Q342.56 1480.07 339.088 1483.17 Q335.616 1486.25 329.296 1486.25 Q327.12 1486.25 324.852 1485.88 Q322.606 1485.51 320.199 1484.77 L320.199 1480.07 Q322.282 1481.2 324.505 1481.76 Q326.727 1482.32 329.204 1482.32 Q333.208 1482.32 335.546 1480.21 Q337.884 1478.1 337.884 1474.49 Q337.884 1470.88 335.546 1468.77 Q333.208 1466.67 329.204 1466.67 Q327.329 1466.67 325.454 1467.08 Q323.602 1467.5 321.657 1468.38 L321.657 1451.02 Z" fill="#000000" fill-rule="nonzero" fill-opacity="1" /><path clip-path="url(#clip740)" d="M831.395 1481.64 L839.034 1481.64 L839.034 1455.28 L830.724 1456.95 L830.724 1452.69 L838.988 1451.02 L843.664 1451.02 L843.664 1481.64 L851.303 1481.64 L851.303 1485.58 L831.395 1485.58 L831.395 1481.64 Z" fill="#000000" fill-rule="nonzero" fill-opacity="1" /><path clip-path="url(#clip740)" d="M860.747 1479.7 L865.631 1479.7 L865.631 1485.58 L860.747 1485.58 L860.747 1479.7 Z" fill="#000000" fill-rule="nonzero" fill-opacity="1" /><path clip-path="url(#clip740)" d="M886.395 1466.44 Q883.247 1466.44 881.395 1468.59 Q879.566 1470.74 879.566 1474.49 Q879.566 1478.22 881.395 1480.39 Q883.247 1482.55 886.395 1482.55 Q889.543 1482.55 891.372 1480.39 Q893.224 1478.22 893.224 1474.49 Q893.224 1470.74 891.372 1468.59 Q889.543 1466.44 886.395 1466.44 M895.677 1451.78 L895.677 1456.04 Q893.918 1455.21 892.113 1454.77 Q890.33 1454.33 888.571 1454.33 Q883.941 1454.33 881.488 1457.45 Q879.057 1460.58 878.71 1466.9 Q880.076 1464.89 882.136 1463.82 Q884.196 1462.73 886.673 1462.73 Q891.881 1462.73 894.89 1465.9 Q897.923 1469.05 897.923 1474.49 Q897.923 1479.82 894.775 1483.03 Q891.626 1486.25 886.395 1486.25 Q880.4 1486.25 877.228 1481.67 Q874.057 1477.06 874.057 1468.33 Q874.057 1460.14 877.946 1455.28 Q881.835 1450.39 888.386 1450.39 Q890.145 1450.39 891.927 1450.74 Q893.733 1451.09 895.677 1451.78 Z" fill="#000000" fill-rule="nonzero" fill-opacity="1" /><path clip-path="url(#clip740)" d="M1386.71 1481.64 L1394.35 1481.64 L1394.35 1455.28 L1386.04 1456.95 L1386.04 1452.69 L1394.3 1451.02 L1398.98 1451.02 L1398.98 1481.64 L1406.62 1481.64 L1406.62 1485.58 L1386.71 1485.58 L1386.71 1481.64 Z" fill="#000000" fill-rule="nonzero" fill-opacity="1" /><path clip-path="url(#clip740)" d="M1416.06 1479.7 L1420.95 1479.7 L1420.95 1485.58 L1416.06 1485.58 L1416.06 1479.7 Z" fill="#000000" fill-rule="nonzero" fill-opacity="1" /><path clip-path="url(#clip740)" d="M1429.95 1451.02 L1452.17 1451.02 L1452.17 1453.01 L1439.63 1485.58 L1434.74 1485.58 L1446.55 1454.96 L1429.95 1454.96 L1429.95 1451.02 Z" fill="#000000" fill-rule="nonzero" fill-opacity="1" /><path clip-path="url(#clip740)" d="M1941.09 1481.64 L1948.73 1481.64 L1948.73 1455.28 L1940.42 1456.95 L1940.42 1452.69 L1948.68 1451.02 L1953.36 1451.02 L1953.36 1481.64 L1961 1481.64 L1961 1485.58 L1941.09 1485.58 L1941.09 1481.64 Z" fill="#000000" fill-rule="nonzero" fill-opacity="1" /><path clip-path="url(#clip740)" d="M1970.44 1479.7 L1975.33 1479.7 L1975.33 1485.58 L1970.44 1485.58 L1970.44 1479.7 Z" fill="#000000" fill-rule="nonzero" fill-opacity="1" /><path clip-path="url(#clip740)" d="M1995.51 1469.17 Q1992.18 1469.17 1990.26 1470.95 Q1988.36 1472.73 1988.36 1475.86 Q1988.36 1478.98 1990.26 1480.77 Q1992.18 1482.55 1995.51 1482.55 Q1998.85 1482.55 2000.77 1480.77 Q2002.69 1478.96 2002.69 1475.86 Q2002.69 1472.73 2000.77 1470.95 Q1998.87 1469.17 1995.51 1469.17 M1990.84 1467.18 Q1987.83 1466.44 1986.14 1464.38 Q1984.47 1462.32 1984.47 1459.35 Q1984.47 1455.21 1987.41 1452.8 Q1990.37 1450.39 1995.51 1450.39 Q2000.67 1450.39 2003.61 1452.8 Q2006.55 1455.21 2006.55 1459.35 Q2006.55 1462.32 2004.86 1464.38 Q2003.2 1466.44 2000.21 1467.18 Q2003.59 1467.96 2005.47 1470.26 Q2007.36 1472.55 2007.36 1475.86 Q2007.36 1480.88 2004.28 1483.57 Q2001.23 1486.25 1995.51 1486.25 Q1989.79 1486.25 1986.72 1483.57 Q1983.66 1480.88 1983.66 1475.86 Q1983.66 1472.55 1985.56 1470.26 Q1987.46 1467.96 1990.84 1467.18 M1989.12 1459.79 Q1989.12 1462.48 1990.79 1463.98 Q1992.48 1465.49 1995.51 1465.49 Q1998.52 1465.49 2000.21 1463.98 Q2001.92 1462.48 2001.92 1459.79 Q2001.92 1457.11 2000.21 1455.6 Q1998.52 1454.1 1995.51 1454.1 Q1992.48 1454.1 1990.79 1455.6 Q1989.12 1457.11 1989.12 1459.79 Z" fill="#000000" fill-rule="nonzero" fill-opacity="1" /><path clip-path="url(#clip740)" d="M1267.53 1518.52 L1273.41 1518.52 L1273.41 1547.77 L1290.89 1532.4 L1298.37 1532.4 L1279.46 1549.07 L1299.16 1568.04 L1291.53 1568.04 L1273.41 1550.63 L1273.41 1568.04 L1267.53 1568.04 L1267.53 1518.52 Z" fill="#000000" fill-rule="nonzero" fill-opacity="1" /><path clip-path="url(#clip740)" d="M1304.7 1520.52 L1335.26 1520.52 L1335.26 1523.26 L1318.01 1568.04 L1311.29 1568.04 L1327.52 1525.93 L1304.7 1525.93 L1304.7 1520.52 Z" fill="#000000" fill-rule="nonzero" fill-opacity="1" /><polyline clip-path="url(#clip740)" style="stroke:#000000; stroke-linecap:round; stroke-linejoin:round; stroke-width:4; stroke-opacity:1; fill:none" points="250.028,1423.18 250.028,47.2441 "/>
<polyline clip-path="url(#clip740)" style="stroke:#000000; stroke-linecap:round; stroke-linejoin:round; stroke-width:4; stroke-opacity:1; fill:none" points="250.028,1201.66 268.926,1201.66 "/>
<polyline clip-path="url(#clip740)" style="stroke:#000000; stroke-linecap:round; stroke-linejoin:round; stroke-width:4; stroke-opacity:1; fill:none" points="250.028,954.898 268.926,954.898 "/>
<polyline clip-path="url(#clip740)" style="stroke:#000000; stroke-linecap:round; stroke-linejoin:round; stroke-width:4; stroke-opacity:1; fill:none" points="250.028,708.135 268.926,708.135 "/>
<polyline clip-path="url(#clip740)" style="stroke:#000000; stroke-linecap:round; stroke-linejoin:round; stroke-width:4; stroke-opacity:1; fill:none" points="250.028,461.372 268.926,461.372 "/>
<polyline clip-path="url(#clip740)" style="stroke:#000000; stroke-linecap:round; stroke-linejoin:round; stroke-width:4; stroke-opacity:1; fill:none" points="250.028,214.609 268.926,214.609 "/>
<path clip-path="url(#clip740)" d="M126.205 1187.46 Q122.593 1187.46 120.765 1191.02 Q118.959 1194.57 118.959 1201.7 Q118.959 1208.8 120.765 1212.37 Q122.593 1215.91 126.205 1215.91 Q129.839 1215.91 131.644 1212.37 Q133.473 1208.8 133.473 1201.7 Q133.473 1194.57 131.644 1191.02 Q129.839 1187.46 126.205 1187.46 M126.205 1183.76 Q132.015 1183.76 135.07 1188.36 Q138.149 1192.95 138.149 1201.7 Q138.149 1210.42 135.07 1215.03 Q132.015 1219.61 126.205 1219.61 Q120.394 1219.61 117.316 1215.03 Q114.26 1210.42 114.26 1201.7 Q114.26 1192.95 117.316 1188.36 Q120.394 1183.76 126.205 1183.76 Z" fill="#000000" fill-rule="nonzero" fill-opacity="1" /><path clip-path="url(#clip740)" d="M146.366 1213.06 L151.251 1213.06 L151.251 1218.94 L146.366 1218.94 L146.366 1213.06 Z" fill="#000000" fill-rule="nonzero" fill-opacity="1" /><path clip-path="url(#clip740)" d="M171.436 1202.53 Q168.102 1202.53 166.181 1204.31 Q164.283 1206.09 164.283 1209.22 Q164.283 1212.34 166.181 1214.13 Q168.102 1215.91 171.436 1215.91 Q174.769 1215.91 176.69 1214.13 Q178.612 1212.32 178.612 1209.22 Q178.612 1206.09 176.69 1204.31 Q174.792 1202.53 171.436 1202.53 M166.76 1200.54 Q163.751 1199.8 162.061 1197.74 Q160.394 1195.68 160.394 1192.71 Q160.394 1188.57 163.334 1186.16 Q166.297 1183.76 171.436 1183.76 Q176.598 1183.76 179.538 1186.16 Q182.477 1188.57 182.477 1192.71 Q182.477 1195.68 180.788 1197.74 Q179.121 1199.8 176.135 1200.54 Q179.514 1201.33 181.389 1203.62 Q183.288 1205.91 183.288 1209.22 Q183.288 1214.24 180.209 1216.93 Q177.153 1219.61 171.436 1219.61 Q165.718 1219.61 162.64 1216.93 Q159.584 1214.24 159.584 1209.22 Q159.584 1205.91 161.482 1203.62 Q163.38 1201.33 166.76 1200.54 M165.047 1193.15 Q165.047 1195.84 166.714 1197.34 Q168.403 1198.85 171.436 1198.85 Q174.445 1198.85 176.135 1197.34 Q177.848 1195.84 177.848 1193.15 Q177.848 1190.47 176.135 1188.96 Q174.445 1187.46 171.436 1187.46 Q168.403 1187.46 166.714 1188.96 Q165.047 1190.47 165.047 1193.15 Z" fill="#000000" fill-rule="nonzero" fill-opacity="1" /><path clip-path="url(#clip740)" d="M204.445 1188.46 L192.639 1206.9 L204.445 1206.9 L204.445 1188.46 M203.218 1184.38 L209.098 1184.38 L209.098 1206.9 L214.028 1206.9 L214.028 1210.79 L209.098 1210.79 L209.098 1218.94 L204.445 1218.94 L204.445 1210.79 L188.843 1210.79 L188.843 1206.28 L203.218 1184.38 Z" fill="#000000" fill-rule="nonzero" fill-opacity="1" /><path clip-path="url(#clip740)" d="M126.529 940.697 Q122.918 940.697 121.089 944.262 Q119.283 947.803 119.283 954.933 Q119.283 962.04 121.089 965.604 Q122.918 969.146 126.529 969.146 Q130.163 969.146 131.968 965.604 Q133.797 962.04 133.797 954.933 Q133.797 947.803 131.968 944.262 Q130.163 940.697 126.529 940.697 M126.529 936.993 Q132.339 936.993 135.394 941.6 Q138.473 946.183 138.473 954.933 Q138.473 963.66 135.394 968.266 Q132.339 972.85 126.529 972.85 Q120.718 972.85 117.64 968.266 Q114.584 963.66 114.584 954.933 Q114.584 946.183 117.64 941.6 Q120.718 936.993 126.529 936.993 Z" fill="#000000" fill-rule="nonzero" fill-opacity="1" /><path clip-path="url(#clip740)" d="M146.691 966.299 L151.575 966.299 L151.575 972.178 L146.691 972.178 L146.691 966.299 Z" fill="#000000" fill-rule="nonzero" fill-opacity="1" /><path clip-path="url(#clip740)" d="M171.76 955.766 Q168.427 955.766 166.505 957.549 Q164.607 959.331 164.607 962.456 Q164.607 965.581 166.505 967.364 Q168.427 969.146 171.76 969.146 Q175.093 969.146 177.014 967.364 Q178.936 965.558 178.936 962.456 Q178.936 959.331 177.014 957.549 Q175.116 955.766 171.76 955.766 M167.084 953.776 Q164.075 953.035 162.385 950.975 Q160.718 948.915 160.718 945.952 Q160.718 941.808 163.658 939.401 Q166.621 936.993 171.76 936.993 Q176.922 936.993 179.862 939.401 Q182.801 941.808 182.801 945.952 Q182.801 948.915 181.112 950.975 Q179.445 953.035 176.459 953.776 Q179.839 954.563 181.713 956.854 Q183.612 959.146 183.612 962.456 Q183.612 967.479 180.533 970.164 Q177.477 972.85 171.76 972.85 Q166.042 972.85 162.964 970.164 Q159.908 967.479 159.908 962.456 Q159.908 959.146 161.806 956.854 Q163.704 954.563 167.084 953.776 M165.371 946.391 Q165.371 949.077 167.038 950.581 Q168.727 952.086 171.76 952.086 Q174.769 952.086 176.459 950.581 Q178.172 949.077 178.172 946.391 Q178.172 943.706 176.459 942.202 Q174.769 940.697 171.76 940.697 Q168.727 940.697 167.038 942.202 Q165.371 943.706 165.371 946.391 Z" fill="#000000" fill-rule="nonzero" fill-opacity="1" /><path clip-path="url(#clip740)" d="M202.5 953.035 Q199.352 953.035 197.5 955.188 Q195.672 957.34 195.672 961.09 Q195.672 964.817 197.5 966.993 Q199.352 969.146 202.5 969.146 Q205.649 969.146 207.477 966.993 Q209.329 964.817 209.329 961.09 Q209.329 957.34 207.477 955.188 Q205.649 953.035 202.5 953.035 M211.783 938.382 L211.783 942.641 Q210.024 941.808 208.218 941.368 Q206.436 940.929 204.676 940.929 Q200.047 940.929 197.593 944.053 Q195.163 947.178 194.815 953.498 Q196.181 951.484 198.241 950.419 Q200.301 949.331 202.778 949.331 Q207.987 949.331 210.996 952.503 Q214.028 955.651 214.028 961.09 Q214.028 966.414 210.88 969.632 Q207.732 972.85 202.5 972.85 Q196.505 972.85 193.334 968.266 Q190.163 963.66 190.163 954.933 Q190.163 946.739 194.051 941.878 Q197.94 936.993 204.491 936.993 Q206.25 936.993 208.033 937.341 Q209.838 937.688 211.783 938.382 Z" fill="#000000" fill-rule="nonzero" fill-opacity="1" /><path clip-path="url(#clip740)" d="M126.783 693.934 Q123.172 693.934 121.343 697.499 Q119.538 701.041 119.538 708.17 Q119.538 715.277 121.343 718.841 Q123.172 722.383 126.783 722.383 Q130.417 722.383 132.223 718.841 Q134.052 715.277 134.052 708.17 Q134.052 701.041 132.223 697.499 Q130.417 693.934 126.783 693.934 M126.783 690.23 Q132.593 690.23 135.649 694.837 Q138.728 699.42 138.728 708.17 Q138.728 716.897 135.649 721.503 Q132.593 726.087 126.783 726.087 Q120.973 726.087 117.894 721.503 Q114.839 716.897 114.839 708.17 Q114.839 699.42 117.894 694.837 Q120.973 690.23 126.783 690.23 Z" fill="#000000" fill-rule="nonzero" fill-opacity="1" /><path clip-path="url(#clip740)" d="M146.945 719.536 L151.829 719.536 L151.829 725.415 L146.945 725.415 L146.945 719.536 Z" fill="#000000" fill-rule="nonzero" fill-opacity="1" /><path clip-path="url(#clip740)" d="M172.014 709.003 Q168.681 709.003 166.76 710.786 Q164.862 712.568 164.862 715.693 Q164.862 718.818 166.76 720.601 Q168.681 722.383 172.014 722.383 Q175.348 722.383 177.269 720.601 Q179.19 718.795 179.19 715.693 Q179.19 712.568 177.269 710.786 Q175.371 709.003 172.014 709.003 M167.339 707.013 Q164.329 706.272 162.64 704.212 Q160.973 702.152 160.973 699.189 Q160.973 695.045 163.913 692.638 Q166.876 690.23 172.014 690.23 Q177.176 690.23 180.116 692.638 Q183.056 695.045 183.056 699.189 Q183.056 702.152 181.366 704.212 Q179.7 706.272 176.714 707.013 Q180.093 707.8 181.968 710.091 Q183.866 712.383 183.866 715.693 Q183.866 720.716 180.788 723.402 Q177.732 726.087 172.014 726.087 Q166.297 726.087 163.218 723.402 Q160.163 720.716 160.163 715.693 Q160.163 712.383 162.061 710.091 Q163.959 707.8 167.339 707.013 M165.626 699.628 Q165.626 702.314 167.292 703.818 Q168.982 705.323 172.014 705.323 Q175.024 705.323 176.714 703.818 Q178.426 702.314 178.426 699.628 Q178.426 696.943 176.714 695.439 Q175.024 693.934 172.014 693.934 Q168.982 693.934 167.292 695.439 Q165.626 696.943 165.626 699.628 Z" fill="#000000" fill-rule="nonzero" fill-opacity="1" /><path clip-path="url(#clip740)" d="M202.176 709.003 Q198.843 709.003 196.922 710.786 Q195.024 712.568 195.024 715.693 Q195.024 718.818 196.922 720.601 Q198.843 722.383 202.176 722.383 Q205.51 722.383 207.431 720.601 Q209.352 718.795 209.352 715.693 Q209.352 712.568 207.431 710.786 Q205.533 709.003 202.176 709.003 M197.5 707.013 Q194.491 706.272 192.801 704.212 Q191.135 702.152 191.135 699.189 Q191.135 695.045 194.075 692.638 Q197.037 690.23 202.176 690.23 Q207.338 690.23 210.278 692.638 Q213.218 695.045 213.218 699.189 Q213.218 702.152 211.528 704.212 Q209.861 706.272 206.875 707.013 Q210.255 707.8 212.13 710.091 Q214.028 712.383 214.028 715.693 Q214.028 720.716 210.949 723.402 Q207.894 726.087 202.176 726.087 Q196.459 726.087 193.38 723.402 Q190.325 720.716 190.325 715.693 Q190.325 712.383 192.223 710.091 Q194.121 707.8 197.5 707.013 M195.787 699.628 Q195.787 702.314 197.454 703.818 Q199.144 705.323 202.176 705.323 Q205.186 705.323 206.875 703.818 Q208.588 702.314 208.588 699.628 Q208.588 696.943 206.875 695.439 Q205.186 693.934 202.176 693.934 Q199.144 693.934 197.454 695.439 Q195.787 696.943 195.787 699.628 Z" fill="#000000" fill-rule="nonzero" fill-opacity="1" /><path clip-path="url(#clip740)" d="M126.691 447.171 Q123.08 447.171 121.251 450.736 Q119.445 454.278 119.445 461.407 Q119.445 468.514 121.251 472.078 Q123.08 475.62 126.691 475.62 Q130.325 475.62 132.13 472.078 Q133.959 468.514 133.959 461.407 Q133.959 454.278 132.13 450.736 Q130.325 447.171 126.691 447.171 M126.691 443.467 Q132.501 443.467 135.556 448.074 Q138.635 452.657 138.635 461.407 Q138.635 470.134 135.556 474.74 Q132.501 479.324 126.691 479.324 Q120.88 479.324 117.802 474.74 Q114.746 470.134 114.746 461.407 Q114.746 452.657 117.802 448.074 Q120.88 443.467 126.691 443.467 Z" fill="#000000" fill-rule="nonzero" fill-opacity="1" /><path clip-path="url(#clip740)" d="M146.853 472.773 L151.737 472.773 L151.737 478.652 L146.853 478.652 L146.853 472.773 Z" fill="#000000" fill-rule="nonzero" fill-opacity="1" /><path clip-path="url(#clip740)" d="M162.061 477.935 L162.061 473.676 Q163.82 474.509 165.626 474.949 Q167.431 475.389 169.167 475.389 Q173.797 475.389 176.227 472.287 Q178.681 469.162 179.028 462.819 Q177.686 464.81 175.626 465.875 Q173.565 466.94 171.065 466.94 Q165.88 466.94 162.848 463.815 Q159.839 460.666 159.839 455.227 Q159.839 449.903 162.987 446.685 Q166.135 443.467 171.366 443.467 Q177.362 443.467 180.51 448.074 Q183.681 452.657 183.681 461.407 Q183.681 469.578 179.792 474.463 Q175.926 479.324 169.376 479.324 Q167.616 479.324 165.811 478.977 Q164.005 478.629 162.061 477.935 M171.366 463.282 Q174.514 463.282 176.343 461.129 Q178.195 458.977 178.195 455.227 Q178.195 451.5 176.343 449.347 Q174.514 447.171 171.366 447.171 Q168.218 447.171 166.366 449.347 Q164.538 451.5 164.538 455.227 Q164.538 458.977 166.366 461.129 Q168.218 463.282 171.366 463.282 Z" fill="#000000" fill-rule="nonzero" fill-opacity="1" /><path clip-path="url(#clip740)" d="M202.084 447.171 Q198.473 447.171 196.644 450.736 Q194.838 454.278 194.838 461.407 Q194.838 468.514 196.644 472.078 Q198.473 475.62 202.084 475.62 Q205.718 475.62 207.524 472.078 Q209.352 468.514 209.352 461.407 Q209.352 454.278 207.524 450.736 Q205.718 447.171 202.084 447.171 M202.084 443.467 Q207.894 443.467 210.949 448.074 Q214.028 452.657 214.028 461.407 Q214.028 470.134 210.949 474.74 Q207.894 479.324 202.084 479.324 Q196.274 479.324 193.195 474.74 Q190.139 470.134 190.139 461.407 Q190.139 452.657 193.195 448.074 Q196.274 443.467 202.084 443.467 Z" fill="#000000" fill-rule="nonzero" fill-opacity="1" /><path clip-path="url(#clip740)" d="M128.288 200.408 Q124.677 200.408 122.848 203.973 Q121.043 207.515 121.043 214.644 Q121.043 221.751 122.848 225.315 Q124.677 228.857 128.288 228.857 Q131.922 228.857 133.728 225.315 Q135.556 221.751 135.556 214.644 Q135.556 207.515 133.728 203.973 Q131.922 200.408 128.288 200.408 M128.288 196.704 Q134.098 196.704 137.154 201.311 Q140.232 205.894 140.232 214.644 Q140.232 223.371 137.154 227.977 Q134.098 232.561 128.288 232.561 Q122.478 232.561 119.399 227.977 Q116.343 223.371 116.343 214.644 Q116.343 205.894 119.399 201.311 Q122.478 196.704 128.288 196.704 Z" fill="#000000" fill-rule="nonzero" fill-opacity="1" /><path clip-path="url(#clip740)" d="M148.45 226.01 L153.334 226.01 L153.334 231.889 L148.45 231.889 L148.45 226.01 Z" fill="#000000" fill-rule="nonzero" fill-opacity="1" /><path clip-path="url(#clip740)" d="M163.658 231.172 L163.658 226.913 Q165.417 227.746 167.223 228.186 Q169.028 228.626 170.764 228.626 Q175.394 228.626 177.825 225.524 Q180.278 222.399 180.626 216.056 Q179.283 218.047 177.223 219.112 Q175.163 220.177 172.663 220.177 Q167.477 220.177 164.445 217.052 Q161.436 213.903 161.436 208.464 Q161.436 203.14 164.584 199.922 Q167.732 196.704 172.964 196.704 Q178.959 196.704 182.107 201.311 Q185.278 205.894 185.278 214.644 Q185.278 222.815 181.389 227.7 Q177.524 232.561 170.973 232.561 Q169.214 232.561 167.408 232.214 Q165.602 231.866 163.658 231.172 M172.964 216.519 Q176.112 216.519 177.94 214.366 Q179.792 212.214 179.792 208.464 Q179.792 204.737 177.94 202.584 Q176.112 200.408 172.964 200.408 Q169.815 200.408 167.964 202.584 Q166.135 204.737 166.135 208.464 Q166.135 212.214 167.964 214.366 Q169.815 216.519 172.964 216.519 Z" fill="#000000" fill-rule="nonzero" fill-opacity="1" /><path clip-path="url(#clip740)" d="M197.709 227.954 L214.028 227.954 L214.028 231.889 L192.084 231.889 L192.084 227.954 Q194.746 225.2 199.329 220.57 Q203.936 215.917 205.116 214.575 Q207.362 212.052 208.241 210.316 Q209.144 208.556 209.144 206.866 Q209.144 204.112 207.199 202.376 Q205.278 200.64 202.176 200.64 Q199.977 200.64 197.524 201.404 Q195.093 202.167 192.315 203.718 L192.315 198.996 Q195.139 197.862 197.593 197.283 Q200.047 196.704 202.084 196.704 Q207.454 196.704 210.649 199.39 Q213.843 202.075 213.843 206.566 Q213.843 208.695 213.033 210.616 Q212.246 212.515 210.139 215.107 Q209.561 215.778 206.459 218.996 Q203.357 222.19 197.709 227.954 Z" fill="#000000" fill-rule="nonzero" fill-opacity="1" /><path clip-path="url(#clip740)" d="M14.479 769.635 L14.479 763.746 L43.7294 763.746 L28.3562 746.272 L28.3562 738.793 L45.0344 757.699 L64.0042 737.997 L64.0042 745.636 L46.5939 763.746 L64.0042 763.746 L64.0042 769.635 L14.479 769.635 Z" fill="#000000" fill-rule="nonzero" fill-opacity="1" /><path clip-path="url(#clip740)" d="M41.4377 717.086 Q41.4377 721.669 43.8885 724.311 Q46.3393 726.921 50.6362 726.921 Q54.933 726.921 57.3838 724.311 Q59.8346 721.669 59.8346 717.086 Q59.8346 712.502 57.3838 709.861 Q54.9012 707.219 50.6362 707.219 Q46.3393 707.219 43.8885 709.861 Q41.4377 712.47 41.4377 717.086 M38.7005 723.515 Q37.682 727.653 34.8492 729.976 Q32.0165 732.268 27.9424 732.268 Q22.2451 732.268 18.935 728.226 Q15.6248 724.152 15.6248 717.086 Q15.6248 709.988 18.935 705.946 Q22.2451 701.903 27.9424 701.903 Q32.0165 701.903 34.8492 704.227 Q37.682 706.519 38.7005 710.624 Q39.7826 705.977 42.9337 703.399 Q46.0847 700.789 50.6362 700.789 Q57.543 700.789 61.2351 705.023 Q64.9272 709.224 64.9272 717.086 Q64.9272 724.947 61.2351 729.18 Q57.543 733.382 50.6362 733.382 Q46.0847 733.382 42.9337 730.772 Q39.7826 728.162 38.7005 723.515 M28.5472 725.87 Q32.2393 725.87 34.3081 723.579 Q36.377 721.255 36.377 717.086 Q36.377 712.948 34.3081 710.624 Q32.2393 708.269 28.5472 708.269 Q24.8551 708.269 22.7862 710.624 Q20.7174 712.948 20.7174 717.086 Q20.7174 721.255 22.7862 723.579 Q24.8551 725.87 28.5472 725.87 Z" fill="#000000" fill-rule="nonzero" fill-opacity="1" /><polyline clip-path="url(#clip742)" style="stroke:#009af9; stroke-linecap:round; stroke-linejoin:round; stroke-width:4; stroke-opacity:1; fill:none" points="309.539,1384.24 312.199,1381.75 316.087,1378.11 321.771,1372.8 329.869,1365.25 341.413,1354.49 357.88,1339.2 381.389,1317.46 414.999,1286.56 463.133,1242.7 517.841,1193.42 572.984,1144.38 628.552,1095.65 684.535,1047.26 740.921,999.272 797.698,951.735 854.853,904.707 912.37,858.245 970.234,812.408 1028.43,767.257 1086.94,722.854 1145.74,679.263 1204.81,636.546 1264.14,594.77 1323.7,553.999 1383.47,514.298 1443.43,475.733 1503.55,438.367 1563.8,402.264 1624.17,367.487 1684.62,334.094 1745.13,302.146 1805.68,271.696 1866.23,242.797 1926.76,215.499 1987.24,189.848 2047.64,165.885 2107.94,143.648 2168.11,123.171 2228.1,104.485 2280.43,89.6187 2287.8,87.6344 2292.66,86.3397 2293.02,86.2445 2293.22,86.1924 2293.24,86.1857 2293.13,86.2169 2289.76,87.1123 2289.6,87.1547 2289.37,87.2167 2289.02,87.3075 "/>
<circle clip-path="url(#clip742)" cx="2280.43" cy="89.6187" r="10.8" fill="#cd0000" fill-rule="evenodd" fill-opacity="1" stroke="none"/>
<circle clip-path="url(#clip742)" cx="2293.24" cy="86.1857" r="10.8" fill="#cd0000" fill-rule="evenodd" fill-opacity="1" stroke="none"/>
<circle clip-path="url(#clip742)" cx="2289.76" cy="87.1123" r="10.8" fill="#cd0000" fill-rule="evenodd" fill-opacity="1" stroke="none"/>
<circle clip-path="url(#clip742)" cx="2280.43" cy="89.6187" r="10.8" fill="#cd0000" fill-rule="evenodd" fill-opacity="1" stroke="none"/>
<path clip-path="url(#clip740)" d="M320.119 196.789 L579.859 196.789 L579.859 93.1086 L320.119 93.1086  Z" fill="#ffffff" fill-rule="evenodd" fill-opacity="1"/>
<polyline clip-path="url(#clip740)" style="stroke:#000000; stroke-linecap:round; stroke-linejoin:round; stroke-width:4; stroke-opacity:1; fill:none" points="320.119,196.789 579.859,196.789 579.859,93.1086 320.119,93.1086 320.119,196.789 "/>
<circle clip-path="url(#clip740)" cx="413.574" cy="144.949" r="23.04" fill="#cd0000" fill-rule="evenodd" fill-opacity="1" stroke="none"/>
<path clip-path="url(#clip740)" d="M527.537 137.298 L527.537 141.28 Q525.732 140.284 523.903 139.798 Q522.098 139.289 520.246 139.289 Q516.102 139.289 513.811 141.928 Q511.519 144.544 511.519 149.289 Q511.519 154.034 513.811 156.673 Q516.102 159.289 520.246 159.289 Q522.098 159.289 523.903 158.803 Q525.732 158.293 527.537 157.298 L527.537 161.233 Q525.755 162.067 523.834 162.483 Q521.936 162.9 519.783 162.9 Q513.926 162.9 510.477 159.219 Q507.028 155.539 507.028 149.289 Q507.028 142.946 510.5 139.312 Q513.996 135.678 520.061 135.678 Q522.028 135.678 523.903 136.095 Q525.778 136.488 527.537 137.298 Z" fill="#000000" fill-rule="nonzero" fill-opacity="1" /><path clip-path="url(#clip740)" d="M556.496 146.581 L556.496 162.229 L552.236 162.229 L552.236 146.719 Q552.236 143.039 550.801 141.21 Q549.366 139.382 546.496 139.382 Q543.047 139.382 541.056 141.581 Q539.065 143.78 539.065 147.576 L539.065 162.229 L534.783 162.229 L534.783 126.21 L539.065 126.21 L539.065 140.331 Q540.593 137.993 542.653 136.835 Q544.736 135.678 547.445 135.678 Q551.912 135.678 554.204 138.456 Q556.496 141.21 556.496 146.581 Z" fill="#000000" fill-rule="nonzero" fill-opacity="1" /></svg>
