<?xml version="1.0" encoding="utf-8"?>
<svg xmlns="http://www.w3.org/2000/svg" xmlns:xlink="http://www.w3.org/1999/xlink" width="600" height="400" viewBox="0 0 2400 1600">
<defs>
  <clipPath id="clip180">
    <rect x="0" y="0" width="2400" height="1600"/>
  </clipPath>
</defs>
<path clip-path="url(#clip180)" d="M0 1600 L2400 1600 L2400 0 L0 0  Z" fill="#ffffff" fill-rule="evenodd" fill-opacity="1"/>
<defs>
  <clipPath id="clip181">
    <rect x="480" y="0" width="1681" height="1600"/>
  </clipPath>
</defs>
<path clip-path="url(#clip180)" d="M219.033 1423.18 L2352.76 1423.18 L2352.76 47.2441 L219.033 47.2441  Z" fill="#ffffff" fill-rule="evenodd" fill-opacity="1"/>
<defs>
  <clipPath id="clip182">
    <rect x="219" y="47" width="2135" height="1377"/>
  </clipPath>
</defs>
<polyline clip-path="url(#clip182)" style="stroke:#000000; stroke-linecap:round; stroke-linejoin:round; stroke-width:2; stroke-opacity:0.1; fill:none" points="279.421,1423.18 279.421,47.2441 "/>
<polyline clip-path="url(#clip182)" style="stroke:#000000; stroke-linecap:round; stroke-linejoin:round; stroke-width:2; stroke-opacity:0.1; fill:none" points="967.881,1423.18 967.881,47.2441 "/>
<polyline clip-path="url(#clip182)" style="stroke:#000000; stroke-linecap:round; stroke-linejoin:round; stroke-width:2; stroke-opacity:0.1; fill:none" points="1656.34,1423.18 1656.34,47.2441 "/>
<polyline clip-path="url(#clip182)" style="stroke:#000000; stroke-linecap:round; stroke-linejoin:round; stroke-width:2; stroke-opacity:0.1; fill:none" points="2344.8,1423.18 2344.8,47.2441 "/>
<polyline clip-path="url(#clip182)" style="stroke:#000000; stroke-linecap:round; stroke-linejoin:round; stroke-width:2; stroke-opacity:0.1; fill:none" points="219.033,1301.98 2352.76,1301.98 "/>
<polyline clip-path="url(#clip182)" style="stroke:#000000; stroke-linecap:round; stroke-linejoin:round; stroke-width:2; stroke-opacity:0.1; fill:none" points="219.033,993.086 2352.76,993.086 "/>
<polyline clip-path="url(#clip182)" style="stroke:#000000; stroke-linecap:round; stroke-linejoin:round; stroke-width:2; stroke-opacity:0.1; fill:none" points="219.033,684.197 2352.76,684.197 "/>
<polyline clip-path="url(#clip182)" style="stroke:#000000; stroke-linecap:round; stroke-linejoin:round; stroke-width:2; stroke-opacity:0.1; fill:none" points="219.033,375.307 2352.76,375.307 "/>
<polyline clip-path="url(#clip182)" style="stroke:#000000; stroke-linecap:round; stroke-linejoin:round; stroke-width:2; stroke-opacity:0.1; fill:none" points="219.033,66.4178 2352.76,66.4178 "/>
<polyline clip-path="url(#clip180)" style="stroke:#000000; stroke-linecap:round; stroke-linejoin:round; stroke-width:4; stroke-opacity:1; fill:none" points="219.033,1423.18 2352.76,1423.18 "/>
<polyline clip-path="url(#clip180)" style="stroke:#000000; stroke-linecap:round; stroke-linejoin:round; stroke-width:4; stroke-opacity:1; fill:none" points="279.421,1423.18 279.421,1404.28 "/>
<polyline clip-path="url(#clip180)" style="stroke:#000000; stroke-linecap:round; stroke-linejoin:round; stroke-width:4; stroke-opacity:1; fill:none" points="967.881,1423.18 967.881,1404.28 "/>
<polyline clip-path="url(#clip180)" style="stroke:#000000; stroke-linecap:round; stroke-linejoin:round; stroke-width:4; stroke-opacity:1; fill:none" points="1656.34,1423.18 1656.34,1404.28 "/>
<polyline clip-path="url(#clip180)" style="stroke:#000000; stroke-linecap:round; stroke-linejoin:round; stroke-width:4; stroke-opacity:1; fill:none" points="2344.8,1423.18 2344.8,1404.28 "/>
<path clip-path="url(#clip180)" d="M256.806 1454.1 Q253.195 1454.1 251.366 1457.66 Q249.56 1461.2 249.56 1468.33 Q249.56 1475.44 251.366 1479.01 Q253.195 1482.55 256.806 1482.55 Q260.44 1482.55 262.245 1479.01 Q264.074 1475.44 264.074 1468.33 Q264.074 1461.2 262.245 1457.66 Q260.44 1454.1 256.806 1454.1 M256.806 1450.39 Q262.616 1450.39 265.671 1455 Q268.75 1459.58 268.75 1468.33 Q268.75 1477.06 265.671 1481.67 Q262.616 1486.25 256.806 1486.25 Q250.996 1486.25 247.917 1481.67 Q244.861 1477.06 244.861 1468.33 Q244.861 1459.58 247.917 1455 Q250.996 1450.39 256.806 1450.39 Z" fill="#000000" fill-rule="nonzero" fill-opacity="1" /><path clip-path="url(#clip180)" d="M276.968 1479.7 L281.852 1479.7 L281.852 1485.58 L276.968 1485.58 L276.968 1479.7 Z" fill="#000000" fill-rule="nonzero" fill-opacity="1" /><path clip-path="url(#clip180)" d="M302.037 1454.1 Q298.426 1454.1 296.597 1457.66 Q294.792 1461.2 294.792 1468.33 Q294.792 1475.44 296.597 1479.01 Q298.426 1482.55 302.037 1482.55 Q305.671 1482.55 307.477 1479.01 Q309.305 1475.44 309.305 1468.33 Q309.305 1461.2 307.477 1457.66 Q305.671 1454.1 302.037 1454.1 M302.037 1450.39 Q307.847 1450.39 310.903 1455 Q313.981 1459.58 313.981 1468.33 Q313.981 1477.06 310.903 1481.67 Q307.847 1486.25 302.037 1486.25 Q296.227 1486.25 293.148 1481.67 Q290.093 1477.06 290.093 1468.33 Q290.093 1459.58 293.148 1455 Q296.227 1450.39 302.037 1450.39 Z" fill="#000000" fill-rule="nonzero" fill-opacity="1" /><path clip-path="url(#clip180)" d="M945.763 1454.1 Q942.152 1454.1 940.323 1457.66 Q938.518 1461.2 938.518 1468.33 Q938.518 1475.44 940.323 1479.01 Q942.152 1482.55 945.763 1482.55 Q949.397 1482.55 951.203 1479.01 Q953.032 1475.44 953.032 1468.33 Q953.032 1461.2 951.203 1457.66 Q949.397 1454.1 945.763 1454.1 M945.763 1450.39 Q951.573 1450.39 954.629 1455 Q957.708 1459.58 957.708 1468.33 Q957.708 1477.06 954.629 1481.67 Q951.573 1486.25 945.763 1486.25 Q939.953 1486.25 936.874 1481.67 Q933.819 1477.06 933.819 1468.33 Q933.819 1459.58 936.874 1455 Q939.953 1450.39 945.763 1450.39 Z" fill="#000000" fill-rule="nonzero" fill-opacity="1" /><path clip-path="url(#clip180)" d="M965.925 1479.7 L970.809 1479.7 L970.809 1485.58 L965.925 1485.58 L965.925 1479.7 Z" fill="#000000" fill-rule="nonzero" fill-opacity="1" /><path clip-path="url(#clip180)" d="M981.041 1451.02 L999.397 1451.02 L999.397 1454.96 L985.323 1454.96 L985.323 1463.43 Q986.342 1463.08 987.36 1462.92 Q988.379 1462.73 989.397 1462.73 Q995.184 1462.73 998.564 1465.9 Q1001.94 1469.08 1001.94 1474.49 Q1001.94 1480.07 998.471 1483.17 Q994.999 1486.25 988.68 1486.25 Q986.504 1486.25 984.235 1485.88 Q981.99 1485.51 979.582 1484.77 L979.582 1480.07 Q981.666 1481.2 983.888 1481.76 Q986.11 1482.32 988.587 1482.32 Q992.592 1482.32 994.93 1480.21 Q997.267 1478.1 997.267 1474.49 Q997.267 1470.88 994.93 1468.77 Q992.592 1466.67 988.587 1466.67 Q986.712 1466.67 984.837 1467.08 Q982.985 1467.5 981.041 1468.38 L981.041 1451.02 Z" fill="#000000" fill-rule="nonzero" fill-opacity="1" /><path clip-path="url(#clip180)" d="M1623.49 1481.64 L1631.13 1481.64 L1631.13 1455.28 L1622.82 1456.95 L1622.82 1452.69 L1631.09 1451.02 L1635.76 1451.02 L1635.76 1481.64 L1643.4 1481.64 L1643.4 1485.58 L1623.49 1485.58 L1623.49 1481.64 Z" fill="#000000" fill-rule="nonzero" fill-opacity="1" /><path clip-path="url(#clip180)" d="M1652.85 1479.7 L1657.73 1479.7 L1657.73 1485.58 L1652.85 1485.58 L1652.85 1479.7 Z" fill="#000000" fill-rule="nonzero" fill-opacity="1" /><path clip-path="url(#clip180)" d="M1677.91 1454.1 Q1674.3 1454.1 1672.47 1457.66 Q1670.67 1461.2 1670.67 1468.33 Q1670.67 1475.44 1672.47 1479.01 Q1674.3 1482.55 1677.91 1482.55 Q1681.55 1482.55 1683.35 1479.01 Q1685.18 1475.44 1685.18 1468.33 Q1685.18 1461.2 1683.35 1457.66 Q1681.55 1454.1 1677.91 1454.1 M1677.91 1450.39 Q1683.72 1450.39 1686.78 1455 Q1689.86 1459.58 1689.86 1468.33 Q1689.86 1477.06 1686.78 1481.67 Q1683.72 1486.25 1677.91 1486.25 Q1672.1 1486.25 1669.03 1481.67 Q1665.97 1477.06 1665.97 1468.33 Q1665.97 1459.58 1669.03 1455 Q1672.1 1450.39 1677.91 1450.39 Z" fill="#000000" fill-rule="nonzero" fill-opacity="1" /><path clip-path="url(#clip180)" d="M2312.45 1481.64 L2320.09 1481.64 L2320.09 1455.28 L2311.78 1456.95 L2311.78 1452.69 L2320.04 1451.02 L2324.72 1451.02 L2324.72 1481.64 L2332.36 1481.64 L2332.36 1485.58 L2312.45 1485.58 L2312.45 1481.64 Z" fill="#000000" fill-rule="nonzero" fill-opacity="1" /><path clip-path="url(#clip180)" d="M2341.8 1479.7 L2346.69 1479.7 L2346.69 1485.58 L2341.8 1485.58 L2341.8 1479.7 Z" fill="#000000" fill-rule="nonzero" fill-opacity="1" /><path clip-path="url(#clip180)" d="M2356.92 1451.02 L2375.27 1451.02 L2375.27 1454.96 L2361.2 1454.96 L2361.2 1463.43 Q2362.22 1463.08 2363.24 1462.92 Q2364.26 1462.73 2365.27 1462.73 Q2371.06 1462.73 2374.44 1465.9 Q2377.82 1469.08 2377.82 1474.49 Q2377.82 1480.07 2374.35 1483.17 Q2370.88 1486.25 2364.56 1486.25 Q2362.38 1486.25 2360.11 1485.88 Q2357.87 1485.51 2355.46 1484.77 L2355.46 1480.07 Q2357.54 1481.2 2359.77 1481.76 Q2361.99 1482.32 2364.46 1482.32 Q2368.47 1482.32 2370.81 1480.21 Q2373.15 1478.1 2373.15 1474.49 Q2373.15 1470.88 2370.81 1468.77 Q2368.47 1466.67 2364.46 1466.67 Q2362.59 1466.67 2360.71 1467.08 Q2358.86 1467.5 2356.92 1468.38 L2356.92 1451.02 Z" fill="#000000" fill-rule="nonzero" fill-opacity="1" /><path clip-path="url(#clip180)" d="M1278.56 1538 L1286.36 1560.02 L1297.5 1532.4 L1303.7 1532.4 L1289.28 1568.04 L1289.28 1581.6 L1283.43 1581.6 L1283.43 1568.04 L1274.07 1541.44 Q1272.67 1537.42 1269.65 1537.42 L1268.09 1537.42 L1268.09 1532.4 L1270.31 1532.4 Q1276.58 1532.4 1278.56 1538 Z" fill="#000000" fill-rule="nonzero" fill-opacity="1" /><polyline clip-path="url(#clip180)" style="stroke:#000000; stroke-linecap:round; stroke-linejoin:round; stroke-width:4; stroke-opacity:1; fill:none" points="219.033,1423.18 219.033,47.2441 "/>
<polyline clip-path="url(#clip180)" style="stroke:#000000; stroke-linecap:round; stroke-linejoin:round; stroke-width:4; stroke-opacity:1; fill:none" points="219.033,1301.98 237.931,1301.98 "/>
<polyline clip-path="url(#clip180)" style="stroke:#000000; stroke-linecap:round; stroke-linejoin:round; stroke-width:4; stroke-opacity:1; fill:none" points="219.033,993.086 237.931,993.086 "/>
<polyline clip-path="url(#clip180)" style="stroke:#000000; stroke-linecap:round; stroke-linejoin:round; stroke-width:4; stroke-opacity:1; fill:none" points="219.033,684.197 237.931,684.197 "/>
<polyline clip-path="url(#clip180)" style="stroke:#000000; stroke-linecap:round; stroke-linejoin:round; stroke-width:4; stroke-opacity:1; fill:none" points="219.033,375.307 237.931,375.307 "/>
<polyline clip-path="url(#clip180)" style="stroke:#000000; stroke-linecap:round; stroke-linejoin:round; stroke-width:4; stroke-opacity:1; fill:none" points="219.033,66.4178 237.931,66.4178 "/>
<path clip-path="url(#clip180)" d="M116.668 1315.32 L124.306 1315.32 L124.306 1288.95 L115.996 1290.62 L115.996 1286.36 L124.26 1284.7 L128.936 1284.7 L128.936 1315.32 L136.575 1315.32 L136.575 1319.26 L116.668 1319.26 L116.668 1315.32 Z" fill="#000000" fill-rule="nonzero" fill-opacity="1" /><path clip-path="url(#clip180)" d="M146.019 1313.38 L150.903 1313.38 L150.903 1319.26 L146.019 1319.26 L146.019 1313.38 Z" fill="#000000" fill-rule="nonzero" fill-opacity="1" /><path clip-path="url(#clip180)" d="M171.089 1287.77 Q167.477 1287.77 165.649 1291.34 Q163.843 1294.88 163.843 1302.01 Q163.843 1309.12 165.649 1312.68 Q167.477 1316.22 171.089 1316.22 Q174.723 1316.22 176.528 1312.68 Q178.357 1309.12 178.357 1302.01 Q178.357 1294.88 176.528 1291.34 Q174.723 1287.77 171.089 1287.77 M171.089 1284.07 Q176.899 1284.07 179.954 1288.68 Q183.033 1293.26 183.033 1302.01 Q183.033 1310.74 179.954 1315.34 Q176.899 1319.93 171.089 1319.93 Q165.278 1319.93 162.2 1315.34 Q159.144 1310.74 159.144 1302.01 Q159.144 1293.26 162.2 1288.68 Q165.278 1284.07 171.089 1284.07 Z" fill="#000000" fill-rule="nonzero" fill-opacity="1" /><path clip-path="url(#clip180)" d="M117.663 1006.43 L125.302 1006.43 L125.302 980.065 L116.992 981.732 L116.992 977.473 L125.255 975.806 L129.931 975.806 L129.931 1006.43 L137.57 1006.43 L137.57 1010.37 L117.663 1010.37 L117.663 1006.43 Z" fill="#000000" fill-rule="nonzero" fill-opacity="1" /><path clip-path="url(#clip180)" d="M147.015 1004.49 L151.899 1004.49 L151.899 1010.37 L147.015 1010.37 L147.015 1004.49 Z" fill="#000000" fill-rule="nonzero" fill-opacity="1" /><path clip-path="url(#clip180)" d="M162.13 975.806 L180.487 975.806 L180.487 979.741 L166.413 979.741 L166.413 988.213 Q167.431 987.866 168.45 987.704 Q169.468 987.519 170.487 987.519 Q176.274 987.519 179.653 990.69 Q183.033 993.861 183.033 999.278 Q183.033 1004.86 179.561 1007.96 Q176.089 1011.04 169.769 1011.04 Q167.593 1011.04 165.325 1010.67 Q163.079 1010.3 160.672 1009.56 L160.672 1004.86 Q162.755 1005.99 164.977 1006.55 Q167.2 1007.1 169.677 1007.1 Q173.681 1007.1 176.019 1005 Q178.357 1002.89 178.357 999.278 Q178.357 995.667 176.019 993.561 Q173.681 991.454 169.677 991.454 Q167.802 991.454 165.927 991.871 Q164.075 992.287 162.13 993.167 L162.13 975.806 Z" fill="#000000" fill-rule="nonzero" fill-opacity="1" /><path clip-path="url(#clip180)" d="M119.885 697.541 L136.204 697.541 L136.204 701.477 L114.26 701.477 L114.26 697.541 Q116.922 694.787 121.505 690.157 Q126.112 685.504 127.292 684.162 Q129.538 681.639 130.417 679.903 Q131.32 678.143 131.32 676.454 Q131.32 673.699 129.376 671.963 Q127.455 670.227 124.353 670.227 Q122.154 670.227 119.7 670.991 Q117.269 671.755 114.492 673.305 L114.492 668.583 Q117.316 667.449 119.769 666.87 Q122.223 666.292 124.26 666.292 Q129.63 666.292 132.825 668.977 Q136.019 671.662 136.019 676.153 Q136.019 678.282 135.209 680.204 Q134.422 682.102 132.316 684.694 Q131.737 685.366 128.635 688.583 Q125.533 691.778 119.885 697.541 Z" fill="#000000" fill-rule="nonzero" fill-opacity="1" /><path clip-path="url(#clip180)" d="M146.019 695.597 L150.903 695.597 L150.903 701.477 L146.019 701.477 L146.019 695.597 Z" fill="#000000" fill-rule="nonzero" fill-opacity="1" /><path clip-path="url(#clip180)" d="M171.089 669.995 Q167.477 669.995 165.649 673.56 Q163.843 677.102 163.843 684.231 Q163.843 691.338 165.649 694.903 Q167.477 698.444 171.089 698.444 Q174.723 698.444 176.528 694.903 Q178.357 691.338 178.357 684.231 Q178.357 677.102 176.528 673.56 Q174.723 669.995 171.089 669.995 M171.089 666.292 Q176.899 666.292 179.954 670.898 Q183.033 675.481 183.033 684.231 Q183.033 692.958 179.954 697.565 Q176.899 702.148 171.089 702.148 Q165.278 702.148 162.2 697.565 Q159.144 692.958 159.144 684.231 Q159.144 675.481 162.2 670.898 Q165.278 666.292 171.089 666.292 Z" fill="#000000" fill-rule="nonzero" fill-opacity="1" /><path clip-path="url(#clip180)" d="M120.88 388.652 L137.2 388.652 L137.2 392.587 L115.256 392.587 L115.256 388.652 Q117.918 385.897 122.501 381.268 Q127.107 376.615 128.288 375.272 Q130.533 372.749 131.413 371.013 Q132.316 369.254 132.316 367.564 Q132.316 364.81 130.371 363.073 Q128.45 361.337 125.348 361.337 Q123.149 361.337 120.695 362.101 Q118.265 362.865 115.487 364.416 L115.487 359.694 Q118.311 358.56 120.765 357.981 Q123.218 357.402 125.255 357.402 Q130.626 357.402 133.82 360.087 Q137.015 362.773 137.015 367.263 Q137.015 369.393 136.204 371.314 Q135.417 373.212 133.311 375.805 Q132.732 376.476 129.63 379.694 Q126.529 382.888 120.88 388.652 Z" fill="#000000" fill-rule="nonzero" fill-opacity="1" /><path clip-path="url(#clip180)" d="M147.015 386.708 L151.899 386.708 L151.899 392.587 L147.015 392.587 L147.015 386.708 Z" fill="#000000" fill-rule="nonzero" fill-opacity="1" /><path clip-path="url(#clip180)" d="M162.13 358.027 L180.487 358.027 L180.487 361.962 L166.413 361.962 L166.413 370.435 Q167.431 370.087 168.45 369.925 Q169.468 369.74 170.487 369.74 Q176.274 369.74 179.653 372.911 Q183.033 376.083 183.033 381.499 Q183.033 387.078 179.561 390.18 Q176.089 393.258 169.769 393.258 Q167.593 393.258 165.325 392.888 Q163.079 392.518 160.672 391.777 L160.672 387.078 Q162.755 388.212 164.977 388.768 Q167.2 389.323 169.677 389.323 Q173.681 389.323 176.019 387.217 Q178.357 385.11 178.357 381.499 Q178.357 377.888 176.019 375.782 Q173.681 373.675 169.677 373.675 Q167.802 373.675 165.927 374.092 Q164.075 374.509 162.13 375.388 L162.13 358.027 Z" fill="#000000" fill-rule="nonzero" fill-opacity="1" /><path clip-path="url(#clip180)" d="M130.024 65.0636 Q133.38 65.7812 135.255 68.0497 Q137.154 70.3182 137.154 73.6515 Q137.154 78.7672 133.635 81.5682 Q130.117 84.3691 123.635 84.3691 Q121.459 84.3691 119.144 83.9293 Q116.853 83.5126 114.399 82.6561 L114.399 78.1423 Q116.343 79.2765 118.658 79.8552 Q120.973 80.4339 123.496 80.4339 Q127.894 80.4339 130.186 78.6978 Q132.501 76.9617 132.501 73.6515 Q132.501 70.596 130.348 68.883 Q128.218 67.1469 124.399 67.1469 L120.371 67.1469 L120.371 63.3044 L124.584 63.3044 Q128.033 63.3044 129.862 61.9386 Q131.691 60.5498 131.691 57.9572 Q131.691 55.2952 129.792 53.8831 Q127.917 52.4479 124.399 52.4479 Q122.478 52.4479 120.279 52.8646 Q118.08 53.2813 115.441 54.1609 L115.441 49.9943 Q118.103 49.2535 120.418 48.8832 Q122.755 48.5128 124.816 48.5128 Q130.14 48.5128 133.242 50.9433 Q136.343 53.3507 136.343 57.4711 Q136.343 60.3414 134.7 62.3322 Q133.056 64.2997 130.024 65.0636 Z" fill="#000000" fill-rule="nonzero" fill-opacity="1" /><path clip-path="url(#clip180)" d="M146.019 77.8182 L150.903 77.8182 L150.903 83.6978 L146.019 83.6978 L146.019 77.8182 Z" fill="#000000" fill-rule="nonzero" fill-opacity="1" /><path clip-path="url(#clip180)" d="M171.089 52.2165 Q167.477 52.2165 165.649 55.7813 Q163.843 59.3229 163.843 66.4525 Q163.843 73.5589 165.649 77.1237 Q167.477 80.6654 171.089 80.6654 Q174.723 80.6654 176.528 77.1237 Q178.357 73.5589 178.357 66.4525 Q178.357 59.3229 176.528 55.7813 Q174.723 52.2165 171.089 52.2165 M171.089 48.5128 Q176.899 48.5128 179.954 53.1192 Q183.033 57.7025 183.033 66.4525 Q183.033 75.1793 179.954 79.7858 Q176.899 84.3691 171.089 84.3691 Q165.278 84.3691 162.2 79.7858 Q159.144 75.1793 159.144 66.4525 Q159.144 57.7025 162.2 53.1192 Q165.278 48.5128 171.089 48.5128 Z" fill="#000000" fill-rule="nonzero" fill-opacity="1" /><path clip-path="url(#clip180)" d="M33.8307 724.772 Q33.2578 725.759 33.0032 726.937 Q32.7167 728.082 32.7167 729.483 Q32.7167 734.448 35.9632 737.122 Q39.1779 739.763 45.2253 739.763 L64.0042 739.763 L64.0042 745.652 L28.3562 745.652 L28.3562 739.763 L33.8944 739.763 Q30.6479 737.917 29.0883 734.957 Q27.4968 731.997 27.4968 727.764 Q27.4968 727.159 27.5923 726.427 Q27.656 725.695 27.8151 724.804 L33.8307 724.772 Z" fill="#000000" fill-rule="nonzero" fill-opacity="1" /><polyline clip-path="url(#clip182)" style="stroke:#009af9; stroke-linecap:round; stroke-linejoin:round; stroke-width:4; stroke-opacity:1; fill:none" points="279.421,1210.71 296.117,1210.96 319.877,1212.22 353.266,1215.71 386.652,1221.19 420.032,1228.55 453.406,1237.68 486.772,1248.4 520.127,1260.52 553.471,1273.78 586.801,1287.91 620.115,1302.56 653.411,1317.39 686.684,1331.96 711.619,1342.46 744.83,1355.48 777.98,1366.86 811.032,1375.95 843.924,1382.03 876.554,1384.24 908.759,1381.67 940.307,1373.48 970.927,1359.18 1000.41,1338.95 1028.74,1313.67 1056.14,1284.59 1083,1252.89 1109.71,1219.52 1136.58,1185.11 1163.83,1150.1 1191.59,1114.77 1219.95,1079.31 1248.93,1043.85 1278.53,1008.46 1308.74,973.204 1339.52,938.118 1370.84,903.235 1402.65,868.58 1434.93,834.178 1467.64,800.052 1500.73,766.226 1534.16,732.731 1567.91,699.598 1601.92,666.875 1636.1,634.658 1669.88,603.516 "/>
<circle clip-path="url(#clip182)" cx="711.619" cy="1342.46" r="10.8" fill="#a52a2a" fill-rule="evenodd" fill-opacity="1" stroke="none"/>
<circle clip-path="url(#clip182)" cx="1669.88" cy="603.516" r="10.8" fill="#ff0000" fill-rule="evenodd" fill-opacity="1" stroke="none"/>
<circle clip-path="url(#clip182)" cx="711.619" cy="1342.46" r="10.8" fill="#a52a2a" fill-rule="evenodd" fill-opacity="1" stroke="none"/>
<circle clip-path="url(#clip182)" cx="1669.88" cy="603.516" r="10.8" fill="#ff0000" fill-rule="evenodd" fill-opacity="1" stroke="none"/>
<polyline clip-path="url(#clip182)" style="stroke:#ac8d18; stroke-linecap:round; stroke-linejoin:round; stroke-width:4; stroke-opacity:1; fill:none" points="1563.62,511.5 1543.46,585.825 1523.75,651.228 1504.84,707.646 1487.22,754.87 1471.55,792.52 1458.77,820.049 1450.09,836.825 1446.88,842.462 1447.02,842.231 1451.84,834.995 1463.34,819.172 1480.64,797.207 1502.51,771.307 1527.83,743.081 1555.7,713.582 1585.46,683.462 1616.62,653.122 1648.83,622.83 1655.25,616.903 1671.73,601.836 1688.39,586.828 1712.35,565.58 1746.44,535.978 1780.91,506.705 1815.65,477.777 1850.58,449.183 1858.26,442.961 1893.34,414.751 1928.51,386.792 1963.72,359.031 1998.94,331.389 2034.15,303.762 2069.32,276.027 2104.46,248.043 2139.56,219.648 2174.6,190.671 2187.73,179.612 2222.68,149.546 2257.57,118.462 2292.37,86.1857 "/>
<circle clip-path="url(#clip182)" cx="1446.88" cy="842.462" r="10.8" fill="#ff8247" fill-rule="evenodd" fill-opacity="1" stroke="none"/>
<circle clip-path="url(#clip182)" cx="1648.83" cy="622.83" r="10.8" fill="#ff0000" fill-rule="evenodd" fill-opacity="1" stroke="none"/>
<circle clip-path="url(#clip182)" cx="1858.26" cy="442.961" r="10.8" fill="#eec591" fill-rule="evenodd" fill-opacity="1" stroke="none"/>
<circle clip-path="url(#clip182)" cx="2187.73" cy="179.612" r="10.8" fill="#eec591" fill-rule="evenodd" fill-opacity="1" stroke="none"/>
<circle clip-path="url(#clip182)" cx="1446.88" cy="842.462" r="10.8" fill="#ff8247" fill-rule="evenodd" fill-opacity="1" stroke="none"/>
<circle clip-path="url(#clip182)" cx="1648.83" cy="622.83" r="10.8" fill="#ff0000" fill-rule="evenodd" fill-opacity="1" stroke="none"/>
<circle clip-path="url(#clip182)" cx="1858.26" cy="442.961" r="10.8" fill="#eec591" fill-rule="evenodd" fill-opacity="1" stroke="none"/>
<path clip-path="url(#clip180)" d="M290.157 507.829 L611.214 507.829 L611.214 93.1086 L290.157 93.1086  Z" fill="#ffffff" fill-rule="evenodd" fill-opacity="1"/>
<polyline clip-path="url(#clip180)" style="stroke:#000000; stroke-linecap:round; stroke-linejoin:round; stroke-width:4; stroke-opacity:1; fill:none" points="290.157,507.829 611.214,507.829 611.214,93.1086 290.157,93.1086 290.157,507.829 "/>
<polyline clip-path="url(#clip180)" style="stroke:#009af9; stroke-linecap:round; stroke-linejoin:round; stroke-width:4; stroke-opacity:1; fill:none" points="313.865,144.949 456.113,144.949 "/>
<path clip-path="url(#clip180)" d="M479.821 127.669 L484.497 127.669 L484.497 141.835 L501.488 141.835 L501.488 127.669 L506.164 127.669 L506.164 162.229 L501.488 162.229 L501.488 145.77 L484.497 145.77 L484.497 162.229 L479.821 162.229 L479.821 127.669 Z" fill="#000000" fill-rule="nonzero" fill-opacity="1" /><path clip-path="url(#clip180)" d="M525.33 139.289 Q521.904 139.289 519.914 141.974 Q517.923 144.636 517.923 149.289 Q517.923 153.942 519.891 156.627 Q521.881 159.289 525.33 159.289 Q528.733 159.289 530.724 156.604 Q532.715 153.918 532.715 149.289 Q532.715 144.682 530.724 141.997 Q528.733 139.289 525.33 139.289 M525.33 135.678 Q530.886 135.678 534.057 139.289 Q537.228 142.9 537.228 149.289 Q537.228 155.655 534.057 159.289 Q530.886 162.9 525.33 162.9 Q519.752 162.9 516.58 159.289 Q513.432 155.655 513.432 149.289 Q513.432 142.9 516.58 139.289 Q519.752 135.678 525.33 135.678 Z" fill="#000000" fill-rule="nonzero" fill-opacity="1" /><path clip-path="url(#clip180)" d="M548.409 158.34 L548.409 172.09 L544.127 172.09 L544.127 136.303 L548.409 136.303 L548.409 140.238 Q549.751 137.923 551.789 136.812 Q553.849 135.678 556.696 135.678 Q561.418 135.678 564.358 139.428 Q567.321 143.178 567.321 149.289 Q567.321 155.4 564.358 159.15 Q561.418 162.9 556.696 162.9 Q553.849 162.9 551.789 161.789 Q549.751 160.655 548.409 158.34 M562.9 149.289 Q562.9 144.59 560.955 141.928 Q559.034 139.243 555.654 139.243 Q552.275 139.243 550.33 141.928 Q548.409 144.59 548.409 149.289 Q548.409 153.988 550.33 156.673 Q552.275 159.335 555.654 159.335 Q559.034 159.335 560.955 156.673 Q562.9 153.988 562.9 149.289 Z" fill="#000000" fill-rule="nonzero" fill-opacity="1" /><path clip-path="url(#clip180)" d="M587.506 126.21 L587.506 129.752 L583.432 129.752 Q581.14 129.752 580.237 130.678 Q579.358 131.604 579.358 134.011 L579.358 136.303 L586.372 136.303 L586.372 139.613 L579.358 139.613 L579.358 162.229 L575.075 162.229 L575.075 139.613 L571.001 139.613 L571.001 136.303 L575.075 136.303 L575.075 134.497 Q575.075 130.169 577.089 128.201 Q579.103 126.21 583.478 126.21 L587.506 126.21 Z" fill="#000000" fill-rule="nonzero" fill-opacity="1" /><circle clip-path="url(#clip180)" cx="384.989" cy="196.789" r="23.04" fill="#a52a2a" fill-rule="evenodd" fill-opacity="1" stroke="none"/>
<path clip-path="url(#clip180)" d="M498.733 200.805 Q498.733 196.175 496.812 193.629 Q494.914 191.083 491.465 191.083 Q488.039 191.083 486.118 193.629 Q484.219 196.175 484.219 200.805 Q484.219 205.411 486.118 207.958 Q488.039 210.504 491.465 210.504 Q494.914 210.504 496.812 207.958 Q498.733 205.411 498.733 200.805 M502.992 210.851 Q502.992 217.471 500.053 220.689 Q497.113 223.93 491.048 223.93 Q488.803 223.93 486.812 223.582 Q484.821 223.258 482.946 222.564 L482.946 218.42 Q484.821 219.439 486.65 219.925 Q488.479 220.411 490.377 220.411 Q494.567 220.411 496.65 218.212 Q498.733 216.036 498.733 211.615 L498.733 209.508 Q497.414 211.8 495.354 212.934 Q493.293 214.069 490.423 214.069 Q485.655 214.069 482.738 210.434 Q479.821 206.8 479.821 200.805 Q479.821 194.786 482.738 191.152 Q485.655 187.518 490.423 187.518 Q493.293 187.518 495.354 188.652 Q497.414 189.786 498.733 192.078 L498.733 188.143 L502.992 188.143 L502.992 210.851 Z" fill="#000000" fill-rule="nonzero" fill-opacity="1" /><path clip-path="url(#clip180)" d="M533.316 198.421 L533.316 214.069 L529.057 214.069 L529.057 198.559 Q529.057 194.879 527.622 193.05 Q526.187 191.222 523.316 191.222 Q519.867 191.222 517.877 193.421 Q515.886 195.62 515.886 199.416 L515.886 214.069 L511.604 214.069 L511.604 178.05 L515.886 178.05 L515.886 192.171 Q517.414 189.833 519.474 188.675 Q521.557 187.518 524.266 187.518 Q528.733 187.518 531.025 190.296 Q533.316 193.05 533.316 198.421 Z" fill="#000000" fill-rule="nonzero" fill-opacity="1" /><circle clip-path="url(#clip180)" cx="384.989" cy="248.629" r="23.04" fill="#ff0000" fill-rule="evenodd" fill-opacity="1" stroke="none"/>
<path clip-path="url(#clip180)" d="M498.594 252.969 Q498.594 248.27 496.65 245.608 Q494.729 242.923 491.349 242.923 Q487.969 242.923 486.025 245.608 Q484.104 248.27 484.104 252.969 Q484.104 257.668 486.025 260.353 Q487.969 263.015 491.349 263.015 Q494.729 263.015 496.65 260.353 Q498.594 257.668 498.594 252.969 M484.104 243.918 Q485.446 241.603 487.483 240.492 Q489.543 239.358 492.391 239.358 Q497.113 239.358 500.053 243.108 Q503.016 246.858 503.016 252.969 Q503.016 259.08 500.053 262.83 Q497.113 266.58 492.391 266.58 Q489.543 266.58 487.483 265.469 Q485.446 264.335 484.104 262.02 L484.104 265.909 L479.821 265.909 L479.821 229.89 L484.104 229.89 L484.104 243.918 Z" fill="#000000" fill-rule="nonzero" fill-opacity="1" /><path clip-path="url(#clip180)" d="M514.289 232.622 L514.289 239.983 L523.062 239.983 L523.062 243.293 L514.289 243.293 L514.289 257.367 Q514.289 260.538 515.145 261.441 Q516.025 262.344 518.687 262.344 L523.062 262.344 L523.062 265.909 L518.687 265.909 Q513.756 265.909 511.881 264.08 Q510.006 262.228 510.006 257.367 L510.006 243.293 L506.881 243.293 L506.881 239.983 L510.006 239.983 L510.006 232.622 L514.289 232.622 Z" fill="#000000" fill-rule="nonzero" fill-opacity="1" /><polyline clip-path="url(#clip180)" style="stroke:#ac8d18; stroke-linecap:round; stroke-linejoin:round; stroke-width:4; stroke-opacity:1; fill:none" points="313.865,300.469 456.113,300.469 "/>
<path clip-path="url(#clip180)" d="M479.821 283.189 L499.682 283.189 L499.682 287.124 L484.497 287.124 L484.497 297.309 L498.201 297.309 L498.201 301.244 L484.497 301.244 L484.497 317.749 L479.821 317.749 L479.821 283.189 Z" fill="#000000" fill-rule="nonzero" fill-opacity="1" /><path clip-path="url(#clip180)" d="M515.261 294.809 Q511.835 294.809 509.844 297.494 Q507.854 300.156 507.854 304.809 Q507.854 309.462 509.821 312.147 Q511.812 314.809 515.261 314.809 Q518.664 314.809 520.654 312.124 Q522.645 309.438 522.645 304.809 Q522.645 300.202 520.654 297.517 Q518.664 294.809 515.261 294.809 M515.261 291.198 Q520.816 291.198 523.988 294.809 Q527.159 298.42 527.159 304.809 Q527.159 311.175 523.988 314.809 Q520.816 318.42 515.261 318.42 Q509.682 318.42 506.511 314.809 Q503.363 311.175 503.363 304.809 Q503.363 298.42 506.511 294.809 Q509.682 291.198 515.261 291.198 Z" fill="#000000" fill-rule="nonzero" fill-opacity="1" /><path clip-path="url(#clip180)" d="M534.219 281.73 L538.478 281.73 L538.478 317.749 L534.219 317.749 L534.219 281.73 Z" fill="#000000" fill-rule="nonzero" fill-opacity="1" /><path clip-path="url(#clip180)" d="M564.45 295.758 L564.45 281.73 L568.71 281.73 L568.71 317.749 L564.45 317.749 L564.45 313.86 Q563.108 316.175 561.048 317.309 Q559.011 318.42 556.14 318.42 Q551.441 318.42 548.478 314.67 Q545.539 310.92 545.539 304.809 Q545.539 298.698 548.478 294.948 Q551.441 291.198 556.14 291.198 Q559.011 291.198 561.048 292.332 Q563.108 293.443 564.45 295.758 M549.937 304.809 Q549.937 309.508 551.858 312.193 Q553.802 314.855 557.182 314.855 Q560.562 314.855 562.506 312.193 Q564.45 309.508 564.45 304.809 Q564.45 300.11 562.506 297.448 Q560.562 294.763 557.182 294.763 Q553.802 294.763 551.858 297.448 Q549.937 300.11 549.937 304.809 Z" fill="#000000" fill-rule="nonzero" fill-opacity="1" /><circle clip-path="url(#clip180)" cx="384.989" cy="352.309" r="23.04" fill="#ff8247" fill-rule="evenodd" fill-opacity="1" stroke="none"/>
<path clip-path="url(#clip180)" d="M500.33 344.658 L500.33 348.64 Q498.525 347.644 496.696 347.158 Q494.891 346.649 493.039 346.649 Q488.895 346.649 486.604 349.288 Q484.312 351.904 484.312 356.649 Q484.312 361.394 486.604 364.033 Q488.895 366.649 493.039 366.649 Q494.891 366.649 496.696 366.163 Q498.525 365.653 500.33 364.658 L500.33 368.593 Q498.548 369.427 496.627 369.843 Q494.729 370.26 492.576 370.26 Q486.719 370.26 483.27 366.579 Q479.821 362.899 479.821 356.649 Q479.821 350.306 483.294 346.672 Q486.789 343.038 492.854 343.038 Q494.821 343.038 496.696 343.455 Q498.571 343.848 500.33 344.658 Z" fill="#000000" fill-rule="nonzero" fill-opacity="1" /><path clip-path="url(#clip180)" d="M507.298 359.357 L507.298 343.663 L511.557 343.663 L511.557 359.195 Q511.557 362.876 512.992 364.728 Q514.428 366.556 517.298 366.556 Q520.747 366.556 522.738 364.357 Q524.752 362.158 524.752 358.362 L524.752 343.663 L529.011 343.663 L529.011 369.589 L524.752 369.589 L524.752 365.607 Q523.201 367.968 521.141 369.126 Q519.103 370.26 516.395 370.26 Q511.928 370.26 509.613 367.482 Q507.298 364.704 507.298 359.357 M518.016 343.038 L518.016 343.038 Z" fill="#000000" fill-rule="nonzero" fill-opacity="1" /><path clip-path="url(#clip180)" d="M554.312 344.427 L554.312 348.454 Q552.506 347.529 550.562 347.066 Q548.617 346.603 546.534 346.603 Q543.363 346.603 541.765 347.575 Q540.191 348.547 540.191 350.491 Q540.191 351.973 541.326 352.829 Q542.46 353.663 545.886 354.427 L547.344 354.751 Q551.881 355.723 553.779 357.505 Q555.701 359.265 555.701 362.436 Q555.701 366.047 552.83 368.153 Q549.983 370.26 544.983 370.26 Q542.9 370.26 540.631 369.843 Q538.386 369.45 535.886 368.64 L535.886 364.241 Q538.247 365.468 540.539 366.093 Q542.83 366.695 545.076 366.695 Q548.085 366.695 549.705 365.677 Q551.326 364.635 551.326 362.76 Q551.326 361.024 550.145 360.098 Q548.988 359.172 545.029 358.316 L543.548 357.968 Q539.589 357.135 537.83 355.422 Q536.071 353.686 536.071 350.677 Q536.071 347.019 538.664 345.029 Q541.256 343.038 546.025 343.038 Q548.386 343.038 550.469 343.385 Q552.552 343.732 554.312 344.427 Z" fill="#000000" fill-rule="nonzero" fill-opacity="1" /><path clip-path="url(#clip180)" d="M566.603 365.7 L566.603 379.45 L562.321 379.45 L562.321 343.663 L566.603 343.663 L566.603 347.598 Q567.946 345.283 569.983 344.172 Q572.043 343.038 574.89 343.038 Q579.612 343.038 582.552 346.788 Q585.515 350.538 585.515 356.649 Q585.515 362.76 582.552 366.51 Q579.612 370.26 574.89 370.26 Q572.043 370.26 569.983 369.149 Q567.946 368.015 566.603 365.7 M581.094 356.649 Q581.094 351.95 579.149 349.288 Q577.228 346.603 573.849 346.603 Q570.469 346.603 568.525 349.288 Q566.603 351.95 566.603 356.649 Q566.603 361.348 568.525 364.033 Q570.469 366.695 573.849 366.695 Q577.228 366.695 579.149 364.033 Q581.094 361.348 581.094 356.649 Z" fill="#000000" fill-rule="nonzero" fill-opacity="1" /><circle clip-path="url(#clip180)" cx="384.989" cy="404.149" r="23.04" fill="#ff0000" fill-rule="evenodd" fill-opacity="1" stroke="none"/>
<path clip-path="url(#clip180)" d="M498.594 408.489 Q498.594 403.79 496.65 401.128 Q494.729 398.443 491.349 398.443 Q487.969 398.443 486.025 401.128 Q484.104 403.79 484.104 408.489 Q484.104 413.188 486.025 415.873 Q487.969 418.535 491.349 418.535 Q494.729 418.535 496.65 415.873 Q498.594 413.188 498.594 408.489 M484.104 399.438 Q485.446 397.123 487.483 396.012 Q489.543 394.878 492.391 394.878 Q497.113 394.878 500.053 398.628 Q503.016 402.378 503.016 408.489 Q503.016 414.6 500.053 418.35 Q497.113 422.1 492.391 422.1 Q489.543 422.1 487.483 420.989 Q485.446 419.855 484.104 417.54 L484.104 421.429 L479.821 421.429 L479.821 385.41 L484.104 385.41 L484.104 399.438 Z" fill="#000000" fill-rule="nonzero" fill-opacity="1" /><path clip-path="url(#clip180)" d="M514.289 388.142 L514.289 395.503 L523.062 395.503 L523.062 398.813 L514.289 398.813 L514.289 412.887 Q514.289 416.058 515.145 416.961 Q516.025 417.864 518.687 417.864 L523.062 417.864 L523.062 421.429 L518.687 421.429 Q513.756 421.429 511.881 419.6 Q510.006 417.748 510.006 412.887 L510.006 398.813 L506.881 398.813 L506.881 395.503 L510.006 395.503 L510.006 388.142 L514.289 388.142 Z" fill="#000000" fill-rule="nonzero" fill-opacity="1" /><circle clip-path="url(#clip180)" cx="384.989" cy="455.989" r="23.04" fill="#eec591" fill-rule="evenodd" fill-opacity="1" stroke="none"/>
<path clip-path="url(#clip180)" d="M480.4 447.343 L500.631 447.343 L500.631 451.232 L484.613 469.866 L500.631 469.866 L500.631 473.269 L479.821 473.269 L479.821 469.38 L495.84 450.746 L480.4 450.746 L480.4 447.343 Z" fill="#000000" fill-rule="nonzero" fill-opacity="1" /><path clip-path="url(#clip180)" d="M528.687 457.621 L528.687 473.269 L524.428 473.269 L524.428 457.759 Q524.428 454.079 522.992 452.25 Q521.557 450.422 518.687 450.422 Q515.238 450.422 513.247 452.621 Q511.256 454.82 511.256 458.616 L511.256 473.269 L506.974 473.269 L506.974 437.25 L511.256 437.25 L511.256 451.371 Q512.784 449.033 514.844 447.875 Q516.928 446.718 519.636 446.718 Q524.103 446.718 526.395 449.496 Q528.687 452.25 528.687 457.621 Z" fill="#000000" fill-rule="nonzero" fill-opacity="1" /></svg>
