<?xml version="1.0" encoding="utf-8"?>
<svg xmlns="http://www.w3.org/2000/svg" xmlns:xlink="http://www.w3.org/1999/xlink" width="600" height="400" viewBox="0 0 2400 1600">
<defs>
  <clipPath id="clip580">
    <rect x="0" y="0" width="2400" height="1600"/>
  </clipPath>
</defs>
<path clip-path="url(#clip580)" d="M0 1600 L2400 1600 L2400 0 L0 0  Z" fill="#ffffff" fill-rule="evenodd" fill-opacity="1"/>
<defs>
  <clipPath id="clip581">
    <rect x="480" y="0" width="1681" height="1600"/>
  </clipPath>
</defs>
<path clip-path="url(#clip580)" d="M307.034 1486.45 L2352.76 1486.45 L2352.76 47.2441 L307.034 47.2441  Z" fill="#ffffff" fill-rule="evenodd" fill-opacity="1"/>
<defs>
  <clipPath id="clip582">
    <rect x="307" y="47" width="2047" height="1440"/>
  </clipPath>
</defs>
<polyline clip-path="url(#clip582)" style="stroke:#000000; stroke-linecap:round; stroke-linejoin:round; stroke-width:2; stroke-opacity:0.1; fill:none" points="364.932,1486.45 364.932,47.2441 "/>
<polyline clip-path="url(#clip582)" style="stroke:#000000; stroke-linecap:round; stroke-linejoin:round; stroke-width:2; stroke-opacity:0.1; fill:none" points="889.662,1486.45 889.662,47.2441 "/>
<polyline clip-path="url(#clip582)" style="stroke:#000000; stroke-linecap:round; stroke-linejoin:round; stroke-width:2; stroke-opacity:0.1; fill:none" points="1414.39,1486.45 1414.39,47.2441 "/>
<polyline clip-path="url(#clip582)" style="stroke:#000000; stroke-linecap:round; stroke-linejoin:round; stroke-width:2; stroke-opacity:0.1; fill:none" points="1939.12,1486.45 1939.12,47.2441 "/>
<polyline clip-path="url(#clip582)" style="stroke:#000000; stroke-linecap:round; stroke-linejoin:round; stroke-width:2; stroke-opacity:0.1; fill:none" points="307.034,1445.72 2352.76,1445.72 "/>
<polyline clip-path="url(#clip582)" style="stroke:#000000; stroke-linecap:round; stroke-linejoin:round; stroke-width:2; stroke-opacity:0.1; fill:none" points="307.034,1157.8 2352.76,1157.8 "/>
<polyline clip-path="url(#clip582)" style="stroke:#000000; stroke-linecap:round; stroke-linejoin:round; stroke-width:2; stroke-opacity:0.1; fill:none" points="307.034,869.875 2352.76,869.875 "/>
<polyline clip-path="url(#clip582)" style="stroke:#000000; stroke-linecap:round; stroke-linejoin:round; stroke-width:2; stroke-opacity:0.1; fill:none" points="307.034,581.955 2352.76,581.955 "/>
<polyline clip-path="url(#clip582)" style="stroke:#000000; stroke-linecap:round; stroke-linejoin:round; stroke-width:2; stroke-opacity:0.1; fill:none" points="307.034,294.035 2352.76,294.035 "/>
<polyline clip-path="url(#clip580)" style="stroke:#000000; stroke-linecap:round; stroke-linejoin:round; stroke-width:4; stroke-opacity:1; fill:none" points="307.034,1486.45 2352.76,1486.45 "/>
<polyline clip-path="url(#clip580)" style="stroke:#000000; stroke-linecap:round; stroke-linejoin:round; stroke-width:4; stroke-opacity:1; fill:none" points="364.932,1486.45 364.932,1467.55 "/>
<polyline clip-path="url(#clip580)" style="stroke:#000000; stroke-linecap:round; stroke-linejoin:round; stroke-width:4; stroke-opacity:1; fill:none" points="889.662,1486.45 889.662,1467.55 "/>
<polyline clip-path="url(#clip580)" style="stroke:#000000; stroke-linecap:round; stroke-linejoin:round; stroke-width:4; stroke-opacity:1; fill:none" points="1414.39,1486.45 1414.39,1467.55 "/>
<polyline clip-path="url(#clip580)" style="stroke:#000000; stroke-linecap:round; stroke-linejoin:round; stroke-width:4; stroke-opacity:1; fill:none" points="1939.12,1486.45 1939.12,1467.55 "/>
<path clip-path="url(#clip580)" d="M342.317 1517.37 Q338.705 1517.37 336.877 1520.93 Q335.071 1524.47 335.071 1531.6 Q335.071 1538.71 336.877 1542.27 Q338.705 1545.82 342.317 1545.82 Q345.951 1545.82 347.756 1542.27 Q349.585 1538.71 349.585 1531.6 Q349.585 1524.47 347.756 1520.93 Q345.951 1517.37 342.317 1517.37 M342.317 1513.66 Q348.127 1513.66 351.182 1518.27 Q354.261 1522.85 354.261 1531.6 Q354.261 1540.33 351.182 1544.94 Q348.127 1549.52 342.317 1549.52 Q336.506 1549.52 333.428 1544.94 Q330.372 1540.33 330.372 1531.6 Q330.372 1522.85 333.428 1518.27 Q336.506 1513.66 342.317 1513.66 Z" fill="#000000" fill-rule="nonzero" fill-opacity="1" /><path clip-path="url(#clip580)" d="M362.478 1542.97 L367.363 1542.97 L367.363 1548.85 L362.478 1548.85 L362.478 1542.97 Z" fill="#000000" fill-rule="nonzero" fill-opacity="1" /><path clip-path="url(#clip580)" d="M387.548 1517.37 Q383.937 1517.37 382.108 1520.93 Q380.302 1524.47 380.302 1531.6 Q380.302 1538.71 382.108 1542.27 Q383.937 1545.82 387.548 1545.82 Q391.182 1545.82 392.988 1542.27 Q394.816 1538.71 394.816 1531.6 Q394.816 1524.47 392.988 1520.93 Q391.182 1517.37 387.548 1517.37 M387.548 1513.66 Q393.358 1513.66 396.413 1518.27 Q399.492 1522.85 399.492 1531.6 Q399.492 1540.33 396.413 1544.94 Q393.358 1549.52 387.548 1549.52 Q381.738 1549.52 378.659 1544.94 Q375.603 1540.33 375.603 1531.6 Q375.603 1522.85 378.659 1518.27 Q381.738 1513.66 387.548 1513.66 Z" fill="#000000" fill-rule="nonzero" fill-opacity="1" /><path clip-path="url(#clip580)" d="M867.66 1517.37 Q864.049 1517.37 862.22 1520.93 Q860.415 1524.47 860.415 1531.6 Q860.415 1538.71 862.22 1542.27 Q864.049 1545.82 867.66 1545.82 Q871.295 1545.82 873.1 1542.27 Q874.929 1538.71 874.929 1531.6 Q874.929 1524.47 873.1 1520.93 Q871.295 1517.37 867.66 1517.37 M867.66 1513.66 Q873.47 1513.66 876.526 1518.27 Q879.605 1522.85 879.605 1531.6 Q879.605 1540.33 876.526 1544.94 Q873.47 1549.52 867.66 1549.52 Q861.85 1549.52 858.771 1544.94 Q855.716 1540.33 855.716 1531.6 Q855.716 1522.85 858.771 1518.27 Q861.85 1513.66 867.66 1513.66 Z" fill="#000000" fill-rule="nonzero" fill-opacity="1" /><path clip-path="url(#clip580)" d="M887.822 1542.97 L892.706 1542.97 L892.706 1548.85 L887.822 1548.85 L887.822 1542.97 Z" fill="#000000" fill-rule="nonzero" fill-opacity="1" /><path clip-path="url(#clip580)" d="M903.702 1544.91 L911.341 1544.91 L911.341 1518.55 L903.03 1520.21 L903.03 1515.95 L911.294 1514.29 L915.97 1514.29 L915.97 1544.91 L923.609 1544.91 L923.609 1548.85 L903.702 1548.85 L903.702 1544.91 Z" fill="#000000" fill-rule="nonzero" fill-opacity="1" /><path clip-path="url(#clip580)" d="M1392.58 1517.37 Q1388.96 1517.37 1387.14 1520.93 Q1385.33 1524.47 1385.33 1531.6 Q1385.33 1538.71 1387.14 1542.27 Q1388.96 1545.82 1392.58 1545.82 Q1396.21 1545.82 1398.02 1542.27 Q1399.84 1538.71 1399.84 1531.6 Q1399.84 1524.47 1398.02 1520.93 Q1396.21 1517.37 1392.58 1517.37 M1392.58 1513.66 Q1398.39 1513.66 1401.44 1518.27 Q1404.52 1522.85 1404.52 1531.6 Q1404.52 1540.33 1401.44 1544.94 Q1398.39 1549.52 1392.58 1549.52 Q1386.77 1549.52 1383.69 1544.94 Q1380.63 1540.33 1380.63 1531.6 Q1380.63 1522.85 1383.69 1518.27 Q1386.77 1513.66 1392.58 1513.66 Z" fill="#000000" fill-rule="nonzero" fill-opacity="1" /><path clip-path="url(#clip580)" d="M1412.74 1542.97 L1417.62 1542.97 L1417.62 1548.85 L1412.74 1548.85 L1412.74 1542.97 Z" fill="#000000" fill-rule="nonzero" fill-opacity="1" /><path clip-path="url(#clip580)" d="M1431.83 1544.91 L1448.15 1544.91 L1448.15 1548.85 L1426.21 1548.85 L1426.21 1544.91 Q1428.87 1542.16 1433.46 1537.53 Q1438.06 1532.88 1439.24 1531.53 Q1441.49 1529.01 1442.37 1527.27 Q1443.27 1525.51 1443.27 1523.82 Q1443.27 1521.07 1441.33 1519.33 Q1439.4 1517.6 1436.3 1517.6 Q1434.1 1517.6 1431.65 1518.36 Q1429.22 1519.13 1426.44 1520.68 L1426.44 1515.95 Q1429.27 1514.82 1431.72 1514.24 Q1434.17 1513.66 1436.21 1513.66 Q1441.58 1513.66 1444.77 1516.35 Q1447.97 1519.03 1447.97 1523.52 Q1447.97 1525.65 1447.16 1527.57 Q1446.37 1529.47 1444.27 1532.07 Q1443.69 1532.74 1440.58 1535.95 Q1437.48 1539.15 1431.83 1544.91 Z" fill="#000000" fill-rule="nonzero" fill-opacity="1" /><path clip-path="url(#clip580)" d="M1916.83 1517.37 Q1913.22 1517.37 1911.39 1520.93 Q1909.59 1524.47 1909.59 1531.6 Q1909.59 1538.71 1911.39 1542.27 Q1913.22 1545.82 1916.83 1545.82 Q1920.47 1545.82 1922.27 1542.27 Q1924.1 1538.71 1924.1 1531.6 Q1924.1 1524.47 1922.27 1520.93 Q1920.47 1517.37 1916.83 1517.37 M1916.83 1513.66 Q1922.64 1513.66 1925.7 1518.27 Q1928.78 1522.85 1928.78 1531.6 Q1928.78 1540.33 1925.7 1544.94 Q1922.64 1549.52 1916.83 1549.52 Q1911.02 1549.52 1907.94 1544.94 Q1904.89 1540.33 1904.89 1531.6 Q1904.89 1522.85 1907.94 1518.27 Q1911.02 1513.66 1916.83 1513.66 Z" fill="#000000" fill-rule="nonzero" fill-opacity="1" /><path clip-path="url(#clip580)" d="M1936.99 1542.97 L1941.88 1542.97 L1941.88 1548.85 L1936.99 1548.85 L1936.99 1542.97 Z" fill="#000000" fill-rule="nonzero" fill-opacity="1" /><path clip-path="url(#clip580)" d="M1966.23 1530.21 Q1969.59 1530.93 1971.46 1533.2 Q1973.36 1535.47 1973.36 1538.8 Q1973.36 1543.92 1969.84 1546.72 Q1966.32 1549.52 1959.84 1549.52 Q1957.66 1549.52 1955.35 1549.08 Q1953.06 1548.66 1950.6 1547.81 L1950.6 1543.29 Q1952.55 1544.43 1954.86 1545.01 Q1957.18 1545.58 1959.7 1545.58 Q1964.1 1545.58 1966.39 1543.85 Q1968.71 1542.11 1968.71 1538.8 Q1968.71 1535.75 1966.55 1534.03 Q1964.42 1532.3 1960.6 1532.3 L1956.58 1532.3 L1956.58 1528.45 L1960.79 1528.45 Q1964.24 1528.45 1966.07 1527.09 Q1967.9 1525.7 1967.9 1523.11 Q1967.9 1520.45 1966 1519.03 Q1964.12 1517.6 1960.6 1517.6 Q1958.68 1517.6 1956.48 1518.01 Q1954.29 1518.43 1951.65 1519.31 L1951.65 1515.14 Q1954.31 1514.4 1956.62 1514.03 Q1958.96 1513.66 1961.02 1513.66 Q1966.35 1513.66 1969.45 1516.09 Q1972.55 1518.5 1972.55 1522.62 Q1972.55 1525.49 1970.91 1527.48 Q1969.26 1529.45 1966.23 1530.21 Z" fill="#000000" fill-rule="nonzero" fill-opacity="1" /><polyline clip-path="url(#clip580)" style="stroke:#000000; stroke-linecap:round; stroke-linejoin:round; stroke-width:4; stroke-opacity:1; fill:none" points="307.034,1486.45 307.034,47.2441 "/>
<polyline clip-path="url(#clip580)" style="stroke:#000000; stroke-linecap:round; stroke-linejoin:round; stroke-width:4; stroke-opacity:1; fill:none" points="307.034,1445.72 325.932,1445.72 "/>
<polyline clip-path="url(#clip580)" style="stroke:#000000; stroke-linecap:round; stroke-linejoin:round; stroke-width:4; stroke-opacity:1; fill:none" points="307.034,1157.8 325.932,1157.8 "/>
<polyline clip-path="url(#clip580)" style="stroke:#000000; stroke-linecap:round; stroke-linejoin:round; stroke-width:4; stroke-opacity:1; fill:none" points="307.034,869.875 325.932,869.875 "/>
<polyline clip-path="url(#clip580)" style="stroke:#000000; stroke-linecap:round; stroke-linejoin:round; stroke-width:4; stroke-opacity:1; fill:none" points="307.034,581.955 325.932,581.955 "/>
<polyline clip-path="url(#clip580)" style="stroke:#000000; stroke-linecap:round; stroke-linejoin:round; stroke-width:4; stroke-opacity:1; fill:none" points="307.034,294.035 325.932,294.035 "/>
<path clip-path="url(#clip580)" d="M259.09 1431.51 Q255.479 1431.51 253.65 1435.08 Q251.845 1438.62 251.845 1445.75 Q251.845 1452.86 253.65 1456.42 Q255.479 1459.96 259.09 1459.96 Q262.724 1459.96 264.53 1456.42 Q266.358 1452.86 266.358 1445.75 Q266.358 1438.62 264.53 1435.08 Q262.724 1431.51 259.09 1431.51 M259.09 1427.81 Q264.9 1427.81 267.956 1432.42 Q271.034 1437 271.034 1445.75 Q271.034 1454.48 267.956 1459.08 Q264.9 1463.67 259.09 1463.67 Q253.28 1463.67 250.201 1459.08 Q247.146 1454.48 247.146 1445.75 Q247.146 1437 250.201 1432.42 Q253.28 1427.81 259.09 1427.81 Z" fill="#000000" fill-rule="nonzero" fill-opacity="1" /><path clip-path="url(#clip580)" d="M54.5569 1177.59 L62.1958 1177.59 L62.1958 1151.22 L53.8856 1152.89 L53.8856 1148.63 L62.1495 1146.96 L66.8254 1146.96 L66.8254 1177.59 L74.4642 1177.59 L74.4642 1181.52 L54.5569 1181.52 L54.5569 1177.59 Z" fill="#000000" fill-rule="nonzero" fill-opacity="1" /><path clip-path="url(#clip580)" d="M83.9086 1175.64 L88.7928 1175.64 L88.7928 1181.52 L83.9086 1181.52 L83.9086 1175.64 Z" fill="#000000" fill-rule="nonzero" fill-opacity="1" /><path clip-path="url(#clip580)" d="M108.978 1150.04 Q105.367 1150.04 103.538 1153.61 Q101.733 1157.15 101.733 1164.28 Q101.733 1171.38 103.538 1174.95 Q105.367 1178.49 108.978 1178.49 Q112.612 1178.49 114.418 1174.95 Q116.246 1171.38 116.246 1164.28 Q116.246 1157.15 114.418 1153.61 Q112.612 1150.04 108.978 1150.04 M108.978 1146.34 Q114.788 1146.34 117.844 1150.94 Q120.922 1155.53 120.922 1164.28 Q120.922 1173 117.844 1177.61 Q114.788 1182.19 108.978 1182.19 Q103.168 1182.19 100.089 1177.61 Q97.0335 1173 97.0335 1164.28 Q97.0335 1155.53 100.089 1150.94 Q103.168 1146.34 108.978 1146.34 Z" fill="#000000" fill-rule="nonzero" fill-opacity="1" /><path clip-path="url(#clip580)" d="M157.311 1156.06 L146.732 1166.69 L157.311 1177.26 L154.556 1180.06 L143.931 1169.44 L133.306 1180.06 L130.575 1177.26 L141.131 1166.69 L130.575 1156.06 L133.306 1153.26 L143.931 1163.88 L154.556 1153.26 L157.311 1156.06 Z" fill="#000000" fill-rule="nonzero" fill-opacity="1" /><path clip-path="url(#clip580)" d="M169.672 1177.59 L177.311 1177.59 L177.311 1151.22 L169.001 1152.89 L169.001 1148.63 L177.265 1146.96 L181.94 1146.96 L181.94 1177.59 L189.579 1177.59 L189.579 1181.52 L169.672 1181.52 L169.672 1177.59 Z" fill="#000000" fill-rule="nonzero" fill-opacity="1" /><path clip-path="url(#clip580)" d="M209.024 1150.04 Q205.413 1150.04 203.584 1153.61 Q201.778 1157.15 201.778 1164.28 Q201.778 1171.38 203.584 1174.95 Q205.413 1178.49 209.024 1178.49 Q212.658 1178.49 214.463 1174.95 Q216.292 1171.38 216.292 1164.28 Q216.292 1157.15 214.463 1153.61 Q212.658 1150.04 209.024 1150.04 M209.024 1146.34 Q214.834 1146.34 217.889 1150.94 Q220.968 1155.53 220.968 1164.28 Q220.968 1173 217.889 1177.61 Q214.834 1182.19 209.024 1182.19 Q203.214 1182.19 200.135 1177.61 Q197.079 1173 197.079 1164.28 Q197.079 1155.53 200.135 1150.94 Q203.214 1146.34 209.024 1146.34 Z" fill="#000000" fill-rule="nonzero" fill-opacity="1" /><path clip-path="url(#clip580)" d="M220.968 1140.44 L245.08 1140.44 L245.08 1143.64 L220.968 1143.64 L220.968 1140.44 Z" fill="#000000" fill-rule="nonzero" fill-opacity="1" /><path clip-path="url(#clip580)" d="M261.405 1140.78 Q258.696 1140.78 257.135 1142.23 Q255.593 1143.67 255.593 1146.21 Q255.593 1148.75 257.135 1150.2 Q258.696 1151.65 261.405 1151.65 Q264.113 1151.65 265.674 1150.2 Q267.235 1148.73 267.235 1146.21 Q267.235 1143.67 265.674 1142.23 Q264.132 1140.78 261.405 1140.78 M257.606 1139.16 Q255.161 1138.56 253.788 1136.88 Q252.433 1135.21 252.433 1132.8 Q252.433 1129.44 254.822 1127.48 Q257.229 1125.52 261.405 1125.52 Q265.599 1125.52 267.987 1127.48 Q270.376 1129.44 270.376 1132.8 Q270.376 1135.21 269.003 1136.88 Q267.649 1138.56 265.223 1139.16 Q267.969 1139.8 269.492 1141.66 Q271.034 1143.52 271.034 1146.21 Q271.034 1150.29 268.533 1152.48 Q266.05 1154.66 261.405 1154.66 Q256.759 1154.66 254.258 1152.48 Q251.775 1150.29 251.775 1146.21 Q251.775 1143.52 253.317 1141.66 Q254.86 1139.8 257.606 1139.16 M256.214 1133.16 Q256.214 1135.34 257.568 1136.57 Q258.941 1137.79 261.405 1137.79 Q263.85 1137.79 265.223 1136.57 Q266.615 1135.34 266.615 1133.16 Q266.615 1130.98 265.223 1129.76 Q263.85 1128.53 261.405 1128.53 Q258.941 1128.53 257.568 1129.76 Q256.214 1130.98 256.214 1133.16 Z" fill="#000000" fill-rule="nonzero" fill-opacity="1" /><path clip-path="url(#clip580)" d="M57.7745 889.668 L74.0939 889.668 L74.0939 893.603 L52.1495 893.603 L52.1495 889.668 Q54.8115 886.913 59.3949 882.284 Q64.0013 877.631 65.1819 876.288 Q67.4272 873.765 68.3068 872.029 Q69.2096 870.27 69.2096 868.58 Q69.2096 865.825 67.2652 864.089 Q65.3439 862.353 62.2421 862.353 Q60.043 862.353 57.5893 863.117 Q55.1588 863.881 52.381 865.432 L52.381 860.71 Q55.2051 859.575 57.6588 858.997 Q60.1124 858.418 62.1495 858.418 Q67.5198 858.418 70.7142 861.103 Q73.9087 863.788 73.9087 868.279 Q73.9087 870.409 73.0985 872.33 Q72.3115 874.228 70.205 876.821 Q69.6263 877.492 66.5245 880.709 Q63.4226 883.904 57.7745 889.668 Z" fill="#000000" fill-rule="nonzero" fill-opacity="1" /><path clip-path="url(#clip580)" d="M83.9086 887.723 L88.7928 887.723 L88.7928 893.603 L83.9086 893.603 L83.9086 887.723 Z" fill="#000000" fill-rule="nonzero" fill-opacity="1" /><path clip-path="url(#clip580)" d="M108.978 862.122 Q105.367 862.122 103.538 865.686 Q101.733 869.228 101.733 876.358 Q101.733 883.464 103.538 887.029 Q105.367 890.571 108.978 890.571 Q112.612 890.571 114.418 887.029 Q116.246 883.464 116.246 876.358 Q116.246 869.228 114.418 865.686 Q112.612 862.122 108.978 862.122 M108.978 858.418 Q114.788 858.418 117.844 863.024 Q120.922 867.608 120.922 876.358 Q120.922 885.084 117.844 889.691 Q114.788 894.274 108.978 894.274 Q103.168 894.274 100.089 889.691 Q97.0335 885.084 97.0335 876.358 Q97.0335 867.608 100.089 863.024 Q103.168 858.418 108.978 858.418 Z" fill="#000000" fill-rule="nonzero" fill-opacity="1" /><path clip-path="url(#clip580)" d="M157.311 868.14 L146.732 878.765 L157.311 889.344 L154.556 892.145 L143.931 881.52 L133.306 892.145 L130.575 889.344 L141.131 878.765 L130.575 868.14 L133.306 865.339 L143.931 875.964 L154.556 865.339 L157.311 868.14 Z" fill="#000000" fill-rule="nonzero" fill-opacity="1" /><path clip-path="url(#clip580)" d="M169.672 889.668 L177.311 889.668 L177.311 863.302 L169.001 864.969 L169.001 860.71 L177.265 859.043 L181.94 859.043 L181.94 889.668 L189.579 889.668 L189.579 893.603 L169.672 893.603 L169.672 889.668 Z" fill="#000000" fill-rule="nonzero" fill-opacity="1" /><path clip-path="url(#clip580)" d="M209.024 862.122 Q205.413 862.122 203.584 865.686 Q201.778 869.228 201.778 876.358 Q201.778 883.464 203.584 887.029 Q205.413 890.571 209.024 890.571 Q212.658 890.571 214.463 887.029 Q216.292 883.464 216.292 876.358 Q216.292 869.228 214.463 865.686 Q212.658 862.122 209.024 862.122 M209.024 858.418 Q214.834 858.418 217.889 863.024 Q220.968 867.608 220.968 876.358 Q220.968 885.084 217.889 889.691 Q214.834 894.274 209.024 894.274 Q203.214 894.274 200.135 889.691 Q197.079 885.084 197.079 876.358 Q197.079 867.608 200.135 863.024 Q203.214 858.418 209.024 858.418 Z" fill="#000000" fill-rule="nonzero" fill-opacity="1" /><path clip-path="url(#clip580)" d="M220.968 852.519 L245.08 852.519 L245.08 855.717 L220.968 855.717 L220.968 852.519 Z" fill="#000000" fill-rule="nonzero" fill-opacity="1" /><path clip-path="url(#clip580)" d="M261.405 852.858 Q258.696 852.858 257.135 854.306 Q255.593 855.754 255.593 858.293 Q255.593 860.832 257.135 862.281 Q258.696 863.729 261.405 863.729 Q264.113 863.729 265.674 862.281 Q267.235 860.814 267.235 858.293 Q267.235 855.754 265.674 854.306 Q264.132 852.858 261.405 852.858 M257.606 851.24 Q255.161 850.639 253.788 848.965 Q252.433 847.291 252.433 844.883 Q252.433 841.517 254.822 839.561 Q257.229 837.605 261.405 837.605 Q265.599 837.605 267.987 839.561 Q270.376 841.517 270.376 844.883 Q270.376 847.291 269.003 848.965 Q267.649 850.639 265.223 851.24 Q267.969 851.88 269.492 853.742 Q271.034 855.604 271.034 858.293 Q271.034 862.375 268.533 864.556 Q266.05 866.738 261.405 866.738 Q256.759 866.738 254.258 864.556 Q251.775 862.375 251.775 858.293 Q251.775 855.604 253.317 853.742 Q254.86 851.88 257.606 851.24 M256.214 845.241 Q256.214 847.422 257.568 848.645 Q258.941 849.867 261.405 849.867 Q263.85 849.867 265.223 848.645 Q266.615 847.422 266.615 845.241 Q266.615 843.059 265.223 841.836 Q263.85 840.614 261.405 840.614 Q258.941 840.614 257.568 841.836 Q256.214 843.059 256.214 845.241 Z" fill="#000000" fill-rule="nonzero" fill-opacity="1" /><path clip-path="url(#clip580)" d="M67.9133 587.049 Q71.2698 587.766 73.1448 590.035 Q75.0429 592.303 75.0429 595.637 Q75.0429 600.752 71.5244 603.553 Q68.0059 606.354 61.5245 606.354 Q59.3486 606.354 57.0338 605.914 Q54.7421 605.498 52.2884 604.641 L52.2884 600.127 Q54.2328 601.261 56.5477 601.84 Q58.8625 602.419 61.3856 602.419 Q65.7837 602.419 68.0754 600.683 Q70.3902 598.947 70.3902 595.637 Q70.3902 592.581 68.2374 590.868 Q66.1078 589.132 62.2884 589.132 L58.2606 589.132 L58.2606 585.289 L62.4735 585.289 Q65.9226 585.289 67.7513 583.924 Q69.58 582.535 69.58 579.942 Q69.58 577.28 67.6819 575.868 Q65.8069 574.433 62.2884 574.433 Q60.3671 574.433 58.168 574.85 Q55.969 575.266 53.3301 576.146 L53.3301 571.979 Q55.9921 571.238 58.3069 570.868 Q60.6449 570.498 62.705 570.498 Q68.0291 570.498 71.1309 572.928 Q74.2327 575.336 74.2327 579.456 Q74.2327 582.326 72.5892 584.317 Q70.9457 586.285 67.9133 587.049 Z" fill="#000000" fill-rule="nonzero" fill-opacity="1" /><path clip-path="url(#clip580)" d="M83.9086 599.803 L88.7928 599.803 L88.7928 605.683 L83.9086 605.683 L83.9086 599.803 Z" fill="#000000" fill-rule="nonzero" fill-opacity="1" /><path clip-path="url(#clip580)" d="M108.978 574.201 Q105.367 574.201 103.538 577.766 Q101.733 581.308 101.733 588.437 Q101.733 595.544 103.538 599.109 Q105.367 602.65 108.978 602.65 Q112.612 602.65 114.418 599.109 Q116.246 595.544 116.246 588.437 Q116.246 581.308 114.418 577.766 Q112.612 574.201 108.978 574.201 M108.978 570.498 Q114.788 570.498 117.844 575.104 Q120.922 579.688 120.922 588.437 Q120.922 597.164 117.844 601.771 Q114.788 606.354 108.978 606.354 Q103.168 606.354 100.089 601.771 Q97.0335 597.164 97.0335 588.437 Q97.0335 579.688 100.089 575.104 Q103.168 570.498 108.978 570.498 Z" fill="#000000" fill-rule="nonzero" fill-opacity="1" /><path clip-path="url(#clip580)" d="M157.311 580.22 L146.732 590.845 L157.311 601.424 L154.556 604.224 L143.931 593.599 L133.306 604.224 L130.575 601.424 L141.131 590.845 L130.575 580.22 L133.306 577.419 L143.931 588.044 L154.556 577.419 L157.311 580.22 Z" fill="#000000" fill-rule="nonzero" fill-opacity="1" /><path clip-path="url(#clip580)" d="M169.672 601.748 L177.311 601.748 L177.311 575.382 L169.001 577.049 L169.001 572.789 L177.265 571.123 L181.94 571.123 L181.94 601.748 L189.579 601.748 L189.579 605.683 L169.672 605.683 L169.672 601.748 Z" fill="#000000" fill-rule="nonzero" fill-opacity="1" /><path clip-path="url(#clip580)" d="M209.024 574.201 Q205.413 574.201 203.584 577.766 Q201.778 581.308 201.778 588.437 Q201.778 595.544 203.584 599.109 Q205.413 602.65 209.024 602.65 Q212.658 602.65 214.463 599.109 Q216.292 595.544 216.292 588.437 Q216.292 581.308 214.463 577.766 Q212.658 574.201 209.024 574.201 M209.024 570.498 Q214.834 570.498 217.889 575.104 Q220.968 579.688 220.968 588.437 Q220.968 597.164 217.889 601.771 Q214.834 606.354 209.024 606.354 Q203.214 606.354 200.135 601.771 Q197.079 597.164 197.079 588.437 Q197.079 579.688 200.135 575.104 Q203.214 570.498 209.024 570.498 Z" fill="#000000" fill-rule="nonzero" fill-opacity="1" /><path clip-path="url(#clip580)" d="M220.968 564.599 L245.08 564.599 L245.08 567.796 L220.968 567.796 L220.968 564.599 Z" fill="#000000" fill-rule="nonzero" fill-opacity="1" /><path clip-path="url(#clip580)" d="M261.405 564.938 Q258.696 564.938 257.135 566.386 Q255.593 567.834 255.593 570.373 Q255.593 572.912 257.135 574.36 Q258.696 575.809 261.405 575.809 Q264.113 575.809 265.674 574.36 Q267.235 572.893 267.235 570.373 Q267.235 567.834 265.674 566.386 Q264.132 564.938 261.405 564.938 M257.606 563.32 Q255.161 562.718 253.788 561.044 Q252.433 559.371 252.433 556.963 Q252.433 553.597 254.822 551.641 Q257.229 549.685 261.405 549.685 Q265.599 549.685 267.987 551.641 Q270.376 553.597 270.376 556.963 Q270.376 559.371 269.003 561.044 Q267.649 562.718 265.223 563.32 Q267.969 563.96 269.492 565.822 Q271.034 567.684 271.034 570.373 Q271.034 574.454 268.533 576.636 Q266.05 578.818 261.405 578.818 Q256.759 578.818 254.258 576.636 Q251.775 574.454 251.775 570.373 Q251.775 567.684 253.317 565.822 Q254.86 563.96 257.606 563.32 M256.214 557.32 Q256.214 559.502 257.568 560.725 Q258.941 561.947 261.405 561.947 Q263.85 561.947 265.223 560.725 Q266.615 559.502 266.615 557.32 Q266.615 555.139 265.223 553.916 Q263.85 552.694 261.405 552.694 Q258.941 552.694 257.568 553.916 Q256.214 555.139 256.214 557.32 Z" fill="#000000" fill-rule="nonzero" fill-opacity="1" /><path clip-path="url(#clip580)" d="M66.5939 287.277 L54.7884 305.726 L66.5939 305.726 L66.5939 287.277 M65.367 283.203 L71.2466 283.203 L71.2466 305.726 L76.1772 305.726 L76.1772 309.614 L71.2466 309.614 L71.2466 317.763 L66.5939 317.763 L66.5939 309.614 L50.9921 309.614 L50.9921 305.101 L65.367 283.203 Z" fill="#000000" fill-rule="nonzero" fill-opacity="1" /><path clip-path="url(#clip580)" d="M83.9086 311.883 L88.7928 311.883 L88.7928 317.763 L83.9086 317.763 L83.9086 311.883 Z" fill="#000000" fill-rule="nonzero" fill-opacity="1" /><path clip-path="url(#clip580)" d="M108.978 286.281 Q105.367 286.281 103.538 289.846 Q101.733 293.388 101.733 300.517 Q101.733 307.624 103.538 311.189 Q105.367 314.73 108.978 314.73 Q112.612 314.73 114.418 311.189 Q116.246 307.624 116.246 300.517 Q116.246 293.388 114.418 289.846 Q112.612 286.281 108.978 286.281 M108.978 282.578 Q114.788 282.578 117.844 287.184 Q120.922 291.767 120.922 300.517 Q120.922 309.244 117.844 313.851 Q114.788 318.434 108.978 318.434 Q103.168 318.434 100.089 313.851 Q97.0335 309.244 97.0335 300.517 Q97.0335 291.767 100.089 287.184 Q103.168 282.578 108.978 282.578 Z" fill="#000000" fill-rule="nonzero" fill-opacity="1" /><path clip-path="url(#clip580)" d="M157.311 292.3 L146.732 302.925 L157.311 313.503 L154.556 316.304 L143.931 305.679 L133.306 316.304 L130.575 313.503 L141.131 302.925 L130.575 292.3 L133.306 289.499 L143.931 300.124 L154.556 289.499 L157.311 292.3 Z" fill="#000000" fill-rule="nonzero" fill-opacity="1" /><path clip-path="url(#clip580)" d="M169.672 313.827 L177.311 313.827 L177.311 287.462 L169.001 289.128 L169.001 284.869 L177.265 283.203 L181.94 283.203 L181.94 313.827 L189.579 313.827 L189.579 317.763 L169.672 317.763 L169.672 313.827 Z" fill="#000000" fill-rule="nonzero" fill-opacity="1" /><path clip-path="url(#clip580)" d="M209.024 286.281 Q205.413 286.281 203.584 289.846 Q201.778 293.388 201.778 300.517 Q201.778 307.624 203.584 311.189 Q205.413 314.73 209.024 314.73 Q212.658 314.73 214.463 311.189 Q216.292 307.624 216.292 300.517 Q216.292 293.388 214.463 289.846 Q212.658 286.281 209.024 286.281 M209.024 282.578 Q214.834 282.578 217.889 287.184 Q220.968 291.767 220.968 300.517 Q220.968 309.244 217.889 313.851 Q214.834 318.434 209.024 318.434 Q203.214 318.434 200.135 313.851 Q197.079 309.244 197.079 300.517 Q197.079 291.767 200.135 287.184 Q203.214 282.578 209.024 282.578 Z" fill="#000000" fill-rule="nonzero" fill-opacity="1" /><path clip-path="url(#clip580)" d="M220.968 276.679 L245.08 276.679 L245.08 279.876 L220.968 279.876 L220.968 276.679 Z" fill="#000000" fill-rule="nonzero" fill-opacity="1" /><path clip-path="url(#clip580)" d="M261.405 277.017 Q258.696 277.017 257.135 278.466 Q255.593 279.914 255.593 282.453 Q255.593 284.992 257.135 286.44 Q258.696 287.888 261.405 287.888 Q264.113 287.888 265.674 286.44 Q267.235 284.973 267.235 282.453 Q267.235 279.914 265.674 278.466 Q264.132 277.017 261.405 277.017 M257.606 275.4 Q255.161 274.798 253.788 273.124 Q252.433 271.45 252.433 269.043 Q252.433 265.676 254.822 263.72 Q257.229 261.764 261.405 261.764 Q265.599 261.764 267.987 263.72 Q270.376 265.676 270.376 269.043 Q270.376 271.45 269.003 273.124 Q267.649 274.798 265.223 275.4 Q267.969 276.039 269.492 277.901 Q271.034 279.763 271.034 282.453 Q271.034 286.534 268.533 288.716 Q266.05 290.898 261.405 290.898 Q256.759 290.898 254.258 288.716 Q251.775 286.534 251.775 282.453 Q251.775 279.763 253.317 277.901 Q254.86 276.039 257.606 275.4 M256.214 269.4 Q256.214 271.582 257.568 272.805 Q258.941 274.027 261.405 274.027 Q263.85 274.027 265.223 272.805 Q266.615 271.582 266.615 269.4 Q266.615 267.219 265.223 265.996 Q263.85 264.774 261.405 264.774 Q258.941 264.774 257.568 265.996 Q256.214 267.219 256.214 269.4 Z" fill="#000000" fill-rule="nonzero" fill-opacity="1" /><polyline clip-path="url(#clip582)" style="stroke:#009af9; stroke-linecap:round; stroke-linejoin:round; stroke-width:20; stroke-opacity:1; fill:none" points="364.932,1445.72 520.386,1445.72 669.35,1445.72 811.742,1445.72 947.489,1445.72 1076.53,1445.72 1198.81,1445.72 1314.29,1445.72 1422.97,1445.72 1524.82,1445.72 1619.86,1445.72 1708.13,1445.72 1789.67,1445.72 1864.54,1445.71 1932.84,1445.7 1994.66,1445.61 2050.14,1445.16 2099.41,1443.18 2142.64,1435.28 2180,1406.63 "/>
<polyline clip-path="url(#clip582)" style="stroke:#e26f46; stroke-linecap:round; stroke-linejoin:round; stroke-width:20; stroke-opacity:1; fill:none" points="2180,1445.72 2221.73,1445.42 2253.16,1445.2 2275.23,1445.05 2288.85,1444.95 2294.86,1444.91 2294.03,1444.92 2287.08,1444.97 2274.7,1445.05 2257.49,1445.17 2236.05,1445.32 2210.88,1445.5 2182.49,1445.68 2151.3,1445.62 2117.74,1445.67 2082.17,1444.29 2044.92,1438.31 2006.31,1416.53 1966.61,1344.3 1926.08,1121.1 "/>
<polyline clip-path="url(#clip582)" style="stroke:#3da44d; stroke-linecap:round; stroke-linejoin:round; stroke-width:20; stroke-opacity:1; fill:none" points="1926.08,1445.72 1883.42,1445.02 1840.34,1444.32 1797.04,1443.61 1753.69,1442.91 1710.45,1442.2 1667.46,1441.5 1624.84,1440.8 1582.69,1440.12 1541.11,1439.44 1500.17,1438.77 1459.95,1438.11 1420.51,1437.46 1381.89,1436.78 1344.13,1435.9 1307.26,1434.16 1271.32,1429.09 1236.32,1412.22 1202.27,1356.54 1169.19,1181.1 "/>
<polyline clip-path="url(#clip582)" style="stroke:#c271d2; stroke-linecap:round; stroke-linejoin:round; stroke-width:20; stroke-opacity:1; fill:none" points="1169.19,1445.72 1166.58,1445.58 1163.97,1445.45 1161.37,1445.31 1158.78,1445.18 1156.19,1445.05 1153.61,1444.91 1151.03,1444.78 1148.47,1444.65 1145.9,1444.51 1143.35,1444.38 1140.8,1444.24 1138.25,1444.08 1135.72,1443.75 1133.18,1442.73 1130.66,1438.9 1128.14,1424.89 1125.63,1376.63 1123.12,1221.35 1120.62,752.254 "/>
<polyline clip-path="url(#clip582)" style="stroke:#ac8d18; stroke-linecap:round; stroke-linejoin:round; stroke-width:20; stroke-opacity:1; fill:none" points="1120.62,1445.71 1118.81,1445.45 1116.99,1445.19 1115.18,1444.94 1113.38,1444.68 1111.57,1444.42 1109.77,1444.17 1107.98,1443.91 1106.19,1443.66 1104.4,1443.41 1102.61,1443.15 1100.83,1442.9 1099.05,1442.67 1097.27,1442.52 1095.5,1442.73 1093.73,1444.4 1091.96,1438.89 1090.2,1414.04 1088.44,1333.51 1086.68,1089.76 "/>
<polyline clip-path="url(#clip582)" style="stroke:#00a9ad; stroke-linecap:round; stroke-linejoin:round; stroke-width:20; stroke-opacity:1; fill:none" points="1086.68,1445.72 1079.35,1445.39 1072.07,1445.06 1064.85,1444.74 1057.69,1444.42 1050.58,1444.1 1043.53,1443.79 1036.54,1443.47 1029.61,1443.16 1022.74,1442.85 1015.92,1442.55 1009.16,1442.24 1002.45,1441.9 995.806,1441.42 989.215,1440.25 982.679,1436.38 976.2,1422.6 969.776,1375.55 963.408,1224.55 957.094,768.705 "/>
<polyline clip-path="url(#clip582)" style="stroke:#ed5d92; stroke-linecap:round; stroke-linejoin:round; stroke-width:20; stroke-opacity:1; fill:none" points="957.094,1445.72 936.035,1443.2 915.603,1440.75 895.788,1438.38 876.578,1436.08 857.963,1433.85 839.932,1431.69 822.472,1429.6 805.571,1427.58 789.217,1425.62 773.397,1423.73 758.099,1421.89 743.31,1420.08 729.017,1418.18 715.208,1415.64 701.87,1410.38 688.99,1395.06 676.557,1345.8 664.556,1190.38 652.977,723.554 "/>
<polyline clip-path="url(#clip582)" style="stroke:#c68125; stroke-linecap:round; stroke-linejoin:round; stroke-width:20; stroke-opacity:1; fill:none" points="652.977,1445.72 629.623,1438.68 608.018,1432.17 588.049,1426.15 569.609,1420.6 552.596,1415.47 536.911,1410.75 522.463,1406.39 509.163,1402.39 496.928,1398.7 485.681,1395.31 475.348,1392.2 465.859,1389.32 457.153,1386.62 449.167,1383.78 441.846,1379.59 435.138,1369.36 428.994,1336.04 423.371,1222.2 418.225,845.834 "/>
<polyline clip-path="url(#clip582)" style="stroke:#00a98d; stroke-linecap:round; stroke-linejoin:round; stroke-width:20; stroke-opacity:1; fill:none" points="418.225,1445.72 412.314,1444.11 407.04,1442.68 402.337,1441.4 398.146,1440.27 394.413,1439.25 391.09,1438.35 388.132,1437.55 385.502,1436.84 383.164,1436.2 381.087,1435.64 379.241,1435.13 377.603,1434.67 376.149,1434.14 374.859,1433.11 373.715,1429.6 372.701,1415.59 371.802,1361.1 371.005,1161.51 370.3,474.139 "/>
<polyline clip-path="url(#clip582)" style="stroke:#8e971d; stroke-linecap:round; stroke-linejoin:round; stroke-width:20; stroke-opacity:1; fill:none" points="370.3,1445.72 369.61,1445.71 369.007,1445.71 368.481,1445.71 368.022,1445.71 367.622,1445.71 367.273,1445.71 366.968,1445.71 366.703,1445.71 366.472,1445.71 366.271,1445.71 366.096,1445.71 365.944,1445.69 365.811,1445.61 365.696,1445.14 365.595,1442.92 365.508,1433.17 365.432,1393.78 365.366,1245.82 365.309,724.497 "/>
<polyline clip-path="url(#clip582)" style="stroke:#00a8cb; stroke-linecap:round; stroke-linejoin:round; stroke-width:20; stroke-opacity:1; fill:none" points="365.309,1445.72 365.259,1445.71 365.215,1445.7 365.177,1445.7 365.144,1445.69 365.115,1445.69 365.091,1445.68 365.069,1445.68 365.051,1445.68 365.035,1445.68 365.021,1445.67 365.009,1445.67 364.998,1445.65 364.989,1445.56 364.982,1445.06 364.975,1442.65 364.969,1432.08 364.964,1389.31 364.96,1228.24 364.956,659.535 "/>
<polyline clip-path="url(#clip582)" style="stroke:#9b7fe8; stroke-linecap:round; stroke-linejoin:round; stroke-width:20; stroke-opacity:1; fill:none" points="364.956,1445.72 364.953,1445.71 364.95,1445.71 364.947,1445.71 364.945,1445.71 364.943,1445.71 364.942,1445.71 364.94,1445.71 364.939,1445.71 364.938,1445.71 364.937,1445.7 364.937,1445.7 364.936,1445.68 364.936,1445.58 364.935,1445.01 364.935,1442.25 364.934,1430.1 364.934,1380.75 364.934,1194.3 364.933,533.781 "/>
<polyline clip-path="url(#clip582)" style="stroke:#608cf6; stroke-linecap:round; stroke-linejoin:round; stroke-width:20; stroke-opacity:1; fill:none" points="364.933,1445.72 364.933,1445.72 364.933,1445.72 364.933,1445.72 364.933,1445.72 364.933,1445.71 364.933,1445.72 364.933,1445.71 364.933,1445.72 364.932,1445.71 364.932,1445.71 364.932,1445.71 364.932,1445.69 364.932,1445.53 364.932,1444.71 364.932,1440.7 364.932,1422.92 364.932,1350.22 364.932,1073.77 364.932,87.9763 "/>
<polyline clip-path="url(#clip582)" style="stroke:#f05f73; stroke-linecap:round; stroke-linejoin:round; stroke-width:20; stroke-opacity:1; fill:none" points="364.932,1445.72 364.932,1445.71 364.932,1445.72 364.932,1445.71 364.932,1445.72 364.932,1445.72 364.932,1445.71 364.932,1445.72 364.932,1445.71 364.932,1445.72 364.932,1445.72 364.932,1445.71 364.932,1445.71 364.932,1445.68 364.932,1445.51 364.932,1444.65 364.932,1440.74 364.932,1424.42 364.932,1360.95 364.932,1129.56 "/>
<polyline clip-path="url(#clip582)" style="stroke:#dd64b5; stroke-linecap:round; stroke-linejoin:round; stroke-width:20; stroke-opacity:1; fill:none" points="364.932,1445.71 364.932,1445.72 364.932,1445.71 364.932,1445.72 364.932,1445.71 364.932,1445.71 364.932,1445.72 364.932,1445.71 364.932,1445.72 364.932,1445.71 364.932,1445.71 364.932,1445.71 364.932,1445.7 364.932,1445.63 364.932,1445.24 364.932,1443.34 364.932,1434.91 364.932,1400.6 364.932,1270.53 364.932,808.139 "/>
</svg>
